<svg width="28" height="48" viewBox="0 0 28 48" fill="none" xmlns="http://www.w3.org/2000/svg"><path d="M15.405 4.16h-3.571a.773.773 0 1 0 0 1.548h3.57a.773.773 0 1 0 0-1.548z" fill="#4080FE"/><path d="M23.812 0H3.427A3.431 3.431 0 0 0 0 3.427v41.146A3.431 3.431 0 0 0 3.427 48h20.38a3.431 3.431 0 0 0 3.426-3.427V3.427A3.43 3.43 0 0 0 23.812 0zm1.873 44.568a1.882 1.882 0 0 1-1.878 1.879H3.427a1.882 1.882 0 0 1-1.879-1.879V3.427c0-1.032.841-1.879 1.879-1.879h20.38c1.032 0 1.878.841 1.878 1.879v41.141z" fill="#4080FE"/><path d="M13.62 38.479a2.524 2.524 0 1 0 0 5.048 2.524 2.524 0 0 0 0-5.048zm0 3.499a.978.978 0 0 1-.976-.976c0-.537.438-.975.975-.975.537 0 .975.438.975.975a.978.978 0 0 1-.975.976z" fill="#4080FE"/></svg>