<svg width="48" height="48" viewBox="0 0 48 48" fill="none" xmlns="http://www.w3.org/2000/svg"><path d="M26.06 10.918a2.506 2.506 0 0 0-1.978-2.456V5.946c.42.24.72.659.72 1.138 0 .36.239.6.598.6.36 0 .6-.24.6-.6a2.448 2.448 0 0 0-1.918-2.396v-.3c0-.36-.24-.599-.599-.599-.36 0-.599.24-.599.6v.299c-1.078.3-1.917 1.258-1.917 2.396s.839 2.157 1.917 2.396v2.576a1.362 1.362 0 0 1-.599-1.138c0-.36-.24-.599-.599-.599-.36 0-.599.24-.599.599 0 1.138.779 2.097 1.797 2.396v.36c0 .36.24.599.6.599.359 0 .598-.24.598-.6v-.299a2.506 2.506 0 0 0 1.977-2.456zm-3.835-3.774c0-.48.3-.959.72-1.138v2.276c-.48-.24-.72-.659-.72-1.138zm1.857 4.972V9.72c.48.18.78.659.78 1.198 0 .54-.3 1.019-.78 1.198z" fill="#4080FE"/><path d="M46.487 43.627H45.35v-2.995c0-.36-.24-.6-.599-.6h-2.336V20.443h2.336c.36 0 .6-.24.6-.599V15.77c0-.36-.24-.599-.6-.599h-1.737l-.06-.06L23.903.135c-.24-.18-.54-.18-.72 0L4.134 15.17l-.06.06H2.277c-.359 0-.599.24-.599.6v4.013c0 .36.24.6.6.6h2.336v19.588H2.336c-.36 0-.599.24-.599.6v2.995H.6c-.36 0-.599.24-.599.599V47.4c0 .36.24.599.6.599h45.887c.36 0 .6-.24.6-.6v-3.174c0-.3-.3-.6-.6-.6zm-5.271-3.595H37.5V20.443h3.715v19.59zM20.368 20.443v19.59h-9.585v-19.59h9.585zm1.198 0h3.774v19.59h-3.714v-19.59h-.06zm4.973 0h9.704v19.59h-9.705v-19.59zm-2.996-19.11L41.096 15.17H5.99L23.543 1.333zM2.876 16.369H44.09v2.876H2.876v-2.876zm2.935 4.074h3.714v19.59H5.811v-19.59zM2.935 41.231h41.216v2.396H2.935V41.23zm42.953 5.63H1.198v-1.976h44.69v1.977z" fill="#4080FE"/></svg>