<svg width="52" height="53" viewBox="0 0 52 53" fill="none" xmlns="http://www.w3.org/2000/svg"><path d="M48 20c0-4.411-3.589-8-8-8a7.955 7.955 0 0 0-3.119.634C36.96 12.099 37 11.553 37 11c0-6.065-4.935-11-11-11S15 4.935 15 11c0 .553.04 1.099.119 1.634A7.955 7.955 0 0 0 12 12c-4.411 0-8 3.589-8 8s3.589 8 8 8h28c4.411 0 8-3.589 8-8zM6 20c0-3.309 2.691-6 6-6 1.538 0 2.997.584 4.11 1.644.344.328.872.366 1.262.097.39-.272.534-.781.346-1.218A8.802 8.802 0 0 1 17 11c0-4.963 4.037-9 9-9s9 4.037 9 9a8.793 8.793 0 0 1-.718 3.522 1 1 0 0 0 1.608 1.121A5.937 5.937 0 0 1 40 14c3.309 0 6 2.691 6 6s-2.691 6-6 6H12c-3.309 0-6-2.691-6-6zm25 23H21a1 1 0 0 0-1 1v8a1 1 0 0 0 1 1h10a1 1 0 0 0 1-1v-8a1 1 0 0 0-1-1zm-1 8h-8v-6h8v6zM11 34H1a1 1 0 0 0-1 1v8a1 1 0 0 0 1 1h10a1 1 0 0 0 1-1v-8a1 1 0 0 0-1-1zm-1 8H2v-6h8v6zm41-8H41a1 1 0 0 0-1 1v8a1 1 0 0 0 1 1h10a1 1 0 0 0 1-1v-8a1 1 0 0 0-1-1zm-1 8h-8v-6h8v6zM26 30a1 1 0 0 1 1 1v8a1 1 0 1 1-2 0v-8a1 1 0 0 1 1-1zm-5 10h-5a1 1 0 1 1 0-2h4v-7a1 1 0 1 1 2 0v8a1 1 0 0 1-1 1zm16-1a1 1 0 0 1-1 1h-5a1 1 0 0 1-1-1v-8a1 1 0 1 1 2 0v7h4a1 1 0 0 1 1 1z" fill="#4080FE"/></svg>