<svg width="48" height="48" viewBox="0 0 48 48" fill="none" xmlns="http://www.w3.org/2000/svg"><path d="M40.258 14.852v-1.69H38.71v1.548h-1.55v2.322a2.325 2.325 0 0 0 2.323 2.323c.427 0 .774.348.774.774v.774h-.774a.775.775 0 0 1-.774-.774v-.774H37.16v.774c0 1.008.65 1.86 1.549 2.18V24h1.548v-1.548h1.548v-2.323a2.325 2.325 0 0 0-2.322-2.323.775.775 0 0 1-.774-.774v-.774h.774c.427 0 .774.348.774.774v.774h1.548v-.774a2.32 2.32 0 0 0-1.548-2.18z" fill="#4080FE"/><path d="M48 18.58c0-4.695-3.82-8.515-8.516-8.515s-8.516 3.82-8.516 8.516a8.45 8.45 0 0 0 1.386 4.653 12.3 12.3 0 0 0-5.584 1.415 8.07 8.07 0 0 0-2.506-2.693 8.148 8.148 0 0 0-3.348-1.279l-3.258-.466-.45-1.8a6.207 6.207 0 0 0 2.717-3.7h.204a3.1 3.1 0 0 0 3.097-3.097c0-.733-.267-1.399-.694-1.929l.558-2.079c.09-.36.136-.73.136-1.101 0-1.9-1.2-3.613-2.985-4.261L15.15.392A6.48 6.48 0 0 0 12.927 0c-2.036 0-3.98.972-5.2 2.6l-.393.523a3.102 3.102 0 0 0-2.689 3.07c0 1.246.438 2.778.674 3.514a3.067 3.067 0 0 0-.674 1.906 3.1 3.1 0 0 0 3.097 3.097h.204a6.205 6.205 0 0 0 2.718 3.7l-.45 1.8-3.26.466a8.158 8.158 0 0 0-3.347 1.28A8.083 8.083 0 0 0 0 28.694V42.58h22.283C24.516 45.849 28.269 48 32.516 48c6.83 0 12.387-5.557 12.387-12.387 0-3.397-1.375-6.477-3.597-8.718C45.128 26.06 48 22.651 48 18.581zM29.53 41.033a16.463 16.463 0 0 1-.856-4.645h7.685a16.43 16.43 0 0 1-.86 4.645h-5.97zm5.342 1.549c-.827 1.758-1.788 2.948-2.357 3.56-.573-.61-1.536-1.798-2.363-3.56h4.72zM30.16 28.645c.827-1.757 1.788-2.948 2.358-3.56.572.61 1.535 1.798 2.362 3.56h-4.72zm5.343 1.549c.451 1.317.779 2.865.855 4.645h-7.685c.078-1.777.407-3.327.862-4.645h5.968zm-7.052-1.549h-4.225a10.832 10.832 0 0 1 6.362-3.689 15.962 15.962 0 0 0-2.137 3.69zm-5.307 1.549h4.746a18.274 18.274 0 0 0-.765 4.645h-5.408c.12-1.684.622-3.26 1.427-4.645zm3.98 6.193c.07 1.749.353 3.3.765 4.645h-4.746a10.747 10.747 0 0 1-1.428-4.645h5.41zm10.784 0h5.408a10.747 10.747 0 0 1-1.428 4.645h-4.745c.412-1.344.696-2.896.765-4.645zm0-1.548a18.305 18.305 0 0 0-.764-4.645h4.745a10.747 10.747 0 0 1 1.428 4.645h-5.41zm-1.327-6.194a15.955 15.955 0 0 0-2.136-3.689 10.835 10.835 0 0 1 6.361 3.69h-4.225zm-22.646-3.78l.998.5-.637.958h-.72l-.639-.958.998-.5zm-2.393 1.198l.765 1.148-.785 2.356a17.536 17.536 0 0 1-1.269-2.86l1.289-.645zm2.178 1.808h.432l1.13 3.388a17.763 17.763 0 0 1-1.347 1.686 17.69 17.69 0 0 1-1.346-1.686l1.13-3.388zm2.63 1.696l-.786-2.356.766-1.148 1.29.644c-.338.99-.763 1.945-1.27 2.86zm2.189-7.667a17.772 17.772 0 0 1-.48 3.296l-2.818-1.408 2.064-2.063 1.234.175zm1.59-8.739v-3.096a1.55 1.55 0 0 1 1.548 1.548 1.55 1.55 0 0 1-1.548 1.548zM6.194 11.613a1.55 1.55 0 0 1 1.548-1.548h.029c-.012.155-.03.31-.03.468v2.628a1.55 1.55 0 0 1-1.547-1.548zm1.904-3.097h-.356c-.39 0-.758.08-1.102.212-.204-.712-.446-1.722-.446-2.534a1.55 1.55 0 0 1 1.548-1.549h.387l.837-1.116a4.974 4.974 0 0 1 3.96-1.98c.579 0 1.148.1 1.693.297l5.093 1.852a2.996 2.996 0 0 1 1.88 3.518l-.402 1.5a3.058 3.058 0 0 0-1.061-.2h-.774c-3.587 0-8.043-2.937-8.087-2.967l-.43-.286-.429.286a5.976 5.976 0 0 0-2.31 2.967zm1.192 4.645v-2.628c0-1.323.585-2.562 1.585-3.401 1.21.74 4.548 2.615 7.706 2.896v3.133a4.65 4.65 0 0 1-4.646 4.646A4.65 4.65 0 0 1 9.29 13.16zm4.646 6.194c.64 0 1.26-.099 1.841-.28l.397 1.591-2.239 2.24-2.239-2.24.398-1.59c.581.18 1.2.279 1.841.279zm-3.37 2.37l2.063 2.063-2.817 1.408a17.836 17.836 0 0 1-.48-3.296l1.233-.175zM6.193 41.032V29.42H4.645v11.613H1.548V28.695a6.54 6.54 0 0 1 2.918-5.452 6.599 6.599 0 0 1 2.708-1.035l.603-.086a19.17 19.17 0 0 0 5.611 12.49l.547.547.548-.547a19.17 19.17 0 0 0 5.611-12.49l.602.087c.964.137 1.9.496 2.709 1.035a6.536 6.536 0 0 1 2.043 2.21c-3.21 2.24-5.319 5.956-5.319 10.159 0 1.945.463 3.78 1.266 5.42H6.194zm18.032 1.549h4.225a15.962 15.962 0 0 0 2.137 3.689 10.831 10.831 0 0 1-6.362-3.69zm10.219 3.689a15.955 15.955 0 0 0 2.136-3.69h4.225a10.832 10.832 0 0 1-6.361 3.69zm5.25-20.733a12.3 12.3 0 0 0-5.24-2.144 6.91 6.91 0 0 1-1.939-4.812 6.976 6.976 0 0 1 6.968-6.968 6.976 6.976 0 0 1 6.968 6.968c0 3.77-3.013 6.843-6.757 6.957z" fill="#4080FE"/></svg>