<svg width="51" height="48" viewBox="0 0 51 48" fill="none" xmlns="http://www.w3.org/2000/svg"><path d="M30.996 32.52c-.73 2.095-3.153 3.556-5.894 3.556-2.74 0-5.164-1.46-5.884-3.556a.646.646 0 0 1 .392-.815.647.647 0 0 1 .814.402c.54 1.588 2.466 2.699 4.678 2.699 2.212 0 4.138-1.111 4.688-2.699a.64.64 0 0 1 .804-.402.651.651 0 0 1 .402.815zm-10.138-7.143a.636.636 0 0 1-.497.74.53.53 0 0 1-.127.022.644.644 0 0 1-.624-.508c-.318-1.545-1.334-2.624-2.487-2.624-1.154 0-2.18 1.08-2.487 2.624a.637.637 0 0 1-.752.487.62.62 0 0 1-.497-.74c.434-2.15 1.968-3.641 3.736-3.641 1.767 0 3.302 1.492 3.735 3.64zm15.26.741c-.042.01-.084.021-.127.021a.624.624 0 0 1-.613-.508c-.318-1.545-1.344-2.624-2.487-2.624-1.154 0-2.18 1.08-2.498 2.624a.626.626 0 0 1-.74.487.62.62 0 0 1-.498-.74c.434-2.15 1.968-3.641 3.736-3.641 1.757 0 3.291 1.492 3.725 3.64a.62.62 0 0 1-.498.74z" fill="#4080FE"/><path d="M46.807 23.324a2.528 2.528 0 0 0-.286-.042v-2.625c0-4.667-4.148-8.466-9.25-8.466h-7.957v-.54a2.134 2.134 0 0 0-2.127-2.127h-1.662V9.25a.53.53 0 0 0-.296-.476l-.73-.35 3.026-.581a.53.53 0 0 0 .434-.487.525.525 0 0 0-.38-.53l-2.244-.698a3.082 3.082 0 0 0 2.55-3.037A3.094 3.094 0 0 0 24.795 0a3.094 3.094 0 0 0-3.09 3.09 3.09 3.09 0 0 0 2.54 3.037l.042.434a.51.51 0 0 0 .37.466l.582.18-2.529.487a.517.517 0 0 0-.423.455.512.512 0 0 0 .296.54l1.746.835h-1.301a2.134 2.134 0 0 0-2.127 2.128v.54h-7.958c-5.101 0-9.25 3.798-9.25 8.465v2.646c-.042 0-.074.01-.116.021A4.298 4.298 0 0 0 0 27.578a4.3 4.3 0 0 0 1.492 3.27c-.233.71-.476 2.074.35 3.471.497.847 1.301 1.556 2.412 2.106 1.302 3.25 4.699 5.567 8.689 5.567h5.534c.159 0 .275.17.222.317-.783 1.831-2.36 3.164-3.09 4.254a.83.83 0 0 0 .074 1.037c.19.255.508.392.836.392.085.01.18.01.265 0 4.117-.878 8.37-4.35 9.45-5.926a.185.185 0 0 1 .148-.074h10.89c5.1 0 9.25-3.8 9.25-8.466v-1.651c.094-.01.179-.032.264-.043a4.306 4.306 0 0 0 3.576-4.254c0-2.106-1.502-3.905-3.555-4.254zM24.795 4.804a1.712 1.712 0 0 1-1.704-1.714c0-.942.762-1.714 1.704-1.714a1.72 1.72 0 0 1 1.714 1.714 1.72 1.72 0 0 1-1.714 1.714zM1.375 27.578c0-1.397.964-2.582 2.318-2.878v5.746a2.935 2.935 0 0 1-2.317-2.868zm1.662 6.054c-.465-.773-.434-1.535-.328-2.043.265.106.54.18.836.233.053.01.095.021.148.021v1.683c0 .317.022.635.064.941a3.338 3.338 0 0 1-.72-.835zm19.24-21.98c0-.413.338-.752.75-.752h4.16c.412 0 .751.339.751.752v.54h-5.662v-.54zm22.868 21.874c0 3.979-3.534 7.206-7.873 7.206H26.107c-.402 0-.772.19-1.016.519-.74 1.005-2.825 3.291-7.545 5.238-.148.064-.286-.127-.18-.243 3.217-3.693 3.196-5.027 3.069-5.376-.021-.063-.18-.159-.254-.159l-7.239.021c-2.878 0-5.407-1.418-6.772-3.545 1.883.572 4.307.9 7.249.963.243.498.751.847 1.344.847h1.344a1.49 1.49 0 0 0 1.492-1.492 1.49 1.49 0 0 0-1.492-1.492h-1.344c-.561 0-1.048.306-1.302.762-3.979-.085-6.508-.635-8.106-1.334a6.408 6.408 0 0 1-.286-1.915V20.657c0-3.968 3.535-7.207 7.874-7.207h24.329c4.339 0 7.873 3.239 7.873 7.207v12.869zm1.376-3.048v-5.8h.032a2.933 2.933 0 0 1 2.434 2.9 2.94 2.94 0 0 1-2.466 2.9z" fill="#4080FE"/></svg>