<svg width="47" height="48" viewBox="0 0 47 48" fill="none" xmlns="http://www.w3.org/2000/svg"><path d="M32.881 27.727l-2.011-.943v-6.959l-6.861-3.275v-2.76h-1.15v2.741l-6.895 3.293v6.96l-2.029.953-6.465-3.086L0 28.21v7.948l7.47 3.557 7.47-3.557v-.08l1.04.488v7.878L23.452 48l7.47-3.557v-7.878l1.006-.472v.064l7.47 3.557 7.471-3.557v-7.948l-7.47-3.557-6.517 3.075zm12.01.856l-5.631 2.39-5.385-2.448 5.454-2.603 5.562 2.66zM26.393 24.68v1.264l2.874 1.34-5.258 2.499v-6.212l5.746-2.437v5.109l-3.362-1.563zm-2.384-4.597v-2.299l4.976 2.373-5.631 2.397-5.39-2.448 4.895-2.299v2.299l1.15-.023zm-6.896.936l5.746 2.604v6.16l-5.24-2.5 2.873-1.339v-1.27l-3.38 1.569V21.02zm-4.074 7.563l-5.632 2.39-5.39-2.448 5.453-2.603 5.569 2.66zm-11.872.816l5.746 2.609v6.16l-5.746-2.736V29.4zm6.878 8.769V31.95l5.746-2.43v4.746l-2.959-1.385-.04 1.264 2.873 1.34-5.62 2.683zm15.309 1.092l-5.39-2.448 5.47-2.603 5.568 2.654-5.648 2.397zm-6.241-1.575l5.746 2.603v6.16l-5.746-2.735v-6.028zm6.896 8.764v-6.212l5.746-2.437v5.913L24.01 46.45zm5.59-10.58l-6.165-2.936-6.206 2.936-2.299-1.08v-6.246l1.333-.627 7.16 3.448 7.16-3.448 1.3.61v6.32L29.6 35.87zm6.85-3.212l-3.447 1.609v-4.884l5.746 2.608v6.178l-5.602-2.678 3.315-1.557-.011-1.276zm3.449 5.494v-6.2l5.746-2.432v5.913l-5.746 2.719zM23.434 5.746a2.873 2.873 0 1 0 0-5.746 2.873 2.873 0 0 0 0 5.746zm0-4.597a1.724 1.724 0 1 1 0 3.449 1.724 1.724 0 0 1 0-3.449zm.575 9.195h-1.15v2.298h1.15v-2.298zm0-3.448h-1.15v2.298h1.15V6.896z" fill="#4080FE"/></svg>