<svg width="45" height="48" viewBox="0 0 45 48" fill="none" xmlns="http://www.w3.org/2000/svg"><path d="M42.467 15.743h-2.273a.75.75 0 0 0 0 1.5h2.273v19.505h-1.49v-8.402a.75.75 0 0 0-.745-.75.75.75 0 0 0-.745.75v8.402H20.6a2.506 2.506 0 0 0 .186-2.814l-3.948-7.089c2.272-1.387 5.29-2.663 11.175-2.663.522.3 1.155.375 1.75.225.485-.225.858-.675.97-1.2.41-1.688-.783-5.176-3.018-8.89-2.421-3.975-5.923-7.764-7.86-6.638-.372.225-.67.637-.745 1.087-.075.3-.112.6-.112.863-3.762 5.589-6.966 7.69-9.834 9.527-.075.038-1.527.975-2.012 1.313-2.235 1.575-2.272 4.726-1.043 6.826.857 1.463 2.98 2.513 4.731 2.513.41 0 .82-.075 1.192-.187.112-.038.224-.075.335-.15 0 0 4.098 7.126 4.173 7.239H4.47v-8.364a.75.75 0 0 0-.745-.75.75.75 0 0 0-.745.75v8.402H1.49V17.243h2.198a.75.75 0 0 0 0-1.5H1.49a1.5 1.5 0 0 0-1.49 1.5V42.75c0 .825.67 1.5 1.49 1.5h16.39v2.25h-3.538a.75.75 0 0 0 0 1.501h15.273a.75.75 0 0 0 0-1.5h-3.539v-2.25h16.39a1.5 1.5 0 0 0 1.49-1.501V17.243a1.5 1.5 0 0 0-1.49-1.5zM20.6 8.99h.074c.634 0 3.018 1.688 5.737 6.152 2.831 4.613 3.13 7.539 2.794 7.877-.335.112-1.564-.6-3.24-2.551 1.154-2.776-.15-6.001-2.906-7.164a5.24 5.24 0 0 0-1.677-.413c-.968-2.288-1.006-3.676-.782-3.9zm4.21 10.053a97.714 97.714 0 0 1-1.453-2.138c-.522-.826-.932-1.613-1.304-2.326a3.89 3.89 0 0 1 2.756 4.464zm-5.44-7.315c.671 2.101 1.565 4.089 2.757 5.927 1.118 1.838 2.422 3.563 3.949 5.063-.969.038-1.825.15-2.645.263a27.758 27.758 0 0 1-3.204-4.276 24.817 24.817 0 0 1-2.384-5.026 32.324 32.324 0 0 0 1.528-1.95zm-2.644 3.264c.596 1.575 1.378 3.075 2.235 4.5a30.796 30.796 0 0 0 2.72 3.827c-3.39.75-5.402 2.063-7.116 3.225-.223.15-.447.3-.67.413l-3.688-6.714a30.205 30.205 0 0 0 6.519-5.251zm-5.215 13.24c-1.155.45-3.427-.488-4.135-1.688-.857-1.5-.894-3.788.633-4.838.298-.225.596-.413.931-.638l3.688 6.639a7.738 7.738 0 0 1-1.117.525zm2.198.6a41.05 41.05 0 0 0 1.676-1.05c.074-.038.112-.075.186-.113.075-.075 3.949 7.015 3.949 7.015.298.525.111 1.162-.41 1.425-.522.3-1.192.112-1.49-.413l-3.912-6.864zM24.586 46.5H19.37v-2.25h5.215v2.25zm17.88-3.751H1.49v-4.501h40.977v4.5z" fill="#4080FE"/><path d="M38.742 41.248h1.49a.75.75 0 0 0 0-1.5h-1.49a.75.75 0 0 0 0 1.5zM31.664 16.83l4.21 2.064a.744.744 0 0 0 1.005-.338l2.011-4.388c.522-1.2.038-2.588-1.117-3.151-1.155-.563-2.533-.113-3.092 1.05 0 .038 0 .038-.037.075l-.298.675-.633-.3a2.346 2.346 0 0 0-3.13 1.088s0 .037-.037.037c-.559 1.163-.037 2.588 1.118 3.189zm.223-2.587c.112-.225.298-.376.484-.488.075-.038.187-.038.261-.038.15 0 .261.038.41.075l1.304.638a.744.744 0 0 0 1.006-.337l.633-1.35c.112-.226.26-.376.484-.45.224-.076.447-.076.633.037a.88.88 0 0 1 .447.525.854.854 0 0 1-.037.675L35.8 17.206l-3.54-1.726c-.372-.225-.558-.75-.372-1.237zM43.92 1.265c-.337-.975-1.38-1.5-2.348-1.163l-5.29 1.726a1.79 1.79 0 0 0-1.08.937 1.89 1.89 0 0 0-.112 1.426l.708 2.1c.335.975 1.378 1.5 2.346 1.163l5.29-1.725a1.79 1.79 0 0 0 1.08-.938c.224-.45.261-.938.112-1.425l-.708-2.1zm-.746 2.813a.382.382 0 0 1-.223.188L37.699 5.99c-.187.075-.41-.037-.485-.225l-.708-2.1a.232.232 0 0 1 .038-.263.382.382 0 0 1 .223-.187L42.02 1.49h.111a.36.36 0 0 1 .336.263l.707 2.1c.038.038.038.15 0 .225z" fill="#4080FE"/><path d="M39.189 3.178l.223.712.26.713.597-.6.596-.6-.857-.113-.82-.112zM25.07 9.104c.298.375.745.563 1.23.563h5.55c.931 0 1.676-.75 1.676-1.688V3.178c0-.938-.745-1.688-1.676-1.688H26.3c-.932 0-1.677.75-1.677 1.688v4.838c0 .338.112.676.298.976a.514.514 0 0 1 .15.112zm1.751-.937l1.49-2.063.447.862.596 1.2h-2.533zm5.215-.15c0 .112-.074.187-.186.187h-.857l-.67-1.313.67-.525L32 7.604v.412h.037zm-5.885-4.84c0-.112.074-.187.186-.187h5.55c.075 0 .15.075.15.188v2.025l-.336-.412a.753.753 0 0 0-1.043-.113l-1.006.825-.559-1.125a.744.744 0 0 0-1.005-.337c-.112.037-.187.112-.261.225L26.15 6.59V3.178z" fill="#4080FE"/></svg>