<svg width="50" height="48" viewBox="0 0 50 48" fill="none" xmlns="http://www.w3.org/2000/svg"><path d="M43.035 23.172a2.483 2.483 0 0 0 2.333-1.655h3.46a.828.828 0 0 0 0-1.655h-3.46a2.483 2.483 0 0 0-2.334-1.655H41.38v-1.655h1.656a2.483 2.483 0 0 0 2.333-1.655h3.46a.828.828 0 0 0 0-1.656h-3.46a2.483 2.483 0 0 0-2.334-1.655H41.09a4.966 4.966 0 0 0-3.85-3.236V6.62a2.483 2.483 0 0 0-1.655-2.333V.827a.828.828 0 0 0-1.655 0v3.46a2.483 2.483 0 0 0-1.655 2.334v1.655H30.62V6.62a2.483 2.483 0 0 0-1.655-2.334V.827a.828.828 0 0 0-1.656 0v3.46a2.483 2.483 0 0 0-1.655 2.334v1.655H24V6.62a2.483 2.483 0 0 0-1.655-2.334V.827a.828.828 0 0 0-1.655 0v3.46a2.482 2.482 0 0 0-1.655 2.334v1.655h-1.656V6.62a2.483 2.483 0 0 0-1.655-2.334V.827a.828.828 0 0 0-1.655 0v3.46a2.482 2.482 0 0 0-1.655 2.334v1.73a4.965 4.965 0 0 0-3.848 3.235H6.62a2.483 2.483 0 0 0-2.334 1.655H.827a.828.828 0 0 0 0 1.656h3.46a2.483 2.483 0 0 0 2.334 1.655h1.655v1.655H6.62a2.483 2.483 0 0 0-2.334 1.655H.827a.828.828 0 0 0 0 1.655h3.46a2.482 2.482 0 0 0 2.334 1.655h1.655v1.656H6.62a2.483 2.483 0 0 0-2.334 1.655H.827a.828.828 0 0 0 0 1.655h3.46a2.482 2.482 0 0 0 2.334 1.655h1.655v1.655H6.62a2.483 2.483 0 0 0-2.334 1.655H.827a.828.828 0 1 0 0 1.656h3.46a2.482 2.482 0 0 0 2.334 1.655h1.945a4.966 4.966 0 0 0 3.848 3.236v1.73a2.483 2.483 0 0 0 1.655 2.333v3.46a.828.828 0 0 0 1.655 0v-3.46a2.482 2.482 0 0 0 1.655-2.334v-1.655h1.655v1.655a2.483 2.483 0 0 0 1.656 2.334v3.46a.828.828 0 1 0 1.655 0v-3.46A2.482 2.482 0 0 0 24 41.38v-1.655h1.655v1.655a2.483 2.483 0 0 0 1.655 2.334v3.46a.828.828 0 0 0 1.655 0v-3.46a2.482 2.482 0 0 0 1.656-2.334v-1.655h1.655v1.655a2.482 2.482 0 0 0 1.655 2.334v3.46a.828.828 0 0 0 1.655 0v-3.46a2.483 2.483 0 0 0 1.655-2.334v-1.73a4.967 4.967 0 0 0 3.849-3.235h1.944a2.483 2.483 0 0 0 2.334-1.655h3.46a.828.828 0 0 0 0-1.656h-3.46a2.483 2.483 0 0 0-2.334-1.655H41.38v-1.655h1.656a2.483 2.483 0 0 0 2.333-1.655h3.46a.828.828 0 0 0 0-1.655h-3.46a2.483 2.483 0 0 0-2.334-1.655H41.38v-1.656h1.656zm0-3.31a.828.828 0 0 1 0 1.655h-1.656v-1.655h1.656zm0-6.62a.828.828 0 0 1 0 1.655h-1.656V13.24h1.656zM33.93 6.62a.828.828 0 0 1 1.655 0v1.655H33.93V6.62zm-6.62 0a.828.828 0 0 1 1.654 0v1.655H27.31V6.62zm-6.621 0a.827.827 0 1 1 1.655 0v1.655H20.69V6.62zm-6.621 0a.828.828 0 0 1 1.655 0v1.655H14.07V6.62zM6.62 14.896a.828.828 0 0 1 0-1.656h1.655v1.656H6.62zm0 6.62a.828.828 0 0 1 0-1.655h1.655v1.655H6.62zm0 6.62a.828.828 0 0 1 0-1.654h1.655v1.655H6.62zm0 6.622a.828.828 0 0 1 0-1.656h1.655v1.656H6.62zm9.103 6.62a.828.828 0 0 1-1.655 0v-1.655h1.655v1.655zm6.62 0a.828.828 0 0 1-1.654 0v-1.655h1.655v1.655zm6.621 0a.828.828 0 0 1-1.655 0v-1.655h1.655v1.655zm6.621 0a.828.828 0 0 1-1.655 0v-1.655h1.655v1.655zm.828-3.31H13.24a3.31 3.31 0 0 1-3.31-3.31V13.24a3.31 3.31 0 0 1 3.31-3.31h23.173a3.31 3.31 0 0 1 3.31 3.31v21.52a3.31 3.31 0 0 1-3.31 3.31zm6.62-4.966a.828.828 0 1 1 0 1.656H41.38v-1.656h1.656zm0-6.62a.828.828 0 0 1 0 1.655H41.38v-1.655h1.656z" fill="#4080FE"/><path d="M34.759 20.69a.828.828 0 0 0-.828.827v.828a.828.828 0 0 0 1.655 0v-.828a.828.828 0 0 0-.827-.827z" fill="#4080FE"/><path d="M33.103 13.241H16.552a2.483 2.483 0 0 0-2.483 2.483v16.552a2.483 2.483 0 0 0 2.483 2.483h16.551a2.483 2.483 0 0 0 2.483-2.483v-6.62a.828.828 0 0 0-1.655 0v6.62a.828.828 0 0 1-.828.827H16.552a.828.828 0 0 1-.828-.827V15.724a.828.828 0 0 1 .828-.827h16.551a.828.828 0 0 1 .828.827v2.483a.828.828 0 0 0 1.655 0v-2.483a2.483 2.483 0 0 0-2.483-2.483z" fill="#4080FE"/></svg>