<svg width="48" height="48" viewBox="0 0 48 48" fill="none" xmlns="http://www.w3.org/2000/svg"><path d="M.808 47.999A.808.808 0 0 1 0 47.191c0-5.72 1.49-10.933 4.086-14.302 1.443-1.88 3.586-2.176 5.475-2.436 1.588-.219 3.087-.426 4.167-1.462.796-.755.766-2.18.63-4.268a.808.808 0 0 1 .753-.859.814.814 0 0 1 .859.754c.136 2.07.275 4.212-1.125 5.542-1.457 1.397-3.29 1.65-5.063 1.895-1.811.249-3.375.465-4.415 1.82-2.384 3.092-3.751 7.946-3.751 13.316A.808.808 0 0 1 .808 48zm32.849-15.396a.793.793 0 0 1-.292-.056 6.482 6.482 0 0 0-.973-.265 26.064 26.064 0 0 0-1.458-.219c-1.713-.226-3.653-.482-5.126-1.907-1.4-1.328-1.259-3.496-1.122-5.592.03-.446.448-.772.858-.755a.808.808 0 0 1 .754.86c-.136 2.119-.168 3.565.628 4.32 1.096 1.06 2.613 1.26 4.219 1.472.529.07 1.055.14 1.569.238.42.09.818.18 1.234.341a.81.81 0 0 1-.291 1.563z" fill="#4080FE"/><path d="M26.342 48L.808 47.998a.808.808 0 1 1 0-1.616h25.534a.808.808 0 1 1 0 1.616z" fill="#4080FE"/><path d="M15.575 48a.81.81 0 0 1-.762-.54l-3.376-9.618-1.535.548a.807.807 0 0 1-1.052-.972l1.809-6.657a.807.807 0 1 1 1.559.422l-1.402 5.165.843-.3a.808.808 0 0 1 1.035.492l3.644 10.383A.808.808 0 0 1 15.575 48zm9.507 0a.808.808 0 0 1-.762-1.079l1.205-3.398a.809.809 0 0 1 1.524.54l-1.206 3.398a.81.81 0 0 1-.761.539zm4.437-15.096a.808.808 0 0 1-.78-.6l-.301-1.122a.807.807 0 1 1 1.561-.42l.301 1.124a.807.807 0 0 1-.781 1.018z" fill="#4080FE"/><path d="M17.685 36.464a.808.808 0 0 1-.553-.218l-5.288-4.958a.81.81 0 0 1 1.106-1.18l4.669 4.379 1.503-1.767-4.773-3.01a.807.807 0 1 1 .863-1.367l5.56 3.507a.806.806 0 0 1 .184 1.207L18.3 36.18a.81.81 0 0 1-.57.283l-.045.001z" fill="#4080FE"/><path d="M17.466 48a.809.809 0 0 1-.77-1.054l2.755-8.66-1.936-2.768a.81.81 0 0 1 1.325-.927l2.164 3.096a.809.809 0 0 1 .108.709l-2.876 9.04a.81.81 0 0 1-.77.564z" fill="#4080FE"/><path d="M23.191 48a.809.809 0 0 1-.771-.566l-2.85-9.041a.81.81 0 0 1 .106-.703l2.138-3.095a.81.81 0 0 1 1.33.92l-1.912 2.77 2.73 8.664a.809.809 0 0 1-.77 1.051z" fill="#4080FE"/><path d="M22.972 36.464h-.047a.812.812 0 0 1-.571-.287l-2.63-3.123a.809.809 0 0 1 .185-1.203l5.535-3.507a.809.809 0 0 1 .864 1.366l-4.752 3.01 1.485 1.764 4.665-4.376a.81.81 0 0 1 1.106 1.18l-5.287 4.958a.81.81 0 0 1-.553.218zm-2.57-8.875h-.067c-7.705-.062-10.198-10.41-10.198-15.411 0-1.03.13-1.92.398-2.722a.808.808 0 0 1 1.533.512c-.212.635-.315 1.358-.315 2.21 0 4.3 2.164 13.743 8.595 13.794h.052c1.64 0 3.112-.634 4.374-1.886 2.712-2.689 4.13-8.026 4.13-11.908 0-.85-.104-1.573-.315-2.21a.808.808 0 1 1 1.533-.511c.268.804.398 1.695.398 2.721 0 4.087-1.442 9.915-4.608 13.056-1.575 1.563-3.429 2.355-5.51 2.355z" fill="#4080FE"/><path d="M29.356 10.52a.853.853 0 0 1-.104-.006c-5.8-.746-10.881-2.172-15.101-4.24a.809.809 0 0 1 .712-1.452c4.06 1.99 8.97 3.365 14.595 4.088a.808.808 0 0 1-.102 1.61z" fill="#4080FE"/><path d="M29.354 10.52a.808.808 0 0 1-.735-1.141c.779-1.723.752-3.25-.078-4.538-1.285-1.989-4.426-3.224-8.2-3.224a.808.808 0 0 1 0-1.617c4.382 0 7.955 1.482 9.557 3.965.79 1.222 1.464 3.27.194 6.08a.808.808 0 0 1-.738.476z" fill="#4080FE"/><path d="M11.302 10.52a.808.808 0 0 1-.737-.475c-1.27-2.809-.596-4.855.193-6.077C12.36 1.484 15.944 0 20.342 0a.808.808 0 0 1 0 1.617c-3.789 0-6.94 1.237-8.226 3.228-.83 1.286-.857 2.811-.078 4.534a.808.808 0 0 1-.736 1.142z" fill="#4080FE"/><path d="M11.3 10.52a.808.808 0 0 1-.035-1.615c2.794-.128 4.964-.889 6.632-2.326a.81.81 0 0 1 1.055 1.225c-1.925 1.658-4.487 2.572-7.614 2.716h-.037zm35.891 32.74a.808.808 0 0 1-.808-.809V28.123a.808.808 0 1 1 1.616 0V42.45a.808.808 0 0 1-.808.808z" fill="#4080FE"/><path d="M44.533 45.89a3.442 3.442 0 0 1-3.437-3.439.808.808 0 1 1 1.616 0c0 1.005.817 1.823 1.821 1.823 1.02 0 1.85-.818 1.85-1.823a.807.807 0 1 1 1.616 0c0 1.896-1.555 3.439-3.466 3.439zm-2.629-8.301a.808.808 0 0 1-.808-.808c0-1.02-.83-1.85-1.85-1.85a1.83 1.83 0 0 0-1.85 1.85.808.808 0 1 1-1.616 0 3.47 3.47 0 0 1 3.466-3.466 3.47 3.47 0 0 1 3.466 3.466.808.808 0 0 1-.808.808zm-13.096 0A.808.808 0 0 1 28 36.78a3.47 3.47 0 0 1 3.465-3.466.808.808 0 1 1 0 1.616c-1.02 0-1.85.83-1.85 1.85a.808.808 0 0 1-.807.808z" fill="#4080FE"/><path d="M44.533 45.89h-7.752a.808.808 0 1 1 0-1.616h7.752a.807.807 0 1 1 0 1.616zm-2.629-2.631a.808.808 0 0 1-.808-.808v-5.67a.808.808 0 1 1 1.616 0v5.67a.808.808 0 0 1-.808.808zm-2.658-8.329h-7.781a.808.808 0 1 1 0-1.615h7.78a.808.808 0 1 1 0 1.616z" fill="#4080FE"/><path d="M36.588 47.999a.808.808 0 0 1-.808-.808v-10.41a.808.808 0 1 1 1.616 0v10.41a.808.808 0 0 1-.808.808zm-7.78 0a.808.808 0 0 1-.808-.808v-10.41a.808.808 0 1 1 1.616 0v10.41a.808.808 0 0 1-.808.808z" fill="#4080FE"/><path d="M36.588 47.999h-7.78a.808.808 0 1 1 0-1.616h7.78a.807.807 0 1 1 0 1.616zM39.41 34.93a.808.808 0 0 1-.808-.807v-6a.808.808 0 1 1 1.616 0v6a.808.808 0 0 1-.808.808z" fill="#4080FE"/><path d="M47.191 28.931h-7.78a.808.808 0 0 1 0-1.617h7.78a.808.808 0 0 1 0 1.617zm-2.439 2.685h-2.904a.808.808 0 1 1 0-1.616h2.904a.808.808 0 1 1 0 1.616zm0 3.014h-1.451a.808.808 0 1 1 0-1.616h1.451a.808.808 0 1 1 0 1.615zM34.15 41.232h-2.904a.808.808 0 1 1 0-1.616h2.904a.808.808 0 1 1 0 1.616zm0 2.986h-1.452a.808.808 0 1 1 0-1.616h1.452a.808.808 0 1 1 0 1.616zm0-6h-2.904a.808.808 0 1 1 0-1.616h2.904a.808.808 0 1 1 0 1.616zm4.055-11.835a.81.81 0 0 1-.391-.1 18.365 18.365 0 0 1-7.165-7.136.809.809 0 0 1 1.412-.787 16.752 16.752 0 0 0 6.144 6.285 16.555 16.555 0 0 0 8.147-15.27c-1.819-.451-3.355-1.716-4.18-3.448a45.629 45.629 0 0 0-7.948-.001 5.77 5.77 0 0 1-.95 1.475.809.809 0 0 1-1.208-1.075 4.2 4.2 0 0 0 .827-1.427.81.81 0 0 1 .689-.54 50.452 50.452 0 0 1 4.623-.222 49.5 49.5 0 0 1 4.594.223c.307.028.57.228.68.516.626 1.634 2.059 2.792 3.74 3.022.37.05.657.348.694.72a18.173 18.173 0 0 1-9.319 17.664.805.805 0 0 1-.39.101z" fill="#4080FE"/><path d="M38.205 19.041c-2.682 0-4.863-2.17-4.863-4.836a4.868 4.868 0 0 1 4.863-4.863h.192a.808.808 0 0 1 0 1.617h-.192a3.25 3.25 0 0 0-3.247 3.246c0 1.775 1.456 3.22 3.247 3.22a3.223 3.223 0 0 0 3.22-3.22c0-.86-.316-1.65-.888-2.223a.808.808 0 1 1 1.144-1.142c.877.877 1.36 2.073 1.36 3.365a4.841 4.841 0 0 1-4.836 4.836z" fill="#4080FE"/><path d="M38.123 15.562a.81.81 0 0 1-.579-.244l-1.123-1.151a.807.807 0 1 1 1.157-1.129l.496.508 3.645-4.404a.808.808 0 1 1 1.246 1.03l-4.22 5.096a.81.81 0 0 1-.622.293z" fill="#4080FE"/></svg>