<svg width="16" height="14" viewBox="0 0 16 14" fill="none" xmlns="http://www.w3.org/2000/svg"><path d="M.338 4.43h2.775V14H.338V4.43zm1.388-1.335c-.51 0-.925-.148-1.246-.444A1.442 1.442 0 0 1 0 1.548C0 1.108.16.74.48.445.8.148 1.216 0 1.726 0S2.65.142 2.97.427c.32.285.48.64.48 1.067 0 .463-.16.848-.48 1.157-.32.296-.736.444-1.245.444zm9.78 1.192c1.186 0 2.14.356 2.864 1.068.735.711 1.103 1.767 1.103 3.166V14h-2.776V8.948c0-.76-.165-1.322-.498-1.69-.332-.38-.812-.57-1.44-.57-.7 0-1.258.22-1.673.659-.415.427-.622 1.067-.622 1.921V14H5.689V4.43h2.65v1.12a3.593 3.593 0 0 1 1.37-.925 4.662 4.662 0 0 1 1.797-.338z" fill="#4080FE"/></svg>