<svg width="496" height="357" viewBox="0 0 496 357" fill="none" xmlns="http://www.w3.org/2000/svg"><path d="M49.1 286.3c0 4-.6 7.6-1.9 10.7-1.3 3.1-3.1 5.7-5.5 7.8-2.4 2.1-5.3 3.7-8.8 4.9-3.5 1.1-7.6 1.7-12.3 1.7h-6v22.9c0 .4-.1.7-.4 1-.2.3-.6.5-1.2.7-.6.2-1.3.3-2.2.4-.9.1-2.1.2-3.5.2s-2.6-.1-3.5-.2c-.9-.1-1.7-.3-2.2-.4-.6-.2-.9-.4-1.2-.7-.2-.3-.3-.6-.3-1v-64.5c0-1.7.5-3 1.4-3.9.9-.9 2.1-1.3 3.6-1.3H22c1.7 0 3.3.1 4.8.2s3.4.4 5.5.8 4.3 1.2 6.5 2.4c2.2 1.1 4.1 2.6 5.6 4.4 1.6 1.8 2.7 3.8 3.5 6.2.8 2.1 1.2 4.8 1.2 7.7zm-15.2 1c0-2.5-.4-4.6-1.3-6.2-.9-1.6-2-2.8-3.3-3.6-1.3-.8-2.7-1.3-4.1-1.5-1.4-.2-2.9-.3-4.4-.3h-6.2V300h6.5c2.3 0 4.3-.3 5.8-.9 1.6-.6 2.9-1.5 3.9-2.6s1.8-2.5 2.3-4c.5-1.6.8-3.3.8-5.2zm73.9 21.8c0 4.2-.6 8.1-1.7 11.5-1.1 3.5-2.8 6.5-5 9-2.3 2.5-5.1 4.5-8.5 5.8-3.4 1.4-7.4 2.1-11.9 2.1-4.4 0-8.2-.6-11.5-1.8-3.3-1.2-5.9-3-8.1-5.3-2.1-2.3-3.7-5.2-4.8-8.6-1-3.4-1.6-7.3-1.6-11.6 0-4.2.6-8.1 1.7-11.6s2.8-6.5 5.1-9 5.1-4.4 8.5-5.8c3.4-1.4 7.3-2.1 11.9-2.1 4.4 0 8.3.6 11.5 1.8 3.3 1.2 5.9 3 8.1 5.3 2.1 2.3 3.7 5.2 4.7 8.6 1 3.4 1.6 7.3 1.6 11.7zm-14.4.6c0-2.4-.2-4.7-.6-6.7-.4-2.1-1-3.8-2-5.3-.9-1.5-2.2-2.7-3.7-3.5-1.5-.9-3.5-1.3-5.8-1.3-2.1 0-3.9.4-5.4 1.1-1.6.8-2.8 1.9-3.8 3.3-1 1.5-1.7 3.2-2.2 5.3-.5 2.1-.7 4.4-.7 7 0 2.4.2 4.7.6 6.7.4 2.1 1.1 3.8 2 5.3.9 1.5 2.1 2.7 3.7 3.5 1.6.8 3.5 1.2 5.8 1.2 2.1 0 3.9-.4 5.5-1.1 1.6-.8 2.8-1.9 3.8-3.3s1.7-3.2 2.2-5.2c.4-2.1.6-4.4.6-7zm39.4 24.6c0 .4-.1.7-.3 1-.2.3-.6.5-1.1.7-.5.2-1.2.3-2.1.4-.9.1-2 .1-3.4.1s-2.5 0-3.4-.1c-.9-.1-1.6-.2-2.1-.4s-.9-.4-1.1-.7c-.2-.3-.3-.6-.3-1v-72.9c0-.4.1-.7.3-1 .2-.3.6-.5 1.1-.7.5-.2 1.2-.4 2.1-.5.9-.1 2-.2 3.4-.2s2.5.1 3.4.2c.9.1 1.6.3 2.1.5s.9.5 1.1.7c.2.3.3.6.3 1v72.9zm28.9-66.1c0 2.8-.6 4.7-1.7 5.8-1.1 1.1-3.3 1.6-6.4 1.6-3.1 0-5.3-.5-6.3-1.6-1.1-1-1.6-2.9-1.6-5.6 0-2.8.6-4.8 1.7-5.8 1.1-1.1 3.3-1.6 6.4-1.6 3.1 0 5.2.5 6.3 1.6 1 1 1.6 2.9 1.6 5.6zm-1.1 66.1c0 .4-.1.7-.3 1-.2.3-.6.5-1.1.7-.5.2-1.2.3-2.1.4-.9.1-2 .1-3.4.1s-2.5 0-3.4-.1c-.9-.1-1.6-.2-2.1-.4s-.9-.4-1.1-.7c-.2-.3-.3-.6-.3-1V285c0-.4.1-.7.3-1 .2-.3.6-.5 1.1-.7.5-.2 1.2-.4 2.1-.5.9-.1 2-.2 3.4-.2s2.5.1 3.4.2c.9.1 1.6.3 2.1.5s.9.4 1.1.7c.2.3.3.6.3 1v49.3zm51.4-7.8c0 1 0 1.8-.1 2.4-.1.6-.1 1.2-.2 1.6-.1.4-.2.8-.3 1.1-.1.3-.4.6-.9 1.1-.4.4-1.2.9-2.3 1.6-1.1.6-2.3 1.2-3.7 1.6-1.4.5-2.9.9-4.5 1.2-1.6.3-3.3.4-5 .4-3.8 0-7.2-.6-10.1-1.8-2.9-1.2-5.4-2.9-7.4-5.2-2-2.3-3.5-5.1-4.5-8.5-1-3.3-1.5-7.1-1.5-11.4 0-5 .6-9.2 1.9-12.8 1.2-3.6 3-6.6 5.2-9 2.2-2.4 4.8-4.1 7.9-5.3 3-1.1 6.4-1.7 10-1.7 1.5 0 2.9.1 4.3.4 1.4.3 2.8.6 4 1.1 1.2.4 2.3.9 3.3 1.5s1.7 1 2.1 1.4c.4.4.7.8.9 1 .2.3.3.6.4 1.1.1.4.2 1 .2 1.6.1.6.1 1.4.1 2.4 0 2.1-.2 3.6-.6 4.5-.4.9-.9 1.3-1.4 1.3-.6 0-1.3-.3-2-.8s-1.5-1.1-2.5-1.7c-1-.6-2.1-1.2-3.4-1.7-1.3-.5-2.9-.8-4.8-.8-3.6 0-6.4 1.4-8.3 4.2-1.9 2.8-2.9 6.9-2.9 12.3 0 2.7.2 5 .7 7 .5 2 1.2 3.7 2.1 5.1.9 1.4 2.1 2.4 3.5 3.1 1.4.7 3.1 1 5 1s3.6-.3 5-.9c1.4-.6 2.6-1.2 3.6-1.9s1.9-1.3 2.6-1.9c.7-.6 1.3-.9 1.8-.9.3 0 .6.1.8.3.2.2.4.5.5 1 .1.5.2 1.1.3 1.9.1.8.2 1.8.2 3.1zm38.7 9.7l-6 17.5c-.3.9-1.2 1.6-2.7 2-1.5.4-3.6.6-6.5.6-1.5 0-2.7-.1-3.5-.2-.9-.1-1.6-.3-2-.6-.4-.3-.7-.7-.7-1.1 0-.4.1-1 .3-1.6l6.6-16.6c-.5-.2-.9-.6-1.3-1-.4-.5-.7-1-.9-1.5l-17-45.5c-.5-1.3-.7-2.3-.7-3 0-.7.2-1.2.7-1.6.4-.4 1.2-.7 2.2-.8 1.1-.1 2.4-.2 4.2-.2 1.6 0 2.8 0 3.8.1.9.1 1.6.2 2.2.4.5.2.9.6 1.2 1 .3.5.5 1.1.8 2l11.6 33.1h.2l10.6-33.8c.2-1 .5-1.6.9-1.9.4-.3.9-.5 1.7-.7.8-.1 2.2-.2 4.3-.2 1.6 0 2.9.1 4 .2s1.8.4 2.3.8c.5.4.7 1 .7 1.6 0 .7-.1 1.5-.4 2.4l-16.6 48.6zm82.8-36.9c0 6.2-.8 11.6-2.4 16.3-1.6 4.6-3.9 8.5-7 11.5s-6.8 5.3-11.2 6.8c-4.4 1.5-9.7 2.3-15.9 2.3h-15.2c-.9 0-1.7-.3-2.4-.9-.8-.6-1.1-1.6-1.1-3v-64c0-1.4.4-2.4 1.1-3 .8-.6 1.6-.9 2.4-.9H298c6.2 0 11.5.8 15.7 2.4 4.3 1.6 7.9 3.9 10.8 6.9 2.9 3 5.1 6.7 6.6 10.9 1.7 4.5 2.4 9.3 2.4 14.7zm-10 .4c0-3.9-.5-7.5-1.4-10.8-1-3.3-2.5-6.2-4.5-8.7-2-2.4-4.6-4.3-7.8-5.7-3.1-1.4-7.2-2-12.1-2H288v55.8h9.8c4.6 0 8.4-.6 11.6-1.7 3.1-1.1 5.8-2.9 7.9-5.3 2.1-2.4 3.7-5.3 4.7-8.9 1-3.6 1.5-7.8 1.5-12.7zm70.1 9.6c0 4.1-.5 7.8-1.6 11.2-1.1 3.4-2.7 6.4-4.8 8.8-2.1 2.5-4.8 4.4-8 5.8-3.2 1.4-6.9 2.1-11.1 2.1-4.1 0-7.7-.6-10.7-1.8-3-1.2-5.6-3-7.6-5.3s-3.5-5.2-4.5-8.5-1.5-7.1-1.5-11.3c0-4.1.5-7.8 1.6-11.2 1.1-3.4 2.6-6.4 4.8-8.8 2.1-2.5 4.8-4.4 8-5.8 3.2-1.4 6.9-2.1 11.1-2.1 4.1 0 7.7.6 10.7 1.8 3 1.2 5.6 3 7.6 5.3s3.6 5.2 4.6 8.5c.9 3.4 1.4 7.2 1.4 11.3zm-9.5.6c0-2.7-.3-5.2-.8-7.7-.5-2.4-1.3-4.5-2.5-6.3-1.2-1.8-2.7-3.2-4.7-4.3-2-1.1-4.4-1.6-7.4-1.6-2.7 0-5.1.5-7 1.4-2 1-3.6 2.3-4.8 4.1-1.3 1.8-2.2 3.8-2.8 6.2-.6 2.4-.9 5-.9 7.9 0 2.7.2 5.3.7 7.7.5 2.4 1.3 4.5 2.5 6.3 1.2 1.8 2.8 3.2 4.7 4.3 2 1.1 4.4 1.6 7.4 1.6 2.7 0 5-.5 7-1.4 2-1 3.6-2.3 4.9-4 1.3-1.7 2.2-3.8 2.8-6.2.6-2.4.9-5.1.9-8zm58.8 17.3c0 .6 0 1.2-.1 1.6 0 .5-.1.8-.2 1.2-.1.3-.2.6-.3.8-.1.2-.4.6-.9 1.1-.5.5-1.2 1-2.4 1.7-1.1.7-2.4 1.3-3.7 1.8-1.4.5-2.9 1-4.5 1.3-1.6.3-3.3.5-5 .5-3.6 0-6.8-.6-9.5-1.8-2.8-1.2-5.1-2.9-7-5.2-1.9-2.3-3.3-5.1-4.3-8.4-1-3.3-1.5-7.1-1.5-11.4 0-4.9.6-9.1 1.8-12.7 1.2-3.5 2.8-6.4 4.9-8.7 2.1-2.3 4.5-3.9 7.4-5 2.8-1.1 5.9-1.6 9.2-1.6 1.6 0 3.1.1 4.6.4 1.5.3 2.9.7 4.1 1.2 1.3.5 2.4 1 3.4 1.7 1 .6 1.7 1.2 2.1 1.6.4.4.7.8.9 1.1.2.3.3.6.4.9.1.4.2.7.2 1.2 0 .4.1 1 .1 1.7 0 1.4-.2 2.5-.5 3-.3.6-.7.9-1.2.9-.6 0-1.2-.3-1.9-.9-.7-.6-1.6-1.3-2.7-2s-2.5-1.4-4-2c-1.6-.6-3.4-.9-5.6-.9-4.4 0-7.8 1.7-10.1 5.1-2.3 3.4-3.5 8.3-3.5 14.7 0 3.2.3 6 .9 8.5.6 2.4 1.5 4.4 2.7 6.1 1.2 1.6 2.6 2.8 4.3 3.6 1.7.8 3.7 1.2 5.9 1.2 2.1 0 4-.3 5.5-1 1.6-.7 3-1.4 4.1-2.2 1.2-.8 2.1-1.5 2.9-2.2.8-.6 1.4-1 1.9-1 .3 0 .5.1.7.2.2.2.3.4.5.7.1.4.2.8.3 1.3.1.6.1 1.2.1 1.9zm53.1 7.6c0 .3-.1.6-.2.8-.1.2-.4.4-.7.6-.4.1-.8.3-1.5.3-.6.1-1.4.1-2.4.1s-1.8 0-2.5-.1c-.6-.1-1.2-.1-1.6-.3-.4-.1-.8-.3-1.1-.6-.3-.2-.5-.5-.7-.9l-21.1-27.6v27.7c0 .3-.1.5-.2.8-.1.2-.4.4-.7.5-.3.1-.8.3-1.4.3-.6.1-1.4.1-2.3.1-.9 0-1.6 0-2.2-.1-.6-.1-1.1-.2-1.4-.3-.3-.1-.6-.3-.7-.5-.1-.2-.2-.5-.2-.8v-74.1c0-.3.1-.6.2-.8.1-.2.4-.4.7-.6.4-.1.8-.3 1.4-.3.6-.1 1.3-.1 2.2-.1.9 0 1.7 0 2.3.1.6.1 1.1.2 1.4.3.3.1.6.3.7.6.1.2.2.5.2.8v45.1l18.8-20.7c.3-.4.6-.7.9-.9.3-.2.7-.4 1.2-.6.5-.2 1-.3 1.6-.3.6-.1 1.4-.1 2.3-.1.9 0 1.7 0 2.3.1.6.1 1.1.1 1.5.3.4.1.7.3.8.5.2.2.3.5.3.8 0 .4-.1.9-.4 1.3-.2.4-.6 1-1.2 1.6l-18.1 18.1 20.3 26.3c.5.6.8 1.1 1 1.5.4.4.5.7.5 1.1z" fill="#273C91"/><path d="M184.2 63.6V36.9c0-4.9-4.4-8.7-9.2-7.8-18.6 3.4-34.4 14.8-43.7 30.5-3.2 5.3.6 12.1 6.8 12l38.3-.2c4.3.1 7.8-3.5 7.8-7.8z" fill="#1B75BC"/><path d="M197.1 71.4l123.2-.6c5.1 0 8.9-4.8 7.6-9.7-8.7-35-40.4-61-78.1-61-23.1 0-43.9 9.7-58.6 25.3-1.3 1.4-2.1 3.4-2.1 5.3v32.9c0 4.3 3.6 7.8 8 7.8z" fill="#273C91"/><path d="M197 199.2h122.5c4.4 0 7.9-3.5 7.9-7.9V83.6c0-4.4-3.6-7.9-7.9-7.9l-122.5.6c-4.3 0-7.9 3.5-7.9 7.9v107.1c0 4.4 3.6 7.9 7.9 7.9z" fill="#00AEEF"/><path d="M357 70.9c-6.2-.8-12.3-.6-18.2.3-3.7.6-6.4 3.7-6.4 7.4v112.7c0 4.4 3.5 7.9 7.9 7.9h8.7c37.9 0 68.1-32.7 64-71.4-3.1-29.5-26.6-53.3-56-56.9z" fill="#006BB6"/><path d="M176.3 76.4l-55.2.3c-1.2 0-2.5.3-3.6.8-21.1 10.9-35.4 33.1-34.9 58.6.7 35.3 30.4 63.1 65.7 63.1h28c4.4 0 7.9-3.5 7.9-7.9v-107c0-4.4-3.6-7.9-7.9-7.9z" fill="#0084CB"/></svg>