<svg width="102" height="29" viewBox="0 0 102 29" fill="none" xmlns="http://www.w3.org/2000/svg"><mask id="a" maskUnits="userSpaceOnUse" x="3" y="0" width="23" height="29"><path fill-rule="evenodd" clip-rule="evenodd" d="M3.337 28.986h21.68V.93H3.336v28.056z" fill="#fff"/></mask><g mask="url(#a)"><path d="M18.377 2.658a2.529 2.529 0 0 0-3.18-1.605 2.495 2.495 0 0 0-1.621 3.15l6.527 19.893a2.53 2.53 0 0 0 3.07 1.55c1.34-.381 2.157-1.79 1.73-3.094L18.376 2.658z" fill="#1C1C1C"/></g><mask id="b" maskUnits="userSpaceOnUse" x="3" y="0" width="23" height="29"><path fill-rule="evenodd" clip-rule="evenodd" d="M3.337 28.986h21.68V.93H3.336v28.056z" fill="#fff"/></mask><g mask="url(#b)"><path d="M8.263 5.913a2.53 2.53 0 0 0-3.18-1.605 2.495 2.495 0 0 0-1.621 3.15l6.527 19.894a2.53 2.53 0 0 0 3.07 1.55c1.34-.382 2.157-1.791 1.73-3.095L8.262 5.913z" fill="#7C2EB9"/></g><path d="M26.593 19.134a2.495 2.495 0 0 0 1.62-3.151 2.53 2.53 0 0 0-3.18-1.606L4.95 20.843a2.495 2.495 0 0 0-1.565 3.042c.386 1.327 1.809 2.136 3.125 1.712l20.082-6.463z" fill="#33BC41"/><path d="M9.136 24.752l4.8-1.545-1.56-4.755-4.8 1.546 1.56 4.754zm10.114-3.255l4.8-1.545-1.56-4.756-4.8 1.546 1.56 4.755z" fill="#1C1C1C"/><path d="M23.306 9.115a2.496 2.496 0 0 0 1.621-3.15 2.53 2.53 0 0 0-3.18-1.606L1.663 10.825a2.495 2.495 0 0 0-1.565 3.041c.386 1.327 1.809 2.136 3.125 1.713l20.082-6.464z" fill="#F2A851"/><path d="M5.849 14.734l4.8-1.545c-.59-1.798-1.137-3.469-1.56-4.755l-4.8 1.545 1.56 4.755zm10.113-3.255l4.801-1.546-1.56-4.756-4.8 1.546 1.56 4.756zm31.001-3.585c.888.384.953.672.258 1.984-.71 1.344-.888 1.423-1.76 1.072-1.098-.464-2.503-.816-3.407-.816-1.485 0-2.47.528-2.47 1.327 0 2.64 8.51 1.216 8.51 6.847 0 2.831-2.455 4.719-6.137 4.719-1.937 0-4.328-.64-5.975-1.472-.823-.416-.871-.656-.161-2 .614-1.183.807-1.311 1.696-.943 1.404.608 3.18 1.071 4.376 1.071 1.356 0 2.26-.543 2.26-1.343 0-2.56-8.655-1.344-8.655-6.799 0-2.895 2.438-4.83 6.088-4.83 1.712 0 3.875.511 5.377 1.183zm6.864-6.686v20.987c0 .32-.34.656-.824.656h-2.228c-.485 0-.824-.336-.824-.656V1.208c0-1.04.29-1.136 1.938-1.136 1.873 0 1.938.128 1.938 1.136z" fill="#1C1C1C"/><path fill-rule="evenodd" clip-rule="evenodd" d="M69.668 22.05v-9.037c0-3.967-2.73-6.303-7.073-6.303-1.938 0-4.037.64-5.587 1.632-.808.512-.84.752 0 2.016.855 1.263 1.05 1.295 1.84.847 1.034-.591 2.326-1.007 3.376-1.007 2.244 0 3.568.992 3.568 2.655v1.04c-1.066-.432-2.373-.688-3.81-.688-3.78.016-6.298 2.048-6.298 5.07 0 2.848 2.228 4.752 5.555 4.752 1.711 0 3.423-.688 4.618-2l-.032.976c-.033.496.322.864.823.864h2.196c.485 0 .824-.336.824-.816zm-7.961-2.015c-1.389 0-2.31-.72-2.31-1.791 0-1.328 1.39-2.304 3.456-2.304.97 0 2.051.192 2.94.528v1.408c-.889 1.36-2.407 2.16-4.086 2.16z" fill="#1C1C1C"/><path d="M84.783 7.926c.808.464.84.72-.048 2.08-.84 1.28-.985 1.36-1.873.912-.679-.352-1.76-.656-2.649-.656-2.793 0-4.65 1.823-4.65 4.575 0 2.863 1.857 4.782 4.65 4.782.97 0 2.18-.367 2.972-.8.807-.463.985-.431 1.84.8.775 1.152.76 1.424.065 1.904-1.243.848-3.213 1.504-4.941 1.504-5.167 0-8.623-3.28-8.623-8.19 0-4.88 3.456-8.127 8.655-8.127 1.582 0 3.44.528 4.602 1.216zm16.859 12.941c.646.816.388 1.104-1.227 1.68-1.647.591-1.873.56-2.454-.192l-4.619-6.11-2.067 1.983v3.967c0 .32-.339.656-.823.656h-2.229c-.484 0-.823-.336-.823-.656V1.208c0-1.04.29-1.136 1.938-1.136 1.873 0 1.937.128 1.937 1.136V13.14l6.33-6.014c.695-.656 1.082-.608 2.326.207 1.372.88 1.469 1.12.807 1.76l-4.715 4.543 5.619 7.23z" fill="#1C1C1C"/></svg>