<svg width="90" height="30" viewBox="0 0 90 30" fill="none" xmlns="http://www.w3.org/2000/svg"><path fill-rule="evenodd" clip-rule="evenodd" d="M31.16 22.857c4.068 0 7.383-3.122 7.383-7.359 0-4.267-3.315-7.36-7.382-7.36-4.068 0-7.383 3.093-7.383 7.36 0 4.237 3.315 7.36 7.383 7.36zm0-11.818c2.23 0 4.151 1.811 4.151 4.46 0 2.617-1.92 4.458-4.15 4.458-2.23 0-4.151-1.838-4.151-4.459 0-2.648 1.921-4.46 4.15-4.46z" fill="#E8AA71"/><path fill-rule="evenodd" clip-rule="evenodd" d="M47.087 22.857c4.067 0 7.382-3.122 7.382-7.359 0-4.267-3.315-7.36-7.382-7.36-4.068 0-7.383 3.097-7.383 7.36 0 4.237 3.315 7.36 7.383 7.36zm0-11.818c2.23 0 4.15 1.811 4.15 4.46 0 2.617-1.92 4.458-4.15 4.458-2.23 0-4.151-1.838-4.151-4.459 0-2.648 1.921-4.46 4.15-4.46z" fill="#4080FE"/><path fill-rule="evenodd" clip-rule="evenodd" d="M69.732 21.796V8.585h-3.07v1.199h-.112c-.727-.866-2.12-1.646-3.876-1.646-3.68 0-7.05 3.232-7.05 7.386 0 4.124 3.37 7.329 7.05 7.329 1.759 0 3.152-.78 3.876-1.672h.113v1.058c0 2.817-1.504 4.314-3.929 4.314-1.977 0-3.205-1.414-3.706-2.612l-2.814 1.171c.81 1.951 2.957 4.337 6.523 4.337 3.79 0 6.995-2.22 6.995-7.654zm-6.769-10.757c2.2 0 3.928 1.894 3.928 4.486 0 2.564-1.728 4.432-3.928 4.432-2.23 0-4.098-1.868-4.098-4.432 0-2.592 1.868-4.486 4.098-4.486z" fill="#C03299"/><path d="M74.791.84v21.566H71.64V.84h3.152z" fill="#FFAA2B"/><path fill-rule="evenodd" clip-rule="evenodd" d="M89.583 19.593l-2.509-1.673c-.836 1.228-1.977 2.037-3.623 2.037-1.642 0-2.813-.753-3.567-2.23l9.838-4.074-.335-.836c-.61-1.642-2.478-4.681-6.297-4.681-3.793 0-6.942 2.982-6.942 7.359 0 4.127 3.123 7.359 7.303 7.359 3.371 0 5.322-2.064 6.132-3.261zm-3.653-7.051l-6.576 2.73c-.083-2.84 2.203-4.29 3.845-4.29 1.28 0 2.37.64 2.73 1.56z" fill="#F5DF19"/><path d="M11.847 13.584V10.46h10.521c.103.545.156 1.188.156 1.885 0 2.342-.64 5.24-2.704 7.303-2.008 2.09-4.572 3.205-7.97 3.205-6.297 0-11.593-5.13-11.593-11.427S5.553 0 11.85 0c3.484 0 5.966 1.367 7.83 3.149l-2.203 2.203c-1.337-1.254-3.148-2.23-5.63-2.23-4.599 0-8.195 3.706-8.195 8.305s3.596 8.305 8.195 8.305c2.983 0 4.682-1.198 5.77-2.286.882-.883 1.463-2.144 1.692-3.866l-7.462.004z" fill="#30C575"/></svg>