<svg width="104" height="33" viewBox="0 0 104 33" fill="none" xmlns="http://www.w3.org/2000/svg"><path fill-rule="evenodd" clip-rule="evenodd" d="M29.568 22.472v.001l.162.393c.422 1.192.552 2.319.293 3.446-.358 2.383-1.95 4.444-4.224 5.346-.812.355-1.722.516-2.632.516-.26 0-.584-.033-.844-.065a8.634 8.634 0 0 1-3.25-1.095c-1.299-.74-2.598-1.803-4.028-3.35-1.43 1.547-2.697 2.61-4.028 3.35a8.635 8.635 0 0 1-3.25 1.095c-.26.032-.584.065-.844.065-.91 0-1.787-.161-2.632-.516a6.855 6.855 0 0 1-4.223-5.346c-.163-1.16-.033-2.287.39-3.478.162-.419.324-.805.487-1.16.118-.264.237-.521.352-.772.138-.3.271-.59.395-.87l.033-.064c2.241-4.831 4.678-9.727 7.18-14.557l.097-.194c.26-.483.52-.998.78-1.513.325-.58.682-1.192 1.17-1.772C12.023.71 13.485 0 15.11 0c1.592 0 3.087.709 4.126 1.997.48.534.793 1.096 1.094 1.635l.076.136c.26.515.52 1.03.78 1.514l.097.193a334.997 334.997 0 0 1 7.18 14.557l.033.032c.123.28.257.57.394.87.116.25.234.508.353.773.108.236.216.5.325.765zM54.812 8.084c0 1.16-.942 2.093-2.112 2.093a2.098 2.098 0 0 1-2.112-2.093c0-1.16.91-2.094 2.112-2.094 1.202.032 2.112.966 2.112 2.094zm-8.707 4.219v.515s-1.008-1.288-3.152-1.288c-3.541 0-6.303 2.673-6.303 6.376 0 3.672 2.73 6.377 6.303 6.377 2.177 0 3.152-1.32 3.152-1.32v.547c0 .258.195.451.454.451h2.632v-12.11H46.56a.463.463 0 0 0-.454.452zm-2.632 9.082c1.17 0 2.144-.612 2.632-1.32v-4.316c-.455-.677-1.495-1.32-2.632-1.32-2.08 0-3.671 1.287-3.671 3.477s1.592 3.479 3.671 3.479zm51.105-8.567s1.007-1.288 3.152-1.288c3.508 0 6.27 2.705 6.27 6.376 0 3.672-2.762 6.377-6.303 6.377-2.144 0-3.151-1.32-3.151-1.32v.547a.462.462 0 0 1-.455.451h-2.632V6.022h3.12v6.796zm2.632 8.534c-1.202 0-2.144-.611-2.632-1.32v-4.316c.487-.644 1.527-1.32 2.632-1.32 2.08 0 3.671 1.288 3.671 3.478 0 2.19-1.592 3.478-3.671 3.478zm-7.375 2.641V16.78c0-2.029-.423-3.188-1.527-4.09-.91-.773-2.047-1.16-3.412-1.16-1.202 0-2.404.355-3.313 1.289v-.515a.463.463 0 0 0-.455-.451h-2.47v12.11h3.12v-8.439c.617-.708 1.591-1.191 2.534-1.191 1.754 0 2.404.805 2.404 2.802v6.86h3.119zM51.14 11.852h3.12v12.11h-3.12v-12.11zm19.949-.322c-2.145 0-3.152 1.288-3.152 1.288V6.022h-3.119v17.94h2.632c.26 0 .455-.226.455-.452v-.547s1.007 1.32 3.151 1.32c3.541 0 6.303-2.705 6.303-6.377.032-3.671-2.73-6.376-6.27-6.376zm-3.152 8.502c.487.709 1.43 1.32 2.632 1.32 2.08 0 3.671-1.288 3.671-3.478 0-2.19-1.592-3.478-3.671-3.478-1.105 0-2.145.676-2.632 1.32v4.316zm-5.815-8.502c.942 0 1.43.16 1.43.16v2.867s-2.6-.87-4.224.966v8.47h-3.12V11.852h2.632c.26 0 .455.225.455.45v.516c.585-.676 1.852-1.288 2.827-1.288zM15.078 24.54c-1.755-2.19-2.892-4.25-3.282-5.99-.162-.74-.195-1.384-.097-1.964a3.11 3.11 0 0 1 .52-1.353c.617-.87 1.657-1.417 2.859-1.417s2.274.516 2.859 1.417c.26.387.454.838.52 1.353.097.58.064 1.256-.098 1.965-.39 1.706-1.527 3.768-3.281 5.99zm10.006 5.283c1.592-.645 2.73-2.094 2.957-3.768.13-.838.032-1.643-.228-2.48-.067-.224-.167-.448-.275-.693-.048-.108-.098-.22-.147-.338-.13-.258-.252-.531-.374-.805a18.597 18.597 0 0 0-.373-.805V20.9a425.724 425.724 0 0 0-7.115-14.49l-.098-.193a62.22 62.22 0 0 1-.39-.741c-.13-.25-.26-.5-.39-.74-.26-.516-.552-1-.91-1.418-.682-.773-1.591-1.191-2.598-1.191-1.008 0-1.917.418-2.6 1.191-.357.419-.65.902-.91 1.417-.13.242-.26.491-.39.741s-.259.5-.389.74l-.097.194a350.774 350.774 0 0 0-7.148 14.46l-.033.065a63.75 63.75 0 0 0-.747 1.61c-.05.118-.099.23-.147.338-.108.245-.207.469-.275.693a5.288 5.288 0 0 0-.293 2.512c.228 1.674 1.365 3.124 2.957 3.768.747.29 1.592.418 2.47.322a6.432 6.432 0 0 0 2.468-.837c1.17-.645 2.372-1.643 3.704-3.125-2.112-2.608-3.444-5.024-3.931-7.15a6.63 6.63 0 0 1-.163-2.737 5.2 5.2 0 0 1 .878-2.19c1.007-1.417 2.696-2.286 4.58-2.286 1.885 0 3.574.837 4.582 2.286.454.644.747 1.385.877 2.19.097.838.065 1.74-.163 2.738-.487 2.125-1.787 4.509-3.93 7.117 1.364 1.482 2.533 2.48 3.703 3.124.845.483 1.657.741 2.47.838.844.096 1.689 0 2.468-.322z" fill="#FF488A"/></svg>