<svg width="124" height="24" viewBox="0 0 124 24" fill="none" xmlns="http://www.w3.org/2000/svg"><path fill-rule="evenodd" clip-rule="evenodd" d="M14.39 4.5L7.195 9l7.195 4.5L7.195 18 0 13.463l7.195-4.5L0 4.5 7.195 0l7.195 4.5zm0 0L21.547 0l7.195 4.5L21.547 9l7.195 4.5-7.195 4.5-7.157-4.537 7.195-4.5L14.39 4.5zM7.157 19.425l7.195-4.5 7.195 4.5-7.195 4.5-7.195-4.5zm80.944 0l.268-2.213c.65 1.576 1.99 2.513 4.057 2.55 3.138 0 5.205-2.287 5.205-6.3v-.374c0-4.013-2.182-6-5.129-6.038-1.951 0-3.33.863-4.018 2.438V3.3h-3.138v16.125H88.1zM40.185 4.5h-5.817v14.925H40.3c3.789 0 6.66-2.175 6.66-7.013V11.4c0-4.8-3.063-6.9-6.775-6.9zm-2.564 12.188V7.2h2.373c2.143 0 3.636 1.35 3.636 4.35v.787c0 3-1.416 4.35-3.521 4.35H37.62zM48.72 7.35h2.564l.421 2.813c.498-1.913 1.76-2.925 4.057-2.925h.803v3.224h-1.34c-2.64 0-3.29.9-3.29 3.45v5.55H48.72V7.35zm8.496 5.963v.337c0 3.975 2.258 6.075 6.238 6.112 3.751 0 6.239-2.137 6.239-6.112v-.338c0-4.05-2.565-6.262-6.239-6.262-3.597 0-6.238 2.213-6.238 6.263zm9.185.3v-.3c0-2.25-1.148-3.6-2.985-3.6-1.799 0-2.985 1.237-2.985 3.6v.3c0 2.175 1.148 3.412 2.985 3.412 1.837-.037 2.985-1.237 2.985-3.412zm7.655-6.263h-2.68l-.038 16.275h3.139v-6.113c.65 1.388 1.99 2.25 3.941 2.25 2.91 0 5.206-2.1 5.206-6.075v-.337c0-4.087-2.067-6.3-5.206-6.3-2.028 0-3.406 1.05-4.056 2.588l-.306-2.288zm6.314 6.263v-.263c0-2.4-1.263-3.6-2.947-3.6-1.798 0-2.985 1.35-2.985 3.6v.225c0 2.138 1.148 3.488 2.947 3.488 1.837-.038 2.985-1.2 2.985-3.45zm13.97-.15v-.3c0-2.213-1.225-3.45-2.947-3.45-1.76 0-2.986 1.387-2.986 3.487v.263c0 2.25 1.187 3.562 2.947 3.562 1.876 0 2.986-1.162 2.986-3.562zm4.669-.15v.337c0 3.975 2.258 6.075 6.238 6.112 3.712 0 6.238-2.137 6.238-6.112v-.338c0-4.05-2.564-6.262-6.238-6.262-3.598 0-6.238 2.213-6.238 6.263zm9.223 0c0-2.25-1.148-3.6-2.985-3.6-1.799 0-2.985 1.237-2.985 3.6v.3c0 2.175 1.148 3.412 2.985 3.412 1.837-.037 2.985-1.237 2.985-3.412v-.3zm3.138-5.963l4.325 5.813-4.707 6.262h3.789l2.755-4.013 2.832 4.013H124l-4.631-6.3 4.401-5.775h-3.674l-2.526 3.638-2.487-3.638h-3.713z" fill="#4080FE"/></svg>