<svg width="38" height="38" viewBox="0 0 38 38" fill="none" xmlns="http://www.w3.org/2000/svg"><path d="M34.555 0H3.445A3.445 3.445 0 0 0 0 3.445v31.11A3.445 3.445 0 0 0 3.445 38h31.11A3.445 3.445 0 0 0 38 34.555V3.445A3.445 3.445 0 0 0 34.555 0z" fill="#FF3AA5"/><path fill-rule="evenodd" clip-rule="evenodd" d="M15.105 9.377a2.297 2.297 0 0 1-2.306 2.309c-1.254 0-2.305-1-2.305-2.309a2.296 2.296 0 0 1 2.305-2.307c1.255 0 2.306.999 2.306 2.307zm-7.29 16.404c0-.516.069-1.149.204-1.734l1.729-7.177H7.07l.814-3.05h6.441l-2.543 10.248c-.17.655-.237 1.199-.237 1.577 0 .655.317.847.814.96.302.07 2.711.022 4.023-2.941l1.67-6.794H15.34l.814-3.05h5.797l-.746 3.462c1.017-1.93 3.051-3.762 5.051-3.762 2.136 0 3.9 1.546 3.9 4.508 0 .758-.103 1.583-.374 2.513l-1.085 3.96c-.101.414-.17.758-.17 1.068 0 .689.272 1.033.78 1.033.509 0 1.153-.38 1.9-2.48l1.49.585c-.88 3.135-2.474 4.443-4.474 4.443-2.34 0-3.458-1.411-3.458-3.34 0-.552.067-1.138.237-1.723l1.119-4.065a4.21 4.21 0 0 0 .17-1.24c0-1.309-.78-2.102-2.035-2.102-1.593 0-2.644 1.163-3.187 3.402l-2.17 8.843h-3.797l.682-2.779c-1.116 1.863-2.666 3.017-4.578 3.017-2.306 0-3.39-1.35-3.39-3.382z" fill="#fff"/></svg>