<svg width="40" height="40" viewBox="0 0 40 40" fill="none" xmlns="http://www.w3.org/2000/svg"><path d="M20.625 1.875h-17.5c-.69 0-1.25.56-1.25 1.25v33.75c0 .69.56 1.25 1.25 1.25h17.5c.69 0 1.25-.56 1.25-1.25V3.125c0-.69-.56-1.25-1.25-1.25z" fill="#fff"/><path d="M21.875 3.125v33.75a1.254 1.254 0 0 1-1.25 1.25h-2.5a1.254 1.254 0 0 0 1.25-1.25V3.125a1.254 1.254 0 0 0-1.25-1.25h2.5a1.254 1.254 0 0 1 1.25 1.25z" fill="#A2DFFF"/><path d="M38.125 13.125v20a1.254 1.254 0 0 1-1.25 1.25h-30a1.254 1.254 0 0 1-1.25-1.25v-20h32.5z" fill="#fff"/><path d="M38.125 9.375v3.75h-32.5v-3.75a1.254 1.254 0 0 1 1.25-1.25h30a1.254 1.254 0 0 1 1.25 1.25zm0 3.75v20a1.254 1.254 0 0 1-1.25 1.25h-2.5a1.254 1.254 0 0 0 1.25-1.25v-20h2.5z" fill="#A2DFFF"/><path d="M38.125 9.375v3.75h-2.5v-3.75a1.254 1.254 0 0 0-1.25-1.25h2.5a1.254 1.254 0 0 1 1.25 1.25z" fill="#A2DFFF"/><path d="M26.875 25.625h2.5v2.5h-2.5v-2.5zm0-5h2.5v2.5h-2.5v-2.5zm0-5h2.5v2.5h-2.5v-2.5zm-5 1.25h2.5v13.75h-2.5v-13.75zm-5 3.75h2.5v10h-2.5v-10z" fill="#fff"/><path d="M18.75 1.875l-.625 2.5h-12.5L5 1.875h13.75z" fill="#A2DFFF"/><path d="M18.75 1.875l-.625 2.5h-2.5l.625-2.5h2.5z" fill="#A2DFFF"/><path d="M11.875 23.125h2.5v7.5h-2.5v-7.5z" fill="#fff"/><path d="M36.875 7.5H22.5V3.125a1.88 1.88 0 0 0-1.875-1.875h-17.5A1.88 1.88 0 0 0 1.25 3.125v33.75a1.88 1.88 0 0 0 1.875 1.875h17.5a1.88 1.88 0 0 0 1.875-1.875V35h14.375a1.88 1.88 0 0 0 1.875-1.875V9.375A1.88 1.88 0 0 0 36.875 7.5zm-18.925-5l-.313 1.25H6.114L5.8 2.5h12.15zm3.3 34.375a.624.624 0 0 1-.625.625h-17.5a.625.625 0 0 1-.625-.625V3.125a.625.625 0 0 1 .625-.625h1.388l.506 2.025A.625.625 0 0 0 5.625 5h12.5a.625.625 0 0 0 .606-.475l.506-2.025h1.388a.625.625 0 0 1 .625.625V7.5H6.875A1.88 1.88 0 0 0 5 9.375v23.75A1.88 1.88 0 0 0 6.875 35H21.25v1.875zm16.25-3.75a.624.624 0 0 1-.625.625h-30a.625.625 0 0 1-.625-.625V13.75H37.5v19.375zm0-20.625H6.25V9.375a.625.625 0 0 1 .625-.625h30a.625.625 0 0 1 .625.625V12.5z" fill="#1977CC"/><path d="M7.5 10h1.25v1.25H7.5V10zm2.5 0h1.25v1.25H10V10zm2.5 0h1.25v1.25H12.5V10zM35 10h1.25v1.25H35V10zM25 30V16.875a.624.624 0 0 0-.625-.625h-2.5a.624.624 0 0 0-.625.625V30H20v-9.375a.624.624 0 0 0-.625-.625h-2.5a.624.624 0 0 0-.625.625V30H15v-6.875a.624.624 0 0 0-.625-.625h-2.5a.624.624 0 0 0-.625.625V30H10V15H8.75v15.625a.625.625 0 0 0 .625.625H35V30H25zm-11.25 0H12.5v-6.25h1.25V30zm5 0H17.5v-8.75h1.25V30zm5 0H22.5V17.5h1.25V30z" fill="#1977CC"/><path d="M29.375 15h-2.5a.624.624 0 0 0-.625.625v2.5a.624.624 0 0 0 .625.625h2.5a.624.624 0 0 0 .625-.625v-2.5a.624.624 0 0 0-.625-.625zm-.625 2.5H27.5v-1.25h1.25v1.25zm.625 2.5h-2.5a.624.624 0 0 0-.625.625v2.5a.624.624 0 0 0 .625.625h2.5a.624.624 0 0 0 .625-.625v-2.5a.624.624 0 0 0-.625-.625zm-.625 2.5H27.5v-1.25h1.25v1.25zm.625 2.5h-2.5a.624.624 0 0 0-.625.625v2.5a.624.624 0 0 0 .625.625h2.5a.624.624 0 0 0 .625-.625v-2.5a.624.624 0 0 0-.625-.625zm-.625 2.5H27.5v-1.25h1.25v1.25zm2.5-12.5h1.25v1.25h-1.25V15zm2.5 0H35v1.25h-1.25V15zm-2.5 2.5H35v1.25h-3.75V17.5zm0 2.5H35v1.25h-3.75V20zm0 2.5H35v1.25h-3.75V22.5zm0 2.5H35v1.25h-3.75V25zm0 2.5h1.25v1.25h-1.25V27.5zm2.5 0H35v1.25h-1.25V27.5z" fill="#1977CC"/></svg>