<svg width="40" height="40" viewBox="0 0 40 40" fill="none" xmlns="http://www.w3.org/2000/svg"><path d="M10.625 39.375H37.5c.345 0 .625-.28.625-.625V1.25A.625.625 0 0 0 37.5.625H11.25a.625.625 0 0 0-.625.625v38.125z" fill="#A2DFFF"/><path d="M13.125 36.875H28.75l6.875-6.25V4.375h-22.5v32.5z" fill="#FFFEFE"/><path d="M17.5 6.875h13.75c.345 0 .625-.28.625-.625V.625h-15V6.25c0 .345.28.625.625.625z" fill="#A2DFFF"/><path d="M28.75 30.625h6.875l-6.875 6.25v-6.25z" fill="#EBEBEB"/><path d="M17.5 10.625h14.375v10H17.5v-10z" fill="#A2DFFF"/><path d="M20.625 16.875l-.845 4.788a15 15 0 0 1-5.772 9.393l-2.758 2.069-2.84-2.157a15.001 15.001 0 0 1-5.697-9.34l-.838-4.753 9.375-5 9.375 5z" fill="#A2DFFF"/><path d="M9.923 28.977a12.467 12.467 0 0 1-4.747-7.782l-.523-2.968 6.597-3.519 6.598 3.519-.53 3.001a12.458 12.458 0 0 1-4.81 7.827l-1.248.937-1.337-1.015z" fill="#FDFEFC"/><path d="M37.5 0H11.25C10.56 0 10 .56 10 1.25V10h1.25V1.25h5v2.5h-3.125a.625.625 0 0 0-.625.625V10h1.25V5h2.5v1.25c0 .69.56 1.25 1.25 1.25h13.75c.69 0 1.25-.56 1.25-1.25V5H35v15h1.25V4.375a.625.625 0 0 0-.625-.625H32.5v-2.5h5v37.5H11.25V35H10v4.375c0 .345.28.625.625.625H37.5c.69 0 1.25-.56 1.25-1.25V1.25C38.75.56 38.19 0 37.5 0zm-6.25 6.25H17.5v-5h13.75v5z" fill="#1977CC"/><path d="M36.25 21.25H35V30h-6.25a.625.625 0 0 0-.625.625v5.625H13.75V35H12.5v1.875c0 .345.28.625.625.625H28.75a.658.658 0 0 0 .086-.006l.018-.003.01-.002.012-.002.016-.004.006-.001.05-.014.002-.001a.544.544 0 0 0 .052-.02h.001a.519.519 0 0 0 .05-.026h.001l.024-.014.009-.006a.186.186 0 0 0 .015-.01l.007-.006.016-.011.014-.012.01-.006a.643.643 0 0 0 .022-.02l6.875-6.25.03-.03.008-.008a.482.482 0 0 0 .023-.027l.005-.005a.538.538 0 0 0 .024-.033l.007-.01.018-.027.005-.01a.378.378 0 0 0 .018-.035l.005-.01.014-.03c0-.003.003-.006.004-.01l.014-.038c0-.002 0-.004.002-.006l.01-.036a.613.613 0 0 0 .016-.093v-.01l.002-.034V21.25h-.001zm-6.875 10h4.633l-3.035 2.76-1.598 1.452V31.25zM18.75 3.125H20v1.25h-1.25v-1.25zm10 0H30v1.25h-1.25v-1.25zM31.875 10H17.5a.625.625 0 0 0-.625.625v2.5h1.25V11.25H31.25V20h-9.375v1.25h10c.345 0 .625-.28.625-.625v-10a.625.625 0 0 0-.625-.625zM21.25 23.75h6.875V25H21.25v-1.25z" fill="#1977CC"/><path d="M29.375 23.75h3.75V25h-3.75v-1.25zm-10 3.75h6.875v1.25h-6.875V27.5zm8.125 0h5.625v1.25H27.5V27.5zm-11.25 3.75h10.625v1.25H16.25v-1.25zm5-28.125h6.25v1.25h-6.25v-1.25zm-10 30.625a.622.622 0 0 0 .375-.125l2.758-2.069a15.57 15.57 0 0 0 6.012-9.784l.846-4.788a.625.625 0 0 0-.322-.66l-9.375-5a.625.625 0 0 0-.588 0l-9.375 5a.625.625 0 0 0-.321.66l.838 4.754a15.58 15.58 0 0 0 5.935 9.728l2.84 2.157a.625.625 0 0 0 .377.127zM3.329 21.52l-.76-4.307 8.68-4.63 8.681 4.63-.766 4.341a14.326 14.326 0 0 1-5.531 9.002l-2.38 1.786-2.464-1.872a14.334 14.334 0 0 1-5.46-8.95z" fill="#1977CC"/><path d="M13.647 29.215a11.585 11.585 0 0 0 4.473-7.28l.62-3.51a.625.625 0 0 0-.321-.66l-3.126-1.668-.588 1.103 2.726 1.454-.541 3.065a10.341 10.341 0 0 1-3.992 6.497l-1.645 1.234-1.707-1.297a10.345 10.345 0 0 1-3.94-6.459l-.537-3.04L7.795 17.2l-.589-1.103-3.125 1.667a.625.625 0 0 0-.321.66l.614 3.486a11.595 11.595 0 0 0 4.416 7.238l2.082 1.581a.624.624 0 0 0 .753.003l2.022-1.517z" fill="#1977CC"/><path d="M11.25 15.358l2.206 1.177.588-1.104-2.5-1.333a.624.624 0 0 0-.589 0l-2.5 1.333.589 1.103 2.205-1.176zM10.601 25h.024c.18 0 .351-.077.47-.213l4.375-5-.94-.823-3.868 4.42L9.25 21.5l-1 .75 1.875 2.5c.113.15.288.243.476.25zm.024-7.5h1.25v1.25h-1.25V17.5zm0 8.75h1.25v1.25h-1.25v-1.25z" fill="#1977CC"/></svg>