<svg width="40" height="40" viewBox="0 0 40 40" fill="none" xmlns="http://www.w3.org/2000/svg"><g clip-path="url(#a)"><path d="M3.71 35.337l23.08 1.544a.781.781 0 0 0 .832-.727L29.84 2.988a.781.781 0 0 0-.727-.831L6.032.613a.781.781 0 0 0-.832.727L2.982 34.506a.781.781 0 0 0 .727.831z" fill="#fff"/><path d="M1.367 39.389h17.667l6.247-6.22V5.37a.781.781 0 0 0-.781-.782H1.367a.781.781 0 0 0-.781.781v33.24c0 .431.35.78.781.78z" fill="#fff"/><path d="M24.5 4.587h-3.125c.431 0 .781.35.781.781V33.17l-.02 3.13 3.145-3.13V5.368a.781.781 0 0 0-.78-.781z" fill="#fff"/><path d="M19.034 39.389V33.9c0-.431.35-.781.782-.781h5.465l-6.247 6.27z" fill="#fff"/><path d="M36.612 19.42l-2.607.013v-3.97c0-.718.583-1.302 1.303-1.306a1.295 1.295 0 0 1 1.304 1.294v3.97zM35.31 39.389a4.28 4.28 0 0 1-1.267-3.036l-.005-5.78c0-.05.041-.09.092-.09l2.346-.012a.09.09 0 0 1 .092.09l.005 5.788a4.28 4.28 0 0 1-1.251 3.028l-.013.012z" fill="#A2DFFF"/><path d="M35.31 36.667h-.002a2.027 2.027 0 0 1-2.042-2.027V17.96c0-.53.428-.96.958-.962l2.158-.011a.962.962 0 0 1 .967.962v16.675a2.049 2.049 0 0 1-2.04 2.044z" fill="#fff"/><path d="M36.382 16.986l-1.857.009a.962.962 0 0 1 .837.953v16.675c0 .767-.427 1.437-1.056 1.786a2.049 2.049 0 0 0 3.042-1.787V17.949a.962.962 0 0 0-.966-.962z" fill="#fff"/><path d="M38.38 19.37l-5.594.027a1.038 1.038 0 0 0-1.033 1.035c0 .569.462 1.028 1.033 1.025l4.561-.023v6.054c0 .569.463 1.027 1.034 1.025a1.038 1.038 0 0 0 1.033-1.035v-7.084c0-.569-.463-1.028-1.033-1.025z" fill="#A2DFFF"/><path d="M38.38 19.37l-3.002.014-.014 2.055 1.983-.005v6.054c0 .569.463 1.028 1.034 1.025a1.038 1.038 0 0 0 1.033-1.035v-7.084c0-.569-.463-1.028-1.033-1.025z" fill="#3DA7FF"/><path d="M29.152 1.57L6.071.028A1.369 1.369 0 0 0 4.615 1.3L4.435 4H1.367C.613 4 0 4.612 0 5.366v33.24c0 .753.613 1.366 1.367 1.366h17.668a.592.592 0 0 0 .413-.17l2.667-2.655c.027.005.055.01.083.012l4.553.304c.727.048 1.407-.543 1.456-1.273l2.218-33.165a1.379 1.379 0 0 0-1.273-1.455zm-9.532 36.4v-4.071c0-.108.088-.195.196-.195h4.054l-4.25 4.265zm7.418-1.857c-.02.118-.089.179-.208.182l-3.616-.242 2.48-2.47a.583.583 0 0 0 .173-.415V5.367C25.867 4.613 25.254 4 24.5 4h-6.093c-.758 0-.758 1.171 0 1.171H24.5c.108 0 .195.088.195.196v27.165h-4.88c-.753 0-1.367.613-1.367 1.367V38.8H1.369a.196.196 0 0 1-.196-.195V5.366c0-.107.088-.195.195-.195h13.92c.757 0 .757-1.171 0-1.171H5.609l.176-2.622c.019-.118.088-.179.208-.182l23.08 1.544c.119.019.18.088.183.208l-2.218 33.165z" fill="#1977CC"/><path d="M20.924 18.52H4.944a.586.586 0 1 0 0 1.171h15.98a.586.586 0 0 0 0-1.172zm0 4.084H4.944a.586.586 0 0 0 0 1.172h15.98a.586.586 0 1 0 0-1.172zM4.357 15.02c0 .324.263.586.586.586h15.981a.586.586 0 1 0 0-1.172H4.944a.586.586 0 0 0-.587.586zm2.815-4.084c0 .323.263.586.586.586h10.35a.586.586 0 0 0 0-1.172H7.759a.586.586 0 0 0-.586.586zm8.043 23.344l-3.161.007H10.99c-.641.001-1.074-.127-1.218-.833-.121-.597-.966-.517-1.13 0-.405 1.276-1.076.776-1.451-.083-.375-.856-.471-1.815-.635-2.726-.12-.67-1.133-.482-1.15.156-.024.84-.103 1.666-.316 2.48-.22.841-.55 1.649-.876 2.452-.286.7.849 1.001 1.13.312.29-.712.58-1.428.796-2.166.401.966 1.232 2.058 2.416 1.415.22-.12.426-.29.607-.49.615.712 1.531.656 2.389.655 1.22-.001 2.442-.004 3.662-.007.754-.002.756-1.174 0-1.172zm24.311-15.027a1.685 1.685 0 0 0-1.148-.47l-.443.002v-.837c0-.51-.303-1.049-.737-1.317v-1.18c0-2.427-3.78-2.417-3.78.011v1.18a1.548 1.548 0 0 0-.738 1.317v.858c-1.95.133-1.956 3.105.002 3.22a776.52 776.52 0 0 1-.002 7.871c-.004.735 1.168.779 1.172.006.014-2.669.015-5.251.002-7.877l2.907-.014-.003 12.561c0 1.902-2.908 1.914-2.908-.02l.001-1.068c.046-.756-1.124-.827-1.17-.07v1.002c0 .86.266 1.587.78 2.1a4.9 4.9 0 0 0 1.436 3.277c.25.248.597.172.839-.014a4.832 4.832 0 0 0 1.42-3.314c.386-.385.773-.773.773-2.101l.001-5.34c1.013.288 2.07-.496 2.07-1.558v-7.084a1.6 1.6 0 0 0-.474-1.141zm-5.674-.447v-.847c0-.174.12-.32.28-.362l2.345-.012a.372.372 0 0 1 .286.363v.843l-2.91.015zm1.459-4.063c.36 0 .715.353.715.708v.95l-1.435.008v-.946c0-.395.323-.718.72-.72zm-.001 23.742a3.739 3.739 0 0 1-.58-1.281 2.591 2.591 0 0 0 1.162-.015 3.655 3.655 0 0 1-.582 1.296zm3.518-11.007c0 .554-.895.598-.895.01l.002-6.053a.59.59 0 0 0-.59-.587l-4.562.023c-.566 0-.553-.886.006-.888l5.594-.028c.271.023.42.17.445.439v7.084z" fill="#1977CC"/></g><defs><clipPath id="a"><path fill="#fff" d="M0 0h40v40H0z"/></clipPath></defs></svg>