<svg width="40" height="40" viewBox="0 0 40 40" fill="none" xmlns="http://www.w3.org/2000/svg"><g clip-path="url(#a)"><path d="M33.125 27.5a3.75 3.75 0 1 0 0-7.5 3.75 3.75 0 0 0 0 7.5z" fill="#A2DFFF"/><path d="M26.875 38.125h12.5V33.75a6.25 6.25 0 1 0-12.5 0v4.375zm-26.25 0h12.5V33.75a6.25 6.25 0 1 0-12.5 0v4.375z" fill="#A2DFFF"/><path d="M6.875 27.5a3.75 3.75 0 1 0 0-7.5 3.75 3.75 0 0 0 0 7.5z" fill="#A2DFFF"/><path d="M24.375 38.125h-12.5V33.75a6.25 6.25 0 1 1 12.5 0v4.375z" fill="#fff"/><path d="M18.125 27.5a3.75 3.75 0 1 0 0-7.5 3.75 3.75 0 0 0 0 7.5z" fill="#fff"/><path d="M24.375 12.5h-2.5l-3.75 3.75V12.5h-3.75V1.875h10V12.5z" fill="#EAE8E5"/><path d="M38.125 12.5h-2.5l-2.5 4.375-2.5-4.375h-2.5V1.875h10V12.5zm-26.25 0h-5v3.75L3.75 12.5H1.875V1.875h10V12.5z" fill="#A2DFFF"/><path d="M18.125 20a3.748 3.748 0 0 0-3.532 2.5h-2.718v1.25h10a3.75 3.75 0 0 0-3.75-3.75z" fill="#fff"/><path d="M35.619 27.344a4.374 4.374 0 1 0-6.869-3.594c0 1.488.744 2.8 1.881 3.594a6.883 6.883 0 0 0-4.381 6.406v4.375c0 .344.281.625.625.625h12.5a.627.627 0 0 0 .625-.625V33.75a6.883 6.883 0 0 0-4.381-6.406zM31.8 26.58a2.492 2.492 0 0 0 1.325-2.206h-1.25c0 .688-.563 1.25-1.25 1.25a3.126 3.126 0 1 1 5.625-1.875 3.126 3.126 0 0 1-4.45 2.831zm6.95 10.92H27.5v-3.75c0-3.1 2.525-5.625 5.625-5.625s5.625 2.525 5.625 5.625v3.75zM20.619 27.344a4.374 4.374 0 0 0-2.494-7.969 4.378 4.378 0 0 0-4.194 3.125h-2.056v1.25h1.875c0 1.488.744 2.8 1.881 3.594a6.897 6.897 0 0 0-3.137 2.462 6.84 6.84 0 0 0-3.131-2.456 4.375 4.375 0 1 0-4.982-.006 6.751 6.751 0 0 0-2.369 1.543A6.826 6.826 0 0 0 0 33.75v4.375c0 .344.281.625.625.625h23.75a.627.627 0 0 0 .625-.625V33.75a6.883 6.883 0 0 0-4.381-6.406zM3.75 23.75a3.126 3.126 0 0 1 6.25 0c0 .706-.231 1.356-.625 1.875-.688 0-1.25-.563-1.25-1.25h-1.25c0 .956.531 1.781 1.325 2.206a3.126 3.126 0 0 1-4.45-2.831zm7.5 10v3.75h-10v-3.75c0-1.5.587-2.913 1.65-3.975a5.589 5.589 0 0 1 3.975-1.65 5.584 5.584 0 0 1 4.925 2.919 6.955 6.955 0 0 0-.55 2.706zm6.875-13.125c1.281 0 2.381.775 2.869 1.875h-5.738a3.143 3.143 0 0 1 2.869-1.875zm-2.5 5A3.088 3.088 0 0 1 15 23.75h6.25a3.126 3.126 0 0 1-4.45 2.831 2.492 2.492 0 0 0 1.325-2.206h-1.25c0 .688-.563 1.25-1.25 1.25zM23.75 37.5H12.5v-3.75c0-3.1 2.525-5.625 5.625-5.625s5.625 2.525 5.625 5.625v3.75z" fill="#1977CC"/><path d="M32.5 29.375h1.25v1.25H32.5v-1.25zm0 2.5h1.25v1.25H32.5v-1.25zm-24.375-2.5v1.25H7.5v3.75H6.25v-3.75h-.625v-1.25h2.5zM20 8.125h-1.25v-1.25c0-.287.195-.536.473-.606l2.027-.507V5H17.5v.625h-1.25v-1.25c0-.346.28-.625.625-.625h5c.345 0 .625.28.625.625V6.25a.625.625 0 0 1-.473.606L20 7.363v.762zm-1.25 1.25H20v1.25h-1.25v-1.25z" fill="#1977CC"/><path d="M18.125 16.875a.625.625 0 0 1-.625-.625v-3.125h-3.125a.625.625 0 0 1-.625-.625V1.875c0-.346.28-.625.625-.625h10c.345 0 .625.28.625.625V12.5c0 .346-.28.625-.625.625h-2.241l-3.567 3.567a.625.625 0 0 1-.442.183zm-3.125-5h3.125c.345 0 .625.28.625.625v2.241l2.683-2.683a.623.623 0 0 1 .442-.183h1.875V2.5H15v9.375zM33.125 17.5a.624.624 0 0 1-.542-.315l-2.32-4.06h-2.138a.625.625 0 0 1-.625-.625V1.875c0-.346.28-.625.625-.625h10c.345 0 .625.28.625.625V12.5c0 .346-.28.625-.625.625h-2.138l-2.32 4.06a.624.624 0 0 1-.542.315zm-4.375-5.625h1.875c.224 0 .431.12.543.315l1.957 3.425 1.958-3.425a.624.624 0 0 1 .542-.315H37.5V2.5h-8.75v9.375zm-21.875 5a.625.625 0 0 1-.48-.224l-2.937-3.526H1.875a.625.625 0 0 1-.625-.625V1.875c0-.346.28-.625.625-.625h10c.345 0 .625.28.625.625V12.5c0 .346-.28.625-.625.625H7.5v3.125a.625.625 0 0 1-.625.625zm-4.375-5h1.25c.186 0 .361.082.48.224l2.02 2.425V12.5c0-.346.28-.625.625-.625h4.375V2.5H2.5v9.375z" fill="#1977CC"/><path d="M5.625 10a.623.623 0 0 1-.442-.183L3.308 7.942l.884-.884 1.433 1.433 3.308-3.308.884.884-3.75 3.75a.623.623 0 0 1-.442.183zm25-5h1.25v1.25h-1.25V5zm3.75 0h1.25v1.25h-1.25V5zm-1.25 5a2.502 2.502 0 0 1-2.5-2.5h1.25a1.251 1.251 0 0 0 2.5 0h1.25c0 1.379-1.121 2.5-2.5 2.5z" fill="#1977CC"/></g><defs><clipPath id="a"><path fill="#fff" d="M0 0h40v40H0z"/></clipPath></defs></svg>