<svg width="40" height="40" viewBox="0 0 40 40" fill="none" xmlns="http://www.w3.org/2000/svg"><path d="M22.992 27.764a9.34 9.34 0 0 1-.482 1.802l1.957 1.773a11.8 11.8 0 0 1-.948 1.654l-2.512-.81c-.396.484-.84.928-1.325 1.324l.81 2.512c-.52.361-1.076.673-1.653.948l-1.773-1.957a9.328 9.328 0 0 1-1.803.482l-.558 2.585c-.316.025-.633.048-.955.048-.322 0-.64-.023-.956-.048l-.558-2.585a9.34 9.34 0 0 1-1.802-.482L8.66 36.967a11.803 11.803 0 0 1-1.654-.948l.81-2.512a9.43 9.43 0 0 1-1.324-1.324l-2.512.81a11.858 11.858 0 0 1-.948-1.654l1.957-1.773a9.326 9.326 0 0 1-.482-1.802l-2.585-.558a12.073 12.073 0 0 1-.048-.956c0-.323.023-.64.048-.956l2.585-.558a9.338 9.338 0 0 1 .482-1.802L3.033 21.16c.275-.578.587-1.133.948-1.654l2.512.81a9.36 9.36 0 0 1 1.324-1.324l-.81-2.512a11.9 11.9 0 0 1 1.654-.948l1.773 1.957a9.328 9.328 0 0 1 1.803-.482l.558-2.585c.316-.025.633-.048.955-.048.322 0 .64.023.956.048l.558 2.585a9.34 9.34 0 0 1 1.802.482l1.773-1.957a11.8 11.8 0 0 1 1.654.948l-.81 2.512c.485.396.928.84 1.324 1.325l2.512-.81c.361.52.673 1.076.948 1.653l-1.957 1.773c.218.577.38 1.178.482 1.803l2.585.558c.025.316.048.632.048.955 0 .323-.023.64-.048.956l-2.585.558zM13.75 20a6.25 6.25 0 1 0 0 12.5 6.25 6.25 0 0 0 0-12.5z" fill="#fff"/><path d="M31.662 10.19a5.006 5.006 0 0 1-.382.926l.987 1.89a6.908 6.908 0 0 1-1.135 1.135l-1.89-.987a4.922 4.922 0 0 1-.926.382l-.64 2.038c-.263.031-.53.051-.801.051s-.538-.02-.8-.05l-.64-2.038a4.962 4.962 0 0 1-.926-.382l-1.89.987a6.905 6.905 0 0 1-1.135-1.134l.987-1.892a4.922 4.922 0 0 1-.382-.925l-2.038-.64A6.781 6.781 0 0 1 20 8.75c0-.271.02-.537.05-.8l2.038-.64c.097-.324.225-.634.382-.926l-.987-1.89a6.908 6.908 0 0 1 1.134-1.135l1.892.987c.292-.158.602-.285.925-.382l.64-2.038c.263-.031.53-.051.801-.051s.538.02.8.05l.64 2.038c.324.097.634.225.926.382l1.89-.987a6.88 6.88 0 0 1 1.135 1.134l-.987 1.892c.158.292.285.602.382.925l2.038.64c.031.264.051.53.051.801s-.02.537-.05.8l-2.038.64zm-4.787-3.94a2.5 2.5 0 1 0 0 5 2.5 2.5 0 0 0 0-5zm9.837 18.044a4.352 4.352 0 0 1-.406.983l.622 1.309a5.67 5.67 0 0 1-.967.967l-1.31-.622a4.34 4.34 0 0 1-.982.406l-.486 1.367a5.597 5.597 0 0 1-.683.046 5.49 5.49 0 0 1-.683-.046l-.486-1.367a4.352 4.352 0 0 1-.983-.406l-1.309.622a5.67 5.67 0 0 1-.967-.967l.622-1.31a4.35 4.35 0 0 1-.406-.981l-1.367-.486a5.617 5.617 0 0 1-.046-.684c0-.232.018-.459.046-.683l1.367-.486a4.34 4.34 0 0 1 .406-.982l-.622-1.309a5.67 5.67 0 0 1 .967-.967l1.31.621a4.34 4.34 0 0 1 .982-.405l.486-1.368a5.48 5.48 0 0 1 .683-.046c.232 0 .459.018.683.046l.486 1.367c.347.096.676.232.983.406l1.309-.622c.36.282.685.607.967.967l-.622 1.31c.174.305.31.635.406.982l1.367.486c.028.224.046.451.046.683 0 .232-.018.459-.046.683l-1.367.486zM32.5 21.25a1.875 1.875 0 1 0 0 3.75 1.875 1.875 0 0 0 0-3.75z" fill="#A2DFFF"/><path d="M1.3 27.255a.624.624 0 0 0 .491.561l2.178.47c.077.371.175.738.293 1.095l-1.649 1.494a.625.625 0 0 0-.144.732 12.5 12.5 0 0 0 .997 1.74.625.625 0 0 0 .706.24l2.117-.682c.253.284.522.553.806.806l-.682 2.117a.625.625 0 0 0 .24.706c.52.36 1.106.696 1.74.997.25.119.547.06.732-.144l1.494-1.649c.358.118.724.216 1.095.293l.47 2.178c.059.27.287.468.561.491.333.026.666.05 1.005.05.34 0 .672-.024 1.005-.05a.625.625 0 0 0 .561-.491l.47-2.178a9.894 9.894 0 0 0 1.096-.293l1.494 1.649a.624.624 0 0 0 .732.144 12.55 12.55 0 0 0 1.74-.997.625.625 0 0 0 .24-.706l-.682-2.117c.283-.253.553-.522.806-.805l2.117.681a.624.624 0 0 0 .705-.239c.361-.521.697-1.107.998-1.74a.625.625 0 0 0-.145-.732l-1.648-1.494c.117-.358.215-.725.292-1.096l2.178-.47a.626.626 0 0 0 .492-.56c.025-.334.049-.667.049-1.006 0-.34-.024-.672-.05-1.005a.625.625 0 0 0-.491-.561l-2.178-.47a9.876 9.876 0 0 0-.293-1.096l1.649-1.494a.625.625 0 0 0 .144-.732 12.557 12.557 0 0 0-.997-1.74.624.624 0 0 0-.706-.24l-2.117.682a10.039 10.039 0 0 0-.806-.806l.682-2.117a.625.625 0 0 0-.24-.705 12.495 12.495 0 0 0-1.74-.998.624.624 0 0 0-.732.145l-1.494 1.648a10.07 10.07 0 0 0-1.095-.292l-.47-2.178a.626.626 0 0 0-.561-.492 12.708 12.708 0 0 0-2.01 0 .625.625 0 0 0-.562.492l-.47 2.178a9.888 9.888 0 0 0-1.095.292l-1.494-1.648a.624.624 0 0 0-.732-.145c-.633.301-1.219.637-1.74.998a.625.625 0 0 0-.24.705l.682 2.117c-.283.253-.553.523-.806.806l-2.116-.681a.624.624 0 0 0-.706.239 12.5 12.5 0 0 0-.997 1.74.625.625 0 0 0 .144.732l1.649 1.494a9.993 9.993 0 0 0-.293 1.096l-2.178.47a.626.626 0 0 0-.491.56c-.026.334-.05.667-.05 1.006 0 .34.024.672.05 1.005zm1.213-1.448l2.126-.46a.625.625 0 0 0 .485-.51 8.714 8.714 0 0 1 .45-1.682.624.624 0 0 0-.165-.684l-1.606-1.455c.14-.268.286-.525.438-.768l2.06.663c.243.078.512 0 .675-.199a8.787 8.787 0 0 1 1.237-1.236c.198-.162.278-.43.198-.675l-.663-2.06c.243-.152.499-.299.768-.438L9.97 17.91a.624.624 0 0 0 .685.165 8.674 8.674 0 0 1 1.68-.449.625.625 0 0 0 .511-.485l.46-2.126a8.25 8.25 0 0 1 .886 0l.46 2.126a.625.625 0 0 0 .51.485 8.714 8.714 0 0 1 1.682.45.624.624 0 0 0 .684-.166l1.455-1.605c.268.14.525.286.768.437l-.663 2.06a.626.626 0 0 0 .199.676c.45.369.866.785 1.236 1.236.163.2.431.279.675.199l2.06-.664c.152.243.299.5.438.768L22.09 22.47a.625.625 0 0 0-.165.685c.204.538.355 1.104.449 1.68a.625.625 0 0 0 .485.512l2.126.458a7.962 7.962 0 0 1 0 .887l-2.125.46a.625.625 0 0 0-.485.51 8.716 8.716 0 0 1-.45 1.682.624.624 0 0 0 .165.684l1.606 1.455c-.14.268-.286.525-.438.768l-2.06-.663a.622.622 0 0 0-.675.199c-.368.45-.785.866-1.236 1.236a.625.625 0 0 0-.2.675l.665 2.06c-.244.152-.5.298-.768.437L17.53 34.59a.627.627 0 0 0-.685-.165 8.674 8.674 0 0 1-1.681.45.625.625 0 0 0-.51.484l-.46 2.127a8.251 8.251 0 0 1-.887 0l-.459-2.127a.625.625 0 0 0-.51-.485 8.714 8.714 0 0 1-1.682-.449.623.623 0 0 0-.685.165l-1.455 1.606c-.268-.14-.525-.287-.768-.438l.664-2.06a.626.626 0 0 0-.199-.675 8.788 8.788 0 0 1-1.236-1.237.624.624 0 0 0-.676-.199l-2.06.664a11.07 11.07 0 0 1-.437-.768l1.606-1.455a.625.625 0 0 0 .165-.685 8.672 8.672 0 0 1-.45-1.681.625.625 0 0 0-.484-.51l-2.128-.458a8.003 8.003 0 0 1 0-.887zm31.374-15.66a.624.624 0 0 0 .433-.524 7.35 7.35 0 0 0 .055-.873c0-.271-.017-.557-.054-.872a.624.624 0 0 0-.433-.525l-1.734-.544a5.445 5.445 0 0 0-.172-.418l.84-1.61a.627.627 0 0 0-.064-.676 7.566 7.566 0 0 0-1.237-1.237.626.626 0 0 0-.677-.064l-1.61.84a5.665 5.665 0 0 0-.418-.172l-.544-1.733a.625.625 0 0 0-.524-.433 6.914 6.914 0 0 0-1.746 0 .624.624 0 0 0-.524.433l-.545 1.733c-.142.052-.281.11-.417.172l-1.61-.84a.628.628 0 0 0-.677.064 7.566 7.566 0 0 0-1.236 1.237.625.625 0 0 0-.065.677l.84 1.61c-.063.136-.12.275-.172.417l-1.733.544a.624.624 0 0 0-.434.525 7.472 7.472 0 0 0-.054.872c0 .271.017.557.054.873.029.245.199.45.434.524l1.733.544c.052.142.109.281.172.418l-.84 1.61a.626.626 0 0 0 .064.676c.362.457.778.874 1.237 1.237a.626.626 0 0 0 .677.064l1.609-.84c.136.063.276.12.418.173l.544 1.733c.074.235.28.405.524.433.317.038.603.055.874.055s.557-.017.872-.054a.625.625 0 0 0 .525-.434l.544-1.733a5.47 5.47 0 0 0 .418-.172l1.61.84c.217.114.482.09.676-.064a7.573 7.573 0 0 0 1.237-1.237.625.625 0 0 0 .064-.677l-.84-1.609c.063-.136.12-.276.173-.417l1.733-.546zm-2.413-.553a.627.627 0 0 0-.41.417 4.406 4.406 0 0 1-.335.809.623.623 0 0 0-.003.585l.793 1.52a6.4 6.4 0 0 1-.469.469l-1.52-.793a.625.625 0 0 0-.585.003 4.406 4.406 0 0 1-.809.334.627.627 0 0 0-.417.411l-.515 1.64a5.16 5.16 0 0 1-.658 0l-.515-1.64a.627.627 0 0 0-.417-.41 4.346 4.346 0 0 1-.808-.335.625.625 0 0 0-.586-.003l-1.52.793a6.38 6.38 0 0 1-.469-.469l.793-1.52a.625.625 0 0 0-.003-.585 4.406 4.406 0 0 1-.334-.809.627.627 0 0 0-.411-.417l-1.64-.515a5.017 5.017 0 0 1 0-.658l1.64-.515a.627.627 0 0 0 .41-.417c.086-.283.198-.555.335-.808a.625.625 0 0 0 .003-.586l-.793-1.52c.148-.164.305-.321.469-.469l1.52.793a.627.627 0 0 0 .585-.003c.254-.137.526-.25.809-.334a.627.627 0 0 0 .417-.411l.515-1.64a5.16 5.16 0 0 1 .658 0l.515 1.64a.627.627 0 0 0 .417.41c.283.086.555.198.808.335.183.098.402.1.586.003l1.52-.793c.164.148.321.305.469.469l-.793 1.52a.625.625 0 0 0 .003.585c.137.254.25.526.334.809a.63.63 0 0 0 .411.417l1.64.515a5.017 5.017 0 0 1 0 .658l-1.64.515zm6.815 12.258l-1.074-.38a5.066 5.066 0 0 0-.21-.511l.487-1.028a.622.622 0 0 0-.072-.653 6.292 6.292 0 0 0-1.074-1.075.625.625 0 0 0-.653-.072l-1.03.488a4.974 4.974 0 0 0-.51-.21l-.381-1.074a.626.626 0 0 0-.514-.411 5.757 5.757 0 0 0-1.517 0 .624.624 0 0 0-.514.41l-.38 1.075a5.044 5.044 0 0 0-.511.21l-1.028-.488a.625.625 0 0 0-.653.073c-.4.312-.761.673-1.075 1.074a.626.626 0 0 0-.072.653l.488 1.029c-.08.165-.15.335-.21.51l-1.074.382a.626.626 0 0 0-.411.514 5.985 5.985 0 0 0-.051.757c0 .233.016.48.05.758a.624.624 0 0 0 .411.514l1.074.381c.061.175.131.345.21.51l-.488 1.029a.622.622 0 0 0 .073.652c.313.4.674.762 1.074 1.075.187.146.44.174.654.073l1.028-.488c.165.078.336.15.51.21l.382 1.074c.08.223.279.382.514.41.278.036.525.052.758.052.233 0 .48-.016.758-.05a.624.624 0 0 0 .514-.411l.381-1.074c.175-.061.345-.131.51-.21l1.029.488a.62.62 0 0 0 .652-.073c.4-.313.762-.674 1.075-1.074a.626.626 0 0 0 .073-.654l-.488-1.028c.079-.165.15-.336.21-.51l1.074-.382a.626.626 0 0 0 .41-.514 6.04 6.04 0 0 0 .052-.758c0-.233-.016-.48-.05-.758a.625.625 0 0 0-.411-.515zm-.795 1.501l-.99.352a.625.625 0 0 0-.394.422c-.082.297-.199.58-.347.842a.626.626 0 0 0-.02.575l.448.946a5.002 5.002 0 0 1-.325.326l-.946-.45a.627.627 0 0 0-.576.021 3.72 3.72 0 0 1-.84.347.628.628 0 0 0-.423.393l-.352.991a4.287 4.287 0 0 1-.456 0l-.352-.99a.625.625 0 0 0-.422-.394 3.716 3.716 0 0 1-.842-.347.63.63 0 0 0-.576-.02l-.945.449a5.002 5.002 0 0 1-.326-.326l.449-.946a.625.625 0 0 0-.02-.575 3.719 3.719 0 0 1-.348-.841.628.628 0 0 0-.393-.423l-.99-.352a3.451 3.451 0 0 1-.002-.456l.99-.353a.623.623 0 0 0 .393-.422c.083-.297.2-.58.348-.841a.627.627 0 0 0 .02-.576l-.448-.946a5 5 0 0 1 .325-.325l.946.448c.184.088.399.08.576-.02.262-.149.545-.265.84-.347a.627.627 0 0 0 .423-.393l.352-.99c.151-.009.305-.009.456 0l.352.99a.625.625 0 0 0 .422.393c.297.082.58.199.842.347.178.1.392.108.576.02l.945-.448a5 5 0 0 1 .326.325l-.449.946a.625.625 0 0 0 .02.576c.15.262.266.545.348.84a.627.627 0 0 0 .393.423l.99.352a3.48 3.48 0 0 1 .002.457z" fill="#1977CC"/><path d="M13.75 33.125a6.883 6.883 0 0 0 6.875-6.875 6.883 6.883 0 0 0-6.875-6.875 6.883 6.883 0 0 0-6.875 6.875 6.883 6.883 0 0 0 6.875 6.875zm0-12.5a5.632 5.632 0 0 1 5.625 5.625 5.632 5.632 0 0 1-5.625 5.625 5.632 5.632 0 0 1-5.625-5.625 5.632 5.632 0 0 1 5.625-5.625zM1.264 15.85l.96.8a14.97 14.97 0 0 1 11.526-5.4c.318 0 .636.018.953.038l-.77.77.884.884 1.875-1.875a.624.624 0 0 0 0-.884l-1.875-1.875-.884.884.85.85A16.254 16.254 0 0 0 13.75 10a16.217 16.217 0 0 0-12.486 5.85zM26.875 5.625A3.129 3.129 0 0 0 23.75 8.75a3.129 3.129 0 0 0 3.125 3.125A3.129 3.129 0 0 0 30 8.75a3.129 3.129 0 0 0-3.125-3.125zm0 5A1.877 1.877 0 0 1 25 8.75c0-1.034.841-1.875 1.875-1.875s1.875.841 1.875 1.875a1.877 1.877 0 0 1-1.875 1.875zm5.625 10a2.502 2.502 0 0 0-2.5 2.5c0 1.379 1.121 2.5 2.5 2.5s2.5-1.121 2.5-2.5-1.121-2.5-2.5-2.5zm0 3.75a1.251 1.251 0 0 1 0-2.5 1.251 1.251 0 0 1 0 2.5zm5.748-21.237l-3.125-.625a.624.624 0 0 0-.736.49l-.625 3.125 1.226.245.337-1.682a9.378 9.378 0 0 1 .925 4.06 9.275 9.275 0 0 1-2.056 5.859l.975.781a10.638 10.638 0 0 0 1.233-11.348l1.6.32.246-1.225z" fill="#1977CC"/></svg>