<svg width="40" height="40" viewBox="0 0 40 40" fill="none" xmlns="http://www.w3.org/2000/svg"><path d="M.586 28.984c0 .645.527 1.172 1.172 1.172h34.14c.645 0 1.172-.527 1.172-1.172v-.39L20 26.019.586 27.812v1.172zM2.148 2.813h-.39c-.645 0-1.172.527-1.172 1.171v3.594L20 9.372 2.148 2.812z" fill="#A2DFFF"/><path d="M2.148 7.723L20 9.372l17.07-1.794V3.984c0-.644-.527-1.171-1.172-1.171H2.148v4.91z" fill="#A2DFFF"/><path d="M2.217 27.813H.586V7.578h1.562l.07 20.235z" fill="#E9EDF1"/><path d="M2.174 27.666c.113.528.585.928 1.146.928h33.75v-.782L20 26.02 2.174 27.666z" fill="#A2DFFF"/><path d="M2.148 27.422c0 .137.026.268.07.39H37.07V7.578H2.148v19.844z" fill="#F7F9FA"/><path d="M22.741 11.406h-.39c-.645 0-1.172.528-1.172 1.172v15.235h8.899l-7.337-16.407zm12.003-3.828h2.309v20.235h-2.309V7.578z" fill="#E9EDF1"/><path d="M23.523 13.046l-2.344-.78H5.149c-.644 0-1.172.527-1.172 1.171v5.313c0 .645.528 1.172 1.172 1.172h16.03l2.344-.78v-6.096z" fill="#A2DFFF"/><path d="M21.179 12.266h3.125v7.656h-3.125v-7.656zm1.562 23.75c0 .644.528 1.171 1.172 1.171h14.25c.646 0 1.173-.527 1.173-1.171v-.391l-8.477-2.575-8.118 1.794v1.172z" fill="#A2DFFF"/><path d="M24.304 9.844h-.39c-.645 0-1.173.527-1.173 1.172v1.25l8.9 1.793-7.337-4.215z" fill="#A2DFFF"/><path d="M24.304 12.266l7.337 1.793 7.695-1.793v-1.25c0-.645-.527-1.172-1.172-1.172h-13.86v2.422z" fill="#A2DFFF"/><path d="M24.372 34.844h-1.63V12.266h1.562l.069 22.578z" fill="#E9EDF1"/><path d="M24.33 34.697c.113.528.585.928 1.146.928h13.86v-.781L30.86 33.05l-6.53 1.647z" fill="#A2DFFF"/><path d="M24.304 34.453c0 .137.025.268.069.39h14.963V12.267H24.304v22.187z" fill="#F7F9FA"/><path d="M31.078 30.156a5.993 5.993 0 1 0 0-11.985 5.993 5.993 0 0 0 0 11.985z" fill="#A2DFFF"/><path d="M35.974 20.711l-5.803 5.804-2.824-2.824a.586.586 0 0 0-.829.828l3.238 3.239a.586.586 0 0 0 .83 0l5.986-5.987a5.991 5.991 0 0 0-.598-1.06z" fill="#A2DFFF"/><path d="M38.242 37.773H23.913a1.76 1.76 0 0 1-1.758-1.757v-5.274H1.759A1.76 1.76 0 0 1 0 28.984V9.922a.586.586 0 1 1 1.172 0v17.305h19.226a.586.586 0 1 1 0 1.171H1.172v.586c0 .323.263.586.586.586h20.398v-9.062H5.148A1.76 1.76 0 0 1 3.39 18.75v-5.313a1.76 1.76 0 0 1 1.758-1.757h15.249a.586.586 0 1 1 0 1.172H5.149a.587.587 0 0 0-.586.585v5.313c0 .323.263.586.586.586h17.006v-8.242c0-.97.789-1.758 1.758-1.758h10.228V8.164H.586A.586.586 0 0 1 0 7.578V3.984a1.76 1.76 0 0 1 1.758-1.757h25.86a.586.586 0 1 1 0 1.171H1.757a.587.587 0 0 0-.586.586v3.008h35.312V3.984a.587.587 0 0 0-.586-.586H29.96a.586.586 0 1 1 0-1.171h5.937c.97 0 1.758.788 1.758 1.757v5.352h.586c.97 0 1.758.788 1.758 1.758v24.922a1.76 1.76 0 0 1-1.758 1.757zM23.327 35.43v.586c0 .323.263.586.586.586h14.33a.587.587 0 0 0 .585-.586v-.586h-15.5zm0-1.172h15.501V12.852h-15.5v21.406zm0-22.578h15.501v-.586a.587.587 0 0 0-.586-.586H23.913a.587.587 0 0 0-.586.586v.586zm11.985-2.344h1.172V8.164h-1.172v1.172zm-4.234 21.406a6.586 6.586 0 0 1-6.579-6.578 6.586 6.586 0 0 1 6.579-6.579c1.247 0 2.46.35 3.51 1.014a.586.586 0 1 1-.626.99 5.389 5.389 0 0 0-2.884-.832 5.413 5.413 0 0 0-5.407 5.407 5.413 5.413 0 0 0 5.407 5.406 5.413 5.413 0 0 0 4.823-7.853l-4.874 4.874a.586.586 0 0 1-.829 0l-2.869-2.869a.586.586 0 0 1 .829-.829l2.454 2.455 4.986-4.986a.204.204 0 0 1 .01-.01l1.048-1.048a.586.586 0 1 1 .828.829l-.72.72a6.543 6.543 0 0 1 .892 3.31 6.586 6.586 0 0 1-6.578 6.58zm-12.81-5.437a.584.584 0 0 1-.415-1l.28-.282h-6.89a.586.586 0 1 1 0-1.171h6.89l-.28-.282a.586.586 0 0 1 .828-.828l1.282 1.281c.229.229.229.6 0 .829l-1.282 1.281a.584.584 0 0 1-.414.172zm.56-6.98a.586.586 0 0 1-.586-.586v-.63l-.545.315a.586.586 0 0 1-.586-1.015l.545-.315-.545-.315a.586.586 0 0 1 .586-1.015l.545.315v-.63a.586.586 0 1 1 1.172 0v.63l.546-.315a.586.586 0 0 1 .585 1.015l-.545.315.546.315a.586.586 0 1 1-.586 1.015l-.546-.315v.63a.586.586 0 0 1-.586.586zm-5.469 0a.586.586 0 0 1-.586-.586v-.63l-.545.315a.586.586 0 0 1-.586-1.015l.546-.315-.546-.315a.586.586 0 1 1 .586-1.015l.545.315v-.63a.586.586 0 0 1 1.172 0v.63l.546-.315a.586.586 0 0 1 .586 1.015l-.546.315.546.315a.586.586 0 0 1-.586 1.015l-.546-.315v.63a.586.586 0 0 1-.586.586zm-5.468 0a.586.586 0 0 1-.586-.586v-.63l-.546.315a.586.586 0 0 1-.586-1.015l.546-.315-.546-.315a.586.586 0 0 1 .586-1.015l.546.315v-.63a.586.586 0 1 1 1.172 0v.63l.545-.315a.586.586 0 0 1 .586 1.015l-.546.315.546.315a.586.586 0 0 1-.586 1.015l-.545-.315v.63a.586.586 0 0 1-.586.586zM34.688 5.82a.626.626 0 1 1 .001-1.251.626.626 0 0 1-.002 1.251zm-2.344 0a.626.626 0 1 1 .001-1.251.626.626 0 0 1-.001 1.251zM30 5.82a.626.626 0 1 1 .001-1.251A.626.626 0 0 1 30 5.82z" fill="#1977CC"/></svg>