<svg width="40" height="40" viewBox="0 0 40 40" fill="none" xmlns="http://www.w3.org/2000/svg"><path d="M31.25 11.25c0-.819.519-1.512 1.25-1.762v10.637a6.284 6.284 0 0 0-2.5 0V9.488c.731.25 1.25.943 1.25 1.762z" fill="#A2DFFF"/><path d="M1.25 37.5V9.269c0-.181.038-.357.113-.519H7.5V2.612a1.23 1.23 0 0 1 .519-.112h19.087a7.317 7.317 0 0 0-1.162.944A7.477 7.477 0 0 0 23.75 8.75v2.5c0-1.037.837-1.875 1.875-1.875s1.875.838 1.875 1.875c0-.206.031-.406.1-.588a1.862 1.862 0 0 1 1.775-1.287c.219 0 .431.037.625.113v10.637a6.26 6.26 0 0 0-5 6.125c0 3.45 2.8 6.25 6.25 6.25v5c0 .688-.563 1.25-1.25 1.25H2.5c-.688 0-1.25-.563-1.25-1.25z" fill="#fff"/><path d="M10 5h11.25v3.75H10V5z" fill="#69D6F4"/><path d="M23.75 13.75h3.75v5h-3.75v-5zM7.5 2.613V8.75H1.363a1.26 1.26 0 0 1 .256-.369L7.13 2.87a1.26 1.26 0 0 1 .37-.256z" fill="#A2DFFF"/><path d="M36.875 9.375c-.831 0-1.531.537-1.775 1.287l-.1-.037c0-6.875-3.75-9.375-3.75-9.375 4.144 0 7.5 3.356 7.5 7.5v2.5a1.872 1.872 0 0 0-1.875-1.875zm-9.375 1.25l.1.037c-.069.182-.1.382-.1.588a1.872 1.872 0 0 0-1.875-1.875 1.872 1.872 0 0 0-1.875 1.875v-2.5c0-2.075.837-3.95 2.194-5.306a7.317 7.317 0 0 1 1.162-.944 7.397 7.397 0 0 1 4.144-1.25s-3.75 2.5-3.75 9.375z" fill="#fff"/><path d="M31.25 1.25S35 3.75 35 10.625l.1.037c-.069.182-.1.382-.1.588a1.872 1.872 0 0 0-1.875-1.875c-.219 0-.431.037-.625.113-.731.25-1.25.943-1.25 1.762 0-.819-.519-1.512-1.25-1.762a1.733 1.733 0 0 0-.625-.113c-.831 0-1.531.537-1.775 1.287l-.1-.037c0-6.875 3.75-9.375 3.75-9.375z" fill="#A2DFFF"/><path d="M15 23.75h-.869A7.464 7.464 0 0 1 10 22.5a7.464 7.464 0 0 1-4.131 1.25H5s-1.25 6.875-1.25 8.75c0 1.487 3.531 2.969 4.994 3.525A3.6 3.6 0 0 0 10 36.25a3.6 3.6 0 0 0 1.256-.225c1.463-.556 4.994-2.038 4.994-3.525 0-1.875-1.25-8.75-1.25-8.75z" fill="#fff"/><path d="M32.5 20.125a6.26 6.26 0 0 1 5 6.125c0 3.45-2.8 6.25-6.25 6.25S25 29.7 25 26.25a6.26 6.26 0 0 1 5-6.125 6.284 6.284 0 0 1 2.5 0z" fill="#A2DFFF"/><path d="M30.625 21.875v1.34a1.78 1.78 0 0 0-1.25 1.694c0 .68.378 1.29.986 1.595l1.219.61a.535.535 0 0 1-.239 1.011h-.182a.535.535 0 0 1-.534-.534v-.716h-1.25v.716a1.78 1.78 0 0 0 1.25 1.693v1.341h1.25v-1.34a1.78 1.78 0 0 0 1.25-1.694c0-.68-.377-1.29-.986-1.595l-1.219-.61a.535.535 0 0 1 .239-1.011h.182c.295 0 .534.24.534.534V25h1.25v-.091a1.78 1.78 0 0 0-1.25-1.693v-1.341h-1.25z" fill="#1977CC"/><path d="M31.25.625c-1.584 0-3.06.462-4.31 1.25H8.018c-.5 0-.972.196-1.326.55L1.174 7.941a1.862 1.862 0 0 0-.549 1.325V37.5c0 1.034.841 1.875 1.875 1.875H30a1.877 1.877 0 0 0 1.875-1.875v-4.407c3.499-.317 6.25-3.263 6.25-6.843 0-3.14-2.119-5.79-5-6.609V10c.69 0 1.25.56 1.25 1.25h1.25a1.251 1.251 0 0 1 2.5 0h1.25v-2.5c0-4.48-3.645-8.125-8.125-8.125zm-4.31 8.508a2.477 2.477 0 0 0-2.565-.047V8.75c0-3.183 2.177-5.86 5.12-6.64-1.024 1.278-2.27 3.519-2.555 7.023zM6.875 4.01v4.116H2.759L6.875 4.01zM30 38.125H2.5a.626.626 0 0 1-.625-.625V9.375h6.25v-6.25h17.276a8.091 8.091 0 0 0-2.276 5.625v2.5h1.25a1.251 1.251 0 0 1 2.5 0h1.25c0-.69.56-1.25 1.25-1.25v9.641c-2.881.819-5 3.468-5 6.609 0 3.58 2.751 6.526 6.25 6.843V37.5c0 .345-.28.625-.625.625zm6.875-11.875a5.631 5.631 0 0 1-5.625 5.625 5.631 5.631 0 0 1-5.625-5.625 5.631 5.631 0 0 1 5.625-5.625 5.631 5.631 0 0 1 5.625 5.625zm-5.625-6.875c-.211 0-.419.013-.625.032V11.25h1.25v8.157a6.862 6.862 0 0 0-.625-.032zM33.125 8.75c-.75 0-1.416.339-1.875.864a2.484 2.484 0 0 0-1.875-.864c-.426 0-.82.117-1.171.305.389-4.2 2.256-6.3 3.046-7.004.79.705 2.657 2.803 3.046 7.004a2.469 2.469 0 0 0-1.171-.305zm5 .336a2.477 2.477 0 0 0-2.565.048c-.285-3.505-1.53-5.746-2.554-7.023 2.941.779 5.119 3.456 5.119 6.639v.336z" fill="#1977CC"/><path d="M15.521 23.125h-1.393a6.802 6.802 0 0 1-3.782-1.145L10 21.75l-.347.231a6.799 6.799 0 0 1-3.781 1.145H4.479l-.093.513c-.052.283-1.261 6.953-1.261 8.862 0 1.374 1.817 2.757 5.401 4.108a4.16 4.16 0 0 0 1.474.267c.51 0 1.005-.09 1.474-.267 3.583-1.351 5.401-2.733 5.401-4.108 0-1.91-1.209-8.58-1.26-8.862l-.094-.513zM11.032 35.44c-.131.05-.269.082-.407.112v-7.426h-1.25v7.426a2.823 2.823 0 0 1-.408-.111c-3.155-1.191-4.592-2.359-4.592-2.94 0-1.506.861-6.502 1.148-8.125h.348a8.035 8.035 0 0 0 3.503-.804v3.304h1.25v-3.304a8.04 8.04 0 0 0 3.504.804h.348c.288 1.623 1.149 6.62 1.149 8.125 0 .581-1.437 1.749-4.592 2.939zM21.875 4.375h-12.5v5h12.5v-5zm-1.25 3.75h-10v-2.5h10v2.5zm-17.5 2.5h1.25v1.25h-1.25v-1.25zm2.5 0h16.25v1.25H5.625v-1.25zm-2.5 2.5h18.75v1.25H3.125v-1.25zm0 2.5h18.75v1.25H3.125v-1.25zm17.5 2.5h1.25v1.25h-1.25v-1.25zm-17.5 0h16.25v1.25H3.125v-1.25zm25-5h-5v6.25h5v-6.25zm-1.25 5h-2.5v-3.75h2.5v3.75zm-8.75 12.5h6.25v1.25h-6.25v-1.25zm0 2.5h6.25v1.25h-6.25v-1.25zm0 2.5h1.25v1.25h-1.25v-1.25zm2.5 0h1.25v1.25h-1.25v-1.25zm2.5 0h1.25v1.25h-1.25v-1.25z" fill="#1977CC"/></svg>