<svg width="40" height="40" viewBox="0 0 40 40" fill="none" xmlns="http://www.w3.org/2000/svg"><path d="M35 2.5v9.375l-.025.025-4.35 4.35H27.5A3.131 3.131 0 0 0 25 17.5h-8.75v15H30V35H13.75V16.25c0-3.45-2.8-6.25-6.25-6.25V8.019c0-.181.037-.357.112-.519H12.5c.688 0 1.25-.563 1.25-1.25V1.362a1.23 1.23 0 0 1 .519-.112H33.75c.688 0 1.25.563 1.25 1.25z" fill="#E6E9ED"/><path d="M28.281 28a3.406 3.406 0 0 1-.756-.831 3.524 3.524 0 0 1-.5-1.063h-.006l-2.644 2.644-.625.25-2.313.925a1.048 1.048 0 0 1-1.363-1.363l1.176-2.937.625-.625 3.75-3.75c-.688 0-1.25-.563-1.25-1.25v-.625c0-.706.231-1.356.625-1.875h-8.75v15H30v-3.125L28.281 28z" fill="#fff"/><path d="M16.25 3.75H32.5v2.5H16.25v-2.5z" fill="#A2DFFF"/><path d="M13.75 1.362V6.25c0 .687-.563 1.25-1.25 1.25H7.612a1.26 1.26 0 0 1 .257-.369L13.38 1.62a1.26 1.26 0 0 1 .369-.257z" fill="#fff"/><path d="M26.875 20v5.075c0 .356.05.7.15 1.031h-.006l-2.644 2.644-3.125-3.125.625-.625 3.75-3.75c.344 0 .656-.137.881-.369.232-.225.369-.537.369-.881zM35 11.875a2.2 2.2 0 0 1 3.1.025 2.2 2.2 0 0 1 0 3.125l-3.65 3.65-5.075 5.075v-3.125a1.87 1.87 0 0 0-1.331-1.794l2.58-2.581 4.35-4.35.026-.025z" fill="#A2DFFF"/><path d="M24.375 28.75l-.625.25-2.313.925a1.048 1.048 0 0 1-1.363-1.363l1.176-2.937 3.125 3.125z" fill="#AAB2BD"/><path d="M36.875 27.5l1.25 7.5H30v-5.625l6.875-1.875zm-10.369-6.619a1.222 1.222 0 0 1-.881.369c-.688 0-1.25-.563-1.25-1.25v-.625c0-.706.231-1.356.625-1.875a3.131 3.131 0 0 1 2.5-1.25h3.125l-2.581 2.581a1.938 1.938 0 0 0-.544-.081.627.627 0 0 0-.625.625V20c0 .344-.137.656-.369.881z" fill="#fff"/><path d="M34.781 19.281a17.183 17.183 0 0 1 2.094 8.219L30 29.375 28.281 28a3.408 3.408 0 0 1-.756-.831 3.524 3.524 0 0 1-.5-1.063c-.1-.331-.15-.675-.15-1.031v-5.7c0-.344.281-.625.625-.625.188 0 .375.031.544.081.3.094.569.256.781.469.338.337.55.806.55 1.325v3.125l5.075-5.075.331.606z" fill="#fff"/><path d="M13.75 16.25v20a2.5 2.5 0 0 1-2.5 2.5h-7.5a2.5 2.5 0 0 1-2.5-2.5v-20c0 2.044.981 3.856 2.5 5v4.375c0 .344.281.625.625.625h6.25a.627.627 0 0 0 .625-.625V21.25a6.244 6.244 0 0 0 2.5-5z" fill="#A2DFFF"/><path d="M10.674 36.229H4.39a.625.625 0 0 1-.625-.625v-6.225c0-.345.28-.625.625-.625h6.282c.345 0 .625.28.625.625v6.225c0 .346-.28.625-.624.625z" fill="#A2DFFF"/><path d="M11.25 21.25v4.375a.627.627 0 0 1-.625.625h-6.25a.627.627 0 0 1-.625-.625V21.25a6.245 6.245 0 0 0 7.5 0z" fill="#fff"/><path d="M13.75 16.25a6.244 6.244 0 0 1-2.5 5 6.245 6.245 0 0 1-7.5 0 6.244 6.244 0 0 1-2.5-5C1.25 12.8 4.05 10 7.5 10s6.25 2.8 6.25 6.25z" fill="#A2DFFF"/><path d="M35.329 18.985l-.108-.197 3.324-3.324c.535-.535.83-1.247.83-2.004a2.838 2.838 0 0 0-2.835-2.835 2.84 2.84 0 0 0-.915.162V2.5A1.877 1.877 0 0 0 33.75.625H14.268c-.5 0-.972.195-1.326.55L7.424 6.691a1.863 1.863 0 0 0-.549 1.326v1.389C3.376 9.724.625 12.67.625 16.25v20a3.129 3.129 0 0 0 3.125 3.125h7.5a3.129 3.129 0 0 0 3.125-3.125v-.625h24.488l-1.365-8.19a17.837 17.837 0 0 0-2.17-8.45zm.906 8.042l-6.093 1.662-1.47-1.176a3.112 3.112 0 0 1-1.172-2.44v-5.698c.69 0 1.25.56 1.25 1.25V25H30v-.991l4.296-4.297a16.57 16.57 0 0 1 1.939 7.315zM27.5 18.125c-.69 0-1.25.56-1.25 1.25V20A.626.626 0 0 1 25 20v-.625c0-1.379 1.121-2.5 2.5-2.5h1.616l-1.284 1.284c-.11-.015-.218-.034-.332-.034zm-6.844 10.67l.822-2.058 1.784 1.785-2.058.823c-.264.108-.579-.106-.579-.393 0-.055.01-.107.03-.157zm3.719-.929l-2.241-2.241 3.78-3.78c.116-.017.228-.047.336-.086v3.313c0 .284.032.561.085.834l-1.96 1.96zm-.51-7.241h-6.99v-2.5h7.094a3.734 3.734 0 0 0-.219 1.25V20c0 .22.045.429.115.625zm-6.99 1.25h7.241l-2.5 2.5h-4.741v-2.5zm0 3.75h3.702l-1 2.5h-2.702v-2.5zm0 3.75h2.561a1.672 1.672 0 0 0 2.234 1.13l1.455-.582v1.952h-6.25v-2.5zm7.5.048l.351-.14 2.082-2.082c.022.04.043.082.067.122v4.552h-2.5v-2.452zm3.75-.748l1.25 1v2.2h-1.25v-3.2zm10-15.215c0 .423-.165.821-.464 1.12L30 22.242v-1.616c0-.782-.369-1.474-.934-1.933l6.353-6.353a1.587 1.587 0 0 1 2.706 1.12zm-25-10.701V6.25c0 .344-.28.625-.625.625H9.009l4.116-4.116zM7.5 10.625a5.632 5.632 0 0 1 5.625 5.625A5.632 5.632 0 0 1 7.5 21.875a5.632 5.632 0 0 1-5.625-5.625A5.632 5.632 0 0 1 7.5 10.625zM4.375 22.366c.939.482 2 .759 3.125.759a6.83 6.83 0 0 0 3.125-.759v3.259h-6.25v-3.259zm6.875 15.759h-7.5a1.877 1.877 0 0 1-1.875-1.875V20.19a6.94 6.94 0 0 0 1.25 1.36v4.075c0 .69.56 1.25 1.25 1.25h6.25c.69 0 1.25-.56 1.25-1.25v-4.076a6.94 6.94 0 0 0 1.25-1.358V36.25a1.877 1.877 0 0 1-1.875 1.875zm3.125-3.75V16.25c0-3.58-2.751-6.526-6.25-6.843V8.125H12.5a1.877 1.877 0 0 0 1.875-1.875V1.875H33.75c.344 0 .625.28.625.625v9.116l-4.009 4.009H27.5a3.74 3.74 0 0 0-2.788 1.25h-9.087v16.25h13.75v1.25h-15zm16.25 0v-4.523l5.747-1.567 1.015 6.09h-6.762z" fill="#1977CC"/><path d="M6.875 19.284v1.341h1.25v-1.34a1.78 1.78 0 0 0 1.25-1.694c0-.68-.377-1.291-.986-1.595l-1.219-.61a.534.534 0 0 1 .239-1.012h.182c.295.001.534.24.534.535v.716h1.25v-.716a1.78 1.78 0 0 0-1.25-1.693v-1.341h-1.25v1.34a1.78 1.78 0 0 0-1.25 1.694c0 .68.378 1.291.986 1.595l1.219.61a.534.534 0 0 1-.239 1.012H7.41a.534.534 0 0 1-.534-.535v-.716h-1.25v.716a1.78 1.78 0 0 0 1.25 1.693zm3.75 8.841h-6.25c-.69 0-1.25.56-1.25 1.25v6.25c0 .69.56 1.25 1.25 1.25h6.25c.69 0 1.25-.56 1.25-1.25v-6.25c0-.69-.56-1.25-1.25-1.25zm0 2.5h-1.25v-1.25h1.25v1.25zm-2.5 5h-1.25v-1.25h1.25v1.25zm0-2.5h-1.25v-1.25h1.25v1.25zm-2.5 0h-1.25v-1.25h1.25v1.25zm1.25-2.5v-1.25h1.25v1.25h-1.25zm-1.25-1.25v1.25h-1.25v-1.25h1.25zm-1.25 5h1.25v1.25h-1.25v-1.25zm5 1.25v-3.75h1.25l.001 3.75H9.375zm23.75-32.5h-17.5v3.75h17.5v-3.75zm-1.25 2.5h-15v-1.25h15v1.25zm-16.25 2.5h17.5v1.25h-17.5v-1.25zm0 2.5h17.5v1.25h-17.5v-1.25zm0 2.5h10v1.25h-10v-1.25z" fill="#1977CC"/></svg>