<svg width="40" height="40" viewBox="0 0 40 40" fill="none" xmlns="http://www.w3.org/2000/svg"><path d="M31.905 18.106c0-6.577-5.33-11.908-11.907-11.908S8.09 11.529 8.09 18.106v8.015c0 6.577 5.331 11.908 11.908 11.908 6.576 0 11.907-5.331 11.907-11.908v-8.015z" fill="#fff"/><path d="M38.027 25.021l-2.09 1.493h-2.08v-8.775h2.08l2.09 1.466v5.816zm-36.054 0l2.09 1.493h2.08v-8.775h-2.08l-2.09 1.466v5.816z" fill="#A2DFFF"/><path d="M6.146 17.74a13.856 13.856 0 0 1 23.547-9.613 13.856 13.856 0 0 1 4.156 9.612h2.088a15.942 15.942 0 0 0-31.879 0h2.088z" fill="#A2DFFF"/><path d="M31.906 18.106v3.437a12.06 12.06 0 0 1-1.687.12 11.8 11.8 0 0 1-10.222-5.898 11.794 11.794 0 0 1-10.219 5.897c-.565 0-1.128-.04-1.687-.119v-3.437a11.908 11.908 0 1 1 23.815 0zm-8.562 12.381h-2.167a1.235 1.235 0 1 0 0 2.47h2.167a1.235 1.235 0 0 0 0-2.47z" fill="#A2DFFF"/><path d="M38.341 18.758l-1.865-1.309a16.43 16.43 0 0 0-2.684-8.571.547.547 0 1 0-.915.6 15.335 15.335 0 0 1 2.498 7.715h-1a14.402 14.402 0 0 0-28.755 0h-1A15.397 15.397 0 0 1 28.262 4.922.547.547 0 0 0 28.85 4 16.487 16.487 0 0 0 3.521 17.45L1.66 18.759a.547.547 0 0 0-.233.447v1.94a.547.547 0 0 0 1.094 0v-1.657l1.715-1.203h1.361v7.683H4.238l-1.72-1.227v-1.197a.547.547 0 0 0-1.093 0v1.477a.547.547 0 0 0 .231.445l2.09 1.493a.548.548 0 0 0 .316.103h2.081a.547.547 0 0 0 .547-.547v-8.742l.003-.023a13.308 13.308 0 0 1 26.61 0c0 .021.004.04.007.06v8.704a.547.547 0 0 0 .547.547h.493v.63a3.486 3.486 0 0 1-2.953 3.438 12.382 12.382 0 0 0 1.055-5.01v-8.013a12.455 12.455 0 0 0-24.909 0v8.015a12.45 12.45 0 0 0 23.28 6.148h.043a4.582 4.582 0 0 0 4.578-4.578v-.629h.493a.548.548 0 0 0 .319-.102l2.089-1.493a.547.547 0 0 0 .229-.445v-5.817a.547.547 0 0 0-.233-.447zM19.997 6.745a11.375 11.375 0 0 1 11.361 11.36v2.946c-.379.04-.76.062-1.141.064a11.304 11.304 0 0 1-9.746-5.625.547.547 0 0 0-.947 0 11.303 11.303 0 0 1-9.746 5.625 11.42 11.42 0 0 1-1.142-.064v-2.945A11.375 11.375 0 0 1 19.998 6.745zm0 30.737A11.375 11.375 0 0 1 8.637 26.12v-3.97c.38.034.76.058 1.141.058a12.402 12.402 0 0 0 10.219-5.417 12.403 12.403 0 0 0 10.222 5.417c.38 0 .761-.024 1.14-.059v3.971a11.28 11.28 0 0 1-1.19 5.054h-5.13a1.784 1.784 0 0 0-1.695-1.235h-2.167a1.782 1.782 0 0 0 0 3.563h2.167a1.785 1.785 0 0 0 1.695-1.235h4.505a11.357 11.357 0 0 1-9.546 5.214zm4.032-5.727a.688.688 0 0 1-.685.655h-2.167a.688.688 0 0 1 0-1.375h2.167a.687.687 0 0 1 .684.655l-.003.033c0 .011.003.021.004.032zM37.48 24.74l-1.719 1.228h-1.358v-7.682h1.361l1.715 1.204.001 5.25z" fill="#1977CC"/><path d="M31.415 7.586a.547.547 0 1 0 .812-.734 16.775 16.775 0 0 0-1.1-1.106.547.547 0 0 0-.738.807c.355.326.7.674 1.026 1.033z" fill="#1977CC"/></svg>