<svg width="40" height="40" viewBox="0 0 40 40" fill="none" xmlns="http://www.w3.org/2000/svg"><path d="M36.25 1.875H17.5c-1.035 0-1.875.84-1.875 1.875V32.5c0 1.035.84 1.875 1.875 1.875h18.75c1.035 0 1.875-.84 1.875-1.875V3.75c0-1.036-.84-1.875-1.875-1.875z" fill="#A2DFFF"/><path d="M35.625 8.125l-6.25-6.25H15a1.875 1.875 0 0 0-1.875 1.875V32.5A1.875 1.875 0 0 0 15 34.375h18.75a1.875 1.875 0 0 0 1.875-1.875V8.125z" fill="#fff"/><path d="M22.5 5h5v1.25h-5V5zm0 2.5h5v1.25h-5V7.5zm0 2.5h10.625v1.25H22.5V10zm0 2.5h10.625v1.25H22.5V12.5zM26.25 30h6.875v1.25H26.25V30zm1.25-15H15.625v1.25H27.5v1.25H15.625v1.25H27.5V20H15.625v1.25H27.5v1.25h-1.875v1.25H27.5V25h-1.25v1.25h1.25v1.25h-1.25v1.25h6.875V27.5H28.75v-1.25h4.375V25H28.75v-1.25h4.375V22.5H28.75v-1.25h4.375V20H28.75v-1.25h4.375V17.5H28.75v-1.25h4.375V15H27.5z" fill="#A2DFFF"/><path d="M29.375 1.875V6.25a1.875 1.875 0 0 0 1.875 1.875h4.375l-6.25-6.25z" fill="#5CC1ED"/><path d="M20.625 7.5v-.422A2.081 2.081 0 0 0 18.75 5.01V3.75H17.5v1.26a2.078 2.078 0 0 0-.454 4.04l1.763.587a.828.828 0 0 1-.262 1.613h-.844a.83.83 0 0 1-.828-.828V10h-1.25v.422A2.081 2.081 0 0 0 17.5 12.49v1.26h1.25v-1.26a2.079 2.079 0 0 0 .454-4.04l-1.763-.587a.828.828 0 0 1 .262-1.613h.844a.829.829 0 0 1 .828.828V7.5h1.25z" fill="#FFB431"/><path d="M23.75 24.375H22.5v10h3.125V26.25a1.875 1.875 0 0 0-1.875-1.875z" fill="#4AAEDA"/><path d="M21.875 23.125h-17.5a2.5 2.5 0 0 0-2.5 2.5v10a2.5 2.5 0 0 0 2.5 2.5h17.5a2.5 2.5 0 0 0 2.5-2.5v-10a2.5 2.5 0 0 0-2.5-2.5z" fill="#A2DFFF"/><path d="M8.75 25.625H5a.625.625 0 0 0-.625.625V30c0 .345.28.625.625.625h3.75c.345 0 .625-.28.625-.625v-3.75a.625.625 0 0 0-.625-.625z" fill="#fff"/><path d="M4.375 27.5H6.25v1.25H4.375V27.5zm3.125 0h1.875v1.25H7.5V27.5z" fill="#F88400"/><path d="M20 31.875h-3.125a1.875 1.875 0 0 0 0 3.75H20a1.875 1.875 0 0 0 0-3.75z" fill="#fff"/><path d="M4.375 32.5h1.25v1.25h-1.25V32.5zm2.5 0h1.25v1.25h-1.25V32.5zm2.5 0h1.25v1.25h-1.25V32.5zm2.5 0h1.25v1.25h-1.25V32.5zm-7.5 2.5h2.5v1.25h-2.5V35zm3.75 0h3.75v1.25h-3.75V35zm7.5-9.375h1.25V27.5h-1.25v-1.875zm-2.5 0h1.25V27.5h-1.25v-1.875zm5 0h1.25V27.5h-1.25v-1.875zm2.5 0h1.25V27.5h-1.25v-1.875zM17.5 28.75h4.375V30H17.5v-1.25z" fill="#4DB6E4"/><path d="M36.25 1.25h-4.375V2.5h4.375a1.251 1.251 0 0 1 1.25 1.25V32.5a1.251 1.251 0 0 1-1.25 1.25h-.336c.22-.38.336-.811.336-1.25V8.125a.625.625 0 0 0-.183-.442l-6.25-6.25a.626.626 0 0 0-.442-.183H15a2.503 2.503 0 0 0-2.5 2.5v17.5h1.25V3.75A1.251 1.251 0 0 1 15 2.5h13.75v3.75a2.503 2.503 0 0 0 2.5 2.5H35V32.5a1.251 1.251 0 0 1-1.25 1.25h-7.5V35h10a2.502 2.502 0 0 0 2.5-2.5V3.75a2.503 2.503 0 0 0-2.5-2.5zm-6.25 5V3.384L34.116 7.5H31.25A1.251 1.251 0 0 1 30 6.25z" fill="#1977CC"/><path d="M22.5 5h5v1.25h-5V5zm0 2.5h5v1.25h-5V7.5zm0 2.5h10.625v1.25H22.5V10zm0 2.5h10.625v1.25H22.5V12.5zm3.125 10v1.25H27.5V25h-1.25v1.25h1.25v1.25h-1.25v1.25h6.875V27.5H28.75v-1.25h4.375V25H28.75v-1.25h4.375V22.5H28.75v-1.25h4.375V20H28.75v-1.25h4.375V17.5H28.75v-1.25h4.375V15h-17.5v1.25H27.5v1.25H15.625v1.25H27.5V20H15.625v1.25H27.5v1.25h-1.875zm.625 7.5h6.875v1.25H26.25V30zM15.625 10v.422A2.081 2.081 0 0 0 17.5 12.49v1.26h1.25v-1.26a2.079 2.079 0 0 0 .454-4.04l-1.763-.587a.828.828 0 0 1 .262-1.613h.844a.829.829 0 0 1 .828.828V7.5h1.25v-.422A2.081 2.081 0 0 0 18.75 5.01V3.75H17.5v1.26a2.078 2.078 0 0 0-.454 4.04l1.763.587a.828.828 0 0 1-.262 1.613h-.844a.83.83 0 0 1-.828-.828V10h-1.25z" fill="#1977CC"/><path d="M21.875 22.5h-17.5a3.129 3.129 0 0 0-3.125 3.125v.625H2.5v-.625a1.877 1.877 0 0 1 1.875-1.875h17.5a1.877 1.877 0 0 1 1.875 1.875v10a1.877 1.877 0 0 1-1.875 1.875h-17.5A1.877 1.877 0 0 1 2.5 35.625V27.5H1.25v8.125a3.129 3.129 0 0 0 3.125 3.125h17.5A3.129 3.129 0 0 0 25 35.625v-10a3.129 3.129 0 0 0-3.125-3.125z" fill="#1977CC"/><path d="M8.75 25H5a1.252 1.252 0 0 0-1.25 1.25V30A1.252 1.252 0 0 0 5 31.25h3.75A1.252 1.252 0 0 0 10 30v-3.75A1.252 1.252 0 0 0 8.75 25zm0 5H5v-1.25h1.25V27.5H5v-1.25h3.75v1.25H7.5v1.25h1.25V30zm5.625 3.75a2.502 2.502 0 0 0 2.5 2.5H20a2.5 2.5 0 0 0 0-5h-3.125a2.502 2.502 0 0 0-2.5 2.5zm2.5-1.25H20a1.25 1.25 0 0 1 0 2.5h-3.125a1.25 1.25 0 0 1 0-2.5zm-12.5 0h1.25v1.25h-1.25V32.5zm2.5 0h1.25v1.25h-1.25V32.5zm2.5 0h1.25v1.25h-1.25V32.5zm2.5 0h1.25v1.25h-1.25V32.5zm-7.5 2.5h2.5v1.25h-2.5V35zm3.75 0h3.75v1.25h-3.75V35zm7.5-9.375h1.25V27.5h-1.25v-1.875zm-2.5 0h1.25V27.5h-1.25v-1.875zm5 0h1.25V27.5h-1.25v-1.875zm2.5 0h1.25V27.5h-1.25v-1.875zM17.5 28.75h4.375V30H17.5v-1.25z" fill="#1977CC"/></svg>