<svg width="40" height="40" viewBox="0 0 40 40" fill="none" xmlns="http://www.w3.org/2000/svg"><path d="M30.625 10.625a7.511 7.511 0 0 0-6.412 3.613 7.5 7.5 0 1 0 6.413-3.613zm0 12.5a5 5 0 1 1 5-5 5.007 5.007 0 0 1-5 5zm-1.25 5h-1.25v7.5a2.5 2.5 0 0 0 5 0v-7.5h-3.75zM21.25 1.875v6.25h6.25a6.25 6.25 0 0 0-6.25-6.25z" fill="#A2DFFF"/><path d="M23.931 14.119A6.219 6.219 0 0 0 25 10.625h-6.25v-6.25a6.25 6.25 0 1 0 5.181 9.744zm-5.806 16.506h3.75v5h-3.75v-5z" fill="#A2DFFF"/><path d="M21.25 8.75h6.25a.625.625 0 0 0 .625-.625A6.884 6.884 0 0 0 21.25 1.25a.625.625 0 0 0-.625.625v6.25a.625.625 0 0 0 .625.625zm.625-6.216A5.637 5.637 0 0 1 26.841 7.5h-4.966V2.534zm9.009-.034H35V1.25h-4.375a.625.625 0 0 0-.442.183l-1.875 1.875.884.884L30.884 2.5zm5.366-1.25h2.5V2.5h-2.5V1.25zM10.808 4.192l.884-.884-1.875-1.875a.625.625 0 0 0-.442-.183H5V2.5h4.116l1.692 1.692zM1.25 1.25h2.5V2.5h-2.5V1.25zm30 3.75h5v1.25h-5V5zm6.25 0h1.25v1.25H37.5V5zM1.25 5h7.5v1.25h-7.5V5zm14.741 17.5h-4.116v1.25h4.375a.625.625 0 0 0 .442-.183l1.875-1.875-.884-.884-1.692 1.692zm-7.866 0h2.5v1.25h-2.5V22.5zm0-3.75h7.5V20h-7.5v-1.25z" fill="#1977CC"/><path d="M38.75 18.125a8.117 8.117 0 0 0-13.238-6.306 6.84 6.84 0 0 0 .113-1.194A.624.624 0 0 0 25 10h-5.625V4.375a.625.625 0 0 0-.625-.625 6.881 6.881 0 0 0-6.606 5H8.75a3.125 3.125 0 0 0-3.125 3.125v16.25A3.125 3.125 0 0 0 8.75 31.25h8.75V35h-1.875a1.88 1.88 0 0 0-1.875 1.875v1.25a.624.624 0 0 0 .625.625h11.25a.624.624 0 0 0 .625-.625v-1.25A1.88 1.88 0 0 0 24.375 35H22.5v-3.75h5v4.375a3.125 3.125 0 1 0 6.25 0v-7.5a.624.624 0 0 0-.625-.625H32.5v-1.475a8.14 8.14 0 0 0 6.25-7.9zM18.125 5.037v5.588a.624.624 0 0 0 .625.625h5.587a5.625 5.625 0 1 1-6.212-6.213zm6.25 31.213a.624.624 0 0 1 .625.625v.625H15v-.625a.624.624 0 0 1 .625-.625h8.75zM18.75 35v-3.75h2.5V35h-2.5zm9.375-7.5a.624.624 0 0 0-.625.625V30H8.75a1.88 1.88 0 0 1-1.875-1.875V27.5H26.25v-1.25H6.875V11.875A1.88 1.88 0 0 1 8.75 10h3.156a6.868 6.868 0 0 0 10.831 6.219 8.001 8.001 0 0 0-.237 1.906 8.14 8.14 0 0 0 6.25 7.9V27.5h-.625zm4.375 8.125a1.875 1.875 0 1 1-3.75 0V28.75h3.75v6.875zM30 27.5v-1.281c.206.012.413.031.625.031.212 0 .419-.019.625-.031V27.5H30zm.625-2.5a6.875 6.875 0 1 1 0-13.75 6.875 6.875 0 0 1 0 13.75z" fill="#1977CC"/><path d="M30.625 12.5a5.625 5.625 0 1 0 5.625 5.625 5.632 5.632 0 0 0-5.625-5.625zm0 10a4.375 4.375 0 1 1 0-8.75 4.375 4.375 0 0 1 0 8.75z" fill="#1977CC"/><path d="M27.5 18.125h1.25a1.875 1.875 0 0 1 1.875-1.875V15a3.129 3.129 0 0 0-3.125 3.125zM30 30h1.25v1.25H30V30zm0 2.5h1.25v3.75H30V32.5z" fill="#1977CC"/></svg>