<svg width="40" height="40" viewBox="0 0 40 40" fill="none" xmlns="http://www.w3.org/2000/svg"><path d="M23.75 17.5H5A2.5 2.5 0 0 0 2.5 20v16.25a2.5 2.5 0 0 0 2.5 2.5h18.75a2.5 2.5 0 0 0 2.5-2.5V20a2.5 2.5 0 0 0-2.5-2.5z" fill="#A2DFFF"/><path d="M38.125 24.375l-2.069-.462A8.475 8.475 0 0 1 30.625 20a8.475 8.475 0 0 1-5.431 3.913l-2.069.462a17.5 17.5 0 0 0 7 14l.5.375.5-.375a17.5 17.5 0 0 0 7-14z" fill="#A2DFFF"/><path d="M27.413 35.844c5-1.35 8.837-5.913 9.837-11.663l-1.194-.268A8.475 8.475 0 0 1 30.625 20a8.475 8.475 0 0 1-5.431 3.913l-2.069.462a17.5 17.5 0 0 0 4.288 11.469z" fill="#A2DFFF"/><path d="M5 17.5h3.125v-6.25a6.25 6.25 0 0 1 12.5 0v6.25h3.125c.211.003.421.033.625.087V11.25a10 10 0 0 0-20 0v6.337c.204-.054.414-.084.625-.087zm-3.75 5h7.5v11.25h-7.5V22.5zm14.375 6.594V23.75a1.25 1.25 0 0 0-2.5 0v5.344a2.5 2.5 0 1 0 2.5 0z" fill="#fff"/><path d="M30.625 33.125a3.75 3.75 0 1 0 0-7.5 3.75 3.75 0 0 0 0 7.5z" fill="#EBF7FE"/><path d="M16.25 28.75v-5a1.875 1.875 0 1 0-3.75 0v5a3.126 3.126 0 0 0 1.131 5.525c.244.061.493.095.744.1a3.125 3.125 0 0 0 1.875-5.625zm-.713 3.956a1.876 1.876 0 1 1-2.1-3.081.626.626 0 0 0 .313-.544V23.75a.625.625 0 0 1 1.25 0v5.344a.626.626 0 0 0 .312.543 1.875 1.875 0 0 1 .225 3.082v-.013z" fill="#1977CC"/><path d="M38.263 23.75l-2.07-.456a7.894 7.894 0 0 1-5-3.625.624.624 0 0 0-1.074 0 7.843 7.843 0 0 1-3.244 2.975V20A3.125 3.125 0 0 0 25 17.137V11.25a10.625 10.625 0 1 0-21.25 0v5.887A3.125 3.125 0 0 0 1.875 20v1.875H1.25a.625.625 0 0 0-.625.625v11.25a.625.625 0 0 0 .625.625h.625v1.875A3.125 3.125 0 0 0 5 39.375h18.75a3.125 3.125 0 0 0 3.125-3.125v-.081a18.173 18.173 0 0 0 2.875 2.706l.5.375a.625.625 0 0 0 .75 0l.5-.375a18.22 18.22 0 0 0 7.25-14.5.625.625 0 0 0-.487-.625zM5 11.25a9.375 9.375 0 0 1 18.75 0v5.625h-2.5V11.25a6.875 6.875 0 1 0-13.75 0v5.625H5V11.25zm15 5.625H8.75V11.25a5.625 5.625 0 0 1 11.25 0v5.625zm-11.875 6.25v2.5h-6.25v-2.5h6.25zm-6.25 10v-2.5h6.25v2.5h-6.25zm6.25-3.75h-6.25v-2.5h6.25v2.5zm17.5 6.875a1.875 1.875 0 0 1-1.875 1.875H5a1.875 1.875 0 0 1-1.875-1.875v-1.875H8.75a.625.625 0 0 0 .625-.625V22.5a.625.625 0 0 0-.625-.625H3.125V20A1.875 1.875 0 0 1 5 18.125h18.75A1.875 1.875 0 0 1 25.625 20v3.125c-.188.056-.375.113-.569.156l-2.069.469a.625.625 0 0 0-.487.625 18.212 18.212 0 0 0 3.125 10.15v1.725zm5.125 1.625l-.125.094-.125-.094a16.968 16.968 0 0 1-6.75-13l1.569-.35a9.144 9.144 0 0 0 5.306-3.406 9.144 9.144 0 0 0 5.3 3.406l1.575.35a16.969 16.969 0 0 1-6.75 13z" fill="#1977CC"/><path d="M34.306 25.281l-1.112-.562-.425.844a4.431 4.431 0 1 0 .981.787l.556-1.069zm-.556 4.094a3.156 3.156 0 1 1-1.544-2.681l-1.687 3.375-1.25-1.694-1 .75 1.875 2.5a.626.626 0 0 0 .5.25h.056a.625.625 0 0 0 .5-.344l1.981-3.962c.375.527.574 1.16.569 1.806z" fill="#1977CC"/></svg>