<svg width="69" height="64" viewBox="0 0 69 64" fill="none" xmlns="http://www.w3.org/2000/svg"><path d="M10.539 1H42.73a2.392 2.392 0 0 1 2.384 2.385v57.23A2.392 2.392 0 0 1 42.731 63H3.385A2.392 2.392 0 0 1 1 60.615V10.538L10.539 1z" fill="#fff"/><path d="M10.539 1h1.192v10.73H1v-1.19L10.539 1z" fill="#A2DFFF"/><path d="M45.115 26.038V3.386A2.392 2.392 0 0 0 42.731 1H10.538L1 10.539v50.076A2.392 2.392 0 0 0 3.385 63H42.73a2.392 2.392 0 0 0 2.384-2.385v-3.577" stroke="#1977CC" stroke-width="2" stroke-miterlimit="10" stroke-linejoin="round"/><path d="M4.577 11.73h7.154V4.578" stroke="#1977CC" stroke-width="2" stroke-miterlimit="10" stroke-linejoin="round"/><path d="M10.539 28.423a3.577 3.577 0 1 0 0-7.154 3.577 3.577 0 0 0 0 7.154zm11.923 9.539a3.572 3.572 0 0 1-3.577-3.578 3.572 3.572 0 0 1 3.577-3.576 3.572 3.572 0 0 1 3.576 3.577 3.572 3.572 0 0 1-3.576 3.577zm-13.116 0l14.308-16.693" stroke="#1977CC" stroke-width="2" stroke-miterlimit="10" stroke-linecap="round"/><path d="M65.385 53.462h-31A2.392 2.392 0 0 1 32 51.077V32a2.392 2.392 0 0 1 2.385-2.384h31A2.392 2.392 0 0 1 67.769 32v19.077a2.392 2.392 0 0 1-2.384 2.385z" fill="#A2DFFF" stroke="#1977CC" stroke-width="2" stroke-miterlimit="10" stroke-linecap="round"/><path d="M32 46.308h35.77" stroke="#1977CC" stroke-width="2" stroke-miterlimit="10" stroke-linecap="round"/></svg>