<svg width="62" height="62" viewBox="0 0 62 62" fill="none" xmlns="http://www.w3.org/2000/svg"><g clip-path="url(#a)"><path d="M4.057 50.436v3.27l-1.575 2.24-1.271 2.542.121 2.362h31.545v-1.817l-2.725-3.088v-5.51l-1.574-1.816H6.358l-2.301 1.817z" fill="#A2DFFF" stroke="#000"/><path d="M12.654 38.145L1.634 27.549 1.03 25.49l.606-2.966 2.543-1.15h3.209L21.676 6.841V4.057l2.3-2.18L25.37.727l2.18 1.15 10.777 10.596.848 2.543-.848 2.421-1.937 1.15h-2.18l-2.785 2.786 1.635 1.15v5.026l27.73 24.098v4.238l-1.937 4.117-3.451.969-3.815-.969L27.55 32.877l-2.18 1.15h-2.24l-1.453-2.3-2.906 2.3-1.03 2.18v1.938l-2.3 1.15-2.786-1.15z" fill="#fff" stroke="#000"/><path d="M14.262 21.112a1.212 1.212 0 1 0-1.712 1.715 1.212 1.212 0 0 0 1.712-1.715zM30.66 54.216a4.206 4.206 0 0 0 .823-2.51 4.243 4.243 0 0 0-4.238-4.239H6.66a4.21 4.21 0 0 0-2.997 1.241 4.21 4.21 0 0 0-1.241 2.998c0 .938.307 1.806.825 2.508A6.06 6.06 0 0 0 0 59.577v1.211a1.21 1.21 0 0 0 1.21 1.211h31.484a1.21 1.21 0 0 0 1.211-1.21v-1.212a6.06 6.06 0 0 0-3.244-5.36zM5.376 50.421c.343-.343.8-.532 1.285-.532h20.585a1.818 1.818 0 0 1 1.285 3.1c-.343.344-.8.533-1.285.533H6.66a1.818 1.818 0 0 1-1.285-3.101zm-2.953 9.155a3.637 3.637 0 0 1 3.632-3.633h21.796a3.637 3.637 0 0 1 3.632 3.633H2.422z" fill="#1977CC"/><path d="M60.873 50.875a7.624 7.624 0 0 0-1.459-1.675l-5.658-4.935a1.214 1.214 0 0 0-.481-.42l-3.422-2.985-15.838-13.816a3.603 3.603 0 0 0 1.005-2.506 3.61 3.61 0 0 0-2.069-3.277l1.466-1.465c.41.108.83.164 1.251.164 1.24 0 2.48-.472 3.425-1.416a4.812 4.812 0 0 0 1.419-3.425c0-1.294-.504-2.51-1.42-3.425L28.819 1.419A4.813 4.813 0 0 0 25.392 0a4.845 4.845 0 0 0-4.676 6.095L6.097 20.715a4.874 4.874 0 0 0-1.253-.165c-1.295 0-2.51.504-3.425 1.418a4.85 4.85 0 0 0 0 6.85l10.274 10.275a4.829 4.829 0 0 0 3.426 1.416 4.83 4.83 0 0 0 3.425-1.416 4.845 4.845 0 0 0 1.252-4.676l1.462-1.462c.175.367.414.705.71 1.001a3.61 3.61 0 0 0 2.569 1.064c.942 0 1.828-.356 2.506-1.004l16.87 19.382a1.223 1.223 0 0 0 .231.266l5.027 5.776c.125.147.258.292.397.43A7.202 7.202 0 0 0 54.687 62c.337 0 .678-.023 1.019-.07 2.28-.316 4.25-1.68 5.406-3.743 1.266-2.262 1.172-5.132-.239-7.312zM23.681 3.132a2.406 2.406 0 0 1 1.712-.71c.647 0 1.255.252 1.713.71L37.38 13.406c.458.458.71 1.066.71 1.713s-.252 1.255-.71 1.713a2.424 2.424 0 0 1-3.424 0L23.681 6.557v-.001a2.424 2.424 0 0 1 0-3.424zM16.83 37.38a2.425 2.425 0 0 1-3.425 0L3.132 27.106a2.425 2.425 0 0 1 0-3.425 2.405 2.405 0 0 1 1.712-.709c.647 0 1.254.252 1.711.708l10.276 10.276c.945.944.945 2.48 0 3.424zm5.099-8.522l-3.386 3.386L8.268 21.968l13.7-13.7 10.275 10.276-3.392 3.392-.033.032-6.847 6.847-.041.043zm4.323 2.526l-.007.007-.852.853a1.203 1.203 0 0 1-.857.355c-.324 0-.628-.126-.857-.355a1.204 1.204 0 0 1-.355-.857c0-.317.121-.616.34-.84l6.88-6.879a1.215 1.215 0 0 1 1.699.013c.228.229.355.533.355.857a1.2 1.2 0 0 1-.355.856l-.848.848a1.41 1.41 0 0 0-.018.017l-5.125 5.125zm2.508.917l3.54-3.539 14.983 13.07-5.467 5.468L28.76 32.301zm14.65 16.83l5.703-5.703 1.83 1.596-5.94 5.939-1.594-1.831zm15.588 7.873c-.782 1.395-2.103 2.316-3.625 2.527a4.811 4.811 0 0 1-4.37-1.675l-4.406-5.062 6.174-6.175 5.056 4.41.012.01c.378.322.714.709.999 1.15.916 1.415.98 3.35.16 4.815z" fill="#1977CC"/><path d="M22.824 12.55a1.211 1.211 0 0 0-1.712 0l-5.138 5.137a1.21 1.21 0 1 0 1.712 1.713l5.138-5.138a1.21 1.21 0 0 0 0-1.712z" fill="#1977CC"/></g><defs><clipPath id="a"><path fill="#fff" d="M0 0h62v62H0z"/></clipPath></defs></svg>