<svg width="77" height="62" viewBox="0 0 77 62" fill="none" xmlns="http://www.w3.org/2000/svg"><path d="M37.094 12.087L9.17 32.927v22.506L5.835 57.1v3.334h65.02V57.1l-3.335-1.667V32.926l-30.426-20.84z" fill="#fff"/><path d="M17.505 40.845v15.422l14.171.416V40.845l-1.667-1.667H19.172l-1.667 1.667zm24.174-3.334h17.505v14.171H41.679z" fill="#A2DFFF"/><path d="M15.004 1.25l.417 17.089 8.336-6.669-.417-8.753-.833-2.084h-3.752l-3.75.417zM1.667 35.427H7.92l1.25-2.917 28.759-20.423 30.009 21.256v2.084h8.335l-1.25-6.252L40.43 4.585l-3.752-1.25-35.01 26.674v5.418z" fill="#E0F4FC"/><path d="M75.612 28.66L40.274 3.047A4.501 4.501 0 0 0 34.9 3.1l-10.371 7.83V3.1a3.104 3.104 0 0 0-3.1-3.1h-4.34a3.104 3.104 0 0 0-3.101 3.1v15.791L1.036 28.665A2.619 2.619 0 0 0 0 30.75v5.252a.834.834 0 0 0 .834.833H7.86v19.173H6.819a2.236 2.236 0 0 0-2.234 2.233v2.093h-2.06a.834.834 0 0 0 0 1.667h71.83a.833.833 0 1 0 0-1.667h-2.25V58.24a2.237 2.237 0 0 0-2.234-2.233h-1.042V36.834h7.027a.834.834 0 0 0 .833-.833V30.77a2.614 2.614 0 0 0-1.077-2.11zM15.653 17.63V3.101a1.435 1.435 0 0 1 1.434-1.434h4.342a1.435 1.435 0 0 1 1.433 1.434v9.086L20.95 13.63l-5.297 4.001zm54.785 40.61v2.092H6.251V58.24a.568.568 0 0 1 .567-.566H69.87a.567.567 0 0 1 .567.566zM30.6 56.006H18.597V41.252a1.21 1.21 0 0 1 1.209-1.209H29.4a1.205 1.205 0 0 1 1.2 1.21v14.754zm1.667 0V41.252a2.875 2.875 0 0 0-2.868-2.876h-9.594a2.878 2.878 0 0 0-2.876 2.876v14.755H9.528V33.49C37.685 12.459 36.506 12.567 37.9 12.67c.365.025.717.152 1.014.365L67.162 33.5v22.507H32.268zm42.754-20.84H68.83v-2.092a.833.833 0 0 0-.345-.675L39.892 11.685a3.606 3.606 0 0 0-4.3.035l-27.4 20.69a.833.833 0 0 0-.333.666v2.091H1.667V30.75a.944.944 0 0 1 .374-.75l17.611-13.297 4.545-3.431 11.705-8.836a2.846 2.846 0 0 1 3.394-.033L74.634 30.01a.942.942 0 0 1 .388.76v4.398zm-34.297-12.17H36.16a.833.833 0 1 1 0-1.667h4.564a.834.834 0 0 1 0 1.667zm-5.959 8.836a.834.834 0 0 1-.834.833H23.82a.834.834 0 0 1 0-1.667h10.113a.834.834 0 0 1 .834.834zm14.542-2.651h3.683a.834.834 0 0 1 0 1.667h-3.683a.833.833 0 1 1 0-1.667zm4.001 13.431a.834.834 0 0 1-.053 1.178c-3.142 2.784-3.98 4.142-4.794 3.251a.833.833 0 0 1 .052-1.178c2.822-2.261 3.82-4.31 4.79-3.25h.005zM28.433 53.94a.838.838 0 0 1-1.425-.583.827.827 0 0 1 .675-.817.846.846 0 0 1 .75 1.4zm30.768-17.463H42.729a1.61 1.61 0 0 0-1.608 1.609V51.08a1.61 1.61 0 0 0 1.608 1.609h16.472a1.61 1.61 0 0 0 1.609-1.609V38.085a1.61 1.61 0 0 0-1.61-1.61zM42.788 51.08l-.059-12.937h16.414l.058 12.879-16.413.058z" fill="#1977CC"/></svg>