<svg width="65" height="62" viewBox="0 0 65 62" fill="none" xmlns="http://www.w3.org/2000/svg"><path d="M5.88 41.691L31 37.415h3.742l.534-2.672h5.88l5.88-3.207 1.603-2.138 1.603 1.069 2.673 2.138 4.81.534v-2.138l-7.483-1.069-1.069-1.069v-9.086h-8.552V9.62l-5.88.535V4.81h16.57l1.07-1.604-2.139-2.138L33.14.535l-3.207 2.138-.534 6.948-6.949.535 1.07 9.62h-1.07l-7.483 1.07V31l-8.552.535L5.88 41.69z" fill="#fff"/><path d="M31.536 37.415l-27.26 5.88L8.018 53.45h37.949l8.018-3.207-22.45-12.828z" fill="#E0F4FC"/><path d="M47.036 31.001l1.604-2.138 2.672 2.138 3.742 2.138 4.276 1.07 3.741.534v11.759l-1.603 5.88-2.138 3.207-3.207 3.206-2.673 1.07-2.138 1.069H48.64l-2.138-1.07-3.207-1.069-3.207-1.603-5.345-8.552V34.743h2.138l6.414-1.07 3.741-2.672z" fill="#A2DFFF"/><path d="M47.904 35.705l1.089-1.497 1.815 1.497L53.35 37.2l2.904.748 2.541.375v8.231l-1.089 4.116-1.452 2.245-2.178 2.245-1.816.748-1.452.748h-1.815l-1.452-.748-2.179-.748-2.178-1.123-3.63-5.986v-9.728h1.452l4.356-.749 2.542-1.87z" fill="#fff"/><path d="M62.908 33.147l-.264.032c-.586.07-1.176.106-1.767.107a14.21 14.21 0 0 1-2.116-.175v-2.11a1.069 1.069 0 0 0-1.07-1.069h-5.957a14.301 14.301 0 0 1-1.525-1.488v-8.133a1.069 1.069 0 0 0-1.07-1.069h-7.482v-9.62a1.069 1.069 0 0 0-1.07-1.07h-5.345V6.161l13.898-.662v3.053a1.07 1.07 0 0 0 1.069 1.07 1.069 1.069 0 1 1-1.07 1.068h-2.137a3.206 3.206 0 1 0 4.276-3.024V5.397l1.119-.052a1.069 1.069 0 0 0 1.019-1.069V3.207A3.207 3.207 0 0 0 50.209 0H32.035a3.207 3.207 0 0 0-3.206 3.207v5.345h-5.346a1.069 1.069 0 0 0-1.069 1.07v9.62h-7.483a1.069 1.069 0 0 0-1.069 1.07v9.62H6.38a1.069 1.069 0 0 0-1.069 1.07v10.464l-1.27.245a1.07 1.07 0 0 0-.82 1.37l4.634 14.817a4.81 4.81 0 0 0-1.742.79l-.867.642a3.223 3.223 0 0 1-3.572 0 1.069 1.069 0 0 0-1.28 1.71 5.37 5.37 0 0 0 6.125 0l.866-.641a3.222 3.222 0 0 1 3.575 0l.865.641a5.37 5.37 0 0 0 6.124 0l.867-.641a3.221 3.221 0 0 1 3.574 0l.865.641a5.37 5.37 0 0 0 6.125 0l.867-.641a3.221 3.221 0 0 1 3.574 0l.864.641a5.37 5.37 0 0 0 6.126 0l.866-.641a3.222 3.222 0 0 1 3.575 0l.864.641a5.372 5.372 0 0 0 6.125 0l.867-.641a3.222 3.222 0 0 1 3.575 0l.863.641a5.369 5.369 0 0 0 6.127 0 1.069 1.069 0 1 0-1.277-1.71 3.221 3.221 0 0 1-3.573 0l-.865-.642c-.107-.08-.232-.14-.349-.213a16.036 16.036 0 0 0 6.498-12.871V34.208a1.069 1.069 0 0 0-1.198-1.061zm-6.285-1.077v.554a14.4 14.4 0 0 1-1.477-.554h1.477zm-8.552-3.634a14.114 14.114 0 0 1-1.533 1.496H35.243V21.38H48.07v7.056zM28.829 32.07v4.873l-4.277.822V32.07h4.276zm6.542 1.077a1.042 1.042 0 0 0-.129.011V32.07h4.277v1.048c-1.285.196-2.59.217-3.88.06l-.268-.031zm6.286-1.077h1.46c-.476.209-.964.39-1.46.545v-.545zm-2.138-21.38v8.552h-4.276V10.69h4.276zm-6.414 25.656h-2.138V6.365l2.138-.107v30.088zM30.967 3.207a1.069 1.069 0 0 1 1.069-1.069h18.173a1.069 1.069 0 0 1 1.069 1.069L30.967 4.224V3.207zm-6.415 7.483h4.276v8.552h-4.276V10.69zM16 21.38h12.828v8.552H16V21.38zM7.448 40.622V32.07h14.966v6.106l-12.72 2.446H7.447zm24.587-2.117l2.139.412v6.687c.008 2.344.53 4.657 1.53 6.777H8.37l-2.75-8.797 26.416-5.08zm7.503 20.825a3.222 3.222 0 0 1-3.575 0l-.865-.642a5.368 5.368 0 0 0-6.124 0l-.867.642a3.222 3.222 0 0 1-3.575 0l-.864-.642a5.37 5.37 0 0 0-6.125 0l-.867.642a3.22 3.22 0 0 1-3.574 0l-.864-.642a4.938 4.938 0 0 0-2.174-.884L9.038 54.52H36.89a16.05 16.05 0 0 0 3.814 3.982c-.1.062-.206.114-.3.183l-.866.646zm22.43-13.726a13.916 13.916 0 0 1-5.987 11.438l-.997.693a5.158 5.158 0 0 0-3.15.951l-.866.642a3.22 3.22 0 0 1-3.574 0l-.865-.642a5.184 5.184 0 0 0-3.218-.948l-1.013-.698a13.912 13.912 0 0 1-5.986-11.436V35.39a16.258 16.258 0 0 0 12.828-4.93 16.316 16.316 0 0 0 12.828 4.927v10.216z" fill="#1977CC"/><path d="M58.875 37.46a18.421 18.421 0 0 1-9.094-3.589 1.069 1.069 0 0 0-1.283 0 18.421 18.421 0 0 1-9.093 3.588 1.069 1.069 0 0 0-.955 1.063v7.086a11.759 11.759 0 0 0 5.067 9.67l5.015 3.471a1.07 1.07 0 0 0 1.217 0l5.017-3.472a11.758 11.758 0 0 0 5.064-9.669v-7.086a1.069 1.069 0 0 0-.955-1.063zm-1.184 8.148a9.621 9.621 0 0 1-4.144 7.91l-4.408 3.053-4.406-3.052a9.62 9.62 0 0 1-4.146-7.91v-6.15a20.56 20.56 0 0 0 8.552-3.414 20.56 20.56 0 0 0 8.552 3.414v6.15z" fill="#1977CC"/><path d="M44.436 47.25l-1.283 1.71 4.276 3.207a1.07 1.07 0 0 0 1.486-.198l7.483-9.621-1.689-1.313-6.841 8.791-3.432-2.576z" fill="#1977CC"/></svg>