<svg width="64" height="62" viewBox="0 0 64 62" fill="none" xmlns="http://www.w3.org/2000/svg"><path d="M9.79 9.79c2.175-4.35 11.42-7.251 15.772-8.158 1.087-.362 4.677-.87 10.333 0 7.07 1.088 13.052 9.79 16.316 12.51 2.61 2.175 3.625 9.97 3.806 13.596l-1.631-.544-5.439-1.632-4.894 1.632h-3.807l-4.351-1.088L31 27.194h-3.807l-7.07-1.088-4.895 1.088h-2.175l-5.439-1.632c-1.813.363-5.547.653-5.982-1.088C1.088 22.3 7.07 15.23 9.79 9.79z" fill="#A2DFFF"/><path d="M28.825 0c15.53 0 28.726 13.372 28.824 28.912a1.382 1.382 0 0 1-.932 1.312 1.368 1.368 0 0 1-1.534-.473c-.874-1.171-3.391-2.884-5.77-2.884-2.45 0-4.918 1.691-5.747 2.863a1.374 1.374 0 0 1-1.12.564 1.368 1.368 0 0 1-1.11-.586c-.824-1.172-3.285-2.841-5.748-2.841-2.151 0-4.443 1.449-5.49 2.583v24.972c0 3.034 1.777 4.822 4.803 4.822s4.804-1.788 4.804-4.822a1.385 1.385 0 0 1 .395-.987 1.373 1.373 0 0 1 1.508-.303 1.373 1.373 0 0 1 .843 1.29c0 4.3-3.26 7.578-7.55 7.578-4.288 0-7.549-3.278-7.549-7.578V29.45c-1.048-1.134-3.34-2.583-5.49-2.583-2.464 0-4.925 1.669-5.748 2.841a1.374 1.374 0 0 1-1.11.586 1.37 1.37 0 0 1-1.12-.564c-.83-1.172-3.298-2.863-5.748-2.863-2.379 0-4.896 1.713-5.77 2.884a1.373 1.373 0 0 1-1.534.473A1.373 1.373 0 0 1 0 28.912C.098 13.372 13.293 0 28.825 0zm5.383 3.38c5.099 5.17 8.405 13.267 9.544 22.54 1.518-1.054 3.468-1.809 5.661-1.809 1.943 0 3.683.628 5.126 1.507-1.534-10.73-9.901-19.844-20.331-22.238zm-10.767 0C13.011 5.774 4.644 14.888 3.11 25.618c1.443-.879 3.183-1.507 5.126-1.507 2.194 0 4.143.755 5.662 1.808 1.138-9.272 4.445-17.37 9.543-22.54zm6.756.15v22.303c1.494-1.005 3.385-1.722 5.49-1.722 2.009 0 3.801.638 5.255 1.55-1.331-9.797-5.3-17.928-10.745-22.13zm-2.745 0c-5.444 4.203-9.414 12.334-10.745 22.131 1.454-.912 3.246-1.55 5.255-1.55 2.105 0 3.997.717 5.49 1.722V3.531z" fill="#1977CC"/><g clip-path="url(#a)"><path d="M48.416 32.029l-3.773 3.71v20.406h17.454V32.029h-13.68z" fill="#fff"/><path d="M44.642 36.203h4.246v-4.174h-.472l-3.773 3.71v.464z" fill="#A2DFFF"/><path d="M62.097 50.58V32.029h-13.68l-3.775 3.71v20.406h17.455v-5.566z" stroke="#1977CC" stroke-width="2" stroke-miterlimit="10" stroke-linecap="round" stroke-linejoin="round"/><path d="M46.53 36.203h2.358v-2.32m7.548 19.015H52.19" stroke="#1977CC" stroke-width="2" stroke-miterlimit="10" stroke-linecap="round" stroke-linejoin="round"/><path d="M56.436 45.878c0 .557-.214 1.031-.641 1.422-.428.383-1.054.597-1.88.64v1.248h-.543v-1.237a5.114 5.114 0 0 1-1.5-.304c-.463-.18-.829-.409-1.097-.684l.315-.618c.254.246.583.452.989.618.413.167.844.264 1.293.294v-2.855a8.928 8.928 0 0 1-1.25-.39 2.238 2.238 0 0 1-.836-.62c-.218-.275-.326-.636-.326-1.085 0-.557.203-1.024.608-1.4.406-.384 1.007-.608 1.804-.673v-1.248h.543v1.237a4.4 4.4 0 0 1 1.195.206c.392.116.728.272 1.01.467l-.27.64a4.178 4.178 0 0 0-.946-.445 3.719 3.719 0 0 0-.989-.184v2.876c.536.13.974.264 1.315.402.34.13.626.333.858.608.232.275.348.636.348 1.085zm-4.683-3.593c0 .377.138.662.413.858.282.195.684.361 1.206.499v-2.714c-.536.044-.942.192-1.217.446-.268.245-.402.55-.402.911zm2.162 4.972c.572-.044 1.003-.185 1.293-.424a1.13 1.13 0 0 0 .435-.912c0-.39-.149-.683-.446-.879-.297-.195-.724-.362-1.282-.5v2.715z" fill="#1977CC"/></g><defs><clipPath id="a"><path fill="#fff" transform="translate(44.17 27.855)" d="M0 0h18.87v28.754H0z"/></clipPath></defs></svg>