<svg width="70" height="62" viewBox="0 0 70 62" fill="none" xmlns="http://www.w3.org/2000/svg"><path d="M1.73 50.682l-.668 9.026 8.985 1.227 3.286-2.662 5.254.55.55-5.253.067-.054 5.254.55.55-5.253.066-.054 5.254.548.55-5.252 16.1-13.046-8.317-10.254L1.73 50.682z" fill="#fff"/><path d="M39.486 20.086a1.063 1.063 0 0 0-1.494-.156L1.062 49.858a1.06 1.06 0 0 0-.39.747l-.67 9.025c-.042.56.36 1.056.916 1.132l8.985 1.227a1.066 1.066 0 0 0 .813-.227l2.944-2.385 4.816.503a1.06 1.06 0 0 0 1.167-.946l.446-4.255 4.258.444a1.06 1.06 0 0 0 1.167-.946l.445-4.256 4.258.445a1.059 1.059 0 0 0 1.167-.947l.503-4.815 15.758-12.769a1.062 1.062 0 0 0 .155-1.494l-8.315-10.256zM30.21 43.23a1.062 1.062 0 0 0-.388.714l-.439 4.195-4.197-.438a1.064 1.064 0 0 0-.782.233l-.066.055a1.064 1.064 0 0 0-.386.713l-.439 4.196-4.197-.439a1.06 1.06 0 0 0-.779.231l-.066.054c-.22.177-.36.435-.39.715l-.438 4.196-4.197-.438a1.06 1.06 0 0 0-.78.232l-2.928 2.373-7.54-1.03.562-7.573 35.747-28.97 6.978 8.604L30.21 43.23z" fill="#1977CC"/><path d="M34.332 29.22L4.03 53.776a.912.912 0 0 0-.335.64l-.266 3.595a.91.91 0 1 0 1.817.133l.237-3.203L35.48 30.633a.91.91 0 1 0-1.147-1.413z" fill="#E0F4FC"/><path d="M38.044 5.156c-7.887 6.39-9.097 17.963-2.703 25.847 6.394 7.883 17.972 9.092 25.859 2.7 7.886-6.39 9.096-17.964 2.703-25.846-6.396-7.883-17.973-9.092-25.86-2.701zm17.702 10.297a4.399 4.399 0 0 1-6.186-.646 4.395 4.395 0 0 1 .647-6.185 4.397 4.397 0 1 1 5.539 6.83z" fill="#fff"/><path d="M37.372 4.33a19.304 19.304 0 0 0-7.094 13.08 19.307 19.307 0 0 0 4.236 14.262A19.323 19.323 0 0 0 47.6 38.763c.688.072 1.375.108 2.058.108a19.31 19.31 0 0 0 12.21-4.342c8.33-6.75 9.613-19.015 2.86-27.34C57.973-1.138 45.702-2.42 37.372 4.33zM60.53 32.879a17.214 17.214 0 0 1-12.71 3.772 17.213 17.213 0 0 1-11.654-6.316 17.197 17.197 0 0 1-3.773-12.704A17.2 17.2 0 0 1 38.711 5.98C46.13-.03 57.06 1.111 63.075 8.526c6.016 7.416 4.873 18.34-2.547 24.352z" fill="#1977CC"/><path d="M49.536 7.798a5.423 5.423 0 0 0-1.992 3.672 5.422 5.422 0 0 0 1.19 4.005 5.427 5.427 0 0 0 3.673 1.992 5.418 5.418 0 0 0 4.007-1.189 5.423 5.423 0 0 0 1.993-3.674 5.418 5.418 0 0 0-1.19-4.005 5.47 5.47 0 0 0-7.68-.801zm6.757 4.587a3.311 3.311 0 0 1-1.217 2.242 3.312 3.312 0 0 1-2.447.726 3.318 3.318 0 0 1-2.244-1.216 3.315 3.315 0 0 1-.727-2.446 3.307 3.307 0 0 1 1.217-2.243 3.32 3.32 0 0 1 2.097-.743 3.33 3.33 0 0 1 3.321 3.68zm1.664 17.321a13.156 13.156 0 0 1-9.712 2.883 13.152 13.152 0 0 1-8.905-4.826 1.063 1.063 0 0 0-1.652 1.338 15.267 15.267 0 0 0 10.336 5.602c.544.057 1.087.085 1.626.085 3.508 0 6.884-1.19 9.647-3.429a1.063 1.063 0 1 0-1.34-1.653z" fill="#1977CC"/></svg>