<svg width="62" height="62" viewBox="0 0 62 62" fill="none" xmlns="http://www.w3.org/2000/svg"><g clip-path="url(#a)"><circle cx="31" cy="30.516" r="30.516" fill="#fff"/><path d="M46.944 56.19a1.211 1.211 0 0 0-1.655-.44l-.047.027a1.211 1.211 0 0 0 1.215 2.094l.047-.026a1.211 1.211 0 0 0 .44-1.655zm2.707-14.5l-.583-2.196a1.21 1.21 0 0 0-2.234-.267c-.133.245-.253.504-.368.755-.194.421-.395.857-.605 1.098-.117.135-.419.28-.71.421-.698.337-1.652.797-2.017 1.96-.227.721-.142 1.292-.08 1.708.053.362.066.487-.031.714l-.012.028c-.386.905-1.103 2.588-.097 4.02.717 1.022 1.472 1.284 2.058 1.284.114 0 .222-.01.323-.026 1.235-.202 2.163-1.486 2.922-4.044l1.424-4.8a1.21 1.21 0 0 0 .01-.655zm-3.755 4.767c-.387 1.303-.73 1.912-.927 2.182a2.297 2.297 0 0 1-.074-.1c-.231-.33.115-1.141.344-1.679l.012-.028c.369-.866.27-1.532.198-2.017-.046-.312-.062-.445-.004-.629.047-.151.33-.297.758-.504a8.72 8.72 0 0 0 .609-.314l-.916 3.088zM32.7 14.393l-.083-.028a1.211 1.211 0 0 0-.801 2.285l.082.029a1.209 1.209 0 0 0 1.543-.742 1.21 1.21 0 0 0-.742-1.544z" fill="#1977CC"/><path d="M5.45 33.482l-3.27 1.211-.848 2.422 1.695 5.57 2.422 4.057 3.33 4.602 3.754 3.088 1.696-3.088v-2.907l1.09-1.695 1.876-1.21-1.029-2.06v-3.087l-.848-2.422-2.785-.848-3.754-2.422-3.33-1.21z" fill="#A2DFFF"/><path d="M57.846 15.51C53.706 8.342 47.024 3.214 39.027 1.07 31.031-1.072 22.68.027 15.51 4.166 8.34 8.306 3.212 14.99 1.07 22.986-1.073 30.98.027 39.333 4.166 46.502A30.986 30.986 0 0 0 31.026 62a30.86 30.86 0 0 0 11.067-2.048 1.21 1.21 0 1 0-.87-2.26c-9.447 3.63-19.675 1.98-27.316-3.755l1.085-5.663.522-.17a3.772 3.772 0 0 0 2.42-4.746l-.385-1.18a1.337 1.337 0 0 1 .002-.836 3.768 3.768 0 0 0-2.857-4.871l-2.733-.534-5.274-4.01a1.21 1.21 0 0 0-1.107-.187l-3.087 1.003a28.545 28.545 0 0 1-.004-3.307c.122.114.2.191.25.242.06.1.135.193.223.273.252.23.48.333.96.333.44 0 1.093-.088 2.17-.247a110.95 110.95 0 0 0 2.048-.323 1.21 1.21 0 0 0 .8-1.876l-1.485-2.177 2.127-1.521a1.22 1.22 0 0 0 .346-.383l3.297-5.755 1.328-1.424a5.115 5.115 0 0 0 .987-5.425 5.569 5.569 0 0 0-2.205-2.598 28.652 28.652 0 0 1 3.386-2.292 28.392 28.392 0 0 1 13.954-3.82l-2.163 2.713-8.018 2.811a1.21 1.21 0 0 0-.718.681l-2.24 5.428c-.159.386-.108.826.134 1.166l3.27 4.58c-.468.428-.924 1.05-1.468 1.823-.24.34-.465.66-.62.839-.136.156-.271.309-.406.46-.703.791-1.43 1.61-1.947 2.703-1.136 2.405-.907 5.2.598 7.295 1.456 2.025 3.856 3.054 6.417 2.753a9.428 9.428 0 0 0 1.183-.238c1.038-.257 1.367-.283 1.7.029.162.151.177.18.174.695-.003.327-.005.734.108 1.2.18.744.648 1.258 1.023 1.671.187.206.38.418.44.56.377.906.213 1.407-.148 2.505l-.094.288c-.547 1.695.216 3.376.89 4.859.218.481.424.936.56 1.338 1.088 3.23 1.905 3.97 2.56 4.268.343.156.698.225 1.056.224 1.746 0 3.567-1.62 4.404-2.648.526-.645.655-1.291.75-1.763.047-.235.084-.42.155-.541.108-.185.235-.329.397-.51.324-.366.729-.821.99-1.646.199-.626.343-.78.822-1.29.083-.088.172-.182.267-.286 1.613-1.755 1.198-3.096.758-4.515-.37-1.194.277-1.958 1.843-3.416.678-.632 1.38-1.285 1.922-2.07.238-.344.96-1.39.513-2.426-.438-1.016-1.551-1.187-2.446-1.324-.353-.054-.887-.136-1.057-.247-.749-.49-1.207-1.512-1.65-2.5-.089-.198-.176-.392-.264-.58a19.533 19.533 0 0 1-.481-1.175c-.44-1.14-.94-2.432-1.79-3.333-.764-.81-2.204-1.2-3.475-1.544-.427-.115-.83-.225-1.097-.323a1.21 1.21 0 0 0-.695-.043c-.619.145-1.005.305-1.291.535-.076.06-.3.26-.431.58-.444-.213-1.053-.62-1.428-.87l-.024-.015a1.717 1.717 0 0 0-.108-1.166c-.676-1.43-2.921-1.319-3.364-1.28-.252.02-.57.031-.907.043a22.3 22.3 0 0 0-1.692.105l.03-.083a3.096 3.096 0 0 1 2.907-2.045h.688a1.211 1.211 0 0 0 0-2.422h-.688a5.528 5.528 0 0 0-4.688 2.614l-1.806-2.53 1.777-4.307 7.835-2.747c.215-.075.405-.21.547-.388l3.483-4.369c8.9.847 17.277 5.837 22.077 14.151a28.257 28.257 0 0 1 2.853 6.931l-.513.458a3.234 3.234 0 0 0-1.078 2.352v.03l-.837-2.3a3.022 3.022 0 0 0-.545-.935l-1.491-1.747a3.035 3.035 0 0 0-2.311-1.065H50c-.648 0-1.24.355-1.546.926a1.751 1.751 0 0 0 .087 1.8l.184.278a13.419 13.419 0 0 1-3.997 2.374l-2.503-4.794v-1.07c0-.33-.136-.647-.375-.876l-2.254-2.151a1.212 1.212 0 0 0-.435-.267l-2.029-.713a1.21 1.21 0 1 0-.803 2.285l1.783.626 1.691 1.614v.849c0 .195.047.387.138.56l3.133 6.003c.282.54.922.786 1.492.575l.913-.336a15.846 15.846 0 0 0 5.682-3.637 1.21 1.21 0 0 0 .151-1.528l-.064-.096h.578c.18 0 .352.078.47.216l1.491 1.747c.048.056.085.12.11.19l1.647 4.526a1.211 1.211 0 0 0 1.994.442l.783-.783a3.78 3.78 0 0 0 1.002-1.82c1.211 9.712-2.597 19.759-10.646 26.077a1.21 1.21 0 1 0 1.495 1.904 30.975 30.975 0 0 0 11.242-18.37 30.971 30.971 0 0 0-3.569-21.485zM5.726 34.24l4.993 3.796c.148.112.319.19.5.225l3.01.588c.384.075.705.302.903.64.198.337.24.728.117 1.1a3.743 3.743 0 0 0-.003 2.337l.384 1.18a1.347 1.347 0 0 1-.864 1.696l-1.203.391a1.21 1.21 0 0 0-.815.924l-.969 5.055a28.892 28.892 0 0 1-5.516-6.88 28.42 28.42 0 0 1-3.518-10.084l2.98-.968zm7.057-19.313l-1.425 1.526a1.22 1.22 0 0 0-.165.224l-3.235 5.648-2.875 2.055a1.21 1.21 0 0 0-.296 1.667l1.075 1.577a44.12 44.12 0 0 1-1.545.209 19.82 19.82 0 0 0-.223-.209 61.323 61.323 0 0 0-1.284-1.146c.984-6.087 3.916-11.82 8.53-16.198a3.149 3.149 0 0 1 1.961 1.797 2.687 2.687 0 0 1-.518 2.85zm9.873 6.617c.54-.304 1.793-.349 2.709-.381.366-.013.713-.026 1.022-.052.164-.013.345-.01.516.003a1.21 1.21 0 0 0 .557 1.506c.227.122.544.333.878.556.947.63 2.02 1.346 3.027 1.41.917.06 1.427-.463 1.645-.685l.051-.052c.123-.1.239-.235.324-.397.194.056.397.11.606.167.717.195 2.051.556 2.346.868.524.555.932 1.612 1.293 2.545.182.47.354.915.546 1.328.083.177.165.359.248.543.558 1.247 1.192 2.66 2.535 3.538.61.398 1.356.512 2.015.613l.264.042c-.391.546-.948 1.064-1.536 1.612-1.5 1.396-3.365 3.133-2.506 5.905.406 1.309.425 1.45-.228 2.16-.089.096-.171.185-.249.267-.558.595-1 1.064-1.365 2.215-.106.334-.243.489-.493.77-.2.224-.448.504-.677.897-.275.47-.366.922-.438 1.286-.072.358-.113.538-.254.71a7.08 7.08 0 0 1-1.528 1.352c-.57.361-.902.41-1.015.404-.129-.139-.597-.745-1.304-2.844-.175-.518-.416-1.051-.65-1.566-.516-1.136-1.05-2.31-.79-3.113l.09-.278c.415-1.263.806-2.456.082-4.192-.221-.53-.572-.915-.882-1.256-.2-.221-.428-.47-.463-.615-.042-.175-.04-.378-.04-.612.005-.633.011-1.59-.94-2.48-1.34-1.254-2.902-.867-3.936-.611-.318.078-.618.153-.884.184-1.7.2-3.22-.443-4.168-1.762-.991-1.38-1.136-3.238-.375-4.847.368-.779.924-1.404 1.567-2.128.141-.159.283-.318.425-.482.236-.272.496-.64.77-1.03.329-.466.94-1.334 1.205-1.498z" fill="#1977CC"/></g><defs><clipPath id="a"><path fill="#fff" d="M0 0h62v62H0z"/></clipPath></defs></svg>