<svg width="54" height="62" viewBox="0 0 54 62" fill="none" xmlns="http://www.w3.org/2000/svg"><path d="M26.808.82C12.455.82.82 2.984.82 5.654c0 .021.003.044.005.066H.819v35.774c0 2.768.61 5.618 2.977 7.01C7.603 50.743 26.81 61.18 26.81 61.18c.051-.044 19.204-10.436 23.01-12.675 2.369-1.392 2.978-4.242 2.978-7.01V5.72h-.005c.002-.022.005-.045.005-.067 0-2.67-11.637-4.834-25.99-4.834z" fill="#fff"/><path d="M51.086 3.022c-1.367-.6-3.302-1.136-5.75-1.592C40.38.508 33.8 0 26.81 0 19.818 0 13.24.507 8.282 1.43c-2.449.455-4.383.991-5.75 1.592C.83 3.772 0 4.632 0 5.654v35.841c0 3.801 1.138 6.398 3.382 7.717 3.775 2.22 22.845 12.584 23.037 12.689a.814.814 0 0 0 .817-.02c.142-.08 1.332-.729 2.832-1.547 5.604-3.055 17.266-9.414 20.169-11.122 2.244-1.319 3.382-3.916 3.382-7.717V5.653c-.002-1.021-.83-1.882-2.533-2.63zm-23.744 58.78zm.001-.001l.002-.002-.002.002zm24.634-20.307c0 3.225-.841 5.287-2.572 6.305-2.881 1.694-14.527 8.044-20.124 11.095-1.345.734-2.072 1.13-2.473 1.351-2.76-1.5-19.146-10.418-22.596-12.447-1.731-1.018-2.573-3.08-2.573-6.304V5.807a.783.783 0 0 0 .002-.148l-.001-.017c.017-.14.316-.576 1.551-1.12 1.234-.542 3.098-1.054 5.39-1.48 4.861-.904 11.335-1.402 18.227-1.402 6.894 0 13.367.498 18.227 1.402 2.292.426 4.156.938 5.39 1.48 1.234.543 1.535.979 1.552 1.119l-.002.023a.824.824 0 0 0 .002.14v35.69z" fill="#1977CC"/><path d="M49.29 8.813c0-1.354-1.65-2.08-2.192-2.318-1.149-.505-2.771-.955-4.823-1.336-4.14-.77-9.632-1.194-15.467-1.194-5.834 0-11.327.424-15.467 1.194-2.05.381-3.674.831-4.822 1.336-.542.238-2.192.964-2.192 2.318v30.954c0 3.22.97 5.423 2.886 6.55 3.148 1.85 18.55 10.221 19.205 10.577a.814.814 0 0 0 .814-.018c.124-.07 1.103-.604 2.336-1.277 4.677-2.55 14.41-7.857 16.836-9.283 1.914-1.126 2.886-3.33 2.886-6.55V8.869l-.001-.03v-.026zM27.34 56.798h.002-.002zm.002-.001l.001-.002-.001.002zm20.308-17.03c0 2.634-.68 4.314-2.078 5.137-2.403 1.413-12.12 6.71-16.79 9.257l-1.975 1.078C24.325 53.89 10.89 46.578 8.044 44.904c-1.398-.822-2.077-2.502-2.077-5.137V8.946a.844.844 0 0 0 .001-.134c.09-.292 1.353-1.272 5.984-2.098 4.007-.716 9.282-1.11 14.856-1.11 5.573 0 10.848.395 14.855 1.11 4.629.826 5.893 1.805 5.984 2.098a.79.79 0 0 0 .002.136v30.819zm0-30.945z" fill="#A2DFFF"/><path d="M42.474 27.001c-1.02-.758-2.559-1.036-3.567-1.045l-1.753-.015c-3.946-5.064-4.168-5.232-4.317-5.345a2.634 2.634 0 0 0-1.57-.533l-13.411-.114a2.653 2.653 0 0 0-2.171 1.1c-.04.045-.15.172-.269.305-4.727 5.352-5.385 6.773-5.391 7.51l-.017 2.012a3.133 3.133 0 0 0 .905 2.238c.591.601 1.38.935 2.223.943l2.248.019h.007a.82.82 0 0 0 .007-1.64l-2.248-.018a1.503 1.503 0 0 1-1.067-.453 1.508 1.508 0 0 1-.435-1.075l.017-1.989c.055-.266.588-1.49 4.98-6.462.295-.333.323-.366.363-.422.189-.27.496-.429.824-.429h.009l13.41.114a.995.995 0 0 1 .57.183c.16.164.901 1.033 4.281 5.375.154.198.39.315.64.316l2.15.018c.956.008 2.05.312 2.6.722 1.54 1.144 2.472 2.921 2.984 4.21.005.014.022.057-.012.107a.107.107 0 0 1-.097.05l-4.617-.04h-.007a.82.82 0 0 0-.007 1.64l4.617.039h.015a1.753 1.753 0 0 0 1.631-2.4c-.587-1.486-1.679-3.547-3.525-4.92zm-26.807-5.925c.001-.004.005-.007.008-.011a.024.024 0 0 0-.008.01z" fill="#1977CC"/><path d="M32.592 32.584l-10.04-.086h-.007a.82.82 0 0 0-.008 1.64l10.041.085h.007a.82.82 0 0 0 .007-1.64zm-2.477-9.56a1.94 1.94 0 0 0-1.157-.393l-8.843-.075a1.948 1.948 0 0 0-1.604.818l-.044.056c-.947 1.2-1.627 2.279-2.018 3.207a.82.82 0 0 0 .75 1.138l15.143.128h.007a.819.819 0 0 0 .646-1.323c-2.611-3.354-2.754-3.462-2.88-3.556zm-11.563 3.123c.286-.468.674-1.034 1.202-1.701.05-.063.08-.104.091-.119a.308.308 0 0 1 .254-.132h.003l8.843.075c.064.001.115.02.152.042.098.107.431.502 1.559 1.938l-12.104-.103zm25.39 2.965l-1.457-.012a2.318 2.318 0 0 0-.826-.682.82.82 0 0 0-.7 1.483c.15.07.285.268.33.358a.791.791 0 0 0 .738.477l1.9.016h.008a.82.82 0 0 0 .007-1.64zM13.07 28.85l-1.901-.016h-.007a.82.82 0 0 0-.007 1.64l1.9.016h.008a.82.82 0 0 0 .007-1.64z" fill="#1977CC"/><path d="M36.162 28.463a4.346 4.346 0 0 0-3.09 1.249 4.324 4.324 0 0 0-1.302 3.067l.82.007-.82-.007a4.36 4.36 0 0 0 4.319 4.39h.038c1.15 0 2.232-.442 3.053-1.248a4.324 4.324 0 0 0 1.301-3.068 4.36 4.36 0 0 0-4.319-4.39zm1.868 6.289a2.713 2.713 0 0 1-1.927.779 2.702 2.702 0 0 1-1.914-.811 2.696 2.696 0 0 1-.78-1.927 2.697 2.697 0 0 1 .813-1.913 2.7 2.7 0 0 1 1.904-.779h.023a2.699 2.699 0 0 1 1.914.812c.508.517.785 1.201.78 1.926a2.7 2.7 0 0 1-.813 1.913z" fill="#1977CC"/><path d="M36.136 31.683c-.3-.004-.589.113-.805.325a1.123 1.123 0 0 0-.339.799c-.002.302.113.588.326.804.212.216.496.336.799.338h.01a1.13 1.13 0 0 0 1.134-1.124 1.136 1.136 0 0 0-1.125-1.142zm.345 1.494a.506.506 0 0 1-.861-.365l.192.002-.192-.002a.505.505 0 0 1 .51-.501.508.508 0 0 1 .503.51.513.513 0 0 1-.152.356zm-17.533-4.86a4.36 4.36 0 0 0-4.392 4.316 4.36 4.36 0 0 0 4.319 4.39h.037a4.36 4.36 0 0 0 4.355-4.316 4.36 4.36 0 0 0-4.319-4.39zm-.037 7.068h-.023a2.717 2.717 0 0 1-2.692-2.738 2.718 2.718 0 0 1 2.715-2.692h.023a2.699 2.699 0 0 1 1.914.812c.51.518.786 1.201.78 1.926a2.717 2.717 0 0 1-2.716 2.692z" fill="#1977CC"/><path d="M18.922 31.368h-.011c-.344 0-.668.133-.913.374a1.29 1.29 0 0 0-.39.918l.82.007-.82-.007a1.303 1.303 0 0 0 1.292 1.313h.01a1.303 1.303 0 0 0 .012-2.605zm.226 1.543a.337.337 0 1 1-.236-.577h.003a.337.337 0 0 1 .233.576zm6.496-9.489a.82.82 0 0 0-.813-.78h-.006a.82.82 0 0 0-.82.812c-.001.08-.003.25.573 3.638a.82.82 0 0 0 1.617-.274c-.215-1.26-.524-3.13-.551-3.396zm0 .045v-.037.037z" fill="#1977CC"/></svg>