<svg width="77" height="62" viewBox="0 0 77 62" fill="none" xmlns="http://www.w3.org/2000/svg"><path d="M15.633 6.73l28.624-3.664 4.58 35.78-28.624 3.665-4.58-35.78z" fill="#fff"/><path d="M15.633 6.73l9.541-1.221 4.58 35.78-9.54 1.222-4.581-35.78z" fill="#fff"/><path d="M19.97 12.237l-3.577.458-.305-2.385 3.577-.458a1.203 1.203 0 0 1 .305 2.385zm.61 4.77l-3.577.458-.305-2.385 3.577-.459a1.202 1.202 0 1 1 .305 2.386zm.61 4.771l-3.576.457-.306-2.385 3.577-.458a1.203 1.203 0 0 1 .305 2.386zm.61 4.77l-3.576.457h-.002l-.303-2.385 3.576-.457a1.202 1.202 0 0 1 .305 2.385zm.61 4.77l-3.576.457h-.002l-.303-2.385 3.577-.457a1.202 1.202 0 0 1 .305 2.385z" fill="#EA9D2D"/><path d="M20.58 17.007l-3.577.458-.305-2.385 3.577-.459a1.202 1.202 0 1 1 .305 2.386zm-.61-4.77l-3.577.458-.305-2.385 3.577-.458a1.203 1.203 0 0 1 .305 2.385zm1.22 9.541l-3.576.457-.306-2.385 3.577-.458a1.203 1.203 0 0 1 .305 2.386zm.61 4.77l-3.576.457h-.002l-.303-2.385 3.576-.457a1.202 1.202 0 0 1 .305 2.385zm.61 4.77l-3.576.457h-.002l-.303-2.385 3.577-.457a1.202 1.202 0 0 1 .305 2.385z" fill="#EAEAE8"/><path d="M38.38 32.911a2.405 2.405 0 0 1 2.69 2.08l.611 4.771-4.77.61-.611-4.77a2.405 2.405 0 0 1 2.08-2.69z" fill="#A2DFFF"/><path d="M32.99 29.955a1.202 1.202 0 0 1-.151-2.395l2.385-.305a1.203 1.203 0 0 1 .305 2.385l-2.385.305c-.051.007-.103.01-.154.01zm7.155-.915a1.203 1.203 0 0 1-.15-2.395l2.385-.305a1.204 1.204 0 0 1 .305 2.385l-2.385.305c-.051.007-.103.01-.155.01zm-7.765-3.855a1.202 1.202 0 0 1-.15-2.395l2.385-.305a1.2 1.2 0 0 1 1.345 1.04 1.2 1.2 0 0 1-1.04 1.345l-2.386.305c-.051.006-.103.01-.154.01zm7.155-.915a1.203 1.203 0 0 1-.15-2.396l2.385-.305a1.202 1.202 0 1 1 .305 2.386l-2.385.305a1.33 1.33 0 0 1-.155.01zm-7.765-3.856a1.202 1.202 0 0 1-.15-2.395l2.384-.305a1.202 1.202 0 0 1 .306 2.386l-2.386.305c-.051.006-.103.01-.154.01zm7.155-.914a1.202 1.202 0 0 1-.15-2.396l2.385-.305a1.202 1.202 0 1 1 .305 2.386l-2.385.305c-.052.006-.103.01-.155.01zm-7.765-3.856a1.202 1.202 0 0 1-.15-2.395l2.384-.305a1.202 1.202 0 1 1 .305 2.385l-2.385.305c-.052.007-.103.01-.155.01zm7.155-.915a1.202 1.202 0 0 1-.15-2.395l2.385-.305a1.2 1.2 0 0 1 1.345 1.04 1.204 1.204 0 0 1-1.04 1.345l-2.385.305c-.051.007-.103.01-.155.01zm-7.765-3.855a1.202 1.202 0 0 1-.151-2.395l2.385-.305a1.203 1.203 0 1 1 .305 2.385l-2.385.305c-.051.007-.103.01-.155.01zm7.155-.915a1.202 1.202 0 0 1-.15-2.395l2.384-.306a1.202 1.202 0 1 1 .306 2.386l-2.386.305c-.05.006-.103.01-.154.01z" fill="#EAEAE8"/><path d="M59.384 40.359a1.203 1.203 0 0 1-1.17-1.484l1.405-5.844a1.2 1.2 0 0 1 1.881-.701 1.202 1.202 0 0 1 .457 1.263l-1.405 5.844a1.203 1.203 0 0 1-1.168.922z" fill="#B26643"/><path d="M13.225 27.134a3.607 3.607 0 0 0-7.214 0v3.606a3.607 3.607 0 1 0 7.214 0v-3.606z" fill="#fff"/><path d="M9.618 41.544a1.202 1.202 0 0 1-1.202-1.202V30.74a1.202 1.202 0 1 1 2.405 0v9.602a1.202 1.202 0 0 1-1.203 1.202z" fill="#B26643"/><path d="M53.609 39.156l-4.81 4.81 4.81 3.606-7.214 8.416 1.202-7.213-4.809-3.607 2.405-6.012H3.607v21.641h69.732v-21.64H53.61z" fill="#A2DFFF"/><path d="M67.368 29.947l-1.993-5.425 2.338.562-2.99-8.138-6.362 5.89 2.338.562-4.242 3.926 3.118.75-4.632 3.832 11.69 2.81-2.382-5.518 3.117.75z" fill="#fff"/><path d="M16.832 49.977h-4.81a1.202 1.202 0 1 1 0-2.405h4.81a1.202 1.202 0 1 1 0 2.405zm6.011 0H20.44a1.202 1.202 0 1 1 0-2.405h2.404a1.202 1.202 0 1 1 0 2.405zm9.619 4.809H26.45a1.202 1.202 0 0 1 0-2.404h6.012a1.203 1.203 0 0 1 0 2.404zm7.213 0h-2.404a1.202 1.202 0 0 1 0-2.404h2.404a1.203 1.203 0 0 1 0 2.404zm20.439-7.214h-1.202a1.203 1.203 0 0 1 0-2.404h1.202a1.202 1.202 0 0 1 0 2.404zm8.416 0h-3.606a1.203 1.203 0 0 1 0-2.404h3.606a1.202 1.202 0 0 1 0 2.404z" fill="#A2DFFF"/><path d="M73.34 37.954H60.907l.768-3.193 4.676 1.125a1.203 1.203 0 0 0 1.385-1.646l-1.43-3.311.78.187a1.203 1.203 0 0 0 1.41-1.583l-1.22-3.317.154.037a1.203 1.203 0 0 0 1.41-1.584l-2.99-8.138a1.202 1.202 0 0 0-1.945-.467l-6.361 5.89a1.202 1.202 0 0 0 .535 2.05l.154.037-2.594 2.4a1.203 1.203 0 0 0 .537 2.052l.78.187-2.78 2.3a1.202 1.202 0 0 0 .486 2.095l4.676 1.124-.903 3.755H53.61a1.201 1.201 0 0 0-.85.352l-4.81 4.81a1.203 1.203 0 0 0 .13 1.811l3.782 2.837-3.57 4.166.492-2.958a1.202 1.202 0 0 0-.464-1.16l-4.073-3.053 1.785-4.464 2.9-.25a1.201 1.201 0 0 0 1.089-1.35L45.443 2.916a1.203 1.203 0 0 0-1.345-1.04L15.478 5.54a1.203 1.203 0 0 0-1.041 1.345l3.974 31.07h-7.59v-2.557a4.818 4.818 0 0 0 3.606-4.657v-3.607a4.81 4.81 0 0 0-9.618 0v3.607a4.818 4.818 0 0 0 3.607 4.657v2.557h-4.81a1.202 1.202 0 0 0-1.201 1.202v21.641A1.202 1.202 0 0 0 3.607 62H73.34a1.202 1.202 0 0 0 1.202-1.203v-21.64a1.203 1.203 0 0 0-1.203-1.203zM60.34 29a1.202 1.202 0 0 0-.486-2.095l-.932-.225 2.593-2.4a1.202 1.202 0 0 0-.536-2.051l-.154-.037 3.39-3.139 1.593 4.337-.153-.037a1.202 1.202 0 0 0-1.41 1.583l1.218 3.317-.933-.224a1.203 1.203 0 0 0-1.385 1.645l1.43 3.312-7.014-1.687 2.779-2.3zM7.214 30.74v-3.606a2.404 2.404 0 1 1 4.809 0v3.606a2.404 2.404 0 0 1-1.202 2.08v-2.08a1.202 1.202 0 0 0-2.405 0v2.08a2.404 2.404 0 0 1-1.202-2.08zm40.262 7.018l-2.278.196h-2.545l-.398-3.114a3.607 3.607 0 0 0-7.156.916l.282 2.198h-4.849L26.515 6.551l16.697-2.135 4.264 33.342zm-9.671.196l-.32-2.504a1.201 1.201 0 0 1 2.238-.753c.078.138.128.29.147.448l.359 2.81h-2.424zm-17.78-6.33l2.386-.306a1.202 1.202 0 1 0-.305-2.385l-2.385.305-.305-2.385 2.385-.305a1.202 1.202 0 0 0-.305-2.385l-2.385.305-.305-2.386 2.385-.305a1.203 1.203 0 1 0-.305-2.385l-2.386.305-.305-2.385 2.385-.305a1.2 1.2 0 0 0 .583-2.144 1.201 1.201 0 0 0-.888-.241l-2.385.305-.305-2.385 2.385-.305a1.202 1.202 0 1 0-.305-2.385l-2.385.305-.305-2.385 7.155-.916 3.978 31.098h-7.272l-.81-6.33zm52.112 27.971H4.81V40.36h38.609l-1.745 4.362a1.202 1.202 0 0 0 .394 1.409l4.224 3.169-1.082 6.492a1.202 1.202 0 0 0 2.099.98l7.214-8.416a1.204 1.204 0 0 0-.192-1.744l-3.7-2.775 3.476-3.477h18.031v19.236z" fill="#1977CC"/><path d="M35.224 27.255l-2.385.305a1.202 1.202 0 1 0 .305 2.385l2.385-.305a1.202 1.202 0 1 0-.305-2.385zm7.156-.915l-2.386.305a1.202 1.202 0 1 0 .305 2.385l2.385-.305a1.202 1.202 0 1 0-.305-2.385zm-7.766-3.855l-2.385.305a1.202 1.202 0 1 0 .304 2.385l2.385-.305a1.202 1.202 0 0 0-.305-2.385zm7.156-.915l-2.386.304a1.202 1.202 0 1 0 .305 2.386l2.385-.306a1.202 1.202 0 0 0-.305-2.385zm-7.766-3.856l-2.385.305a1.203 1.203 0 1 0 .304 2.386l2.385-.306a1.2 1.2 0 0 0 1.04-1.345 1.202 1.202 0 0 0-1.345-1.04zm7.156-.915l-2.386.305a1.202 1.202 0 1 0 .304 2.385l2.385-.305a1.202 1.202 0 1 0-.305-2.385h.001zm-7.766-3.855l-2.386.305a1.203 1.203 0 1 0 .305 2.386l2.385-.306a1.202 1.202 0 0 0-.304-2.385zm7.155-.915l-2.385.305a1.203 1.203 0 1 0 .304 2.385l2.385-.305a1.201 1.201 0 1 0-.305-2.385zM29.358 9.824a1.203 1.203 0 0 0 1.345 1.04l2.386-.305a1.202 1.202 0 0 0-.306-2.385l-2.385.305a1.203 1.203 0 0 0-1.04 1.345zm8.347.135c.051 0 .103-.004.154-.01l2.385-.305a1.203 1.203 0 0 0-.305-2.386l-2.385.306a1.202 1.202 0 0 0 .15 2.395zM16.832 47.572h-4.81a1.202 1.202 0 1 0 0 2.405h4.81a1.202 1.202 0 1 0 0-2.405zm6.011 0H20.44a1.202 1.202 0 1 0 0 2.405h2.404a1.202 1.202 0 1 0 0-2.405zm9.619 4.81H26.45a1.203 1.203 0 0 0 0 2.404h6.012a1.202 1.202 0 0 0 0-2.404zm7.213 0h-2.404a1.203 1.203 0 0 0 0 2.404h2.404a1.202 1.202 0 0 0 0-2.404zm19.237-7.214a1.202 1.202 0 0 0 0 2.404h1.202a1.203 1.203 0 0 0 0-2.404h-1.202zm6.012 2.404h3.606a1.203 1.203 0 0 0 0-2.404h-3.606a1.202 1.202 0 0 0 0 2.404z" fill="#1977CC"/></svg>