<svg width="51" height="64" viewBox="0 0 51 64" fill="none" xmlns="http://www.w3.org/2000/svg"><path d="M25.032 63c1.332-.38 24.01-13.553 24.01-25.594V11.79c-6.117 0-20.22-6.744-24.021-10.79C21.219 5.046 7.117 11.79 1 11.79v25.616C1 49.447 23.677 62.619 25.01 63h.022z" fill="#fff"/><path d="M25.02 1C21.22 5.046 7.118 11.79 1 11.79v25.616C1 49.447 23.677 62.619 25.01 63h.022c1.332-.38 24.01-13.553 24.01-25.594V11.79c-6.117 0-20.22-6.744-24.021-10.79zm18.56 35.177c0 9.3-17.521 19.48-18.548 19.775h-.022c-1.027-.294-18.548-10.475-18.548-19.775V16.38c4.719 0 15.62-5.21 18.559-8.332 2.938 3.122 13.84 8.332 18.559 8.332v19.797z" fill="#A2DFFF"/><path d="M25.032 63c1.332-.38 24.01-13.553 24.01-25.594V11.79c-6.117 0-20.22-6.744-24.021-10.79C21.219 5.046 7.117 11.79 1 11.79v25.616C1 49.447 23.677 62.619 25.01 63h.022z" stroke="#1977CC" stroke-width="2" stroke-miterlimit="10" stroke-linecap="round" stroke-linejoin="round"/><path d="M38.664 45.738c2.797-2.991 4.916-6.33 4.916-9.561V16.38c-4.72 0-15.621-5.21-18.56-8.332-1.059 1.132-3.156 2.524-5.625 3.85m-5.997 2.764c-2.676 1.033-5.221 1.718-6.936 1.718v19.797c0 9.3 17.521 19.48 18.548 19.774h.022c.448-.13 3.965-2.099 7.832-5.047" stroke="#1977CC" stroke-width="2" stroke-miterlimit="10" stroke-linecap="round" stroke-linejoin="round"/><ellipse cx="15.624" cy="27.934" rx="1.564" ry="2.738" transform="rotate(-24.046 15.624 27.934)" fill="#E0F4FC"/><ellipse cx="21.498" cy="24.784" rx="1.564" ry="2.988" transform="rotate(-9.745 21.498 24.784)" fill="#E0F4FC"/><ellipse cx="28.218" cy="25.159" rx="1.564" ry="3.219" transform="rotate(16.758 28.218 25.159)" fill="#E0F4FC"/><ellipse cx="34.475" cy="27.947" rx="1.564" ry="3.219" transform="rotate(16.758 34.475 27.947)" fill="#E0F4FC"/><path d="M20.317 31.454l-1.956 1.955.391 5.475 1.565 2.738 3.91.782 5.476-1.173 2.346-3.52v-3.91l-1.564-1.565-2.738-.782h-7.43z" fill="#E0F4FC"/><path d="M21.099 30.671a3.916 3.916 0 0 0-3.911 3.911v.782a.82.82 0 0 0 .018.17l.884 3.978a4.668 4.668 0 0 0 4.582 3.674h4.676a4.668 4.668 0 0 0 4.582-3.676l.884-3.977a.82.82 0 0 0 .018-.169v-.782a3.916 3.916 0 0 0-3.911-3.91h-7.822zm10.168 3.911v.697l-.865 3.893a3.111 3.111 0 0 1-3.054 2.45h-4.676a3.112 3.112 0 0 1-3.05-2.45l-.87-3.893v-.697a2.347 2.347 0 0 1 2.347-2.346h7.822a2.347 2.347 0 0 1 2.346 2.346z" fill="#1977CC"/><path d="M27.348 38.494h-4.676v1.564h4.676a1.552 1.552 0 0 0 1.524-1.208l.81-3.299-1.521-.372-.813 3.315zm.369-9.453c.108.02.216.03.325.03a2.593 2.593 0 0 0 1.956-1.082 6 6 0 0 0 1.158-2.708c.427-2.415-.411-4.44-1.948-4.712a2.447 2.447 0 0 0-2.284 1.052 6 6 0 0 0-1.159 2.709c-.423 2.414.418 4.44 1.952 4.712zm-.409-4.44a4.505 4.505 0 0 1 .83-1.994 1.15 1.15 0 0 1 .743-.503.34.34 0 0 1 .055.005c.46.078.966 1.279.681 2.9a4.507 4.507 0 0 1-.834 1.995c-.28.345-.587.537-.797.497-.457-.081-.963-1.279-.678-2.9zm-9.772 2.279c-.76-2.095-2.286-3.332-3.542-2.873-1.256.458-1.63 2.382-.867 4.478.287.836.76 1.596 1.384 2.223.419.446.993.713 1.603.748.19 0 .377-.034.555-.1 1.256-.457 1.63-2.38.867-4.476zm-1.402 3.01c-.03.007-.225-.01-.548-.313a4.812 4.812 0 0 1-1.274-3.501c.052-.445.19-.585.217-.594a.078.078 0 0 1 .033-.005c.234 0 1.016.592 1.505 1.942.517 1.418.25 2.402.067 2.47zm17.215 1.465c.178.065.365.099.554.099a2.383 2.383 0 0 0 1.604-.749 5.833 5.833 0 0 0 1.384-2.224c.763-2.094.391-4.019-.867-4.476a2.079 2.079 0 0 0-2.158.65 6.347 6.347 0 0 0-1.753 4.814 2.088 2.088 0 0 0 1.236 1.886zm.603-3.942a4.316 4.316 0 0 1 .992-1.622.952.952 0 0 1 .532-.318h.015c.183.067.45 1.05-.066 2.473a4.35 4.35 0 0 1-.991 1.622c-.323.306-.518.324-.548.313-.03-.011-.165-.15-.217-.595a4.342 4.342 0 0 1 .283-1.873zm-13.999.577a2.594 2.594 0 0 0 1.956 1.08c.109 0 .218-.01.325-.029 1.537-.271 2.375-2.297 1.948-4.712a5.998 5.998 0 0 0-1.158-2.708 2.45 2.45 0 0 0-2.284-1.052c-1.537.271-2.375 2.297-1.948 4.712a6 6 0 0 0 1.161 2.708zm1.062-5.881a.305.305 0 0 1 .055-.005 1.148 1.148 0 0 1 .742.502c.436.588.722 1.272.834 1.995.286 1.621-.221 2.816-.681 2.9-.207.04-.517-.152-.797-.497a4.507 4.507 0 0 1-.834-1.995c-.285-1.621.221-2.819.681-2.9z" fill="#1977CC"/></svg>