<svg width="83" height="62" viewBox="0 0 83 62" fill="none" xmlns="http://www.w3.org/2000/svg"><path d="M55.517 15.277c-2.822 0-5.568.69-7.943 1.996-3.471 1.908-5.495 4.687-6.585 6.694-1.09-2.006-3.114-4.785-6.585-6.694-2.375-1.306-5.121-1.996-7.943-1.996-4.17 0-8.098 1.543-10.78 4.234-2.636 2.645-4.022 6.288-4.008 10.533.04 11.861 9.49 18.78 17.72 23.483 5.99 3.422 10.852 7.164 10.9 7.201a1.136 1.136 0 0 0 1.392 0c.048-.037 4.91-3.779 10.9-7.201 8.23-4.702 17.68-11.622 17.72-23.483.015-4.245-1.372-7.888-4.01-10.533-2.68-2.69-6.61-4.234-10.778-4.234z" fill="#E7F6FF"/><path d="M55.517 14.245c-2.995 0-5.914.734-8.44 2.123-2.885 1.587-4.827 3.735-6.088 5.61-1.261-1.875-3.203-4.024-6.088-5.61-2.526-1.389-5.445-2.123-8.44-2.123-4.442 0-8.636 1.653-11.51 4.537-2.835 2.845-4.326 6.74-4.31 11.266.018 5.554 2.055 10.638 6.051 15.11 1.804 2.018 5.03 5.174 12.189 9.266 5.876 3.357 10.734 7.086 10.781 7.123.377.292.85.453 1.327.453.478 0 .948-.161 1.326-.452.048-.038 4.878-3.75 10.78-7.123 7.16-4.09 10.386-7.247 12.19-9.266 3.997-4.472 6.032-9.555 6.051-15.11.016-4.526-1.475-8.422-4.31-11.266-2.873-2.885-7.069-4.538-11.51-4.538zm-3.444 38.386c-6.035 3.448-10.97 7.243-11.02 7.281a.105.105 0 0 1-.13 0c-.203-.156-5.02-3.854-11.018-7.28-7.988-4.565-17.162-11.259-17.2-22.591-.014-3.965 1.269-7.355 3.708-9.802 2.49-2.498 6.152-3.93 10.048-3.93 2.648 0 5.223.646 7.445 1.869 3.257 1.79 5.156 4.404 6.176 6.282a1.033 1.033 0 0 0 1.814 0c1.02-1.877 2.92-4.492 6.175-6.282 2.223-1.222 4.798-1.869 7.446-1.869 3.896 0 7.558 1.432 10.047 3.93 2.44 2.448 3.723 5.838 3.709 9.802-.038 11.332-9.212 18.026-17.2 22.59z" fill="#1977CC"/><path d="M81.54 35.755H55.789c-.32 0-.62.148-.816.4l-4.288 5.54-1.616-33.462a1.032 1.032 0 0 0-2.045-.136l-6.908 37.779L33.055.872a1.032 1.032 0 0 0-2.027-.06l-7.654 34.943H1.032a1.032 1.032 0 1 0 0 2.064h23.172c.485 0 .904-.337 1.009-.81l6.656-30.387L39.018 52.2a1.03 1.03 0 0 0 1.006.872h.013c.498 0 .925-.356 1.016-.847l6.387-34.932 1.318 27.296a1.033 1.033 0 0 0 1.847.581l5.69-7.35h25.248a1.032 1.032 0 1 0-.002-2.065z" fill="#1977CC"/></svg>