<svg width="57" height="62" viewBox="0 0 57 62" fill="none" xmlns="http://www.w3.org/2000/svg"><path d="M54.153 47.995l.012.028.014.028.337.682c.413.868.909 1.948 1.08 3.09.166 1.11.016 2.213-.813 3.213l-.005.006-.006.007c-1.148 1.434-3.996 4.607-7.26 5.818l-.035.012h-.009l-.103.022c-.49.104-1.945.179-4.143-.058-2.164-.233-4.972-.76-8.142-1.801-6.334-2.082-14.102-6.215-21.06-14.162C6.993 36.863 3.595 28.1 2.08 21.076c-.758-3.511-1.042-6.578-1.076-8.885a23.68 23.68 0 0 1 .106-2.826c.08-.746.186-1.13.235-1.24C2.912 5.034 6.413 2.553 7.922 1.58a5.23 5.23 0 0 1 1.276-.501c1.775-.372 3.465.652 4.88 1.582l.609.41.036.025.037.02s.042.027.12.118c.08.094.176.232.285.42.219.38.45.898.683 1.533.467 1.267.908 2.886 1.288 4.528.378 1.636.69 3.268.902 4.548a43.7 43.7 0 0 1 .238 1.598c.026.207.044.373.054.497.009.11.01.156.01.16-.048.523-.31 1.119-1.072 2.024-.777.922-1.97 2.05-3.72 3.645l-.018.017-.018.018c-.757.765-1.206 1.985-.776 3.18l.003.009.004.009c1.551 4.064 4.829 9.06 7.554 12.099 2.494 2.8 7.487 7.438 11.643 9.788l.01.005c1.153.636 2.426.404 3.328-.403 1.54-1.35 2.664-2.317 3.576-2.983.889-.65 1.486-.945 1.976-1.05l.582-.053.114.023c.122.026.284.065.484.115.398.102.926.247 1.542.43 1.232.362 2.798.864 4.361 1.434 1.569.571 3.11 1.2 4.304 1.817.599.309 1.084.6 1.435.866.175.131.302.245.388.34a1.022 1.022 0 0 1 .113.148z" fill="#E0F4FC" stroke="#1977CC" stroke-width="2"/></svg>