<svg width="65" height="62" viewBox="0 0 65 62" fill="none" xmlns="http://www.w3.org/2000/svg"><path d="M43.042 0H22.245c-4.561 0-8.273 3.711-8.273 8.274v7.364c0 .565.458 1.022 1.022 1.022h4.03a1.022 1.022 0 1 0 0-2.043h-3.008V8.274a6.237 6.237 0 0 1 6.23-6.23h20.796a6.237 6.237 0 0 1 6.23 6.23v6.343h-2.58a1.022 1.022 0 1 0 0 2.043h3.602c.564 0 1.021-.457 1.021-1.022V8.274C51.315 3.712 47.604 0 43.042 0z" fill="#1977CC"/><path fill-rule="evenodd" clip-rule="evenodd" d="M55.921 12.638H8.273c-3.988 0-7.251 3.264-7.251 7.251v33.837c0 3.99 3.263 7.252 7.25 7.252h47.65c3.988 0 7.25-3.263 7.25-7.252V19.89c0-3.987-3.262-7.252-7.25-7.252z" fill="#fff"/><path d="M55.922 11.617H8.272c-4.56 0-8.272 3.71-8.272 8.272v33.837C0 58.288 3.711 62 8.273 62h47.649c4.561 0 8.272-3.711 8.272-8.274V19.89c0-4.561-3.71-8.273-8.272-8.273zm6.229 42.11a6.237 6.237 0 0 1-6.23 6.23H8.274a6.237 6.237 0 0 1-6.23-6.23V19.89a6.236 6.236 0 0 1 6.23-6.229h47.649a6.236 6.236 0 0 1 6.229 6.23v33.836z" fill="#1977CC"/><path d="M53.137 16.144h-8.984a1.022 1.022 0 1 0 0 2.043h8.984a4.041 4.041 0 0 1 4.037 4.037v9.45a1.022 1.022 0 1 0 2.044 0v-9.45a6.087 6.087 0 0 0-6.08-6.08zm-13.753 0H17.492a1.022 1.022 0 1 0 0 2.043h21.892a1.022 1.022 0 1 0 0-2.043z" fill="#A2DFFF"/><path fill-rule="evenodd" clip-rule="evenodd" d="M44.95 31.94h-7.983v-7.985a.975.975 0 0 0-.973-.974h-7.791a.977.977 0 0 0-.976.974v7.984h-7.983a.976.976 0 0 0-.974.974v7.791c0 .537.437.976.974.976h7.983v7.982c0 .537.438.974.976.974h7.79a.975.975 0 0 0 .974-.974V41.68h7.983a.977.977 0 0 0 .974-.976v-7.79a.976.976 0 0 0-.974-.975z" fill="#A2DFFF"/><path d="M44.95 30.918h-6.961v-6.962c0-1.1-.895-1.996-1.995-1.996h-7.79a1.999 1.999 0 0 0-1.998 1.996v6.962h-6.962c-1.1 0-1.995.895-1.995 1.995v7.791c0 1.102.895 1.998 1.995 1.998h6.962v6.96a2 2 0 0 0 1.997 1.996h7.791c1.1 0 1.995-.896 1.995-1.996v-6.96h6.96a2 2 0 0 0 1.997-1.998v-7.79a1.998 1.998 0 0 0-1.996-1.996zm-.048 9.74h-7.935c-.564 0-1.022.458-1.022 1.022v7.934H28.25V41.68c0-.564-.457-1.022-1.022-1.022h-7.935v-7.696h7.935c.564 0 1.022-.457 1.022-1.022v-7.936h7.696v7.936c0 .565.458 1.022 1.022 1.022h7.935v7.696z" fill="#1977CC"/></svg>