<svg width="62" height="62" viewBox="0 0 62 62" fill="none" xmlns="http://www.w3.org/2000/svg"><path d="M5 44v-3.74c0-7.01 5.18-12.94 12.13-13.88L19 32l2.22-1.33L22 33l-1 4h-4v6h6v6H10c-2.76 0-5-2.24-5-5zm39-8l7.91-11.86 1.15.8L56 27l-7.34 13.86c-.51.96-1.27 1.75-2.17 2.29-.9.55-1.95.85-3.04.85-1.57 0-3.07-.62-4.18-1.73L37 40v9h-4V37h-6l-1-4 .78-2.33L29 32l1.88-5.63c3.33.44 6.38 2.06 8.62 4.57L44 36z" fill="#fff"/><path d="M30.88 26.37L29 32l-2.22-1.33L24 29l4-3 2.77.35c.04 0 .07.01.11.02zM24 29l-2.78 1.67L19 32l-1.87-5.62h.02L20 26l4 3zm2 4l1 4h-6l1-4h4z" fill="#A2DFFF"/><path d="M26.78 30.67L26 33h-4l-.78-2.33L24 29l2.78 1.67zm-.44-22.8L26 8h-6l-.77.52A4.985 4.985 0 0 0 17 12.68V13h-1c-.8 0-1.52.31-2.05.81l-.71-2.85A8.01 8.01 0 0 1 13 9.01c0-2.21.9-4.21 2.35-5.66A7.981 7.981 0 0 1 21.01 1h5.98a8.015 8.015 0 0 1 7.77 9.96l-.71 2.85c-.53-.5-1.25-.81-2.05-.81h-1.21c-.3-.89-.9-1.67-1.73-2.17l-.49-.29a5.295 5.295 0 0 1-2.23-2.67zM3 53h44v8H3v-8zm46-4v4H1v-4h48z" fill="#A2DFFF"/><path d="M29 46c0-.83-.34-1.58-.88-2.12S26.83 43 26 43h-9v-6h16v12h-7c1.66 0 3-1.34 3-3z" fill="#E6E9ED"/><path d="M55.65 22.35L58 25c0 .55-.22 1.05-.59 1.41-.36.37-.86.59-1.41.59l-2.94-2.06 2.59-2.59z" fill="#fff"/><path d="M51 17.12l4.65 5.23-2.59 2.59-1.15-.8-4.5-3.16a3.98 3.98 0 0 0 3.58-3.86H51z" fill="#fff"/><path d="M51 17c0 .04 0 .08-.01.12a3.98 3.98 0 0 1-3.58 3.86h-.01A3.999 3.999 0 0 1 43 17c0-2.21 1.79-4 4-4s4 1.79 4 4z" fill="#fff"/><path d="M28.12 43.88A2.996 2.996 0 0 1 26 49h-3v-6h3c.83 0 1.58.34 2.12.88z" fill="#A2DFFF"/><path d="M34.05 13.81a2.993 2.993 0 0 1 .07 4.31c-.54.54-1.29.88-2.12.88h-1.1c.07-.32.1-.66.1-1v-3.74c0-.44-.07-.86-.21-1.26H32c.8 0 1.52.31 2.05.81zm-6.84 9.04L28 26l-4 3-4-3 .79-3.15c.39.1.79.15 1.21.15h4c.42 0 .82-.05 1.21-.15zM17.1 19H16c-.83 0-1.58-.34-2.12-.88a2.993 2.993 0 0 1 .07-4.31c.53-.5 1.25-.81 2.05-.81h1v5c0 .34.03.68.1 1z" fill="#fff"/><path d="M31 14.26V18a4.992 4.992 0 0 1-3.79 4.85c-.39.1-.79.15-1.21.15h-4c-.42 0-.82-.05-1.21-.15A4.992 4.992 0 0 1 17 18v-5.32c0-1.68.84-3.24 2.23-4.16L20 8h6l.34-.13c.42 1.1 1.19 2.05 2.23 2.67l.49.29c.83.5 1.43 1.28 1.73 2.17.14.4.21.82.21 1.26z" fill="#fff"/><path d="M22 18v2h2a4.212 4.212 0 0 0 3.789-2.342l.105-.211-1.789-.895-.105.212A2.224 2.224 0 0 1 24 18h-2zm-1-3a1 1 0 1 0 0-2 1 1 0 0 0 0 2zm6 0a1 1 0 1 0 0-2 1 1 0 0 0 0 2zm-2.293-4.707A5.789 5.789 0 0 1 23 6.172V6h-2v.172a7.77 7.77 0 0 0 2.293 5.535l1.414-1.414z" fill="#1977CC"/><path d="M59.95 27.535l-1.25-1.25c.187-.391.3-.823.3-1.285v-.38l-7.029-7.908C51.819 14.091 49.658 12 47 12c-2.757 0-5 2.243-5 5s2.243 5 5 5c.034 0 .065-.009.099-.01l3.436 2.405-6.648 9.972-3.639-4.094a14.995 14.995 0 0 0-9.351-4.919l-2.092-.262-.4-1.599a6.027 6.027 0 0 0 3.246-3.494H32c2.206 0 4-1.794 4-4 0-.925-.329-1.767-.858-2.446l.589-2.355A8.99 8.99 0 0 0 36 9.014C36 4.044 31.957 0 26.986 0h-5.973C16.043 0 12 4.044 12 9.014c0 .735.09 1.471.269 2.186l.589 2.355A3.96 3.96 0 0 0 12 16c0 2.206 1.794 4 4 4h.35a6.027 6.027 0 0 0 3.246 3.494l-.401 1.605-2.177.29C9.596 26.379 4 32.771 4 40.257V44a5.97 5.97 0 0 0 1.54 4H0v6h2v6H0v2h62V32.485a6.958 6.958 0 0 0-2.05-4.95zm-3.685-1.57l-1.656-1.159.995-.996 1.343 1.511a1.007 1.007 0 0 1-.682.644zM44 17c0-1.654 1.346-3 3-3s3 1.346 3 3-1.346 3-3 3-3-1.346-3-3zm7.482 2.173l2.791 3.14-1.328 1.328-3.385-2.369a5.008 5.008 0 0 0 1.922-2.099zm-12.73 12.429l3.987 4.486-1.572 2.358 1.664 1.109 9.342-14.012 2.529 1.77-6.924 13.078A4.89 4.89 0 0 1 43.445 43c-1.31 0-2.541-.51-3.467-1.437L38 39.586V36h-2v12h-2V36h-6.219l-.74-2.96.292-.874 2.222 1.333 2.001-6.005a12.987 12.987 0 0 1 7.196 4.108zM26 44c1.103 0 2 .897 2 2s-.897 2-2 2h-2v-4h2zm0-2h-8v-4h14v10h-2.556A3.959 3.959 0 0 0 30 46c0-2.206-1.794-4-4-4zm-2-11.834l1.575.945-.296.889H22.72l-.296-.888L24 30.166zM22.781 34h2.438l.5 2h-3.438l.5-2zm6.764-6.799l-1.1 3.3-2.656-1.593 2.487-1.865 1.269.158zM32 18v-3.735c0-.089-.013-.176-.018-.265H32c1.103 0 2 .897 2 2s-.897 2-2 2zm-18-2c0-1.103.897-2 2-2v4c-1.103 0-2-.897-2-2zm4 2v-5.324c0-1.34.666-2.584 1.781-3.328l.773-.516-1.109-1.664-.773.516A5.988 5.988 0 0 0 16.042 12H16c-.495 0-.964.102-1.402.267l-.388-1.552A6.982 6.982 0 0 1 14 9.014 7.021 7.021 0 0 1 21.014 2h5.973C30.854 2 34 5.146 34 9.014c0 .572-.07 1.145-.209 1.701l-.388 1.552A3.972 3.972 0 0 0 32 12h-.557a4.994 4.994 0 0 0-1.871-2.022l-.485-.291A4.324 4.324 0 0 1 27 6h-2a6.329 6.329 0 0 0 3.059 5.401l.485.291A3.016 3.016 0 0 1 30 14.265V18c0 2.206-1.794 4-4 4h-4c-2.206 0-4-1.794-4-4zm4 6h4c.156 0 .31-.012.463-.023l.405 1.622L24 27.75l-2.869-2.152.406-1.622c.153.012.307.024.463.024zm-2.273 3.045l2.483 1.862-2.656 1.593-1.095-3.287 1.268-.168zM6 44v-3.743c0-6.205 4.44-11.531 10.453-12.736l1.993 5.978 2.222-1.333.292.874-.741 2.96H16v6h-4v-6h-2v6H8v2h14v4H10c-2.206 0-4-1.794-4-4zm-4 6h46v2H2v-2zm2 4h42v6H4v-6zm56 6H48v-6h2v-6H38v-5.586l.564.564A6.86 6.86 0 0 0 43.445 45a6.888 6.888 0 0 0 6.102-3.674l7.093-13.399c.227-.05.44-.13.645-.228l1.25 1.25A4.97 4.97 0 0 1 60 32.485V60z" fill="#1977CC"/><path d="M8 18h2v2H8v-2zm-4 0h2v2H4v-2zm-4 0h2v2H0v-2z" fill="#1977CC"/></svg>