<svg width="69" height="62" viewBox="0 0 69 62" fill="none" xmlns="http://www.w3.org/2000/svg"><path d="M43.227 58.724c-7.41 2.445-15.328 1.86-22.296-1.648-6.969-3.507-12.154-9.518-14.6-16.923a.898.898 0 0 0-1.705.562 30.795 30.795 0 0 0 6.098 10.691 30.897 30.897 0 0 0 9.4 7.273 30.919 30.919 0 0 0 23.666 1.749.897.897 0 1 0-.563-1.704z" fill="#1977CC"/><path d="M64.191 30.343h-.007a.898.898 0 0 0-.898.89 29.078 29.078 0 0 1-1.458 8.863 29.32 29.32 0 0 1-4.032 7.937c-3.617 5.043-8.655 8.74-14.57 10.691a29.12 29.12 0 0 1-20.058-.637c-6.313-2.541-11.562-7.217-14.78-13.165a.898.898 0 0 0-1.58.854c3.418 6.315 8.99 11.279 15.689 13.976A30.92 30.92 0 0 0 34.069 62c3.293 0 6.557-.527 9.72-1.57 6.278-2.072 11.626-5.997 15.466-11.351a31.113 31.113 0 0 0 4.278-8.423 30.85 30.85 0 0 0 1.548-9.408.896.896 0 0 0-.89-.904z" fill="#1977CC"/><path d="M64.944 30.763a.896.896 0 0 0-1.413-.139l-4.043 4.282a.897.897 0 1 0 1.306 1.232l3.246-3.44 2.44 3.878A.898.898 0 0 0 68 35.62l-3.056-4.857z" fill="#1977CC"/><path d="M53.095 27.053h-5.52a13.932 13.932 0 0 0-1.163-2.809l3.903-3.9a2.393 2.393 0 0 0 0-3.386l-2.198-2.196a2.395 2.395 0 0 0-3.387 0l-3.902 3.9a14.003 14.003 0 0 0-2.81-1.162v-5.517a2.394 2.394 0 0 0-2.395-2.394h-3.109a2.394 2.394 0 0 0-2.395 2.394V17.5a13.93 13.93 0 0 0-2.81 1.163l-3.902-3.901a2.395 2.395 0 0 0-3.387 0l-2.198 2.196a2.393 2.393 0 0 0 0 3.386l3.903 3.9a13.979 13.979 0 0 0-1.163 2.81h-5.52a2.394 2.394 0 0 0-2.395 2.393v3.107a2.394 2.394 0 0 0 2.395 2.394h5.52a13.98 13.98 0 0 0 1.163 2.809l-3.903 3.9a2.393 2.393 0 0 0 0 3.386l2.198 2.196a2.395 2.395 0 0 0 3.387 0l3.902-3.9c.883.484 1.825.874 2.81 1.162v5.517a2.394 2.394 0 0 0 2.395 2.394h3.108a2.394 2.394 0 0 0 2.395-2.394v-5.517a13.95 13.95 0 0 0 2.81-1.162l3.903 3.9a2.395 2.395 0 0 0 3.387 0l2.198-2.196a2.393 2.393 0 0 0 0-3.386l-3.903-3.9c.485-.883.875-1.824 1.163-2.81h5.52a2.394 2.394 0 0 0 2.395-2.393v-3.107a2.395 2.395 0 0 0-2.395-2.394zm-19.027 10.69a6.69 6.69 0 0 1-6.691-6.69 6.69 6.69 0 0 1 6.691-6.688 6.69 6.69 0 0 1 0 13.377z" fill="#A2DFFF"/><path d="M53.096 26.156h-4.864a14.71 14.71 0 0 0-.72-1.742l3.438-3.436a3.293 3.293 0 0 0 0-4.654l-2.198-2.196a3.298 3.298 0 0 0-4.657 0l-3.437 3.436a15.078 15.078 0 0 0-1.742-.72v-4.861a3.296 3.296 0 0 0-3.293-3.292h-3.108a3.296 3.296 0 0 0-3.293 3.292v4.86a14.77 14.77 0 0 0-1.742.721l-3.439-3.436a3.272 3.272 0 0 0-2.328-.964c-.88 0-1.706.342-2.328.964l-2.198 2.196a3.294 3.294 0 0 0 0 4.654l3.439 3.437a15.028 15.028 0 0 0-.721 1.742H15.04a3.296 3.296 0 0 0-3.292 3.291v3.107a3.296 3.296 0 0 0 3.292 3.29h4.864c.204.598.444 1.18.72 1.742l-3.438 3.437a3.295 3.295 0 0 0 0 4.654l2.198 2.197a3.272 3.272 0 0 0 2.328.964c.88 0 1.707-.343 2.328-.964l3.439-3.436a14.87 14.87 0 0 0 1.742.72v4.86a3.296 3.296 0 0 0 3.293 3.292h3.108a3.296 3.296 0 0 0 3.293-3.291v-4.861c.597-.204 1.18-.445 1.742-.72l3.438 3.435a3.272 3.272 0 0 0 2.329.964c.88 0 1.706-.342 2.328-.964l2.197-2.197a3.294 3.294 0 0 0 0-4.654l-3.438-3.436c.276-.563.517-1.146.721-1.742h4.864a3.296 3.296 0 0 0 3.292-3.291v-3.107a3.297 3.297 0 0 0-3.293-3.291zm1.496 6.397c0 .825-.671 1.496-1.497 1.496h-5.52c-.4 0-.75.264-.862.646a13.164 13.164 0 0 1-1.088 2.63.897.897 0 0 0 .152 1.066l3.903 3.9a1.497 1.497 0 0 1 0 2.117l-2.198 2.196a1.487 1.487 0 0 1-1.058.438c-.4 0-.776-.155-1.059-.438l-3.902-3.9a.9.9 0 0 0-1.067-.153c-.827.454-1.712.82-2.63 1.087a.897.897 0 0 0-.647.862v5.517c0 .825-.67 1.497-1.497 1.497h-3.108a1.499 1.499 0 0 1-1.497-1.497V44.5c0-.4-.264-.75-.646-.862a13.137 13.137 0 0 1-2.63-1.087.897.897 0 0 0-1.068.152l-3.902 3.901a1.487 1.487 0 0 1-1.059.438c-.4 0-.775-.155-1.058-.438l-2.198-2.197a1.497 1.497 0 0 1 0-2.115l3.903-3.901a.897.897 0 0 0 .152-1.067 13.152 13.152 0 0 1-1.088-2.629.898.898 0 0 0-.861-.646h-5.52c-.826 0-1.498-.67-1.498-1.496v-3.107c0-.825.671-1.496 1.497-1.496h5.52c.4 0 .75-.263.862-.646.269-.919.635-1.804 1.088-2.63a.897.897 0 0 0-.152-1.066l-3.903-3.9a1.497 1.497 0 0 1 0-2.116l2.198-2.197a1.487 1.487 0 0 1 1.058-.438c.4 0 .776.155 1.059.438l3.902 3.9a.898.898 0 0 0 1.067.153c.827-.454 1.712-.82 2.63-1.087a.898.898 0 0 0 .647-.862v-5.516c0-.825.671-1.497 1.497-1.497h3.108c.825 0 1.497.671 1.497 1.497V17.5c0 .4.264.75.647.862.918.267 1.803.633 2.63 1.087a.9.9 0 0 0 1.067-.152l3.902-3.901a1.5 1.5 0 0 1 2.117 0l2.198 2.196a1.497 1.497 0 0 1 0 2.117l-3.903 3.9a.897.897 0 0 0-.152 1.067c.454.826.82 1.71 1.088 2.629a.898.898 0 0 0 .862.646h5.52c.825 0 1.497.67 1.497 1.496v3.106z" fill="#1977CC"/><path d="M34.07 23.468c-4.185 0-7.59 3.403-7.59 7.585 0 4.183 3.405 7.586 7.59 7.586 4.184 0 7.589-3.403 7.589-7.586s-3.405-7.585-7.59-7.585zm0 13.377a5.8 5.8 0 0 1-5.794-5.791 5.8 5.8 0 0 1 5.793-5.791 5.8 5.8 0 0 1 5.794 5.79 5.8 5.8 0 0 1-5.794 5.792z" fill="#1977CC"/><path d="M34.07 21.497c-5.252 0-9.509 4.255-9.509 9.503s4.258 9.504 9.508 9.504c5.251 0 9.508-4.255 9.508-9.504 0-5.248-4.257-9.503-9.508-9.503zm0 14.94a5.384 5.384 0 1 1 0-10.766 5.384 5.384 0 1 1 0 10.766z" fill="#A2DFFF"/><path d="M34.069 24.773a6.29 6.29 0 0 0-6.284 6.28 6.29 6.29 0 0 0 6.284 6.28 6.29 6.29 0 0 0 6.284-6.28 6.29 6.29 0 0 0-6.284-6.28zm0 10.767a4.492 4.492 0 0 1-4.488-4.486 4.492 4.492 0 0 1 4.488-4.486 4.492 4.492 0 0 1 4.488 4.486 4.492 4.492 0 0 1-4.488 4.486z" fill="#1977CC"/><path d="M34.07 20.6c-5.739 0-10.407 4.665-10.407 10.4 0 5.736 4.668 10.401 10.406 10.401s10.406-4.666 10.406-10.4c0-5.736-4.669-10.402-10.406-10.402zm0 19.006c-4.749 0-8.611-3.86-8.611-8.606s3.862-8.606 8.61-8.606c4.748 0 8.61 3.86 8.61 8.606s-3.863 8.606-8.61 8.606z" fill="#1977CC"/><path d="M45.64 2.247A30.922 30.922 0 0 0 35.25.023a30.92 30.92 0 0 0-10.9 1.547C18.07 3.642 12.723 7.566 8.883 12.92a31.114 31.114 0 0 0-4.278 8.423 30.85 30.85 0 0 0-1.549 9.409c-.004.496.395.9.891.904h.007a.898.898 0 0 0 .898-.89c.024-3.01.515-5.991 1.459-8.862a29.321 29.321 0 0 1 4.031-7.937c3.617-5.043 8.655-8.74 14.57-10.692a29.101 29.101 0 0 1 20.058.637c6.312 2.542 11.561 7.217 14.78 13.165a.898.898 0 0 0 1.579-.854C57.912 9.908 52.34 4.944 45.64 2.247z" fill="#1977CC"/><path d="M7.343 25.861l-3.246 3.44-2.439-3.878a.898.898 0 0 0-1.52.955l3.056 4.86a.896.896 0 0 0 1.413.138l4.043-4.281a.897.897 0 0 0-.037-1.269.897.897 0 0 0-1.27.035z" fill="#1977CC"/></svg>