<svg width="68" height="68" viewBox="0 0 68 68" fill="none" xmlns="http://www.w3.org/2000/svg"><path d="M1.992 37.918L3.918 42.5l-.664 5.18-1.262 3.054v3.52l1.262 2.656 2.789 1.66 3.453 1.528v5.711h28.688V50.734l-.996-3.918L35.66 42.5l2.524-.797v-5.179l-3.32-3.985-1.86-4.45V12.618l-1.926-4.449-4.45-3.785-5.577-2.059-7.903 2.059-4.914 4.715-.996 8.632.996 8.899-2.191 4.648-4.05 6.641z" fill="#fff"/><path d="M13.547 65.61v-5.446h11.09v5.445h-11.09zm-.133-20.919v7.836l5.246.797.996-.797.996-.93 2.457-.398 1.594.664-.465-7.172H13.414z" fill="#A2DFFF"/><path d="M18.062 25.25l-.111-.225-1.901.95.112.225a4.476 4.476 0 0 0 4.025 2.487 4.475 4.475 0 0 0 4.026-2.488l.112-.224-1.901-.951-.112.225a2.363 2.363 0 0 1-2.125 1.313c-.906 0-1.72-.503-2.125-1.313zm6.376-4a1.063 1.063 0 1 0 0-2.125 1.063 1.063 0 0 0 0 2.125zm-8.5 0a1.063 1.063 0 1 0 0-2.125 1.063 1.063 0 0 0 0 2.125z" fill="#1977CC"/><path d="M64.813 27.876l2.25-4.501-5.894-11.786a2.121 2.121 0 0 0 1.519-2.027V7.438a2.127 2.127 0 0 0-2.126-2.125h-30.43c-2.516-2.614-6.04-4.25-9.945-4.25-7.616 0-13.812 6.196-13.812 13.812v11.129c0 2.767-1.223 5.516-3.445 7.739a6.324 6.324 0 0 0-1.868 4.507c0 1.93.875 3.728 2.319 4.908a19.711 19.711 0 0 0-2.318 9.241c0 4.257 3.275 7.758 7.437 8.126v6.413h30.813v-6.376h25.5V27.877zm-5.97-16.189l5.313 10.626H53.89l-3.54-10.625h8.494zm-10.733 0l3.541 10.626H41.276l-1.772-10.625h8.606zm-10.76 0l1.77 10.626H34v-7.438a13.74 13.74 0 0 0-.386-3.188h3.736zM34 26.005v-1.567h4.656l-1.063 2.125h-3.562c-.012-.185-.031-.372-.031-.558zm17.406-1.567l-1.063 2.125h-7.186l-1.063-2.125h9.312zm12.75 0l-1.063 2.125h-7.186l-1.063-2.125h9.312zm-3.594-17v2.125H32.934a13.811 13.811 0 0 0-1.126-2.124h28.755zM3.188 38.25a4.22 4.22 0 0 1 1.245-3.005C7.056 32.621 8.5 29.34 8.5 26.004V14.875c0-6.444 5.243-11.688 11.688-11.688 6.444 0 11.687 5.244 11.687 11.688v11.129c0 3.336 1.444 6.618 4.067 9.241a4.248 4.248 0 0 1-.054 6.06c-2.717-4.018-6.866-7.04-11.787-8.23l-.162-.322c3.32-.745 5.811-3.712 5.811-7.253v-5.313a5.319 5.319 0 0 0-5.313-5.312h-.405a1.73 1.73 0 0 1-.77-.182 1.71 1.71 0 0 1-.95-1.537V13c0-1.06.59-2.015 1.538-2.489l-.951-1.9A4.887 4.887 0 0 0 20.187 13v.155c0 1.465.815 2.783 2.125 3.438a3.866 3.866 0 0 0 1.72.406h.405a3.191 3.191 0 0 1 3.188 3.188V25.5a5.319 5.319 0 0 1-5.313 5.313h-4.25A5.319 5.319 0 0 1 12.75 25.5v-7.998c0-1.215.676-2.307 1.762-2.851l.73-.366a4.213 4.213 0 0 0 2.53 2.32l1.016.339.673-2.015-1.017-.34A2.107 2.107 0 0 1 17 12.587c0-.805.447-1.528 1.167-1.889l.37-.185-.948-1.9-.373.184a4.215 4.215 0 0 0-2.306 3.28l-1.348.673a5.285 5.285 0 0 0-2.937 4.752V25.5c0 3.541 2.49 6.508 5.81 7.253l-.16.323c-4.919 1.19-9.066 4.208-11.783 8.223a4.23 4.23 0 0 1-1.304-3.049zm42.5 15.938h-2.126v-8.5h2.126v8.5zm4.25 0h-2.126v-12.75h2.126v12.75zm4.25 0h-2.126v-17h2.126v17zm-4.25-19.126v4.25h-4.25v4.25h-4.25v10.626h-2.126v-1.789c0-3.3-.84-6.454-2.319-9.243a6.356 6.356 0 0 0 2.32-4.906 6.324 6.324 0 0 0-1.868-4.507 13.58 13.58 0 0 1-.739-.806h21.731v21.25h-2.124V35.064h-6.376zm-26.563 25.5v4.25h-8.5v-4.25h8.5zm1.063-2.124h-4.25v-4.873l1.19-1.191c.2-.199.472-.312.752-.312h.183c.586 0 1.062.477 1.062 1.063v1.063h1.063c1.171 0 2.125.953 2.125 2.124a2.127 2.127 0 0 1-2.125 2.126zm-1.063-8.315a3.173 3.173 0 0 0-1.063-.185h-.182c-.851 0-1.652.332-2.254.933l-1.19 1.191-3.811-.002v-6.373h8.5v4.436zm-3.566-6.56l-1.931-4.25h4.62l-1.931 4.25h-.758zm3.654-6.376h-6.552l-.84-1.848c.38-.11.76-.217 1.151-.3l.5-.108.997-1.993h2.937l.997 1.994.499.107c.39.084.771.191 1.152.3l-.84 1.849zM3.187 52.4c0-3.534 1.075-6.878 2.925-9.697l.066-.09-.008-.006a17.871 17.871 0 0 1 7.888-6.559l3.417 7.516H12.75v8.496l-3.186-.002c-.002-.061-.002-.123-.002-.185v-.23c0-2.294.674-4.518 1.947-6.428l-1.768-1.179a13.677 13.677 0 0 0-2.303 7.608v.23c0 .45.022.901.066 1.35l.094.957 10.464.006v4.252H9.226A6.044 6.044 0 0 1 3.187 52.4zm7.438 8.163h2.125v4.25h-2.125v-4.25zm26.563 4.25h-5.313v-6.27l.796-3.978c.177-.883.267-1.788.267-2.692v-.23c0-2.716-.797-5.346-2.304-7.607l-1.768 1.179a11.563 11.563 0 0 1 1.947 6.429v.23c0 .763-.076 1.527-.226 2.272l-.817 4.084-.017 6.584H25.5v-4.401c1.829-.475 3.188-2.124 3.188-4.1 0-1.975-1.36-3.63-3.188-4.105v-8.645h-2.6l3.416-7.515c6.453 2.736 10.872 9.161 10.872 16.352v12.413zm2.124-6.374v-2.126h21.25v-25.5H35.26a10.79 10.79 0 0 1-.865-2.125h4.512l1.468-2.936 1.468 2.936h9.814l1.468-2.935 1.468 2.936h8.094v29.75H39.314z" fill="#1977CC"/></svg>