<svg width="63" height="62" viewBox="0 0 63 62" fill="none" xmlns="http://www.w3.org/2000/svg"><path d="M19.643 2.037l-2.067 3.101v3.619l1.55 5.686 2.068 1.55-3.618 3.102-4.653 10.339-7.754 2.068-3.618-1.034-1.034 2.584 1.034 3.102h2.068l1.55-2.068h7.754l3.619-1.034 2.584-7.237 3.619 7.237-2.068 11.89V56.83l-2.585 1.034-.516 1.55v1.551h6.72l1.55-1.55V44.942l2.585-5.17h1.034v4.136l2.067 4.652 1.034 7.237-3.101 2.068v3.101l2.067-.517h5.687l1.033-2.584-2.067-6.203 4.135 4.135 7.754 5.17 7.237-5.17 3.618-4.135 2.068-6.72v-11.89H57.38l-5.17-1.55-4.135-3.102-2.068 1.034-3.618-10.856-10.856-4.135h-4.135V3.588L23.779 1.52l-4.136.517z" fill="#fff"/><path d="M35.61 33.348l11.947-4.431 6.72 2.954 6.72 2.215V46.64l-3.733 5.908-4.48 4.43-5.227 2.954-2.987-1.477-5.973-5.169-4.48-4.43V35.563l1.493-2.215z" fill="#E0F4FC"/><path d="M39.286 37.188l8.27-3.102 4.653 2.068 4.653 1.55v8.789l-2.585 4.134-3.102 3.102-3.618 2.068-2.068-1.034-4.135-3.619-3.102-3.101v-9.305l1.034-1.55z" fill="#A2DFFF"/><path d="M42.118 53.428l4.85 3.358a1.034 1.034 0 0 0 1.177 0l4.852-3.358a11.373 11.373 0 0 0 4.898-9.35v-6.853a1.034 1.034 0 0 0-.923-1.028 17.846 17.846 0 0 1-8.795-3.47 1.034 1.034 0 0 0-1.24 0 17.844 17.844 0 0 1-8.794 3.47 1.034 1.034 0 0 0-.924 1.028v6.853a11.372 11.372 0 0 0 4.899 9.35zm-2.832-15.296a19.902 19.902 0 0 0 8.27-3.303 19.903 19.903 0 0 0 8.272 3.303v5.946a9.304 9.304 0 0 1-4.009 7.65l-4.262 2.95-4.262-2.95a9.304 9.304 0 0 1-4.009-7.65v-5.946z" fill="#1977CC"/><path d="M46.523 50.628a1.033 1.033 0 0 0 .817-.4l7.237-9.304-1.634-1.27-6.616 8.503-3.32-2.492-1.24 1.654 4.136 3.102c.179.134.396.207.62.207z" fill="#1977CC"/><path d="M1.034 62a1.034 1.034 0 0 0 1.034-1.034V37.27c0-.029.01-.053.012-.082h1.022c.661 0 1.305-.214 1.837-.608.149.2.23.441.23.69v1.076a1.034 1.034 0 0 0 2.068 0V37.27c0-.793-.293-1.559-.822-2.15h7.146a5.162 5.162 0 0 0 4.904-3.534l1.236-3.703 1.976 5.273L19.66 44.24a1.008 1.008 0 0 0-.017.185v11.66l-.985.326a3.114 3.114 0 0 0-2.116 2.942v1.613A1.034 1.034 0 0 0 17.575 62h6.204a3.102 3.102 0 0 0 3.101-3.102v-14.23l1.673-3.345h.395v3.102c0 .084.01.169.03.25l2.87 11.477-.784.259a3.114 3.114 0 0 0-2.116 2.942v1.613A1.034 1.034 0 0 0 29.982 62h5.779a3.11 3.11 0 0 0 3.053-3.675l-.496-2.635c.46.408.942.788 1.447 1.138l7.205 4.987a1.034 1.034 0 0 0 1.176 0l7.204-4.984a15.507 15.507 0 0 0 6.68-12.753V33.052a1.035 1.035 0 0 0-1.161-1.025l-.259.032a13.681 13.681 0 0 1-12.259-4.838 1.067 1.067 0 0 0-1.588 0c-.147.176-.31.327-.467.494l-1.44-6.323a6.294 6.294 0 0 0-.374-1.178 7.135 7.135 0 0 0-3.897-3.922l-4.364-1.827-.012-.009-3.792-1.585a5.185 5.185 0 0 0-3.699-.088 5.11 5.11 0 0 0 .23-1.441v-5.17a6.202 6.202 0 0 0-1.813-4.39A5.85 5.85 0 0 0 26.07.936h-.022a6.296 6.296 0 0 0-6.632.014 6.195 6.195 0 0 0-2.874 5.221v5.17a5.16 5.16 0 0 0 3.777 4.955l-1.424.601A5.179 5.179 0 0 0 16 20.025l-1.465 4.398L12.704 29l-7.6.95H3.102A3.102 3.102 0 0 0 0 33.052v2.068c.002.33.084.653.239.944A3.204 3.204 0 0 0 0 37.27v23.696A1.034 1.034 0 0 0 1.034 62zm35.525-2.444a1.034 1.034 0 0 1-.798.376h-4.746v-.579a1.045 1.045 0 0 1 .709-.983l1.684-.558a1.034 1.034 0 0 0 .678-1.232l-3.07-12.283V40.29a1.034 1.034 0 0 0-1.034-1.034h-2.068a1.035 1.035 0 0 0-.925.572l-2.068 4.136a1.035 1.035 0 0 0-.109.462V58.9a1.034 1.034 0 0 1-1.034 1.033H18.61v-.579a1.044 1.044 0 0 1 .708-.983l1.685-.558a1.034 1.034 0 0 0 .709-.981V44.518l1.896-10.432h9.476v9.992c.006 3.009.887 5.95 2.536 8.466l1.162 6.161a1.026 1.026 0 0 1-.222.851zM33.717 20.41l4.938 2.062 2.507 8.77c-1.665.64-3.439.947-5.221.905l-4.099-12.52 1.875.783zm13.84 9.024a15.715 15.715 0 0 0 12.406 4.768v9.88a13.441 13.441 0 0 1-5.79 11.05l-6.616 4.577-6.617-4.581a13.44 13.44 0 0 1-5.79-11.05v-9.88a15.716 15.716 0 0 0 12.407-4.764zm-4.975-8.403c.111.261.197.532.255.81l1.705 7.49c-.474.365-.971.699-1.49 1l-2.544-8.903a1.033 1.033 0 0 0-.596-.67l-4.44-1.856.895-2.135L39.79 18.2a5.116 5.116 0 0 1 2.792 2.826v.005zm-17.15-3.846a1.73 1.73 0 0 1-1.753 2.14 1.723 1.723 0 0 1-1.593-1.304l-.05-.207 3.213-1.357.184.728zm.476-13.66c.054.066.11.129.16.196.061.086.124.17.18.258.082.134.156.272.222.414.042.09.09.178.126.27.06.16.109.325.149.492.02.082.05.16.065.243.047.255.07.514.07.774v.246a3.084 3.084 0 0 1-.977-2.895l.005.003zM18.61 6.173c.002-.219.022-.437.058-.653a4.07 4.07 0 0 1 .17-.676c.015-.046.027-.091.044-.136.076-.199.166-.392.272-.577.023-.039.049-.076.074-.115.091-.15.192-.292.301-.428l.058-.07a3.102 3.102 0 0 1-.977 2.901v-.246zm0 5.17V8.837a5.153 5.153 0 0 0 3.102-4.732 5.087 5.087 0 0 0-.346-1.82 3.96 3.96 0 0 1 2.759 0 5.119 5.119 0 0 0 2.756 6.552v2.505a3.101 3.101 0 0 1-3.101 3.101h-2.07a3.102 3.102 0 0 1-3.102-3.101zm-.644 9.337a3.1 3.1 0 0 1 1.735-1.876l.413-.175a3.787 3.787 0 0 0 7.32-1.948l-.264-1.034 2.046-.864a3.117 3.117 0 0 1 2.403 0l2.838 1.187-.895 2.139-1.744-.73a1.034 1.034 0 0 0-.791 0l-.958.392a1.034 1.034 0 0 0-.589 1.278l4.246 12.97H23.461l-2.85-7.6-.006-.012a1.022 1.022 0 0 0-.123-.228l-.012-.017a.774.774 0 0 0-.055-.06 1.042 1.042 0 0 0-.226-.192.963.963 0 0 0-.177-.087 1.037 1.037 0 0 0-.37-.075h-2.7l1.023-3.068zM2.068 33.052a1.034 1.034 0 0 1 1.034-1.034h2.067a.873.873 0 0 0 .128-.008l8.271-1.034a1.034 1.034 0 0 0 .827-.64l1.813-4.52h2.001l-1.706 5.116a3.101 3.101 0 0 1-2.942 2.12H5.169a1.034 1.034 0 0 0-1.034 1.034 1.034 1.034 0 0 1-1.033 1.034H2.068v-2.068z" fill="#1977CC"/></svg>