<svg width="62" height="62" viewBox="0 0 62 62" fill="none" xmlns="http://www.w3.org/2000/svg"><path fill="#fff" d="M31.801 1.096h28.512v55.378H31.801z"/><path d="M37.15 34.878a6.99 6.99 0 0 1-6.03 1.965v-1.588l3.15-3.15a2.997 2.997 0 0 0-3.15-4.934v-4.15a6.995 6.995 0 0 1 6.03 11.857zm1.563 21.697l-3.865-3.873-3.728-3.736v-1.868a6.997 6.997 0 0 1 7.593 9.477zm3.399-52.578l-1-2.997h9.994l-1 2.997h-7.994zm6.985 19.986a7.994 7.994 0 1 0 0-15.988 7.994 7.994 0 0 0 0 15.988zm-2.987 4.122H57.1v3.998H46.11v-3.998zM8.126 55.01a1 1 0 1 0 0-2 1 1 0 0 0 0 2zm24.024 0a.999.999 0 1 0 0-1.999.999.999 0 0 0 0 1.998zM8.126 30.985a1 1 0 1 0 0-2 1 1 0 0 0 0 2z" fill="#A2DFFF"/><path d="M8.126 55.01a1 1 0 1 0 0-2 1 1 0 0 0 0 2z" fill="#A2DFFF"/><path d="M13.072 58.956a6.995 6.995 0 1 1-2.691-11.57 9.034 9.034 0 0 1-.842.971L6.006 51.89a2.998 2.998 0 0 0 4.24 4.24l3.533-3.533c.303-.304.627-.585.97-.842a6.991 6.991 0 0 1-1.677 7.2zM37.15 34.878a6.997 6.997 0 0 1-7.212 1.672c.246-.321.513-.626.8-.913l.382-.382 3.15-3.15a2.997 2.997 0 0 0-3.15-4.934c-.41.149-.782.386-1.09.694l-3.532 3.533a9.11 9.11 0 0 1-.912.798 6.994 6.994 0 1 1 11.564 2.682zM8.126 30.985a1 1 0 1 0 0-2 1 1 0 0 0 0 2z" fill="#A2DFFF"/><path d="M14.734 32.229a9.159 9.159 0 0 1-.955-.831l-3.533-3.532a2.998 2.998 0 1 0-4.24 4.239l3.533 3.533c.29.29.561.6.81.928a6.997 6.997 0 1 1 4.385-4.337zM32.15 55.01a.999.999 0 1 0 0-1.999.999.999 0 0 0 0 1.998z" fill="#A2DFFF"/><path d="M38.713 56.575a6.996 6.996 0 0 1-13.142-4.788c.327.249.636.52.927.81l3.532 3.532a2.998 2.998 0 0 0 4.818-3.427l-3.729-3.736v-.226l-.382-.383a9.03 9.03 0 0 1-.83-.955 6.997 6.997 0 0 1 8.806 9.173zM8.126 55.01a1 1 0 1 0 0-2 1 1 0 0 0 0 2zm0-24.025a1 1 0 1 0 0-2 1 1 0 0 0 0 2zm14.132 8.893a2.999 2.999 0 1 1-4.241 4.241 2.999 2.999 0 0 1 4.241-4.24z" fill="#A2DFFF"/><path d="M32.15 55.01a.999.999 0 1 0 0-1.999.999.999 0 0 0 0 1.998zm2.12-3.12c.237.236.432.51.578.812l-3.728-3.736v-.227l3.15 3.15zm-12.012-7.772a2.997 2.997 0 1 1-4.239-4.239 2.997 2.997 0 0 1 4.24 4.239zM51.106 1l-1 2.997h-7.994l-1-2.997h9.994zM46.11 28.105H57.1v3.998H46.11v-3.998zm2.987-8.119a1 1 0 1 0 0-1.998 1 1 0 0 0 0 1.998zm-1.999-3.234a2.998 2.998 0 0 1 3.997 0h-3.997zM45.1 14.518a5.996 5.996 0 0 1 7.994 0H45.1z" fill="#A2DFFF"/><path d="M49.097 23.983a7.994 7.994 0 1 0 0-15.988 7.994 7.994 0 0 0 0 15.988z" fill="#A2DFFF"/><path d="M22.84 39.171a3.996 3.996 0 1 0 0 5.652 3.97 3.97 0 0 0 0-5.652zm-1.413 4.24a2 2 0 1 1-2.827-2.828 2 2 0 0 1 2.827 2.828zM8.001 55.01a1 1 0 1 0 0-2 1 1 0 0 0 0 2zm24.025-24.026a1 1 0 1 0 0-1.998 1 1 0 0 0 0 1.998zm0 24.025a.999.999 0 1 0 0-1.998.999.999 0 0 0 0 1.998zM8.001 30.985a1 1 0 1 0 0-2 1 1 0 0 0 0 2z" fill="#1977CC"/><path d="M57.976 0H33.993a4.001 4.001 0 0 0-3.997 3.997v9.993H7.012a1 1 0 0 0-1 1v4.996a1 1 0 0 0 2 0v-3.997h21.984v6.225a7.939 7.939 0 0 0-3.569 2.064 8.047 8.047 0 0 0-2.125 7.507 8.014 8.014 0 0 1-8.53.03 8 8 0 1 0-7.75 6.106c.601 0 1.201-.068 1.788-.204a8.012 8.012 0 0 1 .03 8.513 7.991 7.991 0 1 0 3.815 13.433 8.046 8.046 0 0 0 2.128-7.491 8.016 8.016 0 0 1 8.51.031 7.943 7.943 0 0 0-.203 1.786 7.994 7.994 0 0 0 14.94 3.97h18.946a4.002 4.002 0 0 0 3.997-3.997V3.997A4.003 4.003 0 0 0 57.976 0zm-8.382 1.999l-.333.999h-6.554l-.333-1h7.22zM27.84 25.692a5.996 5.996 0 1 1 3.91 10.223l3.102-3.103a3.997 3.997 0 1 0-5.652-5.654l-3.104 3.104a6.024 6.024 0 0 1 1.744-4.57zM3.762 34.17a5.996 5.996 0 1 1 10.221-3.857l-3.155-3.156a3.998 3.998 0 1 0-5.654 5.654l3.107 3.105a6.024 6.024 0 0 1-4.52-1.746zm8.479 24.078a5.995 5.995 0 1 1-3.909-10.223l-3.158 3.157a3.998 3.998 0 1 0 5.654 5.653l3.158-3.158a6.026 6.026 0 0 1-1.745 4.57zm10.665-8.856a10.025 10.025 0 0 0-9.958 2.497l-3.534 3.533a1.999 1.999 0 1 1-2.826-2.826l3.533-3.534a10.089 10.089 0 0 0 1.214-1.47 10 10 0 0 0-1.214-12.661l-3.533-3.534a1.998 1.998 0 0 1 2.826-2.826l3.534 3.533c.256.256.526.498.81.724.175.144.354.278.538.406a10.024 10.024 0 0 0 11.404.023l.003-.002.017-.012c.22-.152.434-.315.642-.488l.009-.007.002-.002c.244-.2.48-.415.707-.642l3.533-3.533a1.999 1.999 0 0 1 2.827 2.826l-3.534 3.534a9.997 9.997 0 0 0-.645.708h-.001l-.008.009c-.173.212-.34.43-.495.654l-.003.004v.001a10.006 10.006 0 0 0 .023 11.41c.127.183.26.362.402.534v.001c.227.283.47.553.727.81l3.534 3.534a1.998 1.998 0 1 1-2.827 2.826L27.08 51.89a10.562 10.562 0 0 0-.664-.608 9.876 9.876 0 0 0-3.51-1.89zm7.09-11.305v7.818a8.014 8.014 0 0 1 0-7.818zm6.324 20.16a5.993 5.993 0 0 1-10.227-4.517l3.107 3.105a3.997 3.997 0 0 0 5.652-5.653l-3.154-3.154a5.993 5.993 0 0 1 4.622 10.22zm23.654-4.286a2.001 2.001 0 0 1-1.998 1.998H39.83a7.986 7.986 0 0 0-7.837-9.94h-.001l.002-.053v-7.994l-.002-.052h.068a7.99 7.99 0 1 0-.066-15.979v-5.953h4.987a1 1 0 0 0 0-1.999h-4.987V3.997A2.001 2.001 0 0 1 33.993 2h6.274l.772 2.314a.998.998 0 0 0 .948.683h7.995a1 1 0 0 0 .948-.683L51.702 2h6.274a2.001 2.001 0 0 1 1.998 1.998v49.965z" fill="#1977CC"/><path d="M56.977 27.106H45.985a1 1 0 0 0-1 1v3.996a1 1 0 0 0 1 1h10.992a1 1 0 0 0 .999-1v-3.997a1 1 0 0 0-1-.999zm-1 3.997h-8.993v-1.998h8.993v1.998zm.999 2.997H45.984a1 1 0 0 0 0 2h10.992a1 1 0 0 0 0-2zm-10.992 4.997h6.995a1 1 0 0 0 0-1.998h-6.995a1 1 0 0 0 0 1.998zm10.992 1H45.984a1 1 0 0 0 0 1.998h10.992a1 1 0 0 0 0-1.998zm.001-2.998h-1a1 1 0 0 0 0 1.998h1a1 1 0 0 0 0-1.998zm-8.005-17.113a1 1 0 1 0 0-1.999 1 1 0 0 0 0 1.999zm1.333-2.489a1.001 1.001 0 0 0 1.61-.414 1 1 0 0 0-.277-1.076 3.998 3.998 0 0 0-5.33 0 1 1 0 0 0 1.332 1.49 1.998 1.998 0 0 1 2.665 0z" fill="#1977CC"/><path d="M52.303 15.262a.999.999 0 1 0 1.333-1.489 6.995 6.995 0 0 0-9.327 0 1 1 0 0 0 1.333 1.49 4.996 4.996 0 0 1 6.661 0z" fill="#1977CC"/><path d="M57.966 15.989a8.994 8.994 0 1 0-8.994 8.993 9.004 9.004 0 0 0 8.994-8.993zm-15.989 0a6.996 6.996 0 1 1 6.995 6.995 7.003 7.003 0 0 1-6.995-6.995z" fill="#1977CC"/></svg>