<svg width="82" height="62" viewBox="0 0 82 62" fill="none" xmlns="http://www.w3.org/2000/svg"><g clip-path="url(#a)"><path d="M78.13 47.678a.469.469 0 0 1-.123-.541 6.27 6.27 0 0 0 .508-2.877c-.18-3.101-2.657-5.64-5.752-5.9a6.3 6.3 0 0 0-1.681.084.469.469 0 0 1-.556-.486 8.06 8.06 0 0 0-8.366-8.506 7.963 7.963 0 0 0-3.66 1.053 14.257 14.257 0 0 1-7.092 1.901h-8.96c-7.792 0-14.125-6.284-14.185-14.076a8.06 8.06 0 0 0-8.549-8.457c-4.018.243-7.275 3.48-7.542 7.497a8.088 8.088 0 0 0 .27 2.69.47.47 0 0 1-.482.593 6.295 6.295 0 0 0-2.94 12.008.47.47 0 0 1 .204.667 8.011 8.011 0 0 0-1.045 3.33l-.003.04a.932.932 0 0 1-.695.833l-.007.002a8.263 8.263 0 0 0-6.168 7.992v4.932a8.328 8.328 0 0 0 8.328 8.328H72.56s1.067.02 2.002-.113c2.821-.406 5.736-2.78 5.736-6.243 0-1.897-.84-3.597-2.168-4.751z" fill="#A2DFFF"/><path d="M78.13 47.678a.468.468 0 0 1-.123-.541 6.27 6.27 0 0 0 .508-2.877c-.18-3.1-2.657-5.64-5.752-5.899a6.3 6.3 0 0 0-1.681.084.469.469 0 0 1-.556-.487 8.06 8.06 0 0 0-8.366-8.506 7.962 7.962 0 0 0-3.66 1.054c-.178.102-.359.198-.54.292a8.059 8.059 0 0 1 7.263 8.472.469.469 0 0 0 .556.487 6.3 6.3 0 0 1 1.68-.084c3.096.26 5.573 2.798 5.754 5.899a6.279 6.279 0 0 1-.509 2.877.468.468 0 0 0 .124.541 6.278 6.278 0 0 1 2.168 4.751c0 2.193-1.169 3.947-2.741 5.044h.305s1.068.021 2.002-.113c2.822-.406 5.737-2.78 5.737-6.243 0-1.897-.84-3.597-2.169-4.751z" fill="#A2DFFF"/><path d="M59.595 19.585H57.79a1.679 1.679 0 0 1-1.679-1.679c0-8.484-6.878-15.363-15.363-15.363-8.484 0-15.362 6.879-15.362 15.363a1.68 1.68 0 0 1-1.68 1.68h-1.803a3.144 3.144 0 0 0-3.143 3.143v30.056h43.978V22.73a3.144 3.144 0 0 0-3.144-3.144z" fill="#fff"/><path d="M59.595 19.585h-1.804a1.679 1.679 0 0 1-1.679-1.679c0-8.484-6.878-15.363-15.362-15.363-2.602 0-5.052.648-7.199 1.79.15-.005.3-.008.45-.008 8.485 0 15.363 6.878 15.363 15.363 0 .927.751 1.679 1.679 1.679h1.803a3.144 3.144 0 0 1 3.144 3.144v28.274h6.749V22.73a3.144 3.144 0 0 0-3.144-3.144z" fill="#fff"/><path d="M49.413 24.288h-5.54a.472.472 0 0 1-.47-.472v-7.339a.472.472 0 0 0-.472-.471h-4.362a.472.472 0 0 0-.472.471v7.34c0 .26-.21.47-.471.47h-5.54a.472.472 0 0 0-.471.472v4.362c0 .26.21.472.471.472h5.54c.26 0 .471.211.471.471v9.801c0 .26.211.472.472.472h4.362c.26 0 .471-.212.471-.472v-9.8c0-.26.212-.472.472-.472h5.54a.47.47 0 0 0 .47-.472V24.76a.472.472 0 0 0-.47-.471z" fill="#4A80AA"/><path d="M49.413 24.288h-5.54a.472.472 0 0 1-.47-.472v-7.339a.472.472 0 0 0-.472-.471h-4.362a.472.472 0 0 0-.472.471v7.34c0 .26-.21.47-.471.47h-5.54a.472.472 0 0 0-.471.472v4.362c0 .26.21.472.471.472h5.54c.26 0 .471.211.471.471v9.801c0 .26.211.472.472.472h4.362c.26 0 .471-.212.471-.472v-9.8c0-.26.212-.472.472-.472h5.54a.47.47 0 0 0 .47-.472V24.76a.472.472 0 0 0-.47-.471z" fill="#B9CBEA"/><path d="M68.204 58.784H13.295a.795.795 0 0 1-.794-.794v-7.027c0-.439.356-.795.794-.795h54.91c.438 0 .794.356.794.795v7.027a.795.795 0 0 1-.795.794z" fill="#fff"/><path d="M68.213 50.168h-2.624v4.42a.786.786 0 0 1-.786.786H12.5v2.624c0 .435.352.787.786.787h54.926a.786.786 0 0 0 .786-.786v-7.045a.786.786 0 0 0-.786-.786z" fill="#fff"/><path d="M41.926 51.78a6.328 6.328 0 0 0-2.02.088.618.618 0 0 1-.738-.51 6.296 6.296 0 0 0-12.507 1.017V54a.622.622 0 0 1-.508.607 6.297 6.297 0 0 0-4.997 5.327.628.628 0 0 0 .625.707h24.713c.26 0 .496-.158.587-.4.319-.849.46-1.784.377-2.761-.254-2.955-2.586-5.36-5.532-5.7z" fill="#A2DFFF"/><path d="M47.458 57.48c-.254-2.955-2.586-5.36-5.532-5.7a6.328 6.328 0 0 0-2.02.088.618.618 0 0 1-.738-.51 6.296 6.296 0 0 0-10.948-3.127c.046 0 .091-.003.138-.003a6.296 6.296 0 0 1 6.213 5.277c.057.351.39.582.738.51a6.333 6.333 0 0 1 2.02-.088c2.946.34 5.278 2.746 5.531 5.7.03.344.03.683.005 1.014h3.63a.625.625 0 0 0 .586-.4 6.29 6.29 0 0 0 .377-2.76z" fill="#A2DFFF"/><path d="M79.148 47.134a7.415 7.415 0 0 0 .417-2.943c-.214-3.685-3.15-6.697-6.83-7.005a7.507 7.507 0 0 0-1.15-.008c-.156-4.416-3.47-8.118-7.794-8.797v-5.652a4.328 4.328 0 0 0-4.323-4.323h-1.804a.5.5 0 0 1-.5-.5c0-9.121-7.42-16.542-16.541-16.542-6.513 0-12.158 3.784-14.854 9.268a9.208 9.208 0 0 0-6.253-1.935c-.379.022-.76.07-1.135.14a1.179 1.179 0 1 0 .434 2.317 6.862 6.862 0 0 1 6.025 1.793 16.483 16.483 0 0 0-.76 4.959.5.5 0 0 1-.5.5h-1.803a4.328 4.328 0 0 0-4.323 4.323v15.33a1.179 1.179 0 1 0 2.358 0V22.73c0-1.084.882-1.965 1.965-1.965h1.804a2.861 2.861 0 0 0 2.858-2.858c0-7.821 6.362-14.184 14.183-14.184s14.184 6.363 14.184 14.184a2.861 2.861 0 0 0 2.858 2.858h1.804c1.083 0 1.964.881 1.964 1.965v26.26H49.516a1.179 1.179 0 1 0 0 2.358h18.176v6.259H48.52s-.007-.15-.014-.227a7.48 7.48 0 0 0-8.41-6.759 7.44 7.44 0 0 0-7.267-5.718 7.48 7.48 0 0 0-6.659 4.087h-6.357v-5.08a1.179 1.179 0 1 0-2.357 0v5.08H13.16a1.967 1.967 0 0 0-1.965 1.965v6.651H9.507c-3.942 0-7.15-3.206-7.15-7.148v-4.932a7.079 7.079 0 0 1 5.276-6.849l.017-.004a2.11 2.11 0 0 0 1.575-1.891l.002-.024a6.795 6.795 0 0 1 .89-2.84c.234-.404.287-.89.146-1.334-.14-.439-.459-.8-.877-.992a5.133 5.133 0 0 1-2.982-4.651 5.122 5.122 0 0 1 5.116-5.116c1.173.2 2.282-.903 1.932-2.076a6.912 6.912 0 0 1-.23-2.3 6.811 6.811 0 0 1 1.422-3.73 1.179 1.179 0 0 0-1.864-1.444 9.159 9.159 0 0 0-1.911 5.018 9.306 9.306 0 0 0 .112 2.193c-3.87.278-6.934 3.515-6.934 7.455a7.5 7.5 0 0 0 3.689 6.445 9.121 9.121 0 0 0-.847 3.05A9.441 9.441 0 0 0 0 45.525v4.932c0 5.242 4.265 9.506 9.507 9.506h10.339a1.8 1.8 0 0 0 .445 1.238c.344.394.84.62 1.363.62h24.713a1.81 1.81 0 0 0 1.69-1.166c.086-.228.158-.459.22-.692h24.416c.52-.004 1.116-.023 1.637-.075 3.895-.388 7.02-3.5 7.02-7.459a7.47 7.47 0 0 0-2.202-5.295zm-65.596 4.213h11.875a7.6 7.6 0 0 0-.072 1.029v1.177a7.466 7.466 0 0 0-4.856 4.052h-6.946v-6.258zm32.42 8.115h-23.65a5.107 5.107 0 0 1 3.935-3.7A1.808 1.808 0 0 0 27.713 54v-1.624a5.122 5.122 0 0 1 5.115-5.116 5.092 5.092 0 0 1 5.05 4.287c.078.484.354.92.757 1.197.401.276.906.377 1.384.279a5.115 5.115 0 0 1 5.953 6.44zm27.92-1.865c-.298.006-.602.009-.602.009h-3.24v-6.652a1.967 1.967 0 0 0-1.964-1.964H63.79V30.777c3.117.666 5.442 3.459 5.442 6.728-.226 1.156.714 2.352 1.938 2.098a5.137 5.137 0 0 1 1.366-.068c2.518.212 4.528 2.272 4.674 4.793.048.813-.091 1.6-.412 2.339a1.642 1.642 0 0 0 .431 1.9 5.115 5.115 0 0 1 1.763 3.862c0 2.804-2.297 5.151-5.1 5.168z" fill="#1977CC"/><path d="M42.93 14.827h-4.36c-.91 0-1.65.74-1.65 1.65v6.632h-4.833c-.91 0-1.65.74-1.65 1.65v4.362c0 .91.74 1.65 1.65 1.65h4.832v9.094c0 .91.74 1.65 1.65 1.65h4.363c.91 0 1.65-.74 1.65-1.65v-9.093h4.832c.91 0 1.65-.74 1.65-1.65v-4.363c0-.91-.74-1.65-1.65-1.65h-4.832v-6.632c0-.91-.74-1.65-1.65-1.65zm5.776 10.64v2.947h-4.832c-.91 0-1.65.74-1.65 1.65v9.094h-2.948v-9.094c0-.91-.74-1.65-1.65-1.65h-4.833v-2.947h4.832c.91 0 1.65-.74 1.65-1.65v-6.632h2.948v6.631c0 .91.74 1.65 1.65 1.65h4.833z" fill="#1977CC"/></g><defs><clipPath id="a"><path fill="#fff" d="M0 0h81.35v62H0z"/></clipPath></defs></svg>