<svg width="71" height="62" viewBox="0 0 71 62" fill="none" xmlns="http://www.w3.org/2000/svg"><g clip-path="url(#a)"><path d="M47.823 24.777c2.37.858 5.225 4.87 2.081 10.609-3.144 5.74-8.685 6.246-10.843 4.608-2.16-1.638-2.065-4.408-.919-5.623 1.463-1.55 2.804-.921 4.034-2.787 1.25-1.895-.055-3.544 1.22-5.494.952-1.459 2.628-1.965 4.427-1.313zm-13.85 24.966c-1.928 1.623-6.83 2.09-10.228-3.502-3.399-5.592-1.067-10.644 1.43-11.695 2.499-1.05 4.85.417 5.33 2.017.611 2.042-.604 2.889.396 4.886 1.017 2.03 3.098 1.725 4.15 3.803.786 1.555.386 3.26-1.078 4.491z" fill="#A2DFFF"/><path d="M68.098 15.859L54.788 5.023a16.752 16.752 0 0 0-10.544-3.735H22.941c-3.623 0-7.176.993-10.275 2.87L6.584 7.84H1.387V28.7H17.21c3.3 0 6.465-1.312 8.8-3.645l6.343-6.342a4.401 4.401 0 0 1 3.112-1.29H47.26a2.93 2.93 0 0 0 2.075-.859c1.6-1.6 1.133-4.058-.483-5.162l.395-.053 13.64 10.628a4.204 4.204 0 0 0 5.36-.488l.139-.139a3.7 3.7 0 0 0-.288-5.492z" fill="#fff"/><path d="M31.36 58.789a1.38 1.38 0 0 1-.553-.116c-1.536-.67-3.149-1.65-5.381-3.007-1.284-.78-2.74-1.665-4.486-2.676-7.31-4.232-16.608-2.514-18.99-1.445a1.384 1.384 0 1 1-1.132-2.526c3.691-1.655 13.79-2.893 21.509 1.576 1.772 1.026 3.24 1.919 4.537 2.706 2.139 1.3 3.685 2.24 5.049 2.835a1.384 1.384 0 0 1-.554 2.653zm4.072.891h-.007a1.384 1.384 0 0 1 0-2.768c.765 0 1.387.62 1.387 1.384a1.38 1.38 0 0 1-1.38 1.384zm4.097-.905a1.384 1.384 0 0 1-.557-2.65c1.357-.597 2.894-1.53 5.022-2.824a231.25 231.25 0 0 1 4.536-2.706c7.719-4.47 17.817-3.231 21.509-1.576a1.384 1.384 0 0 1-1.133 2.526c-2.382-1.069-11.68-2.787-18.99 1.445a232.141 232.141 0 0 0-4.485 2.676c-2.218 1.349-3.821 2.323-5.347 2.992-.18.08-.37.117-.555.117zm2.364-16.585c-1.423 0-2.725-.377-3.669-1.093-1.317-1-2.114-2.428-2.246-4.021-.116-1.397.317-2.763 1.158-3.655.879-.932 1.737-1.27 2.426-1.542.665-.263 1.03-.408 1.459-1.056.37-.562.382-1.076.372-1.936-.012-.99-.027-2.222.844-3.554 1.3-1.99 3.677-2.72 6.057-1.857 1.656.6 3.133 2.159 3.854 4.068.675 1.79 1.045 4.718-1.03 8.507-2.353 4.296-5.664 5.57-7.428 5.946a8.649 8.649 0 0 1-1.797.194zm4.425-16.308c-.732 0-1.35.33-1.764.964-.41.628-.404 1.206-.394 2.008.012.977.027 2.194-.829 3.492-.909 1.379-1.931 1.782-2.753 2.107-.565.223-.973.384-1.43.867-.228.243-.474.788-.413 1.527.039.464.24 1.346 1.162 2.045.515.39 1.665.729 3.215.398 1.3-.278 3.755-1.24 5.579-4.57 1.57-2.865 1.338-4.952.867-6.198-.53-1.406-1.52-2.196-2.207-2.444a3.043 3.043 0 0 0-1.033-.196zM30.65 52.205c-.41 0-.825-.033-1.236-.1-1.887-.31-4.608-1.454-6.852-5.145-2.544-4.187-1.991-7.69-1.435-9.407.659-2.034 1.972-3.635 3.512-4.282 1.524-.641 3.16-.618 4.606.064 1.267.599 2.234 1.657 2.585 2.83.368 1.228.232 2.14.123 2.873-.105.707-.163 1.096.186 1.792.301.601.74.869 1.49 1.29.863.484 1.938 1.088 2.656 2.508 1.073 2.12.516 4.544-1.42 6.174l-.892-1.059.891 1.059c-1.072.902-2.614 1.403-4.215 1.403zm-3.764-16.628a3 3 0 0 0-1.174.245c-.595.25-1.464 1.077-1.952 2.584-.41 1.266-.804 3.873 1.167 7.116 1.698 2.793 3.62 3.636 4.935 3.851 1.483.244 2.662-.22 3.22-.689.96-.808 1.228-1.83.734-2.807-.339-.669-.843-.952-1.542-1.344-.853-.48-1.914-1.075-2.61-2.464-.74-1.477-.578-2.564-.448-3.438.09-.6.154-1.035-.037-1.672-.096-.32-.445-.805-1.115-1.121a2.774 2.774 0 0 0-1.178-.261z" fill="#1977CC"/><path d="M17.21 30.084H1.386c-.764 0-1.383-.62-1.383-1.384V7.84c0-.764.62-1.383 1.383-1.383h4.81l5.752-3.483a21.217 21.217 0 0 1 10.993-3.07h21.302c4.142 0 8.196 1.436 11.415 4.043l13.313 10.838a5.09 5.09 0 0 1 1.875 3.683 5.092 5.092 0 0 1-1.483 3.862l-.138.138a5.587 5.587 0 0 1-7.188.602l-10.386-8.091a4.72 4.72 0 0 1-1.339 2.565 4.289 4.289 0 0 1-3.053 1.264H35.465c-.806 0-1.564.314-2.134.884l-6.343 6.342a13.739 13.739 0 0 1-9.778 4.05zM2.77 27.316h14.44c2.954 0 5.732-1.15 7.82-3.239l6.344-6.342a5.746 5.746 0 0 1 4.09-1.694H47.26a1.54 1.54 0 0 0 1.096-.454c.585-.585.745-1.39.429-2.154a1.922 1.922 0 0 0-1.826-1.22H30.165c-1.03 0-2.03.297-2.894.859l-4.73 3.076a1.383 1.383 0 1 1-1.502-2.325l.018-.011 4.705-3.06a8.057 8.057 0 0 1 4.403-1.307h16.794c.792 0 1.54.185 2.197.524.327-.02.662.073.94.29l13.607 10.6a2.82 2.82 0 0 0 3.565-.348l.138-.138c.471-.471.71-1.096.676-1.76a2.29 2.29 0 0 0-.855-1.68L53.913 6.095a15.413 15.413 0 0 0-9.67-3.423H22.941c-3.37 0-6.676.922-9.559 2.669L7.301 9.024c-.216.13-.464.2-.717.2H2.771v18.092z" fill="#1977CC"/></g><defs><clipPath id="a"><path fill="#fff" d="M0 0h70.857v62H0z"/></clipPath></defs></svg>