<svg width="62" height="62" viewBox="0 0 62 62" fill="none" xmlns="http://www.w3.org/2000/svg"><path d="M10.656 2.712L3.1 9.3v24.994h26.35l.775-1.357-.775-30.225H10.656z" fill="#fff"/><path d="M30.031 8.603v25.303H6.781v25.188H55.22V33.906h-2.945A17.323 17.323 0 0 0 55.19 23.25H37.78V6.781a17.314 17.314 0 0 0-7.75 1.822zm21.313 42.74a3.875 3.875 0 0 0-3.875 3.876H14.53a3.875 3.875 0 0 0-3.875-3.875v-9.688a3.875 3.875 0 0 0 3.875-3.875h32.94a3.875 3.875 0 0 0 3.875 3.875v9.688z" fill="#A2DFFF"/><path d="M31.969 51.344a4.844 4.844 0 1 0 0-9.688 4.844 4.844 0 0 0 0 9.688zM9.688 2.906L2.905 9.687h6.781v-6.78z" fill="#A2DFFF"/><path d="M55.219 32.938h-1.24a18.297 18.297 0 0 0 2.18-9.746.969.969 0 0 0-.97-.91H38.75v-15.5a.969.969 0 0 0-.969-.97A18.165 18.165 0 0 0 31 7.12V2.906a.969.969 0 0 0-.969-.969H9.688A1 1 0 0 0 9 2.219L2.218 9a1 1 0 0 0-.28.688v24.218a.969.969 0 0 0 .968.969h2.906v24.219a.969.969 0 0 0 .97.968h48.437a.97.97 0 0 0 .968-.968V33.906a.97.97 0 0 0-.968-.968zM31 9.232a16.357 16.357 0 0 1 5.813-1.453V23.25a.97.97 0 0 0 .968.969H54.25c.003 3.086-.87 6.11-2.519 8.718H31V9.233zM8.719 5.241v3.478H5.24L8.719 5.24zM3.875 32.938V10.655h5.813a.969.969 0 0 0 .968-.969V3.875h18.407v29.063H3.875zM54.25 58.124H7.75v-23.25h46.5v23.25z" fill="#1977CC"/><path d="M41.656 1.938a.969.969 0 0 0-.968.968v16.469a.97.97 0 0 0 .968.969h17.438v-.01a.964.964 0 0 0 .678-.29c.176-.197.27-.454.261-.717a18.39 18.39 0 0 0-18.377-17.39zm.969 16.468V3.904a16.447 16.447 0 0 1 15.384 14.502H42.625zm8.719 22.282a2.915 2.915 0 0 1-2.907-2.907.97.97 0 0 0-.968-.968H14.53a.97.97 0 0 0-.969.968 2.915 2.915 0 0 1-2.906 2.907.969.969 0 0 0-.969.968v9.688a.969.969 0 0 0 .97.968 2.915 2.915 0 0 1 2.905 2.907.97.97 0 0 0 .97.968h32.937a.97.97 0 0 0 .968-.968 2.915 2.915 0 0 1 2.907-2.907.97.97 0 0 0 .968-.968v-9.688a.97.97 0 0 0-.968-.968zm-.969 9.784a4.854 4.854 0 0 0-3.778 3.778H15.403a4.854 4.854 0 0 0-3.778-3.778v-7.944a4.854 4.854 0 0 0 3.778-3.778h31.194a4.854 4.854 0 0 0 3.778 3.778v7.944z" fill="#1977CC"/><path d="M31.969 40.688a5.812 5.812 0 1 0 0 11.624 5.812 5.812 0 0 0 0-11.624zm0 9.687a3.875 3.875 0 1 1 0-7.75 3.875 3.875 0 0 1 0 7.75zm-15.5-23.25a8.718 8.718 0 1 0-8.719-8.719 8.728 8.728 0 0 0 8.719 8.719zm0-15.5a6.78 6.78 0 1 1-6.782 6.781 6.79 6.79 0 0 1 6.782-6.781z" fill="#1977CC"/><path d="M16.469 21.313a.97.97 0 0 1-.969-.97h-1.938a2.907 2.907 0 0 0 1.938 2.729v1.147h1.938v-1.147a2.9 2.9 0 0 0-.97-5.634.969.969 0 1 1 .97-.97h1.937a2.907 2.907 0 0 0-1.938-2.727v-1.147H15.5v1.147a2.9 2.9 0 0 0 .969 5.634.97.97 0 0 1 0 1.938z" fill="#1977CC"/></svg>