<svg width="62" height="62" viewBox="0 0 62 62" fill="none" xmlns="http://www.w3.org/2000/svg"><g clip-path="url(#a)"><path fill="#fff" d="M7.992 4.48h45.773v34.512H7.992z"/><path d="M24.764 23.432L8.84 32.15l-.727 6.176 45.713-.484v-7.326l-12.351-7.084-8.598 4.722-8.113-4.722z" fill="#A2DFFF"/><path d="M48.673 4.537a.907.907 0 0 0-.907-.908H8.086a.907.907 0 0 0-.907.908v33.582c0 .5.406.907.907.907h45.828a.907.907 0 0 0 .907-.907V4.537a.907.907 0 0 0-.907-.908h-2.282a.907.907 0 1 0 0 1.815h1.374v23.659l-10.283-6.32a2.132 2.132 0 0 0-2.144-.05l-7.715 4.256-6.844-4.207a2.133 2.133 0 0 0-2.143-.05L17.32 26.35a.907.907 0 1 0 .877 1.588l6.556-3.617a.314.314 0 0 1 .317.007l20.961 12.883H8.994v-4.195l5.765-3.18a.907.907 0 1 0-.876-1.59l-4.89 2.698v-25.5h38.773a.907.907 0 0 0 .907-.907zM34.641 28.08l6.815-3.76a.313.313 0 0 1 .316.007l11.234 6.905v5.978h-3.51l-14.855-9.13z" fill="#1977CC"/><path d="M29.091 15.61a3.894 3.894 0 0 0 3.89 3.89 3.894 3.894 0 0 0 3.89-3.89 3.894 3.894 0 0 0-3.89-3.89 3.894 3.894 0 0 0-3.89 3.89zm5.965 0a2.078 2.078 0 0 1-2.075 2.075 2.077 2.077 0 0 1-2.075-2.075c0-1.145.93-2.076 2.075-2.076 1.144 0 2.075.931 2.075 2.075z" fill="#1977CC"/><path d="M59.575 40.84H58.45V1.525C58.45.684 57.767 0 56.927 0H5.073C4.233 0 3.55.684 3.55 1.524v8.525a.907.907 0 1 0 1.815 0V1.815h51.272V40.84H5.364V13.915a.907.907 0 1 0-1.815 0v26.926H2.425a1.66 1.66 0 0 0-1.659 1.658v2.933a1.66 1.66 0 0 0 1.66 1.659H9.93l-.921 2.847H5.14c-.877 0-1.592.714-1.592 1.591v3.075c0 .878.715 1.592 1.592 1.592h1.843l-1.32 4.08A1.317 1.317 0 0 0 6.917 62h2.714c.461 0 .895-.246 1.132-.642l3.087-5.162h34.42l3.087 5.163c.237.395.67.64 1.13.64h2.715a1.316 1.316 0 0 0 1.254-1.722l-1.32-4.081h1.722c.877 0 1.592-.714 1.592-1.592V51.53c0-.878-.715-1.592-1.592-1.592h-3.747l-.92-2.847h7.383a1.66 1.66 0 0 0 1.658-1.659V42.5a1.66 1.66 0 0 0-1.658-1.658zM5.365 54.382v-2.629H8.42l-.85 2.63H5.364zm3.985 5.804H7.6l4.237-13.094h5.345L9.35 60.185zm33.475-13.094l1.702 2.847H17.593l1.703-2.847h23.529zm-27.889 7.29l1.572-2.629h29.105l1.572 2.63H14.936zm41.7-2.629v2.63H54.55l-.85-2.63h2.936zm-2.116 8.433h-1.75l-7.83-13.094h5.344l4.236 13.094zm4.899-14.909H2.58v-2.62h56.84v2.62z" fill="#1977CC"/></g><defs><clipPath id="a"><path fill="#fff" d="M0 0h62v62H0z"/></clipPath></defs></svg>