<svg width="79" height="62" viewBox="0 0 79 62" fill="none" xmlns="http://www.w3.org/2000/svg"><path fill="#fff" d="M21.364 23.738h35.607v21.364H21.364z"/><circle cx="39.167" cy="33.233" r="2.374" fill="#A2DFFF"/><circle cx="67.059" cy="11.275" r="2.967" fill="#E0F4FC"/><circle cx="74.181" cy="33.827" r="2.967" fill="#E0F4FC"/><circle cx="67.059" cy="57.564" r="2.967" fill="#E0F4FC"/><circle cx="11.275" cy="57.564" r="2.967" fill="#E0F4FC"/><circle cx="4.154" cy="35.013" r="2.967" fill="#E0F4FC"/><circle cx="11.275" cy="11.275" r="2.967" fill="#E0F4FC"/><path d="M55.568 47.245h-32.8a3.557 3.557 0 0 1-3.554-3.554V25.153a3.557 3.557 0 0 1 3.554-3.554h32.8a3.557 3.557 0 0 1 3.553 3.554V43.69a3.557 3.557 0 0 1-3.553 3.554zm-32.8-23.272c-.651 0-1.18.53-1.18 1.18V43.69c0 .65.529 1.18 1.18 1.18h32.8c.65 0 1.18-.53 1.18-1.18V25.153c0-.65-.53-1.18-1.18-1.18h-32.8z" fill="#1977CC"/><path d="M51.305 23.973H27.03c-.656 0-1.187-.53-1.187-1.187v-9.463C25.844 5.977 31.821 0 39.167 0c7.347 0 13.325 5.977 13.325 13.323v9.463c0 .656-.532 1.187-1.187 1.187zM28.218 21.6h21.9v-8.276c0-6.037-4.912-10.95-10.95-10.95-6.038 0-10.95 4.913-10.95 10.95V21.6zm10.95 14.401a3.15 3.15 0 0 1-3.148-3.147 3.15 3.15 0 0 1 3.148-3.148 3.15 3.15 0 0 1 3.147 3.148 3.15 3.15 0 0 1-3.147 3.147zm0-3.921a.774.774 0 1 0 .001 1.546.774.774 0 0 0-.001-1.546z" fill="#1977CC"/><path d="M39.168 39.139a1.186 1.186 0 0 1-1.187-1.187v-3.167a1.187 1.187 0 1 1 2.374 0v3.167c0 .656-.532 1.187-1.187 1.187zM20.401 28.022h-9.463c-.655 0-1.187-.53-1.187-1.187V14.16a1.187 1.187 0 1 1 2.374 0v11.49H20.4a1.187 1.187 0 1 1 0 2.373z" fill="#1977CC"/><path d="M10.938 15.346a4.256 4.256 0 0 1-4.252-4.251 4.256 4.256 0 0 1 4.252-4.252 4.256 4.256 0 0 1 4.251 4.252 4.256 4.256 0 0 1-4.251 4.251zm0-6.129a1.88 1.88 0 0 0-1.878 1.878 1.88 1.88 0 0 0 1.878 1.877 1.88 1.88 0 0 0 1.877-1.877 1.88 1.88 0 0 0-1.877-1.878zm0 46.653c-.655 0-1.187-.53-1.187-1.186V42.008c0-.656.532-1.187 1.187-1.187h9.463a1.187 1.187 0 1 1 0 2.374h-8.276v11.489c0 .656-.532 1.187-1.187 1.187z" fill="#1977CC"/><path d="M10.938 62a4.256 4.256 0 0 1-4.252-4.251 4.256 4.256 0 0 1 4.252-4.252 4.256 4.256 0 0 1 4.251 4.252A4.256 4.256 0 0 1 10.938 62zm0-6.13a1.88 1.88 0 0 0-1.878 1.88 1.88 1.88 0 0 0 1.878 1.877 1.88 1.88 0 0 0 1.877-1.877 1.88 1.88 0 0 0-1.877-1.878zM20.4 35.61H7.317a1.187 1.187 0 1 1 0-2.375h13.085a1.187 1.187 0 1 1 0 2.374z" fill="#1977CC"/><path d="M4.251 38.674A4.256 4.256 0 0 1 0 34.422a4.256 4.256 0 0 1 4.251-4.251 4.256 4.256 0 0 1 4.252 4.251 4.256 4.256 0 0 1-4.252 4.252zm0-6.13a1.88 1.88 0 0 0-1.877 1.878A1.88 1.88 0 0 0 4.25 36.3a1.88 1.88 0 0 0 1.878-1.878 1.88 1.88 0 0 0-1.878-1.877zm63.147-4.522h-9.464a1.187 1.187 0 1 1 0-2.374h8.277V14.16a1.187 1.187 0 1 1 2.374 0v12.676c0 .656-.531 1.187-1.187 1.187z" fill="#1977CC"/><path d="M67.398 15.346a4.256 4.256 0 0 1-4.252-4.251 4.256 4.256 0 0 1 4.252-4.252 4.255 4.255 0 0 1 4.25 4.252 4.255 4.255 0 0 1-4.25 4.251zm0-6.129a1.88 1.88 0 0 0-1.878 1.878 1.88 1.88 0 0 0 1.878 1.877 1.88 1.88 0 0 0 1.877-1.877 1.88 1.88 0 0 0-1.877-1.878zm0 46.653c-.655 0-1.187-.53-1.187-1.186V43.195h-8.277a1.187 1.187 0 1 1 0-2.374h9.464c.656 0 1.187.531 1.187 1.187v12.676c0 .656-.531 1.187-1.187 1.187z" fill="#1977CC"/><path d="M67.398 62a4.256 4.256 0 0 1-4.251-4.251 4.256 4.256 0 0 1 4.251-4.252 4.255 4.255 0 0 1 4.25 4.252A4.255 4.255 0 0 1 67.399 62zm0-6.13a1.88 1.88 0 0 0-1.878 1.879 1.88 1.88 0 0 0 1.878 1.877 1.88 1.88 0 0 0 1.877-1.877 1.88 1.88 0 0 0-1.877-1.878zm3.622-20.26H57.934a1.187 1.187 0 1 1 0-2.375H71.02a1.187 1.187 0 1 1 0 2.374z" fill="#1977CC"/><path d="M74.084 38.674a4.256 4.256 0 0 1-4.251-4.252 4.256 4.256 0 0 1 4.251-4.251 4.256 4.256 0 0 1 4.251 4.251 4.256 4.256 0 0 1-4.25 4.252zm0-6.13a1.88 1.88 0 0 0-1.878 1.878 1.88 1.88 0 0 0 1.878 1.878 1.88 1.88 0 0 0 1.877-1.878 1.88 1.88 0 0 0-1.877-1.877z" fill="#1977CC"/></svg>