<svg width="42" height="48" viewBox="0 0 42 48" fill="none" xmlns="http://www.w3.org/2000/svg"><path d="M20.876 48a3.233 3.233 0 0 1-1.1-.198c-3.08-1.1-13.466-5.457-17.34-14.677-2.882-6.865-2.574-18.11-2.2-22.62 0-1.958 1.915-2.685 2.795-3.015C6.794 6.016 16.233 2.165 19.381.405a3.3 3.3 0 0 1 3.168 0c3.212 1.76 12.52 5.59 16.26 7.063a3.696 3.696 0 0 1 2.817 3.015c.264 4.51.572 15.755-2.31 22.62-3.873 9.22-14.193 13.555-17.251 14.677-.379.15-.782.224-1.189.22zm0-45.79a1.167 1.167 0 0 0-.528.131C17.004 4.168 7.674 7.974 3.758 9.603c-1.167.44-1.41.748-1.431 1.1-.242 4.4-.55 15.205 2.2 21.652 3.521 8.384 13.203 12.41 16.041 13.444a.968.968 0 0 0 .704 0c2.86-1.034 12.455-5.06 15.975-13.444 2.685-6.447 2.399-17.295 2.2-21.652 0-.352-.263-.638-1.408-1.1-3.96-1.563-13.202-5.37-16.524-7.196a1.166 1.166 0 0 0-.639-.198z" fill="#4080FE"/><path d="M18.676 30.506a1.124 1.124 0 0 1-.793-.44l-4.4-5.875a1.1 1.1 0 0 1 .22-1.54 1.122 1.122 0 0 1 1.54.22l3.653 4.885 10.782-10.144a1.102 1.102 0 0 1 1.886.77 1.077 1.077 0 0 1-.324.77L19.49 30.154a1.12 1.12 0 0 1-.814.352z" fill="#4080FE"/></svg>