<svg width="43" height="48" viewBox="0 0 43 48" fill="none" xmlns="http://www.w3.org/2000/svg"><path d="M42.226 36.006c-.5-7.867-10.762-9.52-10.762-9.52-2.622-.472-3.69-2.739-4.113-4.207 2.015-2.273 3.425-5.212 4.204-8.075.297-1.091.457-2.23.457-3.363 0-.645-.064-1.273-.172-1.885 1.308-2.21.922-4.672.612-5.856-.094-.36-.45-.537-.817-.537-.04 0-.078.002-.118.006a4.3 4.3 0 0 1-.44.022c-2.344 0-6.217-1.568-6.217-1.568C23.678.51 22.222.209 20.948.06c-1.114-.13-2.242-.06-3.312.292-1.488.49-2.857 1.453-3.967 2.555-.227.226-.421.46-.6.725-2.362.796-2.761 3.86-2.621 6.542-.014.22-.025.442-.025.666 0 4.032 1.7 8.658 4.35 11.705.078.09.158.175.239.26-.517 1.433-1.62 3.262-3.942 3.68 0 0-10.263 1.653-10.763 9.52 0 0-.618 4.111-.1 9.015C.381 46.67 1.903 48 3.557 48h35.42c1.653 0 3.138-1.336 3.288-2.986.403-4.394-.039-9.008-.039-9.008zm-14.753-9.932l.545.607.13.146.164.107.48.312-3.676 5.294-1.44-2.383-.06-.098-.072-.087c-.115-.137-.123-.407-.03-.57l3.959-3.328zM22.15 32.25h-1.793l-.54-.96.214-.353c.14-.167.243-.36.316-.562h1.74c.074.203.177.395.317.562l.242.401-.496.912zm1.297 9.503c.022.084-.043.288-.127.352l-1.78 1.365c-.052.04-.2.04-.252 0l-1.78-1.364c-.094-.073-.17-.294-.147-.396l1.636-7.96h.476l1.974 8.003zm-1.008-13.4a1.849 1.849 0 0 0-.316.522h-1.81a1.849 1.849 0 0 0-.317-.523l-4.253-3.575a8.69 8.69 0 0 0 .457-.917c1.444 1.062 3.16 1.64 4.872 1.64 1.66 0 3.315-.54 4.717-1.702.13-.108.257-.221.384-.335.152.405.345.832.586 1.258l-4.32 3.631zM13.54 5.054a1.49 1.49 0 0 0 .756-.575c.02-.03 2.072-2.98 6.004-2.981 1.255 0 2.59.303 3.97.902l.034.014c.423.171 4.215 1.676 6.771 1.676h.072c.37 1.997.154 5.015-3.764 6.596-.018.007-1.832.712-4.061.712-2.21 0-4.033-.678-5.417-2.015a1.483 1.483 0 0 0-1.529-.33c-.53.19-.91.665-.979 1.229l-.095.777-.472-.335a1.478 1.478 0 0 0-1.795.062 5.01 5.01 0 0 0-.941 1.055c-.375-2.77-.322-6.19 1.446-6.787zm-.849 10.556c-.409-2.27 1.282-3.66 1.282-3.66l2.004 1.422c.112.09.216.134.304.134.163 0 .271-.147.271-.414l.323-2.626c1.97 1.904 4.38 2.431 6.447 2.431 2.57 0 4.607-.816 4.607-.816 1.073-.432 1.918-.958 2.581-1.538.004.099.012.197.012.297 0 .983-.136 1.982-.404 2.966-.996 3.662-2.92 6.881-5.275 8.833A5.847 5.847 0 0 1 21.072 24c-1.942 0-3.83-.89-5.179-2.442-1.387-1.596-2.507-3.723-3.201-5.947zm1.43 11.323l.164-.107.131-.146.545-.607 3.959 3.328c.093.163.084.433-.03.57l-.073.087-.059.098-1.44 2.383-3.675-5.294.479-.312zm26.66 17.943c-.078.864-.923 1.623-1.806 1.623H3.557c-.903 0-1.777-.765-1.87-1.638-.49-4.636.086-8.593.092-8.632l.01-.064.004-.064c.417-6.564 9.423-8.12 9.512-8.135l.013-.002.014-.003a6.37 6.37 0 0 0 .843-.214l4.187 6.031c.219.476.566.72.934.72.294 0 .603-.156.87-.477l.765-1.265.549.977-1.576 7.664c-.146.677.149 1.476.702 1.901l1.78 1.364c.293.225.66.338 1.028.338.367 0 .735-.113 1.028-.338l1.78-1.364c.553-.425.84-1.252.668-1.916l-1.883-7.633h.025l.508-.934.728 1.206c.268.32.576.478.871.478.368 0 .715-.245.934-.72l4.204-6.057c.29.098.597.18.925.24l.013.002.014.002c.09.015 9.092 1.54 9.512 8.135l.001.024.002.024c.005.044.424 4.522.039 8.727z" fill="#4080FE"/></svg>