<svg width="45" height="48" viewBox="0 0 45 48" fill="none" xmlns="http://www.w3.org/2000/svg"><path d="M3.429.857v6.694L.06 15.97c-.04.1-.06.208-.06.317V18a5.143 5.143 0 0 0 3.429 4.843v24.3a.857.857 0 0 0 .857.857h36a.857.857 0 0 0 .857-.857v-24.3A5.143 5.143 0 0 0 44.57 18v-1.714a.855.855 0 0 0-.051-.283L41.143 7.55V.857A.857.857 0 0 0 40.286 0h-36a.857.857 0 0 0-.857.857zm1.44 7.714h6L8.81 15.43H2.126l2.743-6.86zm27.068 0l2.057 6.858h-6.643l-.685-6.858h5.271zM34.286 18a3.429 3.429 0 1 1-6.857 0v-.857h6.857V18zm-17.143 0a3.429 3.429 0 0 1-6.857 0v-.857h6.857V18zm1.714-.857h6.857V18a3.429 3.429 0 1 1-6.857 0v-.857zm6.077-8.572l.686 6.858h-6.669l.686-6.858h5.297zM17.22 15.43h-6.643l2.057-6.858h5.272l-.686 6.858zM1.714 18v-.857h6.857V18a3.429 3.429 0 0 1-6.857 0zM39.43 46.286H5.143V44.57h34.286v1.715zm0-3.429H5.143V23.143a5.144 5.144 0 0 0 4.286-2.306 5.142 5.142 0 0 0 8.571 0 5.142 5.142 0 0 0 8.571 0 5.143 5.143 0 0 0 8.572 0 5.142 5.142 0 0 0 4.286 2.306v19.714zM42.857 18A3.429 3.429 0 0 1 36 18v-.857h6.857V18zm-2.571-2.571h-4.509L33.72 8.57h6l2.743 6.858h-2.177zM5.143 1.714h34.286v5.143H5.143V1.714z" fill="#4080FE"/><path d="M28.285 3.429H7.715a.857.857 0 0 0 0 1.714h20.57a.857.857 0 1 0 0-1.714zm4.286 0h-.857a.857.857 0 1 0 0 1.714h.857a.857.857 0 1 0 0-1.714zm3.429 0h-.857a.857.857 0 1 0 0 1.714H36a.857.857 0 1 0 0-1.714zm-6.857 25.713h-2.22L24.6 26.82a.857.857 0 0 0-1.209 1.208l1.115 1.114h-4.44l1.105-1.105a.857.857 0 0 0-1.208-1.209l-2.315 2.314h-2.22a.857.857 0 0 0-.857.858v2.571a.857.857 0 0 0 .857.857h.755l1.063 5.315a.856.856 0 0 0 .857.685h8.4a.858.858 0 0 0 .857-.685l1.028-5.315h.755a.857.857 0 0 0 .857-.857V30a.857.857 0 0 0-.857-.858zm-12.857 1.715h12v.857h-12v-.857zm9.497 6.857h-6.995l-.857-4.286h8.709l-.857 4.286z" fill="#4080FE"/></svg>