<svg width="179" height="121" viewBox="0 0 179 121" fill="none" xmlns="http://www.w3.org/2000/svg"><path d="M116.573 97.377c26.905 0 48.715-21.798 48.715-48.688 0-26.89-21.81-48.689-48.715-48.689-26.905 0-48.715 21.799-48.715 48.688 0 26.89 21.81 48.689 48.715 48.689z" fill="#E9EAEB"/><path d="M167.731 23.909l-4.072 4.072m14.253-14.252L173.84 17.8m0 6.109l4.072 4.072m-14.253-14.252l4.072 4.072m-20.36 14.252V44.27m-6.108-6.108h12.216" stroke="#BCC0C4" stroke-width="2" stroke-miterlimit="10"/><path fill="#A3D4FF" stroke="#2A5082" stroke-width="2" d="M1 23h117v24.179H1z"/><path fill="#fff" stroke="#2A5082" stroke-width="2" d="M1 46.821h117v72.643H1z"/><path d="M29.929 66.714L46.357 83.2 30.86 98.75" stroke="#2A5082" stroke-width="3"/><path d="M59.09 97.929h30.392" stroke="#2A5082" stroke-width="2"/></svg>