<svg width="161" height="135" viewBox="0 0 161 135" fill="none" xmlns="http://www.w3.org/2000/svg"><path d="M88.573 97.377c26.905 0 48.715-21.798 48.715-48.688C137.288 21.798 115.478 0 88.573 0 61.668 0 39.858 21.799 39.858 48.688c0 26.89 21.81 48.689 48.715 48.689z" fill="#E9EAEB"/><path d="M101.859 28.77h-66.43a6.632 6.632 0 0 1 6.643 6.64v88.524a8.853 8.853 0 0 0 8.857 8.853h57.573V35.41a6.632 6.632 0 0 0-6.643-6.64z" fill="#fff"/><path d="M75.287 13.279H8.857a6.632 6.632 0 0 1 6.643 6.64v84.098c0 4.891 3.964 8.852 8.858 8.852H81.93v-92.95a6.632 6.632 0 0 0-6.643-6.64z" fill="#fff"/><path d="M22.143 112.869h15.5M35.43 28.77h66.429a6.632 6.632 0 0 1 6.643 6.64v86.311M8.857 13.279h66.43a6.632 6.632 0 0 1 6.643 6.64v4.425" stroke="#2A5082" stroke-width="2" stroke-miterlimit="10"/><path d="M50.93 132.787c-4.894 0-8.858-3.961-8.858-8.852V35.41a6.632 6.632 0 0 0-6.643-6.64 6.632 6.632 0 0 0-6.643 6.64v70.82a6.632 6.632 0 0 1-6.643 6.639 6.632 6.632 0 0 1-6.643-6.639V19.918a6.632 6.632 0 0 0-6.643-6.64 6.632 6.632 0 0 0-6.643 6.64v6.64h8.858" stroke="#2A5082" stroke-width="2" stroke-miterlimit="10"/><path d="M59.787 123.934v-2.213h62.001v2.213a8.853 8.853 0 0 1-8.857 8.853H50.929a8.853 8.853 0 0 0 8.858-8.853z" fill="#A3D4FF" stroke="#2A5082" stroke-width="2" stroke-miterlimit="10"/><path d="M139.731 23.91l-4.072 4.071m14.253-14.252l-4.072 4.072m0 6.109l4.072 4.071m-14.253-14.252l4.072 4.072m-20.36 14.252V44.27m-6.108-6.108h12.216" stroke="#BCC0C4" stroke-width="2" stroke-miterlimit="10"/><path d="M78.01 106c1.22-.349 21.99-12.413 21.99-23.441v-23.46c-5.603 0-18.518-6.177-22-9.883-3.482 3.706-16.398 9.882-22 9.882v23.46c0 11.03 20.77 23.094 21.99 23.442h.02z" fill="#fff"/><path d="M78 49.216c-3.482 3.706-16.398 9.882-22 9.882v23.46c0 11.03 20.77 23.094 21.99 23.442h.02c1.22-.349 21.99-12.413 21.99-23.441v-23.46c-5.603 0-18.518-6.177-22-9.883zm16.998 32.217c0 8.518-16.048 17.842-16.988 18.111h-.02c-.94-.269-16.988-9.593-16.988-18.11V63.301c4.322 0 14.307-4.772 16.998-7.63 2.691 2.858 12.676 7.63 16.998 7.63v18.131z" fill="#A3D4FF"/><path d="M78.01 106c1.22-.349 21.99-12.413 21.99-23.441v-23.46c-5.603 0-18.518-6.177-22-9.883-3.482 3.706-16.398 9.882-22 9.882v23.46c0 11.03 20.77 23.094 21.99 23.442h.02z" stroke="#2A5082" stroke-width="2" stroke-miterlimit="10" stroke-linecap="round" stroke-linejoin="round"/><path d="M90.496 90.19c2.56-2.74 4.502-5.798 4.502-8.757v-18.13c-4.322 0-14.307-4.772-16.998-7.632-.97 1.036-2.891 2.312-5.153 3.527m-5.492 2.53c-2.45.946-4.782 1.574-6.353 1.574v18.131c0 8.518 16.048 17.842 16.988 18.111h.02c.41-.12 3.632-1.923 7.173-4.622" stroke="#2A5082" stroke-width="2" stroke-miterlimit="10" stroke-linecap="round" stroke-linejoin="round"/></svg>