<svg width="170" height="120" viewBox="0 0 170 120" fill="none" xmlns="http://www.w3.org/2000/svg"><path d="M98.138 115.21c31.025 0 56.176-25.137 56.176-56.146 0-31.008-25.151-56.145-56.176-56.145-31.025 0-56.176 25.137-56.176 56.145 0 31.009 25.151 56.146 56.176 56.146z" fill="#E9EAEB"/><path fill="#fff" d="M13.778 38.666h104v65.778h-104z"/><path d="M118 26v12H14V26a4.012 4.012 0 0 1 4-4h96a4.013 4.013 0 0 1 4 4zM82 78h8v8h-8v-8zm0-16h8v8h-8v-8zm0-16h8v8h-8v-8zm-16 4h8v44h-8V50zM50 62h8v32h-8V62zm4-52l2-8H12l2 8h40zM34 70h8v24h-8V70z" fill="#A2DFFF"/><path d="M114 20H68V6a6.018 6.018 0 0 0-6-6H6a6.018 6.018 0 0 0-6 6v108a6.016 6.016 0 0 0 6 6h56a6.016 6.016 0 0 0 6-6v-6h46a6.014 6.014 0 0 0 4.237-1.763A6.014 6.014 0 0 0 120 102V26a6.016 6.016 0 0 0-6-6zM53.44 4l-1 4H15.56l-1-4h38.88zM64 114a2 2 0 0 1-2 2H6a2 2 0 0 1-2-2V6a2 2 0 0 1 2-2h4.44l1.62 6.48A2 2 0 0 0 14 12h40a2 2 0 0 0 1.94-1.52L57.56 4H62a2 2 0 0 1 2 2v14H18a6.018 6.018 0 0 0-6 6v76a6.016 6.016 0 0 0 6 6h46v6zm52-12a2 2 0 0 1-2 2H18a2 2 0 0 1-2-2V40h100v62zm0-66H16V26a2 2 0 0 1 2-2h96a2 2 0 0 1 2 2v10z" fill="#2A5082"/><path d="M20 28h4v4h-4v-4zm8 0h4v4h-4v-4zm8 0h4v4h-4v-4zm72 0h4v4h-4v-4zM76 92V50a2 2 0 0 0-2-2h-8a2 2 0 0 0-2 2v42h-4V62a2 2 0 0 0-2-2h-8a2 2 0 0 0-2 2v30h-4V70a2 2 0 0 0-2-2h-8a2 2 0 0 0-2 2v22h-4V44h-4v50a2 2 0 0 0 2 2h82v-4H76zm-36 0h-4V72h4v20zm16 0h-4V64h4v28zm16 0h-4V52h4v40z" fill="#2A5082"/><path d="M90 44h-8a2 2 0 0 0-2 2v8a2 2 0 0 0 2 2h8a2 2 0 0 0 2-2v-8a2 2 0 0 0-2-2zm-2 8h-4v-4h4v4zm2 8h-8a2 2 0 0 0-2 2v8a2 2 0 0 0 2 2h8a2 2 0 0 0 2-2v-8a2 2 0 0 0-2-2zm-2 8h-4v-4h4v4zm2 8h-8a2 2 0 0 0-2 2v8a2 2 0 0 0 2 2h8a2 2 0 0 0 2-2v-8a2 2 0 0 0-2-2zm-2 8h-4v-4h4v4zm8-40h4v4h-4v-4zm8 0h4v4h-4v-4zm-8 8h12v4H96v-4zm0 8h12v4H96v-4zm0 8h12v4H96v-4zm0 8h12v4H96v-4zm0 8h4v4h-4v-4zm8 0h4v4h-4v-4z" fill="#2A5082"/><path d="M157.131 30.49l-4.695 4.696m16.435-16.436l-4.696 4.696m0 7.044l4.696 4.696M152.436 18.75l4.696 4.696m-23.48 16.435V53.97m-7.043-7.045h14.087" stroke="#BCC0C4" stroke-width="2" stroke-miterlimit="10"/></svg>