<svg width="570" height="541" viewBox="0 0 570 541" fill="none" xmlns="http://www.w3.org/2000/svg"><path fill-rule="evenodd" clip-rule="evenodd" d="M541 270.5C541 419.893 419.893 541 270.5 541S0 419.893 0 270.5 121.107 0 270.5 0 541 121.107 541 270.5zM270.5 410c77.044 0 139.5-62.456 139.5-139.5S347.544 131 270.5 131 131 193.456 131 270.5 193.456 410 270.5 410z" fill="#fff" fill-opacity=".3"/><circle cx="270" cy="271" r="115.5" stroke="#fff" stroke-opacity=".5"/><g opacity=".6" fill="#fff"><circle cx="400.272" cy="59.272" r="2.272"/><circle cx="415.719" cy="59.272" r="2.272"/><circle cx="431.166" cy="59.272" r="2.272"/><circle cx="446.613" cy="59.272" r="2.272"/><circle cx="462.061" cy="59.272" r="2.272"/><circle cx="477.508" cy="59.272" r="2.272"/><circle cx="400.272" cy="75.628" r="2.272"/><circle cx="415.719" cy="75.628" r="2.272"/><circle cx="431.166" cy="75.628" r="2.272"/><circle cx="446.613" cy="75.628" r="2.272"/><circle cx="462.061" cy="75.628" r="2.272"/><circle cx="477.508" cy="75.628" r="2.272"/><circle cx="400.272" cy="91.984" r="2.272"/><circle cx="415.719" cy="91.984" r="2.272"/><circle cx="431.166" cy="91.984" r="2.272"/><circle cx="446.613" cy="91.984" r="2.272"/><circle cx="462.061" cy="91.984" r="2.272"/><circle cx="477.508" cy="91.984" r="2.272"/><circle cx="400.272" cy="108.34" r="2.272"/><circle cx="415.719" cy="108.34" r="2.272"/><circle cx="431.166" cy="108.34" r="2.272"/><circle cx="446.613" cy="108.34" r="2.272"/><circle cx="462.061" cy="108.34" r="2.272"/><circle cx="477.508" cy="108.34" r="2.272"/><circle cx="400.272" cy="124.695" r="2.272"/><circle cx="415.719" cy="124.695" r="2.272"/><circle cx="431.166" cy="124.695" r="2.272"/><circle cx="446.613" cy="124.695" r="2.272"/><circle cx="462.061" cy="124.695" r="2.272"/><circle cx="477.508" cy="124.695" r="2.272"/><circle cx="490.229" cy="59.272" r="2.272"/><circle cx="505.676" cy="59.272" r="2.272"/><circle cx="521.124" cy="59.272" r="2.272"/><circle cx="536.571" cy="59.272" r="2.272"/><circle cx="552.018" cy="59.272" r="2.272"/><circle cx="567.465" cy="59.272" r="2.272"/><circle cx="490.229" cy="75.628" r="2.272"/><circle cx="505.676" cy="75.628" r="2.272"/><circle cx="521.124" cy="75.628" r="2.272"/><circle cx="536.571" cy="75.628" r="2.272"/><circle cx="552.018" cy="75.628" r="2.272"/><circle cx="567.465" cy="75.628" r="2.272"/><circle cx="490.229" cy="91.984" r="2.272"/><circle cx="505.676" cy="91.984" r="2.272"/><circle cx="521.124" cy="91.984" r="2.272"/><circle cx="536.571" cy="91.984" r="2.272"/><circle cx="552.018" cy="91.984" r="2.272"/><circle cx="567.465" cy="91.984" r="2.272"/><circle cx="490.229" cy="108.34" r="2.272"/><circle cx="505.676" cy="108.34" r="2.272"/><circle cx="521.124" cy="108.34" r="2.272"/><circle cx="536.571" cy="108.34" r="2.272"/><circle cx="552.018" cy="108.34" r="2.272"/><circle cx="567.465" cy="108.34" r="2.272"/><circle cx="490.229" cy="124.695" r="2.272"/><circle cx="505.676" cy="124.695" r="2.272"/><circle cx="521.124" cy="124.695" r="2.272"/><circle cx="536.571" cy="124.695" r="2.272"/><circle cx="552.018" cy="124.695" r="2.272"/><circle cx="567.465" cy="124.695" r="2.272"/><circle cx="400.272" cy="140.142" r="2.272"/><circle cx="415.719" cy="140.142" r="2.272"/><circle cx="431.166" cy="140.142" r="2.272"/><circle cx="446.613" cy="140.142" r="2.272"/><circle cx="462.061" cy="140.142" r="2.272"/><circle cx="477.508" cy="140.142" r="2.272"/><circle cx="400.272" cy="156.498" r="2.272"/><circle cx="415.719" cy="156.498" r="2.272"/><circle cx="431.166" cy="156.498" r="2.272"/><circle cx="446.613" cy="156.498" r="2.272"/><circle cx="462.061" cy="156.498" r="2.272"/><circle cx="477.508" cy="156.498" r="2.272"/><circle cx="400.272" cy="172.854" r="2.272"/><circle cx="415.719" cy="172.854" r="2.272"/><circle cx="431.166" cy="172.854" r="2.272"/><circle cx="446.613" cy="172.854" r="2.272"/><circle cx="462.061" cy="172.854" r="2.272"/><circle cx="477.508" cy="172.854" r="2.272"/><circle cx="400.272" cy="189.21" r="2.272"/><circle cx="415.719" cy="189.21" r="2.272"/><circle cx="431.166" cy="189.21" r="2.272"/><circle cx="446.613" cy="189.21" r="2.272"/><circle cx="462.061" cy="189.21" r="2.272"/><circle cx="477.508" cy="189.21" r="2.272"/><circle cx="400.272" cy="205.566" r="2.272"/><circle cx="415.719" cy="205.566" r="2.272"/><circle cx="431.166" cy="205.566" r="2.272"/><circle cx="446.613" cy="205.566" r="2.272"/><circle cx="462.061" cy="205.566" r="2.272"/><circle cx="477.508" cy="205.566" r="2.272"/><circle cx="490.229" cy="140.142" r="2.272"/><circle cx="505.676" cy="140.142" r="2.272"/><circle cx="521.124" cy="140.142" r="2.272"/><circle cx="536.571" cy="140.142" r="2.272"/><circle cx="552.018" cy="140.142" r="2.272"/><circle cx="567.465" cy="140.142" r="2.272"/><circle cx="490.229" cy="156.498" r="2.272"/><circle cx="505.676" cy="156.498" r="2.272"/><circle cx="521.124" cy="156.498" r="2.272"/><circle cx="536.571" cy="156.498" r="2.272"/><circle cx="552.018" cy="156.498" r="2.272"/><circle cx="567.465" cy="156.498" r="2.272"/><circle cx="490.229" cy="172.854" r="2.272"/><circle cx="505.676" cy="172.854" r="2.272"/><circle cx="521.124" cy="172.854" r="2.272"/><circle cx="536.571" cy="172.854" r="2.272"/><circle cx="552.018" cy="172.854" r="2.272"/><circle cx="567.465" cy="172.854" r="2.272"/><circle cx="490.229" cy="189.21" r="2.272"/><circle cx="505.676" cy="189.21" r="2.272"/><circle cx="521.124" cy="189.21" r="2.272"/><circle cx="536.571" cy="189.21" r="2.272"/><circle cx="552.018" cy="189.21" r="2.272"/><circle cx="567.465" cy="189.21" r="2.272"/><circle cx="490.229" cy="205.566" r="2.272"/><circle cx="505.676" cy="205.566" r="2.272"/><circle cx="521.124" cy="205.566" r="2.272"/><circle cx="536.571" cy="205.566" r="2.272"/><circle cx="552.018" cy="205.566" r="2.272"/><circle cx="567.465" cy="205.566" r="2.272"/><circle cx="400.272" cy="221.013" r="2.272"/><circle cx="415.719" cy="221.013" r="2.272"/><circle cx="431.166" cy="221.013" r="2.272"/><circle cx="446.613" cy="221.013" r="2.272"/><circle cx="462.061" cy="221.013" r="2.272"/><circle cx="477.508" cy="221.013" r="2.272"/><circle cx="400.272" cy="237.369" r="2.272"/><circle cx="415.719" cy="237.369" r="2.272"/><circle cx="431.166" cy="237.369" r="2.272"/><circle cx="446.613" cy="237.369" r="2.272"/><circle cx="462.061" cy="237.369" r="2.272"/><circle cx="477.508" cy="237.369" r="2.272"/><circle cx="400.272" cy="253.725" r="2.272"/><circle cx="415.719" cy="253.725" r="2.272"/><circle cx="431.166" cy="253.725" r="2.272"/><circle cx="446.613" cy="253.725" r="2.272"/><circle cx="462.061" cy="253.725" r="2.272"/><circle cx="477.508" cy="253.725" r="2.272"/><circle cx="400.272" cy="270.081" r="2.272"/><circle cx="415.719" cy="270.081" r="2.272"/><circle cx="431.166" cy="270.081" r="2.272"/><circle cx="446.613" cy="270.081" r="2.272"/><circle cx="462.061" cy="270.081" r="2.272"/><circle cx="477.508" cy="270.081" r="2.272"/><circle cx="400.272" cy="286.437" r="2.272"/><circle cx="415.719" cy="286.437" r="2.272"/><circle cx="431.166" cy="286.437" r="2.272"/><circle cx="446.613" cy="286.437" r="2.272"/><circle cx="462.061" cy="286.437" r="2.272"/><circle cx="477.508" cy="286.437" r="2.272"/><circle cx="490.229" cy="221.013" r="2.272"/><circle cx="505.676" cy="221.013" r="2.272"/><circle cx="521.124" cy="221.013" r="2.272"/><circle cx="536.571" cy="221.013" r="2.272"/><circle cx="552.018" cy="221.013" r="2.272"/><circle cx="567.465" cy="221.013" r="2.272"/><circle cx="490.229" cy="237.369" r="2.272"/><circle cx="505.676" cy="237.369" r="2.272"/><circle cx="521.124" cy="237.369" r="2.272"/><circle cx="536.571" cy="237.369" r="2.272"/><circle cx="552.018" cy="237.369" r="2.272"/><circle cx="567.465" cy="237.369" r="2.272"/><circle cx="490.229" cy="253.725" r="2.272"/><circle cx="505.676" cy="253.725" r="2.272"/><circle cx="521.124" cy="253.725" r="2.272"/><circle cx="536.571" cy="253.725" r="2.272"/><circle cx="552.018" cy="253.725" r="2.272"/><circle cx="567.465" cy="253.725" r="2.272"/><circle cx="490.229" cy="270.081" r="2.272"/><circle cx="505.676" cy="270.081" r="2.272"/><circle cx="521.124" cy="270.081" r="2.272"/><circle cx="536.571" cy="270.081" r="2.272"/><circle cx="552.018" cy="270.081" r="2.272"/><circle cx="567.465" cy="270.081" r="2.272"/><circle cx="490.229" cy="286.437" r="2.272"/><circle cx="505.676" cy="286.437" r="2.272"/><circle cx="521.124" cy="286.437" r="2.272"/><circle cx="536.571" cy="286.437" r="2.272"/><circle cx="552.018" cy="286.437" r="2.272"/><circle cx="567.465" cy="286.437" r="2.272"/></g></svg>