<svg width="481" height="448" viewBox="0 0 481 448" fill="none" xmlns="http://www.w3.org/2000/svg"><circle cx="257" cy="224" r="223.5" stroke="#fff" stroke-opacity=".5"/><mask id="a" maskUnits="userSpaceOnUse" x="0" y="223" width="127" height="133"><path fill="#C4C4C4" d="M0 223h126.501v132.583H0z"/><path stroke="#fff" stroke-opacity=".5" d="M.5 223.5h125.501v131.583H.5z"/></mask><g mask="url(#a)" stroke="#fff" stroke-opacity=".5"><path d="M112.672 223l327.064 327.064M100.154 223l327.064 327.064M87.635 223l327.064 327.064M75.115 223l327.064 327.064M62.596 223L389.66 550.064M50.077 223L377.14 550.064M37.557 223l327.064 327.064M25.038 223l327.064 327.064M12.52 223l327.064 327.064M0 223l327.064 327.064M-12.52 223l327.064 327.064M-25.038 223l327.064 327.064M-37.557 223l327.064 327.064M-50.077 223l327.064 327.064M-62.596 223l327.064 327.064M-75.115 223l327.064 327.064M-87.635 223L239.43 550.064M-100.154 223L226.91 550.064M-112.672 223l327.064 327.064M-125.192 223l327.064 327.064M-137.711 223l327.064 327.064M-150.23 223l327.064 327.064M-162.75 223l327.064 327.064M-175.269 223l327.064 327.064M-187.787 223l327.064 327.064M-200.307 223l327.064 327.064M-212.826 223l327.064 327.064M-225.345 223l327.064 327.064M-237.865 223L89.199 550.064M-250.384 223L76.68 550.064M-262.903 223L64.161 550.064"/></g></svg>