<svg width="95" height="100" viewBox="0 0 95 100" fill="none" xmlns="http://www.w3.org/2000/svg"><mask id="a" maskUnits="userSpaceOnUse" x="0" y="0" width="95" height="100"><path fill="#C4C4C4" stroke="#F5AC4C" d="M.5.5h93.501v98.044H.5z"/></mask><g mask="url(#a)" stroke="#F5AC4C"><path d="M84.17 0L328.5 244.329M74.819 0l244.329 244.329M65.466 0l244.329 244.329M56.114 0l244.329 244.329M46.761 0L291.09 244.329M37.41 0l244.328 244.329M28.057 0l244.329 244.329M18.705 0l244.329 244.329M9.352 0l244.329 244.329M0 0l244.329 244.329M-9.352 0l244.329 244.329M-18.705 0l244.329 244.329M-28.057 0l244.329 244.329M-37.41 0l244.33 244.329M-46.761 0l244.328 244.329M-56.114 0l244.329 244.329M-65.466 0l244.329 244.329M-74.819 0L169.51 244.329M-84.17 0l244.328 244.329M-93.523 0l244.329 244.329M-102.875 0l244.329 244.329M-112.228 0l244.329 244.329M-121.58 0l244.329 244.329M-130.932 0l244.329 244.329M-140.284 0l244.329 244.329M-149.637 0l244.33 244.329M-158.989 0L85.34 244.329M-168.342 0l244.33 244.329M-177.694 0l244.33 244.329M-187.046 0L57.283 244.329M-196.398 0L47.931 244.329"/></g></svg>