<svg width="525" height="511" viewBox="0 0 525 511" fill="none" xmlns="http://www.w3.org/2000/svg"><path opacity=".25" d="M106.308 477.854l-49.42-28.537c-84.266-48.651-73.698-133.628 23.604-189.81 11.531-6.656 23.767-12.616 36.521-17.855 94.8-38.999 404.343 94.524 396.941 131.021-6.567 32.374-33.135 65.146-78.879 91.552-97.31 56.182-244.503 62.28-328.767 13.629z" fill="#CCE1FF"/><path d="M378.569 226.898s-25.662-51.534-1.077-79.042c24.576-27.508-14.349-73.244 28.309-101.537C448.46 18.025 443.82 0 443.82 0s26.439 65.956 4.243 97.496c-22.195 31.541-23.37 89.432-33.33 104.21-9.96 14.778-20.981 48.035-20.981 48.035l-15.183-22.843z" fill="#008CE3"/><path d="M391.047 199.042s6.859-50.676 24.99-96.841c10.381-26.423 31.346-76.086 29.119-93.043" stroke="#B4C4F0" stroke-width="3.585" stroke-miterlimit="10" stroke-linecap="round" stroke-linejoin="round"/><path d="M378.974 260.682s24.933-94.565 72.086-122.332c47.161-27.768 73.94-5.11 73.94-5.11s-23.127 3.49-40.011 26.714c-16.883 23.224-33.411 36.003-45.015 43.623-11.604 7.62-27.079 49.226-27.079 49.226l-33.921 7.879z" fill="#36ADF7"/><path d="M411.422 209.844s32.293-50.513 50.91-57.405c18.625-6.891 36.415-21.807 52.271-20.479" stroke="#B6CFF0" stroke-width="3.585" stroke-miterlimit="10" stroke-linecap="round" stroke-linejoin="round"/><path d="M255.621 272.107l-144.755-83.569 143.848-83.05 146.18 83.399-145.273 83.22z" fill="#EDF7FF"/><path d="M255.622 272.107l.186 112.121 145.086-83.115V188.887l-145.272 83.22z" fill="url(#a)"/><path d="M111.078 188.53v112.081l144.754 83.576v-112.08L111.078 188.53z" fill="#CCE9FF"/><path d="M62.628 377.614c.032-5.921-8.255-10.766-18.51-10.822-10.255-.055-18.594 4.7-18.627 10.621-.032 5.921 8.256 10.766 18.51 10.822 10.255.056 18.595-4.699 18.627-10.621z" fill="#DBEFFF"/><path d="M55.6 378.649l-7.434-2.519-2.234 1.79c-1.175 1.53-1.677 2.413-1.086 3.927.494 1.271 2.705 1.798 3.952 1.911l5.766-.081c4.178.097 4.696-1.328 4.972-2.599.178-1.482-1.442-2.057-3.936-2.429zm-16.649-10.332l-7.693 1.571-1.036 2.672c-.251 1.911-.235 2.931 1.036 3.943 1.07.851 3.247.195 4.381-.34l4.94-2.972c3.66-2.016 3.385-3.514 2.988-4.745-.583-1.384-2.276-1.069-4.616-.129z" fill="#1737A2"/><path opacity=".46" d="M47.64 267.144l-.09.802s-.258 2.429-2.445.826c-2.186-1.603-1.668-4.608-1.668-4.608s1.839.065 4.203 2.98z" fill="#fff"/><path d="M45.073 268.845c2.858 2.073 3.174-.761 3.174-.761l.024.016.049-.972c-3.012-3.49-5.231-3.676-5.231-3.676s-.875 3.32 1.984 5.393zm-1.53-4.543s1.773.17 4.08 2.875l-.08.696s-.235 2.106-2.357.559c-2.13-1.547-1.644-4.13-1.644-4.13z" fill="#513554"/><path d="M49.325 268.796l-1.717-1.118.056-1.053 1.717 1.118-.056 1.053zm-6.204-4.519l-.307-.194c-.162-.106-.292-.381-.276-.608.008-.227.154-.324.324-.218l.308.194c.162.105.291.38.275.607-.016.227-.162.324-.324.219zm11.102 7.223l-.307-.194c-.162-.105-.292-.381-.276-.607.008-.227.154-.324.324-.219l.308.194c.162.106.291.381.275.608-.016.226-.162.324-.324.218z" fill="#513554"/><path d="M54.086 270.601s-2.09-2.616-5.264-3.15l-.048.972.024.016s0 3.036 2.883 4.697c2.883 1.66 2.405-2.535 2.405-2.535zm-2.462 2.016c-2.146-1.231-2.146-3.49-2.146-3.49l-.008-.753c2.43.373 4.106 2.454 4.106 2.454s.194 3.028-1.952 1.789z" fill="#1737A2"/><path d="M49.827 269.726c-.065-.105-.073-.227-.017-.267l.64-.527c.057-.048.154 0 .21.106.065.105.074.226.017.267l-.64.526c-.057.041-.146 0-.21-.105z" fill="#2C4482"/><path d="M43.704 265.605c-.064-.106-.072-.227-.016-.268l.64-.526c.057-.048.154 0 .21.105.065.106.073.227.017.268l-.64.526c-.049.04-.146 0-.21-.105z" fill="#FCFEFF"/><path d="M38.668 280.675l1.74-7.766 4.738 3.191-1.425 7.069c-.138 1.142-5.393.146-5.053-2.494z" fill="#FFC2B0"/><path d="M43.13 261.306s-4.203-3.968-5.442 3.968c-.858 5.522 1.782 10.818 5.992 13.653 2.624 1.765 6.333.558 6.9-2.171 1.271-3.911 1.846-7.668 1.012-11.094.68-3.287-1.773-2.453-5.693-3.255l-2.77-1.101z" fill="#FFC2B0"/><path d="M38.14 276.327s-5.125-2.827-3.465-10.39c1.798-8.187 9.288-6.332 13.58-6.105 1.895.097 3.239.024 4.9 2.024 1.513 1.814-.64 5.061-3.175 4.915-1.004-.056-.948 2.681-1.288 3.563-.599 1.579-1.733 2.219-2.348 3.741-.575 1.442-3.134 3.45-4.592 3.401-2.59-.089-3.611-1.149-3.611-1.149z" fill="#1737A2"/><path d="M54.061 271.727l-7.11-.373a.473.473 0 0 1-.437-.486.473.473 0 0 1 .486-.437l7.11.372a.474.474 0 0 1 .437.486.462.462 0 0 1-.486.438z" fill="#1737A2"/><path d="M47.85 272.659c-.08 1.328-.923 2.349-1.87 2.292a1.195 1.195 0 0 1-.3-.057c-.793-.251-1.336-1.271-1.263-2.445.081-1.328.923-2.349 1.87-2.292.948.057 1.653 1.182 1.563 2.502z" fill="#FFC2B0"/><path d="M64.58 299.502a1.997 1.997 0 0 1-1.239-2.542l1.539-4.47a1.998 1.998 0 0 1 2.542-1.239 1.998 1.998 0 0 1 1.24 2.543l-1.54 4.47a2.01 2.01 0 0 1-2.542 1.238zm-32.318-8.082c2.13 4.244 5.653 7.871 10.18 9.483 6.267 2.227 12.753-.494 17.774-4.276 2.25-1.692.04-5.547-2.235-3.822-4.065 3.061-9.207 5.758-14.358 3.83-3.441-1.287-5.927-4.243-7.53-7.442-1.288-2.558-5.11-.315-3.83 2.227z" fill="#EDB2A1"/><path d="M42.49 330.25c2.947 8.656 3.223 17.952 2.94 27.006-.211 6.737-1.264 13.531-1.102 20.268.105 4.421 6.996 4.438 6.883 0-.17-6.94.931-13.928 1.117-20.868.26-9.425-.145-19.232-3.206-28.236-1.417-4.171-8.066-2.381-6.632 1.83zm-13.855-7.759c1.554 5.652 2.25 11.475 2.818 17.297.332 3.401.72 6.632.364 10.017-.72 6.842-1.992 13.806-1.943 20.698.024 4.429 6.915 4.437 6.883 0-.04-7.005 1.263-14.082 1.984-21.03.364-3.498-.122-6.908-.462-10.406-.615-6.178-1.344-12.405-2.988-18.406-1.19-4.267-7.83-2.453-6.656 1.83z" fill="#3856A6"/><path d="M34.279 331.593c.64.713-2.098-2.753-1.28-2.259 1.7 1.028 11.264 7.523 13.256 7.555 2.405.041 1.004-2.283 2.794-3.887 1.7-1.522 2.097-4 2.26-6.267.048-.632.08-1.288-.17-1.863-.268-.623-.835-1.069-1.377-1.482-4.244-3.215-12.6-11.166-18.536-8.624-6.859 2.94.008 13.418 3.053 16.827z" fill="#3856A6"/><path d="M29.29 280.715c-1.255 1.619-1.11 2.623-1.044 4.834a4.941 4.941 0 0 0 3.611 4.624l21.29 5.968s1.222-8.187-2.973-10.657a645.797 645.797 0 0 1-8.526-5.134c-4.058-2.453-9.45-3.376-12.358.365z" fill="#18BDF7"/><path d="M28.173 319.196c-1.352-.526-1.028-23.815.187-36.683l23.96 11.402c-.12 10.948-1.505 19.588-.194 32.933l-23.953-7.652z" fill="#18BDF7"/><path d="M44.133 329.237c-5.919-2.162-11.555-4.527-14.875-8.584-1.628-.939-1.425-2.599.462-3.684 1.878-1.085 4.745-1.207 6.372-.267l14.876 8.583c1.628.94 1.425 2.6-.462 3.685-1.878 1.085-4.745 1.206-6.373.267z" fill="#18BDF7"/><path d="M52.32 293.915l-3.951-1.878c-.162 10.672-1.474 19.248-.178 32.35l-.065-.024c.024.745-.502 1.53-1.555 2.137-1.879 1.086-4.745 1.207-6.373.268-2.842-1.037-5.62-2.122-8.106-3.418 3.272 2.503 7.572 4.252 12.042 5.879 1.627.94 4.494.818 6.373-.267 1.052-.607 1.579-1.401 1.554-2.138l.065.025c-1.312-13.337.073-21.978.195-32.934z" fill="#18BDF7"/><path d="M47.47 283.331c-5.498-.826-9.207 2.632-10.52-5.287a1.756 1.756 0 0 1 2.374.518c.939 1.36 2.947 2.227 5.166 1.951a1.75 1.75 0 0 1 1.676.786l1.304 2.032z" fill="#fff"/><path d="M47.307 291.016c.26 3.555.252 7.28 1.482 10.665 1.15 3.158 2.616 7.207 5.231 9.466 6.924 5.968 11.734-7.24 13.16-11.701.866-2.721-3.41-3.887-4.276-1.175-.956 3.005-2.025 6.786-4.333 9.094-1.101 1.101-1.441.956-2.42-.445-3.41-4.867-3.993-10.187-4.414-15.896-.21-2.834-4.64-2.859-4.43-.008z" fill="#EDB2A1"/><path d="M46.077 290.943c1.344 11.329 4.915 18.536 9.863 22.204 2.6 1.442 5.037-2.664 4.04-5.15-4.931-4.381-6.656-11.215-7.125-19.013-.648-1.587-2.478-2.438-4.236-1.984-1.838.478-2.955 2.219-2.542 3.943z" fill="#18BDF7"/><path d="M59.875 306.441c.413 1.741.947 5.604-1.968 7.005a1.64 1.64 0 0 1-1.376.008l-.891-.397a1.661 1.661 0 0 1-.761-2.348c.631-1.101 1.393-2.648 1.733-4.203.218-.996 1.247-1.587 2.21-1.231l.017.008c.51.179.906.616 1.036 1.158z" fill="#fff"/><path d="M64.524 299.291l-4.802-3.579c-.283-.211-.372-.672-.194-1.037l4.705-9.547c.178-.364.559-.494.842-.283l4.778 3.482c.283.21.372.672.194 1.036l-4.68 9.499c-.122.243-.243.267-.486.332l-.357.097z" fill="#18BDF7"/><path d="M65.075 289.639s-5.725 5.401-5.547 5.037l4.713-9.879.453-.049a.528.528 0 0 1 .389.089l4.778 3.482a.726.726 0 0 1 .267.446l-5.053.874z" fill="#18BDF7"/><path d="M64.03 299.234l-4.761-3.482c-.284-.21-.356-.672-.178-1.036l4.704-9.547c.179-.365.551-.494.834-.284l4.754 3.482c.283.211.356.672.178 1.037l-4.705 9.547c-.178.356-.534.486-.826.283z" fill="#1737A2"/><path d="M69.383 290.158l-.268.543c-.016.04 0 .056.049.048l-.008-.008c.048-.008.08-.057.097-.089l.267-.543c.017-.04.017-.056-.032-.048v.008a.148.148 0 0 0-.105.089zm-.47.955l-.267.542c-.016.041 0 .057.049.049l-.008-.008c.048-.008.08-.057.097-.089l.267-.543c.016-.04.016-.056-.032-.048v.008a.146.146 0 0 0-.106.089z" fill="#45446C"/><path d="M64.783 297.656l-4.688-3.417 4.121-8.422 4.657 3.401-4.163 8.203c-.032.065.13.284.073.235z" fill="#DBEDFF"/><path d="M67.569 287.801l-1.474-1.077c-.048-.04-.064-.121-.032-.186s.105-.089.154-.048l1.474 1.077c.048.04.064.121.032.186-.032.056-.105.081-.154.048z" fill="#8787CC"/><path d="M66.427 297.891l.575-1.191c-.461-.016-.996 1.871-.988 1.49l.017-5.32c.008-.38.396-.68.858-.672.462.016.826.332.818.713l-.073 2.623c-.016.389-.745 2.373-1.207 2.357z" fill="#EDB2A1"/><path d="M191.261 439.26l-91.942-53.089 91.375-52.748 92.848 52.975-92.281 52.862z" fill="#EDF7FF"/><path d="M191.261 439.26l.089 51.647 92.192-52.813v-51.696l-92.281 52.862z" fill="url(#b)"/><path d="M99.449 386.172v51.679l91.949 53.081v-51.68l-91.95-53.08z" fill="#CCE9FF"/><path opacity=".4" d="M339.336 216.257L256.44 169.33c-.956-.542-.859-1.506.226-2.137l38.885-22.666c1.086-.631 2.754-.704 3.717-.162l82.897 46.926c.955.543.858 1.507-.227 2.138l-38.885 22.666c-1.085.631-2.754.704-3.717.162z" fill="#A8C4E5"/><path d="M346.421 125.635c1.733.996 3.093 3.183 3.053 4.875l-2.057 76.904c-.041 1.701-1.482 2.259-3.215 1.255l-127.539-73.673c-1.733-.996-3.093-3.182-3.053-4.875l2.057-76.904c.049-1.692 1.482-2.259 3.215-1.255l127.539 73.673z" fill="#E5F2FF"/><path d="M352.705 109.367v-.049c0-.048-.008-.089-.008-.137a.486.486 0 0 0-.016-.106v-.024a.634.634 0 0 1-.017-.129l-.024-.13v-.032c-.008-.033-.016-.065-.016-.089-.008-.041-.024-.09-.033-.13-.008-.024-.008-.041-.016-.065 0-.008-.008-.016-.008-.024 0-.016-.008-.024-.008-.041-.016-.04-.024-.089-.04-.129-.017-.041-.025-.081-.041-.122v-.008c-.016-.04-.032-.089-.048-.129-.017-.041-.033-.089-.049-.13-.008-.008-.008-.024-.016-.032 0-.008-.008-.016-.008-.025a.289.289 0 0 0-.033-.072c-.016-.041-.04-.081-.056-.122l-.049-.097c0-.008-.008-.008-.008-.016s-.008-.008-.008-.016c-.016-.041-.041-.081-.057-.122-.016-.04-.04-.073-.057-.113l-.024-.049c0-.008-.008-.016-.008-.024l-.024-.049a1.48 1.48 0 0 1-.065-.113 1.234 1.234 0 0 0-.073-.113l-.008-.009c0-.008-.008-.008-.008-.016a1.064 1.064 0 0 0-.081-.121c-.024-.041-.049-.073-.073-.114l-.049-.072c-.008-.009-.016-.025-.024-.033-.04-.057-.089-.121-.129-.178a.226.226 0 0 1-.041-.057l-.008-.008c-.057-.073-.122-.146-.178-.218-.008-.009-.016-.025-.024-.033a.578.578 0 0 1-.025-.024c-.024-.024-.04-.049-.065-.073a1.39 1.39 0 0 0-.113-.121c-.016-.017-.024-.033-.04-.049l-.025-.024c-.016-.017-.024-.033-.04-.041-.033-.04-.073-.073-.105-.113l-.081-.081-.017-.016-.016-.017c-.04-.04-.081-.072-.121-.105a1.425 1.425 0 0 0-.122-.105l-.121-.097c-.041-.033-.089-.065-.13-.097-.008-.009-.008-.009-.016-.009-.008-.008-.016-.008-.016-.016a3.508 3.508 0 0 1-.097-.073c-.041-.032-.089-.056-.13-.089a.175.175 0 0 0-.04-.024c-.008 0-.008-.008-.008-.008-.025-.016-.049-.033-.081-.049-.041-.024-.09-.056-.13-.081a610.499 610.499 0 0 0-3.085-1.781l-.016.008-124.001-71.624s-.008 0-.008-.008l-.186-.106a4.664 4.664 0 0 1-.332-.194.971.971 0 0 0-.13-.065c-.04-.024-.089-.04-.129-.065-.041-.016-.089-.04-.13-.056-.048-.016-.089-.04-.137-.057a1.71 1.71 0 0 1-.13-.049c-.049-.016-.097-.032-.138-.04h-.024c-.04-.008-.081-.024-.121-.032-.025-.009-.041-.009-.057-.017-.016 0-.032-.008-.049-.008-.016 0-.024-.008-.04-.008l-.146-.024h-.016c-.057-.008-.113-.008-.17-.016h-.203c-.04 0-.081.008-.121.008-.024 0-.041 0-.065.008h-.016a1.864 1.864 0 0 0-.227.057h-.016c-.008 0-.016.008-.024.008a1.959 1.959 0 0 0-.267.121l-3.175 1.854c.081-.048.17-.08.259-.113.033-.008.073-.024.106-.032.04-.008.089-.024.129-.033l.162-.024c.024 0 .041-.008.065-.008.081-.008.154-.008.243 0h.048c.081.008.17.016.26.032h.016c.089.017.186.04.283.065.008 0 .016.008.024.008.098.025.187.065.284.097.008 0 .016.008.032.008.106.041.203.09.308.138.04.025.089.04.13.065.032.016.064.04.097.057l.696.404 123.806 71.511-.113.073s3.231 1.717 3.271 1.741c.041.025.089.057.13.081.04.033.089.057.129.089.041.033.089.065.13.098.016.016.032.024.057.04.064.057.137.105.202.162.065.057.138.113.202.178a.578.578 0 0 1 .025.024c.064.057.121.122.186.179l.024.024c.057.057.114.121.17.186l.033.032c.056.065.113.122.162.187.024.032.056.065.081.097l.097.121c.04.049.073.098.105.146l.073.097c.016.025.04.057.057.089.032.049.073.098.105.154.008.016.016.025.024.041.049.073.089.137.13.21 0 .008.008.008.008.016.04.073.089.154.129.227.008.008.009.016.017.024.04.073.081.146.113.227.008.008.008.016.016.033l.097.218c.008.008.008.025.017.033.032.073.056.145.089.218.008.008.008.025.016.033l.073.218c0 .008.008.025.008.033.024.073.04.145.065.226 0 .009.008.017.008.033.016.073.032.146.048.227.008.04.016.072.016.113.009.04.017.089.017.13.008.048.008.089.016.137.008.049.008.089.008.138 0 .048.008.097.008.146v.113s0 .073-.008.202l-.324 12.147a24.475 24.475 0 0 0-.68-.389l-3.304 1.782s.915.534.964.559l.129.08c.041.033.089.057.13.09.04.032.089.064.129.097.016.016.033.024.057.04.065.057.138.105.202.162.065.057.138.114.203.178l.024.025c.065.056.122.121.186.178l.025.024c.056.057.113.122.17.186l.032.033c.057.064.113.121.162.186.024.032.057.065.081.097l.097.122c.041.048.073.097.105.145l.073.098c.017.024.041.056.057.089.032.048.073.097.105.153.008.017.016.025.025.041.048.073.089.138.129.21 0 .009.008.009.008.017l.13.226c.008.009.008.017.016.025.041.073.081.145.113.226.009.009.008.017.017.033l.097.218c.008.009.008.025.016.033.032.073.057.146.089.218.008.009.008.025.016.033l.073.219c0 .008.008.024.008.032.024.073.041.146.065.227 0 .008.008.016.008.032l.049.227c.008.04.016.073.016.113a.279.279 0 0 1 .008.081l-1.539 57.502c-.008.356-1.101 2.624-.809 2.454l.809-.737-.461 17.369c-.008.357-1.101 2.624-.81 2.454l2.98-2.713c.632-.575.988-1.393 1.02-2.316l1.992-74.377c.008-.357.025-.899.025-.899v-.267c0-.049-.008-.089-.008-.138a.479.479 0 0 0-.017-.105v-.025c0-.016-.008-.032-.008-.048l.47-17.596c.008-.357.024-.899.024-.899v-.114a.244.244 0 0 1-.032-.113z" fill="url(#c)"/><path d="M346.51 116.671c1.733.996 2.924.016 2.883 1.708l-1.733 80.103c-.04 1.701-1.635 2.235-3.368 1.231L216.753 126.04c-1.733-.996-3.094-3.183-3.053-4.875l2.057-76.904c.048-1.692 1.482-2.26 3.214-1.263L346.51 116.67z" fill="#1737A2"/><path d="M346.51 106.555c1.733.996 3.094 3.183 3.053 4.875l-1.911 76.929c-.04 1.7-1.636 2.234-3.369 1.23l-127.538-73.673c-1.733-.996-2.989 2.778-2.94 1.077l1.944-82.863c.048-1.693 1.481-2.26 3.214-1.264l127.547 73.689z" fill="#1737A2"/><path d="M346.275 115.91c.057-1.425-1.222-3.328-2.866-4.259l-120.81-68.66c-1.636-.932-3.012-.535-3.069.89l-.364 9.312a1.952 1.952 0 0 0-.089.51l-1.66 64.604c-.057 1.425 1.797 4.033 3.433 4.964l119.352 67.835c1.636.931 3.012.534 3.069-.891l.365-9.313a1.98 1.98 0 0 0 .089-.51l2.55-64.482z" fill="#18BDF7"/><path d="M344.769 213.901l-.04-5.053-4.899 3.141-1.053-2.421-122.883-70.944c-1.482-.858-4.421-.745-6.13.243l-53.234 30.545v-.851l-8.082 3.928-1.133-.462.154 3.733c.121.818.437 1.15.939 1.442l127.879 74.021c1.482.858 4.089.842 5.798-.146l61.275-35.33c.932-.543 1.409-1.207 1.409-1.863v.017z" fill="#1737A2"/><path d="M276.206 246.251l-127.871-73.827c-1.482-.858-1.296-2.364.413-3.344l61.275-35.379c1.709-.988 4.316-1.093 5.798-.243l127.871 73.827c1.482.858 1.296 2.364-.413 3.344l-61.275 35.379c-1.709.988-4.316 1.093-5.798.243z" fill="#D4E3F4"/><g opacity=".56" fill="#7FB0F0"><path opacity=".56" d="M217.684 147.135c-.186.106-.567.065-.842-.097l-7.766-4.478c-.283-.162-.356-.38-.17-.486l5.142-2.972c.187-.105.567-.064.842.098l7.766 4.478c.284.162.356.38.17.485l-5.142 2.972zm9.005 13.377c-.186.106-.567.065-.85-.097l-7.766-4.478c-.283-.162-.356-.381-.17-.486l5.142-2.972c.186-.105.559-.064.842.098l7.766 4.478c.283.162.356.38.178.485l-5.142 2.972zm-4.551 5.556c-.187.105-.567.065-.842-.097l-7.766-4.478c-.275-.162-.356-.381-.17-.486l5.142-2.972c.178-.105.567-.057.842.097l7.766 4.478c.275.162.356.381.17.486l-5.142 2.972zm-12.317 1.069c-.186.105-.567.064-.842-.098l-7.766-4.478c-.275-.162-.356-.38-.17-.485l5.142-2.972c.187-.106.567-.065.843.097l7.765 4.478c.276.162.348.38.17.486l-5.142 2.972zm-21.362-3.118c-.186.106-.567.065-.842-.097l-7.766-4.478c-.283-.162-.356-.38-.17-.486l6.041-3.49c.178-.105.567-.065.842.097l7.766 4.478c.284.162.356.381.17.486l-6.041 3.49zm13.386 7.725c-.187.105-.632.024-1.004-.194l-10.171-5.871c-.364-.211-.51-.47-.332-.575l6.041-3.49c.178-.105.64-.024.996.186l10.171 5.871c.372.211.51.478.332.575l-6.033 3.498zm66.814 38.618c-.153.089-.51.032-.785-.13l-7.758-4.478c-.283-.162-.388-.372-.235-.461l2.235-1.288c.154-.089.511-.032.794.138l7.758 4.478c.283.162.38.364.226.453l-2.235 1.288zm10.373 6.138c-.154.089-.51.033-.785-.129l-7.758-4.478c-.283-.162-.388-.373-.235-.462l2.235-1.287c.154-.089.511-.033.794.137l7.758 4.478c.283.162.38.365.226.454l-2.235 1.287zm10.997 6.204c-.146.089-.502.024-.777-.138l-7.758-4.478c-.275-.162-.389-.364-.243-.453l2.154-1.239c.146-.089.502-.025.778.137l7.757 4.478c.284.162.389.365.243.446l-2.154 1.247zm-6.762-8.568c-.145.089-.502.025-.777-.137l-7.758-4.478c-.275-.162-.388-.365-.242-.454l2.153-1.239c.146-.089.503-.024.778.138l7.757 4.478c.284.162.389.364.243.445l-2.154 1.247zm-28.026-11.58c-.186.105-.567.065-.85-.097l-50.522-29.152c-.275-.162-.356-.38-.17-.486l6.041-3.49c.178-.105.567-.056.842.097l50.522 29.152c.283.162.356.381.178.486l-6.041 3.49z"/><path opacity=".56" d="M200.46 169.817c-.008.008-.049 0-.081-.024l-5.936-3.426c-.032-.016-.048-.04-.04-.048l.372-.219c.009-.008.049 0 .081.024l5.936 3.426c.032.016.049.04.041.048l-.373.219zm-15.215-9.434c-.008.008-.032.008-.049 0l-2.518-1.458c-.016-.008-.016-.016-.008-.024l.372-.219c.008-.008.033-.008.049 0l2.518 1.458c.017.008.017.016.008.024l-.372.219zm35.216 12.892c-.186.105-.566.065-.842-.097l-7.765-4.478c-.276-.162-.357-.381-.171-.486l5.142-2.972c.187-.105.567-.057.843.097l7.765 4.478c.284.162.357.381.17.486l-5.142 2.972zm10.69 6.17c-.187.106-.567.065-.843-.097l-7.765-4.478c-.276-.162-.357-.38-.17-.486l5.142-2.972c.186-.105.567-.064.85.098l7.766 4.478c.275.162.348.38.17.486l-5.15 2.971zm10.689 6.162c-.186.105-.567.065-.842-.097l-7.766-4.478c-.275-.162-.356-.381-.17-.486l5.142-2.972c.186-.105.567-.065.842.097l7.766 4.478c.275.162.348.381.17.486l-5.142 2.972zm10.688 6.17c-.186.106-.558.065-.842-.097l-7.766-4.478c-.283-.162-.356-.38-.17-.486l5.142-2.972c.187-.105.567-.064.843.098l7.765 4.478c.276.162.357.38.17.486l-5.142 2.971zm10.697 6.171c-.186.105-.567.065-.85-.097l-7.758-4.478c-.275-.162-.356-.381-.17-.486l5.142-2.972c.187-.105.567-.065.842.097l7.758 4.478c.283.162.356.381.178.494l-5.142 2.964zm10.69 6.163c-.187.105-.567.064-.842-.098l-7.758-4.478c-.283-.161-.356-.38-.17-.485l5.142-2.972c.186-.106.567-.065.842.097l7.758 4.478c.275.162.356.381.17.486l-5.142 2.972zm24.074 13.896c-.186.105-.567.064-.842-.098l-21.152-12.203c-.283-.162-.356-.38-.17-.486l5.142-2.972c.187-.105.567-.064.843.098l21.151 12.203c.283.162.356.38.17.486l-5.142 2.972zm-65.211-45.809c-.186.105-.559.065-.842-.097l-7.766-4.478c-.275-.162-.356-.381-.17-.486l5.142-2.972c.178-.105.559-.065.842.097l7.766 4.478c.283.162.348.381.17.486l-5.142 2.972zm10.689 6.171c-.186.105-.567.064-.842-.098l-7.766-4.478c-.275-.162-.356-.372-.17-.486l5.142-2.971c.178-.106.559-.065.834.097l7.766 4.478c.275.162.356.38.17.486l-5.134 2.972zm10.689 6.169c-.186.105-.567.065-.842-.097l-7.766-4.478c-.275-.162-.364-.381-.17-.486l5.142-2.972c.178-.105.567-.057.842.097l7.766 4.478c.275.162.356.381.17.486l-5.142 2.972zm10.689 6.171c-.187.105-.559.064-.843-.098l-7.757-4.478c-.284-.162-.356-.38-.17-.486l5.142-2.971c.178-.106.559-.065.842.097l7.758 4.478c.275.162.356.38.17.486l-5.142 2.972zm10.697 6.162c-.186.105-.567.065-.842-.097l-7.766-4.478c-.283-.162-.356-.381-.17-.486l5.142-2.972c.178-.105.559-.065.842.097l7.766 4.478c.275.162.356.381.17.486l-5.142 2.972zm10.681 6.171c-.186.105-.559.064-.842-.098l-7.758-4.478c-.283-.162-.364-.38-.178-.485l5.142-2.972c.178-.106.559-.065.842.097l7.758 4.478c.275.162.356.38.17.486l-5.134 2.972zm10.689 6.162c-.186.105-.559.065-.842-.097l-7.766-4.478c-.275-.162-.356-.373-.17-.486l5.142-2.972c.178-.105.559-.065.834.097l7.766 4.478c.275.162.356.381.17.486l-5.134 2.972zm-59.583-42.554c-.186.106-.567.065-.842-.097l-7.766-4.478c-.275-.162-.356-.38-.162-.486l5.142-2.971c.187-.106.559-.065.834.097l7.766 4.478c.283.162.356.38.17.486l-5.142 2.971zm10.689 6.163c-.186.105-.567.065-.842-.097l-7.766-4.478c-.275-.162-.356-.381-.17-.486l5.142-2.972c.186-.105.559-.065.842.097l7.766 4.478c.275.162.356.381.17.486l-5.142 2.972zm10.689 6.171c-.186.105-.567.064-.85-.097l-7.766-4.478c-.275-.162-.356-.381-.162-.486l5.142-2.972c.186-.105.559-.065.842.097l7.766 4.478c.283.162.356.381.178.486l-5.15 2.972zm10.689 6.17c-.186.106-.559.065-.842-.097l-7.766-4.478c-.283-.162-.356-.38-.17-.486l5.142-2.972c.187-.105.559-.064.842.098l7.766 4.478c.284.162.356.38.17.486l-5.142 2.971zm10.697 6.162c-.186.105-.567.065-.842-.097l-7.766-4.478c-.283-.162-.356-.381-.17-.486l5.142-2.972c.186-.105.559-.065.842.097l7.766 4.478c.275.162.348.381.17.486l-5.142 2.972zm10.689 6.171c-.187.105-.567.064-.851-.098l-7.765-4.478c-.276-.162-.357-.38-.17-.486l5.142-2.971c.186-.106.567-.057.842.097l7.766 4.478c.283.162.356.38.178.486l-5.142 2.972zm10.689 6.17c-.186.105-.567.065-.842-.097l-7.766-4.478c-.283-.162-.356-.381-.17-.486l5.142-2.972c.187-.105.559-.065.843.097l7.765 4.478c.276.162.357.381.17.486l-5.142 2.972zM216 154.342c-.186.105-.567.065-.851-.097l-13.158-7.596c-.284-.162-.357-.38-.17-.486l5.142-2.971c.186-.106.558-.065.842.097l13.159 7.595c.283.162.356.381.17.486L216 154.342zm103.237 51.388c-.186.105-.567.065-.842-.097l-13.167-7.596c-.275-.162-.356-.381-.17-.486l5.142-2.972c.186-.105.567-.065.842.097l13.167 7.596c.283.162.356.381.17.486l-5.142 2.972zm-107.788-45.832c-.187.105-.559.065-.842-.097l-15.694-9.053c-.283-.162-.356-.381-.17-.486l5.142-2.972c.178-.105.559-.065.842.097l15.694 9.053c.283.162.356.381.17.486l-5.142 2.972zm-12.317 1.077c-.186.105-.567.065-.842-.097l-10.462-6.041c-.284-.162-.357-.381-.17-.486l5.142-2.972c.186-.105.567-.065.842.097l10.462 6.041c.284.162.356.381.17.486l-5.142 2.972zm29.241-7.669c-.187.105-.567.065-.842-.097l-7.758-4.478c-.283-.162-.356-.381-.17-.486l5.142-2.972c.186-.105.567-.065.842.097l7.758 4.478c.283.162.356.381.17.486l-5.142 2.972zm10.64 6.13c-.186.106-.567.065-.842-.097l-7.766-4.478c-.275-.162-.356-.38-.17-.486l5.142-2.972c.187-.105.567-.064.842.098l7.766 4.478c.284.162.356.38.17.485l-5.142 2.972zm10.689 6.17c-.186.105-.558.065-.842-.097l-7.766-4.478c-.275-.162-.356-.381-.17-.486l5.142-2.972c.187-.105.567-.065.843.097l7.765 4.478c.284.162.357.381.17.486l-5.142 2.972zm10.689 6.17c-.186.106-.567.065-.842-.097l-7.758-4.478c-.283-.162-.356-.38-.17-.486l5.142-2.971c.187-.106.567-.065.843.097l7.757 4.478c.276.162.357.38.17.486l-5.142 2.971zm10.689 6.163c-.186.105-.558.065-.842-.097l-7.757-4.478c-.284-.162-.357-.381-.17-.486l5.142-2.972c.186-.105.567-.065.842.097l7.757 4.478c.284.162.357.381.171.486l-5.143 2.972zm10.698 6.17c-.187.106-.567.065-.843-.097l-7.765-4.478c-.276-.162-.357-.38-.17-.486l5.142-2.971c.186-.106.567-.065.842.097l7.766 4.478c.275.162.356.38.17.486l-5.142 2.971zm10.689 6.171c-.187.105-.567.065-.843-.097l-7.765-4.478c-.284-.162-.357-.381-.17-.486l5.142-2.972c.186-.105.566-.065.85.097l7.766 4.478c.283.162.356.381.17.486l-5.15 2.972zm10.68 6.163c-.186.105-.558.065-.842-.097l-7.765-4.487c-.276-.161-.349-.38-.162-.485l5.142-2.972c.186-.106.567-.065.842.097l7.766 4.486c.275.162.348.381.161.486l-5.142 2.972zm6.219 5.441a1.146 1.146 0 0 0-.454-.146c-.161-.016-.291 0-.38.049l-5.142 2.971c-.089.049-.13.13-.097.227.032.097.129.186.259.259l2.024 1.166-6.745 3.895c-.089.049-.122.13-.089.227.032.097.129.186.259.259l5.231 3.021c.13.073.292.129.453.154.162.024.3 0 .389-.049l12.228-7.061c.089-.049.121-.13.089-.219-.033-.097-.13-.186-.259-.267l-7.766-4.486z"/><path opacity=".56" d="M197.747 158.464c-.008.008-.049 0-.081-.025l-5.936-3.425c-.032-.016-.048-.04-.04-.048l.372-.219c.009-.008.049 0 .081.024l5.936 3.426c.032.016.049.04.041.048l-.373.219z"/></g><path opacity=".4" d="M167.121 333.171l-31.856 17.783c-1.207.672-1.693 2.048-1.077 3.061.615 1.012 2.105 1.287 3.32.607l33.954-18.949-4.341-2.502zm-20.568-11.87l-4.648-2.689-31.46 17.921c-1.206.672-1.692 2.048-1.077 3.06.616 1.013 2.106 1.28 3.321.608l33.864-18.9z" fill="#A8C4E5"/><path d="M167.049 234.785l-.203-.113c-.728-.413-1.563.178-1.87 1.311l-3.806 14.244-22.69-12.94 3.806-14.244c.3-1.133-.041-2.397-.769-2.81l-.203-.113c-.729-.413-1.563.178-1.87 1.312l-4.122 15.402-.405 1.498-4.931 18.438-.292 1.102-5.037 18.835-.016.073-5.506 20.592-.203.769-4.931 18.439-.405 1.498-5.158 19.297c-.3 1.134.04 2.397.769 2.81l.202.113c.729.413 1.563-.178 1.871-1.312l4.85-18.139 22.69 12.941-4.85 18.138c-.3 1.134.04 2.397.769 2.81l.202.114c.729.413 1.563-.178 1.871-1.312l31.006-115.959c.3-1.11-.049-2.381-.769-2.794zm-6.908 19.256l-4.308 16.115-22.689-12.94 4.308-16.115 22.689 12.94zm-9.636 36.059l-22.69-12.94 4.308-16.114 22.69 12.94-4.308 16.114zm-5.336 19.937l-22.69-12.94 4.308-16.115 22.69 12.941-4.308 16.114zm-28.026 7.004l4.308-16.114 22.689 12.94-4.308 16.115-22.689-12.941z" fill="#1737A2"/><path d="M401.842 373.936L290.547 309.68l110.599-63.85 112.388 64.118-111.692 63.988z" fill="#EDF7FF"/><path d="M401.842 373.936l.105 62.523 111.586-63.932v-62.579l-111.691 63.988z" fill="url(#d)"/><path d="M290.717 309.68v62.547l111.287 64.255v-62.546L290.717 309.68z" fill="#CCE9FF"/><path d="M190.2 128.009l-55.056 31.783c-3.061 1.765-6.883-.445-6.883-3.976V60.239a6.665 6.665 0 0 1 3.336-5.774l56.595-32.674c2.073-1.198 4.664.3 4.664 2.697V123.4a5.283 5.283 0 0 1-2.656 4.608z" fill="#18BDF7"/><path d="M141.986 113.368c-.243 11.887 7.944 16.908 18.301 11.207 10.349-5.693 18.941-19.945 19.192-31.832.243-11.888-7.944-16.908-18.301-11.208-10.357 5.693-18.949 19.945-19.192 31.833zm18.487 2.04c-5.943 3.272-10.64.389-10.502-6.429.137-6.819 5.069-14.997 11.012-18.269 5.944-3.271 10.641-.388 10.503 6.43-.137 6.818-5.069 15.005-11.013 18.268z" fill="#1737A2"/><path d="M142.763 107.343c2.357-10.333 9.766-21.054 18.414-25.807 6.333-3.482 11.855-2.956 15.135.704l-2.275 2.972.032.032-4.454 5.806c-1.887-2.04-5.028-2.316-8.624-.34-4.915 2.705-9.142 8.778-10.527 14.657l-7.701 1.976z" fill="#FF9359"/><path d="M168.547 106.938c1.765-3.134 2.874-6.616 2.939-9.798.057-2.883-.745-5.053-2.146-6.365l1.514-2.008-.056-.057 4.834-7.15c.13.113.251.243.373.364.016.016.024.033.04.04l.057.057c.056.057.105.114.154.17 2.113 2.316 3.311 5.912 3.214 10.56-.113 5.466-1.992 11.442-5.004 16.843l-5.919-2.656zm2.551-44.125l6.68-3.854c1.085-.632 1.968-2.316 1.968-3.766 0-1.45-.883-2.121-1.968-1.49l-6.68 3.855c-1.085.631-1.968 2.316-1.968 3.765 0 1.45.883 2.114 1.968 1.49z" fill="#fff"/><path d="M171.098 51.04l6.68-3.855c1.085-.631 1.968-2.316 1.968-3.765 0-1.45-.883-2.122-1.968-1.49l-6.68 3.855c-1.085.631-1.968 2.315-1.968 3.765 0 1.458.883 2.122 1.968 1.49z" fill="#1737A2"/><path d="M167.51 53.112l6.681-3.854c1.085-.632 1.968-2.316 1.968-3.766 0-1.45-.883-2.121-1.968-1.49l-6.681 3.855c-1.085.631-1.968 2.316-1.968 3.765 0 1.45.883 2.122 1.968 1.49z" fill="#1737A2"/><path d="M157.267 70.862l6.68-3.854c1.085-.632 1.968-2.316 1.968-3.766 0-1.45-.883-2.121-1.968-1.49l-6.68 3.855c-1.085.631-1.968 2.316-1.968 3.765 0 1.45.883 2.114 1.968 1.49zm-13.831 8.001l6.68-3.855c1.085-.632 1.968-2.316 1.968-3.765 0-1.45-.883-2.122-1.968-1.49l-6.68 3.854c-1.085.632-1.968 2.316-1.968 3.766 0 1.457.883 2.121 1.968 1.49z" fill="#fff"/><path d="M302.613 92.792l-1.62 69.341 34.092 19.855 1.611-69.34-34.083-19.856z" fill="#fff" stroke="#B3DDFF" stroke-width=".757" stroke-miterlimit="10"/><path d="M329.222 126.187l-15.337-8.924.064-2.745 15.337 8.923-.064 2.746zm-.292 12.438l-15.329-8.924.065-2.745 15.329 8.924-.065 2.745zm-.291 12.438l-15.329-8.924.064-2.737 15.329 8.916-.064 2.745z" fill="#18BDF7"/><path d="M309.868 116.453l-3.093-1.798c-.462-.267-.826-.988-.81-1.603l.073-3.264c.016-.615.397-.907.858-.631l3.093 1.798c.462.267.826.987.81 1.603l-.073 3.263c-.008.616-.396.899-.858.632zm-.308 13.321l-3.093-1.798c-.462-.267-.826-.987-.81-1.603l.073-3.263c.016-.616.397-.907.859-.632l3.093 1.798c.461.267.826.988.81 1.603l-.073 3.264c-.016.615-.397.898-.859.631zm-.307 13.32l-3.094-1.797c-.461-.267-.826-.988-.809-1.604l.073-3.263c.016-.615.396-.907.858-.632l3.093 1.798c.462.267.826.988.81 1.603l-.073 3.264c-.016.615-.397.899-.858.631z" fill="#1737A2"/><path d="M317.78 168.627l-17.937-10.438c-2.445-1.425-4.381-5.28-4.308-8.567l.025-.964c.072-3.288 2.137-4.81 4.583-3.385l17.936 10.438c2.446 1.425 4.381 5.28 4.308 8.567l-.024.964c-.081 3.288-2.138 4.81-4.583 3.385z" fill="#FF9359"/><path d="M316.249 161.737l-15.564-9.062c-.316-.186-.567-.688-.559-1.109.009-.429.276-.624.6-.437l15.563 9.061c.316.186.567.688.559 1.109-.008.421-.275.624-.599.438zm-21.71-69.463l.024-1.061-68.288-39.687-1.401 62.798 68.28 39.687 1.385-61.737z" fill="#fff"/><path d="M287.162 139.896l-57.631-33.493 1.044-46.618 57.632 33.492-1.045 46.619zM249.297 70.67l-1.045 46.61m20.496-35.307l-1.037 46.61" stroke="#B3DDFF" stroke-width=".757" stroke-miterlimit="10"/><path d="M230.397 67.761l57.631 33.484m-57.809-25.718l57.631 33.492m-57.801-25.726l57.631 33.493m-.178 7.773L229.87 91.066m57.462 41.259L229.7 98.833" stroke="#B3DDFF" stroke-width=".539" stroke-miterlimit="10"/><path d="M245.629 120.38l-2.349-1.36c-.307-.179-.558-.664-.55-1.085.008-.422.267-.608.583-.43l2.348 1.361c.308.178.559.664.551 1.085-.016.413-.276.607-.583.429zm19.361 11.418l-2.348-1.361c-.308-.178-.559-.664-.551-1.085.008-.421.268-.607.583-.429l2.349 1.36c.307.179.558.664.55 1.086-.008.421-.267.615-.583.429zm19.589 11.839l-2.348-1.361c-.308-.178-.559-.664-.551-1.085.008-.421.267-.607.583-.429l2.348 1.36c.308.178.559.664.551 1.085-.016.422-.275.616-.583.43z" fill="#1737A2"/><path d="M287.648 118.136c-7.612-3.579-9.353 8.147-12.989 6.422-3.644-1.725-2.915-14.438-6.883-16.746-3.968-2.3-3.393 10.883-7.183 8.972-3.789-1.903-1.319-17.054-7.741-20.236-7.96-3.952-2.454 16.228-9.693 13.321-5.846-2.349-.68-8.616-6.421-12.22-2.956-1.846-7.102 4.268-7.102 4.268l-.097 4.486 57.631 33.492.478-21.759z" fill="#18BDF7"/><path d="M93.165 119.391l20.39-11.499-.106-23.11-20.39 11.498.106 23.111z" stroke="#B3DDFF" stroke-width=".945" stroke-miterlimit="10"/><path d="M72.767 130.897l20.398-11.506-.105-23.111-20.39 11.507.097 23.11zm-20.39 11.5l20.39-11.499-.098-23.111-20.39 11.499.097 23.111z" stroke="#B3DDFF" stroke-width=".945" stroke-miterlimit="10"/><path d="M31.986 153.904l20.39-11.507-.097-23.111-20.398 11.507.105 23.111zm61.276-11.402l20.39-11.499-.097-23.11-20.39 11.498.097 23.111z" stroke="#B3DDFF" stroke-width=".945" stroke-miterlimit="10"/><path d="M72.872 154.009l20.39-11.507-.097-23.111-20.399 11.507.106 23.111zm-40.789 23.006l20.39-11.507-.097-23.111-20.39 11.507.097 23.111zm81.569-46.012l.105 23.102M72.969 177.12l20.39-11.507-.097-23.111-20.39 11.507.097 23.111z" stroke="#B3DDFF" stroke-width=".945" stroke-miterlimit="10"/><path d="M52.58 188.618l20.39-11.498-.098-23.111-20.398 11.499.105 23.11z" stroke="#B3DDFF" stroke-width=".945" stroke-miterlimit="10"/><path d="M32.189 200.125l20.39-11.507-.105-23.111-20.39 11.507.105 23.111zm81.568-46.019l.097 23.111m-20.39 11.507l20.39-11.507-.097-23.111-20.398 11.507.105 23.111z" stroke="#B3DDFF" stroke-width=".945" stroke-miterlimit="10"/><path d="M73.074 200.222l20.39-11.499-.105-23.11-20.39 11.506.105 23.103zM52.676 211.73l20.398-11.507-.105-23.103-20.39 11.499.097 23.111z" stroke="#B3DDFF" stroke-width=".945" stroke-miterlimit="10"/><path d="M32.286 223.236l20.39-11.507-.097-23.11-20.39 11.506.097 23.111z" stroke="#B3DDFF" stroke-width=".945" stroke-miterlimit="10"/><path d="M37.534 216.621l12.203-45.12 19.856-2.551 6.421-33.249 17.249.284 11.514-27.225" stroke="#1737A2" stroke-width="2" stroke-miterlimit="10" stroke-linecap="round" stroke-linejoin="round"/><path d="M100.38 110.137l4.883-2.097.996 4.332" stroke="#1737A2" stroke-width="2" stroke-miterlimit="10" stroke-linecap="round" stroke-linejoin="round"/><path opacity=".4" d="M430.03 323.146l-38.934-22.042-4.851-49.687c1.086-.632 2.754-.705 3.717-.162l82.897 46.926c.955.543.858 1.506-.227 2.138l-38.885 22.665c-1.085.632-2.754.705-3.717.162z" fill="#A8C4E5"/><path d="M432.516 322.62l-45.355-27.856c-2.737-1.579-4.948-5.814-4.948-9.458v-95.431c0-3.644 2.219-5.321 4.948-3.742l45.655 26.358c2.737 1.579 4.947 5.815 4.947 9.459v94.978c0 2.396-.745 2.842-2.259 3.708l-2.988 1.984z" fill="#B6D4ED"/><path d="M403.745 230.889s-21.556 57.971-21.556 54.327l-2.097-97.577 3.984-1.952c.842-.396 1.903-.307 3.061.357l45.655 26.358c1.336.769 2.55 2.178 3.441 3.838l-32.488 14.649z" fill="#DBEFFF"/><path d="M428.621 322.976l-45.542-26.358c-2.737-1.579-4.842-5.814-4.842-9.458v-95.431c0-3.644 2.162-5.321 4.891-3.742l45.517 26.358c2.737 1.579 4.81 5.815 4.81 9.459v95.431c.008 3.644-2.105 5.32-4.834 3.741z" fill="#1737A2"/><path d="M435.415 230.8v5.45c0 .38.227.558.51.388l-.065-.048c.284-.162.373-.608.373-.988v-5.45c0-.381-.089-.559-.373-.389v.049c-.291.162-.445.607-.445.988zm0 9.547v5.45c0 .381.227.559.51.389l-.065-.049c.284-.162.373-.607.373-.988v-5.45c0-.38-.089-.558-.373-.388v.048c-.291.162-.445.608-.445.988z" fill="#2C4482"/><path d="M427.358 306.667l-44.4-25.637a1.495 1.495 0 0 1-.745-1.296v-80.588c0-1.15 1.247-1.871 2.235-1.296l44.4 25.638c.461.267.745.761.745 1.295v80.589c0 1.149-1.239 1.87-2.235 1.295z" fill="#18BDF7"/><path d="M413.843 211.414l-14.082-8.13c-.494-.283-.899-1.061-.899-1.717 0-.656.405-.963.899-.68l14.082 8.13c.494.284.899 1.061.899 1.717 0 .664-.405.963-.899.68z" fill="#fff"/><path d="M385.687 277.362l37.395 22.017" stroke="#fff" stroke-width=".584" stroke-miterlimit="10" stroke-linecap="round" stroke-linejoin="round"/><path d="M396.506 279.524l-10.819-6.243V253.83l10.819 6.243v19.451z" fill="#1737A2"/><path d="M409.769 287.184l-10.818-6.251v-12.714l10.818 6.244v12.721z" fill="#fff"/><path d="M423.431 295.071l-10.819-6.243v-25.5l10.819 6.243v25.5z" fill="#FF9359"/><path d="M387.452 207.438l34.683 20.025m-34.464-1.061l34.682 20.025m-34.472-1.061l34.691 20.026m-17.564-28.981l-17.337-10.008-.219-18.965 17.345 10.009.211 18.964z" stroke="#fff" stroke-width=".664" stroke-miterlimit="10"/><path d="M422.353 246.428l-17.345-10.017-.211-18.964 17.337 10.016.219 18.965zm-17.127 8.947l-17.345-10.008-.21-18.965 17.337 10.009.218 18.964zm17.346 10.018l-17.345-10.017-.219-18.965 17.345 10.017.219 18.965zm-17.345-10.018l-17.346-10.009m17.346 10.009l17.345 10.017" stroke="#fff" stroke-width=".664" stroke-miterlimit="10"/><path d="M388.683 244.331l8.957-4.729 10.13-.948 11.984-6.713" stroke="#1737A2" stroke-miterlimit="10" stroke-linecap="round" stroke-linejoin="round"/><path d="M417.762 230.906l2.502.777-1.247 2.527" stroke="#1737A2" stroke-miterlimit="10" stroke-linecap="round" stroke-linejoin="round"/><path d="M285.589 76.576c.525-.307.518-1.295-.015-2.205-.533-.911-1.391-1.4-1.916-1.093-.525.307-.518 1.294.015 2.205s1.391 1.4 1.916 1.093z" fill="#fff"/><path opacity=".4" d="M233.329 401.33c19.24-11.11 19.143-29.176-.218-40.359l-9.094 5.247c-18.949-6.364-43.566-4.907-59.705 4.414-19.24 11.11-19.143 29.176.219 40.359 19.362 11.183 50.659 11.239 69.908.129l-35.064-20.244 7.92-4.575 26.034 15.029z" fill="#A8C4E5"/><path d="M224.843 406.237c-19.241 11.11-50.538 11.054-69.908-.129-19.362-11.183-19.459-29.249-.219-40.359 19.241-11.11 50.538-11.054 69.908.129l-34.844 20.115 35.063 20.244z" fill="#15A2D4"/><path d="M189.715 386.034l.065-.033 35.063 20.244c-8.252 4.77-18.528 7.718-29.897 8.163l-1.02.049-.332-6.964c-1.353-6.973-3.32-17.289-3.879-21.459z" fill="#BAD0E6"/><path d="M224.624 398.973l.219 7.264-13.612-6.009 13.393-1.255z" fill="#BAD0E6"/><path d="M224.729 390.875s19.386-10.073 14.366-26.989c-5.013-16.916-14.366 21.046-14.366 21.046v5.943z" fill="#E87538"/><path d="M154.935 406.116c-19.362-11.183-19.459-29.249-.219-40.359l35.064 20.244-34.845 20.115z" fill="#0076BF"/><path d="M224.624 365.878c-19.361-11.183-50.659-11.239-69.907-.129l35.063 20.244 34.844-20.115z" fill="#18BDF7"/><path d="M189.715 386.033l.064-.032-35.063-20.244c-4.777 2.761-11.944 8.624-14.365 12.915v6.859c15.961.753 38.003-.008 49.364.502z" fill="#0076BF"/><path d="M224.843 399.265c-19.241 11.111-50.538 11.054-69.908-.129-19.362-11.183-19.459-29.249-.219-40.359 19.241-11.11 50.538-11.053 69.908.13l-34.844 20.114 35.063 20.244z" fill="#18BDF7"/><path d="M154.935 399.136c-19.362-11.183-19.459-29.249-.219-40.359l35.064 20.244-34.845 20.115z" fill="#008CE3"/><path d="M224.624 358.907c-19.361-11.183-50.659-11.24-69.907-.13l35.063 20.244 34.844-20.114z" fill="#B8ECFF"/><path d="M224.51 344.573c19.362 11.183 19.459 29.249.219 40.359l-35.063-20.244 34.844-20.115z" fill="#FF9359"/><path d="M189.714 379.061l.065-.032-35.063-20.244c-8.689 5.02-13.434 11.45-14.244 18.033 15.969.745 37.881 1.733 49.242 2.243z" fill="#1737A2"/><path d="M189.715 379.061l.065-.033 35.063 20.245c-8.689 5.02-19.84 7.757-31.233 8.219-1.304-9.224-3.013-21.872-3.895-28.431z" fill="#fff"/><path d="M189.666 364.688v5.044l35.063 21.144v-5.944l-35.063-20.244z" fill="#E87538"/><path d="M154.935 406.116v-6.972c2.681 1.563 5.555 2.883 8.608 3.984l-8.608 2.988z" fill="#15A2D4"/><path d="M384.335 211.471l-31.16-17.993v30.917l31.16 17.993v-30.917z" fill="#fff" stroke="#B3DDFF" stroke-width=".679" stroke-miterlimit="10"/><path d="M364.123 226.986l-6.251-3.628.129-9.806 6.252 3.628-.13 9.806z" fill="#FF9359"/><path d="M371.783 231.425l-6.251-3.62.081-6.413 6.251 3.627-.081 6.406z" fill="#18BDF7"/><path d="M379.67 236.007l-6.243-3.628.17-12.851 6.243 3.628-.17 12.851z" fill="#FF5C97"/><path d="M363.483 211.974l-4.94-2.842c-.445-.251-.834-.948-.866-1.531-.033-.591.291-.858.736-.607l4.94 2.842c.445.251.834.948.867 1.531.032.591-.3.866-.737.607zm8.276 4.931l-4.94-2.843c-.445-.251-.834-.947-.866-1.53-.032-.591.291-.859.737-.608l4.939 2.843c.446.251.834.947.867 1.53.04.583-.292.859-.737.608z" fill="#18BDF7"/><path d="M376.593 210.281l-17.677-10.251c-.575-.332-1.134-.146-1.231.429-.097.575.291 1.312.874 1.652l17.678 10.252c.575.332 1.133.145 1.231-.43.097-.575-.3-1.32-.875-1.652z" fill="#1737A2"/><path d="M333.271 477.223c-5.952 3.959-15.71 4.567-21.791 1.36-6.082-3.207-6.187-9.021-.235-12.981 5.952-3.959 15.709-4.567 21.791-1.36 6.081 3.207 6.187 9.021.235 12.981z" fill="#DBEFFF"/><path d="M336.226 360.211a1.958 1.958 0 0 1 1.134-2.648c1.328-.47 2.988-.51 3.708 1.692.826 2.511 2.754 7.288 4.057 10.463.446 1.093-.939 2.016-1.765 1.174-.729-.737-1.352-1.701-1.579-2.924 0 0 .729 2.041 1.49 3.75.397.882-.478 1.805-1.377 1.449-1.554-.615-3.271-1.846-3.311-4.316-.049-3.02-1.442-6.608-2.357-8.64z" fill="#1737A2"/><path d="M334.396 360.623c.68 1.045 1.757 1.539 2.405 1.118.648-.422.624-1.612-.057-2.648-.68-1.045-1.757-1.539-2.405-1.118-.647.421-.623 1.603.057 2.648z" fill="#FF9359"/><path d="M321.634 396.546c.397.202.794.413 1.239.469 1.036.146 2.154-.477 3.182-1.085a.706.706 0 0 0 .259-.21c.146-.195.122-.454.057-.664-.372-1.264-.972-1.231-1.846-1.96-.397-.332-.745-.721-1.134-1.053-.607-.526-1.304-.915-2-1.303-.842-.47-3.911-2.082-4.535.226-.267.996-.178 1.644.308 2.292.591.777.915 1.15 1.684 1.692.891.608 1.839 1.11 2.786 1.596z" fill="#FFC2B0"/><path d="M325.99 394.327c-.332-.842-.421-1.336-.89-2.057a3.254 3.254 0 0 0-1.523-1.255c-1.214-.486-3.231-1.174-3.903-.705-.866.6.016 1.604.559 2.227 1.077 1.231 2.883 2.098 4.348 2.64a.553.553 0 0 0 .6-.097c.064.13-.478-.219-.421-.081.332.834 1.562.154 1.23-.672z" fill="#FFC2B0"/><path d="M325.691 393.906l1.425 1.498-2.769 3.255-1.636-1.668 2.98-3.085z" fill="#D0E7F4"/><path d="M315.763 466.623l6.47-4.931 3.774-.648c1.247 4.915.68 4.316-.753 5.579l-5.637 3.506c-2.963 1.417-3.903 1.596-5.635.842-1.037-1.109-.049-2.55 1.781-4.348zm7.239 4.696l6.47-4.931 3.774-.648c1.247 4.915.68 4.316-.753 5.579l-5.636 3.507c-2.964 1.417-3.903 1.595-5.636.842-1.028-1.11-.041-2.559 1.781-4.349z" fill="#1737A2"/><path d="M335.206 379.199c-.567-.656-1.344-1.077-2.105-1.466a22.666 22.666 0 0 0-2.689-1.15c-1.798-.623-3.701-.955-5.603-.899-1.005.033-1.005 1.595 0 1.563 1.716-.057 3.401.235 5.02.786.794.267 1.571.591 2.324.971.697.349 1.425.697 1.944 1.296.664.769 1.757-.34 1.109-1.101z" fill="#fff"/><path d="M321.666 379.273c-.615 8.389-1.684 16.633-3.563 24.836-.899 3.919-6.931 2.283-6.032-1.636 1.757-7.669 2.769-15.329 3.344-23.176.299-3.984 6.551-4.04 6.251-.024z" fill="#18BDF7"/><path d="M322.994 410.814c-.242 17.038.656 33.727 3.499 50.522.664 3.935-5.353 5.619-6.025 1.66-2.939-17.354-3.968-34.57-3.725-52.182.065-4.016 6.308-4.025 6.251 0zm8.171 4.866c.971 16.989 2.486 33.994 2.518 51.023.008 4.025-6.243 4.025-6.251 0-.033-17.029-1.539-34.034-2.519-51.023-.227-4.017 6.025-4.009 6.252 0z" fill="#FFC2B0"/><path d="M337.255 417.608c-.632 8.778-6.252 9.668-11.92 6.389-5.669-3.28-8.819-10.721-8.819-17.264 0 0 3.15-9.71 8.819-6.438 5.676 3.279 12.657 7.118 11.92 17.313z" fill="#18BDF7"/><path d="M317.942 381.33s-3.75 5.895-3.329 9.458c.276 2.268 1.903 4.81 2.146 5.539 1.952 5.936.875 7.725 1.085 9.369 0 0 1.304 5.644 15.232.308l5.847-17.184-20.981-7.49z" fill="#18BDF7"/><path d="M337.894 392.585c.51-.315.64-1.158.64-1.158.356-3.06 2.04-4.453-1.296-9.701-.534-.842-7.83-4.623-13.304-5.611-2.657-.478-5.28.996-6.357 3.474-.624 1.449-1.231 4.316-1.231 4.316-.259 5.628 2.235-1.758 2.624 1.344a2.004 2.004 0 0 1-.041-.227s.68 5.247 1.19 9.313c.316 2.534.543 4.364.567 4.623v.033l9.507 7.49 5.004-9.029 2.697-4.867z" fill="#18BDF7"/><path d="M324.274 376.042s-4.753 4.907-.632 8.381c4.122 3.474 11.135-4.292 11.135-4.292-3.685-2.308-7.224-3.871-10.503-4.089z" fill="#FFC2B0"/><path d="M316.516 406.74l-3.368 23.143c-.016.316.081.624.283.899 1.296 1.717 7.831 6.219 22.123 3.684 1.644-.291 1.919-.372 1.911-1.449l-.826-18.431-8.413-.081-11.71-7.765z" fill="#18BDF7"/><path d="M326.419 378.868l-2.267-8.745 5.482 1.732 1.847 7.143c.388 1.166-3.426 4.34-5.062-.13z" fill="#FFC2B0"/><path d="M322.524 376.714c0 .056-.016.218.009-.008-.008.089-.033.17-.049.259-.049.243-.097.494-.154.737-.138.631-.275 1.263-.405 1.895a25.879 25.879 0 0 0-.356 1.943c-.065.454-.17.98-.049 1.433.227.851 1.166 1.539 1.903 1.936.842.453 1.79.704 2.745.745 1.822.081 3.231-.745 4.721-1.668.632-.389 1.256-.778 1.887-1.167.923-.558 1.498-1.441 2.3-2.137.761-.664-.348-1.766-1.101-1.102-.664.583-1.15 1.377-1.903 1.847-.397.251-.81.494-1.207.737-1.166.72-2.34 1.668-3.725 1.886a4.74 4.74 0 0 1-2.445-.267 4.318 4.318 0 0 1-1.085-.607 2.839 2.839 0 0 1-.421-.405c-.073-.089-.187-.308-.138-.097-.081-.34.04-.77.089-1.102.097-.591.219-1.174.34-1.757.211-.988.607-2.081.607-3.101.008-1.004-1.554-1.004-1.563 0z" fill="#fff"/><path d="M324.428 376.333l-1.628-.493a4.797 4.797 0 0 1-3.174-5.96l2.535-8.292c.769-2.511 3.449-3.936 5.96-3.175l1.627.494a4.797 4.797 0 0 1 3.175 5.96l-2.535 8.292c-.769 2.519-3.45 3.944-5.96 3.174z" fill="#FFC2B0"/><path d="M325.472 376.479c.729.162 2.583-.025 3.385-.389 0 0-1.547 1.644-3.247 1.822l-.138-1.433z" fill="#EA8A6C"/><path d="M327.829 361.142s1.425 6.932 3.393 9.037l-.648 1.255a4.69 4.69 0 0 0-.106 4.057l.243.535s12.908-7.143 4.729-16.115c-5.53-6.073-14.446-2.931-14.438 3.555l6.827-2.324z" fill="#1737A2"/><path d="M331.238 373.653c-.931.357-1.685-.137-1.693-1.093-.008-.955.745-2.024 1.677-2.381.931-.356 1.684.138 1.692 1.093 0 .964-.745 2.025-1.676 2.381zm-22.585 35.646l2.097 1.336c1.029.656 2.235.608 2.697-.113l.324-.502c.453-.713-.008-1.838-1.037-2.494l-2.097-1.336c-1.028-.656-2.235-.608-2.697.113l-.324.502c-.461.713.009 1.838 1.037 2.494z" fill="#FFC2B0"/><path d="M326.266 407.071v-.51l-.656.251-.138-.324-16.454-9.498c-.195-.114-.551-.098-.778.032l-7.085 4.089v-.113l-1.312.526v.543h.008a.225.225 0 0 0 .121.138l17.127 9.887c.194.113.551.097.778-.033l8.202-4.737c.122-.064.187-.162.187-.251z" fill="#A8C4E5"/><path d="M317.083 411.558l-17.127-9.887c-.194-.113-.17-.316.057-.445l8.203-4.737c.226-.13.575-.146.777-.033l17.127 9.887c.194.114.17.316-.057.446l-8.203 4.737c-.227.13-.575.146-.777.032z" fill="#E1EAF4"/><path d="M318.257 405.193l-4.146-2.397c-.048-.024-.04-.073.016-.105l1.984-1.15a.22.22 0 0 1 .187-.008l4.146 2.397c.048.024.04.073-.017.105l-1.984 1.15a.218.218 0 0 1-.186.008z" fill="#A8C4E5"/><path d="M316.654 400.432c-.073-.453-.421-.988-.786-1.19l-17.005-9.661c-.154-.089-.283-.105-.372-.057a.371.371 0 0 0-.089.065l-.567.591.51-.048 1.619 10.446c.073.453.421.988.786 1.19l16.082 9.134.518.583.065.146c.324.073 1.101-.486 1.101-.486l-1.862-10.713z" fill="#fff"/><path d="M317.148 412.069l-17.006-9.661c-.364-.211-.72-.745-.785-1.19l-1.636-10.568c-.073-.453.17-.648.535-.437l17.005 9.66c.364.211.721.745.785 1.191l1.636 10.567c.065.446-.17.64-.534.438z" fill="#1737A2"/><path d="M308.11 401.842c.089.559-.421.688-1.133.283-.713-.405-1.369-1.19-1.45-1.749-.089-.559.421-.688 1.134-.283.712.397 1.36 1.182 1.449 1.749z" fill="#fff"/><path d="M339.36 384.099c1.749 4.032 4.032 8.178 4.494 12.616.34 3.239.64 8.519-1.725 11.094-2.251 2.445-5.992 2.016-8.915 1.409-1.806-.381-3.563-.956-5.329-1.498-.777-.243-1.546-.47-2.324-.697-.324-.097-1.158-.121-.785-.218-2.924.745-4.171-3.774-1.247-4.519 2.162-.55 4.64.624 6.664 1.247 2.008.616 5.847 2.308 7.912 1.377 1.724-.777 1.295-5.911 1.117-7.685-.381-3.749-2.437-7.361-3.903-10.762-1.199-2.737 2.842-5.126 4.041-2.364z" fill="#FFC2B0"/><path d="M340.34 383.588c3.425 6.778 3.798 14.082 3.798 21.338 0 3.271-6.244 3.417-6.244.137 0-6.85-.315-13.596-3.546-19.993-1.531-3.02 4.478-4.47 5.992-1.482z" fill="#18BDF7"/><path d="M317.86 405.785l-.105-.405c-.324-1.19.397-2.429 1.587-2.753l3.353-.899a2.263 2.263 0 0 1 2.753 1.587l.105.405c.324 1.191-.397 2.43-1.587 2.753l-3.352.899a2.26 2.26 0 0 1-2.754-1.587z" fill="#FFC2B0"/><path d="M368.101 327.632c.03-5.461-7.614-9.929-17.073-9.981-9.459-.051-17.151 4.334-17.18 9.795-.03 5.461 7.614 9.929 17.073 9.98 9.458.051 17.15-4.334 17.18-9.794z" fill="#DBEFFF"/><path d="M344.413 320.919l-7.337 1.498-.988 2.543c-.235 1.822-.226 2.794.988 3.757 1.02.81 3.094.187 4.179-.323l4.712-2.835c3.491-1.927 3.231-3.352 2.851-4.526-.559-1.312-2.178-1.013-4.405-.114zm15.571 9.029l-7.085-2.396-2.13 1.7c-1.126 1.458-1.603 2.3-1.037 3.741.47 1.215 2.584 1.717 3.774 1.822l5.498-.081c3.984.097 4.478-1.271 4.737-2.478.171-1.409-1.384-1.959-3.757-2.308z" fill="#1737A2"/><path d="M334.955 239.076c-4.001 6.065-5.766 13.799-7.345 20.795-.34 1.506-.47 2.405-.073 3.887 1.336 4.915 2.851 9.515 3.425 14.64.292 2.584 4.381 2.616 4.09 0-.535-4.761-1.45-9.458-2.964-14.009-.283-.858-.599-1.7-.923-2.542.3.769-.105 1.344.057.648.097-.43.186-.867.283-1.296 1.506-6.745 3.142-14.228 6.988-20.058 1.442-2.203-2.097-4.259-3.538-2.065z" fill="#FFC2B0"/><path d="M333.796 240.68c-2.704 4.713-4.664 12.681-6.445 19.127-.673 1.781-.251 3.393.874 3.32l3.766.518c.931-.057 2.696-2.065 3.125-3.555l4.77-16.398c.777-2.672.202-4.964-1.328-5.304l-.348-.048c-.251-.988-2.373-1.005-4.414 2.34z" fill="#88BDEB"/><path d="M346.445 270.552l-18.884 10.899a1.386 1.386 0 0 1-2.081-1.198v-13.151c0-.494.267-.955.697-1.198l18.884-10.9a1.386 1.386 0 0 1 2.081 1.199v13.15a1.402 1.402 0 0 1-.697 1.199z" fill="#1737A2"/><path d="M339.327 266.844c0 1.522-1.077 3.385-2.405 4.146-1.328.761-2.405.154-2.405-1.369 0-1.522 1.077-3.385 2.405-4.146 1.328-.769 2.405-.162 2.405 1.369z" fill="#fff"/><path d="M336.226 279.03l-1.376.624a2.109 2.109 0 0 1-2.786-1.053 2.108 2.108 0 0 1 1.053-2.786l1.376-.623a2.108 2.108 0 0 1 2.786 1.052 2.115 2.115 0 0 1-1.053 2.786z" fill="#FFC2B0"/><path opacity=".46" d="M352.146 225.844l.032.769s.106 2.332-2.186 1.126c-2.292-1.207-2.219-4.106-2.219-4.106s1.733-.21 4.373 2.211z" fill="#fff"/><path d="M349.968 227.805c2.988 1.555 2.883-1.166 2.883-1.166l.024.008-.089-.923c-3.337-2.867-5.45-2.729-5.45-2.729s-.356 3.255 2.632 4.81zm-2.09-4.065s1.701-.089 4.252 2.129l.024.673s.081 2.016-2.146.858c-2.227-1.15-2.13-3.66-2.13-3.66z" fill="#513554"/><path d="M353.968 227.165l-1.781-.81-.089-1.004 1.773.81.097 1.004zm-6.494-3.393l-.316-.146c-.17-.081-.324-.315-.348-.534-.025-.219.105-.332.275-.251l.316.146c.17.081.324.315.348.534.024.219-.105.332-.275.251zm11.49 5.247l-.316-.146c-.17-.081-.324-.315-.348-.534-.024-.219.105-.332.275-.251l.316.146c.17.081.324.316.348.534.025.219-.105.332-.275.251z" fill="#513554"/><path d="M358.713 228.193s-2.34-2.17-5.409-2.226l.089.923.024.008s.43 2.866 3.377 4.016c2.956 1.166 1.919-2.721 1.919-2.721zm-2.04 2.252c-2.195-.859-2.511-2.988-2.511-2.988l-.113-.713c2.34.008 4.211 1.733 4.211 1.733s.607 2.826-1.587 1.968z" fill="#2C4482"/><path d="M354.567 227.966c-.073-.089-.097-.202-.048-.251l.534-.583c.049-.048.146-.016.219.073.073.089.097.203.048.251l-.534.583c-.049.049-.146.017-.219-.073z" fill="#2C4482"/><path d="M348.219 224.946c-.073-.089-.098-.202-.049-.251l.535-.583c.048-.049.145-.016.218.073.073.089.097.202.049.251l-.535.583c-.048.048-.145.016-.218-.073z" fill="#FCFEFF"/><path d="M347.547 285.111c2.721 7.976 2.972 16.544 2.712 24.892-.194 6.219-1.174 12.495-1.02 18.714.105 4.081 6.454 4.098 6.349 0-.162-6.389.858-12.835 1.028-19.232.235-8.697-.121-17.758-2.956-26.066-1.303-3.847-7.441-2.195-6.113 1.692zm-12.778-7.158c1.425 5.175 2.073 10.519 2.583 15.847.308 3.15.68 6.155.348 9.297-.664 6.324-1.846 12.77-1.798 19.135.025 4.089 6.381 4.097 6.349 0-.041-6.462 1.166-12.997 1.83-19.419.332-3.231-.113-6.397-.437-9.628-.559-5.685-1.239-11.41-2.753-16.932-1.086-3.92-7.216-2.251-6.122 1.7z" fill="#1737A2"/><path d="M339.975 286.351c.583.656-1.935-2.543-1.182-2.081 1.571.947 10.389 6.939 12.227 6.972 2.219.04.924-2.106 2.575-3.587 1.563-1.401 1.936-3.685 2.09-5.782.04-.583.073-1.182-.162-1.717-.251-.575-.77-.988-1.272-1.36-3.919-2.964-11.62-10.301-17.094-7.96-6.324 2.704.008 12.373 2.818 15.515z" fill="#1737A2"/><path d="M335.376 239.425c-1.158 1.498-1.021 2.421-.964 4.462a4.561 4.561 0 0 0 3.328 4.259l19.637 5.507s1.126-7.555-2.745-9.831c-2.089-1.223-5.32-3.182-7.863-4.729-3.741-2.275-8.713-3.126-11.393.332z" fill="#DBEFFF"/><path d="M344.332 239.165l1.66-7.401 4.518 3.037-1.36 6.737c-.138 1.101-5.15.146-4.818-2.373z" fill="#FFC2B0"/><path d="M347.068 220.97s-4.526-3.15-4.567 4.51c-.032 5.328 3.207 9.944 7.58 12.025 2.721 1.296 6.049-.364 6.203-3.02.647-3.871.656-7.491-.616-10.608.178-3.199-2.024-2.065-5.822-2.268l-2.778-.639z" fill="#FFC2B0"/><path d="M344.477 235.837s-5.231-1.943-4.737-9.312c.535-7.968 7.871-7.288 11.944-7.677 1.806-.17 3.061-.429 4.908 1.215 1.684 1.498.105 4.867-2.3 5.085-.956.089-.519 2.664-.713 3.547-.34 1.571-1.32 2.34-1.684 3.863-.34 1.441-2.47 3.7-3.847 3.854-2.453.292-3.571-.575-3.571-.575z" fill="#1737A2"/><path d="M334.339 274.916c-1.247-.485-.948-21.969.17-33.832l22.107 10.519c-.114 10.098-1.385 18.074-.178 30.383l-22.099-7.07z" fill="#DBEFFF"/><path d="M349.061 284.172c-5.458-1.992-10.665-4.17-13.718-7.919-1.498-.867-1.312-2.397.421-3.393 1.733-1.004 4.381-1.11 5.879-.243l13.718 7.919c1.498.867 1.312 2.397-.421 3.393-1.733 1.004-4.373 1.11-5.879.243z" fill="#DBEFFF"/><path d="M356.616 251.596l-3.644-1.733c-.146 9.847-1.352 17.758-.17 29.84l-.057-.016c.025.68-.461 1.409-1.433 1.975-1.733 1.005-4.381 1.11-5.879.243-2.624-.955-5.182-1.959-7.474-3.15 3.012 2.308 6.988 3.92 11.11 5.426 1.498.866 4.146.753 5.879-.243.972-.559 1.457-1.288 1.433-1.976l.057.016c-1.207-12.308.065-20.276.178-30.382z" fill="#DBEFFF"/><path d="M358.843 229.262l-6.754.648a.438.438 0 0 1-.478-.397.437.437 0 0 1 .397-.478l6.754-.648a.437.437 0 0 1 .477.397.436.436 0 0 1-.396.478z" fill="#2C4482"/><path d="M352.073 242.3c-5.069-.762-8.495 2.429-9.709-4.875.737-.462 1.692-.235 2.186.477.867 1.256 2.721 2.049 4.77 1.798a1.61 1.61 0 0 1 1.546.729l1.207 1.871z" fill="#DCEFFF"/><path d="M352.907 248.908c.348 4.227 1.021 8.089 2.786 11.968 1.271 2.786 2.575 6.77 5.32 8.527 6.211 3.968 12.827-6.195 15.758-10.057 1.587-2.098-1.959-4.13-3.53-2.065-1.66 2.186-7.79 11.782-10.957 7.644-3.376-4.413-4.85-10.632-5.296-16.025-.202-2.6-4.291-2.624-4.081.008z" fill="#FFC2B0"/><path d="M350.85 248.858c1.239 10.454 4.535 17.103 9.094 20.479 2.397 1.328 4.648-2.461 3.725-4.745-4.543-4.041-6.146-10.349-6.575-17.54-.591-1.457-2.284-2.251-3.903-1.83-1.685.438-2.721 2.041-2.341 3.636z" fill="#fff"/><path d="M371.491 261.021l.591.478a2.569 2.569 0 0 0 3.604-.397l1.984-2.478a2.57 2.57 0 0 0-.397-3.603l-.591-.478a2.57 2.57 0 0 0-3.604.397l-1.984 2.478a2.57 2.57 0 0 0 .397 3.603z" fill="#FFC2B0"/><path d="M349.304 233.222c-.251.186-.81 5.514 3.668 4.648 4.486-.867 3.58-5.345 3.58-5.345s-3.555.923-4.543-3.49-2.705 4.187-2.705 4.187z" fill="#1737A2"/><path d="M353.126 231.019c.105 1.263-.535 2.349-1.442 2.421a1.092 1.092 0 0 1-.291-.008c-.786-.121-1.442-1.012-1.539-2.129-.105-1.264.535-2.349 1.442-2.422.898-.089 1.716.875 1.83 2.138z" fill="#FFC2B0"/><path opacity=".4" d="M204.72 275.273c.915-.883 1.125-2.259.753-3.644-1.393-5.134-1.531-10.705-1.539-15.871 0-1.83.008-2.033.202-3.806-.121 1.077.065-.122.179-.43.105-.267.21-.534.324-.801.267-.616.583-1.191.906-1.782a.32.32 0 0 0 .041-.081l.089-.089c.186-.202.389-.413.567-.623a1.78 1.78 0 0 1 .121-.114c.178-.129.349-.259.535-.372.097-.065 1.304-1.134 1.409-1.19l-6.762-4.001c-1.036 1.223-3.522 3.887-4.122 5.426-1.174 3.012-1.06 6.219-.996 9.523.106 5.36.551 10.786 2.001 16.122.089.34.251.656.461.939l-3.676 5.483c-1.037 2.137-1.417 3.733-.016 4.478 1.903.243 2.72-.17 4.963-2.268l3.952-4.721c.527-.955 1.012-1.174.608-2.178zm1.74-27.33c.122-.097.195-.145 0 0zm8.981.971c-.98 1.085-3.45 4.527-4.025 5.92-1.109 2.688-1.392 5.579-2.032 8.413-1.142 5.053-2.332 10.074-3.102 15.224-.226 1.49.454 2.696 1.474 3.474l-2.599 6.591c-.567 2.333-.608 3.993.891 4.487 1.878-.106 2.583-.673 4.316-3.175l2.85-5.45c.356-1.149.826-1.4-.049-2.567.292-.38.503-.858.592-1.449.745-5.004 1.854-9.887 2.996-14.778.283-1.223.469-2.462.696-3.693.122-.664.259-1.32.413-1.976.073-.291.154-.583.235-.874.024-.081.032-.13.04-.162a2.37 2.37 0 0 1 .073-.178c.632-1.555 3.741-4.414 4.843-5.402l-7.612-4.405z" fill="#A8C4E5"/><path d="M190.249 275.928l4.202-6.26 3.296-1.595c3.021 4.203 2.268 3.798 1.401 5.336l-3.951 4.721c-2.244 2.09-3.061 2.511-4.964 2.268-1.401-.745-1.021-2.341.016-4.47zm9.944 8.584l2.777-7.037 2.842-2.194c3.758 3.652 2.948 3.392 2.43 5.093l-2.851 5.45c-1.733 2.502-2.437 3.069-4.316 3.174-1.49-.494-1.441-2.154-.882-4.486z" fill="#1F3B82"/><path d="M216.437 207.924c-3.069 3.822-5.24 7.142-6.503 11.912-1.198 4.534-1.781 9.134-2.51 13.79-.454 2.883-5.256 1.66-4.802-1.231.834-5.336 1.547-10.592 3.045-15.758 1.368-4.705 3.959-8.211 6.988-11.984 1.806-2.244 5.571 1.036 3.782 3.271z" fill="#FFC2B0"/><path d="M210.072 202.628l-4.964 10.9c-.616 3.49 7.782 5.862 8.567 3.077l3.766-10.956c.494-1.782-.567-3.766-2.446-4.6-1.959-.858-4.13-.162-4.923 1.579z" fill="#FF9359"/><path d="M218.194 229.805c-4.648 1.749-9.385 3.312-14.115 4.891-2.534.842-5.231 1.676-7.336 3.231-2.065 1.522-3.369 3.595-4.276 5.935-1.174 3.013-1.06 6.219-.996 9.523.106 5.361.551 10.786 2.001 16.123.518 1.919 3.158 2.98 4.899 2.51 2.081-.567 2.672-2.494 2.146-4.421-1.393-5.134-1.531-10.705-1.539-15.872 0-1.83.008-2.032.202-3.806-.121 1.077.065-.121.179-.429.105-.267.21-.534.323-.802.268-.615.583-1.19.907-1.781.284-.518-.518.51.122-.17.186-.203.389-.413.567-.624.154-.186.737-.583-.065.008.235-.17.47-.34.721-.502.55-.348 1.149-.631 1.757-.898-.81.364.016 0 .202-.073.405-.146.802-.3 1.207-.446 5.263-1.87 10.624-3.514 15.847-5.482 1.822-.688 2.94-2.421 2.146-4.421-.688-1.725-3.061-3.183-4.899-2.494z" fill="#1F3B82"/><path d="M224.421 236.339c-4.122 2.502-8.413 4.875-12.227 7.774-2.397 1.822-4.576 3.887-5.734 6.688-1.109 2.689-1.392 5.58-2.032 8.414-1.142 5.053-2.332 10.074-3.101 15.224-.673 4.486 6.794 6.405 7.466 1.911.745-5.005 1.854-9.888 2.996-14.779.283-1.222.469-2.461.696-3.692.122-.664.259-1.32.413-1.976.073-.291.154-.583.235-.875.194-.704-.219.486.121-.348.843-2.065 1.944-3.295 3.717-4.583 3.774-2.761 7.904-5.11 11.928-7.547 3.895-2.373-.567-8.584-4.478-6.211z" fill="#1F3B82"/><path d="M219.231 244.38l-9.151-4.761c-2.186-1.134-3.174-3.677-2.194-5.636.971-1.968 3.555-2.648 5.741-1.507l9.15 4.762c2.187 1.134 3.167 3.676 2.195 5.636-.98 1.96-3.563 2.64-5.741 1.506z" fill="#21275E"/><path d="M208.306 230.241c.972.057 3.531-8.203 1.798-25.467l23.532 11.523c-1.304 11.175.883 11.385-2.891 25.014l-22.439-11.07z" fill="#FF9359"/><path d="M221.571 236.419c.558.899 8.195-2.899 7.733-16.989-.057-1.789.17-1.935 2-1.295l2.397-1.28c-.437 9.102 1.045 11.863-.632 20.423-.575 2.923-4.146 4.081-6.883 2.235l-4.615-3.094z" fill="#FF9359"/><path d="M225.255 243.425c-6.656-2.454-13.021-5.11-16.973-9.466-1.854-1.037-1.757-2.754.219-3.822 1.976-1.069 4.802-2.608 6.656-1.571l16.212 9.854c1.854 1.037.818 2.163-1.158 3.231l-.122-1.101c-1.976 1.069-2.98 3.911-4.834 2.875z" fill="#FF9359"/><path d="M231.49 239.052l-5.045-6.429c-8.705 12.689-15.15 3.053-17.677 1.854 3.976 3.693 9.483 6.235 15.54 8.462 1.854 1.037 4.996 1.012 6.964-.056 1.976-1.077 2.073-2.794.218-3.831zm-20.057-38.157c-1.442 1.498-1.32 2.551-1.336 4.851-.017 2.243 1.522 4.389 3.789 5.296l23.152 9.239s1.66-8.284-2.859-11.442a919.856 919.856 0 0 1-9.166-6.535c-4.357-3.126-10.244-4.858-13.58-1.409z" fill="#FF9359"/><path d="M221.328 204.71l-2.883-9.547 6.268 2.275 2.348 7.798c.478 1.28-3.717 4.389-5.733-.526z" fill="#FFC2B0"/><path d="M220.712 202.491c.114.243 2.964-.697 2.843-.996 0 0-1.086 1.798-2.495 2.364l-.348-1.368z" fill="#EA8A6C"/><path d="M235.96 213.739c.883 4.154 2.106 8.284 2.875 12.446.672 3.603 1.879 8.381.17 11.677-2.859 5.522-12.479 3.239-17.775 4.794-2.899.85-4.664-3.612-1.773-4.462 2.859-.842 5.806-1.093 8.859-1.207 2.462-.089 5.838.324 6.527-2.356.769-3.005-.575-7.337-1.264-10.446-.769-3.49-1.732-6.948-2.469-10.446-.616-2.964 4.227-2.94 4.85 0zm-30.18 16.762c1.328.688 1.936 2.235 1.344 3.433l-2.04 4.154c-.591 1.199-2.162 1.62-3.49.931-1.328-.688-1.936-2.235-1.344-3.433l2.04-4.154c.591-1.199 2.162-1.62 3.49-.931z" fill="#FFC2B0"/><path d="M229.312 213.091l2.024 12.365c1.425 3.474 9.458 1.465 8.551-1.45l-3.012-11.814c-.583-1.863-2.527-3.142-4.486-2.964-2.041.186-3.401 1.887-3.077 3.863z" fill="#FF9359"/><path d="M222.883 241.741l-2.049-.591-.664.259-.186-.324-18.358-9.547c-.218-.114-.583-.097-.809.032l-7.005 4.106-.016-.114-1.32.527.057.542h.008a.272.272 0 0 0 .146.138l19.102 9.928c.024.016.041.04.049.073.396 1.465 1.068 2.769 2.316 2.008l7.757-4.575a1.88 1.88 0 0 0 .98-1.669l-.008-.793z" fill="#A8C4E5"/><path d="M212.574 248.226l-21.993-11.434c-.251-.13-.251-.364.008-.518l9.345-5.482c.259-.154.68-.17.939-.041l21.994 11.434c.251.13.251.365-.008.518l-9.345 5.483c-.267.161-.689.178-.94.04z" fill="#E1EAF4"/><path d="M213.19 240.867l-5.32-2.77c-.065-.032-.057-.089 0-.121l2.259-1.328a.246.246 0 0 1 .227-.008l5.32 2.769c.065.033.056.089 0 .122l-2.259 1.328c-.065.032-.171.04-.227.008z" fill="#A8C4E5"/><path d="M210.639 235.36c-.138-.519-.64-1.142-1.109-1.377L187.722 222.8c-.194-.097-.356-.121-.461-.073a.187.187 0 0 0-.097.081l-.608.68.616-.056 3.271 12.081c.138.519.64 1.142 1.11 1.377l20.633 10.568.704.672.097.17c.405.081 1.28-.559 1.28-.559l-3.628-12.381z" fill="#fff"/><path d="M212.704 248.818l-21.815-11.175c-.47-.243-.964-.858-1.11-1.377l-3.312-12.219c-.137-.518.122-.753.592-.51l21.815 11.175c.469.243.963.858 1.109 1.376l3.312 12.22c.146.518-.121.753-.591.51z" fill="#18BDF7"/><path d="M200.469 236.987c.178.648-.43.794-1.345.324-.915-.469-1.805-1.376-1.976-2.024-.178-.648.43-.794 1.345-.324.915.47 1.806 1.377 1.976 2.024z" fill="#fff"/><path d="M213.44 242.363c-.631-1.392.009-2.907 1.418-3.36l4.874-1.579c1.409-.454 3.078.307 3.709 1.7.632 1.393-.008 2.907-1.417 3.361l-4.875 1.579c-1.417.453-3.085-.308-3.709-1.701z" fill="#FFC2B0"/><path d="M219.368 202.977c-.858 2.048 1.466 3.805 3.158 4.332.94.291 1.976.121 2.915-.105.98-.235 2.057-.616 2.397-1.66.349-1.077.227-2.535-.469-3.442-.267-.348-.859-.283-1.142 0-.34.34-.267.794 0 1.142-.105-.13-.008.016.024.081.041.081-.008-.016-.016-.033l.049.146c.024.089.048.178.064.275l.025.122c-.016-.089 0 0 0 .04.016.203.024.405.016.608 0 .097-.008.194-.024.291-.008.097 0 0 0-.016-.008.065-.025.122-.041.186-.016.081-.04.154-.065.227.065-.202-.056.089.017-.024.064-.106-.025.024-.057.048-.081.073.121-.073.016-.016-.04.024-.073.049-.113.073-.073.04-.154.081-.227.113-.016.008-.138.057-.024.008a.649.649 0 0 1-.122.041c-.21.073-.429.138-.648.194-.194.049-.396.089-.599.13a3.609 3.609 0 0 1-.55.073c-.179.016-.357.016-.535.024-.024 0-.049-.008-.081-.008-.105.008.162.032.049.008-.073-.016-.138-.024-.211-.04a3.26 3.26 0 0 1-.453-.138c-.049-.016-.089-.033-.138-.049.016.008.105.049.024.008-.089-.04-.186-.089-.275-.129a4.033 4.033 0 0 1-.478-.284c-.065-.04-.129-.089-.194-.137-.105-.081.081.065-.024-.016-.041-.033-.081-.065-.122-.106a4.38 4.38 0 0 1-.437-.445c-.081-.097.065.089-.008-.016-.025-.041-.057-.081-.081-.122l-.073-.121c-.008-.016-.073-.146-.033-.065.025.057-.048-.146-.056-.202l-.024-.098c.032.17 0 .017.008-.024v-.105c0-.203-.025.081.008-.033.024-.113.064-.218.105-.323.17-.405-.178-.891-.567-.997-.461-.105-.818.179-.988.584z" fill="#FCFEFF"/><path d="M221.117 202.555l-1.79.187c-2.753.291-5.49-1.652-6.081-4.308l-1.952-8.786c-.591-2.656 1.174-5.069 3.936-5.361l1.789-.186c2.754-.292 5.491 1.652 6.082 4.308l1.951 8.786c.591 2.656-1.182 5.069-3.935 5.36z" fill="#FFC2B0"/><path d="M218.955 190.984c-1.725.988-3.296.64-5.531.016-2.421-.68-3.498-2.729-2.016-4.446.802-.931 1.288-1.919 3.182-2.866 5.385-2.689 12.034-.502 13.451 5.854 0 0 1.757 7.021-1.555 9.661-.591.47-1.563.186-1.903-.543 0 0 1.773-2.048-.899-3.53-.81-.446-1.733-1.612-1.862-2.681-.13-1.085-1.944-2-2.867-1.465z" fill="#1737A2"/><path d="M225.805 197.349c-.607.769-1.571.696-2.162-.154-.583-.859-.575-2.178.032-2.948.608-.769 1.571-.696 2.162.154.592.858.575 2.178-.032 2.948z" fill="#FFC2B0"/><path d="M213.271 190.919c-.033.162 6.033 1.361 8.3 4.964.413.656 1.482.373 1.692-.308.381-1.222.551-3.02-.785-4.721-2.324-2.947-8.964-1.093-9.207.065z" fill="#1737A2"/><path d="M24.124 159.12l-5.717 3.304c-.778.446-1.41-.032-1.41-1.061 0-1.036.632-2.243 1.41-2.688l5.717-3.304c.777-.445 1.409.033 1.409 1.061 0 1.036-.632 2.243-1.41 2.688zm0-21.265l-5.717 3.304c-.778.445-1.41-.033-1.41-1.061 0-1.036.632-2.243 1.41-2.688l5.717-3.304c.777-.446 1.409.032 1.409 1.061 0 1.036-.632 2.243-1.41 2.688zm0 42.027l-5.717 3.304c-.778.446-1.41-.032-1.41-1.061 0-1.036.632-2.243 1.41-2.688l5.717-3.304c.777-.445 1.409.033 1.409 1.061 0 1.036-.632 2.243-1.41 2.688zm0 20.762l-5.717 3.304c-.778.446-1.41-.032-1.41-1.061 0-1.036.632-2.243 1.41-2.688l5.717-3.304c.777-.445 1.409.032 1.409 1.061 0 1.036-.632 2.243-1.41 2.688zm0 22.998l-5.717 3.304c-.778.446-1.41-.032-1.41-1.061 0-1.036.632-2.243 1.41-2.688l5.717-3.304c.777-.445 1.409.033 1.409 1.061s-.632 2.235-1.41 2.688z" fill="#18BDF7"/><defs><linearGradient id="a" x1="255.622" y1="286.558" x2="400.895" y2="286.558" gradientUnits="userSpaceOnUse"><stop offset=".059" stop-color="#88B6EA"/><stop offset=".941" stop-color="#BAD5EB"/></linearGradient><linearGradient id="b" x1="191.264" y1="438.652" x2="283.539" y2="438.652" gradientUnits="userSpaceOnUse"><stop offset=".059" stop-color="#88B6EA"/><stop offset=".941" stop-color="#BAD5EB"/></linearGradient><linearGradient id="c" x1="216.54" y1="119.774" x2="352.71" y2="119.774" gradientUnits="userSpaceOnUse"><stop stop-color="#E5F2FF"/><stop offset=".356" stop-color="#E2F0FE"/><stop offset=".605" stop-color="#D9E8FA"/><stop offset=".82" stop-color="#CADAF5"/><stop offset="1" stop-color="#B6C9ED"/></linearGradient><linearGradient id="d" x1="401.843" y1="373.203" x2="513.535" y2="373.203" gradientUnits="userSpaceOnUse"><stop offset=".059" stop-color="#88B6EA"/><stop offset=".941" stop-color="#BAD5EB"/></linearGradient></defs></svg>