<svg width="496" height="357" viewBox="0 0 496 357" fill="none" xmlns="http://www.w3.org/2000/svg">
<path d="M49.1 286.3C49.1 290.3 48.5 293.9 47.2 297C45.9 300.1 44.1 302.7 41.7 304.8C39.3 306.9 36.4 308.5 32.9 309.7C29.4 310.8 25.3 311.4 20.6 311.4H14.6V334.3C14.6 334.7 14.5 335 14.2 335.3C14 335.6 13.6 335.8 13 336C12.4 336.2 11.7 336.3 10.8 336.4C9.89998 336.5 8.69998 336.6 7.29998 336.6C5.89998 336.6 4.69998 336.5 3.79998 336.4C2.89998 336.3 2.09998 336.1 1.59998 336C0.999976 335.8 0.699976 335.6 0.399976 335.3C0.199976 335 0.0999756 334.7 0.0999756 334.3V269.8C0.0999756 268.1 0.599976 266.8 1.49998 265.9C2.39998 265 3.59998 264.6 5.09998 264.6H22C23.7 264.6 25.3 264.7 26.8 264.8C28.3 264.9 30.2 265.2 32.3 265.6C34.4 266 36.6 266.8 38.8 268C41 269.1 42.9 270.6 44.4 272.4C46 274.2 47.1 276.2 47.9 278.6C48.7 280.7 49.1 283.4 49.1 286.3ZM33.9 287.3C33.9 284.8 33.5 282.7 32.6 281.1C31.7 279.5 30.6 278.3 29.3 277.5C28 276.7 26.6 276.2 25.2 276C23.8 275.8 22.3 275.7 20.8 275.7H14.6V300H21.1C23.4 300 25.4 299.7 26.9 299.1C28.5 298.5 29.8 297.6 30.8 296.5C31.8 295.4 32.6 294 33.1 292.5C33.6 290.9 33.9 289.2 33.9 287.3Z" fill="#F8F8F8"/>
<path d="M107.8 309.1C107.8 313.3 107.2 317.2 106.1 320.6C105 324.1 103.3 327.1 101.1 329.6C98.7999 332.1 96 334.1 92.5999 335.4C89.1999 336.8 85.1999 337.5 80.6999 337.5C76.2999 337.5 72.4999 336.9 69.1999 335.7C65.8999 334.5 63.2999 332.7 61.0999 330.4C58.9999 328.1 57.3999 325.2 56.2999 321.8C55.2999 318.4 54.7 314.5 54.7 310.2C54.7 306 55.3 302.1 56.4 298.6C57.5 295.1 59.2 292.1 61.5 289.6C63.8 287.1 66.6 285.2 70 283.8C73.4 282.4 77.3 281.7 81.9 281.7C86.3 281.7 90.2 282.3 93.4 283.5C96.7 284.7 99.2999 286.5 101.5 288.8C103.6 291.1 105.2 294 106.2 297.4C107.2 300.8 107.8 304.7 107.8 309.1ZM93.4 309.7C93.4 307.3 93.2 305 92.8 303C92.4 300.9 91.8 299.2 90.8 297.7C89.9 296.2 88.5999 295 87.0999 294.2C85.5999 293.3 83.6 292.9 81.3 292.9C79.2 292.9 77.4 293.3 75.9 294C74.3 294.8 73.0999 295.9 72.0999 297.3C71.0999 298.8 70.4 300.5 69.9 302.6C69.4 304.7 69.1999 307 69.1999 309.6C69.1999 312 69.4 314.3 69.8 316.3C70.2 318.4 70.9 320.1 71.8 321.6C72.7 323.1 73.9 324.3 75.5 325.1C77.1 325.9 79 326.3 81.3 326.3C83.4 326.3 85.2 325.9 86.8 325.2C88.4 324.4 89.5999 323.3 90.5999 321.9C91.5999 320.5 92.3 318.7 92.8 316.7C93.2 314.6 93.4 312.3 93.4 309.7Z" fill="#F8F8F8"/>
<path d="M132.8 334.3C132.8 334.7 132.7 335 132.5 335.3C132.3 335.6 131.9 335.8 131.4 336C130.9 336.2 130.2 336.3 129.3 336.4C128.4 336.5 127.3 336.5 125.9 336.5C124.5 336.5 123.4 336.5 122.5 336.4C121.6 336.3 120.9 336.2 120.4 336C119.9 335.8 119.5 335.6 119.3 335.3C119.1 335 119 334.7 119 334.3V261.4C119 261 119.1 260.7 119.3 260.4C119.5 260.1 119.9 259.9 120.4 259.7C120.9 259.5 121.6 259.3 122.5 259.2C123.4 259.1 124.5 259 125.9 259C127.3 259 128.4 259.1 129.3 259.2C130.2 259.3 130.9 259.5 131.4 259.7C131.9 259.9 132.3 260.2 132.5 260.4C132.7 260.7 132.8 261 132.8 261.4V334.3Z" fill="#F8F8F8"/>
<path d="M161.7 268.2C161.7 271 161.1 272.9 160 274C158.9 275.1 156.7 275.6 153.6 275.6C150.5 275.6 148.3 275.1 147.3 274C146.2 273 145.7 271.1 145.7 268.4C145.7 265.6 146.3 263.6 147.4 262.6C148.5 261.5 150.7 261 153.8 261C156.9 261 159 261.5 160.1 262.6C161.1 263.6 161.7 265.5 161.7 268.2ZM160.6 334.3C160.6 334.7 160.5 335 160.3 335.3C160.1 335.6 159.7 335.8 159.2 336C158.7 336.2 158 336.3 157.1 336.4C156.2 336.5 155.1 336.5 153.7 336.5C152.3 336.5 151.2 336.5 150.3 336.4C149.4 336.3 148.7 336.2 148.2 336C147.7 335.8 147.3 335.6 147.1 335.3C146.9 335 146.8 334.7 146.8 334.3V285C146.8 284.6 146.9 284.3 147.1 284C147.3 283.7 147.7 283.5 148.2 283.3C148.7 283.1 149.4 282.9 150.3 282.8C151.2 282.7 152.3 282.6 153.7 282.6C155.1 282.6 156.2 282.7 157.1 282.8C158 282.9 158.7 283.1 159.2 283.3C159.7 283.5 160.1 283.7 160.3 284C160.5 284.3 160.6 284.6 160.6 285V334.3Z" fill="#F8F8F8"/>
<path d="M212 326.5C212 327.5 212 328.3 211.9 328.9C211.8 329.5 211.8 330.1 211.7 330.5C211.6 330.9 211.5 331.3 211.4 331.6C211.3 331.9 211 332.2 210.5 332.7C210.1 333.1 209.3 333.6 208.2 334.3C207.1 334.9 205.9 335.5 204.5 335.9C203.1 336.4 201.6 336.8 200 337.1C198.4 337.4 196.7 337.5 195 337.5C191.2 337.5 187.8 336.9 184.9 335.7C182 334.5 179.5 332.8 177.5 330.5C175.5 328.2 174 325.4 173 322C172 318.7 171.5 314.9 171.5 310.6C171.5 305.6 172.1 301.4 173.4 297.8C174.6 294.2 176.4 291.2 178.6 288.8C180.8 286.4 183.4 284.7 186.5 283.5C189.5 282.4 192.9 281.8 196.5 281.8C198 281.8 199.4 281.9 200.8 282.2C202.2 282.5 203.6 282.8 204.8 283.3C206 283.7 207.1 284.2 208.1 284.8C209.1 285.4 209.8 285.8 210.2 286.2C210.6 286.6 210.9 287 211.1 287.2C211.3 287.5 211.4 287.8 211.5 288.3C211.6 288.7 211.7 289.3 211.7 289.9C211.8 290.5 211.8 291.3 211.8 292.3C211.8 294.4 211.6 295.9 211.2 296.8C210.8 297.7 210.3 298.1 209.8 298.1C209.2 298.1 208.5 297.8 207.8 297.3C207.1 296.8 206.3 296.2 205.3 295.6C204.3 295 203.2 294.4 201.9 293.9C200.6 293.4 199 293.1 197.1 293.1C193.5 293.1 190.7 294.5 188.8 297.3C186.9 300.1 185.9 304.2 185.9 309.6C185.9 312.3 186.1 314.6 186.6 316.6C187.1 318.6 187.8 320.3 188.7 321.7C189.6 323.1 190.8 324.1 192.2 324.8C193.6 325.5 195.3 325.8 197.2 325.8C199.1 325.8 200.8 325.5 202.2 324.9C203.6 324.3 204.8 323.7 205.8 323C206.8 322.3 207.7 321.7 208.4 321.1C209.1 320.5 209.7 320.2 210.2 320.2C210.5 320.2 210.8 320.3 211 320.5C211.2 320.7 211.4 321 211.5 321.5C211.6 322 211.7 322.6 211.8 323.4C211.9 324.2 212 325.2 212 326.5Z" fill="#F8F8F8"/>
<path d="M250.7 336.2L244.7 353.7C244.4 354.6 243.5 355.3 242 355.7C240.5 356.1 238.4 356.3 235.5 356.3C234 356.3 232.8 356.2 232 356.1C231.1 356 230.4 355.8 230 355.5C229.6 355.2 229.3 354.8 229.3 354.4C229.3 354 229.4 353.4 229.6 352.8L236.2 336.2C235.7 336 235.3 335.6 234.9 335.2C234.5 334.7 234.2 334.2 234 333.7L217 288.2C216.5 286.9 216.3 285.9 216.3 285.2C216.3 284.5 216.5 284 217 283.6C217.4 283.2 218.2 282.9 219.2 282.8C220.3 282.7 221.6 282.6 223.4 282.6C225 282.6 226.2 282.6 227.2 282.7C228.1 282.8 228.8 282.9 229.4 283.1C229.9 283.3 230.3 283.7 230.6 284.1C230.9 284.6 231.1 285.2 231.4 286.1L243 319.2H243.2L253.8 285.4C254 284.4 254.3 283.8 254.7 283.5C255.1 283.2 255.6 283 256.4 282.8C257.2 282.7 258.6 282.6 260.7 282.6C262.3 282.6 263.6 282.7 264.7 282.8C265.8 282.9 266.5 283.2 267 283.6C267.5 284 267.7 284.6 267.7 285.2C267.7 285.9 267.6 286.7 267.3 287.6L250.7 336.2Z" fill="#F8F8F8"/>
<path d="M333.5 299.3C333.5 305.5 332.7 310.9 331.1 315.6C329.5 320.2 327.2 324.1 324.1 327.1C321 330.1 317.3 332.4 312.9 333.9C308.5 335.4 303.2 336.2 297 336.2H281.8C280.9 336.2 280.1 335.9 279.4 335.3C278.6 334.7 278.3 333.7 278.3 332.3V268.3C278.3 266.9 278.7 265.9 279.4 265.3C280.2 264.7 281 264.4 281.8 264.4H298C304.2 264.4 309.5 265.2 313.7 266.8C318 268.4 321.6 270.7 324.5 273.7C327.4 276.7 329.6 280.4 331.1 284.6C332.8 289.1 333.5 293.9 333.5 299.3ZM323.5 299.7C323.5 295.8 323 292.2 322.1 288.9C321.1 285.6 319.6 282.7 317.6 280.2C315.6 277.8 313 275.9 309.8 274.5C306.7 273.1 302.6 272.5 297.7 272.5H288V328.3H297.8C302.4 328.3 306.2 327.7 309.4 326.6C312.5 325.5 315.2 323.7 317.3 321.3C319.4 318.9 321 316 322 312.4C323 308.8 323.5 304.6 323.5 299.7Z" fill="#F8F8F8"/>
<path d="M393.6 309.3C393.6 313.4 393.1 317.1 392 320.5C390.9 323.9 389.3 326.9 387.2 329.3C385.1 331.8 382.4 333.7 379.2 335.1C376 336.5 372.3 337.2 368.1 337.2C364 337.2 360.4 336.6 357.4 335.4C354.4 334.2 351.8 332.4 349.8 330.1C347.8 327.8 346.3 324.9 345.3 321.6C344.3 318.3 343.8 314.5 343.8 310.3C343.8 306.2 344.3 302.5 345.4 299.1C346.5 295.7 348 292.7 350.2 290.3C352.3 287.8 355 285.9 358.2 284.5C361.4 283.1 365.1 282.4 369.3 282.4C373.4 282.4 377 283 380 284.2C383 285.4 385.6 287.2 387.6 289.5C389.6 291.8 391.2 294.7 392.2 298C393.1 301.4 393.6 305.2 393.6 309.3ZM384.1 309.9C384.1 307.2 383.8 304.7 383.3 302.2C382.8 299.8 382 297.7 380.8 295.9C379.6 294.1 378.1 292.7 376.1 291.6C374.1 290.5 371.7 290 368.7 290C366 290 363.6 290.5 361.7 291.4C359.7 292.4 358.1 293.7 356.9 295.5C355.6 297.3 354.7 299.3 354.1 301.7C353.5 304.1 353.2 306.7 353.2 309.6C353.2 312.3 353.4 314.9 353.9 317.3C354.4 319.7 355.2 321.8 356.4 323.6C357.6 325.4 359.2 326.8 361.1 327.9C363.1 329 365.5 329.5 368.5 329.5C371.2 329.5 373.5 329 375.5 328.1C377.5 327.1 379.1 325.8 380.4 324.1C381.7 322.4 382.6 320.3 383.2 317.9C383.8 315.5 384.1 312.8 384.1 309.9Z" fill="#F8F8F8"/>
<path d="M442.9 327.2C442.9 327.8 442.9 328.4 442.8 328.8C442.8 329.3 442.7 329.6 442.6 330C442.5 330.3 442.4 330.6 442.3 330.8C442.2 331 441.9 331.4 441.4 331.9C440.9 332.4 440.2 332.9 439 333.6C437.9 334.3 436.6 334.9 435.3 335.4C433.9 335.9 432.4 336.4 430.8 336.7C429.2 337 427.5 337.2 425.8 337.2C422.2 337.2 419 336.6 416.3 335.4C413.5 334.2 411.2 332.5 409.3 330.2C407.4 327.9 406 325.1 405 321.8C404 318.5 403.5 314.7 403.5 310.4C403.5 305.5 404.1 301.3 405.3 297.7C406.5 294.2 408.1 291.3 410.2 289C412.3 286.7 414.7 285.1 417.6 284C420.4 282.9 423.5 282.4 426.8 282.4C428.4 282.4 429.9 282.5 431.4 282.8C432.9 283.1 434.3 283.5 435.5 284C436.8 284.5 437.9 285 438.9 285.7C439.9 286.3 440.6 286.9 441 287.3C441.4 287.7 441.7 288.1 441.9 288.4C442.1 288.7 442.2 289 442.3 289.3C442.4 289.7 442.5 290 442.5 290.5C442.5 290.9 442.6 291.5 442.6 292.2C442.6 293.6 442.4 294.7 442.1 295.2C441.8 295.8 441.4 296.1 440.9 296.1C440.3 296.1 439.7 295.8 439 295.2C438.3 294.6 437.4 293.9 436.3 293.2C435.2 292.5 433.8 291.8 432.3 291.2C430.7 290.6 428.9 290.3 426.7 290.3C422.3 290.3 418.9 292 416.6 295.4C414.3 298.8 413.1 303.7 413.1 310.1C413.1 313.3 413.4 316.1 414 318.6C414.6 321 415.5 323 416.7 324.7C417.9 326.3 419.3 327.5 421 328.3C422.7 329.1 424.7 329.5 426.9 329.5C429 329.5 430.9 329.2 432.4 328.5C434 327.8 435.4 327.1 436.5 326.3C437.7 325.5 438.6 324.8 439.4 324.1C440.2 323.5 440.8 323.1 441.3 323.1C441.6 323.1 441.8 323.2 442 323.3C442.2 323.5 442.3 323.7 442.5 324C442.6 324.4 442.7 324.8 442.8 325.3C442.9 325.9 442.9 326.5 442.9 327.2Z" fill="#F8F8F8"/>
<path d="M496 334.8C496 335.1 495.9 335.4 495.8 335.6C495.7 335.8 495.4 336 495.1 336.2C494.7 336.3 494.3 336.5 493.6 336.5C493 336.6 492.2 336.6 491.2 336.6C490.2 336.6 489.4 336.6 488.7 336.5C488.1 336.4 487.5 336.4 487.1 336.2C486.7 336.1 486.3 335.9 486 335.6C485.7 335.4 485.5 335.1 485.3 334.7L464.2 307.1V334.8C464.2 335.1 464.1 335.3 464 335.6C463.9 335.8 463.6 336 463.3 336.1C463 336.2 462.5 336.4 461.9 336.4C461.3 336.5 460.5 336.5 459.6 336.5C458.7 336.5 458 336.5 457.4 336.4C456.8 336.3 456.3 336.2 456 336.1C455.7 336 455.4 335.8 455.3 335.6C455.2 335.4 455.1 335.1 455.1 334.8V260.7C455.1 260.4 455.2 260.1 455.3 259.9C455.4 259.7 455.7 259.5 456 259.3C456.4 259.2 456.8 259 457.4 259C458 258.9 458.7 258.9 459.6 258.9C460.5 258.9 461.3 258.9 461.9 259C462.5 259.1 463 259.2 463.3 259.3C463.6 259.4 463.9 259.6 464 259.9C464.1 260.1 464.2 260.4 464.2 260.7V305.8L483 285.1C483.3 284.7 483.6 284.4 483.9 284.2C484.2 284 484.6 283.8 485.1 283.6C485.6 283.4 486.1 283.3 486.7 283.3C487.3 283.2 488.1 283.2 489 283.2C489.9 283.2 490.7 283.2 491.3 283.3C491.9 283.4 492.4 283.4 492.8 283.6C493.2 283.7 493.5 283.9 493.6 284.1C493.8 284.3 493.9 284.6 493.9 284.9C493.9 285.3 493.8 285.8 493.5 286.2C493.3 286.6 492.9 287.2 492.3 287.8L474.2 305.9L494.5 332.2C495 332.8 495.3 333.3 495.5 333.7C495.9 334.1 496 334.4 496 334.8Z" fill="#F8F8F8"/>
<path d="M184.2 63.5999V36.8999C184.2 31.9999 179.8 28.1999 175 29.0999C156.4 32.4999 140.6 43.8999 131.3 59.5999C128.1 64.8999 131.9 71.6999 138.1 71.5999L176.4 71.3999C180.7 71.4999 184.2 67.8999 184.2 63.5999Z" fill="#F8F8F8"/>
<path d="M197.1 71.4001L320.3 70.8001C325.4 70.8001 329.2 66.0001 327.9 61.1001C319.2 26.1001 287.5 0.100098 249.8 0.100098C226.7 0.100098 205.9 9.8001 191.2 25.4001C189.9 26.8001 189.1 28.8001 189.1 30.7001V63.6001C189.1 67.9001 192.7 71.4001 197.1 71.4001Z" fill="#F8F8F8"/>
<path d="M197 199.2H319.5C323.9 199.2 327.4 195.7 327.4 191.3V83.6002C327.4 79.2002 323.8 75.7002 319.5 75.7002L197 76.3002C192.7 76.3002 189.1 79.8002 189.1 84.2002V191.3C189.1 195.7 192.7 199.2 197 199.2Z" fill="#F8F8F8"/>
<path d="M357 70.9001C350.8 70.1001 344.7 70.3001 338.8 71.2001C335.1 71.8001 332.4 74.9001 332.4 78.6001V191.3C332.4 195.7 335.9 199.2 340.3 199.2H349C386.9 199.2 417.1 166.5 413 127.8C409.9 98.3001 386.4 74.5001 357 70.9001Z" fill="#F8F8F8"/>
<path d="M176.3 76.3999L121.1 76.6999C119.9 76.6999 118.6 76.9999 117.5 77.4999C96.4 88.3999 82.1 110.6 82.6 136.1C83.3 171.4 113 199.2 148.3 199.2H176.3C180.7 199.2 184.2 195.7 184.2 191.3V84.2999C184.2 79.8999 180.6 76.3999 176.3 76.3999Z" fill="#F8F8F8"/>
</svg>
