<svg width="496" height="357" viewBox="0 0 496 357" fill="none" xmlns="http://www.w3.org/2000/svg">
<path d="M49 286.3C49 290.3 48.4 293.9 47.1 297C45.8 300.1 44 302.7 41.6 304.8C39.2 306.9 36.3 308.5 32.8 309.7C29.3 310.8 25.2 311.4 20.5 311.4H14.5V334.3C14.5 334.7 14.4 335 14.1 335.3C13.9 335.6 13.5 335.8 12.9 336C12.3 336.2 11.6 336.3 10.7 336.4C9.8 336.5 8.6 336.6 7.2 336.6C5.8 336.6 4.6 336.5 3.7 336.4C2.8 336.3 2 336.1 1.5 336C0.9 335.8 0.6 335.6 0.3 335.3C0.1 335 0 334.7 0 334.3V269.8C0 268.1 0.5 266.8 1.4 265.9C2.3 265 3.5 264.6 5 264.6H21.9C23.6 264.6 25.2 264.7 26.7 264.8C28.2 264.9 30.1 265.2 32.2 265.6C34.3 266 36.5 266.8 38.7 268C40.9 269.1 42.8 270.6 44.3 272.4C45.9 274.2 47 276.2 47.8 278.6C48.6 280.7 49 283.4 49 286.3ZM33.8 287.3C33.8 284.8 33.4 282.7 32.5 281.1C31.6 279.5 30.5 278.3 29.2 277.5C27.9 276.7 26.5 276.2 25.1 276C23.7 275.8 22.2 275.7 20.7 275.7H14.5V300H21C23.3 300 25.3 299.7 26.8 299.1C28.4 298.5 29.7 297.6 30.7 296.5C31.7 295.4 32.5 294 33 292.5C33.5 290.9 33.8 289.2 33.8 287.3Z" fill="#F8F8F8"/>
<path d="M107.7 309.1C107.7 313.3 107.1 317.2 106 320.6C104.9 324.1 103.2 327.1 101 329.6C98.7 332.1 95.9 334.1 92.5 335.4C89.1 336.8 85.1 337.5 80.6 337.5C76.2 337.5 72.4 336.9 69.1 335.7C65.8 334.5 63.2 332.7 61 330.4C58.9 328.1 57.3 325.2 56.2 321.8C55.2 318.4 54.6 314.5 54.6 310.2C54.6 306 55.2 302.1 56.3 298.6C57.4 295.1 59.1 292.1 61.4 289.6C63.7 287.1 66.5 285.2 69.9 283.8C73.3 282.4 77.2 281.7 81.8 281.7C86.2 281.7 90.1 282.3 93.3 283.5C96.6 284.7 99.2 286.5 101.4 288.8C103.5 291.1 105.1 294 106.1 297.4C107.1 300.8 107.7 304.7 107.7 309.1ZM93.3 309.7C93.3 307.3 93.1 305 92.7 303C92.3 300.9 91.7 299.2 90.7 297.7C89.8 296.2 88.5 295 87 294.2C85.5 293.3 83.5 292.9 81.2 292.9C79.1 292.9 77.3 293.3 75.8 294C74.2 294.8 73 295.9 72 297.3C71 298.8 70.3 300.5 69.8 302.6C69.3 304.7 69.1 307 69.1 309.6C69.1 312 69.3 314.3 69.7 316.3C70.1 318.4 70.8 320.1 71.7 321.6C72.6 323.1 73.8 324.3 75.4 325.1C77 325.9 78.9 326.3 81.2 326.3C83.3 326.3 85.1 325.9 86.7 325.2C88.3 324.4 89.5 323.3 90.5 321.9C91.5 320.5 92.2 318.7 92.7 316.7C93.1 314.6 93.3 312.3 93.3 309.7Z" fill="#F8F8F8"/>
<path d="M132.7 334.3C132.7 334.7 132.6 335 132.4 335.3C132.2 335.6 131.8 335.8 131.3 336C130.8 336.2 130.1 336.3 129.2 336.4C128.3 336.5 127.2 336.5 125.8 336.5C124.4 336.5 123.3 336.5 122.4 336.4C121.5 336.3 120.8 336.2 120.3 336C119.8 335.8 119.4 335.6 119.2 335.3C119 335 118.9 334.7 118.9 334.3V261.4C118.9 261 119 260.7 119.2 260.4C119.4 260.1 119.8 259.9 120.3 259.7C120.8 259.5 121.5 259.3 122.4 259.2C123.3 259.1 124.4 259 125.8 259C127.2 259 128.3 259.1 129.2 259.2C130.1 259.3 130.8 259.5 131.3 259.7C131.8 259.9 132.2 260.2 132.4 260.4C132.6 260.7 132.7 261 132.7 261.4V334.3Z" fill="#F8F8F8"/>
<path d="M161.6 268.2C161.6 271 161 272.9 159.9 274C158.8 275.1 156.6 275.6 153.5 275.6C150.4 275.6 148.2 275.1 147.2 274C146.1 273 145.6 271.1 145.6 268.4C145.6 265.6 146.2 263.6 147.3 262.6C148.4 261.5 150.6 261 153.7 261C156.8 261 158.9 261.5 160 262.6C161 263.6 161.6 265.5 161.6 268.2ZM160.5 334.3C160.5 334.7 160.4 335 160.2 335.3C160 335.6 159.6 335.8 159.1 336C158.6 336.2 157.9 336.3 157 336.4C156.1 336.5 155 336.5 153.6 336.5C152.2 336.5 151.1 336.5 150.2 336.4C149.3 336.3 148.6 336.2 148.1 336C147.6 335.8 147.2 335.6 147 335.3C146.8 335 146.7 334.7 146.7 334.3V285C146.7 284.6 146.8 284.3 147 284C147.2 283.7 147.6 283.5 148.1 283.3C148.6 283.1 149.3 282.9 150.2 282.8C151.1 282.7 152.2 282.6 153.6 282.6C155 282.6 156.1 282.7 157 282.8C157.9 282.9 158.6 283.1 159.1 283.3C159.6 283.5 160 283.7 160.2 284C160.4 284.3 160.5 284.6 160.5 285V334.3Z" fill="#F8F8F8"/>
<path d="M211.9 326.5C211.9 327.5 211.9 328.3 211.8 328.9C211.7 329.5 211.7 330.1 211.6 330.5C211.5 330.9 211.4 331.3 211.3 331.6C211.2 331.9 210.9 332.2 210.4 332.7C210 333.1 209.2 333.6 208.1 334.3C207 334.9 205.8 335.5 204.4 335.9C203 336.4 201.5 336.8 199.9 337.1C198.3 337.4 196.6 337.5 194.9 337.5C191.1 337.5 187.7 336.9 184.8 335.7C181.9 334.5 179.4 332.8 177.4 330.5C175.4 328.2 173.9 325.4 172.9 322C171.9 318.7 171.4 314.9 171.4 310.6C171.4 305.6 172 301.4 173.3 297.8C174.5 294.2 176.3 291.2 178.5 288.8C180.7 286.4 183.3 284.7 186.4 283.5C189.4 282.4 192.8 281.8 196.4 281.8C197.9 281.8 199.3 281.9 200.7 282.2C202.1 282.5 203.5 282.8 204.7 283.3C205.9 283.7 207 284.2 208 284.8C209 285.4 209.7 285.8 210.1 286.2C210.5 286.6 210.8 287 211 287.2C211.2 287.5 211.3 287.8 211.4 288.3C211.5 288.7 211.6 289.3 211.6 289.9C211.7 290.5 211.7 291.3 211.7 292.3C211.7 294.4 211.5 295.9 211.1 296.8C210.7 297.7 210.2 298.1 209.7 298.1C209.1 298.1 208.4 297.8 207.7 297.3C207 296.8 206.2 296.2 205.2 295.6C204.2 295 203.1 294.4 201.8 293.9C200.5 293.4 198.9 293.1 197 293.1C193.4 293.1 190.6 294.5 188.7 297.3C186.8 300.1 185.8 304.2 185.8 309.6C185.8 312.3 186 314.6 186.5 316.6C187 318.6 187.7 320.3 188.6 321.7C189.5 323.1 190.7 324.1 192.1 324.8C193.5 325.5 195.2 325.8 197.1 325.8C199 325.8 200.7 325.5 202.1 324.9C203.5 324.3 204.7 323.7 205.7 323C206.7 322.3 207.6 321.7 208.3 321.1C209 320.5 209.6 320.2 210.1 320.2C210.4 320.2 210.7 320.3 210.9 320.5C211.1 320.7 211.3 321 211.4 321.5C211.5 322 211.6 322.6 211.7 323.4C211.8 324.2 211.9 325.2 211.9 326.5Z" fill="#F8F8F8"/>
<path d="M250.6 336.2L244.6 353.7C244.3 354.6 243.4 355.3 241.9 355.7C240.4 356.1 238.3 356.3 235.4 356.3C233.9 356.3 232.7 356.2 231.9 356.1C231 356 230.3 355.8 229.9 355.5C229.5 355.2 229.2 354.8 229.2 354.4C229.2 354 229.3 353.4 229.5 352.8L236.1 336.2C235.6 336 235.2 335.6 234.8 335.2C234.4 334.7 234.1 334.2 233.9 333.7L216.9 288.2C216.4 286.9 216.2 285.9 216.2 285.2C216.2 284.5 216.4 284 216.9 283.6C217.3 283.2 218.1 282.9 219.1 282.8C220.2 282.7 221.5 282.6 223.3 282.6C224.9 282.6 226.1 282.6 227.1 282.7C228 282.8 228.7 282.9 229.3 283.1C229.8 283.3 230.2 283.7 230.5 284.1C230.8 284.6 231 285.2 231.3 286.1L242.9 319.2H243.1L253.7 285.4C253.9 284.4 254.2 283.8 254.6 283.5C255 283.2 255.5 283 256.3 282.8C257.1 282.7 258.5 282.6 260.6 282.6C262.2 282.6 263.5 282.7 264.6 282.8C265.7 282.9 266.4 283.2 266.9 283.6C267.4 284 267.6 284.6 267.6 285.2C267.6 285.9 267.5 286.7 267.2 287.6L250.6 336.2Z" fill="#F8F8F8"/>
<path d="M333.4 299.3C333.4 305.5 332.6 310.9 331 315.6C329.4 320.2 327.1 324.1 324 327.1C320.9 330.1 317.2 332.4 312.8 333.9C308.4 335.4 303.1 336.2 296.9 336.2H281.7C280.8 336.2 280 335.9 279.3 335.3C278.5 334.7 278.2 333.7 278.2 332.3V268.3C278.2 266.9 278.6 265.9 279.3 265.3C280.1 264.7 280.9 264.4 281.7 264.4H297.9C304.1 264.4 309.4 265.2 313.6 266.8C317.9 268.4 321.5 270.7 324.4 273.7C327.3 276.7 329.5 280.4 331 284.6C332.7 289.1 333.4 293.9 333.4 299.3ZM323.4 299.7C323.4 295.8 322.9 292.2 322 288.9C321 285.6 319.5 282.7 317.5 280.2C315.5 277.8 312.9 275.9 309.7 274.5C306.6 273.1 302.5 272.5 297.6 272.5H287.9V328.3H297.7C302.3 328.3 306.1 327.7 309.3 326.6C312.4 325.5 315.1 323.7 317.2 321.3C319.3 318.9 320.9 316 321.9 312.4C322.9 308.8 323.4 304.6 323.4 299.7Z" fill="#F8F8F8"/>
<path d="M393.5 309.3C393.5 313.4 393 317.1 391.9 320.5C390.8 323.9 389.2 326.9 387.1 329.3C385 331.8 382.3 333.7 379.1 335.1C375.9 336.5 372.2 337.2 368 337.2C363.9 337.2 360.3 336.6 357.3 335.4C354.3 334.2 351.7 332.4 349.7 330.1C347.7 327.8 346.2 324.9 345.2 321.6C344.2 318.3 343.7 314.5 343.7 310.3C343.7 306.2 344.2 302.5 345.3 299.1C346.4 295.7 347.9 292.7 350.1 290.3C352.2 287.8 354.9 285.9 358.1 284.5C361.3 283.1 365 282.4 369.2 282.4C373.3 282.4 376.9 283 379.9 284.2C382.9 285.4 385.5 287.2 387.5 289.5C389.5 291.8 391.1 294.7 392.1 298C393 301.4 393.5 305.2 393.5 309.3ZM384 309.9C384 307.2 383.7 304.7 383.2 302.2C382.7 299.8 381.9 297.7 380.7 295.9C379.5 294.1 378 292.7 376 291.6C374 290.5 371.6 290 368.6 290C365.9 290 363.5 290.5 361.6 291.4C359.6 292.4 358 293.7 356.8 295.5C355.5 297.3 354.6 299.3 354 301.7C353.4 304.1 353.1 306.7 353.1 309.6C353.1 312.3 353.3 314.9 353.8 317.3C354.3 319.7 355.1 321.8 356.3 323.6C357.5 325.4 359.1 326.8 361 327.9C363 329 365.4 329.5 368.4 329.5C371.1 329.5 373.4 329 375.4 328.1C377.4 327.1 379 325.8 380.3 324.1C381.6 322.4 382.5 320.3 383.1 317.9C383.7 315.5 384 312.8 384 309.9Z" fill="#F8F8F8"/>
<path d="M442.8 327.2C442.8 327.8 442.8 328.4 442.7 328.8C442.7 329.3 442.6 329.6 442.5 330C442.4 330.3 442.3 330.6 442.2 330.8C442.1 331 441.8 331.4 441.3 331.9C440.8 332.4 440.1 332.9 438.9 333.6C437.8 334.3 436.5 334.9 435.2 335.4C433.8 335.9 432.3 336.4 430.7 336.7C429.1 337 427.4 337.2 425.7 337.2C422.1 337.2 418.9 336.6 416.2 335.4C413.4 334.2 411.1 332.5 409.2 330.2C407.3 327.9 405.9 325.1 404.9 321.8C403.9 318.5 403.4 314.7 403.4 310.4C403.4 305.5 404 301.3 405.2 297.7C406.4 294.2 408 291.3 410.1 289C412.2 286.7 414.6 285.1 417.5 284C420.3 282.9 423.4 282.4 426.7 282.4C428.3 282.4 429.8 282.5 431.3 282.8C432.8 283.1 434.2 283.5 435.4 284C436.7 284.5 437.8 285 438.8 285.7C439.8 286.3 440.5 286.9 440.9 287.3C441.3 287.7 441.6 288.1 441.8 288.4C442 288.7 442.1 289 442.2 289.3C442.3 289.7 442.4 290 442.4 290.5C442.4 290.9 442.5 291.5 442.5 292.2C442.5 293.6 442.3 294.7 442 295.2C441.7 295.8 441.3 296.1 440.8 296.1C440.2 296.1 439.6 295.8 438.9 295.2C438.2 294.6 437.3 293.9 436.2 293.2C435.1 292.5 433.7 291.8 432.2 291.2C430.6 290.6 428.8 290.3 426.6 290.3C422.2 290.3 418.8 292 416.5 295.4C414.2 298.8 413 303.7 413 310.1C413 313.3 413.3 316.1 413.9 318.6C414.5 321 415.4 323 416.6 324.7C417.8 326.3 419.2 327.5 420.9 328.3C422.6 329.1 424.6 329.5 426.8 329.5C428.9 329.5 430.8 329.2 432.3 328.5C433.9 327.8 435.3 327.1 436.4 326.3C437.6 325.5 438.5 324.8 439.3 324.1C440.1 323.5 440.7 323.1 441.2 323.1C441.5 323.1 441.7 323.2 441.9 323.3C442.1 323.5 442.2 323.7 442.4 324C442.5 324.4 442.6 324.8 442.7 325.3C442.8 325.9 442.8 326.5 442.8 327.2Z" fill="#F8F8F8"/>
<path d="M495.9 334.8C495.9 335.1 495.8 335.4 495.7 335.6C495.6 335.8 495.3 336 495 336.2C494.6 336.3 494.2 336.5 493.5 336.5C492.9 336.6 492.1 336.6 491.1 336.6C490.1 336.6 489.3 336.6 488.6 336.5C488 336.4 487.4 336.4 487 336.2C486.6 336.1 486.2 335.9 485.9 335.6C485.6 335.4 485.4 335.1 485.2 334.7L464.1 307.1V334.8C464.1 335.1 464 335.3 463.9 335.6C463.8 335.8 463.5 336 463.2 336.1C462.9 336.2 462.4 336.4 461.8 336.4C461.2 336.5 460.4 336.5 459.5 336.5C458.6 336.5 457.9 336.5 457.3 336.4C456.7 336.3 456.2 336.2 455.9 336.1C455.6 336 455.3 335.8 455.2 335.6C455.1 335.4 455 335.1 455 334.8V260.7C455 260.4 455.1 260.1 455.2 259.9C455.3 259.7 455.6 259.5 455.9 259.3C456.3 259.2 456.7 259 457.3 259C457.9 258.9 458.6 258.9 459.5 258.9C460.4 258.9 461.2 258.9 461.8 259C462.4 259.1 462.9 259.2 463.2 259.3C463.5 259.4 463.8 259.6 463.9 259.9C464 260.1 464.1 260.4 464.1 260.7V305.8L482.9 285.1C483.2 284.7 483.5 284.4 483.8 284.2C484.1 284 484.5 283.8 485 283.6C485.5 283.4 486 283.3 486.6 283.3C487.2 283.2 488 283.2 488.9 283.2C489.8 283.2 490.6 283.2 491.2 283.3C491.8 283.4 492.3 283.4 492.7 283.6C493.1 283.7 493.4 283.9 493.5 284.1C493.7 284.3 493.8 284.6 493.8 284.9C493.8 285.3 493.7 285.8 493.4 286.2C493.2 286.6 492.8 287.2 492.2 287.8L474.1 305.9L494.4 332.2C494.9 332.8 495.2 333.3 495.4 333.7C495.8 334.1 495.9 334.4 495.9 334.8Z" fill="#F8F8F8"/>
<path d="M184.1 63.5999V36.8999C184.1 31.9999 179.7 28.1999 174.9 29.0999C156.3 32.4999 140.5 43.8999 131.2 59.5999C128 64.8999 131.8 71.6999 138 71.5999L176.3 71.3999C180.6 71.4999 184.1 67.8999 184.1 63.5999Z" fill="#1B75BC"/>
<path d="M197 71.4001L320.2 70.8001C325.3 70.8001 329.1 66.0001 327.8 61.1001C319.1 26.1001 287.4 0.100098 249.7 0.100098C226.6 0.100098 205.8 9.8001 191.1 25.4001C189.8 26.8001 189 28.8001 189 30.7001V63.6001C189 67.9001 192.6 71.4001 197 71.4001Z" fill="#273C91"/>
<path d="M196.9 199.2H319.4C323.8 199.2 327.3 195.7 327.3 191.3V83.6002C327.3 79.2002 323.7 75.7002 319.4 75.7002L196.9 76.3002C192.6 76.3002 189 79.8002 189 84.2002V191.3C189 195.7 192.6 199.2 196.9 199.2Z" fill="#00AEEF"/>
<path d="M356.9 70.9001C350.7 70.1001 344.6 70.3001 338.7 71.2001C335 71.8001 332.3 74.9001 332.3 78.6001V191.3C332.3 195.7 335.8 199.2 340.2 199.2H348.9C386.8 199.2 417 166.5 412.9 127.8C409.8 98.3001 386.3 74.5001 356.9 70.9001Z" fill="#006BB6"/>
<path d="M176.2 76.3999L121 76.6999C119.8 76.6999 118.5 76.9999 117.4 77.4999C96.3 88.3999 82 110.6 82.5 136.1C83.2 171.4 112.9 199.2 148.2 199.2H176.2C180.6 199.2 184.1 195.7 184.1 191.3V84.2999C184.1 79.8999 180.5 76.3999 176.2 76.3999Z" fill="#0084CB"/>
</svg>
