<svg width="45" height="48" viewBox="0 0 45 48" fill="none" xmlns="http://www.w3.org/2000/svg">
<path d="M3.42857 0.857143V7.55143L0.0600027 15.9686C0.0200995 16.0695 -0.000261589 16.1772 2.53709e-06 16.2857V18C0.00121657 19.0625 0.331492 20.0986 0.945429 20.9658C1.55937 21.8329 2.42683 22.4887 3.42857 22.8429V47.1429C3.42857 47.3702 3.51888 47.5882 3.67963 47.749C3.84037 47.9097 4.05839 48 4.28572 48H40.2857C40.5131 48 40.7311 47.9097 40.8918 47.749C41.0526 47.5882 41.1429 47.3702 41.1429 47.1429V22.8429C42.1446 22.4887 43.0121 21.8329 43.626 20.9658C44.2399 20.0986 44.5702 19.0625 44.5714 18V16.2857C44.5703 16.1892 44.553 16.0936 44.52 16.0029L41.1429 7.55143V0.857143C41.1429 0.629814 41.0526 0.411797 40.8918 0.251051C40.7311 0.090306 40.5131 0 40.2857 0H4.28572C4.05839 0 3.84037 0.090306 3.67963 0.251051C3.51888 0.411797 3.42857 0.629814 3.42857 0.857143ZM4.86857 8.57143H10.8686L8.81143 15.4286H2.12572L4.86857 8.57143ZM31.9371 8.57143L33.9943 15.4286H27.3514L26.6657 8.57143H31.9371ZM34.2857 18C34.2857 18.9093 33.9245 19.7814 33.2815 20.4244C32.6385 21.0673 31.7665 21.4286 30.8571 21.4286C29.9478 21.4286 29.0758 21.0673 28.4328 20.4244C27.7898 19.7814 27.4286 18.9093 27.4286 18V17.1429H34.2857V18ZM17.1429 18C17.1429 18.9093 16.7816 19.7814 16.1387 20.4244C15.4957 21.0673 14.6236 21.4286 13.7143 21.4286C12.805 21.4286 11.9329 21.0673 11.2899 20.4244C10.6469 19.7814 10.2857 18.9093 10.2857 18V17.1429H17.1429V18ZM18.8571 17.1429H25.7143V18C25.7143 18.9093 25.3531 19.7814 24.7101 20.4244C24.0671 21.0673 23.195 21.4286 22.2857 21.4286C21.3764 21.4286 20.5043 21.0673 19.8614 20.4244C19.2184 19.7814 18.8571 18.9093 18.8571 18V17.1429ZM24.9343 8.57143L25.62 15.4286H18.9514L19.6371 8.57143H24.9343ZM17.22 15.4286H10.5771L12.6343 8.57143H17.9057L17.22 15.4286ZM1.71429 18V17.1429H8.57143V18C8.57143 18.9093 8.21021 19.7814 7.56723 20.4244C6.92424 21.0673 6.05217 21.4286 5.14286 21.4286C4.23355 21.4286 3.36148 21.0673 2.71849 20.4244C2.07551 19.7814 1.71429 18.9093 1.71429 18ZM39.4286 46.2857H5.14286V44.5714H39.4286V46.2857ZM39.4286 42.8571H5.14286V23.1429C5.99205 23.1422 6.82787 22.9313 7.57571 22.529C8.32354 22.1267 8.9601 21.5454 9.42857 20.8371C9.8977 21.5444 10.5345 22.1245 11.2823 22.5258C12.0301 22.9272 12.8656 23.1372 13.7143 23.1372C14.563 23.1372 15.3984 22.9272 16.1462 22.5258C16.894 22.1245 17.5309 21.5444 18 20.8371C18.4691 21.5444 19.106 22.1245 19.8538 22.5258C20.6016 22.9272 21.437 23.1372 22.2857 23.1372C23.1344 23.1372 23.9699 22.9272 24.7177 22.5258C25.4655 22.1245 26.1023 21.5444 26.5714 20.8371C27.0406 21.5444 27.6774 22.1245 28.4252 22.5258C29.173 22.9272 30.0085 23.1372 30.8571 23.1372C31.7058 23.1372 32.5413 22.9272 33.2891 22.5258C34.0369 22.1245 34.6737 21.5444 35.1429 20.8371C35.6113 21.5454 36.2479 22.1267 36.9957 22.529C37.7436 22.9313 38.5794 23.1422 39.4286 23.1429V42.8571ZM42.8572 18C42.8572 18.9093 42.4959 19.7814 41.8529 20.4244C41.21 21.0673 40.3379 21.4286 39.4286 21.4286C38.5193 21.4286 37.6472 21.0673 37.0042 20.4244C36.3612 19.7814 36 18.9093 36 18V17.1429H42.8572V18ZM40.2857 15.4286H35.7771L33.72 8.57143H39.72L42.4629 15.4286H40.2857ZM5.14286 1.71429H39.4286V6.85714H5.14286V1.71429Z" fill="#4080FE"/>
<path d="M28.2855 3.4287H7.71408C7.48675 3.4287 7.26873 3.519 7.10799 3.67975C6.94724 3.84049 6.85693 4.05851 6.85693 4.28584C6.85693 4.51317 6.94724 4.73118 7.10799 4.89193C7.26873 5.05268 7.48675 5.14298 7.71408 5.14298H28.2855C28.5128 5.14298 28.7309 5.05268 28.8916 4.89193C29.0523 4.73118 29.1426 4.51317 29.1426 4.28584C29.1426 4.05851 29.0523 3.84049 28.8916 3.67975C28.7309 3.519 28.5128 3.4287 28.2855 3.4287Z" fill="#4080FE"/>
<path d="M32.5712 3.4287H31.7141C31.4867 3.4287 31.2687 3.519 31.108 3.67975C30.9472 3.84049 30.8569 4.05851 30.8569 4.28584C30.8569 4.51317 30.9472 4.73118 31.108 4.89193C31.2687 5.05268 31.4867 5.14298 31.7141 5.14298H32.5712C32.7985 5.14298 33.0166 5.05268 33.1773 4.89193C33.3381 4.73118 33.4284 4.51317 33.4284 4.28584C33.4284 4.05851 33.3381 3.84049 33.1773 3.67975C33.0166 3.519 32.7985 3.4287 32.5712 3.4287Z" fill="#4080FE"/>
<path d="M35.9999 3.4287H35.1428C34.9155 3.4287 34.6974 3.519 34.5367 3.67975C34.3759 3.84049 34.2856 4.05851 34.2856 4.28584C34.2856 4.51317 34.3759 4.73118 34.5367 4.89193C34.6974 5.05268 34.9155 5.14298 35.1428 5.14298H35.9999C36.2273 5.14298 36.4453 5.05268 36.606 4.89193C36.7668 4.73118 36.8571 4.51317 36.8571 4.28584C36.8571 4.05851 36.7668 3.84049 36.606 3.67975C36.4453 3.519 36.2273 3.4287 35.9999 3.4287Z" fill="#4080FE"/>
<path d="M29.1427 29.1425H26.9227L24.5999 26.8196C24.4359 26.6792 24.225 26.6058 24.0092 26.6141C23.7935 26.6225 23.5889 26.7119 23.4362 26.8645C23.2836 27.0172 23.1942 27.2218 23.1858 27.4376C23.1775 27.6533 23.2509 27.8642 23.3913 28.0282L24.5056 29.1425H20.0656L21.1713 28.0367C21.3117 27.8728 21.3851 27.6618 21.3768 27.4461C21.3684 27.2304 21.279 27.0258 21.1263 26.8731C20.9737 26.7205 20.7691 26.631 20.5533 26.6227C20.3376 26.6144 20.1267 26.6877 19.9627 26.8282L17.6484 29.1425H15.4284C15.2011 29.1425 14.9831 29.2328 14.8223 29.3935C14.6616 29.5543 14.5713 29.7723 14.5713 29.9996V32.571C14.5713 32.7984 14.6616 33.0164 14.8223 33.1771C14.9831 33.3379 15.2011 33.4282 15.4284 33.4282H16.1827L17.2456 38.7425C17.2856 38.939 17.3934 39.1152 17.55 39.2405C17.7066 39.3658 17.9022 39.4322 18.1027 39.4282H26.5027C26.7032 39.4322 26.8988 39.3658 27.0555 39.2405C27.2121 39.1152 27.3198 38.939 27.3599 38.7425L28.3884 33.4282H29.1427C29.37 33.4282 29.5881 33.3379 29.7488 33.1771C29.9096 33.0164 29.9999 32.7984 29.9999 32.571V29.9996C29.9999 29.7723 29.9096 29.5543 29.7488 29.3935C29.5881 29.2328 29.37 29.1425 29.1427 29.1425ZM16.2856 30.8567H28.2856V31.7139H16.2856V30.8567ZM25.7827 37.7139H18.7884L17.9313 33.4282H26.6399L25.7827 37.7139Z" fill="#4080FE"/>
</svg>
