<svg width="48" height="48" viewBox="0 0 48 48" fill="none" xmlns="http://www.w3.org/2000/svg">
<path d="M40.258 14.8521V13.1613H38.7096V14.7097H37.1613V17.0323C37.1613 18.3128 38.2033 19.3548 39.4838 19.3548C39.9112 19.3548 40.258 19.7025 40.258 20.129V20.9032H39.4838C39.0565 20.9032 38.7096 20.5556 38.7096 20.129V19.3548H37.1613V20.129C37.1613 21.137 37.8108 21.9886 38.7096 22.3092V24H40.258V22.4516H41.8064V20.129C41.8064 18.8485 40.7644 17.8065 39.4838 17.8065C39.0565 17.8065 38.7096 17.4588 38.7096 17.0323V16.2581H39.4838C39.9112 16.2581 40.258 16.6057 40.258 17.0323V17.8065H41.8064V17.0323C41.8064 16.0243 41.1569 15.1726 40.258 14.8521Z" fill="#4080FE"/>
<path d="M48 18.5806C48 13.8852 44.1794 10.0645 39.4839 10.0645C34.7884 10.0645 30.9677 13.8852 30.9677 18.5806C30.9677 20.2614 31.4547 21.8625 32.3543 23.2343C30.3414 23.2606 28.4439 23.7685 26.7701 24.6495C26.1492 23.575 25.303 22.6483 24.264 21.9561C23.2645 21.2895 22.1071 20.8475 20.9164 20.6772L17.6578 20.2111L17.2072 18.4111C18.535 17.5804 19.5228 16.2643 19.9254 14.7105H20.129C21.8369 14.7105 23.2258 13.3215 23.2258 11.6137C23.2258 10.8813 22.9595 10.2155 22.5321 9.68516L23.0895 7.60645C23.1801 7.24568 23.2258 6.87561 23.2258 6.50477C23.2258 4.6049 22.0258 2.89239 20.2413 2.24361L15.1486 0.391742C14.4333 0.131613 13.6862 0 12.9267 0C10.8914 0 8.94735 0.971613 7.72723 2.59974L7.33393 3.1231C5.81961 3.32284 4.64516 4.62426 4.64516 6.19355C4.64516 7.43923 5.08258 8.97058 5.31948 9.70684C4.90374 10.2341 4.64516 10.8906 4.64516 11.6129C4.64516 13.3208 6.03406 14.7097 7.74194 14.7097H7.94555C8.34735 16.2635 9.336 17.5796 10.6637 18.4103L10.2132 20.2103L6.95458 20.6764C5.76387 20.8467 4.60645 21.2895 3.60697 21.9554C1.34864 23.4604 0 25.9804 0 28.6947V42.5806H22.2828C24.5156 45.8493 28.2689 48 32.5161 48C39.3461 48 44.9032 42.4428 44.9032 35.6129C44.9032 32.2157 43.5275 29.136 41.3055 26.8955C45.1277 26.0586 48 22.6506 48 18.5806ZM29.5293 41.0323C29.0779 39.7154 28.7505 38.167 28.6738 36.3871H36.3592C36.2818 38.1639 35.952 39.7138 35.4983 41.0323H29.5293ZM34.872 42.5806C34.0452 44.3388 33.0844 45.5295 32.5146 46.1404C31.9425 45.5303 30.9794 44.3427 30.1525 42.5806H34.872ZM30.1603 28.6452C30.9871 26.8877 31.9479 25.697 32.5177 25.0854C33.0898 25.6947 34.0529 26.8831 34.8797 28.6452H30.1603ZM35.503 30.1935C35.9543 31.5105 36.2818 33.0588 36.3585 34.8387H28.673C28.7505 33.0619 29.0803 31.512 29.5347 30.1935H35.503ZM28.4508 28.6452H24.2261C25.8209 26.7499 28.0521 25.4145 30.5876 24.9561C29.911 25.8209 29.1159 27.0488 28.4508 28.6452ZM23.1437 30.1935H27.8895C27.4777 31.5383 27.1935 33.0898 27.1254 34.8387H21.7169C21.8361 33.1548 22.3394 31.5786 23.1437 30.1935ZM27.1246 36.3871C27.1935 38.136 27.4769 39.6875 27.8888 41.0323H23.143C22.3386 39.6472 21.8354 38.071 21.7154 36.3871H27.1246ZM37.9076 36.3871H43.3161C43.1961 38.071 42.6929 39.6472 41.8885 41.0323H37.1427C37.5546 39.6875 37.8387 38.136 37.9076 36.3871ZM37.9076 34.8387C37.8387 33.0898 37.5554 31.5383 37.1435 30.1935H41.8893C42.6937 31.5786 43.1969 33.1548 43.3169 34.8387H37.9076ZM36.5814 28.6452C35.9164 27.0488 35.1213 25.8209 34.4446 24.9561C36.9801 25.4145 39.2106 26.7499 40.8062 28.6452H36.5814ZM13.9355 24.8655L14.9334 25.3649L14.2955 26.3226H13.5763L12.9375 25.3649L13.9355 24.8655ZM11.5417 26.0625L12.3074 27.2114L11.5223 29.5672C11.0145 28.6521 10.5902 27.6968 10.2534 26.7074L11.5417 26.0625ZM13.7195 27.871H14.1523L15.2818 31.2588C14.8653 31.8418 14.4255 32.4101 13.9355 32.945C13.4454 32.4101 13.0057 31.8418 12.5892 31.2588L13.7195 27.871ZM16.3494 29.5672L15.5644 27.2114L16.3301 26.0625L17.6191 26.7066C17.2815 27.6968 16.8573 28.6521 16.3494 29.5672ZM18.5388 21.9004C18.4808 23.0222 18.3197 24.1231 18.0581 25.1961L15.2415 23.7879L17.3048 21.7246L18.5388 21.9004ZM20.129 13.1613V10.0645C20.983 10.0645 21.6774 10.759 21.6774 11.6129C21.6774 12.4668 20.983 13.1613 20.129 13.1613ZM6.19355 11.6129C6.19355 10.759 6.888 10.0645 7.74194 10.0645H7.77058C7.75897 10.2201 7.74194 10.375 7.74194 10.5329V13.1613C6.888 13.1613 6.19355 12.4668 6.19355 11.6129ZM8.09806 8.51613H7.74194C7.35252 8.51613 6.984 8.59665 6.64026 8.72826C6.43587 8.016 6.19355 7.00568 6.19355 6.19355C6.19355 5.33961 6.888 4.64516 7.74194 4.64516H8.12903L8.96594 3.52877C9.89574 2.28852 11.3768 1.54839 12.9267 1.54839C13.505 1.54839 14.0741 1.64826 14.6191 1.84645L19.7117 3.69832C20.887 4.12568 21.6774 5.25368 21.6774 6.50477C21.6774 6.74865 21.6472 6.99174 21.5915 7.21626L21.1897 8.7151C20.8575 8.59277 20.503 8.51613 20.129 8.51613H19.3548C15.768 8.51613 11.3125 5.57884 11.2684 5.54865L10.8379 5.26297L10.409 5.54942C9.32129 6.27484 8.52542 7.32155 8.09806 8.51613ZM9.29032 13.1613V10.5329C9.29032 9.20981 9.87484 7.9711 10.8751 7.13187C12.0852 7.87123 15.4227 9.7471 18.5806 10.0281V13.1613C18.5806 15.7231 16.4973 17.8065 13.9355 17.8065C11.3737 17.8065 9.29032 15.7231 9.29032 13.1613ZM13.9355 19.3548C14.5765 19.3548 15.1959 19.2565 15.7773 19.0754L16.1745 20.6663L13.9355 22.9053L11.6965 20.6663L12.0937 19.0754C12.6751 19.2565 13.2945 19.3548 13.9355 19.3548ZM10.5654 21.7246L12.6286 23.7879L9.81213 25.1961C9.55123 24.1231 9.38942 23.0222 9.33136 21.9004L10.5654 21.7246ZM6.19355 41.0323V29.4194H4.64516V41.0323H1.54839V28.6947C1.54839 26.4991 2.63923 24.4606 4.46632 23.2428C5.27458 22.704 6.21135 22.3455 7.17445 22.2077L7.77677 22.1218C8.05316 26.8413 10.0258 31.248 13.3881 34.6111L13.9355 35.1592L14.4828 34.6119C17.8452 31.2488 19.8178 26.8421 20.0942 22.1226L20.6965 22.2085C21.6596 22.3463 22.5964 22.7048 23.4046 23.2436C24.2547 23.8103 24.9445 24.5714 25.4485 25.4539C22.2379 27.6945 20.129 31.4098 20.129 35.6129C20.129 37.5577 20.592 39.3925 21.3948 41.0323H6.19355ZM24.2261 42.5806H28.4508C29.1159 44.177 29.911 45.4049 30.5876 46.2697C28.0521 45.8114 25.8209 44.4759 24.2261 42.5806ZM34.4446 46.2697C35.1213 45.4049 35.9164 44.177 36.5814 42.5806H40.8062C39.2114 44.4759 36.9801 45.8114 34.4446 46.2697ZM39.6952 25.5375C38.1685 24.4459 36.3863 23.6988 34.4547 23.393C33.2067 22.0901 32.5161 20.3923 32.5161 18.5806C32.5161 14.7391 35.6415 11.6129 39.4839 11.6129C43.3262 11.6129 46.4516 14.7391 46.4516 18.5806C46.4516 22.351 43.4392 25.4245 39.6952 25.5375Z" fill="#4080FE"/>
</svg>
