<svg width="48" height="48" viewBox="0 0 48 48" fill="none" xmlns="http://www.w3.org/2000/svg">
<path d="M36.8864 37.7862H11.1213C10.6243 37.7862 10.2214 37.3834 10.2214 36.8864V11.1213C10.2214 10.6243 10.6243 10.2214 11.1213 10.2214H36.8864C37.3834 10.2214 37.7862 10.6243 37.7862 11.1213V36.8864C37.7862 37.3834 37.3834 37.7862 36.8864 37.7862ZM12.0115 35.9865H35.9865V12.0115H12.0115V35.9865Z" fill="#4080FE"/>
<path d="M16.8625 11.6231C16.3656 11.6231 15.9627 11.2203 15.9627 10.7233V2.36308C15.9627 2.09774 15.5551 1.79971 15.0013 1.79971C14.5043 1.79971 14.1014 1.39683 14.1014 0.899856C14.1014 0.402879 14.5043 0 15.0013 0C16.5184 0 17.7528 1.05945 17.7528 2.36308V10.7233C17.7528 11.2165 17.3558 11.6179 16.8625 11.6231Z" fill="#4080FE"/>
<path d="M26.8419 11.6231C26.3449 11.6231 25.942 11.2203 25.942 10.7233V2.36308C25.942 1.05945 27.1764 0 28.6954 0C29.1924 4.19164e-08 29.5953 0.402879 29.5953 0.899856C29.5953 1.39683 29.1924 1.79971 28.6954 1.79971C28.1494 1.79971 27.734 2.09582 27.734 2.36308V10.7233C27.7341 11.2173 27.3358 11.6189 26.8419 11.6231Z" fill="#4080FE"/>
<path d="M21.8524 12.0116C21.3554 12.0116 20.9525 11.6087 20.9525 11.1118V4.72432C20.9525 4.22734 21.3554 3.82446 21.8524 3.82446C22.3493 3.82446 22.7522 4.22734 22.7522 4.72432V11.1118C22.7522 11.3504 22.6574 11.5793 22.4887 11.7481C22.3199 11.9168 22.091 12.0116 21.8524 12.0116Z" fill="#4080FE"/>
<path d="M31.8316 12.0116C31.3346 12.0116 30.9318 11.6087 30.9318 11.1118V4.72432C30.9318 4.22734 31.3346 3.82446 31.8316 3.82446C32.3286 3.82446 32.7315 4.22734 32.7315 4.72432V11.1118C32.7315 11.6087 32.3286 12.0116 31.8316 12.0116Z" fill="#4080FE"/>
<path d="M45.6369 17.7567H37.2747C36.7778 17.7567 36.3749 17.3538 36.3749 16.8568C36.3749 16.3599 36.7778 15.957 37.2747 15.957H45.6369C45.9022 15.957 46.2002 15.5493 46.2002 14.9956C46.2002 14.4986 46.6031 14.0957 47.1001 14.0957C47.5971 14.0957 47.9999 14.4986 47.9999 14.9956C47.9961 16.5261 46.9366 17.7567 45.6369 17.7567Z" fill="#4080FE"/>
<path d="M47.0962 29.5933C46.5993 29.5933 46.1964 29.1904 46.1964 28.6935C46.1964 28.1474 45.8984 27.7321 45.633 27.7321H37.2747C36.9532 27.7321 36.6562 27.5606 36.4954 27.2822C36.3347 27.0037 36.3347 26.6607 36.4954 26.3823C36.6562 26.1039 36.9532 25.9324 37.2747 25.9324H45.6369C46.9405 25.9324 47.9999 27.1668 47.9999 28.6839C48.0025 28.9248 47.9083 29.1568 47.7384 29.3277C47.5686 29.4987 47.3372 29.5944 47.0962 29.5933Z" fill="#4080FE"/>
<path d="M43.274 22.7561H36.8866C36.3896 22.7561 35.9867 22.3532 35.9867 21.8562C35.9867 21.3592 36.3896 20.9564 36.8866 20.9564H43.274C43.771 20.9564 44.1738 21.3592 44.1738 21.8562C44.1738 22.3532 43.771 22.7561 43.274 22.7561Z" fill="#4080FE"/>
<path d="M43.274 32.7314H36.8866C36.3896 32.7314 35.9867 32.3286 35.9867 31.8316C35.9867 31.3346 36.3896 30.9317 36.8866 30.9317H43.274C43.771 30.9317 44.1738 31.3346 44.1738 31.8316C44.1738 32.3286 43.771 32.7314 43.274 32.7314Z" fill="#4080FE"/>
<path d="M32.9889 47.9962C31.4718 47.9962 30.2374 46.9367 30.2374 45.6331V37.2748C30.2374 36.7778 30.6403 36.3749 31.1373 36.3749C31.6343 36.3749 32.0371 36.7778 32.0371 37.2748V45.6369C32.0371 45.8984 32.4544 46.2003 32.9985 46.2003C33.4955 46.2003 33.8984 46.6032 33.8984 47.1001C33.8984 47.5971 33.4955 48 32.9985 48L32.9889 47.9962Z" fill="#4080FE"/>
<path d="M19.2949 47.9962C18.7979 47.9962 18.395 47.5933 18.395 47.0963C18.395 46.5993 18.7979 46.1964 19.2949 46.1964C19.8409 46.1964 20.2563 45.8984 20.2563 45.6331V37.2748C20.2563 36.7778 20.6591 36.3749 21.1561 36.3749C21.6531 36.3749 22.056 36.7778 22.056 37.2748V45.6369C22.056 46.9367 20.8216 47.9962 19.2949 47.9962Z" fill="#4080FE"/>
<path d="M26.1458 44.1719C25.9072 44.1719 25.6783 44.0771 25.5095 43.9084C25.3408 43.7396 25.246 43.5107 25.246 43.2721V36.8866C25.246 36.3896 25.6489 35.9867 26.1458 35.9867C26.6428 35.9867 27.0457 36.3896 27.0457 36.8866V43.274C27.0446 43.7702 26.6421 44.1719 26.1458 44.1719Z" fill="#4080FE"/>
<path d="M16.1667 44.1719C15.928 44.1719 15.6992 44.0771 15.5304 43.9084C15.3617 43.7396 15.2668 43.5107 15.2668 43.2721V36.8866C15.2668 36.3896 15.6697 35.9867 16.1667 35.9867C16.6637 35.9867 17.0666 36.3896 17.0666 36.8866V43.274C17.0655 43.7702 16.6629 44.1719 16.1667 44.1719Z" fill="#4080FE"/>
<path d="M0.901809 33.8868C0.404832 33.8868 0.00195312 33.4839 0.00195312 32.987C0.00195312 31.4699 1.0614 30.2355 2.36504 30.2355H10.7252C11.2222 30.2355 11.6251 30.6384 11.6251 31.1353C11.6251 31.6323 11.2222 32.0352 10.7252 32.0352H2.36311C2.09777 32.0352 1.79974 32.4428 1.79974 32.9966C1.79448 33.489 1.39431 33.8858 0.901809 33.8868Z" fill="#4080FE"/>
<path d="M10.7233 22.054H2.36308C1.05945 22.054 0 20.8196 0 19.3025C-2.7111e-08 18.981 0.171512 18.684 0.449928 18.5232C0.728344 18.3625 1.07137 18.3625 1.34978 18.5232C1.6282 18.684 1.79971 18.981 1.79971 19.3025C1.79971 19.8486 2.09774 20.2639 2.36308 20.2639H10.7233C11.2203 20.2639 11.6231 20.6668 11.6231 21.1638C11.6231 21.6608 11.2203 22.0636 10.7233 22.0636V22.054Z" fill="#4080FE"/>
<path d="M11.1118 27.0457H4.72432C4.22734 27.0457 3.82446 26.6429 3.82446 26.1459C3.82446 25.6489 4.22734 25.246 4.72432 25.246H11.1118C11.6087 25.246 12.0116 25.6489 12.0116 26.1459C12.0116 26.6429 11.6087 27.0457 11.1118 27.0457Z" fill="#4080FE"/>
<path d="M11.1118 17.0646H4.72432C4.22734 17.0646 3.82446 16.6617 3.82446 16.1647C3.82446 15.6678 4.22734 15.2649 4.72432 15.2649H11.1118C11.6087 15.2649 12.0116 15.6678 12.0116 16.1647C12.0116 16.6617 11.6087 17.0646 11.1118 17.0646Z" fill="#4080FE"/>
<path d="M31.1352 22.6792C30.882 22.6693 30.6426 22.561 30.468 22.3773C29.42 21.3296 28.1304 20.5557 26.7129 20.1238C23.467 19.1169 19.9304 19.9853 17.5201 22.3811C17.3506 22.5608 17.116 22.6648 16.8691 22.6699C16.6222 22.6749 16.3836 22.5806 16.2068 22.4081C16.029 22.2334 15.9304 21.9936 15.9341 21.7444C15.9377 21.4952 16.0432 21.2584 16.2261 21.089C17.8396 19.4458 19.9439 18.3721 22.2213 18.0299C25.8899 17.4838 29.0779 18.5068 31.7601 21.0794C32.0107 21.3085 32.1142 21.6573 32.0292 21.986C31.9443 22.3146 31.6846 22.5695 31.3544 22.6484C31.282 22.6631 31.2088 22.6733 31.1352 22.6792Z" fill="#4080FE"/>
<path d="M24.1827 21.2177C26.1463 21.2526 28.0193 22.0505 29.4049 23.4424C29.6459 23.6701 29.7449 24.0103 29.6637 24.3317C29.5825 24.6532 29.3338 24.9056 29.0136 24.9916C28.6934 25.0775 28.3518 24.9836 28.1205 24.746C26.9087 23.5284 25.2163 22.9157 23.5059 23.0751C22.1337 23.1722 20.843 23.7622 19.8718 24.7364C19.6444 24.9775 19.3045 25.0768 18.983 24.9961C18.6616 24.9153 18.409 24.6671 18.3225 24.3472C18.236 24.0273 18.3293 23.6856 18.5663 23.4539C19.5227 22.4961 20.7175 21.8111 22.0273 21.4696C22.7316 21.2913 23.4563 21.2066 24.1827 21.2177Z" fill="#4080FE"/>
<path d="M23.9882 24.4866C25.1604 24.4803 26.2858 24.946 27.1108 25.7787C27.342 26.0085 27.433 26.3441 27.3496 26.6592C27.2661 26.9743 27.021 27.2209 26.7064 27.3062C26.3918 27.3915 26.0556 27.3025 25.8245 27.0727C24.8183 26.0766 23.1991 26.0715 22.1866 27.0612C22.0211 27.2304 21.7981 27.3313 21.5617 27.3438C21.1834 27.362 20.8331 27.1448 20.6812 26.7979C20.5293 26.451 20.6073 26.0463 20.8772 25.7806C21.7001 24.9515 22.8201 24.4856 23.9882 24.4866Z" fill="#4080FE"/>
<path d="M23.9922 27.7109C24.6534 27.7099 25.1907 28.2438 25.1939 28.905C25.197 29.5661 24.6648 30.1052 24.0037 30.1105C23.3426 30.1157 22.8018 29.5852 22.7944 28.9241C22.7918 28.6043 22.9167 28.2965 23.1414 28.0689C23.3662 27.8412 23.6723 27.7124 23.9922 27.7109Z" fill="#4080FE"/>
</svg>
