<svg width="48" height="48" viewBox="0 0 48 48" fill="none" xmlns="http://www.w3.org/2000/svg">
<path d="M26.0593 10.918C26.0593 9.71992 25.2206 8.70151 24.0824 8.46188V5.94581C24.5018 6.18544 24.8013 6.60479 24.8013 7.08404C24.8013 7.44348 25.0409 7.6831 25.4004 7.6831C25.7598 7.6831 25.9994 7.44348 25.9994 7.08404C25.9994 5.88591 25.1607 4.92741 24.0824 4.68778V4.38825C24.0824 4.02881 23.8428 3.78918 23.4834 3.78918C23.1239 3.78918 22.8843 4.02881 22.8843 4.38825V4.68778C21.806 4.98731 20.9673 5.94582 20.9673 7.08404C20.9673 8.22226 21.806 9.24067 22.8843 9.48029V12.0563C22.5249 11.8166 22.2852 11.3973 22.2852 10.918C22.2852 10.5586 22.0456 10.319 21.6862 10.319C21.3267 10.319 21.0871 10.5586 21.0871 10.918C21.0871 12.0563 21.8659 13.0148 22.8843 13.3143V13.6737C22.8843 14.0332 23.1239 14.2728 23.4834 14.2728C23.8428 14.2728 24.0824 14.0332 24.0824 13.6737V13.3742C25.2206 13.1346 26.0593 12.1162 26.0593 10.918ZM22.2253 7.14394C22.2253 6.66469 22.5249 6.18544 22.9442 6.00572V8.28217C22.4649 8.04254 22.2253 7.62319 22.2253 7.14394ZM24.0824 12.1162V9.71992C24.5617 9.89964 24.8612 10.3789 24.8612 10.918C24.8612 11.4572 24.5617 11.9365 24.0824 12.1162Z" fill="#4080FE"/>
<path d="M46.4874 43.6268H45.3491V40.6315C45.3491 40.2721 45.1095 40.0324 44.7501 40.0324H42.4137V20.4431H44.7501C45.1095 20.4431 45.3491 20.2034 45.3491 19.844V15.7704C45.3491 15.4109 45.1095 15.1713 44.7501 15.1713H43.0128C43.0128 15.1713 43.0128 15.1713 42.9529 15.1114L23.9026 0.134789C23.663 -0.0449298 23.3635 -0.0449298 23.1838 0.134789L4.13354 15.1713C4.13354 15.1713 4.13354 15.1713 4.07363 15.2312H2.27644C1.917 15.2312 1.67738 15.4708 1.67738 15.8303V19.844C1.67738 20.2034 1.917 20.4431 2.27644 20.4431H4.61279V40.0324H2.33635C1.97691 40.0324 1.73729 40.2721 1.73729 40.6315V43.6268H0.599064C0.239626 43.6268 0 43.8665 0 44.2259V47.4009C0 47.7604 0.239626 48 0.599064 48H46.4874C46.8468 48 47.0864 47.7604 47.0864 47.4009V44.2259C47.0864 43.9264 46.7869 43.6268 46.4874 43.6268ZM41.2156 40.0324H37.5014V20.4431H41.2156V40.0324ZM20.3682 20.4431V40.0324H10.7832V20.4431H20.3682ZM21.5663 20.4431H25.3404V40.0324H21.6262V20.4431H21.5663ZM26.5385 20.4431H36.2434V40.0324H26.5385V20.4431ZM23.5432 1.33292L41.0958 15.1713H5.99064L23.5432 1.33292ZM2.87551 16.3694H44.0911V19.2449H2.87551V16.3694ZM5.81092 20.4431H9.52512V40.0324H5.81092V20.4431ZM2.93541 41.2306H44.151V43.6268H2.93541V41.2306ZM45.8883 46.8618H1.19813V44.8849H45.8883V46.8618Z" fill="#4080FE"/>
</svg>
