<svg width="47" height="48" viewBox="0 0 47 48" fill="none" xmlns="http://www.w3.org/2000/svg">
<path d="M32.8811 27.7266L30.8699 26.7841V19.8252L24.0086 16.5497V13.7914H22.8593V16.5325L15.9636 19.8252V26.7841L13.9351 27.738L7.47037 24.6522L0 28.2093V36.1566L7.47037 39.7136L14.9407 36.1566V36.0761L15.9808 36.5646V44.4429L23.4512 48L30.9216 44.4429V36.5646L31.9272 36.0934V36.1566L39.3976 39.7136L46.868 36.1566V28.2093L39.3976 24.6522L32.8811 27.7266ZM44.8912 28.5828L39.2597 30.9733L33.8753 28.5253L39.3286 25.9222L44.8912 28.5828ZM26.3934 24.6809V25.9452L29.2666 27.2841L24.0086 29.7838V23.5719L29.7551 21.1354V26.244L26.3934 24.6809ZM24.0086 20.0838V17.7852L28.985 20.1585L23.3535 22.5548L17.9634 20.1068L22.8593 17.8082V20.1068L24.0086 20.0838ZM17.1129 21.0205L22.8593 23.6236V29.7838L17.6186 27.2841L20.4918 25.9452V24.6752L17.1129 26.244V21.0205ZM13.0387 28.5828L7.40716 30.9733L2.017 28.5253L7.47037 25.9222L13.0387 28.5828ZM1.16653 29.3988L6.91297 32.0077V38.1678L1.16653 35.4325V29.3988ZM8.04501 38.1678V31.9502L13.7915 29.5194V34.266L10.832 32.8811L10.7918 34.1453L13.665 35.4843L8.04501 38.1678ZM23.3535 39.2597L17.9634 36.8117L23.434 34.2085L29.0023 36.8634L23.3535 39.2597ZM17.1129 37.6851L22.8593 40.2883V46.4485L17.1129 43.7132V37.6851ZM24.0086 46.4485V40.2366L29.7551 37.8001V43.7132L24.0086 46.4485ZM29.5999 35.8693L23.434 32.9328L17.2278 35.8693L14.9292 34.7889V28.5426L16.2624 27.9162L23.4225 31.3641L30.5825 27.9162L31.8812 28.5253V34.8464L29.5999 35.8693ZM36.4497 32.657L33.0018 34.266V29.3815L38.7482 31.9904V38.1678L33.1455 35.49L36.4612 33.9327L36.4497 32.657ZM39.8975 38.1506V31.9502L45.644 29.5194V35.4325L39.8975 38.1506Z" fill="#4080FE"/>
<path d="M23.4339 5.74644C24.0022 5.74644 24.5577 5.57793 25.0302 5.26222C25.5027 4.9465 25.8709 4.49777 26.0884 3.97275C26.3059 3.44774 26.3628 2.87003 26.2519 2.31268C26.141 1.75533 25.8674 1.24337 25.4656 0.841547C25.0637 0.439721 24.5518 0.166073 23.9944 0.0552094C23.4371 -0.0556544 22.8594 0.00124492 22.3344 0.218712C21.8093 0.436179 21.3606 0.804447 21.0449 1.27695C20.7292 1.74944 20.5607 2.30495 20.5607 2.87322C20.5607 3.63525 20.8634 4.36606 21.4022 4.90489C21.941 5.44373 22.6719 5.74644 23.4339 5.74644ZM23.4339 1.14929C23.7748 1.14929 24.1082 1.2504 24.3917 1.43982C24.6752 1.62925 24.8961 1.89849 25.0266 2.2135C25.1571 2.52851 25.1912 2.87513 25.1247 3.20954C25.0582 3.54395 24.894 3.85113 24.6529 4.09222C24.4118 4.33332 24.1046 4.49751 23.7702 4.56403C23.4358 4.63055 23.0892 4.59641 22.7742 4.46593C22.4592 4.33545 22.1899 4.11448 22.0005 3.83099C21.8111 3.54749 21.71 3.21418 21.71 2.87322C21.71 2.41601 21.8916 1.97752 22.2149 1.65422C22.5382 1.33092 22.9767 1.14929 23.4339 1.14929Z" fill="#4080FE"/>
<path d="M24.0085 10.3436H22.8593V12.6421H24.0085V10.3436Z" fill="#4080FE"/>
<path d="M24.0085 6.89575H22.8593V9.19433H24.0085V6.89575Z" fill="#4080FE"/>
</svg>
