<svg width="51" height="48" viewBox="0 0 51 48" fill="none" xmlns="http://www.w3.org/2000/svg">
<path d="M30.9964 32.5201C30.2662 34.6155 27.8428 36.0759 25.1019 36.0759C22.3611 36.0759 19.9376 34.6155 19.218 32.5201C19.1016 32.192 19.2815 31.8216 19.6096 31.7052C19.9482 31.5994 20.308 31.7687 20.4244 32.1074C20.9642 33.6948 22.8902 34.8059 25.1019 34.8059C27.3137 34.8059 29.2398 33.6948 29.7901 32.1074C29.9065 31.7687 30.2662 31.5994 30.5943 31.7052C30.9329 31.8216 31.1023 32.192 30.9964 32.5201Z" fill="#4080FE"/>
<path d="M20.8585 25.3771C20.922 25.7158 20.6997 26.0544 20.3611 26.1179C20.3188 26.1285 20.2764 26.1391 20.2341 26.1391C19.9377 26.1391 19.6732 25.9274 19.6097 25.6311C19.2922 24.0861 18.2763 23.0066 17.1228 23.0066C15.9693 23.0066 14.9428 24.0861 14.6359 25.6311C14.5618 25.9697 14.2232 26.192 13.8845 26.1179C13.5353 26.0544 13.3131 25.7158 13.3872 25.3771C13.821 23.2289 15.3555 21.7367 17.1228 21.7367C18.8901 21.7367 20.4246 23.2289 20.8585 25.3771Z" fill="#4080FE"/>
<path d="M36.1185 26.1179C36.0761 26.1285 36.0338 26.1391 35.9915 26.1391C35.6951 26.1391 35.4306 25.9274 35.3777 25.6311C35.0602 24.0861 34.0337 23.0066 32.8908 23.0066C31.7373 23.0066 30.7108 24.0861 30.3933 25.6311C30.3298 25.9697 29.9806 26.192 29.6525 26.1179C29.3033 26.0544 29.081 25.7158 29.1551 25.3771C29.589 23.2289 31.1235 21.7367 32.8908 21.7367C34.6475 21.7367 36.182 23.2289 36.6158 25.3771C36.6899 25.7158 36.4677 26.0544 36.1185 26.1179Z" fill="#4080FE"/>
<path d="M46.8068 23.324C46.7116 23.3029 46.6163 23.2923 46.5211 23.2817V20.6573C46.5211 15.9903 42.3727 12.1912 37.2719 12.1912H29.3138V11.6515C29.3138 10.4873 28.3613 9.52434 27.1867 9.52434H25.5252V9.24918C25.5252 9.04811 25.4088 8.85763 25.2289 8.77295L24.4987 8.42377L27.5253 7.84168C27.7687 7.79937 27.9381 7.5983 27.9592 7.35492C27.9698 7.11147 27.811 6.88928 27.5782 6.82579L25.3347 6.1273C26.7846 5.87333 27.8851 4.614 27.8851 3.0901C27.8851 1.38632 26.4988 0 24.795 0C23.0912 0 21.7049 1.38632 21.7049 3.0901C21.7049 4.6034 22.8055 5.87333 24.2447 6.1273L24.2871 6.56122C24.2977 6.78342 24.4458 6.96337 24.6574 7.02686L25.2395 7.20675L22.7103 7.69357C22.488 7.73588 22.3081 7.91576 22.2869 8.14861C22.2552 8.37081 22.3716 8.59306 22.5832 8.68834L24.3294 9.52434H23.0277C21.8531 9.52434 20.9006 10.4873 20.9006 11.6515V12.1912H12.9425C7.84168 12.1912 3.69332 15.9903 3.69332 20.6573V23.3029C3.65101 23.3029 3.61923 23.3134 3.57692 23.324C1.50271 23.6733 0 25.4723 0 27.5782C0 28.8799 0.571437 30.0546 1.49212 30.8483C1.25933 31.5573 1.01595 32.9224 1.84136 34.3194C2.33878 35.166 3.143 35.875 4.25422 36.4253C5.55586 39.6741 8.9529 41.9917 12.9425 41.9917H18.4772C18.6359 41.9917 18.7523 42.1611 18.6994 42.3092C17.9163 44.14 16.3395 45.4734 15.6093 46.5634C15.3871 46.8915 15.4189 47.3148 15.6834 47.6005C15.8739 47.8545 16.1914 47.9921 16.5194 47.9921C16.6041 48.0026 16.6993 48.0026 16.784 47.9921C20.9006 47.1137 25.1549 43.6426 26.2342 42.0658C26.266 42.0235 26.3189 41.9917 26.3824 41.9917H37.2719C42.3727 41.9917 46.5211 38.1926 46.5211 33.5257V31.8748C46.6163 31.8642 46.701 31.8431 46.7857 31.8325C48.8598 31.4726 50.3625 29.6842 50.3625 27.5782C50.3625 25.4723 48.8598 23.6733 46.8068 23.324ZM24.795 4.80448C23.8532 4.80448 23.0912 4.03197 23.0912 3.0901C23.0912 2.14823 23.8532 1.37572 24.795 1.37572C25.7369 1.37572 26.5094 2.14823 26.5094 3.0901C26.5094 4.03197 25.7369 4.80448 24.795 4.80448ZM1.37572 27.5782C1.37572 26.1813 2.33878 24.9961 3.69332 24.6998V30.4462C2.34931 30.1604 1.37572 28.9646 1.37572 27.5782ZM3.0372 33.6315C2.57156 32.859 2.60334 32.097 2.70914 31.589C2.97371 31.6949 3.24887 31.769 3.54514 31.8219C3.59811 31.8325 3.64042 31.8431 3.69332 31.8431V33.5257C3.69332 33.8431 3.7145 34.1606 3.75681 34.4675C3.42875 34.1818 3.19597 33.9066 3.0372 33.6315ZM22.2764 11.6515C22.2764 11.2387 22.615 10.9001 23.0277 10.9001H27.1867C27.5994 10.9001 27.9381 11.2387 27.9381 11.6515V12.1912H22.2764V11.6515ZM45.1453 33.5257C45.1453 37.5047 41.6108 40.7324 37.2719 40.7324H26.1073C25.7051 40.7324 25.3347 40.9229 25.0914 41.2509C24.3506 42.2563 22.2658 44.5422 17.546 46.4893C17.3978 46.5528 17.2602 46.3624 17.366 46.246C20.5832 42.5526 20.562 41.2192 20.435 40.87C20.4138 40.8065 20.2551 40.7112 20.181 40.7112L12.9425 40.7324C10.0641 40.7324 7.5348 39.3144 6.16967 37.1873C8.05334 37.7587 10.4768 38.0868 13.4187 38.1502C13.6621 38.6477 14.1701 38.9968 14.7627 38.9968H16.1067C16.9322 38.9968 17.5989 38.3301 17.5989 37.5047C17.5989 36.6793 16.9322 36.0125 16.1067 36.0125H14.7627C14.2018 36.0125 13.7151 36.3195 13.461 36.7745C9.48203 36.6898 6.95277 36.1396 5.35479 35.4411C5.16431 34.8273 5.06904 34.1924 5.06904 33.5257V20.6573C5.06904 16.6888 8.60366 13.4505 12.9425 13.4505H37.2719C41.6108 13.4505 45.1453 16.6888 45.1453 20.6573V33.5257ZM46.5211 30.4779V24.6786H46.5528C47.9603 24.922 48.9868 26.139 48.9868 27.5782C48.9868 29.0069 47.9603 30.2345 46.5211 30.4779Z" fill="#4080FE"/>
</svg>
