<svg width="50" height="48" viewBox="0 0 50 48" fill="none" xmlns="http://www.w3.org/2000/svg">
<path d="M43.0345 23.1724C43.5467 23.171 44.046 23.0111 44.4638 22.7148C44.8816 22.4185 45.1975 22.0002 45.3683 21.5172H48.8276C49.0471 21.5172 49.2576 21.43 49.4128 21.2748C49.568 21.1196 49.6552 20.9091 49.6552 20.6897C49.6552 20.4702 49.568 20.2597 49.4128 20.1045C49.2576 19.9493 49.0471 19.8621 48.8276 19.8621H45.3683C45.1975 19.3791 44.8816 18.9608 44.4638 18.6645C44.046 18.3682 43.5467 18.2083 43.0345 18.2069H41.3793V16.5517H43.0345C43.5467 16.5503 44.046 16.3904 44.4638 16.0941C44.8816 15.7978 45.1975 15.3795 45.3683 14.8966H48.8276C49.0471 14.8966 49.2576 14.8094 49.4128 14.6542C49.568 14.499 49.6552 14.2885 49.6552 14.069C49.6552 13.8495 49.568 13.639 49.4128 13.4838C49.2576 13.3286 49.0471 13.2414 48.8276 13.2414H45.3683C45.1975 12.7584 44.8816 12.3401 44.4638 12.0438C44.046 11.7475 43.5467 11.5876 43.0345 11.5862H41.0897C40.7943 10.7532 40.2819 10.014 39.6054 9.4452C38.9289 8.87636 38.1128 8.49839 37.2414 8.35035V6.62069C37.2399 6.10846 37.0801 5.60921 36.7838 5.19139C36.4875 4.77358 36.0691 4.45764 35.5862 4.2869V0.827586C35.5862 0.608097 35.499 0.397597 35.3438 0.242394C35.1886 0.0871918 34.9781 0 34.7586 0C34.5391 0 34.3286 0.0871918 34.1734 0.242394C34.0182 0.397597 33.931 0.608097 33.931 0.827586V4.2869C33.4481 4.45764 33.0298 4.77358 32.7335 5.19139C32.4371 5.60921 32.2773 6.10846 32.2759 6.62069V8.27586H30.6207V6.62069C30.6193 6.10846 30.4594 5.60921 30.1631 5.19139C29.8668 4.77358 29.4485 4.45764 28.9655 4.2869V0.827586C28.9655 0.608097 28.8783 0.397597 28.7231 0.242394C28.5679 0.0871918 28.3574 0 28.1379 0C27.9184 0 27.7079 0.0871918 27.5527 0.242394C27.3975 0.397597 27.3103 0.608097 27.3103 0.827586V4.2869C26.8274 4.45764 26.4091 4.77358 26.1128 5.19139C25.8165 5.60921 25.6566 6.10846 25.6552 6.62069V8.27586H24V6.62069C23.9986 6.10846 23.8387 5.60921 23.5424 5.19139C23.2461 4.77358 22.8278 4.45764 22.3448 4.2869V0.827586C22.3448 0.608097 22.2576 0.397597 22.1024 0.242394C21.9472 0.0871918 21.7367 0 21.5172 0C21.2978 0 21.0873 0.0871918 20.932 0.242394C20.7768 0.397597 20.6897 0.608097 20.6897 0.827586V4.2869C20.2067 4.45764 19.7884 4.77358 19.4921 5.19139C19.1958 5.60921 19.0359 6.10846 19.0345 6.62069V8.27586H17.3793V6.62069C17.3779 6.10846 17.218 5.60921 16.9217 5.19139C16.6254 4.77358 16.2071 4.45764 15.7241 4.2869V0.827586C15.7241 0.608097 15.6369 0.397597 15.4817 0.242394C15.3265 0.0871918 15.116 0 14.8966 0C14.6771 0 14.4666 0.0871918 14.3114 0.242394C14.1562 0.397597 14.069 0.608097 14.069 0.827586V4.2869C13.586 4.45764 13.1677 4.77358 12.8714 5.19139C12.5751 5.60921 12.4152 6.10846 12.4138 6.62069V8.35035C11.5424 8.49839 10.7263 8.87636 10.0498 9.4452C9.37332 10.014 8.86091 10.7532 8.56552 11.5862H6.62069C6.10846 11.5876 5.60921 11.7475 5.19139 12.0438C4.77358 12.3401 4.45764 12.7584 4.2869 13.2414H0.827586C0.608097 13.2414 0.397597 13.3286 0.242394 13.4838C0.0871918 13.639 0 13.8495 0 14.069C0 14.2885 0.0871918 14.499 0.242394 14.6542C0.397597 14.8094 0.608097 14.8966 0.827586 14.8966H4.2869C4.45764 15.3795 4.77358 15.7978 5.19139 16.0941C5.60921 16.3904 6.10846 16.5503 6.62069 16.5517H8.27586V18.2069H6.62069C6.10846 18.2083 5.60921 18.3682 5.19139 18.6645C4.77358 18.9608 4.45764 19.3791 4.2869 19.8621H0.827586C0.608097 19.8621 0.397597 19.9493 0.242394 20.1045C0.0871918 20.2597 0 20.4702 0 20.6897C0 20.9091 0.0871918 21.1196 0.242394 21.2748C0.397597 21.43 0.608097 21.5172 0.827586 21.5172H4.2869C4.45764 22.0002 4.77358 22.4185 5.19139 22.7148C5.60921 23.0111 6.10846 23.171 6.62069 23.1724H8.27586V24.8276H6.62069C6.10846 24.829 5.60921 24.9889 5.19139 25.2852C4.77358 25.5815 4.45764 25.9998 4.2869 26.4828H0.827586C0.608097 26.4828 0.397597 26.57 0.242394 26.7252C0.0871918 26.8804 0 27.0909 0 27.3103C0 27.5298 0.0871918 27.7403 0.242394 27.8955C0.397597 28.0507 0.608097 28.1379 0.827586 28.1379H4.2869C4.45764 28.6209 4.77358 29.0392 5.19139 29.3355C5.60921 29.6318 6.10846 29.7917 6.62069 29.7931H8.27586V31.4483H6.62069C6.10846 31.4497 5.60921 31.6096 5.19139 31.9059C4.77358 32.2022 4.45764 32.6205 4.2869 33.1035H0.827586C0.608097 33.1035 0.397597 33.1906 0.242394 33.3458C0.0871918 33.501 0 33.7115 0 33.931C0 34.1505 0.0871918 34.361 0.242394 34.5162C0.397597 34.6714 0.608097 34.7586 0.827586 34.7586H4.2869C4.45764 35.2416 4.77358 35.6599 5.19139 35.9562C5.60921 36.2525 6.10846 36.4124 6.62069 36.4138H8.56552C8.86091 37.2468 9.37332 37.986 10.0498 38.5548C10.7263 39.1236 11.5424 39.5016 12.4138 39.6497V41.3793C12.4152 41.8915 12.5751 42.3908 12.8714 42.8086C13.1677 43.2264 13.586 43.5424 14.069 43.7131V47.1724C14.069 47.3919 14.1562 47.6024 14.3114 47.7576C14.4666 47.9128 14.6771 48 14.8966 48C15.116 48 15.3265 47.9128 15.4817 47.7576C15.6369 47.6024 15.7241 47.3919 15.7241 47.1724V43.7131C16.2071 43.5424 16.6254 43.2264 16.9217 42.8086C17.218 42.3908 17.3779 41.8915 17.3793 41.3793V39.7241H19.0345V41.3793C19.0359 41.8915 19.1958 42.3908 19.4921 42.8086C19.7884 43.2264 20.2067 43.5424 20.6897 43.7131V47.1724C20.6897 47.3919 20.7768 47.6024 20.932 47.7576C21.0873 47.9128 21.2978 48 21.5172 48C21.7367 48 21.9472 47.9128 22.1024 47.7576C22.2576 47.6024 22.3448 47.3919 22.3448 47.1724V43.7131C22.8278 43.5424 23.2461 43.2264 23.5424 42.8086C23.8387 42.3908 23.9986 41.8915 24 41.3793V39.7241H25.6552V41.3793C25.6566 41.8915 25.8165 42.3908 26.1128 42.8086C26.4091 43.2264 26.8274 43.5424 27.3103 43.7131V47.1724C27.3103 47.3919 27.3975 47.6024 27.5527 47.7576C27.7079 47.9128 27.9184 48 28.1379 48C28.3574 48 28.5679 47.9128 28.7231 47.7576C28.8783 47.6024 28.9655 47.3919 28.9655 47.1724V43.7131C29.4485 43.5424 29.8668 43.2264 30.1631 42.8086C30.4594 42.3908 30.6193 41.8915 30.6207 41.3793V39.7241H32.2759V41.3793C32.2773 41.8915 32.4371 42.3908 32.7335 42.8086C33.0298 43.2264 33.4481 43.5424 33.931 43.7131V47.1724C33.931 47.3919 34.0182 47.6024 34.1734 47.7576C34.3286 47.9128 34.5391 48 34.7586 48C34.9781 48 35.1886 47.9128 35.3438 47.7576C35.499 47.6024 35.5862 47.3919 35.5862 47.1724V43.7131C36.0691 43.5424 36.4875 43.2264 36.7838 42.8086C37.0801 42.3908 37.2399 41.8915 37.2414 41.3793V39.6497C38.1128 39.5016 38.9289 39.1236 39.6054 38.5548C40.2819 37.986 40.7943 37.2468 41.0897 36.4138H43.0345C43.5467 36.4124 44.046 36.2525 44.4638 35.9562C44.8816 35.6599 45.1975 35.2416 45.3683 34.7586H48.8276C49.0471 34.7586 49.2576 34.6714 49.4128 34.5162C49.568 34.361 49.6552 34.1505 49.6552 33.931C49.6552 33.7115 49.568 33.501 49.4128 33.3458C49.2576 33.1906 49.0471 33.1035 48.8276 33.1035H45.3683C45.1975 32.6205 44.8816 32.2022 44.4638 31.9059C44.046 31.6096 43.5467 31.4497 43.0345 31.4483H41.3793V29.7931H43.0345C43.5467 29.7917 44.046 29.6318 44.4638 29.3355C44.8816 29.0392 45.1975 28.6209 45.3683 28.1379H48.8276C49.0471 28.1379 49.2576 28.0507 49.4128 27.8955C49.568 27.7403 49.6552 27.5298 49.6552 27.3103C49.6552 27.0909 49.568 26.8804 49.4128 26.7252C49.2576 26.57 49.0471 26.4828 48.8276 26.4828H45.3683C45.1975 25.9998 44.8816 25.5815 44.4638 25.2852C44.046 24.9889 43.5467 24.829 43.0345 24.8276H41.3793V23.1724H43.0345ZM43.0345 19.8621C43.254 19.8621 43.4645 19.9493 43.6197 20.1045C43.7749 20.2597 43.8621 20.4702 43.8621 20.6897C43.8621 20.9091 43.7749 21.1196 43.6197 21.2748C43.4645 21.43 43.254 21.5172 43.0345 21.5172H41.3793V19.8621H43.0345ZM43.0345 13.2414C43.254 13.2414 43.4645 13.3286 43.6197 13.4838C43.7749 13.639 43.8621 13.8495 43.8621 14.069C43.8621 14.2885 43.7749 14.499 43.6197 14.6542C43.4645 14.8094 43.254 14.8966 43.0345 14.8966H41.3793V13.2414H43.0345ZM33.931 6.62069C33.931 6.4012 34.0182 6.1907 34.1734 6.0355C34.3286 5.8803 34.5391 5.7931 34.7586 5.7931C34.9781 5.7931 35.1886 5.8803 35.3438 6.0355C35.499 6.1907 35.5862 6.4012 35.5862 6.62069V8.27586H33.931V6.62069ZM27.3103 6.62069C27.3103 6.4012 27.3975 6.1907 27.5527 6.0355C27.7079 5.8803 27.9184 5.7931 28.1379 5.7931C28.3574 5.7931 28.5679 5.8803 28.7231 6.0355C28.8783 6.1907 28.9655 6.4012 28.9655 6.62069V8.27586H27.3103V6.62069ZM20.6897 6.62069C20.6897 6.4012 20.7768 6.1907 20.932 6.0355C21.0873 5.8803 21.2978 5.7931 21.5172 5.7931C21.7367 5.7931 21.9472 5.8803 22.1024 6.0355C22.2576 6.1907 22.3448 6.4012 22.3448 6.62069V8.27586H20.6897V6.62069ZM14.069 6.62069C14.069 6.4012 14.1562 6.1907 14.3114 6.0355C14.4666 5.8803 14.6771 5.7931 14.8966 5.7931C15.116 5.7931 15.3265 5.8803 15.4817 6.0355C15.6369 6.1907 15.7241 6.4012 15.7241 6.62069V8.27586H14.069V6.62069ZM6.62069 14.8966C6.4012 14.8966 6.1907 14.8094 6.0355 14.6542C5.8803 14.499 5.7931 14.2885 5.7931 14.069C5.7931 13.8495 5.8803 13.639 6.0355 13.4838C6.1907 13.3286 6.4012 13.2414 6.62069 13.2414H8.27586V14.8966H6.62069ZM6.62069 21.5172C6.4012 21.5172 6.1907 21.43 6.0355 21.2748C5.8803 21.1196 5.7931 20.9091 5.7931 20.6897C5.7931 20.4702 5.8803 20.2597 6.0355 20.1045C6.1907 19.9493 6.4012 19.8621 6.62069 19.8621H8.27586V21.5172H6.62069ZM6.62069 28.1379C6.4012 28.1379 6.1907 28.0507 6.0355 27.8955C5.8803 27.7403 5.7931 27.5298 5.7931 27.3103C5.7931 27.0909 5.8803 26.8804 6.0355 26.7252C6.1907 26.57 6.4012 26.4828 6.62069 26.4828H8.27586V28.1379H6.62069ZM6.62069 34.7586C6.4012 34.7586 6.1907 34.6714 6.0355 34.5162C5.8803 34.361 5.7931 34.1505 5.7931 33.931C5.7931 33.7115 5.8803 33.501 6.0355 33.3458C6.1907 33.1906 6.4012 33.1035 6.62069 33.1035H8.27586V34.7586H6.62069ZM15.7241 41.3793C15.7241 41.5988 15.6369 41.8093 15.4817 41.9645C15.3265 42.1197 15.116 42.2069 14.8966 42.2069C14.6771 42.2069 14.4666 42.1197 14.3114 41.9645C14.1562 41.8093 14.069 41.5988 14.069 41.3793V39.7241H15.7241V41.3793ZM22.3448 41.3793C22.3448 41.5988 22.2576 41.8093 22.1024 41.9645C21.9472 42.1197 21.7367 42.2069 21.5172 42.2069C21.2978 42.2069 21.0873 42.1197 20.932 41.9645C20.7768 41.8093 20.6897 41.5988 20.6897 41.3793V39.7241H22.3448V41.3793ZM28.9655 41.3793C28.9655 41.5988 28.8783 41.8093 28.7231 41.9645C28.5679 42.1197 28.3574 42.2069 28.1379 42.2069C27.9184 42.2069 27.7079 42.1197 27.5527 41.9645C27.3975 41.8093 27.3103 41.5988 27.3103 41.3793V39.7241H28.9655V41.3793ZM35.5862 41.3793C35.5862 41.5988 35.499 41.8093 35.3438 41.9645C35.1886 42.1197 34.9781 42.2069 34.7586 42.2069C34.5391 42.2069 34.3286 42.1197 34.1734 41.9645C34.0182 41.8093 33.931 41.5988 33.931 41.3793V39.7241H35.5862V41.3793ZM36.4138 38.069H13.2414C12.3634 38.069 11.5214 37.7202 10.9006 37.0994C10.2798 36.4786 9.93104 35.6366 9.93104 34.7586V13.2414C9.93104 12.3634 10.2798 11.5214 10.9006 10.9006C11.5214 10.2798 12.3634 9.93104 13.2414 9.93104H36.4138C37.2918 9.93104 38.1338 10.2798 38.7546 10.9006C39.3754 11.5214 39.7241 12.3634 39.7241 13.2414V34.7586C39.7241 35.6366 39.3754 36.4786 38.7546 37.0994C38.1338 37.7202 37.2918 38.069 36.4138 38.069ZM43.0345 33.1035C43.254 33.1035 43.4645 33.1906 43.6197 33.3458C43.7749 33.501 43.8621 33.7115 43.8621 33.931C43.8621 34.1505 43.7749 34.361 43.6197 34.5162C43.4645 34.6714 43.254 34.7586 43.0345 34.7586H41.3793V33.1035H43.0345ZM43.0345 26.4828C43.254 26.4828 43.4645 26.57 43.6197 26.7252C43.7749 26.8804 43.8621 27.0909 43.8621 27.3103C43.8621 27.5298 43.7749 27.7403 43.6197 27.8955C43.4645 28.0507 43.254 28.1379 43.0345 28.1379H41.3793V26.4828H43.0345Z" fill="#4080FE"/>
<path d="M34.7586 20.6897C34.5391 20.6897 34.3286 20.7769 34.1734 20.9321C34.0182 21.0873 33.931 21.2978 33.931 21.5173V22.3448C33.931 22.5643 34.0182 22.7748 34.1734 22.93C34.3286 23.0852 34.5391 23.1724 34.7586 23.1724C34.9781 23.1724 35.1886 23.0852 35.3438 22.93C35.499 22.7748 35.5862 22.5643 35.5862 22.3448V21.5173C35.5862 21.2978 35.499 21.0873 35.3438 20.9321C35.1886 20.7769 34.9781 20.6897 34.7586 20.6897Z" fill="#4080FE"/>
<path d="M33.1035 13.2414H16.5517C15.8933 13.2414 15.2618 13.503 14.7962 13.9686C14.3305 14.4342 14.069 15.0657 14.069 15.7242V32.2759C14.069 32.9343 14.3305 33.5658 14.7962 34.0315C15.2618 34.4971 15.8933 34.7586 16.5517 34.7586H33.1035C33.7619 34.7586 34.3934 34.4971 34.859 34.0315C35.3246 33.5658 35.5862 32.9343 35.5862 32.2759V25.6552C35.5862 25.4357 35.499 25.2252 35.3438 25.07C35.1886 24.9148 34.9781 24.8276 34.7586 24.8276C34.5391 24.8276 34.3286 24.9148 34.1734 25.07C34.0182 25.2252 33.931 25.4357 33.931 25.6552V32.2759C33.931 32.4954 33.8438 32.7059 33.6886 32.8611C33.5334 33.0163 33.3229 33.1035 33.1035 33.1035H16.5517C16.3322 33.1035 16.1217 33.0163 15.9665 32.8611C15.8113 32.7059 15.7241 32.4954 15.7241 32.2759V15.7242C15.7241 15.5047 15.8113 15.2942 15.9665 15.139C16.1217 14.9838 16.3322 14.8966 16.5517 14.8966H33.1035C33.3229 14.8966 33.5334 14.9838 33.6886 15.139C33.8438 15.2942 33.931 15.5047 33.931 15.7242V18.2069C33.931 18.4264 34.0182 18.6369 34.1734 18.7921C34.3286 18.9473 34.5391 19.0345 34.7586 19.0345C34.9781 19.0345 35.1886 18.9473 35.3438 18.7921C35.499 18.6369 35.5862 18.4264 35.5862 18.2069V15.7242C35.5862 15.0657 35.3246 14.4342 34.859 13.9686C34.3934 13.503 33.7619 13.2414 33.1035 13.2414Z" fill="#4080FE"/>
</svg>
