<svg width="48" height="48" viewBox="0 0 48 48" fill="none" xmlns="http://www.w3.org/2000/svg">
<path d="M0.807926 47.999C0.361488 47.999 0 47.6375 0 47.1911C0 41.4705 1.48938 36.2577 4.08589 32.8891C5.52902 31.0099 7.67154 30.7135 9.56112 30.453C11.1487 30.2341 12.6484 30.0274 13.7282 28.9915C14.5238 28.2359 14.4936 26.8112 14.3577 24.7234C14.3285 24.2779 14.6654 23.8933 15.1109 23.8641C15.5526 23.8405 15.9415 24.1727 15.9698 24.6177C16.1057 26.6885 16.2454 28.8296 14.8447 30.1604C13.3884 31.5573 11.5555 31.8103 9.78198 32.0547C7.97075 32.3039 6.40681 32.52 5.36669 33.8745C2.98254 36.9674 1.61585 41.8207 1.61585 47.1911C1.61585 47.6376 1.25436 47.999 0.807926 47.999Z" fill="#4080FE"/>
<path d="M33.6565 32.6032C33.5593 32.6032 33.4602 32.5852 33.3649 32.5475C33.0591 32.4295 32.7306 32.3549 32.3918 32.2822C31.9255 32.1935 31.43 32.1284 30.9336 32.0633C29.2214 31.8368 27.2809 31.581 25.8076 30.1558C24.4088 28.8278 24.5494 26.6598 24.6863 24.5635C24.7155 24.1176 25.1337 23.7924 25.5442 23.8094C25.9897 23.8382 26.3276 24.2228 26.2984 24.6683C26.1615 26.7877 26.1303 28.2336 26.926 28.9887C28.0218 30.0482 29.5386 30.2483 31.145 30.4606C31.6735 30.5305 32.2002 30.6003 32.7136 30.6985C33.1346 30.7882 33.532 30.8797 33.9482 31.0402C34.3644 31.2015 34.5711 31.6697 34.4107 32.0859C34.2861 32.4068 33.9803 32.6032 33.6565 32.6032Z" fill="#4080FE"/>
<path d="M26.3417 47.9991L0.807926 47.999C0.361488 47.999 0 47.6375 0 47.1911C0 46.7447 0.361493 46.3833 0.807926 46.3833H26.3417C26.7881 46.3833 27.1496 46.7448 27.1496 47.1912C27.1496 47.6376 26.7881 47.9991 26.3417 47.9991Z" fill="#4080FE"/>
<path d="M15.5753 48C15.2421 48 14.9297 47.7914 14.8127 47.4591L11.4375 37.8423L9.90187 38.3898C9.61871 38.4917 9.30253 38.4266 9.08072 38.2218C8.85987 38.0179 8.77114 37.7074 8.85042 37.4176L10.6588 30.7607C10.7759 30.3284 11.2232 30.0745 11.6499 30.1925C12.0812 30.3095 12.3351 30.7531 12.218 31.1835L10.8155 36.3482L11.6593 36.0471C11.8613 35.9735 12.084 35.9867 12.2794 36.0783C12.4729 36.1708 12.623 36.3369 12.6937 36.5398L16.3379 46.923C16.4861 47.3449 16.2643 47.8055 15.8433 47.9537C15.7546 47.9849 15.664 48 15.5753 48Z" fill="#4080FE"/>
<path d="M25.0816 48C24.992 48 24.9004 47.9849 24.8117 47.9528C24.3908 47.8036 24.1708 47.3412 24.32 46.9212L25.5253 43.5233C25.6753 43.1024 26.1397 42.8815 26.5569 43.0316C26.9778 43.1807 27.1977 43.6432 27.0486 44.0632L25.8433 47.461C25.7253 47.7923 25.4139 48 25.0816 48ZM29.5186 32.9042C29.1619 32.9042 28.8353 32.6654 28.739 32.3048L28.4379 31.1817C28.3219 30.7503 28.5776 30.3067 29.009 30.1916C29.4412 30.0755 29.8839 30.3313 29.9991 30.7626L30.3001 31.8858C30.4162 32.3171 30.1605 32.7607 29.7291 32.8759C29.6583 32.8947 29.5885 32.9042 29.5186 32.9042Z" fill="#4080FE"/>
<path d="M17.6847 36.4644C17.4798 36.4644 17.2816 36.387 17.1316 36.2463L11.8442 31.2883C11.5185 30.9825 11.5025 30.471 11.8073 30.1453C12.1141 29.8207 12.6238 29.8037 12.9503 30.1085L17.6186 34.487L19.1221 32.7201L14.3491 29.7107C13.9716 29.4724 13.8583 28.9736 14.0971 28.596C14.334 28.2185 14.8352 28.1071 15.2118 28.3431L20.7729 31.8499C20.9711 31.9745 21.1051 32.1793 21.14 32.4115C21.1759 32.6427 21.1089 32.8787 20.9569 33.0571L18.3 36.1803C18.1566 36.3483 17.9508 36.4511 17.7299 36.4634C17.7149 36.4644 17.6998 36.4644 17.6847 36.4644Z" fill="#4080FE"/>
<path d="M17.4658 48.0001C17.3846 48.0001 17.3025 47.9869 17.2204 47.9614C16.7956 47.8264 16.5606 47.3715 16.6956 46.9458L19.4507 38.2861L17.5149 35.5178C17.2591 35.1516 17.3487 34.6476 17.714 34.3918C18.0821 34.137 18.5842 34.2257 18.84 34.5909L21.0042 37.6867C21.1486 37.8934 21.1883 38.1549 21.1118 38.3956L18.236 47.4366C18.1265 47.7802 17.8084 47.9992 17.4658 48.0001Z" fill="#4080FE"/>
<path d="M23.1911 48C22.8475 48 22.5285 47.7792 22.4199 47.4337L19.5705 38.3927C19.4959 38.1548 19.5346 37.8962 19.6762 37.6905L21.814 34.5947C22.0688 34.2275 22.5709 34.1369 22.939 34.3889C23.3062 34.6428 23.3978 35.1459 23.1448 35.514L21.2316 38.2841L23.9622 46.9486C24.0962 47.3743 23.8593 47.8283 23.4336 47.9623C23.3534 47.9878 23.2713 48 23.1911 48Z" fill="#4080FE"/>
<path d="M22.9721 36.4643C22.956 36.4643 22.9409 36.4643 22.9249 36.4634C22.7031 36.4501 22.4964 36.3463 22.3538 36.1774L19.7234 33.0542C19.5733 32.8758 19.5072 32.6408 19.5431 32.4096C19.578 32.1793 19.712 31.9754 19.9093 31.8508L25.444 28.344C25.8215 28.1052 26.3208 28.2184 26.5587 28.5941C26.7974 28.9712 26.6861 29.4709 26.3085 29.7097L21.5563 32.7201L23.041 34.4841L27.7064 30.1085C28.031 29.8036 28.5436 29.8206 28.8494 30.1453C29.1542 30.4709 29.1382 30.9825 28.8125 31.2883L23.5252 36.2463C23.3751 36.3869 23.1769 36.4643 22.9721 36.4643Z" fill="#4080FE"/>
<path d="M20.4022 27.5886C20.3795 27.5886 20.3578 27.5886 20.3352 27.5886C12.6296 27.5267 10.137 17.1794 10.137 12.178C10.137 11.1487 10.2672 10.2582 10.5353 9.45596C10.6768 9.03265 11.1346 8.80471 11.5574 8.94581C11.9812 9.08692 12.2096 9.54515 12.0681 9.96847C11.8557 10.6027 11.7528 11.3257 11.7528 12.178C11.7528 16.4777 13.917 25.9208 20.3484 25.9718C20.3654 25.9722 20.3823 25.9722 20.4003 25.9722C22.0407 25.9722 23.5121 25.338 24.774 24.0864C27.4857 21.397 28.9043 16.06 28.9043 12.178C28.9043 11.3281 28.8005 10.6051 28.589 9.96752C28.4475 9.5442 28.6768 9.08644 29.1006 8.94534C29.5187 8.80423 29.9812 9.03312 30.1218 9.4569C30.3899 10.2615 30.5201 11.1516 30.5201 12.178C30.5201 16.2648 29.078 22.0935 25.9123 25.2337C24.337 26.7967 22.4833 27.5886 20.4022 27.5886Z" fill="#4080FE"/>
<path d="M29.3563 10.5206C29.3223 10.5206 29.2874 10.5182 29.2525 10.5139C23.4516 9.76784 18.3709 8.34169 14.151 6.27373C13.7508 6.07741 13.5847 5.59322 13.781 5.19209C13.9783 4.79238 14.4615 4.62437 14.8627 4.82211C18.9221 6.81173 23.8329 8.18737 29.4582 8.91036C29.9009 8.96746 30.2142 9.37237 30.1567 9.81503C30.1048 10.2228 29.7565 10.5206 29.3563 10.5206Z" fill="#4080FE"/>
<path d="M29.3544 10.5205C29.244 10.5205 29.1307 10.4974 29.0222 10.4488C28.6154 10.2648 28.4351 9.78622 28.6192 9.37943C29.3978 7.6555 29.3714 6.12884 28.5408 4.84144C27.2563 2.85229 24.1152 1.6168 20.3417 1.6168C19.8952 1.6168 19.5338 1.25484 19.5338 0.808402C19.5338 0.361963 19.8952 0 20.3417 0C24.723 0 28.2964 1.4823 29.8981 3.96508C30.6881 5.18736 31.362 7.23502 30.0916 10.0448C29.9566 10.3436 29.6631 10.5205 29.3544 10.5205Z" fill="#4080FE"/>
<path d="M11.3024 10.5205C10.9938 10.5205 10.7002 10.3436 10.5653 10.0448C9.2958 7.23596 9.96876 5.19019 10.7578 3.96839C12.3614 1.48372 15.9443 0 20.3417 0C20.7881 0 21.1495 0.361963 21.1495 0.808402C21.1495 1.25484 20.7881 1.6168 20.3417 1.6168C16.5531 1.6168 13.4015 2.85371 12.116 4.84474C11.2854 6.1312 11.259 7.65645 12.0377 9.37943C12.2217 9.78622 12.0414 10.2648 11.6346 10.4488C11.5261 10.4974 11.4128 10.5205 11.3024 10.5205Z" fill="#4080FE"/>
<path d="M11.3006 10.5205C10.8712 10.5205 10.5144 10.1826 10.4946 9.74895C10.4738 9.30345 10.8183 8.92544 11.2647 8.90468C14.0595 8.77679 16.2293 8.01605 17.8971 6.57906C18.235 6.28882 18.7447 6.32516 19.0373 6.664C19.328 7.00237 19.2902 7.51252 18.9523 7.80416C17.0269 9.46249 14.4653 10.3761 11.3384 10.5196C11.3261 10.5201 11.3138 10.5205 11.3006 10.5205Z" fill="#4080FE"/>
<path d="M47.1912 43.2591C46.7448 43.2591 46.3833 42.8976 46.3833 42.4512V28.1227C46.3833 27.6763 46.7448 27.3143 47.1912 27.3143C47.6376 27.3143 47.9991 27.6763 47.9991 28.1227V42.4512C47.9991 42.8976 47.6376 43.2591 47.1912 43.2591Z" fill="#4080FE"/>
<path d="M44.5333 45.8896C42.638 45.8896 41.0958 44.3474 41.0958 42.4512C41.0958 42.0048 41.4573 41.6433 41.9037 41.6433C42.3501 41.6433 42.7116 42.0048 42.7116 42.4512C42.7116 43.4564 43.529 44.2738 44.5333 44.2738C45.5535 44.2738 46.3833 43.4563 46.3833 42.4512C46.3833 42.0047 46.7447 41.6433 47.1911 41.6433C47.6375 41.6433 47.9991 42.0047 47.9991 42.4512C47.9991 44.3473 46.4445 45.8896 44.5333 45.8896Z" fill="#4080FE"/>
<path d="M41.9038 37.5885C41.4574 37.5885 41.0959 37.227 41.0959 36.7805C41.0959 35.7603 40.2662 34.9306 39.2459 34.9306C38.2087 34.9306 37.396 35.7433 37.396 36.7805C37.396 37.227 37.0345 37.5885 36.5881 37.5885C36.1417 37.5885 35.7802 37.227 35.7802 36.7805C35.7802 34.8693 37.3347 33.3148 39.2459 33.3148C41.1572 33.3148 42.7117 34.8693 42.7117 36.7805C42.7117 37.227 42.3502 37.5885 41.9038 37.5885Z" fill="#4080FE"/>
<path d="M28.808 37.5885C28.3616 37.5885 28.0001 37.227 28.0001 36.7805C28.0001 34.8693 29.5546 33.3148 31.4649 33.3148C31.9114 33.3148 32.2729 33.6763 32.2729 34.1227C32.2729 34.5691 31.9114 34.9306 31.4649 34.9306C30.4456 34.9306 29.6159 35.7603 29.6159 36.7805C29.6159 37.227 29.2544 37.5885 28.808 37.5885Z" fill="#4080FE"/>
<path d="M44.5333 45.8896L36.7805 45.8895C36.3341 45.8895 35.9726 45.528 35.9726 45.0816C35.9726 44.6352 36.3341 44.2737 36.7805 44.2737L44.5333 44.2738C44.9797 44.2738 45.3411 44.6352 45.3411 45.0816C45.3411 45.528 44.9797 45.8896 44.5333 45.8896Z" fill="#4080FE"/>
<path d="M41.9037 43.259C41.4573 43.259 41.0958 42.8976 41.0958 42.4512L41.0959 36.7805C41.0959 36.3341 41.4573 35.9726 41.9037 35.9726C42.3501 35.9726 42.7117 36.3341 42.7117 36.7805L42.7116 42.4512C42.7116 42.8976 42.3501 43.259 41.9037 43.259Z" fill="#4080FE"/>
<path d="M39.2459 34.9306H31.4649C31.0185 34.9306 30.657 34.5691 30.657 34.1227C30.657 33.6763 31.0185 33.3148 31.4649 33.3148H39.2459C39.6924 33.3148 40.0538 33.6763 40.0538 34.1227C40.0538 34.5691 39.6924 34.9306 39.2459 34.9306Z" fill="#4080FE"/>
<path d="M36.5881 47.999C36.1416 47.999 35.7802 47.6375 35.7802 47.1911V36.7805C35.7802 36.3341 36.1416 35.9726 36.5881 35.9726C37.0345 35.9726 37.396 36.3341 37.396 36.7805L37.396 47.1911C37.396 47.6375 37.0345 47.999 36.5881 47.999Z" fill="#4080FE"/>
<path d="M28.808 47.999C28.3616 47.999 28.0001 47.6375 28.0001 47.1911V36.7805C28.0001 36.3341 28.3616 35.9726 28.808 35.9726C29.2544 35.9726 29.6159 36.3341 29.6159 36.7805V47.1911C29.6159 47.6375 29.2544 47.999 28.808 47.999Z" fill="#4080FE"/>
<path d="M36.5881 47.999H28.808C28.3616 47.999 28.0001 47.6375 28.0001 47.1911C28.0001 46.7446 28.3616 46.3833 28.808 46.3833H36.5881C37.0345 46.3833 37.396 46.7446 37.396 47.1911C37.396 47.6375 37.0345 47.999 36.5881 47.999Z" fill="#4080FE"/>
<path d="M39.4102 34.9306C38.9637 34.9306 38.6023 34.5691 38.6023 34.1227V28.1227C38.6023 27.6763 38.9638 27.3143 39.4102 27.3143C39.8566 27.3143 40.2181 27.6763 40.2181 28.1227V34.1227C40.2181 34.5691 39.8566 34.9306 39.4102 34.9306Z" fill="#4080FE"/>
<path d="M47.1912 28.9311H39.4102C38.9637 28.9311 38.6023 28.5691 38.6023 28.1227C38.6023 27.6763 38.9638 27.3143 39.4102 27.3143H47.1912C47.6376 27.3143 47.9991 27.6763 47.9991 28.1227C47.9991 28.5691 47.6377 28.9311 47.1912 28.9311Z" fill="#4080FE"/>
<path d="M44.7521 31.6159H41.8479C41.4015 31.6159 41.04 31.2544 41.04 30.8079C41.04 30.3615 41.4015 30 41.8479 30H44.7521C45.1986 30 45.5601 30.3615 45.5601 30.8079C45.5601 31.2544 45.1986 31.6159 44.7521 31.6159Z" fill="#4080FE"/>
<path d="M44.7522 34.6295H43.3006C42.8541 34.6295 42.4927 34.268 42.4927 33.8215C42.4927 33.3751 42.8541 33.0136 43.3006 33.0136H44.7522C45.1986 33.0136 45.5601 33.3751 45.5601 33.8215C45.5601 34.268 45.1986 34.6295 44.7522 34.6295Z" fill="#4080FE"/>
<path d="M34.1502 41.2318H31.246C30.7995 41.2318 30.438 40.8703 30.438 40.4239C30.438 39.9774 30.7995 39.6159 31.246 39.6159H34.1502C34.5966 39.6159 34.9581 39.9774 34.9581 40.4239C34.9581 40.8703 34.5966 41.2318 34.1502 41.2318Z" fill="#4080FE"/>
<path d="M34.15 44.218H32.6984C32.252 44.218 31.8905 43.8565 31.8905 43.41C31.8905 42.9636 32.252 42.6021 32.6984 42.6021H34.15C34.5965 42.6021 34.958 42.9636 34.958 43.41C34.958 43.8565 34.5965 44.218 34.15 44.218Z" fill="#4080FE"/>
<path d="M34.1502 38.218H31.246C30.7995 38.218 30.438 37.8565 30.438 37.41C30.438 36.9636 30.7995 36.6021 31.246 36.6021H34.1502C34.5966 36.6021 34.9581 36.9636 34.9581 37.41C34.9581 37.8565 34.5966 38.218 34.1502 38.218Z" fill="#4080FE"/>
<path d="M38.2048 26.3833C38.0698 26.3833 37.9358 26.3493 37.814 26.2823C34.8032 24.6197 32.3265 22.1521 30.6493 19.1469C30.4322 18.7571 30.5719 18.2649 30.9617 18.0473C31.3525 17.8302 31.8442 17.9704 32.0613 18.3597C33.5177 20.9694 35.6356 23.1346 38.2048 24.6447C43.2609 21.6783 46.3832 16.2497 46.3832 10.3696C46.3832 10.0416 46.3728 9.70516 46.352 9.37528C44.5332 8.92365 42.9967 7.65891 42.1727 5.92696C39.4072 5.6943 36.9787 5.69619 34.2237 5.92601C33.9792 6.47061 33.6611 6.96518 33.2742 7.40076C32.9759 7.73394 32.4662 7.7632 32.1331 7.46683C31.7989 7.17046 31.7697 6.65937 32.066 6.32572C32.4266 5.92129 32.7041 5.44134 32.8928 4.89911C32.9967 4.59944 33.2666 4.38896 33.5818 4.3597C35.1779 4.21199 36.7333 4.13695 38.2048 4.13695C39.6791 4.13695 41.1817 4.2101 42.7994 4.3597C43.1061 4.38802 43.3695 4.58811 43.4799 4.87551C44.1047 6.50977 45.5375 7.66787 47.2185 7.89769C47.5885 7.94866 47.8763 8.24644 47.9131 8.61831C47.9698 9.18226 47.999 9.78773 47.999 10.3696C47.999 16.9883 44.3954 23.086 38.5946 26.2828C38.4738 26.3498 38.3388 26.3833 38.2048 26.3833Z" fill="#4080FE"/>
<path d="M38.2049 19.0411C35.5234 19.0411 33.3422 16.8717 33.3422 14.2053C33.3422 11.5239 35.5234 9.34219 38.2049 9.34219H38.3965C38.8429 9.34219 39.2044 9.70415 39.2044 10.1506C39.2044 10.597 38.8429 10.959 38.3965 10.959H38.2049C36.4144 10.959 34.958 12.4153 34.958 14.2053C34.958 15.9802 36.4144 17.4243 38.2049 17.4243C39.9802 17.4243 41.4243 15.9802 41.4243 14.2053C41.4243 13.3441 41.1091 12.5546 40.5371 11.9816C40.2218 11.6659 40.2218 11.1544 40.538 10.8386C40.8533 10.5234 41.3658 10.5234 41.681 10.8396C42.5578 11.7174 43.0402 12.9127 43.0402 14.2053C43.0401 16.8717 40.8712 19.0411 38.2049 19.0411Z" fill="#4080FE"/>
<path d="M38.1228 15.5615C37.9057 15.5615 37.6971 15.4737 37.5442 15.3175L36.421 14.167C36.1095 13.848 36.1152 13.3359 36.4352 13.0245C36.7533 12.7121 37.2658 12.7187 37.5782 13.0382L38.0737 13.5455L41.7188 9.14199C42.0048 8.79701 42.5126 8.75029 42.8571 9.03486C43.2006 9.31943 43.2488 9.8291 42.9647 10.1727L38.7457 15.2685C38.5994 15.445 38.3852 15.5511 38.1558 15.5606C38.1445 15.5611 38.1341 15.5615 38.1228 15.5615Z" fill="#4080FE"/>
</svg>
