<svg width="16" height="14" viewBox="0 0 16 14" fill="none" xmlns="http://www.w3.org/2000/svg">
<path d="M0.337992 4.42948H3.11309V14H0.337992V4.42948ZM1.72554 3.0953C1.21559 3.0953 0.800508 2.94706 0.480305 2.65057C0.160102 2.35409 0 1.98645 0 1.54765C0 1.10885 0.160102 0.741212 0.480305 0.444728C0.800508 0.148243 1.21559 0 1.72554 0C2.23549 0 2.65057 0.142313 2.97078 0.426939C3.29098 0.711564 3.45108 1.06735 3.45108 1.49428C3.45108 1.9568 3.29098 2.34223 2.97078 2.65057C2.65057 2.94706 2.23549 3.0953 1.72554 3.0953Z" fill="#4080FE"/>
<path d="M11.5056 4.28717C12.6916 4.28717 13.6463 4.64295 14.3697 5.35451C15.105 6.06607 15.4726 7.12156 15.4726 8.52097V14H12.6975V8.9479C12.6975 8.1889 12.5315 7.62558 12.1994 7.25794C11.8674 6.87844 11.387 6.68869 10.7585 6.68869C10.0588 6.68869 9.5014 6.90809 9.08632 7.34689C8.67125 7.77383 8.46371 8.41423 8.46371 9.26811V14H5.68861V4.42948H8.33918V5.55019C8.70682 5.14697 9.16341 4.83863 9.70894 4.62516C10.2545 4.39983 10.8534 4.28717 11.5056 4.28717Z" fill="#4080FE"/>
</svg>
