<svg width="52" height="53" viewBox="0 0 52 53" fill="none" xmlns="http://www.w3.org/2000/svg">
<path d="M48 20C48 15.589 44.411 12 40 12C38.914 12 37.856 12.219 36.881 12.634C36.96 12.099 37 11.553 37 11C37 4.935 32.065 0 26 0C19.935 0 15 4.935 15 11C15 11.553 15.04 12.099 15.119 12.634C14.144 12.219 13.086 12 12 12C7.589 12 4 15.589 4 20C4 24.411 7.589 28 12 28H40C44.411 28 48 24.411 48 20ZM6 20C6 16.691 8.691 14 12 14C13.538 14 14.997 14.584 16.11 15.644C16.454 15.972 16.982 16.01 17.372 15.741C17.762 15.469 17.906 14.96 17.718 14.523C17.241 13.423 17 12.237 17 11C17 6.037 21.037 2 26 2C30.963 2 35 6.037 35 11C35 12.237 34.759 13.423 34.282 14.522C34.094 14.959 34.238 15.467 34.628 15.74C35.018 16.011 35.546 15.972 35.89 15.643C37.003 14.584 38.462 14 40 14C43.309 14 46 16.691 46 20C46 23.309 43.309 26 40 26H12C8.691 26 6 23.309 6 20ZM31 43H21C20.447 43 20 43.447 20 44V52C20 52.553 20.447 53 21 53H31C31.553 53 32 52.553 32 52V44C32 43.447 31.553 43 31 43ZM30 51H22V45H30V51ZM11 34H1C0.447 34 0 34.447 0 35V43C0 43.553 0.447 44 1 44H11C11.553 44 12 43.553 12 43V35C12 34.447 11.553 34 11 34ZM10 42H2V36H10V42ZM51 34H41C40.447 34 40 34.447 40 35V43C40 43.553 40.447 44 41 44H51C51.553 44 52 43.553 52 43V35C52 34.447 51.553 34 51 34ZM50 42H42V36H50V42ZM26 30C26.553 30 27 30.447 27 31V39C27 39.553 26.553 40 26 40C25.447 40 25 39.553 25 39V31C25 30.447 25.447 30 26 30ZM21 40H16C15.447 40 15 39.553 15 39C15 38.447 15.447 38 16 38H20V31C20 30.447 20.447 30 21 30C21.553 30 22 30.447 22 31V39C22 39.553 21.553 40 21 40ZM37 39C37 39.553 36.553 40 36 40H31C30.447 40 30 39.553 30 39V31C30 30.447 30.447 30 31 30C31.553 30 32 30.447 32 31V38H36C36.553 38 37 38.447 37 39Z" fill="#4080FE"/>
</svg>
