<svg width="86" height="18" viewBox="0 0 86 18" fill="none" xmlns="http://www.w3.org/2000/svg">
<path d="M13.5185 0.43324V10.3238C13.5185 13.6266 12.0565 14.9982 8.62739 14.9982C5.19799 14.9982 3.73599 13.6266 3.73599 10.3238V0H0.43324C0.14461 0 0 0.14461 0 0.43324V10.4861C0 16.0093 3.51952 17.9404 8.62739 17.9404C13.735 17.9404 17.2545 16.0093 17.2545 10.4861V0H13.9514C13.6628 0 13.5185 0.14461 13.5185 0.43324Z" fill="#1C1C1C"/>
<path d="M61.3983 2.86981C61.669 2.86981 61.7954 2.77968 61.8855 2.58088L62.8424 0.216473C62.8966 0.0724521 62.8424 0 62.6978 0H49.396C48.1505 0 47.6816 0.379048 47.6816 1.22727V16.5865C47.6816 17.3087 48.0421 17.6335 48.999 17.6335H61.3983C61.669 17.6335 61.7954 17.5431 61.8855 17.3449L62.8424 14.9802C62.8966 14.8359 62.8424 14.7637 62.6978 14.7637H51.3455V11.6412C51.3455 10.5583 51.941 10.0708 53.547 10.0708H58.4746C58.7453 10.0708 58.8714 9.98101 58.9618 9.7825L59.8824 7.50821C59.9363 7.3636 59.8824 7.29174 59.7378 7.29174H51.3455V2.86981H61.3983Z" fill="#1C1C1C"/>
<path fill-rule="evenodd" clip-rule="evenodd" d="M40.0212 4.47612C40.0212 6.1546 39.4257 7.58037 37.982 8.33847C39.967 8.86183 40.8694 10.6487 40.8694 12.7604C40.8694 16.2799 38.379 17.6335 34.8957 17.6335H25.6548C24.6982 17.6335 24.3374 17.3087 24.3374 16.5865V1.22727C24.3374 0.379048 24.8063 0 26.0518 0H33.56C36.8448 0 40.0212 0.577555 40.0212 4.47612ZM27.9992 2.83358H33.8307C35.7798 2.83358 36.3214 3.56782 36.3214 5.08961C36.3214 6.61169 35.7798 7.34593 33.8307 7.34593H27.9992V2.83358ZM34.5166 14.8H27.9992V11.5691C27.9992 10.4861 28.5947 9.99897 30.2013 9.99897H34.5166C36.5921 9.99897 37.1697 10.793 37.1697 12.4176C37.1697 14.0419 36.5921 14.8 34.5166 14.8Z" fill="#1C1C1C"/>
<path fill-rule="evenodd" clip-rule="evenodd" d="M81.9459 10.5403L85.8984 17.3266C85.9708 17.4347 85.9708 17.6335 85.7361 17.6335H82.3789C82.1082 17.6335 81.9998 17.5252 81.8914 17.3449L78.318 10.9193H75.0695C73.4628 10.9193 72.8673 11.4068 72.8673 12.4897V17.6335H69.6367C69.3481 17.6335 69.2035 17.4889 69.2035 17.2003V1.22727C69.2035 0.379048 69.673 0 70.9182 0H78.4623C82.848 0 85.5014 1.1554 85.5014 5.43273C85.5014 8.73577 83.913 10.0352 81.9459 10.5403ZM72.8673 8.17589H79.004C81.2959 8.17589 81.8013 7.30971 81.8013 5.50488C81.8013 3.71803 81.2959 2.83388 79.004 2.83388H72.8673V8.17589Z" fill="#1C1C1C"/>
</svg>
