<svg width="90" height="30" viewBox="0 0 90 30" fill="none" xmlns="http://www.w3.org/2000/svg">
<path fill-rule="evenodd" clip-rule="evenodd" d="M31.1606 22.8573C35.2284 22.8573 38.543 19.7351 38.543 15.4981C38.543 11.2312 35.2284 8.13892 31.1606 8.13892C27.0928 8.13892 23.7782 11.2312 23.7782 15.4981C23.7782 19.7351 27.0928 22.8573 31.1606 22.8573ZM31.1606 11.0388C33.3903 11.0388 35.3113 12.8504 35.3113 15.4981C35.3113 18.1159 33.3903 19.9574 31.1606 19.9574C28.931 19.9574 27.0099 18.1193 27.0099 15.4981C27.0099 12.8504 28.931 11.0388 31.1606 11.0388Z" fill="#E8AA71"/>
<path fill-rule="evenodd" clip-rule="evenodd" d="M47.0866 22.8573C51.1544 22.8573 54.469 19.7351 54.469 15.4981C54.469 11.2312 51.1544 8.13892 47.0866 8.13892C43.0188 8.13892 39.7042 11.2345 39.7042 15.4981C39.7042 19.7351 43.0188 22.8573 47.0866 22.8573ZM47.0866 11.0388C49.3163 11.0388 51.2374 12.8504 51.2374 15.4981C51.2374 18.1159 49.3163 19.9574 47.0866 19.9574C44.857 19.9574 42.9359 18.1193 42.9359 15.4981C42.9359 12.8504 44.857 11.0388 47.0866 11.0388Z" fill="#4080FE"/>
<path fill-rule="evenodd" clip-rule="evenodd" d="M69.7316 21.7955V8.58684H66.6626V9.78461H66.5497C65.8231 8.91863 64.4296 8.13892 62.6744 8.13892C58.9948 8.13892 55.6238 11.3706 55.6238 15.5246C55.6238 19.6488 58.9948 22.854 62.6744 22.854C64.4329 22.854 65.8264 22.0742 66.5497 21.1817H66.6626V22.2401C66.6626 25.0571 65.1595 26.5535 62.7341 26.5535C60.7566 26.5535 59.529 25.14 59.028 23.9422L56.2144 25.1135C57.0239 27.0644 59.1707 29.45 62.7374 29.45C66.5265 29.45 69.7316 27.2303 69.7316 21.7955ZM62.9631 11.0388C65.1628 11.0388 66.8915 12.9333 66.8915 15.5246C66.8915 18.0894 65.1628 19.9574 62.9631 19.9574C60.7334 19.9574 58.8654 18.0894 58.8654 15.5246C58.8654 12.9333 60.7334 11.0388 62.9631 11.0388Z" fill="#C03299"/>
<path d="M74.7914 0.839478V22.4061H71.6394V0.839478H74.7914Z" fill="#FFAA2B"/>
<path fill-rule="evenodd" clip-rule="evenodd" d="M89.5828 19.5925L87.0744 17.9202C86.2383 19.1479 85.0969 19.9574 83.4512 19.9574C81.8088 19.9574 80.6376 19.2043 79.8844 17.7278L89.7221 13.6533L89.387 12.8172C88.7765 11.1748 86.9085 8.13562 83.0896 8.13562C79.2972 8.13562 76.1484 11.1184 76.1484 15.4948C76.1484 19.6223 79.2706 22.854 83.4512 22.854C86.8222 22.854 88.7732 20.7902 89.5828 19.5925ZM85.9297 12.5418L79.3536 15.2725C79.2706 12.4323 81.5567 10.9824 83.1991 10.9824C84.4798 10.9824 85.5681 11.6228 85.9297 12.5418Z" fill="#F5DF19"/>
<path d="M11.8469 13.5836V10.4615H22.368C22.4709 11.0056 22.524 11.6493 22.524 12.346C22.524 14.6885 21.8836 17.5851 19.8199 19.6488C17.8125 21.7391 15.2478 22.8539 11.8502 22.8539C5.55275 22.8539 0.257324 17.7244 0.257324 11.427C0.257324 5.12953 5.55275 0 11.8502 0C15.334 0 17.8158 1.36699 19.6805 3.14872L17.4774 5.35183C16.1403 4.09765 14.3287 3.12218 11.8469 3.12218C7.24821 3.12218 3.65157 6.82831 3.65157 11.427C3.65157 16.0256 7.24821 19.7318 11.8469 19.7318C14.8297 19.7318 16.5285 18.534 17.6168 17.4457C18.4993 16.5631 19.08 15.3023 19.3089 13.5803L11.8469 13.5836Z" fill="#30C575"/>
</svg>
