<svg width="80" height="33" viewBox="0 0 80 33" fill="none" xmlns="http://www.w3.org/2000/svg">
<path fill-rule="evenodd" clip-rule="evenodd" d="M43.3333 4.56157L37.5 5.775V5.77484V1.19099L43.3333 0V4.56157ZM20.6451 2.475L15.023 3.63438L15 21.4946C15 24.7948 17.5577 27.225 20.9679 27.225C22.8572 27.225 24.2397 26.8906 25 26.4892V21.9629C24.2628 22.2528 20.6221 23.2784 20.6221 19.9784V12.0628H25V7.3135H20.6221L20.6451 2.475ZM5.64433 12.4965C5.64433 11.648 6.35822 11.3215 7.54083 11.3215C9.23623 11.3215 11.3779 11.8221 13.0735 12.7142V7.60085C11.2218 6.88287 9.39247 6.6 7.54083 6.6C3.01181 6.6 0 8.90645 0 12.7578C0 16.3826 3.08897 17.4706 5.53773 18.3331C7.1457 18.8995 8.47763 19.3686 8.47763 20.3949C8.47763 21.3956 7.58538 21.7221 6.33595 21.7221C4.48431 21.7221 2.11941 20.9822 0.245337 19.9814V25.1599C2.3202 26.0302 4.41733 26.4 6.33595 26.4C10.9763 26.4 14.1667 24.159 14.1667 20.2643C14.1529 16.2455 10.8822 15.1605 8.39729 14.3362C6.873 13.8306 5.64433 13.423 5.64433 12.4965ZM31.5757 7.65622L31.9394 9.31111C33.2803 6.89576 35.9394 7.38779 36.6667 7.65622V12.8C35.9621 12.5541 33.6893 12.241 32.3485 13.963V27.225H26.6667V7.65622H31.5757ZM37.5 7.425H43.3333V26.4H37.5V7.425ZM54.75 6.6C52.5226 6.6 51.0908 7.62738 50.2955 8.34224L49.9999 6.95743H45V33L50.6817 31.8164L50.7046 25.4955C51.5228 26.0763 52.7272 26.9026 54.7273 26.9026C58.7955 26.9026 62.5 23.6864 62.5 16.6062C62.4773 10.1289 58.7273 6.6 54.75 6.6ZM50.8548 20.4537C51.3674 21.0049 52.1155 21.45 53.3761 21.45C55.3419 21.45 56.6667 19.3301 56.6667 16.4893C56.6667 13.7122 55.3205 11.55 53.3761 11.55C52.1581 11.55 51.3889 11.9739 50.8333 12.5886L50.8548 20.4537ZM80 16.5763C80 11 77.2184 6.6 71.9023 6.6C66.5635 6.6 63.3333 11.0002 63.3333 16.5328C63.3333 23.0891 67.1469 26.4 72.6199 26.4C75.2894 26.4 77.3082 25.8119 78.8335 24.9842V20.6277C77.3083 21.3684 75.5586 21.8258 73.3379 21.8258C71.162 21.8258 69.2329 21.0852 68.9862 18.5149H79.9552C79.9552 18.3949 79.9632 18.1224 79.9725 17.8084L79.9725 17.8076C79.9851 17.3807 80 16.8773 80 16.5763ZM72.1512 11.55C70.7268 11.55 69.1667 12.5194 69.1667 14.85H75C75 12.5194 73.5303 11.55 72.1512 11.55Z" fill="#A2DFFF"/>
</svg>
