<svg width="102" height="29" viewBox="0 0 102 29" fill="none" xmlns="http://www.w3.org/2000/svg">
<mask id="mask0" mask-type="alpha" maskUnits="userSpaceOnUse" x="3" y="0" width="23" height="29">
<path fill-rule="evenodd" clip-rule="evenodd" d="M3.3374 28.9864H25.0163V0.929565H3.3374V28.9864Z" fill="white"/>
</mask>
<g mask="url(#mask0)">
<path d="M18.3767 2.65807C17.9459 1.34456 16.5219 0.625771 15.1961 1.05272C13.8701 1.47943 13.1445 2.89007 13.5755 4.20336L20.1026 24.0964C20.5508 25.3234 21.8888 26.013 23.1733 25.6468C24.513 25.2647 25.3297 23.8552 24.9021 22.5518C24.8859 22.5021 18.3767 2.65807 18.3767 2.65807Z" fill="#1C1C1C"/>
</g>
<mask id="mask1" mask-type="alpha" maskUnits="userSpaceOnUse" x="3" y="0" width="23" height="29">
<path fill-rule="evenodd" clip-rule="evenodd" d="M3.3374 28.9864H25.0163V0.929565H3.3374V28.9864Z" fill="white"/>
</mask>
<g mask="url(#mask1)">
<path d="M8.26316 5.91321C7.83216 4.59993 6.40811 3.88114 5.08234 4.30786C3.75634 4.73457 3.03072 6.14521 3.46172 7.45873L9.98879 27.3518C10.437 28.5788 11.7751 29.2683 13.0595 28.9019C14.3992 28.5201 15.2159 27.1106 14.7884 25.807C14.7721 25.7575 8.26316 5.91321 8.26316 5.91321Z" fill="#7C2EB9"/>
</g>
<path d="M26.5925 19.1335C27.9185 18.7068 28.6439 17.2962 28.2131 15.9827C27.7823 14.6694 26.3583 13.9506 25.0325 14.3773L4.95036 20.8432C3.71172 21.2869 3.01561 22.6124 3.38528 23.8847C3.77097 25.2118 5.19386 26.0208 6.50964 25.5973C6.55982 25.5812 26.5925 19.1335 26.5925 19.1335Z" fill="#33BC41"/>
<path d="M9.13584 24.7522C10.443 24.3314 12.1278 23.7892 13.9356 23.2073C13.5109 21.9125 12.9635 20.2434 12.3759 18.4523L7.57587 19.9978L9.13584 24.7522Z" fill="#1C1C1C"/>
<path d="M19.2497 21.4969C21.0643 20.913 22.7509 20.37 24.0495 19.952C23.6247 18.6572 23.0771 16.9876 22.4895 15.196L17.6895 16.7416L19.2497 21.4969Z" fill="#1C1C1C"/>
<path d="M23.3064 9.11499C24.6322 8.68827 25.3578 7.27763 24.927 5.96412C24.4962 4.65083 23.0722 3.93204 21.7462 4.35876L1.66404 10.8246C0.425402 11.2684 -0.270707 12.5938 0.0991881 13.8662C0.48465 15.1933 1.90754 16.0023 3.22355 15.5788C3.2735 15.5627 23.3064 9.11499 23.3064 9.11499Z" fill="#F2A851"/>
<path d="M5.84884 14.7339C7.15602 14.3131 8.84123 13.7706 10.6493 13.1888C10.0599 11.391 9.51178 9.7203 9.08984 8.43372L4.28864 9.97946L5.84884 14.7339Z" fill="#1C1C1C"/>
<path d="M15.9624 11.4787C17.7775 10.8945 19.4643 10.3516 20.7631 9.93337C20.1734 8.13537 19.6253 6.46419 19.2031 5.17737L14.4022 6.72311L15.9624 11.4787Z" fill="#1C1C1C"/>
<path d="M46.963 7.89439C47.8512 8.27829 47.9158 8.56622 47.2214 9.87789C46.5111 11.2216 46.3333 11.3014 45.4613 10.9495C44.3633 10.4857 42.9583 10.1338 42.054 10.1338C40.5686 10.1338 39.5834 10.6616 39.5834 11.4614C39.5834 14.1008 48.0936 12.6771 48.0936 18.3077C48.0936 21.1391 45.6388 23.0266 41.9573 23.0266C40.0196 23.0266 37.6294 22.3868 35.9823 21.555C35.1589 21.1391 35.1105 20.899 35.8208 19.5554C36.4347 18.3717 36.6282 18.2437 37.5165 18.6117C38.9213 19.2196 40.6978 19.6833 41.8927 19.6833C43.2492 19.6833 44.1535 19.1395 44.1535 18.3397C44.1535 15.7803 35.4981 16.996 35.4981 11.5415C35.4981 8.64608 37.9363 6.71045 41.5858 6.71045C43.2975 6.71045 45.4613 7.22232 46.963 7.89439Z" fill="#1C1C1C"/>
<path d="M53.8267 1.20787V22.1949C53.8267 22.5148 53.4875 22.8506 53.0033 22.8506H50.7746C50.2902 22.8506 49.9509 22.5148 49.9509 22.1949V1.20787C49.9509 0.168242 50.2418 0.0722656 51.8889 0.0722656C53.7621 0.0722656 53.8267 0.200234 53.8267 1.20787Z" fill="#1C1C1C"/>
<path fill-rule="evenodd" clip-rule="evenodd" d="M69.6678 22.0508V13.0131C69.6678 9.0461 66.9387 6.71045 62.595 6.71045C60.6572 6.71045 58.5579 7.35029 57.0077 8.34227C56.2003 8.85415 56.168 9.09397 57.0077 10.3578C57.8635 11.6213 58.0572 11.6533 58.8486 11.2054C59.8821 10.6137 61.1739 10.1978 62.2237 10.1978C64.4681 10.1978 65.7923 11.1896 65.7923 12.8532V13.8928C64.7265 13.461 63.4186 13.2051 61.9813 13.2051C58.2027 13.2209 55.6836 15.2526 55.6836 18.2757C55.6836 21.123 57.912 23.0266 61.2385 23.0266C62.9502 23.0266 64.6619 22.3387 65.8569 21.027L65.8246 22.0029C65.7923 22.4986 66.1475 22.8667 66.648 22.8667H68.8444C69.3288 22.8667 69.6678 22.5306 69.6678 22.0508ZM61.7069 20.0353C60.3182 20.0353 59.3976 19.3156 59.3976 18.2437C59.3976 16.9161 60.7864 15.9403 62.8533 15.9403C63.8222 15.9403 64.904 16.1322 65.7923 16.4683V17.8759C64.904 19.2355 63.3863 20.0353 61.7069 20.0353Z" fill="#1C1C1C"/>
<path d="M84.7833 7.92638C85.5905 8.39015 85.623 8.64608 84.7348 10.0059C83.8953 11.2855 83.7498 11.3654 82.8618 10.9175C82.1834 10.5656 81.1016 10.2618 80.2133 10.2618C77.4198 10.2618 75.5627 12.0853 75.5627 14.8367C75.5627 17.6998 77.4198 19.6194 80.2133 19.6194C81.1824 19.6194 82.3934 19.2516 83.1845 18.8196C83.9919 18.3558 84.1697 18.3878 85.0254 19.6194C85.8005 20.7711 85.7845 21.0431 85.09 21.523C83.8467 22.3707 81.8767 23.0266 80.1489 23.0266C74.9816 23.0266 71.5256 19.7473 71.5256 14.8367C71.5256 9.95776 74.9816 6.71045 80.181 6.71045C81.7635 6.71045 83.6207 7.23843 84.7833 7.92638Z" fill="#1C1C1C"/>
<path d="M101.642 20.8671C102.288 21.683 102.03 21.9709 100.415 22.5468C98.768 23.1385 98.5419 23.1066 97.9608 22.3549L93.3423 16.2444L91.2753 18.2279V22.1949C91.2753 22.5148 90.9363 22.8506 90.4519 22.8506H88.2234C87.739 22.8506 87.3998 22.5148 87.3998 22.1949V1.20787C87.3998 0.168242 87.6904 0.0722656 89.3375 0.0722656C91.2107 0.0722656 91.2753 0.200234 91.2753 1.20787V13.1411L97.6054 7.12663C98.2998 6.47068 98.6874 6.51878 99.9307 7.33446C101.303 8.21436 101.4 8.45419 100.738 9.09403L96.0228 13.6369L101.642 20.8671Z" fill="#1C1C1C"/>
</svg>
