<svg width="70" height="25" viewBox="0 0 70 25" fill="none" xmlns="http://www.w3.org/2000/svg">
<path d="M7.72152 24.9898C5.63581 24.9068 3.92939 24.3349 2.5951 23.2727C2.34046 23.0697 1.73368 22.4613 1.5301 22.2047C0.989034 21.5229 0.621178 20.8594 0.375821 20.1232C-0.379178 17.857 0.00939274 14.8833 1.48725 11.6197C2.7526 8.82563 4.7051 6.05447 8.11152 2.21643C8.61331 1.65167 10.1076 0 10.1172 0C10.1208 0 10.0394 0.141368 9.93688 0.313514C9.05116 1.8002 8.29331 3.55137 7.88045 5.0674C7.21724 7.49999 7.29724 9.58758 8.11474 11.2063C8.67867 12.3215 9.64545 13.2875 10.7326 13.8214C12.6358 14.7559 15.4222 14.8332 18.8251 14.0476C19.0594 13.9932 30.6686 10.905 44.6236 7.18469C58.5786 3.46404 69.9982 0.422313 70 0.424818C70.0039 0.428039 37.5786 14.3322 20.7461 21.5455C18.0804 22.6875 17.3676 22.976 16.1144 23.4169C12.9108 24.5443 10.0412 25.0822 7.72152 24.9898Z" fill="#1C1C1C"/>
</svg>
