<svg width="104" height="33" viewBox="0 0 104 33" fill="none" xmlns="http://www.w3.org/2000/svg">
<path fill-rule="evenodd" clip-rule="evenodd" d="M29.5677 22.4724L29.5679 22.473C29.622 22.6052 29.6761 22.7374 29.7301 22.8661C30.1525 24.0577 30.2825 25.1849 30.0225 26.3121C29.6652 28.6953 28.0732 30.7565 25.799 31.6583C24.9867 32.0125 24.0771 32.1736 23.1674 32.1736C22.9075 32.1736 22.5826 32.1414 22.3227 32.1091C21.2505 31.9803 20.1459 31.6261 19.0738 31.0142C17.7742 30.2734 16.4746 29.2106 15.0451 27.6648C13.6156 29.2106 12.3485 30.2734 11.0165 31.0142C9.94434 31.6261 8.83972 31.9803 7.76758 32.1091C7.50767 32.1414 7.18278 32.1736 6.92286 32.1736C6.01317 32.1736 5.13597 32.0125 4.29126 31.6583C2.04951 30.7565 0.425064 28.7275 0.0676854 26.3121C-0.0947596 25.1527 0.0351964 24.0255 0.457553 22.8339C0.619998 22.4152 0.782443 22.0287 0.944888 21.6745C1.06337 21.4102 1.18185 21.1526 1.29726 20.9018L1.29737 20.9015C1.43508 20.6022 1.56842 20.3123 1.69214 20.032L1.72462 19.9676C3.96637 15.1367 6.40304 10.2414 8.90469 5.41057L9.00216 5.21733C9.26204 4.7343 9.52192 4.21908 9.78181 3.70384L9.7819 3.70366C10.1068 3.12396 10.4642 2.51205 10.9515 1.93235C12.0236 0.708527 13.4856 0 15.1101 0C16.7021 0 18.1965 0.708527 19.2362 1.99676C19.7155 2.53133 20.0291 3.09329 20.3298 3.63212L20.3298 3.63214L20.4058 3.76807L20.4059 3.76826C20.6658 4.28349 20.9257 4.79872 21.1855 5.28175L21.283 5.47498C23.8171 10.3058 26.2213 15.2011 28.4631 20.032L28.4956 20.0642C28.6193 20.3445 28.7526 20.6344 28.8903 20.9338C29.0058 21.1847 29.1243 21.4423 29.2428 21.7067C29.3511 21.9429 29.4594 22.2077 29.5677 22.4724ZM54.8117 8.08365C54.8117 9.24305 53.8695 10.177 52.6999 10.177C51.5303 10.177 50.5881 9.24305 50.5881 8.08365C50.5881 6.92424 51.4978 5.99027 52.6999 5.99027C53.902 6.02248 54.8117 6.95644 54.8117 8.08365ZM46.1046 12.3026V12.8179C46.1046 12.8179 45.0974 11.5297 42.9532 11.5297C39.4119 11.5297 36.6503 14.2027 36.6503 17.9064C36.6503 21.5779 39.3794 24.2831 42.9532 24.2831C45.1299 24.2831 46.1046 22.9627 46.1046 22.9627V23.5102C46.1046 23.7679 46.2995 23.9611 46.5594 23.9611H49.1911V11.8517H46.5594C46.2995 11.8517 46.1046 12.0772 46.1046 12.3026ZM43.473 21.3846C44.6426 21.3846 45.6173 20.7727 46.1046 20.0642V15.7486C45.6498 15.0723 44.6101 14.4282 43.473 14.4282C41.3937 14.4282 39.8017 15.7164 39.8017 17.9064C39.8017 20.0964 41.3937 21.3846 43.473 21.3846ZM94.5782 12.8179C94.5782 12.8179 95.5854 11.5297 97.7296 11.5297C101.238 11.5297 104 14.2349 104 17.9064C104 21.5779 101.238 24.2831 97.6971 24.2831C95.5529 24.2831 94.5457 22.9627 94.5457 22.9627V23.5102C94.5457 23.7356 94.3508 23.9611 94.0909 23.9611H91.4592V6.02248H94.5782V12.8179ZM97.2098 21.3524C96.0077 21.3524 95.0655 20.7405 94.5782 20.032V15.7164C95.0655 15.0723 96.1052 14.396 97.2098 14.396C99.2891 14.396 100.881 15.6842 100.881 17.8742C100.881 20.0642 99.2891 21.3524 97.2098 21.3524ZM89.8348 23.9933V16.7792C89.8348 14.7502 89.4124 13.5908 88.3078 12.6891C87.3981 11.9161 86.261 11.5297 84.8965 11.5297C83.6944 11.5297 82.4923 11.8839 81.5826 12.8179V12.3026C81.5826 12.0772 81.3876 11.8517 81.1277 11.8517H78.6586V23.9611H81.7775V15.5232C82.3948 14.8147 83.3695 14.3316 84.3117 14.3316C86.0661 14.3316 86.7159 15.1367 86.7159 17.1335V23.9933H89.8348ZM51.1404 11.8517H54.2593V23.9611H51.1404V11.8517ZM71.0886 11.5297C68.9444 11.5297 67.9372 12.8179 67.9372 12.8179V6.02248H64.8183V23.9611H67.4499C67.7098 23.9611 67.9047 23.7356 67.9047 23.5102V22.9627C67.9047 22.9627 68.9119 24.2831 71.0562 24.2831C74.5975 24.2831 77.359 21.5779 77.359 17.9064C77.3915 14.2349 74.6299 11.5297 71.0886 11.5297ZM67.9372 20.032C68.4245 20.7405 69.3667 21.3524 70.5688 21.3524C72.6481 21.3524 74.2401 20.0642 74.2401 17.8742C74.2401 15.6842 72.6481 14.396 70.5688 14.396C69.4642 14.396 68.4245 15.0723 67.9372 15.7164V20.032ZM62.1217 11.5297C63.0639 11.5297 63.5512 11.6907 63.5512 11.6907V14.557C63.5512 14.557 60.9521 13.6875 59.3276 15.5232V23.9933H56.2087V11.8517H58.8403C59.1002 11.8517 59.2951 12.0772 59.2951 12.3026V12.8179C59.8799 12.1416 61.147 11.5297 62.1217 11.5297ZM15.0776 24.5408C13.3232 22.3508 12.1861 20.2896 11.7962 18.5505C11.6338 17.8098 11.6013 17.1657 11.6987 16.586C11.7637 16.0707 11.9587 15.6198 12.2186 15.2333C12.8359 14.3638 13.8755 13.8163 15.0776 13.8163C16.2797 13.8163 17.3518 14.3316 17.9366 15.2333C18.1965 15.6198 18.3915 16.0707 18.4565 16.586C18.5539 17.1657 18.5214 17.842 18.359 18.5505C17.9691 20.2574 16.832 22.3186 15.0776 24.5408ZM25.0842 29.8225C26.6762 29.1784 27.8133 27.7292 28.0407 26.0545C28.1707 25.2171 28.0732 24.412 27.8133 23.5746C27.7456 23.3508 27.6464 23.127 27.5378 22.8816C27.49 22.7738 27.4405 22.6619 27.3909 22.544C27.261 22.2864 27.1391 22.0126 27.0173 21.7389C26.8955 21.4651 26.7736 21.1914 26.6437 20.9337V20.9015C24.4019 16.1029 21.9978 11.2076 19.5286 6.40895L19.4311 6.21571C19.3012 5.97417 19.1712 5.72457 19.0413 5.47497C18.9113 5.22538 18.7813 4.97579 18.6514 4.73425C18.3915 4.21896 18.0991 3.73587 17.7417 3.31719C17.0594 2.54426 16.1497 2.12558 15.1426 2.12558C14.1354 2.12558 13.2257 2.54426 12.5435 3.31719C12.1861 3.73587 11.8937 4.21896 11.6338 4.73425C11.5038 4.9758 11.3739 5.2254 11.2439 5.475C11.1139 5.72459 10.984 5.97417 10.854 6.21571L10.7566 6.40895C8.25491 11.1754 5.85073 16.0707 3.60899 20.8693L3.5765 20.9337C3.31659 21.4812 3.05667 22.0287 2.82925 22.544C2.77969 22.6619 2.73013 22.7738 2.68242 22.8816C2.57374 23.127 2.47463 23.3508 2.40689 23.5746C2.082 24.4764 2.01703 25.2815 2.11449 26.0867C2.34192 27.7614 3.47903 29.2106 5.07099 29.8547C5.81824 30.1446 6.66295 30.2734 7.54016 30.1768C8.35238 30.0802 9.16461 29.8225 10.0093 29.3395C11.1789 28.6953 12.381 27.697 13.7131 26.2155C11.6013 23.6068 10.2692 21.1914 9.7819 19.0658C9.52199 18.0996 9.4895 17.1657 9.61945 16.3283C9.74941 15.5232 10.0418 14.7824 10.4967 14.1383C11.5038 12.7213 13.1932 11.8517 15.0776 11.8517C16.962 11.8517 18.6514 12.6891 19.6586 14.1383C20.1134 14.7824 20.4058 15.5232 20.5358 16.3283C20.6332 17.1657 20.6007 18.0674 20.3733 19.0658C19.886 21.1914 18.5864 23.5746 16.4421 26.1833C17.8067 27.6648 18.9763 28.6631 20.1459 29.3072C20.9906 29.7903 21.8028 30.048 22.6151 30.1446C23.4598 30.2412 24.3045 30.1446 25.0842 29.8225Z" fill="#FF488A"/>
</svg>
