<svg width="38" height="38" viewBox="0 0 38 38" fill="none" xmlns="http://www.w3.org/2000/svg">
<path d="M34.5552 0H3.44479C1.54227 0 0 1.54227 0 3.44479V34.5552C0 36.4577 1.54227 38 3.44479 38H34.5552C36.4577 38 38 36.4577 38 34.5552V3.44479C38 1.54227 36.4577 0 34.5552 0Z" fill="#FF3AA5"/>
<path fill-rule="evenodd" clip-rule="evenodd" d="M15.1046 9.37734C15.1046 10.6868 14.0537 11.6859 12.7992 11.6859C11.5447 11.6859 10.494 10.6867 10.494 9.37734C10.494 8.06878 11.5447 7.06982 12.7992 7.06982C14.0537 7.06982 15.1046 8.06878 15.1046 9.37734ZM7.8156 25.7806C7.8156 25.2647 7.88356 24.6323 8.01904 24.0466H8.01919L9.74794 16.8696H7.06982L7.88356 13.8192H14.3251L11.7821 24.0685C11.6126 24.7235 11.5448 25.2668 11.5448 25.645C11.5448 26.3005 11.8623 26.4921 12.3588 26.6059C12.6612 26.6747 15.0704 26.6266 16.382 23.664L18.0522 16.8696H15.3399L16.1536 13.8192H21.9506L21.205 17.2824C22.2219 15.3529 24.2562 13.5196 26.2564 13.5196C28.3921 13.5196 30.1552 15.0658 30.1552 18.0283C30.1552 18.786 30.0534 19.6106 29.7823 20.5405L28.6971 24.5006C28.5957 24.9149 28.5276 25.259 28.5276 25.5691C28.5276 26.2577 28.7989 26.6019 29.3074 26.6019C29.816 26.6019 30.4602 26.2222 31.2062 24.122L32.6977 24.707C31.8162 27.842 30.2229 29.1504 28.2226 29.1504C25.8833 29.1504 24.7648 27.7389 24.7648 25.8092C24.7648 25.2584 24.8323 24.6724 25.0019 24.0868L26.1207 20.0219C26.2564 19.5739 26.2903 19.1609 26.2903 18.7818C26.2903 17.4732 25.5106 16.6805 24.2562 16.6805C22.6627 16.6805 21.6117 17.8427 21.0692 20.0818L18.8993 28.9253H15.1025L15.7841 26.1462C14.668 28.0092 13.1179 29.1628 11.2059 29.1628C8.90044 29.1628 7.8156 27.8134 7.8156 25.7806Z" fill="white"/>
</svg>
