<svg width="124" height="24" viewBox="0 0 124 24" fill="none" xmlns="http://www.w3.org/2000/svg">
<path fill-rule="evenodd" clip-rule="evenodd" d="M14.3901 4.5L7.19506 9L14.3901 13.5L7.19506 18L0 13.4625L7.19506 8.9625L0 4.5L7.19506 0L14.3901 4.5ZM14.3901 4.5L21.5469 0L28.742 4.5L21.5469 9L28.742 13.5L21.5469 18L14.3901 13.4625L21.5852 8.9625L14.3901 4.5ZM7.15679 19.425L14.3519 14.925L21.5469 19.425L14.3519 23.925L7.15679 19.425Z" fill="#4080FE"/>
<path fill-rule="evenodd" clip-rule="evenodd" d="M88.1013 19.425L88.3692 17.2125C89.0198 18.7875 90.3593 19.725 92.4259 19.7625C95.5642 19.7625 97.6309 17.475 97.6309 13.4625V13.0875C97.6309 9.07505 95.4494 7.08755 92.5025 7.05005C90.5506 7.05005 89.1729 7.91255 88.484 9.48755V3.30005H85.3457V19.425H88.1013ZM40.1852 4.50005H34.3679V19.425H40.3C44.0889 19.425 46.9593 17.25 46.9593 12.4125V11.4C46.9593 6.60005 43.8975 4.50005 40.1852 4.50005ZM37.621 16.6875V7.20005H39.9938C42.1371 7.20005 43.6296 8.55005 43.6296 11.55V12.3375C43.6296 15.3375 42.2136 16.6875 40.1087 16.6875H37.621ZM48.7198 7.35005H51.284L51.705 10.1625C52.2025 8.25005 53.4655 7.23755 55.7617 7.23755H56.5655V10.4625H55.2259C52.5852 10.4625 51.9346 11.3625 51.9346 13.9125V19.4625H48.7198V7.35005ZM57.2161 13.3125V13.65C57.2161 17.625 59.4741 19.725 63.4543 19.7625C67.205 19.7625 69.6926 17.625 69.6926 13.65V13.3125C69.6926 9.26255 67.1284 7.05005 63.4543 7.05005C59.8568 7.05005 57.2161 9.26255 57.2161 13.3125ZM66.4013 13.6125V13.3125C66.4013 11.0625 65.2531 9.71255 63.4161 9.71255C61.6173 9.71255 60.4309 10.95 60.4309 13.3125V13.6125C60.4309 15.7875 61.579 17.025 63.4161 17.025C65.2531 16.9875 66.4013 15.7875 66.4013 13.6125ZM74.0556 7.35005H71.3766L71.3383 23.625H74.4766V17.5125C75.1272 18.9 76.4667 19.7625 78.4185 19.7625C81.3272 19.7625 83.6235 17.6625 83.6235 13.6875V13.35C83.6235 9.26255 81.5568 7.05005 78.4185 7.05005C76.3901 7.05005 75.0124 8.10005 74.3617 9.63755L74.0556 7.35005ZM80.3704 13.6125V13.35C80.3704 10.95 79.1074 9.75005 77.4235 9.75005C75.6247 9.75005 74.4383 11.1 74.4383 13.35V13.575C74.4383 15.7125 75.5864 17.0625 77.3852 17.0625C79.2222 17.025 80.3704 15.8625 80.3704 13.6125ZM94.3395 13.4625V13.1625C94.3395 10.95 93.1148 9.71255 91.3926 9.71255C89.6321 9.71255 88.4074 11.1 88.4074 13.2V13.4625C88.4074 15.7125 89.5938 17.025 91.3543 17.025C93.2296 17.025 94.3395 15.8625 94.3395 13.4625ZM99.0087 13.3125V13.65C99.0087 17.625 101.267 19.725 105.247 19.7625C108.959 19.7625 111.485 17.625 111.485 13.65V13.3125C111.485 9.26255 108.921 7.05005 105.247 7.05005C101.649 7.05005 99.0087 9.26255 99.0087 13.3125ZM108.232 13.3125C108.232 11.0625 107.084 9.71255 105.247 9.71255C103.448 9.71255 102.262 10.95 102.262 13.3125V13.6125C102.262 15.7875 103.41 17.025 105.247 17.025C107.084 16.9875 108.232 15.7875 108.232 13.6125V13.3125ZM111.37 7.35005L115.695 13.1625L110.988 19.425H114.777L117.532 15.4125L120.364 19.425H124L119.369 13.125L123.77 7.35005H120.096L117.57 10.9875L115.083 7.35005H111.37Z" fill="#4080FE"/>
</svg>
