<svg width="40" height="40" viewBox="0 0 40 40" fill="none" xmlns="http://www.w3.org/2000/svg">
<path d="M0.585938 28.9843C0.585938 29.6288 1.11328 30.1562 1.75781 30.1562H35.8984C36.543 30.1562 37.0703 29.6288 37.0703 28.9843V28.5937L20 26.019L0.585938 27.8124V28.9843Z" fill="#A2DFFF"/>
<path d="M2.14844 2.8125H1.75781C1.11328 2.8125 0.585938 3.33984 0.585938 3.98437V7.57812L20 9.37156L2.14844 2.8125Z" fill="#A2DFFF"/>
<path d="M2.14844 7.7225L20 9.37156L37.0703 7.57812V3.98437C37.0703 3.33984 36.543 2.8125 35.8984 2.8125H2.14844V7.7225Z" fill="#A2DFFF"/>
<path d="M2.21719 27.8125H0.585938V7.57812H2.14844L2.21719 27.8125Z" fill="#E9EDF1"/>
<path d="M2.17444 27.6657C2.28749 28.1941 2.75928 28.5937 3.32022 28.5937H37.0702V27.8124L19.9999 26.019L2.17444 27.6657Z" fill="#A2DFFF"/>
<path d="M2.14844 27.4219C2.14844 27.5589 2.17352 27.69 2.21719 27.8125H37.0703V7.57812H2.14844V27.4219Z" fill="#F7F9FA"/>
<path d="M22.7413 11.4062H22.3506C21.7061 11.4062 21.1788 11.9336 21.1788 12.5781V27.8125H30.078L22.7413 11.4062Z" fill="#E9EDF1"/>
<path d="M34.7441 7.57812H37.0527V27.8125H34.7441V7.57812Z" fill="#E9EDF1"/>
<path d="M23.5228 13.0463L21.179 12.2656H5.14935C4.50482 12.2656 3.97748 12.793 3.97748 13.4375V18.75C3.97748 19.3945 4.50482 19.9219 5.14935 19.9219H21.179L23.5228 19.1412V13.0463Z" fill="#A2DFFF"/>
<path d="M21.1788 12.2656H24.3038V19.9219H21.1788V12.2656Z" fill="#A2DFFF"/>
<path d="M22.7413 36.0155C22.7413 36.6601 23.2686 37.1874 23.9131 37.1874H38.1639C38.8085 37.1874 39.3358 36.6601 39.3358 36.0155V35.6249L30.8592 33.0502L22.7413 34.8437V36.0155Z" fill="#A2DFFF"/>
<path d="M24.3038 9.84375H23.9131C23.2686 9.84375 22.7413 10.3711 22.7413 11.0156V12.2656L31.6405 14.0591L24.3038 9.84375Z" fill="#A2DFFF"/>
<path d="M24.3038 12.2656L31.6405 14.0591L39.3358 12.2656V11.0156C39.3358 10.3711 38.8085 9.84375 38.1639 9.84375H24.3038V12.2656Z" fill="#A2DFFF"/>
<path d="M24.3725 34.8438H22.7413V12.2656H24.3038L24.3725 34.8438Z" fill="#E9EDF1"/>
<path d="M24.3301 34.697C24.4431 35.2254 24.9149 35.6249 25.4759 35.6249H39.336V34.8437L30.8595 33.0502L24.3301 34.697Z" fill="#A2DFFF"/>
<path d="M24.3038 34.4531C24.3038 34.5902 24.3289 34.7213 24.3725 34.8438H39.3358V12.2656H24.3038V34.4531Z" fill="#F7F9FA"/>
<path d="M31.0776 30.1561C34.3872 30.1561 37.0702 27.4732 37.0702 24.1635C37.0702 20.8539 34.3872 18.171 31.0776 18.171C27.768 18.171 25.085 20.8539 25.085 24.1635C25.085 27.4732 27.768 30.1561 31.0776 30.1561Z" fill="#A2DFFF"/>
<path d="M35.9744 20.7114L30.1708 26.515L27.3467 23.6908C27.1178 23.462 26.7468 23.4619 26.518 23.6908C26.2892 23.9196 26.2892 24.2906 26.518 24.5194L29.7565 27.758C29.8664 27.8679 30.0154 27.9296 30.1709 27.9296C30.3264 27.9296 30.4753 27.8679 30.5853 27.758L36.5723 21.771C36.4087 21.3962 36.2077 21.0417 35.9744 20.7114Z" fill="#A2DFFF"/>
<path d="M38.2422 37.7734H23.9133C22.944 37.7734 22.1555 36.9848 22.1555 36.0156V30.7422H1.75781C0.788516 30.7422 0 29.9536 0 28.9844V9.92188C0 9.5982 0.262344 9.33594 0.585938 9.33594C0.909531 9.33594 1.17188 9.5982 1.17188 9.92188V27.2266H20.3977C20.7213 27.2266 20.9836 27.4888 20.9836 27.8125C20.9836 28.1362 20.7213 28.3984 20.3977 28.3984H1.17188V28.9844C1.17188 29.3075 1.43469 29.5703 1.75781 29.5703H22.1555V20.5078H5.14922C4.17992 20.5078 3.39141 19.7192 3.39141 18.75V13.4375C3.39141 12.4683 4.17992 11.6797 5.14922 11.6797H20.3977C20.7213 11.6797 20.9836 11.942 20.9836 12.2656C20.9836 12.5893 20.7213 12.8516 20.3977 12.8516H5.14922C4.82617 12.8516 4.56328 13.1144 4.56328 13.4375V18.75C4.56328 19.0731 4.82617 19.3359 5.14922 19.3359H22.1555V11.0938C22.1555 10.1245 22.944 9.33594 23.9133 9.33594H34.1406V8.16406H0.585938C0.262344 8.16406 0 7.9018 0 7.57812V3.98438C0 3.01516 0.788516 2.22656 1.75781 2.22656H27.6172C27.9408 2.22656 28.2031 2.48883 28.2031 2.8125C28.2031 3.13617 27.9408 3.39844 27.6172 3.39844H1.75781C1.43469 3.39844 1.17188 3.66125 1.17188 3.98438V6.99219H36.4844V3.98438C36.4844 3.66125 36.2216 3.39844 35.8984 3.39844H29.9609C29.6373 3.39844 29.375 3.13617 29.375 2.8125C29.375 2.48883 29.6373 2.22656 29.9609 2.22656H35.8984C36.8677 2.22656 37.6562 3.01516 37.6562 3.98438V9.33594H38.2422C39.2115 9.33594 40 10.1245 40 11.0938V36.0156C40 36.9848 39.2115 37.7734 38.2422 37.7734ZM23.3273 35.4297V36.0156C23.3273 36.3387 23.5902 36.6016 23.9133 36.6016H38.2422C38.5653 36.6016 38.8281 36.3387 38.8281 36.0156V35.4297H23.3273ZM23.3273 34.2578H38.8281V12.8516H23.3273V34.2578ZM23.3273 11.6797H38.8281V11.0938C38.8281 10.7706 38.5653 10.5078 38.2422 10.5078H23.9133C23.5902 10.5078 23.3273 10.7706 23.3273 11.0938V11.6797ZM35.3125 9.33594H36.4844V8.16406H35.3125V9.33594ZM31.0777 30.7422C27.4503 30.7422 24.4992 27.7911 24.4992 24.1637C24.4992 20.5363 27.4503 17.5852 31.0777 17.5852C32.3246 17.5852 33.5384 17.9357 34.5878 18.599C34.8613 18.7719 34.943 19.1338 34.7701 19.4073C34.5973 19.6809 34.2354 19.7626 33.9617 19.5896C33.0999 19.0449 32.1027 18.7571 31.0777 18.7571C28.0965 18.7571 25.6711 21.1825 25.6711 24.1637C25.6711 27.145 28.0965 29.5704 31.0777 29.5704C34.059 29.5704 36.4844 27.1449 36.4844 24.1637C36.4844 23.3045 36.2841 22.4707 35.9006 21.7169L31.0266 26.5909C30.7977 26.8197 30.4267 26.8197 30.198 26.5909L27.3291 23.7221C27.1003 23.4932 27.1003 23.1223 27.3291 22.8934C27.558 22.6647 27.929 22.6647 28.1577 22.8934L30.6123 25.348L35.598 20.3623C35.6013 20.3587 35.6048 20.3553 35.6084 20.3519L36.6559 19.3043C36.8848 19.0755 37.2558 19.0755 37.4845 19.3043C37.7134 19.5332 37.7134 19.9041 37.4845 20.133L36.7639 20.8536C37.349 21.8559 37.6561 22.9905 37.6561 24.1637C37.6562 27.7911 34.7052 30.7422 31.0777 30.7422ZM18.2672 25.3047C18.1173 25.3047 17.9673 25.2475 17.8529 25.1331C17.6241 24.9042 17.6241 24.5333 17.8529 24.3045L18.1339 24.0234H11.2437C10.9202 24.0234 10.6578 23.7612 10.6578 23.4375C10.6578 23.1138 10.9202 22.8516 11.2437 22.8516H18.1339L17.8529 22.5705C17.6241 22.3416 17.6241 21.9707 17.8529 21.7419C18.0817 21.5131 18.4527 21.5131 18.6815 21.7419L19.9627 23.0231C20.1916 23.252 20.1916 23.623 19.9627 23.8518L18.6815 25.133C18.5671 25.2475 18.4171 25.3047 18.2672 25.3047ZM18.8281 18.3246C18.5045 18.3246 18.2422 18.0623 18.2422 17.7387V17.1087L17.6966 17.4237C17.4164 17.5853 17.058 17.4895 16.8962 17.2092C16.7345 16.929 16.8305 16.5706 17.1107 16.4088L17.6562 16.0938L17.1107 15.7788C16.8305 15.617 16.7345 15.2586 16.8962 14.9784C17.058 14.698 17.4163 14.6022 17.6966 14.7639L18.2422 15.0789V14.4489C18.2422 14.1252 18.5045 13.863 18.8281 13.863C19.1517 13.863 19.4141 14.1252 19.4141 14.4489V15.0789L19.9596 14.7639C20.2398 14.6023 20.5982 14.698 20.76 14.9784C20.9218 15.2586 20.8258 15.617 20.5455 15.7788L20 16.0938L20.5455 16.4087C20.8258 16.5705 20.9218 16.9289 20.76 17.2091C20.5982 17.4895 20.2398 17.5852 19.9596 17.4236L19.4141 17.1086V17.7386C19.4141 18.0623 19.1517 18.3246 18.8281 18.3246ZM13.3594 18.3246C13.0358 18.3246 12.7734 18.0623 12.7734 17.7387V17.1087L12.2279 17.4237C11.9477 17.5853 11.5893 17.4895 11.4275 17.2092C11.2657 16.929 11.3617 16.5706 11.642 16.4088L12.1875 16.0938L11.642 15.7788C11.3617 15.617 11.2657 15.2586 11.4275 14.9784C11.5893 14.698 11.9476 14.6022 12.2279 14.7639L12.7734 15.0789V14.4489C12.7734 14.1252 13.0358 13.863 13.3594 13.863C13.683 13.863 13.9453 14.1252 13.9453 14.4489V15.0789L14.4909 14.7639C14.7711 14.6023 15.1295 14.698 15.2913 14.9784C15.453 15.2586 15.357 15.617 15.0768 15.7788L14.5312 16.0938L15.0768 16.4087C15.357 16.5705 15.453 16.9289 15.2913 17.2091C15.1294 17.4895 14.771 17.5852 14.4909 17.4236L13.9453 17.1086V17.7386C13.9453 18.0623 13.683 18.3246 13.3594 18.3246ZM7.89062 18.3246C7.56703 18.3246 7.30469 18.0623 7.30469 17.7387V17.1087L6.75914 17.4237C6.47891 17.5853 6.12055 17.4895 5.95875 17.2092C5.79695 16.929 5.89297 16.5706 6.1732 16.4088L6.71875 16.0938L6.1732 15.7788C5.89297 15.617 5.79695 15.2586 5.95875 14.9784C6.12047 14.698 6.47883 14.6022 6.75914 14.7639L7.30469 15.0789V14.4489C7.30469 14.1252 7.56703 13.863 7.89062 13.863C8.21422 13.863 8.47656 14.1252 8.47656 14.4489V15.0789L9.02211 14.7639C9.30234 14.6023 9.6607 14.698 9.8225 14.9784C9.9843 15.2586 9.88828 15.617 9.60805 15.7788L9.0625 16.0938L9.60805 16.4087C9.88828 16.5705 9.9843 16.9289 9.8225 17.2091C9.6607 17.4895 9.30227 17.5852 9.02211 17.4236L8.47656 17.1086V17.7386C8.47656 18.0623 8.21422 18.3246 7.89062 18.3246ZM34.6875 5.82031C34.3429 5.82031 34.0625 5.53992 34.0625 5.19531C34.0625 4.8507 34.3429 4.57031 34.6875 4.57031C35.0321 4.57031 35.3125 4.8507 35.3125 5.19531C35.3125 5.53992 35.0321 5.82031 34.6875 5.82031ZM32.3438 5.82031C31.9991 5.82031 31.7188 5.53992 31.7188 5.19531C31.7188 4.8507 31.9991 4.57031 32.3438 4.57031C32.6884 4.57031 32.9688 4.8507 32.9688 5.19531C32.9688 5.53992 32.6884 5.82031 32.3438 5.82031ZM30 5.82031C29.6554 5.82031 29.375 5.53992 29.375 5.19531C29.375 4.8507 29.6554 4.57031 30 4.57031C30.3446 4.57031 30.625 4.8507 30.625 5.19531C30.625 5.53992 30.3446 5.82031 30 5.82031Z" fill="#1977CC"/>
</svg>
