<svg width="40" height="40" viewBox="0 0 40 40" fill="none" xmlns="http://www.w3.org/2000/svg">
<g clip-path="url(#clip0)">
<path d="M33.125 27.5C35.1961 27.5 36.875 25.8211 36.875 23.75C36.875 21.6789 35.1961 20 33.125 20C31.0539 20 29.375 21.6789 29.375 23.75C29.375 25.8211 31.0539 27.5 33.125 27.5Z" fill="#A2DFFF"/>
<path d="M26.875 38.125H39.375V33.75C39.375 30.2981 36.5769 27.5 33.125 27.5C29.6731 27.5 26.875 30.2981 26.875 33.75V38.125Z" fill="#A2DFFF"/>
<path d="M0.625 38.125H13.125V33.75C13.125 30.2981 10.3269 27.5 6.875 27.5C3.42313 27.5 0.625 30.2981 0.625 33.75V38.125Z" fill="#A2DFFF"/>
<path d="M6.875 27.5C8.94607 27.5 10.625 25.8211 10.625 23.75C10.625 21.6789 8.94607 20 6.875 20C4.80393 20 3.125 21.6789 3.125 23.75C3.125 25.8211 4.80393 27.5 6.875 27.5Z" fill="#A2DFFF"/>
<path d="M24.375 38.125H11.875V33.75C11.875 30.2981 14.6731 27.5 18.125 27.5C21.5769 27.5 24.375 30.2981 24.375 33.75V38.125Z" fill="white"/>
<path d="M18.125 27.5C20.1961 27.5 21.875 25.8211 21.875 23.75C21.875 21.6789 20.1961 20 18.125 20C16.0539 20 14.375 21.6789 14.375 23.75C14.375 25.8211 16.0539 27.5 18.125 27.5Z" fill="white"/>
<path d="M24.375 12.5H21.875L18.125 16.25V12.5H14.375V1.875H24.375V12.5Z" fill="#EAE8E5"/>
<path d="M38.125 12.5H35.625L33.125 16.875L30.625 12.5H28.125V1.875H38.125V12.5Z" fill="#A2DFFF"/>
<path d="M11.875 12.5H6.875V16.25L3.75 12.5H1.875V1.875H11.875V12.5Z" fill="#A2DFFF"/>
<path d="M18.125 20C16.4931 20 15.1081 21.0444 14.5931 22.5H11.875V23.75H21.875C21.875 21.6788 20.1962 20 18.125 20Z" fill="white"/>
<path d="M35.6188 27.3438C36.7563 26.55 37.5 25.2375 37.5 23.75C37.5 21.3375 35.5375 19.375 33.125 19.375C30.7125 19.375 28.75 21.3375 28.75 23.75C28.75 25.2375 29.4937 26.55 30.6312 27.3438C28.0687 28.3438 26.25 30.8375 26.25 33.75V38.125C26.25 38.4688 26.5312 38.75 26.875 38.75H39.375C39.7188 38.75 40 38.4688 40 38.125V33.75C40 30.8375 38.1813 28.3438 35.6188 27.3438ZM31.8 26.5812C32.5938 26.1562 33.125 25.3313 33.125 24.375H31.875C31.875 25.0625 31.3125 25.625 30.625 25.625C30.2313 25.1062 30 24.4563 30 23.75C30 22.025 31.4 20.625 33.125 20.625C34.85 20.625 36.25 22.025 36.25 23.75C36.25 25.475 34.85 26.875 33.125 26.875C32.65 26.875 32.2 26.7687 31.8 26.5812ZM38.75 37.5H27.5V33.75C27.5 30.65 30.025 28.125 33.125 28.125C36.225 28.125 38.75 30.65 38.75 33.75V37.5Z" fill="#1977CC"/>
<path d="M20.6188 27.3438C21.7563 26.55 22.5 25.2375 22.5 23.75C22.5 21.3375 20.5375 19.375 18.125 19.375C16.1437 19.375 14.4688 20.6937 13.9313 22.5H11.875V23.75H13.75C13.75 25.2375 14.4938 26.55 15.6313 27.3438C14.3562 27.8375 13.2688 28.7062 12.4937 29.8062C11.7188 28.6937 10.6187 27.8375 9.3625 27.35C10.5062 26.5562 11.25 25.2375 11.25 23.75C11.25 21.3375 9.2875 19.375 6.875 19.375C4.4625 19.375 2.5 21.3375 2.5 23.75C2.5 25.2375 3.24375 26.55 4.38125 27.3438C3.5 27.6812 2.7 28.2 2.0125 28.8875C0.7125 30.1875 0 31.9125 0 33.75V38.125C0 38.4688 0.28125 38.75 0.625 38.75H24.375C24.7188 38.75 25 38.4688 25 38.125V33.75C25 30.8375 23.1813 28.3438 20.6188 27.3438ZM3.75 23.75C3.75 22.025 5.15 20.625 6.875 20.625C8.6 20.625 10 22.025 10 23.75C10 24.4563 9.76875 25.1062 9.375 25.625C8.6875 25.625 8.125 25.0625 8.125 24.375H6.875C6.875 25.3313 7.40625 26.1562 8.2 26.5812C7.8 26.7687 7.35 26.875 6.875 26.875C5.15 26.875 3.75 25.475 3.75 23.75ZM11.25 33.75V37.5H1.25V33.75C1.25 32.25 1.8375 30.8375 2.9 29.775C3.9625 28.7125 5.375 28.125 6.875 28.125C8.94375 28.125 10.8125 29.2375 11.8 31.0437C11.45 31.875 11.25 32.7875 11.25 33.75ZM18.125 20.625C19.4062 20.625 20.5063 21.4 20.9937 22.5H15.2563C15.7437 21.4 16.8438 20.625 18.125 20.625ZM15.625 25.625C15.2312 25.1062 15 24.4563 15 23.75H21.25C21.25 25.475 19.85 26.875 18.125 26.875C17.65 26.875 17.2 26.7687 16.8 26.5812C17.5938 26.1562 18.125 25.3313 18.125 24.375H16.875C16.875 25.0625 16.3125 25.625 15.625 25.625ZM23.75 37.5H12.5V33.75C12.5 30.65 15.025 28.125 18.125 28.125C21.225 28.125 23.75 30.65 23.75 33.75V37.5Z" fill="#1977CC"/>
<path d="M32.5 29.375H33.75V30.625H32.5V29.375Z" fill="#1977CC"/>
<path d="M32.5 31.875H33.75V33.125H32.5V31.875Z" fill="#1977CC"/>
<path d="M8.125 29.375V30.625H7.5V34.375H6.25V30.625H5.625V29.375H8.125Z" fill="#1977CC"/>
<path d="M20 8.125H18.75V6.875C18.75 6.58812 18.945 6.33875 19.2231 6.26875L21.25 5.76187V5H17.5V5.625H16.25V4.375C16.25 4.02938 16.53 3.75 16.875 3.75H21.875C22.22 3.75 22.5 4.02938 22.5 4.375V6.25C22.5 6.53688 22.305 6.78625 22.0269 6.85625L20 7.36313V8.125Z" fill="#1977CC"/>
<path d="M18.75 9.375H20V10.625H18.75V9.375Z" fill="#1977CC"/>
<path d="M18.125 16.875C18.0444 16.875 17.9631 16.86 17.8856 16.8275C17.6525 16.7312 17.5 16.5025 17.5 16.25V13.125H14.375C14.03 13.125 13.75 12.8456 13.75 12.5V1.875C13.75 1.52938 14.03 1.25 14.375 1.25H24.375C24.72 1.25 25 1.52938 25 1.875V12.5C25 12.8456 24.72 13.125 24.375 13.125H22.1338L18.5669 16.6919C18.4475 16.8113 18.2875 16.875 18.125 16.875ZM15 11.875H18.125C18.47 11.875 18.75 12.1544 18.75 12.5V14.7413L21.4331 12.0581C21.55 11.9406 21.7094 11.875 21.875 11.875H23.75V2.5H15V11.875Z" fill="#1977CC"/>
<path d="M33.125 17.5C32.9006 17.5 32.6937 17.38 32.5825 17.185L30.2625 13.125H28.125C27.78 13.125 27.5 12.8456 27.5 12.5V1.875C27.5 1.52938 27.78 1.25 28.125 1.25H38.125C38.47 1.25 38.75 1.52938 38.75 1.875V12.5C38.75 12.8456 38.47 13.125 38.125 13.125H35.9875L33.6675 17.185C33.5563 17.38 33.3494 17.5 33.125 17.5ZM28.75 11.875H30.625C30.8494 11.875 31.0563 11.995 31.1675 12.19L33.125 15.615L35.0825 12.19C35.1937 11.995 35.4006 11.875 35.625 11.875H37.5V2.5H28.75V11.875Z" fill="#1977CC"/>
<path d="M6.875 16.875C6.69312 16.875 6.51625 16.7956 6.395 16.6506L3.4575 13.125H1.875C1.53 13.125 1.25 12.8456 1.25 12.5V1.875C1.25 1.52938 1.53 1.25 1.875 1.25H11.875C12.22 1.25 12.5 1.52938 12.5 1.875V12.5C12.5 12.8456 12.22 13.125 11.875 13.125H7.5V16.25C7.5 16.5131 7.335 16.7481 7.0875 16.8375C7.01813 16.8625 6.94625 16.875 6.875 16.875ZM2.5 11.875H3.75C3.93563 11.875 4.11125 11.9575 4.23 12.0994L6.25 14.5238V12.5C6.25 12.1544 6.53 11.875 6.875 11.875H11.25V2.5H2.5V11.875Z" fill="#1977CC"/>
<path d="M5.62486 9.99989C5.46486 9.99989 5.30486 9.93864 5.18298 9.81676L3.30798 7.94176L4.19173 7.05801L5.62486 8.49114L8.93298 5.18301L9.81673 6.06676L6.06673 9.81676C5.94486 9.93864 5.78486 9.99989 5.62486 9.99989Z" fill="#1977CC"/>
<path d="M30.625 5H31.875V6.25H30.625V5Z" fill="#1977CC"/>
<path d="M34.375 5H35.625V6.25H34.375V5Z" fill="#1977CC"/>
<path d="M33.125 10C31.7462 10 30.625 8.87875 30.625 7.5H31.875C31.875 8.18938 32.4356 8.75 33.125 8.75C33.8144 8.75 34.375 8.18938 34.375 7.5H35.625C35.625 8.87875 34.5038 10 33.125 10Z" fill="#1977CC"/>
</g>
<defs>
<clipPath id="clip0">
<rect width="40" height="40" fill="white"/>
</clipPath>
</defs>
</svg>
