<svg width="40" height="40" viewBox="0 0 40 40" fill="none" xmlns="http://www.w3.org/2000/svg">
<path d="M10.625 39.375H37.5C37.845 39.375 38.125 39.095 38.125 38.75V1.25C38.125 0.905 37.845 0.625 37.5 0.625H11.25C10.905 0.625 10.625 0.905 10.625 1.25V39.375Z" fill="#A2DFFF"/>
<path d="M13.125 36.875H28.75L35.625 30.625V4.375H13.125V36.875Z" fill="#FFFEFE"/>
<path d="M17.5 6.875H31.25C31.595 6.875 31.875 6.595 31.875 6.25V0.625H16.875V6.25C16.875 6.595 17.155 6.875 17.5 6.875Z" fill="#A2DFFF"/>
<path d="M28.75 30.625H35.625L28.75 36.875V30.625Z" fill="#EBEBEB"/>
<path d="M17.5 10.625H31.875V20.625H17.5V10.625Z" fill="#A2DFFF"/>
<path d="M20.625 16.875L19.78 21.6631C19.1181 25.4131 17.055 28.7712 14.0081 31.0562L11.25 33.125L8.41062 30.9675C5.40375 28.6831 3.36937 25.3481 2.71313 21.6287L1.875 16.875L11.25 11.875L20.625 16.875Z" fill="#A2DFFF"/>
<path d="M9.92334 28.9767C7.41021 27.0667 5.72396 24.303 5.17584 21.1949L4.65271 18.2267L11.2502 14.708L17.8477 18.2267L17.3183 21.228C16.7646 24.3649 15.0565 27.1442 12.5083 29.0555L11.2596 29.9924L9.92334 28.9767Z" fill="#FDFEFC"/>
<path d="M37.5 0H11.25C10.5606 0 10 0.560625 10 1.25V10H11.25V1.25H16.25V3.75H13.125C12.78 3.75 12.5 4.03 12.5 4.375V10H13.75V5H16.25V6.25C16.25 6.93937 16.8106 7.5 17.5 7.5H31.25C31.9394 7.5 32.5 6.93937 32.5 6.25V5H35V20H36.25V4.375C36.25 4.03 35.97 3.75 35.625 3.75H32.5V1.25H37.5V38.75H11.25V35H10V39.375C10 39.72 10.28 40 10.625 40H37.5C38.1894 40 38.75 39.4394 38.75 38.75V1.25C38.75 0.560625 38.1894 0 37.5 0ZM31.25 6.25H17.5V1.25H31.25V6.25Z" fill="#1977CC"/>
<path d="M36.25 21.25H35V30H28.75C28.405 30 28.125 30.28 28.125 30.625V36.25H13.75V35H12.5V36.875C12.5 37.22 12.78 37.5 13.125 37.5H28.75C28.7787 37.5 28.8075 37.4981 28.8356 37.4944C28.8419 37.4938 28.8481 37.4925 28.8544 37.4912C28.8575 37.4906 28.8606 37.49 28.8644 37.4894C28.8687 37.4888 28.8725 37.4875 28.8762 37.4869C28.8819 37.4856 28.8875 37.485 28.8925 37.4831C28.8944 37.4825 28.8956 37.4825 28.8975 37.4819C28.9144 37.4775 28.9313 37.4731 28.9481 37.4675C28.9488 37.4675 28.9494 37.4669 28.95 37.4669C28.9675 37.4612 28.985 37.4544 29.0019 37.4469C29.0025 37.4469 29.0031 37.4463 29.0031 37.4463C29.02 37.4388 29.0369 37.4306 29.0531 37.4212C29.0538 37.4212 29.0537 37.4206 29.0544 37.4206C29.0619 37.4163 29.07 37.4119 29.0775 37.4069C29.0806 37.405 29.0838 37.4031 29.0869 37.4006C29.0919 37.3975 29.0969 37.3944 29.1019 37.3906C29.1044 37.3888 29.1069 37.3869 29.1094 37.385C29.115 37.3813 29.12 37.3775 29.125 37.3738C29.13 37.37 29.1344 37.3662 29.1394 37.3625C29.1425 37.36 29.145 37.3581 29.1481 37.3556C29.1556 37.3494 29.1631 37.3431 29.1706 37.3363L36.0456 31.0862C36.0562 31.0769 36.0662 31.0669 36.0756 31.0569C36.0781 31.0538 36.0813 31.0512 36.0838 31.0481C36.0919 31.0394 36.1 31.03 36.1075 31.0206C36.1087 31.0187 36.1106 31.0175 36.1119 31.0156C36.1206 31.005 36.1287 30.9938 36.1362 30.9831C36.1388 30.98 36.1406 30.9769 36.1431 30.9731C36.1494 30.9644 36.155 30.955 36.1606 30.9456C36.1625 30.9425 36.1644 30.94 36.1656 30.9369C36.1725 30.925 36.1788 30.9138 36.1844 30.9013C36.1863 30.8981 36.1875 30.8944 36.1894 30.8912C36.1938 30.8819 36.1981 30.8719 36.2025 30.8619C36.2038 30.8581 36.2056 30.855 36.2069 30.8512C36.2119 30.8387 36.2162 30.8256 36.2206 30.8125C36.2212 30.8106 36.2219 30.8088 36.2225 30.8069C36.2263 30.795 36.2294 30.7831 36.2325 30.7713C36.2331 30.7681 36.2338 30.765 36.235 30.7619C36.2413 30.7344 36.2456 30.7069 36.2481 30.6787C36.2481 30.6756 36.2488 30.6719 36.2488 30.6687C36.2494 30.6575 36.25 30.6456 36.2506 30.6337C36.2506 30.6313 36.2506 30.6281 36.2506 30.6256C36.2506 30.6244 36.2506 30.6231 36.2506 30.6219V21.25H36.25ZM29.375 31.25H34.0081L30.9731 34.0094L29.375 35.4619V31.25Z" fill="#1977CC"/>
<path d="M18.75 3.125H20V4.375H18.75V3.125Z" fill="#1977CC"/>
<path d="M28.75 3.125H30V4.375H28.75V3.125Z" fill="#1977CC"/>
<path d="M31.875 10H17.5C17.155 10 16.875 10.28 16.875 10.625V13.125H18.125V11.25H31.25V20H21.875V21.25H31.875C32.22 21.25 32.5 20.97 32.5 20.625V10.625C32.5 10.28 32.22 10 31.875 10Z" fill="#1977CC"/>
<path d="M21.25 23.75H28.125V25H21.25V23.75Z" fill="#1977CC"/>
<path d="M29.375 23.75H33.125V25H29.375V23.75Z" fill="#1977CC"/>
<path d="M19.375 27.5H26.25V28.75H19.375V27.5Z" fill="#1977CC"/>
<path d="M27.5 27.5H33.125V28.75H27.5V27.5Z" fill="#1977CC"/>
<path d="M16.25 31.25H26.875V32.5H16.25V31.25Z" fill="#1977CC"/>
<path d="M21.25 3.125H27.5V4.375H21.25V3.125Z" fill="#1977CC"/>
<path d="M11.2499 33.75C11.3818 33.75 11.5136 33.7088 11.6249 33.625L14.383 31.5563C17.5686 29.1675 19.7036 25.6925 20.3955 21.7719L21.2405 16.9838C21.2874 16.7175 21.158 16.4507 20.9193 16.3238L11.5443 11.3238C11.3605 11.2257 11.1399 11.2257 10.9561 11.3238L1.58113 16.3238C1.34238 16.4513 1.213 16.7175 1.25988 16.9838L2.09801 21.7382C2.78301 25.6238 4.89113 29.0782 8.03301 31.4657L10.8724 33.6232C10.9836 33.7075 11.1168 33.75 11.2499 33.75ZM3.32863 21.5207L2.56926 17.2132L11.2499 12.5832L19.9305 17.2132L19.1643 21.5544C18.528 25.1613 16.5636 28.3582 13.633 30.5563L11.2524 32.3419L8.78864 30.47C5.89801 28.2738 3.95926 25.0957 3.32863 21.5207Z" fill="#1977CC"/>
<path d="M13.647 29.215C16.017 27.4375 17.6051 24.8525 18.1201 21.9356L18.7401 18.4243C18.787 18.1581 18.6576 17.8912 18.4189 17.7643L15.2926 16.0968L14.7045 17.2L17.4308 18.6543L16.8895 21.7187C16.4301 24.3225 15.0126 26.6293 12.8976 28.2162L11.2526 29.45L9.54639 28.1531C7.46014 26.5681 6.06076 24.2743 5.60576 21.6943L5.06889 18.6537L7.79451 17.2L7.20639 16.0968L4.08076 17.7637C3.84201 17.8912 3.71264 18.1575 3.75951 18.4237L4.37389 21.91C4.88389 24.8006 6.45201 27.3712 8.78951 29.1475L10.872 30.7293C10.9839 30.8143 11.117 30.8568 11.2501 30.8568C11.382 30.8568 11.5139 30.8156 11.6251 30.7318L13.647 29.215Z" fill="#1977CC"/>
<path d="M11.2494 15.3576L13.4563 16.5345L14.0444 15.4314L11.5432 14.0976C11.3594 13.9995 11.1388 13.9995 10.9551 14.0976L8.45569 15.4308L9.04381 16.5339L11.2494 15.3576Z" fill="#1977CC"/>
<path d="M10.6011 25.0001H10.6249C10.8049 25.0001 10.9761 24.9226 11.0949 24.787L15.4699 19.787L14.5292 18.9639L10.6618 23.3839L9.24988 21.5001L8.24988 22.2501L10.1249 24.7501C10.238 24.9008 10.413 24.9926 10.6011 25.0001Z" fill="#1977CC"/>
<path d="M10.625 17.5H11.875V18.75H10.625V17.5Z" fill="#1977CC"/>
<path d="M10.625 26.25H11.875V27.5H10.625V26.25Z" fill="#1977CC"/>
</svg>
