<svg width="40" height="40" viewBox="0 0 40 40" fill="none" xmlns="http://www.w3.org/2000/svg">
<path d="M20.625 1.875H3.125C2.43464 1.875 1.875 2.43464 1.875 3.125V36.875C1.875 37.5654 2.43464 38.125 3.125 38.125H20.625C21.3154 38.125 21.875 37.5654 21.875 36.875V3.125C21.875 2.43464 21.3154 1.875 20.625 1.875Z" fill="white"/>
<path d="M21.875 3.125V36.875C21.874 37.2062 21.742 37.5236 21.5078 37.7578C21.2736 37.992 20.9562 38.124 20.625 38.125H18.125C18.4562 38.124 18.7736 37.992 19.0078 37.7578C19.242 37.5236 19.374 37.2062 19.375 36.875V3.125C19.374 2.79378 19.242 2.47642 19.0078 2.24221C18.7736 2.008 18.4562 1.87599 18.125 1.875H20.625C20.9562 1.87599 21.2736 2.008 21.5078 2.24221C21.742 2.47642 21.874 2.79378 21.875 3.125Z" fill="#A2DFFF"/>
<path d="M38.125 13.125V33.125C38.124 33.4562 37.992 33.7736 37.7578 34.0078C37.5236 34.242 37.2062 34.374 36.875 34.375H6.875C6.54378 34.374 6.22642 34.242 5.99221 34.0078C5.758 33.7736 5.62599 33.4562 5.625 33.125V13.125H38.125Z" fill="white"/>
<path d="M38.125 9.375V13.125H5.625V9.375C5.62599 9.04378 5.758 8.72642 5.99221 8.49221C6.22642 8.258 6.54378 8.12599 6.875 8.125H36.875C37.2062 8.12599 37.5236 8.258 37.7578 8.49221C37.992 8.72642 38.124 9.04378 38.125 9.375Z" fill="#A2DFFF"/>
<path d="M38.125 13.125V33.125C38.124 33.4562 37.992 33.7736 37.7578 34.0078C37.5236 34.242 37.2062 34.374 36.875 34.375H34.375C34.7062 34.374 35.0236 34.242 35.2578 34.0078C35.492 33.7736 35.624 33.4562 35.625 33.125V13.125H38.125Z" fill="#A2DFFF"/>
<path d="M38.125 9.375V13.125H35.625V9.375C35.624 9.04378 35.492 8.72642 35.2578 8.49221C35.0236 8.258 34.7062 8.12599 34.375 8.125H36.875C37.2062 8.12599 37.5236 8.258 37.7578 8.49221C37.992 8.72642 38.124 9.04378 38.125 9.375Z" fill="#A2DFFF"/>
<path d="M26.875 25.625H29.375V28.125H26.875V25.625Z" fill="white"/>
<path d="M26.875 20.625H29.375V23.125H26.875V20.625Z" fill="white"/>
<path d="M26.875 15.625H29.375V18.125H26.875V15.625Z" fill="white"/>
<path d="M21.875 16.875H24.375V30.625H21.875V16.875Z" fill="white"/>
<path d="M16.875 20.625H19.375V30.625H16.875V20.625Z" fill="white"/>
<path d="M18.75 1.875L18.125 4.375H5.625L5 1.875H18.75Z" fill="#A2DFFF"/>
<path d="M18.75 1.875L18.125 4.375H15.625L16.25 1.875H18.75Z" fill="#A2DFFF"/>
<path d="M11.875 23.125H14.375V30.625H11.875V23.125Z" fill="white"/>
<path d="M36.875 7.5H22.5V3.125C22.4985 2.62818 22.3005 2.15212 21.9492 1.80081C21.5979 1.4495 21.1218 1.25148 20.625 1.25H3.125C2.62818 1.25148 2.15212 1.4495 1.80081 1.80081C1.4495 2.15212 1.25148 2.62818 1.25 3.125V36.875C1.25148 37.3718 1.4495 37.8479 1.80081 38.1992C2.15212 38.5505 2.62818 38.7485 3.125 38.75H20.625C21.1218 38.7485 21.5979 38.5505 21.9492 38.1992C22.3005 37.8479 22.4985 37.3718 22.5 36.875V35H36.875C37.3718 34.9985 37.8479 34.8005 38.1992 34.4492C38.5505 34.0979 38.7485 33.6218 38.75 33.125V9.375C38.7485 8.87818 38.5505 8.40212 38.1992 8.05081C37.8479 7.6995 37.3718 7.50148 36.875 7.5ZM17.95 2.5L17.6375 3.75H6.1125L5.8 2.5H17.95ZM21.25 36.875C21.25 37.0408 21.1842 37.1997 21.0669 37.3169C20.9497 37.4342 20.7908 37.5 20.625 37.5H3.125C2.95924 37.5 2.80027 37.4342 2.68306 37.3169C2.56585 37.1997 2.5 37.0408 2.5 36.875V3.125C2.5 2.95924 2.56585 2.80027 2.68306 2.68306C2.80027 2.56585 2.95924 2.5 3.125 2.5H4.5125L5.01875 4.525C5.05225 4.6605 5.13014 4.78089 5.24002 4.86698C5.34989 4.95306 5.48542 4.99989 5.625 5H18.125C18.2646 4.99989 18.4001 4.95306 18.51 4.86698C18.6199 4.78089 18.6978 4.6605 18.7312 4.525L19.2375 2.5H20.625C20.7908 2.5 20.9497 2.56585 21.0669 2.68306C21.1842 2.80027 21.25 2.95924 21.25 3.125V7.5H6.875C6.37818 7.50148 5.90212 7.6995 5.55081 8.05081C5.1995 8.40212 5.00148 8.87818 5 9.375V33.125C5.00148 33.6218 5.1995 34.0979 5.55081 34.4492C5.90212 34.8005 6.37818 34.9985 6.875 35H21.25V36.875ZM37.5 33.125C37.5 33.2908 37.4342 33.4497 37.3169 33.5669C37.1997 33.6842 37.0408 33.75 36.875 33.75H6.875C6.70924 33.75 6.55027 33.6842 6.43306 33.5669C6.31585 33.4497 6.25 33.2908 6.25 33.125V13.75H37.5V33.125ZM37.5 12.5H6.25V9.375C6.25 9.20924 6.31585 9.05027 6.43306 8.93306C6.55027 8.81585 6.70924 8.75 6.875 8.75H36.875C37.0408 8.75 37.1997 8.81585 37.3169 8.93306C37.4342 9.05027 37.5 9.20924 37.5 9.375V12.5Z" fill="#1977CC"/>
<path d="M7.5 10H8.75V11.25H7.5V10Z" fill="#1977CC"/>
<path d="M10 10H11.25V11.25H10V10Z" fill="#1977CC"/>
<path d="M12.5 10H13.75V11.25H12.5V10Z" fill="#1977CC"/>
<path d="M35 10H36.25V11.25H35V10Z" fill="#1977CC"/>
<path d="M25 30V16.875C25 16.7092 24.9342 16.5503 24.8169 16.4331C24.6997 16.3158 24.5408 16.25 24.375 16.25H21.875C21.7092 16.25 21.5503 16.3158 21.4331 16.4331C21.3158 16.5503 21.25 16.7092 21.25 16.875V30H20V20.625C20 20.4592 19.9342 20.3003 19.8169 20.1831C19.6997 20.0658 19.5408 20 19.375 20H16.875C16.7092 20 16.5503 20.0658 16.4331 20.1831C16.3158 20.3003 16.25 20.4592 16.25 20.625V30H15V23.125C15 22.9592 14.9342 22.8003 14.8169 22.6831C14.6997 22.5658 14.5408 22.5 14.375 22.5H11.875C11.7092 22.5 11.5503 22.5658 11.4331 22.6831C11.3158 22.8003 11.25 22.9592 11.25 23.125V30H10V15H8.75V30.625C8.75 30.7908 8.81585 30.9497 8.93306 31.0669C9.05027 31.1842 9.20924 31.25 9.375 31.25H35V30H25ZM13.75 30H12.5V23.75H13.75V30ZM18.75 30H17.5V21.25H18.75V30ZM23.75 30H22.5V17.5H23.75V30Z" fill="#1977CC"/>
<path d="M29.375 15H26.875C26.7092 15 26.5503 15.0658 26.4331 15.1831C26.3158 15.3003 26.25 15.4592 26.25 15.625V18.125C26.25 18.2908 26.3158 18.4497 26.4331 18.5669C26.5503 18.6842 26.7092 18.75 26.875 18.75H29.375C29.5408 18.75 29.6997 18.6842 29.8169 18.5669C29.9342 18.4497 30 18.2908 30 18.125V15.625C30 15.4592 29.9342 15.3003 29.8169 15.1831C29.6997 15.0658 29.5408 15 29.375 15ZM28.75 17.5H27.5V16.25H28.75V17.5Z" fill="#1977CC"/>
<path d="M29.375 20H26.875C26.7092 20 26.5503 20.0658 26.4331 20.1831C26.3158 20.3003 26.25 20.4592 26.25 20.625V23.125C26.25 23.2908 26.3158 23.4497 26.4331 23.5669C26.5503 23.6842 26.7092 23.75 26.875 23.75H29.375C29.5408 23.75 29.6997 23.6842 29.8169 23.5669C29.9342 23.4497 30 23.2908 30 23.125V20.625C30 20.4592 29.9342 20.3003 29.8169 20.1831C29.6997 20.0658 29.5408 20 29.375 20ZM28.75 22.5H27.5V21.25H28.75V22.5Z" fill="#1977CC"/>
<path d="M29.375 25H26.875C26.7092 25 26.5503 25.0658 26.4331 25.1831C26.3158 25.3003 26.25 25.4592 26.25 25.625V28.125C26.25 28.2908 26.3158 28.4497 26.4331 28.5669C26.5503 28.6842 26.7092 28.75 26.875 28.75H29.375C29.5408 28.75 29.6997 28.6842 29.8169 28.5669C29.9342 28.4497 30 28.2908 30 28.125V25.625C30 25.4592 29.9342 25.3003 29.8169 25.1831C29.6997 25.0658 29.5408 25 29.375 25ZM28.75 27.5H27.5V26.25H28.75V27.5Z" fill="#1977CC"/>
<path d="M31.25 15H32.5V16.25H31.25V15Z" fill="#1977CC"/>
<path d="M33.75 15H35V16.25H33.75V15Z" fill="#1977CC"/>
<path d="M31.25 17.5H35V18.75H31.25V17.5Z" fill="#1977CC"/>
<path d="M31.25 20H35V21.25H31.25V20Z" fill="#1977CC"/>
<path d="M31.25 22.5H35V23.75H31.25V22.5Z" fill="#1977CC"/>
<path d="M31.25 25H35V26.25H31.25V25Z" fill="#1977CC"/>
<path d="M31.25 27.5H32.5V28.75H31.25V27.5Z" fill="#1977CC"/>
<path d="M33.75 27.5H35V28.75H33.75V27.5Z" fill="#1977CC"/>
</svg>
