<svg width="40" height="40" viewBox="0 0 40 40" fill="none" xmlns="http://www.w3.org/2000/svg">
<path d="M30.6251 10.625C29.3361 10.6263 28.0691 10.9593 26.946 11.592C25.823 12.2247 24.8817 13.1357 24.2126 14.2375C23.4979 15.408 23.1215 16.7536 23.1251 18.125C23.1251 19.6084 23.565 21.0584 24.3891 22.2918C25.2132 23.5251 26.3845 24.4864 27.755 25.0541C29.1254 25.6218 30.6334 25.7703 32.0883 25.4809C33.5431 25.1915 34.8795 24.4772 35.9284 23.4283C36.9773 22.3794 37.6916 21.043 37.981 19.5882C38.2704 18.1333 38.1218 16.6253 37.5542 15.2549C36.9865 13.8844 36.0252 12.7131 34.7919 11.889C33.5585 11.0649 32.1084 10.625 30.6251 10.625ZM30.6251 23.125C29.6362 23.125 28.6695 22.8318 27.8472 22.2823C27.025 21.7329 26.3841 20.952 26.0057 20.0384C25.6272 19.1248 25.5282 18.1195 25.7212 17.1495C25.9141 16.1796 26.3903 15.2887 27.0896 14.5895C27.7888 13.8902 28.6797 13.414 29.6496 13.2211C30.6195 13.0281 31.6249 13.1272 32.5385 13.5056C33.4521 13.884 34.233 14.5249 34.7824 15.3471C35.3318 16.1694 35.6251 17.1361 35.6251 18.125C35.6233 19.4505 35.0959 20.7212 34.1586 21.6585C33.2213 22.5958 31.9506 23.1232 30.6251 23.125Z" fill="#A2DFFF"/>
<path d="M29.375 28.125H28.125V35.625C28.125 36.288 28.3884 36.9239 28.8572 37.3928C29.3261 37.8616 29.962 38.125 30.625 38.125C31.288 38.125 31.9239 37.8616 32.3928 37.3928C32.8616 36.9239 33.125 36.288 33.125 35.625V28.125H29.375Z" fill="#A2DFFF"/>
<path d="M21.25 1.875V8.125H27.5C27.5 6.4674 26.8415 4.87769 25.6694 3.70558C24.4973 2.53348 22.9076 1.875 21.25 1.875Z" fill="#A2DFFF"/>
<path d="M23.9312 14.1188C24.6292 13.0874 25.0016 11.8703 24.9999 10.625H18.7499V4.375C17.6712 4.37482 16.6108 4.65384 15.6719 5.18492C14.733 5.71599 13.9475 6.48104 13.3918 7.40565C12.8362 8.33026 12.5293 9.38293 12.501 10.4613C12.4728 11.5396 12.7241 12.6069 13.2306 13.5594C13.737 14.5118 14.4814 15.317 15.3912 15.8965C16.301 16.476 17.3454 16.8102 18.4226 16.8665C19.4999 16.9228 20.5734 16.6993 21.5387 16.2178C22.504 15.7363 23.3282 15.0132 23.9312 14.1188Z" fill="#A2DFFF"/>
<path d="M18.125 30.625H21.875V35.625H18.125V30.625Z" fill="#A2DFFF"/>
<path d="M21.25 8.75H27.5C27.6658 8.75 27.8247 8.68415 27.9419 8.56694C28.0592 8.44973 28.125 8.29076 28.125 8.125C28.1228 6.3023 27.3978 4.55486 26.109 3.26602C24.8201 1.97717 23.0727 1.25215 21.25 1.25C21.0842 1.25 20.9253 1.31585 20.8081 1.43306C20.6908 1.55027 20.625 1.70924 20.625 1.875V8.125C20.625 8.29076 20.6908 8.44973 20.8081 8.56694C20.9253 8.68415 21.0842 8.75 21.25 8.75ZM21.875 2.53437C23.1424 2.67825 24.3235 3.24766 25.2254 4.14958C26.1273 5.05151 26.6968 6.23263 26.8406 7.5H21.875V2.53437Z" fill="#1977CC"/>
<path d="M30.8839 2.5H35.0001V1.25H30.6251C30.4594 1.25004 30.3004 1.31591 30.1832 1.43312L28.3082 3.30813L29.192 4.19187L30.8839 2.5Z" fill="#1977CC"/>
<path d="M36.25 1.25H38.75V2.5H36.25V1.25Z" fill="#1977CC"/>
<path d="M10.8081 4.19187L11.6919 3.30813L9.81687 1.43312C9.69969 1.31591 9.54075 1.25004 9.375 1.25H5V2.5H9.11625L10.8081 4.19187Z" fill="#1977CC"/>
<path d="M1.25 1.25H3.75V2.5H1.25V1.25Z" fill="#1977CC"/>
<path d="M31.25 5H36.25V6.25H31.25V5Z" fill="#1977CC"/>
<path d="M37.5 5H38.75V6.25H37.5V5Z" fill="#1977CC"/>
<path d="M1.25 5H8.75V6.25H1.25V5Z" fill="#1977CC"/>
<path d="M15.9913 22.5001H11.875V23.7501H16.25C16.4157 23.7501 16.5747 23.6842 16.6919 23.567L18.5669 21.692L17.6831 20.8082L15.9913 22.5001Z" fill="#1977CC"/>
<path d="M8.125 22.5H10.625V23.75H8.125V22.5Z" fill="#1977CC"/>
<path d="M8.125 18.75H15.625V20H8.125V18.75Z" fill="#1977CC"/>
<path d="M38.75 18.125C38.7516 16.5899 38.3178 15.0858 37.499 13.7872C36.6802 12.4887 35.51 11.449 34.1241 10.7888C32.7382 10.1285 31.1934 9.87485 29.6692 10.0572C28.1449 10.2395 26.7036 10.8503 25.5125 11.8188C25.5849 11.4249 25.6225 11.0254 25.625 10.625C25.625 10.4592 25.5592 10.3003 25.4419 10.1831C25.3247 10.0658 25.1658 10 25 10H19.375V4.375C19.375 4.20924 19.3092 4.05027 19.1919 3.93306C19.0747 3.81585 18.9158 3.75 18.75 3.75C17.2552 3.75289 15.802 4.24239 14.6102 5.14448C13.4183 6.04657 12.5525 7.3122 12.1438 8.75H8.75C7.9212 8.75 7.12634 9.07924 6.54029 9.66529C5.95424 10.2513 5.625 11.0462 5.625 11.875V28.125C5.625 28.9538 5.95424 29.7487 6.54029 30.3347C7.12634 30.9208 7.9212 31.25 8.75 31.25H17.5V35H15.625C15.1282 35.0015 14.6521 35.1995 14.3008 35.5508C13.9495 35.9021 13.7515 36.3782 13.75 36.875V38.125C13.75 38.2908 13.8158 38.4497 13.9331 38.5669C14.0503 38.6842 14.2092 38.75 14.375 38.75H25.625C25.7908 38.75 25.9497 38.6842 26.0669 38.5669C26.1842 38.4497 26.25 38.2908 26.25 38.125V36.875C26.2485 36.3782 26.0505 35.9021 25.6992 35.5508C25.3479 35.1995 24.8718 35.0015 24.375 35H22.5V31.25H27.5V35.625C27.5 36.4538 27.8292 37.2487 28.4153 37.8347C29.0013 38.4208 29.7962 38.75 30.625 38.75C31.4538 38.75 32.2487 38.4208 32.8347 37.8347C33.4208 37.2487 33.75 36.4538 33.75 35.625V28.125C33.75 27.9592 33.6842 27.8003 33.5669 27.6831C33.4497 27.5658 33.2908 27.5 33.125 27.5H32.5V26.025C34.2772 25.6007 35.86 24.5907 36.9937 23.1578C38.1273 21.7248 38.7459 19.9522 38.75 18.125ZM18.125 5.0375V10.625C18.125 10.7908 18.1908 10.9497 18.3081 11.0669C18.4253 11.1842 18.5842 11.25 18.75 11.25H24.3375C24.2203 12.303 23.8082 13.3015 23.1485 14.1305C22.4888 14.9596 21.6083 15.5854 20.6085 15.9361C19.6087 16.2867 18.5302 16.3478 17.4972 16.1124C16.4642 15.877 15.5187 15.3547 14.7695 14.6055C14.0203 13.8563 13.498 12.9108 13.2626 11.8778C13.0272 10.8448 13.0883 9.76627 13.4389 8.76648C13.7896 7.76669 14.4154 6.88625 15.2445 6.22653C16.0735 5.56682 17.072 5.15466 18.125 5.0375ZM24.375 36.25C24.5408 36.25 24.6997 36.3158 24.8169 36.4331C24.9342 36.5503 25 36.7092 25 36.875V37.5H15V36.875C15 36.7092 15.0658 36.5503 15.1831 36.4331C15.3003 36.3158 15.4592 36.25 15.625 36.25H24.375ZM18.75 35V31.25H21.25V35H18.75ZM28.125 27.5C27.9592 27.5 27.8003 27.5658 27.6831 27.6831C27.5658 27.8003 27.5 27.9592 27.5 28.125V30H8.75C8.25318 29.9985 7.77712 29.8005 7.42581 29.4492C7.0745 29.0979 6.87648 28.6218 6.875 28.125V27.5H26.25V26.25H6.875V11.875C6.87648 11.3782 7.0745 10.9021 7.42581 10.5508C7.77712 10.1995 8.25318 10.0015 8.75 10H11.9062C11.8875 10.2063 11.875 10.4125 11.875 10.625C11.8738 11.8877 12.2207 13.1264 12.8777 14.2048C13.5346 15.2832 14.4761 16.1596 15.5987 16.7377C16.7214 17.3158 17.9817 17.5732 19.2411 17.4817C20.5005 17.3901 21.7103 16.9531 22.7375 16.2188C22.5821 16.8423 22.5023 17.4824 22.5 18.125C22.504 19.9522 23.1227 21.7248 24.2563 23.1578C25.39 24.5907 26.9728 25.6007 28.75 26.025V27.5H28.125ZM32.5 35.625C32.5 36.1223 32.3025 36.5992 31.9508 36.9508C31.5992 37.3025 31.1223 37.5 30.625 37.5C30.1277 37.5 29.6508 37.3025 29.2992 36.9508C28.9475 36.5992 28.75 36.1223 28.75 35.625V28.75H32.5V35.625ZM30 27.5V26.2188C30.2062 26.2313 30.4125 26.25 30.625 26.25C30.8375 26.25 31.0438 26.2313 31.25 26.2188V27.5H30ZM30.625 25C29.2653 25 27.936 24.5968 26.8055 23.8414C25.6749 23.0859 24.7937 22.0122 24.2733 20.7559C23.753 19.4997 23.6168 18.1174 23.8821 16.7838C24.1474 15.4501 24.8022 14.2251 25.7636 13.2636C26.7251 12.3022 27.9501 11.6474 29.2838 11.3821C30.6174 11.1168 31.9997 11.253 33.2559 11.7733C34.5122 12.2937 35.5859 13.1749 36.3414 14.3055C37.0968 15.436 37.5 16.7653 37.5 18.125C37.4988 19.948 36.7741 21.696 35.4851 22.9851C34.196 24.2741 32.448 24.9988 30.625 25Z" fill="#1977CC"/>
<path d="M30.625 12.5C29.5125 12.5 28.4249 12.8299 27.4999 13.448C26.5749 14.0661 25.8539 14.9446 25.4282 15.9724C25.0024 17.0002 24.891 18.1312 25.1081 19.2224C25.3251 20.3135 25.8609 21.3158 26.6475 22.1025C27.4342 22.8891 28.4365 23.4249 29.5276 23.6419C30.6188 23.859 31.7498 23.7476 32.7776 23.3218C33.8054 22.8961 34.6839 22.1751 35.302 21.2501C35.9201 20.3251 36.25 19.2375 36.25 18.125C36.2482 16.6337 35.655 15.204 34.6005 14.1495C33.546 13.095 32.1163 12.5018 30.625 12.5ZM30.625 22.5C29.7597 22.5 28.9138 22.2434 28.1944 21.7627C27.4749 21.2819 26.9142 20.5987 26.583 19.7992C26.2519 18.9998 26.1653 18.1201 26.3341 17.2715C26.5029 16.4228 26.9196 15.6433 27.5314 15.0314C28.1433 14.4196 28.9228 14.0029 29.7715 13.8341C30.6202 13.6653 31.4998 13.7519 32.2992 14.083C33.0987 14.4142 33.782 14.9749 34.2627 15.6944C34.7434 16.4138 35 17.2597 35 18.125C34.9987 19.2849 34.5373 20.3969 33.7171 21.2171C32.897 22.0373 31.7849 22.4987 30.625 22.5Z" fill="#1977CC"/>
<path d="M27.5 18.125H28.75C28.75 17.6277 28.9475 17.1508 29.2992 16.7992C29.6508 16.4475 30.1277 16.25 30.625 16.25V15C29.7965 15.001 29.0022 15.3306 28.4164 15.9164C27.8306 16.5022 27.501 17.2965 27.5 18.125Z" fill="#1977CC"/>
<path d="M30 30H31.25V31.25H30V30Z" fill="#1977CC"/>
<path d="M30 32.5H31.25V36.25H30V32.5Z" fill="#1977CC"/>
</svg>
