<svg width="40" height="40" viewBox="0 0 40 40" fill="none" xmlns="http://www.w3.org/2000/svg">
<path d="M31.25 11.2501C31.25 10.4314 31.7688 9.73761 32.5 9.48761V20.1251C32.1 20.0439 31.6812 20.0001 31.25 20.0001C30.8188 20.0001 30.4 20.0439 30 20.1251V9.48761C30.7312 9.73761 31.25 10.4314 31.25 11.2501Z" fill="#A2DFFF"/>
<path d="M1.25 37.5V9.26875C1.25 9.0875 1.2875 8.9125 1.3625 8.75H7.5V2.6125C7.6625 2.5375 7.8375 2.5 8.01875 2.5H27.1062C26.6875 2.775 26.3 3.0875 25.9437 3.44375C24.5875 4.8 23.75 6.675 23.75 8.75V11.25C23.75 10.2125 24.5875 9.375 25.625 9.375C26.6625 9.375 27.5 10.2125 27.5 11.25C27.5 11.0437 27.5312 10.8438 27.6 10.6625C27.8438 9.9125 28.5438 9.375 29.375 9.375C29.5938 9.375 29.8062 9.4125 30 9.4875V20.125C27.15 20.7063 25 23.2313 25 26.25C25 29.7 27.8 32.5 31.25 32.5V37.5C31.25 38.1875 30.6875 38.75 30 38.75H2.5C1.8125 38.75 1.25 38.1875 1.25 37.5Z" fill="white"/>
<path d="M10 5H21.25V8.75H10V5Z" fill="#69D6F4"/>
<path d="M23.75 13.75H27.5V18.75H23.75V13.75Z" fill="#A2DFFF"/>
<path d="M7.50017 2.61261V8.75011H1.36267C1.42517 8.61261 1.51267 8.48761 1.61892 8.38136L7.13142 2.86886C7.23767 2.76261 7.36267 2.67511 7.50017 2.61261Z" fill="#A2DFFF"/>
<path d="M36.875 9.375C36.0437 9.375 35.3438 9.9125 35.1 10.6625L35 10.625C35 3.75 31.25 1.25 31.25 1.25C35.3938 1.25 38.75 4.60625 38.75 8.75V11.25C38.75 10.2125 37.9125 9.375 36.875 9.375Z" fill="white"/>
<path d="M27.5 10.625L27.6 10.6625C27.5312 10.8438 27.5 11.0437 27.5 11.25C27.5 10.2125 26.6625 9.375 25.625 9.375C24.5875 9.375 23.75 10.2125 23.75 11.25V8.75C23.75 6.675 24.5875 4.8 25.9437 3.44375C26.3 3.0875 26.6875 2.775 27.1062 2.5C28.2875 1.70625 29.7125 1.25 31.25 1.25C31.25 1.25 27.5 3.75 27.5 10.625Z" fill="white"/>
<path d="M31.25 1.25C31.25 1.25 35 3.75 35 10.625L35.1 10.6625C35.0312 10.8438 35 11.0437 35 11.25C35 10.2125 34.1625 9.375 33.125 9.375C32.9062 9.375 32.6937 9.4125 32.5 9.4875C31.7687 9.7375 31.25 10.4312 31.25 11.25C31.25 10.4312 30.7312 9.7375 30 9.4875C29.8062 9.4125 29.5937 9.375 29.375 9.375C28.5437 9.375 27.8437 9.9125 27.6 10.6625L27.5 10.625C27.5 3.75 31.25 1.25 31.25 1.25Z" fill="#A2DFFF"/>
<path d="M15 23.75H14.1313C12.6562 23.75 11.225 23.3125 10 22.5C8.775 23.3125 7.34375 23.75 5.86875 23.75H5C5 23.75 3.75 30.625 3.75 32.5C3.75 33.9875 7.28125 35.4688 8.74375 36.025C9.15 36.175 9.56875 36.25 10 36.25C10.4313 36.25 10.85 36.175 11.2563 36.025C12.7188 35.4688 16.25 33.9875 16.25 32.5C16.25 30.625 15 23.75 15 23.75Z" fill="white"/>
<path d="M32.5 20.125C35.35 20.7063 37.5 23.2313 37.5 26.25C37.5 29.7 34.7 32.5 31.25 32.5C27.8 32.5 25 29.7 25 26.25C25 23.2313 27.15 20.7063 30 20.125C30.4 20.0438 30.8187 20 31.25 20C31.6813 20 32.1 20.0438 32.5 20.125Z" fill="#A2DFFF"/>
<path d="M30.625 21.875V23.2156C29.9031 23.4444 29.375 24.1125 29.375 24.9088C29.375 25.5881 29.7525 26.1994 30.3612 26.5044L31.58 27.1137C31.7619 27.2044 31.875 27.3875 31.875 27.5912C31.875 27.885 31.6356 28.125 31.3412 28.125H31.1588C30.8644 28.125 30.625 27.885 30.625 27.5912V26.875H29.375V27.5912C29.375 28.3881 29.9031 29.0562 30.625 29.2844V30.625H31.875V29.2844C32.5969 29.0556 33.125 28.3875 33.125 27.5912C33.125 26.9119 32.7475 26.3006 32.1388 25.9956L30.92 25.3863C30.7381 25.2956 30.625 25.1125 30.625 24.9088C30.625 24.615 30.8644 24.375 31.1588 24.375H31.3412C31.6356 24.375 31.875 24.615 31.875 24.9088V25H33.125V24.9088C33.125 24.1119 32.5969 23.4438 31.875 23.2156V21.875H30.625Z" fill="#1977CC"/>
<path d="M31.25 0.625C29.6656 0.625 28.1906 1.0875 26.94 1.875H8.01813C7.5175 1.875 7.04625 2.07062 6.69187 2.42437L1.17437 7.94187C0.82 8.29562 0.625 8.76688 0.625 9.2675V37.5C0.625 38.5337 1.46625 39.375 2.5 39.375H30C31.0338 39.375 31.875 38.5337 31.875 37.5V33.0931C35.3737 32.7762 38.125 29.83 38.125 26.25C38.125 23.11 36.0062 20.4606 33.125 19.6413V10C33.8144 10 34.375 10.5606 34.375 11.25H35.625C35.625 10.5606 36.1856 10 36.875 10C37.5644 10 38.125 10.5606 38.125 11.25H39.375V8.75C39.375 4.27 35.73 0.625 31.25 0.625ZM26.94 9.13313C26.5569 8.89437 26.1087 8.75 25.625 8.75C25.17 8.75 24.7431 8.87187 24.375 9.08562V8.75C24.375 5.56687 26.5525 2.89 29.4944 2.11063C28.4706 3.38812 27.225 5.62875 26.94 9.13313ZM6.875 4.00875V8.125H2.75875L6.875 4.00875ZM30 38.125H2.5C2.15562 38.125 1.875 37.845 1.875 37.5V9.375H8.125V3.125H25.4006C23.995 4.58625 23.125 6.56687 23.125 8.75V11.25H24.375C24.375 10.5606 24.9356 10 25.625 10C26.3144 10 26.875 10.5606 26.875 11.25H28.125C28.125 10.5606 28.6856 10 29.375 10V19.6413C26.4937 20.46 24.375 23.1094 24.375 26.25C24.375 29.83 27.1262 32.7762 30.625 33.0931V37.5C30.625 37.845 30.3444 38.125 30 38.125ZM36.875 26.25C36.875 29.3519 34.3512 31.875 31.25 31.875C28.1488 31.875 25.625 29.3519 25.625 26.25C25.625 23.1481 28.1488 20.625 31.25 20.625C34.3512 20.625 36.875 23.1481 36.875 26.25ZM31.25 19.375C31.0387 19.375 30.8312 19.3881 30.625 19.4069V11.25H31.875V19.4069C31.6688 19.3881 31.4613 19.375 31.25 19.375ZM33.125 8.75C32.375 8.75 31.7087 9.08875 31.25 9.61375C30.7913 9.08875 30.125 8.75 29.375 8.75C28.9494 8.75 28.555 8.86687 28.2038 9.055C28.5925 4.85437 30.46 2.75563 31.25 2.05062C32.04 2.75563 33.9075 4.85437 34.2962 9.055C33.945 8.86687 33.5506 8.75 33.125 8.75ZM38.125 9.08562C37.7569 8.87187 37.33 8.75 36.875 8.75C36.3913 8.75 35.9431 8.89437 35.56 9.13313C35.275 5.62875 34.0294 3.38812 33.0056 2.11063C35.9475 2.89 38.125 5.56687 38.125 8.75V9.08562Z" fill="#1977CC"/>
<path d="M15.5212 23.1252H14.1281C12.7781 23.1252 11.4706 22.7289 10.3463 21.9802L10 21.7489L9.65312 21.9802C8.52937 22.7289 7.22188 23.1252 5.87188 23.1252H4.47875L4.38563 23.6383C4.33375 23.9208 3.125 30.5908 3.125 32.5002C3.125 33.8745 4.9425 35.257 8.52625 36.6083C8.995 36.7852 9.49062 36.8752 10 36.8752C10.5094 36.8752 11.005 36.7852 11.4738 36.6083C15.0575 35.257 16.875 33.8745 16.875 32.5002C16.875 30.5908 15.6662 23.9208 15.615 23.6383L15.5212 23.1252ZM11.0325 35.4389C10.9006 35.4883 10.7631 35.5208 10.625 35.5508V28.1252H9.375V35.5508C9.23688 35.5214 9.09875 35.4889 8.9675 35.4395C5.81187 34.2489 4.375 33.0814 4.375 32.5002C4.375 30.9945 5.23625 25.9977 5.52312 24.3752H5.87125C7.09375 24.3752 8.28562 24.097 9.37437 23.5708V26.8752H10.6244V23.5708C11.7138 24.097 12.9056 24.3752 14.1281 24.3752H14.4763C14.7638 25.9977 15.625 30.9945 15.625 32.5002C15.625 33.0814 14.1881 34.2489 11.0325 35.4389Z" fill="#1977CC"/>
<path d="M21.875 4.375H9.375V9.375H21.875V4.375ZM20.625 8.125H10.625V5.625H20.625V8.125Z" fill="#1977CC"/>
<path d="M3.125 10.625H4.375V11.875H3.125V10.625Z" fill="#1977CC"/>
<path d="M5.625 10.625H21.875V11.875H5.625V10.625Z" fill="#1977CC"/>
<path d="M3.125 13.125H21.875V14.375H3.125V13.125Z" fill="#1977CC"/>
<path d="M3.125 15.625H21.875V16.875H3.125V15.625Z" fill="#1977CC"/>
<path d="M20.625 18.125H21.875V19.375H20.625V18.125Z" fill="#1977CC"/>
<path d="M3.125 18.125H19.375V19.375H3.125V18.125Z" fill="#1977CC"/>
<path d="M28.125 13.125H23.125V19.375H28.125V13.125ZM26.875 18.125H24.375V14.375H26.875V18.125Z" fill="#1977CC"/>
<path d="M18.125 30.625H24.375V31.875H18.125V30.625Z" fill="#1977CC"/>
<path d="M18.125 33.125H24.375V34.375H18.125V33.125Z" fill="#1977CC"/>
<path d="M18.125 35.625H19.375V36.875H18.125V35.625Z" fill="#1977CC"/>
<path d="M20.625 35.625H21.875V36.875H20.625V35.625Z" fill="#1977CC"/>
<path d="M23.125 35.625H24.375V36.875H23.125V35.625Z" fill="#1977CC"/>
</svg>
