<svg width="40" height="40" viewBox="0 0 40 40" fill="none" xmlns="http://www.w3.org/2000/svg">
<path d="M36.25 1.875H17.5C16.4645 1.875 15.625 2.71447 15.625 3.75V32.5C15.625 33.5355 16.4645 34.375 17.5 34.375H36.25C37.2855 34.375 38.125 33.5355 38.125 32.5V3.75C38.125 2.71447 37.2855 1.875 36.25 1.875Z" fill="#A2DFFF"/>
<path d="M35.625 8.125L29.375 1.875H15C14.5027 1.875 14.0258 2.07254 13.6742 2.42417C13.3225 2.77581 13.125 3.25272 13.125 3.75V32.5C13.125 32.9973 13.3225 33.4742 13.6742 33.8258C14.0258 34.1775 14.5027 34.375 15 34.375H33.75C34.2473 34.375 34.7242 34.1775 35.0758 33.8258C35.4275 33.4742 35.625 32.9973 35.625 32.5V8.125Z" fill="white"/>
<path d="M22.5 5H27.5V6.25H22.5V5Z" fill="#A2DFFF"/>
<path d="M22.5 7.5H27.5V8.75H22.5V7.5Z" fill="#A2DFFF"/>
<path d="M22.5 10H33.125V11.25H22.5V10Z" fill="#A2DFFF"/>
<path d="M22.5 12.5H33.125V13.75H22.5V12.5Z" fill="#A2DFFF"/>
<path d="M26.25 30H33.125V31.25H26.25V30Z" fill="#A2DFFF"/>
<path d="M27.5 15H15.625V16.25H27.5V17.5H15.625V18.75H27.5V20H15.625V21.25H27.5V22.5H25.625V23.75H27.5V25H26.25V26.25H27.5V27.5H26.25V28.75H33.125V27.5H28.75V26.25H33.125V25H28.75V23.75H33.125V22.5H28.75V21.25H33.125V20H28.75V18.75H33.125V17.5H28.75V16.25H33.125V15H28.75H27.5Z" fill="#A2DFFF"/>
<path d="M29.375 1.875V6.25C29.375 6.74728 29.5725 7.22419 29.9242 7.57583C30.2758 7.92746 30.7527 8.125 31.25 8.125H35.625L29.375 1.875Z" fill="#5CC1ED"/>
<path d="M20.625 7.5V7.07812C20.6243 6.56236 20.4321 6.06522 20.0857 5.68313C19.7392 5.30104 19.2632 5.06124 18.75 5.01023V3.75H17.5V5.01C17.0266 5.05678 16.5835 5.26459 16.2448 5.59872C15.9062 5.93284 15.6924 6.37305 15.6393 6.84582C15.5861 7.31858 15.6967 7.79527 15.9527 8.19627C16.2087 8.59727 16.5946 8.89829 17.0458 9.04906L18.8089 9.63687C18.995 9.6994 19.1528 9.82601 19.2542 9.99411C19.3557 10.1622 19.394 10.3609 19.3626 10.5547C19.3311 10.7484 19.2318 10.9247 19.0824 11.0521C18.933 11.1795 18.7432 11.2496 18.5469 11.25H17.7031C17.4835 11.2498 17.273 11.1625 17.1177 11.0073C16.9625 10.852 16.8752 10.6415 16.875 10.4219V10H15.625V10.4219C15.6257 10.9376 15.8179 11.4348 16.1643 11.8169C16.5108 12.199 16.9868 12.4388 17.5 12.4898V13.75H18.75V12.49C19.2234 12.4432 19.6665 12.2354 20.0052 11.9013C20.3438 11.5672 20.5576 11.1269 20.6107 10.6542C20.6639 10.1814 20.5533 9.70473 20.2973 9.30373C20.0413 8.90273 19.6554 8.60171 19.2042 8.45094L17.4411 7.86313C17.255 7.8006 17.0972 7.67399 16.9958 7.50589C16.8943 7.33779 16.856 7.13913 16.8874 6.94535C16.9189 6.75156 17.0182 6.57527 17.1676 6.44791C17.317 6.32055 17.5068 6.25041 17.7031 6.25H18.5469C18.7665 6.25017 18.977 6.33747 19.1323 6.49274C19.2875 6.648 19.3748 6.85854 19.375 7.07812V7.5H20.625Z" fill="#FFB431"/>
<path d="M23.75 24.375H22.5V34.375H25.625V26.25C25.625 25.7527 25.4275 25.2758 25.0758 24.9242C24.7242 24.5725 24.2473 24.375 23.75 24.375Z" fill="#4AAEDA"/>
<path d="M21.875 23.125H4.375C2.99429 23.125 1.875 24.2443 1.875 25.625V35.625C1.875 37.0057 2.99429 38.125 4.375 38.125H21.875C23.2557 38.125 24.375 37.0057 24.375 35.625V25.625C24.375 24.2443 23.2557 23.125 21.875 23.125Z" fill="#A2DFFF"/>
<path d="M8.75 25.625H5C4.65482 25.625 4.375 25.9048 4.375 26.25V30C4.375 30.3452 4.65482 30.625 5 30.625H8.75C9.09518 30.625 9.375 30.3452 9.375 30V26.25C9.375 25.9048 9.09518 25.625 8.75 25.625Z" fill="white"/>
<path d="M4.375 27.5H6.25V28.75H4.375V27.5Z" fill="#F88400"/>
<path d="M7.5 27.5H9.375V28.75H7.5V27.5Z" fill="#F88400"/>
<path d="M20 31.875H16.875C15.8395 31.875 15 32.7145 15 33.75C15 34.7855 15.8395 35.625 16.875 35.625H20C21.0355 35.625 21.875 34.7855 21.875 33.75C21.875 32.7145 21.0355 31.875 20 31.875Z" fill="white"/>
<path d="M4.375 32.5H5.625V33.75H4.375V32.5Z" fill="#4DB6E4"/>
<path d="M6.875 32.5H8.125V33.75H6.875V32.5Z" fill="#4DB6E4"/>
<path d="M9.375 32.5H10.625V33.75H9.375V32.5Z" fill="#4DB6E4"/>
<path d="M11.875 32.5H13.125V33.75H11.875V32.5Z" fill="#4DB6E4"/>
<path d="M4.375 35H6.875V36.25H4.375V35Z" fill="#4DB6E4"/>
<path d="M8.125 35H11.875V36.25H8.125V35Z" fill="#4DB6E4"/>
<path d="M15.625 25.625H16.875V27.5H15.625V25.625Z" fill="#4DB6E4"/>
<path d="M13.125 25.625H14.375V27.5H13.125V25.625Z" fill="#4DB6E4"/>
<path d="M18.125 25.625H19.375V27.5H18.125V25.625Z" fill="#4DB6E4"/>
<path d="M20.625 25.625H21.875V27.5H20.625V25.625Z" fill="#4DB6E4"/>
<path d="M17.5 28.75H21.875V30H17.5V28.75Z" fill="#4DB6E4"/>
<path d="M36.25 1.25H31.875V2.5H36.25C36.5814 2.50039 36.8991 2.63222 37.1334 2.86655C37.3678 3.10089 37.4996 3.4186 37.5 3.75V32.5C37.4996 32.8314 37.3678 33.1491 37.1334 33.3834C36.8991 33.6178 36.5814 33.7496 36.25 33.75H35.9141C36.1345 33.3703 36.2504 32.939 36.25 32.5V8.125C36.25 8.04292 36.2338 7.96165 36.2024 7.88582C36.171 7.80999 36.125 7.74109 36.067 7.68305L29.817 1.43305C29.7589 1.37501 29.69 1.32898 29.6142 1.29757C29.5384 1.26616 29.4571 1.25 29.375 1.25H15C14.3372 1.25074 13.7017 1.51438 13.2331 1.98306C12.7644 2.45173 12.5007 3.08719 12.5 3.75V21.25H13.75V3.75C13.7504 3.4186 13.8822 3.10089 14.1166 2.86655C14.3509 2.63222 14.6686 2.50039 15 2.5H28.75V6.25C28.7507 6.91281 29.0144 7.54826 29.4831 8.01694C29.9517 8.48562 30.5872 8.74926 31.25 8.75H35V32.5C34.9996 32.8314 34.8678 33.1491 34.6334 33.3834C34.3991 33.6178 34.0814 33.7496 33.75 33.75H26.25V35H36.25C36.9128 34.9993 37.5483 34.7356 38.0169 34.2669C38.4856 33.7983 38.7493 33.1628 38.75 32.5V3.75C38.7493 3.08719 38.4856 2.45173 38.0169 1.98306C37.5483 1.51438 36.9128 1.25074 36.25 1.25ZM30 6.25V3.38383L34.1162 7.5H31.25C30.9186 7.49961 30.6009 7.36778 30.3666 7.13345C30.1322 6.89911 30.0004 6.5814 30 6.25Z" fill="#1977CC"/>
<path d="M22.5 5H27.5V6.25H22.5V5Z" fill="#1977CC"/>
<path d="M22.5 7.5H27.5V8.75H22.5V7.5Z" fill="#1977CC"/>
<path d="M22.5 10H33.125V11.25H22.5V10Z" fill="#1977CC"/>
<path d="M22.5 12.5H33.125V13.75H22.5V12.5Z" fill="#1977CC"/>
<path d="M25.625 22.5V23.75H27.5V25H26.25V26.25H27.5V27.5H26.25V28.75H33.125V27.5H28.75V26.25H33.125V25H28.75V23.75H33.125V22.5H28.75V21.25H33.125V20H28.75V18.75H33.125V17.5H28.75V16.25H33.125V15H28.75H27.5H15.625V16.25H27.5V17.5H15.625V18.75H27.5V20H15.625V21.25H27.5V22.5H25.625Z" fill="#1977CC"/>
<path d="M26.25 30H33.125V31.25H26.25V30Z" fill="#1977CC"/>
<path d="M15.625 10V10.4219C15.6257 10.9376 15.8179 11.4348 16.1643 11.8169C16.5108 12.199 16.9868 12.4388 17.5 12.4898V13.75H18.75V12.49C19.2234 12.4432 19.6665 12.2354 20.0052 11.9013C20.3438 11.5672 20.5576 11.1269 20.6107 10.6542C20.6639 10.1814 20.5533 9.70473 20.2973 9.30373C20.0413 8.90273 19.6554 8.60171 19.2042 8.45094L17.4411 7.86313C17.255 7.8006 17.0972 7.67399 16.9958 7.50589C16.8943 7.33779 16.856 7.13913 16.8874 6.94535C16.9189 6.75156 17.0182 6.57527 17.1676 6.44791C17.317 6.32055 17.5068 6.25041 17.7031 6.25H18.5469C18.7665 6.25017 18.977 6.33747 19.1323 6.49274C19.2875 6.648 19.3748 6.85854 19.375 7.07812V7.5H20.625V7.07812C20.6243 6.56236 20.4321 6.06522 20.0857 5.68313C19.7392 5.30104 19.2632 5.06124 18.75 5.01023V3.75H17.5V5.01C17.0266 5.05678 16.5835 5.26459 16.2448 5.59872C15.9062 5.93284 15.6924 6.37305 15.6393 6.84582C15.5861 7.31858 15.6967 7.79527 15.9527 8.19627C16.2087 8.59727 16.5946 8.89829 17.0458 9.04906L18.8089 9.63687C18.995 9.6994 19.1528 9.82601 19.2542 9.99411C19.3557 10.1622 19.394 10.3609 19.3626 10.5547C19.3311 10.7484 19.2318 10.9247 19.0824 11.0521C18.933 11.1795 18.7432 11.2496 18.5469 11.25H17.7031C17.4835 11.2498 17.273 11.1625 17.1177 11.0073C16.9625 10.852 16.8752 10.6415 16.875 10.4219V10H15.625Z" fill="#1977CC"/>
<path d="M21.875 22.5H4.375C3.54648 22.5009 2.75217 22.8305 2.16632 23.4163C1.58047 24.0022 1.25093 24.7965 1.25 25.625V26.25H2.5V25.625C2.50056 25.1279 2.69828 24.6513 3.04979 24.2998C3.4013 23.9483 3.87789 23.7506 4.375 23.75H21.875C22.3721 23.7506 22.8487 23.9483 23.2002 24.2998C23.5517 24.6513 23.7494 25.1279 23.75 25.625V35.625C23.7494 36.1221 23.5517 36.5987 23.2002 36.9502C22.8487 37.3017 22.3721 37.4994 21.875 37.5H4.375C3.87789 37.4994 3.4013 37.3017 3.04979 36.9502C2.69828 36.5987 2.50056 36.1221 2.5 35.625V27.5H1.25V35.625C1.25093 36.4535 1.58047 37.2478 2.16632 37.8337C2.75217 38.4195 3.54648 38.7491 4.375 38.75H21.875C22.7035 38.7491 23.4978 38.4195 24.0837 37.8337C24.6695 37.2478 24.9991 36.4535 25 35.625V25.625C24.9991 24.7965 24.6695 24.0022 24.0837 23.4163C23.4978 22.8305 22.7035 22.5009 21.875 22.5Z" fill="#1977CC"/>
<path d="M8.75 25H5C4.6686 25.0004 4.35089 25.1322 4.11655 25.3665C3.88222 25.6009 3.75039 25.9186 3.75 26.25V30C3.75039 30.3314 3.88222 30.6491 4.11655 30.8835C4.35089 31.1178 4.6686 31.2496 5 31.25H8.75C9.0814 31.2496 9.39911 31.1178 9.63345 30.8835C9.86778 30.6491 9.99961 30.3314 10 30V26.25C9.99961 25.9186 9.86778 25.6009 9.63345 25.3665C9.39911 25.1322 9.0814 25.0004 8.75 25ZM8.75 30H5V28.75H6.25V27.5H5V26.25H8.75V27.5H7.5V28.75H8.75055V30H8.75Z" fill="#1977CC"/>
<path d="M14.375 33.75C14.3757 34.4128 14.6394 35.0483 15.1081 35.5169C15.5767 35.9856 16.2122 36.2493 16.875 36.25H20C20.663 36.25 21.2989 35.9866 21.7678 35.5178C22.2366 35.0489 22.5 34.413 22.5 33.75C22.5 33.087 22.2366 32.4511 21.7678 31.9822C21.2989 31.5134 20.663 31.25 20 31.25H16.875C16.2122 31.2507 15.5767 31.5144 15.1081 31.9831C14.6394 32.4517 14.3757 33.0872 14.375 33.75ZM16.875 32.5H20C20.3315 32.5 20.6495 32.6317 20.8839 32.8661C21.1183 33.1005 21.25 33.4185 21.25 33.75C21.25 34.0815 21.1183 34.3995 20.8839 34.6339C20.6495 34.8683 20.3315 35 20 35H16.875C16.5435 35 16.2255 34.8683 15.9911 34.6339C15.7567 34.3995 15.625 34.0815 15.625 33.75C15.625 33.4185 15.7567 33.1005 15.9911 32.8661C16.2255 32.6317 16.5435 32.5 16.875 32.5Z" fill="#1977CC"/>
<path d="M4.375 32.5H5.625V33.75H4.375V32.5Z" fill="#1977CC"/>
<path d="M6.875 32.5H8.125V33.75H6.875V32.5Z" fill="#1977CC"/>
<path d="M9.375 32.5H10.625V33.75H9.375V32.5Z" fill="#1977CC"/>
<path d="M11.875 32.5H13.125V33.75H11.875V32.5Z" fill="#1977CC"/>
<path d="M4.375 35H6.875V36.25H4.375V35Z" fill="#1977CC"/>
<path d="M8.125 35H11.875V36.25H8.125V35Z" fill="#1977CC"/>
<path d="M15.625 25.625H16.875V27.5H15.625V25.625Z" fill="#1977CC"/>
<path d="M13.125 25.625H14.375V27.5H13.125V25.625Z" fill="#1977CC"/>
<path d="M18.125 25.625H19.375V27.5H18.125V25.625Z" fill="#1977CC"/>
<path d="M20.625 25.625H21.875V27.5H20.625V25.625Z" fill="#1977CC"/>
<path d="M17.5 28.75H21.875V30H17.5V28.75Z" fill="#1977CC"/>
</svg>
