<svg width="40" height="40" viewBox="0 0 40 40" fill="none" xmlns="http://www.w3.org/2000/svg">
<path d="M35 2.5V11.875C34.9937 11.8813 34.9812 11.8938 34.975 11.9L30.625 16.25H27.5C26.4813 16.25 25.5688 16.7437 25 17.5H16.25V21.25V25V28.75V32.5H23.75H27.5H30V35H13.75V16.25C13.75 12.8 10.95 10 7.5 10V8.01875C7.5 7.8375 7.5375 7.6625 7.6125 7.5H12.5C13.1875 7.5 13.75 6.9375 13.75 6.25V1.3625C13.9125 1.2875 14.0875 1.25 14.2688 1.25H33.75C34.4375 1.25 35 1.8125 35 2.5Z" fill="#E6E9ED"/>
<path d="M28.2812 28C27.9812 27.7625 27.725 27.4813 27.525 27.1688C27.3 26.8438 27.1313 26.4875 27.025 26.1063H27.0187L24.375 28.75L23.75 29L21.4375 29.925C21.3125 29.975 21.1813 30 21.05 30C20.4688 30 20 29.5312 20 28.95C20 28.8812 20.0062 28.8125 20.0187 28.75C20.0312 28.6875 20.05 28.625 20.075 28.5625L21.25 25.625L21.875 25L25.625 21.25C24.9375 21.25 24.375 20.6875 24.375 20V19.375C24.375 18.6688 24.6062 18.0188 25 17.5H16.25V32.5H23.75H27.5H30V29.375L28.2812 28Z" fill="white"/>
<path d="M16.25 3.75H32.5V6.25H16.25V3.75Z" fill="#A2DFFF"/>
<path d="M13.7499 1.36237V6.24987C13.7499 6.93737 13.1874 7.49987 12.4999 7.49987H7.61243C7.67493 7.36237 7.76243 7.23737 7.86868 7.13112L13.3812 1.61862C13.4874 1.51237 13.6124 1.42487 13.7499 1.36237Z" fill="white"/>
<path d="M26.875 20V25.075C26.875 25.4312 26.925 25.775 27.025 26.1063H27.0188L24.375 28.75L21.25 25.625L21.875 25L25.625 21.25C25.9688 21.25 26.2813 21.1125 26.5063 20.8812C26.7375 20.6562 26.875 20.3438 26.875 20Z" fill="#A2DFFF"/>
<path d="M34.9998 11.875C35.4123 11.475 35.9686 11.25 36.5373 11.25C37.1498 11.25 37.6998 11.5 38.0998 11.9C38.4998 12.3 38.7498 12.85 38.7498 13.4625C38.7498 14.0438 38.5186 14.6063 38.0998 15.025L34.4498 18.675L29.3748 23.75V20.625C29.3748 20.1062 29.1623 19.6375 28.8248 19.3C28.6123 19.0875 28.3436 18.925 28.0436 18.8312L30.6248 16.25L34.9748 11.9C34.9811 11.8938 34.9936 11.8813 34.9998 11.875Z" fill="#A2DFFF"/>
<path d="M24.375 28.75L23.75 29L21.4375 29.925C21.3125 29.975 21.1813 30 21.05 30C20.4688 30 20 29.5312 20 28.95C20 28.8812 20.0062 28.8125 20.0187 28.75C20.0312 28.6875 20.05 28.625 20.075 28.5625L21.25 25.625L24.375 28.75Z" fill="#AAB2BD"/>
<path d="M36.875 27.5L38.125 35H30V32.5V29.375L36.875 27.5Z" fill="white"/>
<path d="M26.5062 20.8812C26.2812 21.1125 25.9688 21.25 25.625 21.25C24.9375 21.25 24.375 20.6875 24.375 20V19.375C24.375 18.6688 24.6063 18.0187 25 17.5C25.5688 16.7437 26.4813 16.25 27.5 16.25H30.625L28.0437 18.8312C27.875 18.7812 27.6875 18.75 27.5 18.75C27.1562 18.75 26.875 19.0312 26.875 19.375V20C26.875 20.3438 26.7375 20.6562 26.5062 20.8812Z" fill="white"/>
<path d="M34.7813 19.2811C36.1563 21.8061 36.875 24.6311 36.875 27.4998L30 29.3748L28.2812 27.9998C27.9813 27.7623 27.725 27.4811 27.525 27.1686C27.3 26.8436 27.1313 26.4873 27.025 26.1061C26.925 25.7748 26.875 25.4311 26.875 25.0748V19.9998V19.3748C26.875 19.0311 27.1562 18.7498 27.5 18.7498C27.6875 18.7498 27.875 18.7811 28.0437 18.8311C28.3437 18.9248 28.6125 19.0873 28.825 19.2998C29.1625 19.6373 29.375 20.1061 29.375 20.6248V23.7498L34.45 18.6748L34.7813 19.2811Z" fill="white"/>
<path d="M13.75 16.25V35V36.25C13.75 37.6313 12.6313 38.75 11.25 38.75H3.75C2.36875 38.75 1.25 37.6313 1.25 36.25V16.25C1.25 18.2938 2.23125 20.1063 3.75 21.25V25.625C3.75 25.9688 4.03125 26.25 4.375 26.25H10.625C10.9688 26.25 11.25 25.9688 11.25 25.625V21.25C12.7688 20.1063 13.75 18.2938 13.75 16.25Z" fill="#A2DFFF"/>
<path d="M10.6737 36.229H4.39062C4.04562 36.229 3.76562 35.949 3.76562 35.604V29.379C3.76562 29.034 4.04562 28.754 4.39062 28.754H10.6731C11.0181 28.754 11.2981 29.034 11.2981 29.379V35.604C11.2987 35.9497 11.0187 36.229 10.6737 36.229Z" fill="#A2DFFF"/>
<path d="M11.25 21.25V25.625C11.25 25.9688 10.9688 26.25 10.625 26.25H4.375C4.03125 26.25 3.75 25.9688 3.75 25.625V21.25C4.79375 22.0312 6.09375 22.5 7.5 22.5C8.90625 22.5 10.2063 22.0312 11.25 21.25Z" fill="white"/>
<path d="M13.75 16.25C13.75 18.2937 12.7688 20.1062 11.25 21.25C10.2063 22.0312 8.90625 22.5 7.5 22.5C6.09375 22.5 4.79375 22.0312 3.75 21.25C2.23125 20.1062 1.25 18.2937 1.25 16.25C1.25 12.8 4.05 10 7.5 10C10.95 10 13.75 12.8 13.75 16.25Z" fill="#A2DFFF"/>
<path d="M35.3288 18.985L35.2212 18.7875L38.545 15.4638C39.08 14.9288 39.375 14.2169 39.375 13.46C39.375 11.8969 38.1031 10.625 36.54 10.625C36.2225 10.625 35.9169 10.6881 35.625 10.7875V2.5C35.625 1.46625 34.7837 0.625 33.75 0.625H14.2681C13.7675 0.625 13.2963 0.82 12.9419 1.17437L7.42437 6.69187C7.07 7.04562 6.875 7.51688 6.875 8.01813V9.40687C3.37625 9.72375 0.625 12.67 0.625 16.25V36.25C0.625 37.9731 2.02688 39.375 3.75 39.375H11.25C12.9731 39.375 14.375 37.9731 14.375 36.25V35.625H29.375H30H38.8631L37.4981 27.435C37.4869 24.4906 36.7388 21.57 35.3288 18.985ZM36.235 27.0269L30.1419 28.6888L28.6725 27.5131C27.9275 26.9163 27.5 26.0269 27.5 25.0725V20V19.375C28.1894 19.375 28.75 19.9356 28.75 20.625V25H30V24.0088L34.2962 19.7125C35.4981 21.9625 36.1613 24.4775 36.235 27.0269ZM27.5 18.125C26.8106 18.125 26.25 18.6856 26.25 19.375V20C26.25 20.3444 25.9694 20.625 25.625 20.625C25.2806 20.625 25 20.3444 25 20V19.375C25 17.9963 26.1213 16.875 27.5 16.875H29.1162L27.8325 18.1588C27.7225 18.1438 27.6138 18.125 27.5 18.125ZM20.6556 28.795L21.4781 26.7375L23.2625 28.5219L21.2044 29.345C20.94 29.4525 20.625 29.2394 20.625 28.9519C20.625 28.8975 20.635 28.845 20.6556 28.795ZM24.375 27.8662L22.1338 25.625L25.9131 21.8456C26.03 21.8275 26.1419 21.7981 26.25 21.7594V25.0719C26.25 25.3556 26.2825 25.6331 26.335 25.9056L24.375 27.8662ZM23.865 20.625H16.875V18.125H23.9688C23.83 18.5169 23.75 18.9363 23.75 19.375V20C23.75 20.22 23.795 20.4287 23.865 20.625ZM16.875 21.875H24.1162L21.6162 24.375H16.875V21.875ZM16.875 25.625H20.5769L19.5769 28.125H16.875V25.625ZM16.875 29.375H19.4362C19.625 30.0919 20.2731 30.625 21.0488 30.625C21.2631 30.625 21.4725 30.585 21.67 30.5056L23.125 29.9231V31.875H16.875V29.375ZM24.375 29.4231L24.7262 29.2825L26.8075 27.2013C26.83 27.2419 26.8506 27.2831 26.875 27.3231V31.875H24.375V29.4231ZM28.125 28.675L29.375 29.675V31.875H28.125V28.675ZM38.125 13.46C38.125 13.8831 37.96 14.2812 37.6606 14.5806L30 22.2412V20.625C30 19.8425 29.6313 19.1513 29.0662 18.6925L35.4194 12.3394C35.7188 12.04 36.1169 11.875 36.54 11.875C37.4137 11.875 38.125 12.5862 38.125 13.46ZM13.125 2.75875V6.25C13.125 6.59438 12.8444 6.875 12.5 6.875H9.00875L13.125 2.75875ZM7.5 10.625C10.6012 10.625 13.125 13.1488 13.125 16.25C13.125 19.3512 10.6012 21.875 7.5 21.875C4.39875 21.875 1.875 19.3512 1.875 16.25C1.875 13.1488 4.39875 10.625 7.5 10.625ZM4.375 22.3662C5.31375 22.8475 6.37437 23.125 7.5 23.125C8.62562 23.125 9.68625 22.8475 10.625 22.3662V25.625H4.375V22.3662ZM11.25 38.125H3.75C2.71625 38.125 1.875 37.2837 1.875 36.25V20.1906C2.23063 20.6969 2.64937 21.1556 3.125 21.5494V25.625C3.125 26.3144 3.68563 26.875 4.375 26.875H10.625C11.3144 26.875 11.875 26.3144 11.875 25.625V21.5494C12.3506 21.1556 12.7694 20.6969 13.125 20.1906V36.25C13.125 37.2837 12.2837 38.125 11.25 38.125ZM14.375 34.375V16.25C14.375 12.67 11.6237 9.72375 8.125 9.40687V8.125H12.5C13.5337 8.125 14.375 7.28375 14.375 6.25V1.875H33.75C34.0944 1.875 34.375 2.15562 34.375 2.5V11.6163L30.3662 15.625H27.5C26.3931 15.625 25.4 16.11 24.7125 16.875H15.625V33.125H29.375V34.375H14.375ZM30.625 34.375V29.8525L36.3719 28.285L37.3869 34.375H30.625Z" fill="#1977CC"/>
<path d="M6.875 19.2844V20.625H8.125V19.2844C8.84687 19.0556 9.375 18.3875 9.375 17.5912C9.375 16.9119 8.9975 16.3 8.38875 15.9956L7.17 15.3869C6.98813 15.2956 6.875 15.1125 6.875 14.9088C6.875 14.6144 7.11438 14.375 7.40875 14.375H7.59125C7.88562 14.375 8.125 14.6144 8.125 14.9088V15.625H9.375V14.9088C9.375 14.1125 8.84687 13.4444 8.125 13.2156V11.875H6.875V13.2156C6.15313 13.4444 5.625 14.1125 5.625 14.9088C5.625 15.5881 6.0025 16.2 6.61125 16.5044L7.83 17.1131C8.01187 17.2044 8.125 17.3875 8.125 17.5912C8.125 17.8856 7.88562 18.125 7.59125 18.125H7.40875C7.11438 18.125 6.875 17.8856 6.875 17.5912V16.875H5.625V17.5912C5.625 18.3875 6.15313 19.0556 6.875 19.2844Z" fill="#1977CC"/>
<path d="M10.625 28.125H4.375C3.68562 28.125 3.125 28.6856 3.125 29.375V35.625C3.125 36.3144 3.68562 36.875 4.375 36.875H10.625C11.3144 36.875 11.875 36.3144 11.875 35.625V29.375C11.875 28.6856 11.3144 28.125 10.625 28.125ZM10.625 30.625H9.375V29.375H10.625V30.625ZM8.125 35.625H6.875V34.375H8.125V35.625ZM8.125 33.125H6.875V31.875H8.125V33.125ZM5.625 33.125H4.375V31.875H5.625V33.125ZM6.875 30.625V29.375H8.125V30.625H6.875ZM5.625 29.375V30.625H4.375V29.375H5.625ZM4.375 34.375H5.625V35.625H4.375V34.375ZM9.375 35.625V31.875H10.6256L10.6263 35.625H9.375Z" fill="#1977CC"/>
<path d="M33.125 3.125H15.625V6.875H33.125V3.125ZM31.875 5.625H16.875V4.375H31.875V5.625Z" fill="#1977CC"/>
<path d="M15.625 8.125H33.125V9.375H15.625V8.125Z" fill="#1977CC"/>
<path d="M15.625 10.625H33.125V11.875H15.625V10.625Z" fill="#1977CC"/>
<path d="M15.625 13.125H25.625V14.375H15.625V13.125Z" fill="#1977CC"/>
</svg>
