<svg width="40" height="40" viewBox="0 0 40 40" fill="none" xmlns="http://www.w3.org/2000/svg">
<g clip-path="url(#clip0)">
<path d="M3.70917 35.3372L26.7905 36.881C27.221 36.9098 27.5934 36.5841 27.6221 36.1536L29.8403 2.98825C29.8692 2.5577 29.5435 2.18544 29.113 2.15661L6.03167 0.612859C5.60112 0.584031 5.22886 0.909734 5.20003 1.3402L2.98175 34.5056C2.953 34.9361 3.27862 35.3085 3.70917 35.3372Z" fill="white"/>
<path d="M1.36719 39.3888H19.0344L25.2812 33.1697V5.3681C25.2812 4.93662 24.9315 4.58685 24.5 4.58685H1.36719C0.935703 4.58685 0.585938 4.93662 0.585938 5.3681V38.6076C0.585938 39.039 0.935703 39.3888 1.36719 39.3888Z" fill="white"/>
<path d="M24.5001 4.58685H21.3751C21.8065 4.58685 22.1563 4.93662 22.1563 5.3681V33.1697L22.1362 36.3008L25.2813 33.1697V5.3681C25.2813 4.93662 24.9315 4.58685 24.5001 4.58685Z" fill="white"/>
<path d="M19.0343 39.3888V33.9003C19.0343 33.4688 19.3841 33.119 19.8156 33.119H25.2812L19.0343 39.3888Z" fill="white"/>
<path d="M36.6122 19.4202L34.005 19.4331V15.4623C34.005 14.7449 34.5881 14.1606 35.3076 14.157H35.3081C36.0282 14.1534 36.6123 14.7329 36.6123 15.4509V19.4202H36.6122Z" fill="#A2DFFF"/>
<path d="M35.3094 39.3887C34.4999 38.5858 34.0441 37.4931 34.0432 36.353L34.0383 30.5738C34.0383 30.5235 34.0793 30.4825 34.1298 30.4822L36.4765 30.4706C36.5271 30.4703 36.568 30.5109 36.568 30.5613L36.5728 36.3487C36.5738 37.4839 36.1237 38.573 35.3217 39.3765L35.3094 39.3887Z" fill="#A2DFFF"/>
<path d="M35.3093 36.6666H35.3085C34.1809 36.6722 33.2664 35.7649 33.2664 34.6404V17.9587C33.2664 17.4291 33.6942 16.999 34.2238 16.9965L36.3821 16.9858C36.9153 16.9831 37.3491 17.4147 37.3491 17.9479V34.6226C37.3491 35.7461 36.436 36.661 35.3093 36.6666Z" fill="white"/>
<path d="M36.3821 16.9856L34.5251 16.9948C34.9968 17.0565 35.3617 17.4589 35.3617 17.9478V34.6226C35.3617 35.39 34.9355 36.0598 34.3065 36.4093C34.6026 36.5745 34.9443 36.6684 35.3085 36.6665H35.3093C36.436 36.6609 37.349 35.746 37.349 34.6226V17.9479C37.3491 17.4146 36.9154 16.983 36.3821 16.9856Z" fill="white"/>
<path d="M38.3808 19.3692L32.7858 19.397C32.2151 19.3998 31.7526 19.8632 31.7526 20.432C31.7526 21.0008 32.2151 21.4596 32.7858 21.4567L37.3475 21.4341V27.4879C37.3475 28.0568 37.8101 28.5155 38.3808 28.5127C38.9515 28.5099 39.414 28.0464 39.414 27.4777V20.3939C39.414 19.8252 38.9514 19.3664 38.3808 19.3692Z" fill="#A2DFFF"/>
<path d="M38.3808 19.3692L35.3776 19.3839L35.3645 21.4395L37.3474 21.4342V27.4881C37.3474 28.0569 37.81 28.5157 38.3807 28.5128C38.9514 28.51 39.414 28.0466 39.414 27.4778V20.3941C39.414 19.8252 38.9514 19.3664 38.3808 19.3692Z" fill="#3DA7FF"/>
<path d="M29.1521 1.57066L6.07086 0.0268362C5.31844 -0.0230075 4.66586 0.547539 4.61547 1.29973L4.43492 3.99949H1.36719C0.613359 3.99949 0 4.61285 0 5.36668V38.6062C0 39.36 0.613359 39.9734 1.36719 39.9734H19.0345C19.1876 39.9734 19.3393 39.9108 19.4479 39.8027L22.1149 37.1475C22.142 37.1532 22.1697 37.1579 22.1981 37.1597L26.7514 37.4643C27.4781 37.5122 28.158 36.9211 28.2068 36.1914L30.425 3.02613C30.4749 2.28176 29.8964 1.62043 29.1521 1.57066ZM19.6204 37.9693V33.8989C19.6204 33.7913 19.708 33.7036 19.8157 33.7036H23.8704L19.6204 37.9693ZM27.0375 36.1132C27.0184 36.2312 26.9491 36.2918 26.8297 36.295L23.2141 36.0532L25.6947 33.5836C25.8052 33.4736 25.8673 33.3242 25.8673 33.1683V5.36676C25.8673 4.61293 25.2539 3.99957 24.5001 3.99957H18.4069C17.6493 3.99957 17.6493 5.17145 18.4069 5.17145H24.5001C24.6078 5.17145 24.6954 5.2591 24.6954 5.36676V32.5318H19.8157C19.0619 32.5318 18.4485 33.1451 18.4485 33.8989V38.8015H1.36719C1.25953 38.8015 1.17187 38.7139 1.17187 38.6062V5.36676C1.17187 5.2591 1.25953 5.17145 1.36719 5.17145H15.2866C16.0441 5.17145 16.0441 3.99957 15.2866 3.99957H5.60937L5.78469 1.37801C5.80375 1.25996 5.87305 1.19941 5.99258 1.19621L29.0738 2.73996C29.1919 2.75902 29.2525 2.82832 29.2557 2.94785L27.0375 36.1132Z" fill="#1977CC"/>
<path d="M20.924 18.5194H4.9433C4.6197 18.5194 4.35736 18.7817 4.35736 19.1053C4.35736 19.4289 4.6197 19.6913 4.9433 19.6913H20.924C21.2477 19.6913 21.5099 19.4289 21.5099 19.1053C21.5099 18.7817 21.2477 18.5194 20.924 18.5194Z" fill="#1977CC"/>
<path d="M20.924 22.6039H4.9433C4.6197 22.6039 4.35736 22.8663 4.35736 23.1899C4.35736 23.5135 4.6197 23.7758 4.9433 23.7758H20.924C21.2477 23.7758 21.5099 23.5135 21.5099 23.1899C21.5099 22.8663 21.2477 22.6039 20.924 22.6039Z" fill="#1977CC"/>
<path d="M4.35736 15.0203C4.35736 15.3439 4.6197 15.6062 4.9433 15.6062H20.924C21.2477 15.6062 21.5099 15.3439 21.5099 15.0203C21.5099 14.6967 21.2477 14.4344 20.924 14.4344H4.9433C4.6197 14.4344 4.35736 14.6967 4.35736 15.0203Z" fill="#1977CC"/>
<path d="M7.1723 10.9356C7.1723 11.2592 7.43465 11.5216 7.75824 11.5216H18.1088C18.4324 11.5216 18.6947 11.2592 18.6947 10.9356C18.6947 10.612 18.4324 10.3497 18.1088 10.3497H7.75824C7.43465 10.3497 7.1723 10.612 7.1723 10.9356Z" fill="#1977CC"/>
<path d="M15.2154 34.2799C14.1615 34.2828 13.1077 34.285 12.0539 34.2867C11.6996 34.2872 11.3455 34.2877 10.9914 34.2879C10.3496 34.2884 9.91715 34.1596 9.7734 33.4536C9.65184 32.8567 8.80746 32.937 8.6434 33.4536C8.23793 34.7299 7.56731 34.2299 7.19168 33.3714C6.81692 32.5149 6.72082 31.5563 6.55715 30.6448C6.43684 29.975 5.42387 30.1628 5.40621 30.8006C5.38293 31.6405 5.30449 32.4671 5.09129 33.2817C4.87137 34.1221 4.54176 34.9299 4.21457 35.7329C3.92934 36.433 5.06356 36.7342 5.34457 36.0445C5.63449 35.3329 5.92481 34.6174 6.1409 33.8793C6.54246 34.8449 7.37324 35.9371 8.55707 35.2935C8.77731 35.1737 8.98301 35.0035 9.16356 34.8049C9.77918 35.5164 10.6955 35.4603 11.5529 35.4592C12.7738 35.4577 13.9947 35.455 15.2155 35.4518C15.9693 35.4499 15.9707 34.278 15.2154 34.2799Z" fill="#1977CC"/>
<path d="M39.5258 19.253C39.2213 18.95 38.8028 18.7947 38.3778 18.7832L37.9349 18.7854V17.9479C37.9349 17.4379 37.632 16.899 37.198 16.6306V15.4511C37.198 13.0238 33.4189 13.0343 33.4189 15.4625V16.6422C32.9768 16.9154 32.6802 17.4032 32.6802 17.9587V18.8167C30.7298 18.9495 30.7242 21.9218 32.6824 22.0379C32.6949 24.661 32.6943 27.2411 32.6802 29.908C32.6764 30.6435 33.8481 30.6866 33.8521 29.9142C33.8662 27.245 33.8668 24.6626 33.8544 22.0374L36.7615 22.0229C36.7615 22.0229 36.7577 30.6829 36.7577 34.5842C36.7577 36.4856 33.85 36.4983 33.85 34.5644L33.851 33.4959C33.8967 32.7397 32.727 32.6691 32.6813 33.4253V34.4279C32.6813 35.2873 32.947 36.0151 33.4616 36.5271C33.5073 37.7531 34.0239 38.9394 34.8966 39.8049C35.147 40.0533 35.4937 39.9774 35.736 39.7907C36.6239 38.9012 37.1242 37.7286 37.1555 36.4771C37.5423 36.0919 37.9295 35.704 37.9295 34.3758L37.93 29.0359C38.9433 29.3241 39.9999 28.54 39.9999 27.4776V20.3939C39.9999 19.9624 39.8315 19.5572 39.5258 19.253ZM33.8521 18.8056V17.9586C33.8521 17.7853 33.9711 17.6399 34.1313 17.5967L36.477 17.585C36.5426 17.6013 36.6031 17.6323 36.6522 17.6812C36.7237 17.7524 36.7631 17.8471 36.7631 17.9479V18.7912L33.8521 18.8056ZM35.3108 14.7431C35.6705 14.7431 36.026 15.0958 36.026 15.4511V16.4015L34.5907 16.4086V15.4625C34.5908 15.0677 34.9136 14.745 35.3108 14.7431ZM35.3099 38.4854C35.0375 38.0993 34.8405 37.6626 34.7305 37.2036C34.9119 37.2429 35.0956 37.2634 35.2795 37.2634C35.4847 37.2634 35.6899 37.2379 35.8919 37.1886C35.7845 37.6546 35.5878 38.0939 35.3099 38.4854ZM38.828 27.4776C38.828 28.0324 37.9333 28.0761 37.9333 27.4879C37.9333 27.4879 37.9343 21.943 37.9349 21.4347C37.9353 21.1069 37.6628 20.8481 37.3445 20.8481L32.7828 20.8708C32.217 20.8708 32.2302 19.9855 32.7886 19.9828L38.3835 19.955C38.6541 19.9781 38.8022 20.1244 38.8279 20.3939V27.4776H38.828Z" fill="#1977CC"/>
</g>
<defs>
<clipPath id="clip0">
<rect width="40" height="40" fill="white"/>
</clipPath>
</defs>
</svg>
