<svg width="40" height="40" viewBox="0 0 40 40" fill="none" xmlns="http://www.w3.org/2000/svg">
<path d="M31.9055 18.1056C31.9055 11.5291 26.5742 6.19775 19.9977 6.19775C13.4212 6.19775 8.08984 11.5291 8.08984 18.1056V26.1212C8.08984 32.6977 13.4212 38.029 19.9977 38.029C26.5742 38.029 31.9055 32.6977 31.9055 26.1212V18.1056Z" fill="white"/>
<path d="M38.027 25.0212L35.9373 26.514H33.8567V17.7393H35.9373L38.027 19.2053V25.0212Z" fill="#A2DFFF"/>
<path d="M1.97266 25.0212L4.06234 26.514H6.14297V17.7393H4.06234L1.97266 19.2053V25.0212Z" fill="#A2DFFF"/>
<path d="M6.1458 17.7393C6.2206 14.115 7.71282 10.6643 10.3024 8.12735C12.8919 5.59044 16.3725 4.1694 19.9977 4.16903C23.6228 4.16948 27.1034 5.59055 29.6929 8.12744C32.2824 10.6643 33.7747 14.115 33.8495 17.7393H35.9374C35.8919 13.5417 34.1925 9.53139 31.2082 6.57905C28.2239 3.6267 24.1956 1.97061 19.9977 1.97028C15.7998 1.97061 11.7714 3.6267 8.78713 6.57905C5.80284 9.53139 4.10349 13.5417 4.05798 17.7393H6.1458Z" fill="#A2DFFF"/>
<path d="M31.9062 18.1059V21.5434C31.3472 21.6224 30.7833 21.6621 30.2187 21.6621C28.1472 21.6629 26.112 21.1183 24.3177 20.0832C22.5234 19.0481 21.0332 17.5589 19.9968 15.7652C18.9612 17.5588 17.4715 19.048 15.6777 20.0831C13.8839 21.1183 11.8491 21.6629 9.77808 21.6621C9.21349 21.6622 8.64959 21.6225 8.09058 21.5434V18.1059C8.09058 14.9477 9.34515 11.9189 11.5783 9.68578C13.8114 7.45263 16.8402 6.19806 19.9984 6.19806C23.1565 6.19806 26.1853 7.45263 28.4185 9.68578C30.6516 11.9189 31.9062 14.9477 31.9062 18.1059Z" fill="#A2DFFF"/>
<path d="M23.3439 30.4871H21.1774C20.4953 30.4871 19.9424 31.04 19.9424 31.7221C19.9424 32.4041 20.4953 32.9571 21.1774 32.9571H23.3439C24.026 32.9571 24.5789 32.4041 24.5789 31.7221C24.5789 31.04 24.026 30.4871 23.3439 30.4871Z" fill="#A2DFFF"/>
<path d="M38.3411 18.7576L36.4761 17.4491C36.3948 14.3982 35.4653 11.4302 33.7917 8.87789C33.7523 8.81783 33.7015 8.76611 33.6421 8.7257C33.5827 8.68529 33.516 8.65697 33.4456 8.64236C33.3753 8.62775 33.3028 8.62714 33.2322 8.64055C33.1617 8.65396 33.0944 8.68115 33.0344 8.72054C32.9743 8.75994 32.9226 8.81078 32.8822 8.87016C32.8418 8.92954 32.8135 8.9963 32.7989 9.06663C32.7843 9.13695 32.7836 9.20947 32.7971 9.28003C32.8105 9.3506 32.8377 9.41783 32.877 9.47789C34.3868 11.7787 35.2496 14.4435 35.3749 17.1926H34.3749C34.1625 13.5232 32.5552 10.074 29.8822 7.55121C27.2092 5.02846 23.6728 3.62317 19.9974 3.62317C16.3219 3.62317 12.7855 5.02846 10.1125 7.55121C7.43952 10.074 5.83224 13.5232 5.61986 17.1926H4.61986C4.74623 14.4981 5.57827 11.8841 7.03266 9.61234C8.48705 7.34057 10.5127 5.49075 12.9069 4.24812C15.3011 3.00548 17.9797 2.41363 20.6745 2.53184C23.3694 2.65004 25.9859 3.47415 28.262 4.92164C28.3842 4.99597 28.5307 5.01948 28.67 4.98712C28.8093 4.95477 28.9304 4.86913 29.0073 4.74855C29.0842 4.62798 29.1109 4.48207 29.0815 4.3421C29.0521 4.20213 28.9691 4.07924 28.8502 3.99976C26.3906 2.43532 23.5601 1.55097 20.6474 1.43684C17.7346 1.32271 14.8437 1.98288 12.2692 3.35007C9.6947 4.71726 7.52873 6.74259 5.99202 9.21962C4.45531 11.6967 3.60282 14.5368 3.52142 17.4507L1.65861 18.7576C1.58672 18.8081 1.52804 18.8751 1.48752 18.9531C1.447 19.031 1.42583 19.1175 1.4258 19.2054V21.1448C1.4258 21.2898 1.48341 21.4289 1.58597 21.5315C1.68853 21.634 1.82763 21.6916 1.97267 21.6916C2.11771 21.6916 2.25681 21.634 2.35937 21.5315C2.46193 21.4289 2.51955 21.2898 2.51955 21.1448V19.4885L4.23486 18.2851H5.59611V25.9685H4.23767L2.51892 24.741V23.5438C2.51892 23.3988 2.4613 23.2597 2.35874 23.1571C2.25619 23.0546 2.11709 22.9969 1.97205 22.9969C1.82701 22.9969 1.68791 23.0546 1.58535 23.1571C1.48279 23.2597 1.42517 23.3988 1.42517 23.5438V25.0213C1.42537 25.1085 1.44643 25.1944 1.48661 25.2719C1.52678 25.3493 1.5849 25.416 1.65611 25.4663L3.74548 26.9594C3.83786 27.0258 3.94862 27.0617 4.06236 27.0623H6.14298C6.288 27.0622 6.42705 27.0045 6.52959 26.902C6.63213 26.7995 6.68978 26.6604 6.68986 26.5154V17.7732C6.68986 17.7657 6.69236 17.7582 6.69267 17.7504C6.76426 14.2691 8.19748 10.9544 10.6849 8.51769C13.1722 6.08094 16.5156 4.71616 19.9977 4.71616C23.4797 4.71616 26.8231 6.08094 29.3105 8.51769C31.7979 10.9544 33.2311 14.2691 33.3027 17.7504C33.3027 17.771 33.3074 17.7904 33.3099 17.8101V26.5144C33.3099 26.6595 33.3676 26.7985 33.4701 26.9011C33.5727 27.0036 33.7117 27.0612 33.8567 27.0613H34.3502V27.6913C34.3484 28.5222 34.0499 29.3252 33.5084 29.9554C32.967 30.5857 32.2182 31.0018 31.397 31.1288C32.0939 29.5508 32.4534 27.8445 32.4524 26.1194V18.1057C32.4524 14.8025 31.1402 11.6346 28.8045 9.2989C26.4688 6.9632 23.3009 5.65101 19.9977 5.65101C16.6945 5.65101 13.5266 6.9632 11.1909 9.2989C8.85517 11.6346 7.54298 14.8025 7.54298 18.1057V26.121C7.54215 28.8702 8.45123 31.5423 10.1284 33.7206C11.8056 35.8988 14.1566 37.4608 16.8146 38.1627C19.4726 38.8646 22.2882 38.6671 24.8222 37.601C27.3562 36.5348 29.466 34.6599 30.8227 32.2688H30.8664C32.08 32.2675 33.2436 31.7848 34.1017 30.9266C34.9599 30.0685 35.4426 28.9049 35.4439 27.6913V27.0623H35.9374C36.0514 27.0623 36.1626 27.0267 36.2555 26.9604L38.3449 25.4673C38.4157 25.4167 38.4735 25.3499 38.5133 25.2725C38.5532 25.1951 38.5739 25.1093 38.5739 25.0223V19.2054C38.5739 19.1175 38.5527 19.031 38.5122 18.9531C38.4717 18.8751 38.413 18.8081 38.3411 18.7576ZM19.9974 6.74476C23.0093 6.74848 25.8969 7.94663 28.0266 10.0764C30.1564 12.2062 31.3546 15.0937 31.3583 18.1057V21.0507C30.9792 21.0912 30.5983 21.1127 30.217 21.1151C28.2427 21.1103 26.304 20.5886 24.594 19.6017C22.884 18.6148 21.4623 17.1972 20.4705 15.4901C20.4224 15.4072 20.3534 15.3383 20.2704 15.2905C20.1873 15.2427 20.0932 15.2175 19.9974 15.2175C19.9015 15.2175 19.8074 15.2427 19.7243 15.2905C19.6413 15.3383 19.5723 15.4072 19.5242 15.4901C18.5324 17.1972 17.1107 18.6148 15.4007 19.6017C13.6907 20.5886 11.752 21.1103 9.77767 21.1151C9.39642 21.1127 9.01552 21.0912 8.63642 21.0507V18.1057C8.64014 15.0937 9.83833 12.2061 11.9682 10.0763C14.098 7.94651 16.9857 6.7484 19.9977 6.74476H19.9974ZM19.9974 37.4819C16.9854 37.4781 14.098 36.28 11.9683 34.1502C9.83856 32.0204 8.64045 29.1329 8.63673 26.121V22.1501C9.01611 22.1848 9.39705 22.2088 9.77798 22.2088C11.7932 22.204 13.7769 21.7081 15.5574 20.7642C17.338 19.8204 18.8617 18.4568 19.9967 16.7916C21.1321 18.4573 22.6563 19.8211 24.4374 20.765C26.2185 21.7089 28.2028 22.2045 30.2186 22.2088C30.5995 22.2088 30.9805 22.1848 31.3599 22.1501V26.121C31.3608 27.8754 30.953 29.6058 30.1686 31.1751H25.0389C24.9229 30.8166 24.6964 30.5041 24.3918 30.2823C24.0873 30.0605 23.7204 29.9408 23.3436 29.9404H21.1774C20.7049 29.9404 20.2519 30.1281 19.9178 30.4621C19.5838 30.7962 19.3961 31.2492 19.3961 31.7216C19.3961 32.1941 19.5838 32.6471 19.9178 32.9812C20.2519 33.3152 20.7049 33.5029 21.1774 33.5029H23.3436C23.7203 33.5023 24.0872 33.3825 24.3917 33.1607C24.6962 32.9388 24.9226 32.6263 25.0386 32.2679H29.5439C28.516 33.8662 27.1034 35.1811 25.4356 36.092C23.7678 37.003 21.898 37.4809 19.9977 37.4819H19.9974ZM24.0286 31.7554C24.0202 31.9315 23.9444 32.0976 23.817 32.2195C23.6896 32.3413 23.5202 32.4096 23.3439 32.4101H21.1774C20.995 32.4101 20.8202 32.3376 20.6912 32.2087C20.5623 32.0798 20.4899 31.9049 20.4899 31.7226C20.4899 31.5402 20.5623 31.3654 20.6912 31.2364C20.8202 31.1075 20.995 31.0351 21.1774 31.0351H23.3436C23.5199 31.0356 23.6893 31.1038 23.8167 31.2257C23.9441 31.3475 24.0199 31.5137 24.0283 31.6898C24.0283 31.701 24.0249 31.7116 24.0249 31.7229C24.0249 31.7341 24.0277 31.7441 24.0286 31.7554ZM37.4802 24.7401L35.7614 25.9676H34.403V18.2863H35.7642L37.4795 19.4898L37.4802 24.7401Z" fill="#1977CC"/>
<path d="M31.4145 7.5858C31.5117 7.69354 31.6478 7.75824 31.7928 7.76565C31.9377 7.77306 32.0797 7.72259 32.1874 7.62533C32.2952 7.52807 32.3599 7.39199 32.3673 7.24703C32.3747 7.10207 32.3242 6.9601 32.227 6.85236C31.8792 6.46767 31.5082 6.09548 31.1273 5.74611C31.0743 5.69762 31.0123 5.66005 30.9448 5.63553C30.8773 5.611 30.8056 5.60002 30.7339 5.6032C30.6621 5.60637 30.5917 5.62365 30.5266 5.65404C30.4616 5.68444 30.4031 5.72735 30.3546 5.78033C30.3061 5.83331 30.2686 5.89532 30.244 5.96282C30.2195 6.03032 30.2085 6.102 30.2117 6.17374C30.2149 6.24549 30.2322 6.31591 30.2626 6.38098C30.293 6.44605 30.3359 6.5045 30.3889 6.55298C30.7442 6.87923 31.0898 7.22673 31.4145 7.5858Z" fill="#1977CC"/>
</svg>
