<svg width="40" height="40" viewBox="0 0 40 40" fill="none" xmlns="http://www.w3.org/2000/svg">
<path d="M22.9919 27.7638C22.89 28.3875 22.7281 28.99 22.51 29.5662L24.4669 31.3394C24.1925 31.9169 23.88 32.4719 23.5194 32.9931L21.0069 32.1831C20.6106 32.6675 20.1669 33.1106 19.6825 33.5069L20.4925 36.0194C19.9712 36.38 19.4163 36.6919 18.8388 36.9669L17.0656 35.01C16.4894 35.2281 15.8875 35.39 15.2631 35.4919L14.705 38.0769C14.3894 38.1019 14.0725 38.125 13.75 38.125C13.4275 38.125 13.1106 38.1019 12.7944 38.0769L12.2362 35.4919C11.6125 35.39 11.01 35.2281 10.4338 35.01L8.66063 36.9669C8.08313 36.6925 7.52813 36.38 7.00688 36.0194L7.81687 33.5069C7.3325 33.1106 6.88937 32.6669 6.49312 32.1831L3.98062 32.9931C3.62 32.4719 3.30813 31.9169 3.03313 31.3394L4.99 29.5662C4.77188 28.99 4.61 28.3881 4.50812 27.7638L1.92312 27.2056C1.89812 26.8894 1.875 26.5725 1.875 26.25C1.875 25.9275 1.89812 25.6106 1.92312 25.2944L4.50812 24.7362C4.61 24.1125 4.77188 23.51 4.99 22.9338L3.03313 21.1606C3.3075 20.5831 3.62 20.0281 3.98062 19.5069L6.49312 20.3169C6.88937 19.8325 7.33313 19.3894 7.8175 18.9931L7.0075 16.4806C7.52875 16.12 8.08375 15.8081 8.66125 15.5331L10.4344 17.49C11.0106 17.2719 11.6125 17.11 12.2369 17.0081L12.795 14.4231C13.1106 14.3981 13.4275 14.375 13.75 14.375C14.0725 14.375 14.3894 14.3981 14.7056 14.4231L15.2638 17.0081C15.8875 17.11 16.49 17.2719 17.0662 17.49L18.8394 15.5331C19.4169 15.8075 19.9719 16.12 20.4931 16.4806L19.6831 18.9931C20.1675 19.3894 20.6106 19.8331 21.0069 20.3175L23.5194 19.5075C23.88 20.0287 24.1919 20.5838 24.4669 21.1613L22.51 22.9344C22.7281 23.5106 22.89 24.1125 22.9919 24.7369L25.5769 25.295C25.6019 25.6106 25.625 25.9275 25.625 26.25C25.625 26.5725 25.6019 26.8894 25.5769 27.2056L22.9919 27.7638ZM13.75 20C10.2981 20 7.5 22.7981 7.5 26.25C7.5 29.7019 10.2981 32.5 13.75 32.5C17.2019 32.5 20 29.7019 20 26.25C20 22.7981 17.2019 20 13.75 20Z" fill="white"/>
<path d="M31.6619 10.1906C31.5644 10.5138 31.4369 10.8237 31.28 11.1156L32.2669 13.0069C31.9337 13.4281 31.5538 13.8081 31.1325 14.1412L29.2412 13.1544C28.9494 13.3119 28.6394 13.4394 28.3162 13.5363L27.6763 15.5737C27.4125 15.605 27.1462 15.625 26.875 15.625C26.6038 15.625 26.3375 15.605 26.0744 15.5744L25.4344 13.5369C25.1112 13.44 24.8012 13.3119 24.5094 13.155L22.6181 14.1419C22.1969 13.8088 21.8169 13.4288 21.4838 13.0075L22.4706 11.1162C22.3131 10.8244 22.1856 10.5144 22.0887 10.1912L20.0513 9.55125C20.02 9.2875 20 9.02125 20 8.75C20 8.47875 20.02 8.2125 20.0506 7.94938L22.0881 7.30937C22.185 6.98625 22.3131 6.67625 22.47 6.38438L21.4831 4.49312C21.8163 4.07188 22.1962 3.69187 22.6175 3.35875L24.5088 4.34562C24.8006 4.18813 25.1106 4.06063 25.4338 3.96375L26.0737 1.92625C26.3375 1.895 26.6038 1.875 26.875 1.875C27.1462 1.875 27.4125 1.895 27.6756 1.92563L28.3156 3.96312C28.6388 4.06 28.9487 4.18813 29.2406 4.345L31.1319 3.35813C31.5531 3.69125 31.9331 4.07125 32.2662 4.4925L31.2794 6.38375C31.4369 6.67562 31.5644 6.98563 31.6613 7.30875L33.6987 7.94875C33.73 8.2125 33.75 8.47875 33.75 8.75C33.75 9.02125 33.73 9.2875 33.6994 9.55062L31.6619 10.1906ZM26.875 6.25C25.4944 6.25 24.375 7.36937 24.375 8.75C24.375 10.1306 25.4944 11.25 26.875 11.25C28.2556 11.25 29.375 10.1306 29.375 8.75C29.375 7.36937 28.2556 6.25 26.875 6.25Z" fill="#A2DFFF"/>
<path d="M36.7119 24.2944C36.6156 24.6412 36.48 24.97 36.3062 25.2769L36.9281 26.5856C36.6456 26.9462 36.3212 27.2706 35.9606 27.5531L34.6519 26.9312C34.3456 27.105 34.0162 27.2406 33.6694 27.3369L33.1831 28.7044C32.9587 28.7319 32.7319 28.75 32.5 28.75C32.2681 28.75 32.0413 28.7319 31.8169 28.7044L31.3306 27.3369C30.9838 27.2406 30.655 27.105 30.3481 26.9312L29.0394 27.5531C28.6788 27.2706 28.3544 26.9462 28.0719 26.5856L28.6937 25.2769C28.52 24.9706 28.3844 24.6413 28.2881 24.295L26.9206 23.8088C26.8931 23.5838 26.875 23.3569 26.875 23.125C26.875 22.8931 26.8931 22.6663 26.9206 22.4419L28.2881 21.9556C28.3844 21.6088 28.52 21.28 28.6937 20.9737L28.0719 19.665C28.3544 19.3044 28.6788 18.98 29.0394 18.6975L30.3481 19.3194C30.6544 19.1456 30.9838 19.01 31.3306 18.9137L31.8169 17.5462C32.0413 17.5181 32.2681 17.5 32.5 17.5C32.7319 17.5 32.9587 17.5181 33.1831 17.5456L33.6694 18.9131C34.0162 19.0094 34.345 19.145 34.6519 19.3187L35.9606 18.6969C36.3212 18.9794 36.6456 19.3037 36.9281 19.6644L36.3062 20.9731C36.48 21.2794 36.6156 21.6088 36.7119 21.9556L38.0794 22.4419C38.1069 22.6663 38.125 22.8931 38.125 23.125C38.125 23.3569 38.1069 23.5837 38.0794 23.8081L36.7119 24.2944ZM32.5 21.25C31.4644 21.25 30.625 22.0894 30.625 23.125C30.625 24.1606 31.4644 25 32.5 25C33.5356 25 34.375 24.1606 34.375 23.125C34.375 22.0894 33.5356 21.25 32.5 21.25Z" fill="#A2DFFF"/>
<path d="M1.3 27.255C1.32187 27.53 1.52125 27.7581 1.79125 27.8162L3.96937 28.2862C4.04625 28.6575 4.14375 29.0237 4.26187 29.3812L2.61313 30.875C2.40875 31.06 2.35 31.3575 2.46875 31.6068C2.77 32.2406 3.10563 32.8262 3.46625 33.3475C3.6225 33.5737 3.90875 33.6712 4.17188 33.5868L6.28875 32.905C6.54188 33.1887 6.81125 33.4581 7.095 33.7112L6.41313 35.8281C6.32875 36.09 6.42562 36.3768 6.6525 36.5337C7.17375 36.8943 7.75938 37.23 8.39313 37.5312C8.64313 37.65 8.94 37.5906 9.125 37.3868L10.6187 35.7381C10.9769 35.8556 11.3431 35.9537 11.7144 36.0306L12.1844 38.2087C12.2425 38.4781 12.4706 38.6775 12.745 38.7C13.0775 38.7262 13.4106 38.75 13.75 38.75C14.0894 38.75 14.4225 38.7262 14.755 38.7C15.03 38.6781 15.2581 38.4787 15.3162 38.2087L15.7862 36.0306C16.1575 35.9537 16.5244 35.8562 16.8819 35.7381L18.3756 37.3868C18.5612 37.5912 18.8587 37.6506 19.1075 37.5312C19.7413 37.23 20.3269 36.8937 20.8481 36.5337C21.075 36.3768 21.1719 36.09 21.0875 35.8281L20.4056 33.7112C20.6894 33.4581 20.9587 33.1887 21.2119 32.9056L23.3288 33.5875C23.5906 33.6725 23.8775 33.575 24.0344 33.3481C24.395 32.8268 24.7306 32.2412 25.0319 31.6075C25.1506 31.3581 25.0919 31.0606 24.8875 30.8756L23.2388 29.3818C23.3562 29.0237 23.4544 28.6575 23.5312 28.2862L25.7094 27.8162C25.9787 27.7581 26.1781 27.53 26.2006 27.2556C26.2263 26.9225 26.25 26.5893 26.25 26.25C26.25 25.9106 26.2262 25.5775 26.2 25.245C26.1781 24.97 25.9788 24.7418 25.7087 24.6837L23.5306 24.2137C23.4537 23.8425 23.3563 23.4756 23.2381 23.1181L24.8869 21.6243C25.0912 21.4393 25.15 21.1418 25.0312 20.8925C24.73 20.2587 24.3937 19.6731 24.0337 19.1518C23.8769 18.925 23.59 18.8275 23.3281 18.9125L21.2113 19.5943C20.9581 19.3106 20.6887 19.0412 20.405 18.7881L21.0869 16.6712C21.1712 16.4093 21.0744 16.1225 20.8475 15.9656C20.3263 15.605 19.7406 15.2693 19.1069 14.9681C18.8569 14.8487 18.56 14.9081 18.375 15.1125L16.8813 16.7612C16.5231 16.6437 16.1569 16.5456 15.7856 16.4687L15.3156 14.2906C15.2575 14.0212 15.0294 13.8218 14.755 13.7993C14.0894 13.7456 13.41 13.7468 12.7444 13.7993C12.4694 13.8212 12.2413 14.0206 12.1831 14.2906L11.7131 16.4687C11.3419 16.5456 10.9756 16.6431 10.6181 16.7612L9.12437 15.1125C8.93937 14.9081 8.6425 14.8493 8.3925 14.9681C7.75875 15.2693 7.17312 15.605 6.65187 15.9656C6.425 16.1225 6.32812 16.4093 6.4125 16.6712L7.09437 18.7881C6.81063 19.0412 6.54125 19.3106 6.28813 19.5943L4.17188 18.9125C3.90938 18.8275 3.6225 18.925 3.46625 19.1518C3.10563 19.6731 2.77 20.2587 2.46875 20.8925C2.35 21.1418 2.40875 21.4393 2.61313 21.6243L4.26187 23.1181C4.14437 23.4762 4.04625 23.8425 3.96937 24.2137L1.79125 24.6837C1.52187 24.7418 1.3225 24.97 1.3 25.2443C1.27375 25.5775 1.25 25.9106 1.25 26.25C1.25 26.5893 1.27375 26.9225 1.3 27.255ZM2.51312 25.8068L4.63937 25.3475C4.89062 25.2931 5.08313 25.0906 5.12438 24.8368C5.21813 24.2606 5.36938 23.695 5.57375 23.155C5.665 22.915 5.59938 22.6431 5.40875 22.4706L3.80312 21.0156C3.94313 20.7475 4.08938 20.4906 4.24062 20.2475L6.30063 20.9112C6.54438 20.9893 6.81312 20.9112 6.97625 20.7125C7.345 20.2612 7.76125 19.8456 8.2125 19.4762C8.41125 19.3137 8.49062 19.0456 8.41125 18.8006L7.7475 16.7406C7.99062 16.5887 8.24687 16.4425 8.51562 16.3031L9.97062 17.9093C10.1438 18.1 10.4163 18.1656 10.6556 18.0743C11.1944 17.87 11.76 17.7187 12.3369 17.625C12.5906 17.5837 12.7931 17.3912 12.8475 17.14L13.3063 15.0137C13.6006 14.9981 13.9 14.9975 14.1931 15.0137L14.6525 17.14C14.7069 17.3912 14.9094 17.5837 15.1631 17.625C15.7394 17.7187 16.305 17.87 16.845 18.0743C17.0837 18.1656 17.3563 18.1006 17.5294 17.9093L18.9844 16.3037C19.2525 16.4437 19.5094 16.59 19.7525 16.7412L19.0887 18.8012C19.01 19.0462 19.0888 19.3137 19.2875 19.4768C19.7388 19.8456 20.1544 20.2618 20.5238 20.7131C20.6869 20.9125 20.955 20.9918 21.1994 20.9118L23.2594 20.2481C23.4112 20.4912 23.5575 20.7475 23.6969 21.0156L22.0906 22.4706C21.9 22.6431 21.8344 22.915 21.9256 23.1556C22.13 23.6943 22.2812 24.26 22.375 24.8368C22.4163 25.0906 22.6087 25.2931 22.86 25.3475L24.9862 25.8062C24.9944 25.9531 25 26.1012 25 26.25C25 26.3987 24.995 26.5468 24.9869 26.6931L22.8606 27.1525C22.6094 27.2068 22.4169 27.4093 22.3756 27.6631C22.2819 28.2393 22.1306 28.805 21.9263 29.345C21.835 29.585 21.9006 29.8568 22.0913 30.0293L23.6969 31.4843C23.5569 31.7525 23.4106 32.0093 23.2594 32.2525L21.1994 31.5887C20.9537 31.5087 20.6869 31.5881 20.5238 31.7875C20.1556 32.2375 19.7394 32.6537 19.2875 33.0237C19.0888 33.1862 19.01 33.4543 19.0887 33.6987L19.7525 35.7587C19.5094 35.9106 19.2531 36.0568 18.985 36.1962L17.53 34.59C17.3575 34.3993 17.0856 34.335 16.845 34.425C16.3062 34.6293 15.7406 34.7806 15.1637 34.8743C14.91 34.9156 14.7075 35.1081 14.6531 35.3593L14.1944 37.4856C13.9 37.5012 13.6006 37.5018 13.3075 37.4856L12.8481 35.3593C12.7937 35.1081 12.5912 34.9156 12.3375 34.8743C11.7612 34.7806 11.1956 34.6293 10.6556 34.425C10.4163 34.3337 10.1438 34.3987 9.97125 34.59L8.51625 36.1956C8.24813 36.0556 7.99125 35.9093 7.74813 35.7581L8.41187 33.6981C8.49062 33.4531 8.41187 33.1856 8.21312 33.0225C7.76187 32.6537 7.34625 32.2375 6.97688 31.7862C6.81375 31.5868 6.545 31.5081 6.30125 31.5875L4.24125 32.2512C4.08937 32.0081 3.94313 31.7518 3.80375 31.4831L5.41 30.0281C5.60063 29.8556 5.66625 29.5837 5.575 29.3431C5.37063 28.8043 5.21938 28.2387 5.12563 27.6618C5.08438 27.4081 4.89188 27.2056 4.64062 27.1512L2.51312 26.6937C2.50562 26.5468 2.5 26.3987 2.5 26.25C2.5 26.1012 2.505 25.9531 2.51312 25.8068Z" fill="#1977CC"/>
<path d="M33.8869 10.1469C34.1219 10.0731 34.2919 9.86752 34.32 9.62252C34.3575 9.3069 34.375 9.02127 34.375 8.75002C34.375 8.47877 34.3575 8.19315 34.3206 7.87752C34.2925 7.63252 34.1225 7.4269 33.8875 7.35315L32.1544 6.80877C32.1025 6.6669 32.045 6.52752 31.9819 6.39127L32.8219 4.7819C32.9356 4.56377 32.9106 4.29877 32.7581 4.10502C32.3962 3.64752 31.98 3.23127 31.5212 2.86815C31.3275 2.71502 31.0625 2.69065 30.8444 2.80377L29.2337 3.64377C29.0975 3.58127 28.9581 3.52377 28.8162 3.4719L28.2719 1.73877C28.1981 1.50377 27.9925 1.33377 27.7475 1.30565C27.115 1.2319 26.6344 1.2319 26.0019 1.30565C25.7569 1.33377 25.5512 1.50377 25.4775 1.73877L24.9331 3.4719C24.7913 3.52377 24.6519 3.58127 24.5156 3.6444L22.9063 2.8044C22.6881 2.69127 22.4238 2.71565 22.2294 2.86815C21.7719 3.23002 21.3556 3.64627 20.9925 4.10502C20.8394 4.29877 20.8144 4.56315 20.9281 4.7819L21.7675 6.39127C21.705 6.52752 21.6475 6.6669 21.5956 6.80877L19.8625 7.35315C19.6275 7.4269 19.4575 7.63252 19.4294 7.87752C19.3925 8.19315 19.375 8.47877 19.375 8.75002C19.375 9.02127 19.3925 9.3069 19.4294 9.62252C19.4575 9.86752 19.6275 10.0731 19.8625 10.1469L21.5956 10.6913C21.6475 10.8331 21.705 10.9725 21.7681 11.1088L20.9281 12.7182C20.8144 12.9363 20.8394 13.2013 20.9919 13.395C21.3538 13.8525 21.77 14.2688 22.2288 14.6319C22.4219 14.785 22.6875 14.8094 22.9056 14.6963L24.515 13.8569C24.6512 13.9194 24.7906 13.9769 24.9325 14.0288L25.4769 15.7619C25.5506 15.9969 25.7563 16.1669 26.0013 16.195C26.3181 16.2325 26.6038 16.25 26.875 16.25C27.1462 16.25 27.4319 16.2325 27.7475 16.1957C27.9925 16.1675 28.1981 15.9975 28.2719 15.7625L28.8162 14.0294C28.9581 13.9775 29.0975 13.92 29.2337 13.8569L30.8431 14.6969C31.0612 14.8106 31.3262 14.7863 31.52 14.6332C31.9775 14.2713 32.3937 13.855 32.7569 13.3963C32.91 13.2025 32.935 12.9381 32.8212 12.7194L31.9812 11.11C32.0444 10.9738 32.1019 10.8344 32.1537 10.6925L33.8869 10.1469ZM31.4744 9.5944C31.2769 9.6569 31.1231 9.81252 31.0631 10.0113C30.9781 10.2938 30.8656 10.5656 30.7294 10.82C30.6312 11.0025 30.6294 11.2219 30.7256 11.405L31.5188 12.925C31.3706 13.0894 31.2137 13.2463 31.05 13.3938L29.53 12.6006C29.3463 12.5044 29.1269 12.5069 28.945 12.6044C28.6906 12.7406 28.4188 12.8531 28.1363 12.9381C27.9381 12.9975 27.7819 13.1519 27.7194 13.3494L27.2044 14.9894C26.9763 15.0031 26.7744 15.0031 26.5456 14.9894L26.0306 13.3494C25.9681 13.1519 25.8125 12.9981 25.6137 12.9381C25.3306 12.8531 25.0587 12.7406 24.8056 12.6044C24.6231 12.5063 24.4037 12.5044 24.22 12.6006L22.7 13.3938C22.5356 13.2456 22.3787 13.0888 22.2312 12.925L23.0244 11.405C23.12 11.2219 23.1188 11.0019 23.0206 10.82C22.8844 10.5656 22.7719 10.2938 22.6869 10.0113C22.6275 9.81315 22.4731 9.6569 22.2756 9.5944L20.6356 9.0794C20.6281 8.96502 20.625 8.85565 20.625 8.75002C20.625 8.6444 20.6281 8.53502 20.6356 8.42065L22.2756 7.90565C22.4731 7.84315 22.6269 7.68752 22.6869 7.48877C22.7719 7.20565 22.8844 6.93377 23.0206 6.68065C23.1188 6.49815 23.1206 6.27877 23.0244 6.09502L22.2312 4.57502C22.3794 4.41065 22.5362 4.25377 22.7 4.10627L24.22 4.8994C24.4031 4.99502 24.6231 4.99315 24.805 4.89565C25.0594 4.7594 25.3312 4.6469 25.6137 4.5619C25.8119 4.50252 25.9681 4.34815 26.0306 4.15065L26.5456 2.51065C26.7737 2.4969 26.9756 2.4969 27.2044 2.51065L27.7194 4.15065C27.7819 4.34815 27.9375 4.5019 28.1363 4.5619C28.4194 4.6469 28.6913 4.7594 28.9444 4.89565C29.1269 4.99377 29.3463 4.99565 29.53 4.8994L31.05 4.10627C31.2144 4.2544 31.3713 4.41127 31.5188 4.57502L30.7256 6.09502C30.63 6.27815 30.6312 6.49815 30.7294 6.68002C30.8656 6.9344 30.9781 7.20627 31.0631 7.48877C31.1225 7.6869 31.2769 7.84315 31.4744 7.90565L33.1144 8.42065C33.1219 8.53502 33.125 8.6444 33.125 8.75002C33.125 8.85565 33.1219 8.96502 33.1144 9.0794L31.4744 9.5944Z" fill="#1977CC"/>
<path d="M38.2888 21.8525L37.215 21.4713C37.1537 21.2969 37.0838 21.1263 37.0044 20.9607L37.4925 19.9325C37.5944 19.7188 37.5663 19.4663 37.42 19.28C37.1075 18.8807 36.7463 18.5188 36.3456 18.205C36.1587 18.0588 35.905 18.0313 35.6925 18.1325L34.6638 18.6207C34.4988 18.5419 34.3281 18.4713 34.1537 18.4107L33.7719 17.3369C33.6925 17.1138 33.4931 16.9544 33.2581 16.9257C32.7013 16.8588 32.2981 16.8588 31.7412 16.9257C31.5062 16.9538 31.3069 17.1132 31.2275 17.3369L30.8463 18.4107C30.6719 18.4719 30.5012 18.5419 30.3356 18.6213L29.3075 18.1332C29.095 18.0319 28.8419 18.06 28.655 18.2057C28.2556 18.5182 27.8937 18.8794 27.58 19.28C27.4344 19.4663 27.4063 19.7194 27.5075 19.9332L27.9956 20.9619C27.9169 21.1269 27.8463 21.2975 27.7856 21.4719L26.7119 21.8538C26.4887 21.9332 26.3294 22.1325 26.3006 22.3675C26.2663 22.6444 26.25 22.8925 26.25 23.125C26.25 23.3575 26.2663 23.605 26.3 23.8832C26.3281 24.1182 26.4875 24.3175 26.7112 24.3969L27.785 24.7782C27.8463 24.9525 27.9162 25.1232 27.9956 25.2888L27.5075 26.3169C27.4056 26.5307 27.4337 26.7832 27.58 26.9694C27.8925 27.3688 28.2538 27.7307 28.6544 28.0444C28.8406 28.19 29.0944 28.2182 29.3075 28.1169L30.3362 27.6288C30.5012 27.7075 30.6719 27.7782 30.8463 27.8388L31.2281 28.9125C31.3075 29.1357 31.5069 29.295 31.7419 29.3238C32.02 29.3588 32.2675 29.375 32.5 29.375C32.7325 29.375 32.98 29.3588 33.2581 29.325C33.4931 29.2969 33.6925 29.1375 33.7719 28.9138L34.1531 27.84C34.3275 27.7788 34.4981 27.7088 34.6638 27.6294L35.6919 28.1175C35.905 28.2194 36.1588 28.1919 36.3444 28.045C36.7438 27.7325 37.1056 27.3713 37.4194 26.9707C37.565 26.7844 37.5931 26.5313 37.4919 26.3175L37.0038 25.2888C37.0825 25.1238 37.1531 24.9532 37.2137 24.7788L38.2875 24.3969C38.5106 24.3175 38.67 24.1182 38.6987 23.8832C38.7337 23.605 38.75 23.3575 38.75 23.125C38.75 22.8925 38.7337 22.645 38.7 22.3669C38.6719 22.1313 38.5125 21.9325 38.2888 21.8525ZM37.4938 23.3532L36.5031 23.705C36.3112 23.7732 36.1644 23.9307 36.11 24.1269C36.0281 24.4238 35.9113 24.7069 35.7631 24.9688C35.6631 25.1457 35.6556 25.3607 35.7425 25.5444L36.1912 26.49C36.0875 26.6038 35.9787 26.7125 35.8656 26.8157L34.92 26.3669C34.7375 26.28 34.5219 26.2875 34.3444 26.3875C34.0819 26.5363 33.7987 26.6525 33.5031 26.7344C33.3069 26.7888 33.1494 26.9357 33.0806 27.1275L32.7288 28.1182C32.5775 28.1263 32.4238 28.1263 32.2725 28.1182L31.9206 27.1275C31.8525 26.9357 31.695 26.7888 31.4987 26.7344C31.2019 26.6525 30.9187 26.5357 30.6569 26.3875C30.48 26.2882 30.2656 26.2807 30.0813 26.3669L29.1356 26.8157C29.0219 26.7119 28.9131 26.6032 28.81 26.49L29.2587 25.5444C29.3462 25.3607 29.3381 25.1457 29.2381 24.9688C29.0894 24.7063 28.9731 24.4232 28.8913 24.1275C28.8369 23.9313 28.69 23.7738 28.4981 23.705L27.5075 23.3532C27.5025 23.2775 27.5 23.2019 27.5 23.125C27.5 23.0482 27.5025 22.9719 27.5062 22.8969L28.4969 22.5444C28.6888 22.4763 28.8356 22.3188 28.8894 22.1225C28.9719 21.825 29.0887 21.5425 29.2369 21.2807C29.3369 21.1038 29.3444 20.8888 29.2575 20.705L28.8088 19.7594C28.9125 19.6457 29.0213 19.5369 29.1344 19.4338L30.08 19.8825C30.2637 19.97 30.4787 19.9625 30.6556 19.8619C30.9181 19.7132 31.2013 19.5969 31.4969 19.515C31.6931 19.4607 31.8506 19.3138 31.9194 19.1219L32.2712 18.1313C32.4225 18.1232 32.5762 18.1232 32.7275 18.1313L33.0794 19.1219C33.1475 19.3138 33.305 19.4607 33.5013 19.515C33.7981 19.5969 34.0813 19.7138 34.3431 19.8619C34.5206 19.9625 34.735 19.97 34.9187 19.8825L35.8644 19.4338C35.9781 19.5375 36.0869 19.6463 36.19 19.7594L35.7413 20.705C35.6538 20.8888 35.6619 21.1038 35.7619 21.2807C35.9106 21.5432 36.0269 21.8263 36.1087 22.1219C36.1631 22.3182 36.31 22.4757 36.5019 22.5444L37.4925 22.8963C37.4975 22.9725 37.5 23.0482 37.5 23.125C37.5 23.2019 37.4975 23.2775 37.4938 23.3532Z" fill="#1977CC"/>
<path d="M13.75 33.125C17.5406 33.125 20.625 30.0406 20.625 26.25C20.625 22.4594 17.5406 19.375 13.75 19.375C9.95937 19.375 6.875 22.4594 6.875 26.25C6.875 30.0406 9.95937 33.125 13.75 33.125ZM13.75 20.625C16.8512 20.625 19.375 23.1487 19.375 26.25C19.375 29.3512 16.8512 31.875 13.75 31.875C10.6488 31.875 8.125 29.3512 8.125 26.25C8.125 23.1487 10.6488 20.625 13.75 20.625Z" fill="#1977CC"/>
<path d="M1.26392 15.8493L2.22392 16.65C5.08579 13.2181 9.28642 11.25 13.7502 11.25C14.0683 11.25 14.3858 11.2681 14.7033 11.2881L13.9333 12.0581L14.817 12.9418L16.692 11.0668C16.9364 10.8225 16.9364 10.4274 16.692 10.1831L14.817 8.30807L13.9333 9.19182L14.7827 10.0412C14.4389 10.0193 14.0945 9.99995 13.7502 9.99995C8.91517 9.99995 4.36392 12.1318 1.26392 15.8493Z" fill="#1977CC"/>
<path d="M26.875 5.625C25.1519 5.625 23.75 7.02688 23.75 8.75C23.75 10.4731 25.1519 11.875 26.875 11.875C28.5981 11.875 30 10.4731 30 8.75C30 7.02688 28.5981 5.625 26.875 5.625ZM26.875 10.625C25.8412 10.625 25 9.78375 25 8.75C25 7.71625 25.8412 6.875 26.875 6.875C27.9088 6.875 28.75 7.71625 28.75 8.75C28.75 9.78375 27.9088 10.625 26.875 10.625Z" fill="#1977CC"/>
<path d="M32.5 20.625C31.1212 20.625 30 21.7462 30 23.125C30 24.5038 31.1212 25.625 32.5 25.625C33.8788 25.625 35 24.5038 35 23.125C35 21.7462 33.8788 20.625 32.5 20.625ZM32.5 24.375C31.8106 24.375 31.25 23.8144 31.25 23.125C31.25 22.4356 31.8106 21.875 32.5 21.875C33.1894 21.875 33.75 22.4356 33.75 23.125C33.75 23.8144 33.1894 24.375 32.5 24.375Z" fill="#1977CC"/>
<path d="M38.2476 3.13762L35.1226 2.51262C34.7826 2.44387 34.4545 2.66449 34.387 3.00262L33.762 6.12762L34.9876 6.37324L35.3245 4.69074C35.9301 5.95074 36.2501 7.33949 36.2501 8.75012C36.2501 10.9051 35.5388 12.9314 34.1938 14.6095L35.1695 15.3914C36.6726 13.5157 37.5001 11.1576 37.5001 8.75012C37.5001 7.11324 37.122 5.49949 36.4026 4.04324L38.0026 4.36324L38.2476 3.13762Z" fill="#1977CC"/>
</svg>
