<svg width="40" height="40" viewBox="0 0 40 40" fill="none" xmlns="http://www.w3.org/2000/svg">
<path d="M23.75 17.5H5C3.61929 17.5 2.5 18.6193 2.5 20V36.25C2.5 37.6307 3.61929 38.75 5 38.75H23.75C25.1307 38.75 26.25 37.6307 26.25 36.25V20C26.25 18.6193 25.1307 17.5 23.75 17.5Z" fill="#A2DFFF"/>
<path d="M38.125 24.375L36.0562 23.9125C34.9327 23.6633 33.8718 23.1878 32.938 22.5152C32.0042 21.8425 31.2172 20.9867 30.625 20C30.0328 20.9867 29.2458 21.8425 28.312 22.5152C27.3782 23.1878 26.3173 23.6633 25.1938 23.9125L23.125 24.375C23.125 27.0918 23.7575 29.7713 24.9725 32.2012C26.1875 34.6312 27.9516 36.7449 30.125 38.375L30.625 38.75L31.125 38.375C33.2984 36.7449 35.0625 34.6312 36.2775 32.2012C37.4925 29.7713 38.125 27.0918 38.125 24.375Z" fill="#A2DFFF"/>
<path d="M27.4125 35.8438C32.4125 34.4938 36.25 29.9312 37.25 24.1812L36.0563 23.9125C34.9327 23.6633 33.8718 23.1878 32.938 22.5152C32.0042 21.8425 31.2172 20.9867 30.625 20C30.0328 20.9867 29.2458 21.8425 28.312 22.5152C27.3782 23.1878 26.3173 23.6633 25.1938 23.9125L23.125 24.375C23.1265 28.5895 24.649 32.6618 27.4125 35.8438Z" fill="#A2DFFF"/>
<path d="M5 17.5H8.125V11.25C8.125 9.5924 8.78348 8.00269 9.95558 6.83058C11.1277 5.65848 12.7174 5 14.375 5C16.0326 5 17.6223 5.65848 18.7944 6.83058C19.9665 8.00269 20.625 9.5924 20.625 11.25V17.5H23.75C23.9611 17.5032 24.1711 17.5326 24.375 17.5875V11.25C24.375 8.59784 23.3214 6.0543 21.4461 4.17893C19.5707 2.30357 17.0272 1.25 14.375 1.25C11.7228 1.25 9.1793 2.30357 7.30393 4.17893C5.42857 6.0543 4.375 8.59784 4.375 11.25V17.5875C4.57892 17.5326 4.78885 17.5032 5 17.5Z" fill="white"/>
<path d="M1.25 22.5H8.75V33.75H1.25V22.5Z" fill="white"/>
<path d="M15.625 29.0938V23.75C15.625 23.4185 15.4933 23.1005 15.2589 22.8661C15.0245 22.6317 14.7065 22.5 14.375 22.5C14.0435 22.5 13.7255 22.6317 13.4911 22.8661C13.2567 23.1005 13.125 23.4185 13.125 23.75V29.0938C12.6484 29.3689 12.2759 29.7937 12.0653 30.3021C11.8547 30.8105 11.8177 31.3743 11.9602 31.9059C12.1026 32.4374 12.4165 32.9072 12.8531 33.2422C13.2897 33.5772 13.8247 33.7588 14.375 33.7588C14.9253 33.7588 15.4603 33.5772 15.8969 33.2422C16.3335 32.9072 16.6474 32.4374 16.7898 31.9059C16.9323 31.3743 16.8953 30.8105 16.6847 30.3021C16.4741 29.7937 16.1016 29.3689 15.625 29.0938Z" fill="white"/>
<path d="M30.625 33.125C32.6961 33.125 34.375 31.4461 34.375 29.375C34.375 27.3039 32.6961 25.625 30.625 25.625C28.5539 25.625 26.875 27.3039 26.875 29.375C26.875 31.4461 28.5539 33.125 30.625 33.125Z" fill="#EBF7FE"/>
<path d="M16.2499 28.75V23.75C16.2499 23.2527 16.0524 22.7758 15.7008 22.4242C15.3491 22.0725 14.8722 21.875 14.3749 21.875C13.8776 21.875 13.4007 22.0725 13.0491 22.4242C12.6975 22.7758 12.4999 23.2527 12.4999 23.75V28.75C12.0294 29.1059 11.6693 29.5877 11.4611 30.1396C11.253 30.6916 11.2053 31.2912 11.3236 31.8692C11.442 32.4471 11.7215 32.9797 12.1298 33.4055C12.5382 33.8312 13.0587 34.1327 13.6312 34.275C13.8746 34.336 14.1241 34.3696 14.3749 34.375C15.0308 34.375 15.6701 34.1686 16.2021 33.7851C16.7342 33.4016 17.1322 32.8604 17.3396 32.2382C17.547 31.616 17.5533 30.9443 17.3578 30.3182C17.1622 29.6922 16.7746 29.1435 16.2499 28.75ZM15.5374 32.7063C15.337 32.8766 15.103 33.0029 14.8507 33.0769C14.5983 33.1509 14.3331 33.171 14.0725 33.1359C13.8118 33.1007 13.5615 33.0112 13.3377 32.873C13.1139 32.7347 12.9217 32.551 12.7736 32.3337C12.6255 32.1163 12.5247 31.8703 12.4779 31.6114C12.4311 31.3526 12.4393 31.0869 12.5019 30.8314C12.5645 30.5759 12.6801 30.3365 12.8413 30.1287C13.0025 29.9208 13.2056 29.7492 13.4374 29.625C13.5328 29.5699 13.6119 29.4906 13.6668 29.3952C13.7217 29.2997 13.7504 29.1914 13.7499 29.0812V23.75C13.7499 23.5842 13.8158 23.4253 13.933 23.3081C14.0502 23.1908 14.2092 23.125 14.3749 23.125C14.5407 23.125 14.6997 23.1908 14.8169 23.3081C14.9341 23.4253 14.9999 23.5842 14.9999 23.75V29.0937C14.9995 29.2039 15.0282 29.3122 15.083 29.4077C15.1379 29.5031 15.2171 29.5824 15.3124 29.6375C15.5748 29.7911 15.7959 30.0063 15.9566 30.2643C16.1173 30.5224 16.2129 30.8157 16.235 31.119C16.2572 31.4222 16.2052 31.7263 16.0837 32.005C15.9622 32.2837 15.7747 32.5286 15.5374 32.7187V32.7063Z" fill="#1977CC"/>
<path d="M38.2625 23.75L36.1937 23.2938C35.1595 23.0566 34.1836 22.6134 33.3245 21.9905C32.4654 21.3677 31.7407 20.578 31.1937 19.6687C31.1384 19.5755 31.0598 19.4982 30.9655 19.4446C30.8713 19.3909 30.7647 19.3627 30.6562 19.3627C30.5478 19.3627 30.4412 19.3909 30.347 19.4446C30.2527 19.4982 30.1741 19.5755 30.1187 19.6687C29.3436 20.9497 28.218 21.982 26.875 22.6437V20C26.8747 19.3922 26.6971 18.7977 26.3641 18.2893C26.0311 17.7809 25.557 17.3806 25 17.1375V11.25C25 8.43207 23.8806 5.72956 21.888 3.73699C19.8954 1.74442 17.1929 0.625 14.375 0.625C11.5571 0.625 8.85456 1.74442 6.86199 3.73699C4.86942 5.72956 3.75 8.43207 3.75 11.25V17.1375C3.19296 17.3806 2.7189 17.7809 2.38588 18.2893C2.05285 18.7977 1.87531 19.3922 1.875 20V21.875H1.25C1.08424 21.875 0.925268 21.9408 0.808058 22.0581C0.690848 22.1753 0.625 22.3342 0.625 22.5V33.75C0.625 33.9158 0.690848 34.0747 0.808058 34.1919C0.925268 34.3092 1.08424 34.375 1.25 34.375H1.875V36.25C1.875 37.0788 2.20424 37.8737 2.79029 38.4597C3.37634 39.0458 4.1712 39.375 5 39.375H23.75C24.5788 39.375 25.3737 39.0458 25.9597 38.4597C26.5458 37.8737 26.875 37.0788 26.875 36.25V36.1688C27.7322 37.1726 28.6962 38.08 29.75 38.875L30.25 39.25C30.3582 39.3311 30.4898 39.375 30.625 39.375C30.7602 39.375 30.8918 39.3311 31 39.25L31.5 38.875C33.7457 37.1817 35.5688 34.9914 36.8267 32.4758C38.0845 29.9602 38.7428 27.1875 38.75 24.375C38.7535 24.2305 38.7069 24.0893 38.618 23.9753C38.5291 23.8614 38.4035 23.7818 38.2625 23.75ZM5 11.25C5 8.7636 5.98772 6.37903 7.74587 4.62087C9.50403 2.86272 11.8886 1.875 14.375 1.875C16.8614 1.875 19.246 2.86272 21.0041 4.62087C22.7623 6.37903 23.75 8.7636 23.75 11.25V16.875H21.25V11.25C21.25 9.42664 20.5257 7.67795 19.2364 6.38864C17.947 5.09933 16.1984 4.375 14.375 4.375C12.5516 4.375 10.803 5.09933 9.51364 6.38864C8.22433 7.67795 7.5 9.42664 7.5 11.25V16.875H5V11.25ZM20 16.875H8.75V11.25C8.75 9.75816 9.34263 8.32742 10.3975 7.27252C11.4524 6.21763 12.8832 5.625 14.375 5.625C15.8668 5.625 17.2976 6.21763 18.3525 7.27252C19.4074 8.32742 20 9.75816 20 11.25V16.875ZM8.125 23.125V25.625H1.875V23.125H8.125ZM1.875 33.125V30.625H8.125V33.125H1.875ZM8.125 29.375H1.875V26.875H8.125V29.375ZM25.625 36.25C25.625 36.7473 25.4275 37.2242 25.0758 37.5758C24.7242 37.9275 24.2473 38.125 23.75 38.125H5C4.50272 38.125 4.02581 37.9275 3.67417 37.5758C3.32254 37.2242 3.125 36.7473 3.125 36.25V34.375H8.75C8.91576 34.375 9.07473 34.3092 9.19194 34.1919C9.30915 34.0747 9.375 33.9158 9.375 33.75V22.5C9.375 22.3342 9.30915 22.1753 9.19194 22.0581C9.07473 21.9408 8.91576 21.875 8.75 21.875H3.125V20C3.125 19.5027 3.32254 19.0258 3.67417 18.6742C4.02581 18.3225 4.50272 18.125 5 18.125H23.75C24.2473 18.125 24.7242 18.3225 25.0758 18.6742C25.4275 19.0258 25.625 19.5027 25.625 20V23.125C25.4375 23.1812 25.25 23.2375 25.0562 23.2812L22.9875 23.75C22.8465 23.7818 22.7209 23.8614 22.632 23.9753C22.5431 24.0893 22.4965 24.2305 22.5 24.375C22.5102 27.9937 23.5981 31.5273 25.625 34.525V36.25ZM30.75 37.875L30.625 37.9688L30.5 37.875C28.4753 36.3499 26.8181 34.3905 25.65 32.1409C24.4819 29.8912 23.8327 27.4085 23.75 24.875L25.3187 24.525C27.4354 24.0546 29.3161 22.8474 30.625 21.1188C31.9324 22.8462 33.8106 24.0533 35.925 24.525L37.5 24.875C37.4173 27.4085 36.7681 29.8912 35.6 32.1409C34.4319 34.3905 32.7747 36.3499 30.75 37.875Z" fill="#1977CC"/>
<path d="M34.3062 25.2814L33.1937 24.7189L32.7687 25.5626C31.804 24.9924 30.6591 24.8088 29.5644 25.049C28.4698 25.2891 27.5068 25.935 26.8694 26.8567C26.2319 27.7784 25.9674 28.9074 26.129 30.0163C26.2906 31.1253 26.8664 32.1318 27.7404 32.8332C28.6144 33.5346 29.7217 33.8789 30.8393 33.7966C31.9569 33.7143 33.0019 33.2116 33.7637 32.3897C34.5255 31.5679 34.9477 30.4879 34.9452 29.3672C34.9426 28.2466 34.5156 27.1685 33.75 26.3501L34.3062 25.2814ZM33.75 29.3751C33.7571 30.073 33.5327 30.7535 33.1119 31.3102C32.6912 31.867 32.0977 32.2686 31.4245 32.4522C30.7512 32.6359 30.036 32.5912 29.3909 32.3252C28.7457 32.0592 28.2068 31.5869 27.8586 30.9821C27.5104 30.3773 27.3725 29.6741 27.4663 28.9826C27.5602 28.2911 27.8806 27.6502 28.3775 27.1601C28.8743 26.6701 29.5196 26.3585 30.2124 26.2741C30.9051 26.1898 31.6063 26.3374 32.2062 26.6939L30.5187 30.0689L29.2687 28.3751L28.2687 29.1251L30.1437 31.6251C30.202 31.7027 30.2774 31.7657 30.3642 31.8091C30.451 31.8525 30.5467 31.8751 30.6437 31.8751H30.7C30.8057 31.865 30.907 31.8281 30.9945 31.768C31.082 31.7078 31.1527 31.6264 31.2 31.5314L33.1812 27.5689C33.5561 28.0961 33.7551 28.7282 33.75 29.3751Z" fill="#1977CC"/>
</svg>
