<svg width="69" height="62" viewBox="0 0 69 62" fill="none" xmlns="http://www.w3.org/2000/svg">
<path d="M43.2266 58.7238C35.8177 61.169 27.8992 60.5835 20.9306 57.0761C13.9621 53.5687 8.77711 47.558 6.33085 40.1526C6.17523 39.6817 5.66734 39.4262 5.19707 39.5817C4.72594 39.7372 4.47029 40.2449 4.62591 40.7149C5.93839 44.6873 7.98961 48.2845 10.724 51.4064C13.3644 54.4216 16.5272 56.8684 20.1235 58.6785C23.7198 60.4887 27.5691 61.5715 31.5647 61.8971C32.4044 61.9655 33.2432 61.9997 34.0802 61.9997C37.3662 61.9997 40.6221 61.4732 43.7901 60.428C44.2612 60.2724 44.5168 59.7648 44.3612 59.2947C44.2047 58.8247 43.6968 58.5683 43.2266 58.7238Z" fill="#1977CC"/>
<path d="M64.1911 30.3433C64.1885 30.3433 64.186 30.3433 64.1843 30.3433C63.6918 30.3433 63.2907 30.7407 63.2865 31.2338C63.2625 34.243 62.7717 37.2248 61.8278 40.0955C60.8941 42.9338 59.538 45.6045 57.7963 48.0325C54.1795 53.0758 49.1407 56.7729 43.2264 58.7241C39.8901 59.8248 36.434 60.3162 32.9566 60.1829C29.5955 60.0547 26.3027 59.3496 23.1682 58.0873C16.8554 55.5457 11.6064 50.8699 8.38801 44.9225C8.15202 44.4867 7.60736 44.3243 7.17129 44.5602C6.73523 44.796 6.57277 45.3404 6.80876 45.7763C10.2255 52.0912 15.7977 57.055 22.4969 59.7522C25.8239 61.0914 29.3193 61.8401 32.8873 61.9768C33.2815 61.9922 33.6757 61.999 34.069 61.999C37.3618 61.999 40.6263 61.4717 43.7891 60.4282C50.0667 58.3566 55.415 54.4321 59.255 49.0778C61.1027 46.501 62.5426 43.6671 63.5327 40.6553C64.5348 37.6077 65.0564 34.4421 65.0812 31.2466C65.0854 30.7518 64.687 30.3467 64.1911 30.3433Z" fill="#1977CC"/>
<path d="M64.9443 30.7628C64.7964 30.5277 64.5484 30.3739 64.2714 30.3474C63.9961 30.3209 63.7216 30.4226 63.5309 30.6243L59.4883 34.906C59.148 35.2667 59.1643 35.8342 59.5251 36.1743C59.8859 36.5145 60.4537 36.4982 60.794 36.1376L64.0405 32.6985L66.4791 36.576C66.6501 36.8469 66.9417 36.9956 67.2401 36.9956C67.4034 36.9956 67.5684 36.9512 67.7172 36.858C68.137 36.5939 68.2636 36.0401 67.9994 35.6205L64.9443 30.7628Z" fill="#1977CC"/>
<path d="M53.0952 27.0534H47.575C47.2878 26.068 46.897 25.127 46.4122 24.2442L50.3146 20.3436C51.25 19.4086 51.25 17.8934 50.3146 16.9584L48.1171 14.762C47.1817 13.827 45.6657 13.827 44.7303 14.762L40.8279 18.6625C39.9447 18.178 39.0033 17.7882 38.0174 17.5002V11.9827C38.0174 10.6606 36.9452 9.58887 35.6225 9.58887H32.5144C31.1917 9.58887 30.1195 10.6606 30.1195 11.9827V17.5002C29.1336 17.7874 28.1922 18.178 27.309 18.6625L23.4066 14.762C22.4712 13.827 20.9552 13.827 20.0198 14.762L17.8224 16.9584C16.887 17.8934 16.887 19.4086 17.8224 20.3436L21.7248 24.2442C21.2399 25.127 20.85 26.068 20.5619 27.0534H15.0418C13.719 27.0534 12.6469 28.1251 12.6469 29.4472V32.5538C12.6469 33.8759 13.719 34.9476 15.0418 34.9476H20.5619C20.85 35.933 21.2399 36.874 21.7248 37.7568L17.8224 41.6574C16.887 42.5924 16.887 44.1077 17.8224 45.0426L20.0198 47.239C20.9552 48.174 22.4712 48.174 23.4066 47.239L27.309 43.3385C28.1922 43.8231 29.1336 44.2128 30.1195 44.5008V50.0183C30.1195 51.3404 31.1917 52.4122 32.5144 52.4122H35.6225C36.9452 52.4122 38.0174 51.3404 38.0174 50.0183V44.5008C39.0033 44.2136 39.9447 43.8231 40.8279 43.3385L44.7303 47.239C45.6657 48.174 47.1817 48.174 48.1171 47.239L50.3146 45.0426C51.25 44.1077 51.25 42.5924 50.3146 41.6574L46.4122 37.7568C46.897 36.874 47.2869 35.933 47.575 34.9476H53.0952C54.4179 34.9476 55.4901 33.8759 55.4901 32.5538V29.4472C55.4892 28.1251 54.4179 27.0534 53.0952 27.0534ZM34.068 37.7423C30.3726 37.7423 27.3765 34.7477 27.3765 31.0539C27.3765 27.3602 30.3726 24.3655 34.068 24.3655C37.7635 24.3655 40.7596 27.3602 40.7596 31.0539C40.7604 34.7477 37.7643 37.7423 34.068 37.7423Z" fill="#A2DFFF"/>
<path d="M53.0956 26.1559H48.2322C48.0287 25.5585 47.7876 24.9765 47.5114 24.4142L50.9495 20.9777C52.2329 19.6949 52.2329 17.607 50.9495 16.3242L48.752 14.1278C47.4686 12.8449 45.3798 12.8449 44.0955 14.1278L40.6583 17.5642C40.0957 17.289 39.5125 17.048 38.9157 16.8438V11.9826C38.9157 10.1682 37.4391 8.69141 35.623 8.69141H32.5149C30.6997 8.69141 29.2222 10.1674 29.2222 11.9826V16.8438C28.6245 17.0472 28.0422 17.2882 27.4796 17.5642L24.0415 14.1278C23.4199 13.5064 22.5931 13.1637 21.7132 13.1637C20.8334 13.1637 20.0066 13.5056 19.385 14.1278L17.1875 16.3242C15.9041 17.607 15.9041 19.6949 17.1875 20.9785L20.6256 24.415C20.3503 24.9774 20.1092 25.5594 19.9048 26.1568H15.0414C13.2262 26.1568 11.7487 27.6327 11.7487 29.448V32.5546C11.7487 34.369 13.2253 35.8458 15.0414 35.8458H19.9048C20.1092 36.4432 20.3495 37.0252 20.6256 37.5875L17.1875 41.024C15.9041 42.3068 15.9041 44.3947 17.1875 45.6784L19.385 47.8748C20.0066 48.4961 20.8334 48.8388 21.7132 48.8388C22.5931 48.8388 23.4199 48.4961 24.0415 47.8748L27.4796 44.4392C28.0422 44.7144 28.6245 44.9554 29.2222 45.1588V50.0199C29.2222 51.8343 30.6988 53.3111 32.5149 53.3111H35.623C37.4382 53.3111 38.9157 51.8352 38.9157 50.0199V45.1588C39.5134 44.9545 40.0957 44.7144 40.6583 44.4383L44.0964 47.874C44.718 48.4953 45.5448 48.838 46.4246 48.838C47.3045 48.838 48.1313 48.4961 48.7529 47.874L50.9503 45.6775C52.2337 44.3947 52.2337 42.3068 50.9503 41.0232L47.5122 37.5867C47.7875 37.0243 48.0287 36.4415 48.233 35.8449H53.0965C54.9117 35.8449 56.3892 34.369 56.3892 32.5537V29.4471C56.3875 27.6319 54.9109 26.1559 53.0956 26.1559ZM54.5919 32.5529C54.5919 33.3776 53.9207 34.0493 53.0948 34.0493H47.5746C47.1753 34.0493 46.8248 34.3126 46.7128 34.6954C46.4443 35.6133 46.0783 36.4979 45.6252 37.3243C45.4328 37.6739 45.4952 38.1089 45.7774 38.3909L49.6797 42.2915C50.2637 42.8752 50.2637 43.8238 49.6797 44.4075L47.4823 46.604C47.1993 46.8868 46.8239 47.0424 46.4238 47.0424C46.0236 47.0424 45.6483 46.8868 45.3652 46.604L41.4628 42.7034C41.1807 42.4214 40.7463 42.3598 40.3958 42.5513C39.5689 43.0051 38.684 43.3709 37.7657 43.6384C37.3826 43.7503 37.1193 44.1007 37.1193 44.4998V50.0174C37.1193 50.8421 36.4481 51.5138 35.6221 51.5138H32.5141C31.689 51.5138 31.0169 50.843 31.0169 50.0174V44.4998C31.0169 44.1007 30.7535 43.7503 30.3705 43.6384C29.4513 43.37 28.5664 43.0042 27.7404 42.5513C27.6044 42.4769 27.4565 42.4402 27.3086 42.4402C27.076 42.4402 26.846 42.5308 26.6733 42.7034L22.7709 46.604C22.4879 46.8868 22.1125 47.0424 21.7124 47.0424C21.3122 47.0424 20.9368 46.8868 20.6538 46.604L18.4564 44.4075C17.8724 43.8238 17.8724 42.8752 18.4564 42.2915L22.3588 38.3909C22.641 38.1089 22.7034 37.6747 22.511 37.3243C22.0578 36.4979 21.6918 35.6133 21.4234 34.6954C21.3113 34.3126 20.9608 34.0493 20.5615 34.0493H15.0414C14.2163 34.0493 13.5442 33.3784 13.5442 32.5529V29.4463C13.5442 28.6215 14.2154 27.9498 15.0414 27.9498H20.5615C20.9608 27.9498 21.3113 27.6866 21.4234 27.3037C21.6918 26.385 22.0578 25.5004 22.511 24.6748C22.7034 24.3253 22.641 23.8903 22.3588 23.6082L18.4564 19.7077C17.8724 19.124 17.8724 18.1753 18.4564 17.5916L20.6538 15.3952C20.9368 15.1123 21.3122 14.9567 21.7124 14.9567C22.1125 14.9567 22.4879 15.1123 22.7709 15.3952L26.6733 19.2957C26.9555 19.5778 27.3898 19.6402 27.7404 19.4479C28.5672 18.9941 29.4522 18.6283 30.3705 18.3608C30.7535 18.2488 31.0169 17.8984 31.0169 17.4993V11.9826C31.0169 11.1579 31.6881 10.4861 32.5141 10.4861H35.6221C36.4472 10.4861 37.1193 11.157 37.1193 11.9826V17.5001C37.1193 17.8993 37.3826 18.2497 37.7657 18.3616C38.684 18.6291 39.5689 18.9949 40.3958 19.4487C40.7455 19.6402 41.1798 19.5786 41.4628 19.2966L45.3652 15.396C45.9492 14.8123 46.8983 14.8132 47.4823 15.396L49.6797 17.5924C50.2637 18.1753 50.2637 19.1248 49.6797 19.7085L45.7774 23.6091C45.4952 23.8911 45.4328 24.3253 45.6252 24.6757C46.0792 25.5021 46.4451 26.3867 46.7128 27.3045C46.8248 27.6874 47.1753 27.9506 47.5746 27.9506H53.0948C53.9199 27.9506 54.5919 28.6215 54.5919 29.4471V32.5529Z" fill="#1977CC"/>
<path d="M34.0693 23.4678C29.8848 23.4678 26.48 26.8709 26.48 31.0535C26.48 35.2361 29.8848 38.6393 34.0693 38.6393C38.2538 38.6393 41.6586 35.2361 41.6586 31.0535C41.6586 26.8701 38.2538 23.4678 34.0693 23.4678ZM34.0693 36.8446C30.8749 36.8446 28.2756 34.2465 28.2756 31.0535C28.2756 27.8606 30.8749 25.2625 34.0693 25.2625C37.2637 25.2625 39.863 27.8606 39.863 31.0535C39.863 34.2465 37.2637 36.8446 34.0693 36.8446Z" fill="#1977CC"/>
<path d="M34.0693 21.4966C28.8177 21.4966 24.5613 25.7518 24.5613 31.0001C24.5613 36.2485 28.8185 40.5037 34.0693 40.5037C39.3201 40.5037 43.5773 36.2485 43.5773 31.0001C43.5773 25.7518 39.3201 21.4966 34.0693 21.4966ZM34.0693 36.4374C31.0946 36.4374 28.6834 34.0273 28.6834 31.054C28.6834 28.0807 31.0946 25.6706 34.0693 25.6706C37.044 25.6706 39.4551 28.0807 39.4551 31.054C39.4551 34.0273 37.044 36.4374 34.0693 36.4374Z" fill="#A2DFFF"/>
<path d="M34.069 24.7725C30.6045 24.7725 27.7854 27.5902 27.7854 31.0532C27.7854 34.5162 30.6045 37.3339 34.069 37.3339C37.5336 37.3339 40.3526 34.5162 40.3526 31.0532C40.3526 27.5902 37.5336 24.7725 34.069 24.7725ZM34.069 35.54C31.5946 35.54 29.581 33.5274 29.581 31.054C29.581 28.5807 31.5946 26.5681 34.069 26.5681C36.5435 26.5681 38.5571 28.5807 38.5571 31.054C38.5571 33.5274 36.5435 35.54 34.069 35.54Z" fill="#1977CC"/>
<path d="M34.0691 20.5991C28.331 20.5991 23.6633 25.2654 23.6633 31.0001C23.6633 36.7355 28.331 41.401 34.0691 41.401C39.8073 41.401 44.4749 36.7347 44.4749 31.0001C44.4749 25.2646 39.8064 20.5991 34.0691 20.5991ZM34.0691 39.6062C29.3211 39.6062 25.4589 35.7459 25.4589 31.0001C25.4589 26.2543 29.3211 22.3939 34.0691 22.3939C38.8171 22.3939 42.6793 26.2543 42.6793 31.0001C42.6793 35.7459 38.8163 39.6062 34.0691 39.6062Z" fill="#1977CC"/>
<path d="M45.6407 2.24718C42.3137 0.907969 38.8183 0.159304 35.2503 0.0225625C31.5582 -0.118453 27.8893 0.402025 24.3486 1.57031C18.0709 3.64195 12.7226 7.56644 8.88266 12.9207C7.03493 15.4975 5.59504 18.3314 4.60491 21.3432C3.60281 24.3908 3.08123 27.5564 3.05643 30.7519C3.05216 31.2476 3.45147 31.6527 3.94739 31.6561C3.94996 31.6561 3.95251 31.6561 3.95422 31.6561C4.44672 31.6561 4.84773 31.2587 4.85201 30.7656C4.87595 27.7564 5.36674 24.7746 6.3107 21.9038C7.2444 19.0656 8.60048 16.3948 10.3422 13.9668C13.959 8.92361 18.9969 5.22645 24.9111 3.27531C28.2475 2.17454 31.7036 1.68398 35.181 1.81645C38.5422 1.94464 41.8349 2.64972 44.9695 3.91201C51.2822 6.4537 56.5313 11.1294 59.7496 17.0768C59.9856 17.5127 60.5303 17.6751 60.9663 17.4392C61.4024 17.2033 61.5649 16.6589 61.3289 16.2231C57.9122 9.90815 52.3407 4.94442 45.6407 2.24718Z" fill="#1977CC"/>
<path d="M7.34341 25.8613L4.09684 29.3004L1.65827 25.4229C1.39406 25.0033 0.839998 24.8768 0.420175 25.1409C0.000351123 25.405 -0.126199 25.9588 0.138008 26.3784L3.19391 31.2378C3.34183 31.4729 3.58978 31.6267 3.86682 31.6532C3.89589 31.6558 3.92496 31.6575 3.95403 31.6575C4.19943 31.6575 4.43628 31.5566 4.60729 31.3763L8.64991 27.0946C8.99022 26.7339 8.97396 26.1664 8.61313 25.8263C8.25145 25.4844 7.68372 25.5007 7.34341 25.8613Z" fill="#1977CC"/>
</svg>
