<svg width="69" height="64" viewBox="0 0 69 64" fill="none" xmlns="http://www.w3.org/2000/svg">
<path d="M10.5385 1H42.7308C44.0423 1 45.1154 2.07308 45.1154 3.38462V60.6154C45.1154 61.9269 44.0423 63 42.7308 63H3.38462C2.07308 63 1 61.9269 1 60.6154V10.5385L10.5385 1Z" fill="white"/>
<path d="M10.5385 1H11.7308V11.7308H1V10.5385L10.5385 1Z" fill="#A2DFFF"/>
<path d="M45.1154 26.0385V3.38462C45.1154 2.07308 44.0423 1 42.7308 1H10.5385L1 10.5385V60.6154C1 61.9269 2.07308 63 3.38462 63H42.7308C44.0423 63 45.1154 61.9269 45.1154 60.6154V57.0385" stroke="#1977CC" stroke-width="2" stroke-miterlimit="10" stroke-linejoin="round"/>
<path d="M4.5769 11.7308H11.7308V4.5769" stroke="#1977CC" stroke-width="2" stroke-miterlimit="10" stroke-linejoin="round"/>
<path d="M10.5385 28.4231C12.514 28.4231 14.1154 26.8217 14.1154 24.8462C14.1154 22.8707 12.514 21.2693 10.5385 21.2693C8.56299 21.2693 6.96155 22.8707 6.96155 24.8462C6.96155 26.8217 8.56299 28.4231 10.5385 28.4231Z" stroke="#1977CC" stroke-width="2" stroke-miterlimit="10" stroke-linecap="round"/>
<path d="M22.4616 37.9615C20.4823 37.9615 18.8846 36.3638 18.8846 34.3845C18.8846 32.4053 20.4823 30.8076 22.4616 30.8076C24.4408 30.8076 26.0385 32.4053 26.0385 34.3845C26.0385 36.3638 24.4408 37.9615 22.4616 37.9615Z" stroke="#1977CC" stroke-width="2" stroke-miterlimit="10" stroke-linecap="round"/>
<path d="M9.34619 37.9616L23.6539 21.2693" stroke="#1977CC" stroke-width="2" stroke-miterlimit="10" stroke-linecap="round"/>
<path d="M65.3846 53.4616H34.3846C33.0731 53.4616 32 52.3886 32 51.077V32.0001C32 30.6886 33.0731 29.6155 34.3846 29.6155H65.3846C66.6962 29.6155 67.7692 30.6886 67.7692 32.0001V51.077C67.7692 52.3886 66.6962 53.4616 65.3846 53.4616Z" fill="#A2DFFF" stroke="#1977CC" stroke-width="2" stroke-miterlimit="10" stroke-linecap="round"/>
<path d="M32 46.3076H67.7692" stroke="#1977CC" stroke-width="2" stroke-miterlimit="10" stroke-linecap="round"/>
</svg>
