<svg width="57" height="62" viewBox="0 0 57 62" fill="none" xmlns="http://www.w3.org/2000/svg">
<path d="M54.1534 47.9945L54.1653 48.0229L54.1791 48.0507L54.5165 48.7329C54.9286 49.601 55.4245 50.6813 55.5954 51.8232C55.7616 52.9332 55.6119 54.0356 54.7829 55.0359L54.7775 55.0424L54.7723 55.0489C53.624 56.4829 50.7756 59.6563 47.5128 60.8672L47.4775 60.8791H47.468L47.3651 60.901C46.8747 61.0054 45.4201 61.0798 43.2217 60.8429C41.0581 60.6097 38.2499 60.083 35.0805 59.0417C28.7456 56.9604 20.9784 52.8274 14.0202 44.8802L14.0198 44.8798C6.99308 36.8631 3.59501 28.1 2.07989 21.0764C1.32234 17.5646 1.03777 14.4976 1.00358 12.191C0.986468 11.0369 1.03218 10.0828 1.1099 9.36523C1.19069 8.61931 1.29595 8.23461 1.34499 8.12577C2.91189 5.03308 6.41293 2.55191 7.92245 1.57873C8.29687 1.36536 8.7392 1.19521 9.19817 1.07773C10.9726 0.706231 12.6632 1.73043 14.0779 2.65982L14.6868 3.07022L14.7228 3.0945L14.76 3.11514C14.7599 3.1153 14.8019 3.14177 14.8794 3.23281C14.9598 3.3273 15.0562 3.46485 15.165 3.65358C15.3836 4.03277 15.6142 4.55111 15.8483 5.18632C16.3154 6.45328 16.7562 8.07245 17.1359 9.71419C17.5142 11.3504 17.8257 12.9822 18.0379 14.2622C18.1441 14.9024 18.2245 15.4491 18.276 15.8605C18.3018 16.0667 18.3195 16.2329 18.3297 16.3566C18.3387 16.4662 18.3391 16.5128 18.3396 16.5177C18.2917 17.0402 18.0299 17.6357 17.2684 18.5405C16.4915 19.4634 15.298 20.5909 13.5489 22.1858L13.5298 22.2031L13.5117 22.2215C12.7552 22.9863 12.3062 24.2056 12.7361 25.4005L12.7394 25.4097L12.7428 25.4187C14.2944 29.4827 17.5715 34.4797 20.2971 37.518C22.7906 40.3186 27.7843 44.9558 31.9403 47.3057L31.9403 47.3058L31.9496 47.3109C33.1026 47.9467 34.3763 47.7148 35.278 46.908C36.8185 45.5585 37.9423 44.591 38.8539 43.9245C39.743 43.2745 40.3404 42.9801 40.83 42.8757L41.4118 42.8222C41.4383 42.8271 41.4759 42.8345 41.5264 42.8452C41.6479 42.8712 41.8099 42.9095 42.0097 42.9603C42.4083 43.0617 42.936 43.2073 43.552 43.3891C44.7839 43.7525 46.3496 44.2545 47.9131 44.8239C49.482 45.3952 51.0227 46.0249 52.2172 46.641C52.8159 46.9498 53.3013 47.2419 53.6523 47.5066C53.827 47.6383 53.9537 47.7523 54.0404 47.8461C54.0829 47.8923 54.1117 47.9291 54.1303 47.9562C54.1477 47.9817 54.1534 47.9945 54.1534 47.9945Z" fill="#E0F4FC" stroke="#1977CC" stroke-width="2"/>
</svg>
