<svg width="62" height="62" viewBox="0 0 62 62" fill="none" xmlns="http://www.w3.org/2000/svg">
<path d="M10.6562 2.7124L3.09998 9.2999V34.2937H29.45L30.225 32.9374L29.45 2.7124H10.6562Z" fill="white"/>
<path d="M30.0312 8.60251V33.9063H6.78125V59.0938H55.2188V33.9063H52.2738C54.1983 31.0425 55.2238 27.6692 55.2188 24.2188C55.2188 23.8991 55.2091 23.5697 55.1897 23.25H37.7812V6.78126C35.0916 6.77842 32.4382 7.40197 30.0312 8.60251ZM51.3438 51.3438C50.316 51.3438 49.3304 51.752 48.6037 52.4787C47.877 53.2054 47.4688 54.1911 47.4688 55.2188H14.5312C14.5312 54.1911 14.123 53.2054 13.3963 52.4787C12.6696 51.752 11.684 51.3438 10.6562 51.3438V41.6563C11.684 41.6563 12.6696 41.248 13.3963 40.5213C14.123 39.7946 14.5312 38.809 14.5312 37.7813H47.4688C47.4688 38.809 47.877 39.7946 48.6037 40.5213C49.3304 41.248 50.316 41.6563 51.3438 41.6563V51.3438Z" fill="#A2DFFF"/>
<path d="M31.9688 51.3438C34.6439 51.3438 36.8125 49.1751 36.8125 46.5C36.8125 43.8249 34.6439 41.6562 31.9688 41.6562C29.2936 41.6562 27.125 43.8249 27.125 46.5C27.125 49.1751 29.2936 51.3438 31.9688 51.3438Z" fill="#A2DFFF"/>
<path d="M9.6875 2.90625L2.90625 9.6875H9.6875V2.90625Z" fill="#A2DFFF"/>
<path d="M55.2188 32.9375H53.9788C55.429 30.2603 56.1882 27.2635 56.1875 24.2188C56.1875 23.8797 56.1778 23.5309 56.1584 23.1919C56.1436 22.9452 56.035 22.7134 55.8549 22.5441C55.6748 22.3749 55.4369 22.2808 55.1897 22.2812H38.75V6.78125C38.75 6.52432 38.6479 6.27792 38.4663 6.09624C38.2846 5.91456 38.0382 5.8125 37.7812 5.8125C35.458 5.81078 33.156 6.25474 31 7.12031V2.90625C31 2.64932 30.8979 2.40292 30.7163 2.22124C30.5346 2.03956 30.2882 1.9375 30.0312 1.9375H9.6875C9.43067 1.93941 9.18441 2.04 8.99969 2.21844L2.21844 8.99969C2.04 9.18441 1.93941 9.43067 1.9375 9.6875V33.9062C1.9375 34.1632 2.03956 34.4096 2.22124 34.5913C2.40292 34.7729 2.64932 34.875 2.90625 34.875H5.8125V59.0938C5.8125 59.3507 5.91456 59.5971 6.09624 59.7788C6.27792 59.9604 6.52432 60.0625 6.78125 60.0625H55.2188C55.4757 60.0625 55.7221 59.9604 55.9038 59.7788C56.0854 59.5971 56.1875 59.3507 56.1875 59.0938V33.9062C56.1875 33.6493 56.0854 33.4029 55.9038 33.2212C55.7221 33.0396 55.4757 32.9375 55.2188 32.9375ZM31 9.23219C32.8315 8.39408 34.8021 7.90144 36.8125 7.77906V23.25C36.8125 23.5069 36.9146 23.7533 37.0962 23.935C37.2779 24.1167 37.5243 24.2188 37.7812 24.2188H54.25C54.2532 27.3049 53.3797 30.3285 51.7313 32.9375H31V9.23219ZM8.71875 5.24094V8.71875H5.24094L8.71875 5.24094ZM3.875 32.9375V10.6562H9.6875C9.94443 10.6562 10.1908 10.5542 10.3725 10.3725C10.5542 10.1908 10.6562 9.94443 10.6562 9.6875V3.875H29.0625V32.9375H3.875ZM54.25 58.125H7.75V34.875H54.25V58.125Z" fill="#1977CC"/>
<path d="M41.6562 1.93751C41.3993 1.93751 41.1529 2.03957 40.9712 2.22125C40.7896 2.40292 40.6875 2.64933 40.6875 2.90626V19.375C40.6875 19.6319 40.7896 19.8783 40.9712 20.06C41.1529 20.2417 41.3993 20.3438 41.6562 20.3438H59.0937V20.3341C59.2203 20.3326 59.3454 20.3061 59.4617 20.2563C59.5781 20.2064 59.6835 20.1341 59.7719 20.0434C59.948 19.847 60.0417 19.5903 60.0334 19.3266C59.7771 14.6271 57.7287 10.2047 54.3101 6.96985C50.8915 3.73503 46.3627 1.93399 41.6562 1.93751ZM42.625 18.4063V3.90407C46.4848 4.12773 50.1424 5.70396 52.9556 8.35601C55.7689 11.0081 57.558 14.5664 58.0087 18.4063H42.625Z" fill="#1977CC"/>
<path d="M51.3438 40.6875C50.5737 40.6852 49.8358 40.3783 49.2913 39.8337C48.7467 39.2892 48.4398 38.5513 48.4375 37.7812C48.4375 37.5243 48.3354 37.2779 48.1538 37.0962C47.9721 36.9146 47.7257 36.8125 47.4688 36.8125H14.5312C14.2743 36.8125 14.0279 36.9146 13.8462 37.0962C13.6646 37.2779 13.5625 37.5243 13.5625 37.7812C13.5602 38.5513 13.2533 39.2892 12.7087 39.8337C12.1642 40.3783 11.4263 40.6852 10.6562 40.6875C10.3993 40.6875 10.1529 40.7896 9.97124 40.9712C9.78956 41.1529 9.6875 41.3993 9.6875 41.6562V51.3438C9.6875 51.6007 9.78956 51.8471 9.97124 52.0288C10.1529 52.2104 10.3993 52.3125 10.6562 52.3125C11.4263 52.3148 12.1642 52.6217 12.7087 53.1663C13.2533 53.7108 13.5602 54.4487 13.5625 55.2188C13.5625 55.4757 13.6646 55.7221 13.8462 55.9038C14.0279 56.0854 14.2743 56.1875 14.5312 56.1875H47.4688C47.7257 56.1875 47.9721 56.0854 48.1538 55.9038C48.3354 55.7221 48.4375 55.4757 48.4375 55.2188C48.4398 54.4487 48.7467 53.7108 49.2913 53.1663C49.8358 52.6217 50.5737 52.3148 51.3438 52.3125C51.6007 52.3125 51.8471 52.2104 52.0288 52.0288C52.2104 51.8471 52.3125 51.6007 52.3125 51.3438V41.6562C52.3125 41.3993 52.2104 41.1529 52.0288 40.9712C51.8471 40.7896 51.6007 40.6875 51.3438 40.6875ZM50.375 50.4719C49.4447 50.6629 48.5908 51.1227 47.9192 51.7942C47.2477 52.4658 46.7879 53.3197 46.5969 54.25H15.4031C15.2121 53.3197 14.7523 52.4658 14.0808 51.7942C13.4092 51.1227 12.5553 50.6629 11.625 50.4719V42.5281C12.5553 42.3371 13.4092 41.8773 14.0808 41.2058C14.7523 40.5342 15.2121 39.6803 15.4031 38.75H46.5969C46.7879 39.6803 47.2477 40.5342 47.9192 41.2058C48.5908 41.8773 49.4447 42.3371 50.375 42.5281V50.4719Z" fill="#1977CC"/>
<path d="M31.9688 40.6875C30.8191 40.6875 29.6954 41.0284 28.7395 41.6671C27.7836 42.3058 27.0386 43.2136 26.5987 44.2757C26.1588 45.3377 26.0437 46.5065 26.2679 47.634C26.4922 48.7615 27.0458 49.7972 27.8587 50.6101C28.6716 51.423 29.7073 51.9765 30.8348 52.2008C31.9623 52.4251 33.131 52.31 34.1931 51.8701C35.2552 51.4301 36.163 50.6851 36.8017 49.7293C37.4404 48.7734 37.7812 47.6496 37.7812 46.5C37.7812 44.9584 37.1689 43.48 36.0788 42.3899C34.9888 41.2999 33.5103 40.6875 31.9688 40.6875ZM31.9688 50.375C31.2023 50.375 30.4532 50.1477 29.8159 49.7219C29.1787 49.2962 28.682 48.691 28.3887 47.9829C28.0954 47.2748 28.0187 46.4957 28.1682 45.744C28.3177 44.9924 28.6868 44.3019 29.2287 43.76C29.7706 43.218 30.4611 42.849 31.2128 42.6995C31.9645 42.5499 32.7436 42.6267 33.4517 42.92C34.1597 43.2133 34.7649 43.7099 35.1907 44.3472C35.6165 44.9844 35.8438 45.7336 35.8438 46.5C35.8438 47.5277 35.4355 48.5133 34.7088 49.24C33.9821 49.9667 32.9965 50.375 31.9688 50.375Z" fill="#1977CC"/>
<path d="M16.4688 27.125C18.1932 27.125 19.8788 26.6137 21.3126 25.6556C22.7464 24.6976 23.8639 23.3359 24.5238 21.7428C25.1837 20.1496 25.3564 18.3966 25.02 16.7053C24.6836 15.014 23.8532 13.4605 22.6338 12.2412C21.4145 11.0218 19.861 10.1914 18.1697 9.85503C16.4784 9.51862 14.7254 9.69128 13.1322 10.3512C11.5391 11.0111 10.1774 12.1286 9.21937 13.5624C8.26135 14.9962 7.75 16.6818 7.75 18.4063C7.75256 20.7178 8.67197 22.934 10.3065 24.5685C11.941 26.203 14.1572 27.1224 16.4688 27.125ZM16.4688 11.625C17.81 11.625 19.121 12.0227 20.2362 12.7679C21.3514 13.513 22.2206 14.5721 22.7338 15.8112C23.2471 17.0503 23.3814 18.4138 23.1197 19.7292C22.858 21.0446 22.2122 22.2529 21.2638 23.2013C20.3154 24.1497 19.1071 24.7956 17.7917 25.0572C16.4763 25.3189 15.1128 25.1846 13.8737 24.6713C12.6346 24.1581 11.5755 23.2889 10.8303 22.1737C10.0852 21.0585 9.6875 19.7475 9.6875 18.4063C9.68981 16.6085 10.405 14.885 11.6762 13.6137C12.9475 12.3425 14.671 11.6273 16.4688 11.625Z" fill="#1977CC"/>
<path d="M16.4688 21.3125C16.2118 21.3125 15.9654 21.2104 15.7837 21.0288C15.6021 20.8471 15.5 20.6007 15.5 20.3438H13.5625C13.565 20.9427 13.7525 21.5262 14.0993 22.0146C14.4461 22.5029 14.9353 22.8721 15.5 23.0717V24.2188H17.4375V23.0717C18.0833 22.8443 18.6278 22.3956 18.9746 21.8051C19.3213 21.2146 19.4478 20.5205 19.3318 19.8456C19.2158 19.1708 18.8646 18.5588 18.3406 18.118C17.8166 17.6773 17.1535 17.4362 16.4688 17.4375C16.2771 17.4375 16.0899 17.3807 15.9305 17.2742C15.7712 17.1678 15.6471 17.0165 15.5737 16.8395C15.5004 16.6625 15.4812 16.4677 15.5186 16.2798C15.556 16.0918 15.6483 15.9192 15.7837 15.7837C15.9192 15.6483 16.0918 15.556 16.2798 15.5186C16.4677 15.4812 16.6625 15.5004 16.8395 15.5737C17.0165 15.6471 17.1678 15.7712 17.2742 15.9305C17.3807 16.0899 17.4375 16.2771 17.4375 16.4688H19.375C19.3725 15.8698 19.185 15.2863 18.8382 14.7979C18.4914 14.3096 18.0022 13.9404 17.4375 13.7408V12.5938H15.5V13.7408C14.8542 13.9682 14.3097 14.4169 13.9629 15.0074C13.6162 15.5979 13.4897 16.292 13.6057 16.9669C13.7217 17.6417 14.0729 18.2537 14.5969 18.6945C15.1209 19.1352 15.784 19.3763 16.4688 19.375C16.7257 19.375 16.9721 19.4771 17.1538 19.6587C17.3354 19.8404 17.4375 20.0868 17.4375 20.3438C17.4375 20.6007 17.3354 20.8471 17.1538 21.0288C16.9721 21.2104 16.7257 21.3125 16.4688 21.3125Z" fill="#1977CC"/>
</svg>
