<svg width="30" height="30" viewBox="0 0 30 30" fill="none" xmlns="http://www.w3.org/2000/svg">
<path fill-rule="evenodd" clip-rule="evenodd" d="M27.7008 9.97936H19.7181V1.99572C19.7181 1.45959 19.2812 1.02173 18.7451 1.02173H10.9541C10.417 1.02173 9.97816 1.45959 9.97816 1.99572V9.97936H1.99548C1.45837 9.97936 1.02148 10.4172 1.02148 10.9534V18.7443C1.02148 19.2814 1.45837 19.7203 1.99548 19.7203H9.97816V27.702C9.97816 28.2391 10.416 28.676 10.9541 28.676H18.7451C19.2812 28.676 19.7181 28.2391 19.7181 27.702V19.7203H27.7008C28.2379 19.7203 28.6748 19.2814 28.6748 18.7443V10.9534C28.6748 10.4172 28.2379 9.97936 27.7008 9.97936Z" fill="#A2DFFF"/>
<path d="M27.701 8.95765H20.74V1.99567C20.74 0.895182 19.8448 0 18.7453 0H10.9543C9.85284 0 8.95668 0.895182 8.95668 1.99567V8.95765H1.99567C0.895182 8.95765 0 9.85282 0 10.9533V18.7443C0 19.8458 0.895182 20.7419 1.99567 20.7419H8.95668V27.7019C8.95668 28.8024 9.85284 29.6976 10.9543 29.6976H18.7453C19.8458 29.6976 20.74 28.8024 20.74 27.7019V20.7419H27.701C28.8015 20.7419 29.6967 19.8458 29.6967 18.7443V10.9533C29.6967 9.85282 28.8015 8.95765 27.701 8.95765ZM27.6533 18.6986H19.7183C19.154 18.6986 18.6967 19.1559 18.6967 19.7202V27.6543H11V19.7202C11 19.1559 10.5427 18.6986 9.97836 18.6986H2.04335V11.002H9.97836C10.5427 11.002 11 10.5446 11 9.98029V2.04432H18.6967V9.98029C18.6967 10.5446 19.154 11.002 19.7183 11.002H27.6533V18.6986Z" fill="#1977CC"/>
</svg>
