<svg width="65" height="62" viewBox="0 0 65 62" fill="none" xmlns="http://www.w3.org/2000/svg">
<path d="M43.0425 0H22.2452C17.6836 0 13.9725 3.71111 13.9725 8.27361V15.6384C13.9725 16.2028 14.4299 16.6601 14.9942 16.6601H19.0245C19.5888 16.6601 20.0461 16.2028 20.0461 15.6384C20.0461 15.0741 19.5888 14.6167 19.0245 14.6167H16.0159V8.27361C16.0159 4.83787 18.8104 2.04335 22.2452 2.04335H43.0425C46.4773 2.04335 49.2718 4.83787 49.2718 8.27361V14.6167H46.6914C46.127 14.6167 45.6697 15.0741 45.6697 15.6384C45.6697 16.2028 46.127 16.6601 46.6914 16.6601H50.2935C50.8578 16.6601 51.3152 16.2028 51.3152 15.6384V8.27361C51.3152 3.71208 47.604 0 43.0425 0Z" fill="#1977CC"/>
<path fill-rule="evenodd" clip-rule="evenodd" d="M55.9214 12.6382H8.27255C4.28512 12.6382 1.02161 15.9017 1.02161 19.8891V53.726C1.02161 57.7154 4.28512 60.9779 8.27255 60.9779H55.9214C59.9098 60.9779 63.1723 57.7154 63.1723 53.726V19.8901C63.1723 15.9027 59.9098 12.6382 55.9214 12.6382Z" fill="white"/>
<path d="M55.9216 11.6167H8.27264C3.71111 11.6167 0 15.3278 0 19.8893V53.7262C0 58.2877 3.71111 61.9998 8.27264 61.9998H55.9216C60.4831 61.9998 64.1942 58.2887 64.1942 53.7262V19.8903C64.1942 15.3288 60.4831 11.6167 55.9216 11.6167ZM62.1508 53.7271C62.1508 57.1619 59.3563 59.9574 55.9216 59.9574H8.27264C4.83787 59.9574 2.04335 57.1629 2.04335 53.7271V19.8903C2.04335 16.4555 4.83787 13.661 8.27264 13.661H55.9216C59.3563 13.661 62.1508 16.4555 62.1508 19.8903V53.7271Z" fill="#1977CC"/>
<path d="M53.1374 16.144H44.1525C43.5882 16.144 43.1309 16.6014 43.1309 17.1657C43.1309 17.7301 43.5882 18.1874 44.1525 18.1874H53.1374C55.3636 18.1874 57.1744 19.9982 57.1744 22.2245V31.6735C57.1744 32.2378 57.6317 32.6951 58.1961 32.6951C58.7604 32.6951 59.2177 32.2378 59.2177 31.6735V22.2245C59.2177 18.8714 56.4904 16.144 53.1374 16.144Z" fill="#A2DFFF"/>
<path d="M39.384 16.144H17.4919C16.9275 16.144 16.4702 16.6014 16.4702 17.1657C16.4702 17.7301 16.9275 18.1874 17.4919 18.1874H39.384C39.9484 18.1874 40.4057 17.7301 40.4057 17.1657C40.4057 16.6014 39.9484 16.144 39.384 16.144Z" fill="#A2DFFF"/>
<path fill-rule="evenodd" clip-rule="evenodd" d="M44.9496 31.9391H36.9669V23.9554C36.9669 23.4193 36.53 22.9814 35.9939 22.9814H28.2029C27.6658 22.9814 27.2269 23.4193 27.2269 23.9554V31.9391H19.2443C18.7072 31.9391 18.2703 32.3769 18.2703 32.9131V40.7041C18.2703 41.2412 18.7072 41.68 19.2443 41.68H27.2269V49.6617C27.2269 50.1988 27.6648 50.6357 28.2029 50.6357H35.9939C36.53 50.6357 36.9669 50.1988 36.9669 49.6617V41.68H44.9496C45.4867 41.68 45.9236 41.2412 45.9236 40.7041V32.9131C45.9236 32.3769 45.4867 31.9391 44.9496 31.9391Z" fill="#A2DFFF"/>
<path d="M44.9498 30.9176H37.9888V23.9556C37.9888 22.8551 37.0936 21.96 35.9941 21.96H28.2031C27.1016 21.96 26.2055 22.8551 26.2055 23.9556V30.9176H19.2445C18.144 30.9176 17.2488 31.8128 17.2488 32.9133V40.7043C17.2488 41.8057 18.144 42.7019 19.2445 42.7019H26.2055V49.6619C26.2055 50.7624 27.1016 51.6576 28.2031 51.6576H35.9941C37.0946 51.6576 37.9888 50.7624 37.9888 49.6619V42.7019H44.9498C46.0503 42.7019 46.9455 41.8057 46.9455 40.7043V32.9133C46.9455 31.8128 46.0503 30.9176 44.9498 30.9176ZM44.9021 40.6585H36.9671C36.4028 40.6585 35.9454 41.1159 35.9454 41.6802V49.6142H28.2488V41.6802C28.2488 41.1159 27.7915 40.6585 27.2271 40.6585H19.2921V32.9619H27.2271C27.7915 32.9619 28.2488 32.5046 28.2488 31.9402V24.0043H35.9454V31.9402C35.9454 32.5046 36.4028 32.9619 36.9671 32.9619H44.9021V40.6585Z" fill="#1977CC"/>
</svg>
