<svg width="71" height="62" viewBox="0 0 71 62" fill="none" xmlns="http://www.w3.org/2000/svg">
<g clip-path="url(#clip0)">
<path d="M47.8227 24.7768C50.1922 25.6354 53.0477 29.6465 49.9041 35.386C46.7605 41.1252 41.2194 41.6323 39.0606 39.9943C36.9018 38.3561 36.9959 35.5858 38.1421 34.3711C39.6052 32.8204 40.9462 33.4497 42.1758 31.5843C43.4255 29.6885 42.121 28.0397 43.3951 26.0896C44.3482 24.6311 46.024 24.125 47.8227 24.7768Z" fill="#A2DFFF"/>
<path d="M33.9734 49.7431C32.0449 51.3658 27.1435 51.8331 23.7448 46.2412C20.3462 40.6493 22.6777 35.597 25.1757 34.5464C27.6737 33.4959 30.0258 34.9626 30.5048 36.5625C31.1162 38.6051 29.9007 39.4516 30.9014 41.4493C31.9183 43.4795 33.9986 43.1742 35.0504 45.2525C35.837 46.8068 35.4372 48.5112 33.9734 49.7431Z" fill="#A2DFFF"/>
<path d="M68.0981 15.8587L54.7878 5.02272C51.8048 2.60666 48.0826 1.28833 44.244 1.28833H22.9414C19.3184 1.28833 15.7645 2.2806 12.6656 4.15748L6.58423 7.84066H1.38745V28.7002H17.2092C20.5094 28.7002 23.6745 27.3893 26.0085 25.0559L32.3518 18.7136C33.1771 17.8884 34.2965 17.4246 35.4637 17.4246H47.2604C48.0385 17.4246 48.7848 17.1155 49.3349 16.5653C50.9352 14.9651 50.4678 12.5073 48.8515 11.4026L49.2465 11.3503L62.8879 21.9779C64.5581 23.1297 66.8128 22.9243 68.2474 21.4896L68.3858 21.3512C69.9391 19.7979 69.8052 17.2414 68.0981 15.8587Z" fill="white"/>
<path d="M31.3591 58.789C31.1744 58.789 30.9867 58.7518 30.8066 58.6733C29.2712 58.0038 27.6583 57.0233 25.4259 55.6663C24.1421 54.8858 22.6867 54.0012 20.9401 52.9899C13.6309 48.7582 4.33242 50.4763 1.95054 51.5447C1.25304 51.8576 0.434314 51.5458 0.121547 50.8484C-0.191221 50.1512 0.120439 49.3322 0.817661 49.0195C4.50914 47.3636 14.6081 46.1258 22.3268 50.5948C24.099 51.6208 25.5678 52.5137 26.8636 53.3013C29.003 54.6019 30.5488 55.5416 31.9128 56.1364C32.6134 56.442 32.9336 57.2574 32.628 57.9581C32.4012 58.4784 31.8929 58.789 31.3591 58.789Z" fill="#1977CC"/>
<path d="M35.4318 59.6797H35.4253C34.6611 59.6797 34.0415 59.0601 34.0415 58.2959C34.0415 57.5317 34.6611 56.9121 35.4253 56.9121C36.1895 56.9121 36.8123 57.5317 36.8123 58.2959C36.8123 59.0602 36.1961 59.6797 35.4318 59.6797Z" fill="#1977CC"/>
<path d="M39.5287 58.7754C38.996 58.7754 38.4884 58.4662 38.2608 57.9472C37.9537 57.2474 38.2721 56.4312 38.972 56.1241C40.3293 55.5284 41.8663 54.5941 43.9937 53.301C45.2893 52.5134 46.7579 51.6206 48.5299 50.5947C56.2486 46.1259 66.3475 47.3635 70.039 49.0194C70.7364 49.3322 71.048 50.151 70.7353 50.8484C70.4227 51.5458 69.6041 51.8574 68.9063 51.5447C66.5245 50.4763 57.2257 48.7581 49.9166 52.9899C48.1702 54.001 46.715 54.8856 45.4313 55.666C43.2127 57.0146 41.6097 57.989 40.0839 58.6584C39.9031 58.7377 39.7143 58.7754 39.5287 58.7754Z" fill="#1977CC"/>
<path d="M41.893 42.1905C40.4699 42.1905 39.1684 41.8128 38.2244 41.0966C36.9074 40.0974 36.1095 38.6695 35.9775 37.0757C35.8618 35.6788 36.2946 34.3127 37.1357 33.4214C38.015 32.4894 38.8729 32.1506 39.5621 31.8786C40.2268 31.6162 40.5927 31.4715 41.0206 30.8226C41.3909 30.2607 41.4033 29.7469 41.3929 28.8868C41.381 27.8969 41.3663 26.6649 42.2367 25.3326C43.5369 23.3422 45.9144 22.6134 48.2941 23.4758C49.95 24.0758 51.4266 25.6347 52.1475 27.5444C52.823 29.3338 53.1929 32.2622 51.1179 36.0507C48.7648 40.3472 45.4537 41.6204 43.6895 41.9971C43.0813 42.1268 42.4768 42.1903 41.893 42.1905ZM46.318 25.882C45.5855 25.882 44.9683 26.2114 44.5535 26.8462C44.1436 27.4735 44.1505 28.0523 44.1602 28.8536C44.1718 29.8313 44.1865 31.0483 43.3312 32.3456C42.4223 33.7246 41.3998 34.1283 40.5784 34.4525C40.0133 34.6757 39.6049 34.837 39.1486 35.3205C38.9197 35.563 38.6742 36.1082 38.7355 36.8471C38.7739 37.3107 38.9759 38.1927 39.8973 38.8916C40.412 39.2821 41.5624 39.6209 43.1119 39.2902C44.4128 39.0124 46.8674 38.0496 48.6906 34.7209C50.2604 31.8549 50.0289 29.7679 49.5583 28.5217C49.0274 27.1156 48.0375 26.3264 47.3512 26.0776C46.9892 25.9465 46.6423 25.882 46.318 25.882Z" fill="#1977CC"/>
<path d="M30.6493 52.2048C30.2391 52.2048 29.8253 52.172 29.4143 52.1045C27.5268 51.7949 24.8058 50.6511 22.5624 46.9597C20.018 42.7735 20.5707 39.2694 21.1268 37.5533C21.7858 35.5194 23.0988 33.9184 24.6392 33.2706C26.163 32.6299 27.7988 32.6527 29.2448 33.3353C30.5125 33.9335 31.479 34.9915 31.8304 36.1655C32.1978 37.3931 32.0623 38.3052 31.9533 39.0383C31.8482 39.7449 31.7904 40.1343 32.1386 40.8295C32.44 41.4312 32.8788 41.6986 33.6289 42.1197C34.4921 42.6044 35.5665 43.2076 36.2849 44.6275C37.3583 46.7487 36.8009 49.1723 34.8642 50.8018L33.9734 49.7431L34.8642 50.8018C33.7917 51.7042 32.2497 52.2048 30.6493 52.2048ZM26.8856 35.5765C26.5375 35.5765 26.1413 35.6413 25.7123 35.8216C25.1167 36.0722 24.248 36.8993 23.7597 38.4061C23.3497 39.6716 22.9564 42.2789 24.9273 45.5221C26.6246 48.3145 28.5477 49.1575 29.8621 49.3733C31.3454 49.6166 32.5238 49.1539 33.0825 48.6841C34.0424 47.8764 34.3097 46.8532 33.8157 45.8769C33.4774 45.2082 32.9727 44.9251 32.2739 44.5327C31.4213 44.0539 30.3599 43.4581 29.6641 42.0688C28.9245 40.5921 29.0859 39.5049 29.2157 38.6313C29.3051 38.0301 29.3696 37.5959 29.1789 36.9589C29.0833 36.6394 28.7338 36.1543 28.0635 35.8379C27.8124 35.7193 27.4024 35.5765 26.8856 35.5765Z" fill="#1977CC"/>
<path d="M17.2091 30.084H1.38733C0.623124 30.084 0.00354004 29.4644 0.00354004 28.7002V7.84066C0.00354004 7.07646 0.623124 6.45688 1.38733 6.45688H6.19785L11.9488 2.97395C15.2642 0.965874 19.0655 -0.095459 22.9416 -0.095459H44.2441C48.3863 -0.095459 52.4401 1.34036 55.6588 3.9474L68.9719 14.7855C70.0871 15.6886 70.7714 17.0319 70.8467 18.4685C70.9219 19.9052 70.3816 21.3125 69.3644 22.3297L69.2263 22.4679C67.3187 24.3754 64.3229 24.6483 62.1024 23.1171C62.0804 23.1019 62.0588 23.086 62.0375 23.0695L51.6522 14.9785C51.4943 15.924 51.0405 16.8167 50.3135 17.5436C49.4983 18.3591 48.4138 18.8083 47.2605 18.8083H35.4637C34.6579 18.8083 33.9002 19.1222 33.3304 19.6919L26.9869 26.0343C24.3748 28.6459 20.9023 30.084 17.2091 30.084ZM2.77112 27.3164H17.2091C20.1633 27.3164 22.9407 26.1661 25.0299 24.0773L31.3733 17.735C32.4656 16.6426 33.9183 16.0408 35.4635 16.0408H47.2602C47.6742 16.0408 48.0634 15.8796 48.3561 15.5868C48.9408 15.0021 49.1009 14.197 48.7846 13.4332C48.4681 12.6693 47.7857 12.2133 46.9588 12.2133H30.1651C29.1353 12.2133 28.1346 12.5102 27.2714 13.0715L22.5406 16.1482C21.8985 16.5629 21.042 16.3785 20.6275 15.7362C20.2129 15.0941 20.3973 14.2376 21.0395 13.8231L21.0566 13.812L25.7624 10.7513C27.0758 9.89718 28.5982 9.44546 30.165 9.44546H46.9588C47.7511 9.44546 48.4981 9.6298 49.1562 9.96928C49.4832 9.94838 49.8181 10.0417 50.0964 10.2585L63.7027 20.8588C64.8204 21.6091 66.3143 21.4653 67.2684 20.5109L67.4065 20.3727C67.8772 19.902 68.1169 19.2771 68.0822 18.6129C68.0474 17.9486 67.7435 17.3522 67.2266 16.9335L53.9135 6.09526C51.1887 3.88831 47.7536 2.67156 44.2435 2.67156H22.9413C19.5707 2.67156 16.2652 3.59436 13.3822 5.3406L7.30098 9.02364C7.08467 9.15456 6.83681 9.22376 6.58411 9.22376H2.77112V27.3164Z" fill="#1977CC"/>
</g>
<defs>
<clipPath id="clip0">
<rect width="70.8571" height="62" fill="white"/>
</clipPath>
</defs>
</svg>
