<svg width="54" height="62" viewBox="0 0 54 62" fill="none" xmlns="http://www.w3.org/2000/svg">
<path d="M26.8081 0.819824C12.4548 0.819824 0.81897 2.98418 0.81897 5.65354C0.81897 5.67539 0.822088 5.69802 0.82365 5.71988H0.81897V41.4939C0.81897 44.2624 1.42805 47.112 3.79646 48.5044C7.60323 50.743 26.8097 61.1792 26.8097 61.1792C26.8612 61.1347 46.0138 50.743 49.8206 48.5044C52.189 47.112 52.7981 44.2624 52.7981 41.4939V5.72066H52.7934C52.7949 5.69881 52.7981 5.67617 52.7981 5.65432C52.7973 2.98419 41.1614 0.819824 26.8081 0.819824Z" fill="white"/>
<path d="M51.0858 3.02214C49.7192 2.42115 47.7842 1.88572 45.3362 1.4299C40.3791 0.508114 33.7995 0 26.8091 0C19.8179 0 13.2382 0.507334 8.28198 1.4299C5.83315 1.88494 3.89891 2.42115 2.53238 3.02214C0.828505 3.77143 0 4.63234 0 5.65403C0 5.66652 7.62593e-07 5.67822 0.00078164 5.68993C0.00078164 5.70008 0 5.71101 0 5.72115V41.4952C0 45.2962 1.13773 47.893 3.38197 49.2121C7.15673 51.4319 26.2273 61.7963 26.4194 61.9009C26.542 61.968 26.6771 62 26.8106 62C26.959 62 27.1066 61.9594 27.2362 61.8814C27.3775 61.8017 28.5684 61.1524 30.0677 60.3344C35.672 57.2787 47.3336 50.9198 50.2369 49.2121C52.4812 47.893 53.6189 45.2962 53.6189 41.4952V5.72037C53.6189 5.71023 53.6189 5.6993 53.6181 5.68916C53.6181 5.67823 53.6189 5.66574 53.6189 5.65325C53.6174 4.63156 52.7896 3.77143 51.0858 3.02214ZM27.3416 61.8025C27.3424 61.8025 27.3424 61.8017 27.3432 61.8017C27.3424 61.8017 27.3424 61.8025 27.3416 61.8025ZM27.3432 61.801C27.344 61.8002 27.344 61.8002 27.3447 61.7994C27.344 61.8002 27.344 61.801 27.3432 61.801ZM51.9775 41.4944C51.9775 44.7187 51.1357 46.7808 49.4045 47.7986C46.5239 49.4931 34.8779 55.8425 29.2813 58.8943C27.9359 59.628 27.2089 60.0245 26.8075 60.2454C24.0479 58.7445 7.66196 49.8271 4.21205 47.7978C2.48084 46.78 1.63906 44.7179 1.63906 41.4936V5.80701C1.64453 5.75784 1.64531 5.70867 1.6414 5.65871L1.63984 5.64154C1.65702 5.50183 1.9561 5.06553 3.19144 4.52229C4.42523 3.97983 6.28918 3.46781 8.58106 3.04165C13.442 2.13782 19.9155 1.63986 26.8083 1.63986C33.7019 1.63986 40.1746 2.13782 45.0355 3.04165C47.3274 3.46781 49.1913 3.97983 50.4251 4.52229C51.6589 5.06474 51.9596 5.50105 51.9767 5.64076C51.976 5.64856 51.9752 5.65637 51.9752 5.66418C51.972 5.71101 51.9728 5.75784 51.9775 5.80389V41.4944Z" fill="#1977CC"/>
<path d="M49.2897 8.81309C49.2897 7.4589 47.6397 6.73303 47.0978 6.49497C45.9491 5.98998 44.3265 5.5404 42.2751 5.15873C38.1357 4.38915 32.643 3.96533 26.8082 3.96533C20.9735 3.96533 15.4808 4.38915 11.3414 5.15873C9.29005 5.5404 7.66738 5.98998 6.51871 6.49497C5.97678 6.73303 4.32678 7.4589 4.32678 8.81309C4.32678 8.82246 4.32678 8.8326 4.32756 8.84197C4.32756 8.85056 4.32678 8.85992 4.32678 8.86851V39.7666C4.32678 42.987 5.29742 45.1904 7.21291 46.3167C10.3614 48.1673 25.7634 56.5383 26.4178 56.8942C26.5404 56.9613 26.6755 56.9933 26.809 56.9933C26.9566 56.9933 27.1034 56.9535 27.2323 56.8755C27.3556 56.806 28.3349 56.2721 29.5679 55.5993C34.2453 53.0494 43.9774 47.7419 46.4036 46.3159C48.3183 45.1896 49.2897 42.9863 49.2897 39.7659V8.86929C49.2897 8.85915 49.2897 8.849 49.2889 8.83963C49.2889 8.83105 49.2897 8.82246 49.2897 8.81309ZM27.34 56.7982C27.3408 56.7982 27.3408 56.7974 27.3416 56.7974C27.3408 56.7974 27.3408 56.7982 27.34 56.7982ZM27.3416 56.7966C27.3424 56.7959 27.3424 56.7959 27.3431 56.7951C27.3431 56.7959 27.3424 56.7966 27.3416 56.7966ZM47.6499 39.7666C47.6499 42.4009 46.9705 44.0813 45.5719 44.904C43.1692 46.3167 33.452 51.6148 28.7823 54.1609C27.7492 54.7244 27.155 55.0483 26.8067 55.2395C24.3251 53.89 10.8908 46.5774 8.04377 44.9032C6.646 44.0813 5.96662 42.4009 5.96662 39.7659V8.94578C5.97053 8.90207 5.97131 8.85758 5.96819 8.81231C6.05721 8.51962 7.32067 7.54008 11.9521 6.71352C15.9587 5.99779 21.2343 5.60441 26.8075 5.60441C32.3806 5.60441 37.6562 5.99857 41.6629 6.71352C46.2919 7.54008 47.5562 8.51884 47.6467 8.81231C47.6436 8.85758 47.6444 8.90285 47.6491 8.94812V39.7666H47.6499ZM47.6499 8.82168H47.6506H47.6499Z" fill="#A2DFFF"/>
<path d="M42.4736 27.0012C41.4545 26.2433 39.9154 25.9647 38.9073 25.9561L37.1542 25.9413C33.2085 20.8765 32.9859 20.7087 32.8375 20.5963C32.3815 20.2529 31.8388 20.0687 31.2664 20.0632L17.8556 19.9493C16.9951 19.9438 16.1869 20.3528 15.6848 21.049C15.6457 21.0943 15.5341 21.2207 15.4162 21.3542C10.6887 26.7062 10.0312 28.1267 10.025 28.8643L10.0078 30.8765C10.0008 31.7186 10.3217 32.5132 10.9128 33.1142C11.504 33.7152 12.2934 34.0492 13.136 34.057L15.3842 34.0758C15.3865 34.0758 15.3888 34.0758 15.3912 34.0758C15.841 34.0758 16.2072 33.7136 16.2111 33.2633C16.215 32.8106 15.8511 32.4406 15.3982 32.4367L13.1501 32.418C12.7456 32.4148 12.3661 32.2541 12.0826 31.9653C11.7991 31.6765 11.6445 31.2948 11.6476 30.8905L11.6648 28.901C11.7195 28.6348 12.2528 27.4118 16.6453 22.4391C16.9397 22.1058 16.9685 22.073 17.0076 22.0169C17.1966 21.7476 17.5042 21.5883 17.8322 21.5883C17.8353 21.5883 17.8377 21.5883 17.8408 21.5883L31.2516 21.7023C31.4585 21.7039 31.6545 21.7671 31.8216 21.8849C31.9809 22.0489 32.722 22.9176 36.1024 27.2603C36.2562 27.4578 36.492 27.5749 36.7427 27.5764L38.8917 27.5944C39.8482 27.6022 40.9423 27.9058 41.4928 28.3156C43.0311 29.4598 43.9643 31.2371 44.4757 32.5265C44.4812 32.5405 44.4984 32.5827 44.464 32.6326C44.4406 32.6662 44.4117 32.6826 44.3672 32.6826L39.7499 32.6435C39.7475 32.6435 39.7452 32.6435 39.7428 32.6435C39.293 32.6435 38.9268 33.0057 38.9229 33.456C38.919 33.9087 39.2829 34.2787 39.7358 34.2826L44.3531 34.3216C44.3578 34.3216 44.3633 34.3216 44.368 34.3216C44.9474 34.3216 45.4877 34.0375 45.8157 33.5591C46.146 33.0767 46.2147 32.4648 45.9992 31.9223C45.412 30.4355 44.3203 28.3749 42.4736 27.0012ZM15.6668 21.0756C15.6684 21.0724 15.6715 21.0693 15.6746 21.0646C15.6715 21.0685 15.6684 21.0724 15.6668 21.0756Z" fill="#1977CC"/>
<path d="M32.5921 32.5836L22.5516 32.4985C22.5492 32.4985 22.5469 32.4985 22.5446 32.4985C22.0948 32.4985 21.7285 32.8607 21.7246 33.3111C21.7207 33.7638 22.0846 34.1337 22.5375 34.1376L32.5781 34.2227C32.5804 34.2227 32.5828 34.2227 32.5851 34.2227C33.0349 34.2227 33.4011 33.8605 33.405 33.4102C33.4089 32.9575 33.0443 32.5875 32.5921 32.5836Z" fill="#1977CC"/>
<path d="M30.1154 23.0238C29.7796 22.7709 29.3798 22.6351 28.9581 22.6312L20.1154 22.5563C19.479 22.5492 18.8801 22.8568 18.5107 23.3742C18.5014 23.3867 18.4865 23.4055 18.467 23.4304C17.5198 24.6301 16.8404 25.7088 16.4492 26.6368C16.343 26.8889 16.3696 27.1769 16.5195 27.4056C16.6694 27.6343 16.924 27.7724 17.1981 27.7748L32.3416 27.9028C32.344 27.9028 32.3463 27.9028 32.3487 27.9028C32.6602 27.9028 32.9453 27.7264 33.0835 27.4462C33.2225 27.1644 33.1889 26.828 32.9952 26.5798C30.384 23.226 30.2411 23.1182 30.1154 23.0238ZM18.5521 26.1466C18.8379 25.6791 19.226 25.1132 19.7539 24.4459C19.8031 24.3834 19.8343 24.3421 19.8453 24.3272C19.8734 24.2874 19.9538 24.1953 20.0991 24.1953C20.0998 24.1953 20.1006 24.1953 20.1022 24.1953L28.9448 24.2703C29.0089 24.2711 29.0596 24.2898 29.0971 24.3116C29.1947 24.4194 29.5281 24.8143 30.6557 26.2496L18.5521 26.1466Z" fill="#1977CC"/>
<path d="M43.9419 29.1124L42.4848 29.0999C42.3013 28.8634 42.0288 28.5926 41.6586 28.4178C41.2487 28.225 40.7606 28.3998 40.567 28.8096C40.3733 29.2186 40.549 29.7072 40.9582 29.9007C41.1089 29.9718 41.244 30.1692 41.2893 30.259C41.4173 30.5571 41.7016 30.7328 42.0272 30.7359L43.9278 30.7523C43.9302 30.7523 43.9325 30.7523 43.9349 30.7523C44.3847 30.7523 44.7509 30.3901 44.7548 29.9398C44.7587 29.4863 44.394 29.1163 43.9419 29.1124Z" fill="#1977CC"/>
<path d="M13.0697 28.8509L11.169 28.8345C11.1667 28.8345 11.1643 28.8345 11.162 28.8345C10.7122 28.8345 10.346 29.1966 10.3421 29.647C10.3382 30.0997 10.7021 30.4696 11.155 30.4735L13.0556 30.4899C13.058 30.4899 13.0603 30.4899 13.0627 30.4899C13.5124 30.4899 13.8787 30.1278 13.8826 29.6774C13.8865 29.2247 13.5226 28.8548 13.0697 28.8509Z" fill="#1977CC"/>
<path d="M36.1622 28.463C35.0026 28.4552 33.9016 28.897 33.0715 29.7118C32.2422 30.5275 31.7792 31.6163 31.7698 32.7792L32.5897 32.7863L31.7698 32.7792C31.7495 35.1801 33.6869 37.1493 36.0888 37.1696C36.1013 37.1696 36.1138 37.1696 36.1271 37.1696C37.2766 37.1696 38.3589 36.7271 39.1796 35.9208C40.0089 35.1052 40.4719 34.0163 40.4813 32.8534C40.5016 30.4525 38.5642 28.4833 36.1622 28.463ZM38.0301 34.7516C37.5132 35.2597 36.826 35.5344 36.1029 35.5305C35.3775 35.5243 34.6981 35.2363 34.189 34.7196C33.6806 34.2029 33.4034 33.5184 33.4097 32.7933C33.4159 32.0682 33.704 31.3891 34.2218 30.8802C34.7332 30.3776 35.4087 30.1013 36.1255 30.1013C36.1334 30.1013 36.1412 30.1013 36.149 30.1013C36.8744 30.1075 37.5538 30.3955 38.0629 30.913C38.5713 31.4297 38.8485 32.1142 38.8422 32.8393C38.8352 33.5644 38.547 34.2435 38.0301 34.7516Z" fill="#1977CC"/>
<path d="M36.1362 31.6827C35.8356 31.6788 35.5474 31.7959 35.3311 32.0082C35.1148 32.2205 34.9946 32.5038 34.9922 32.8067C34.9899 33.1095 35.1054 33.3952 35.3178 33.6106C35.5302 33.8268 35.8137 33.947 36.1167 33.9493C36.1198 33.9493 36.1229 33.9493 36.1268 33.9493C36.4259 33.9493 36.7078 33.8338 36.9218 33.6239C37.1381 33.4116 37.2583 33.1282 37.2607 32.8254C37.2653 32.201 36.7609 31.6882 36.1362 31.6827ZM36.4806 33.1766C36.3853 33.2703 36.2518 33.3249 36.1214 33.3218C35.8426 33.3195 35.6177 33.0908 35.62 32.8121L35.8121 32.8137L35.62 32.8121C35.6208 32.6786 35.6763 32.5491 35.7715 32.4562C35.8668 32.3625 35.9956 32.3071 36.1307 32.311C36.2643 32.3118 36.3939 32.3672 36.4876 32.4624C36.5813 32.5577 36.6336 32.688 36.6328 32.8215C36.6305 32.9534 36.5758 33.0837 36.4806 33.1766Z" fill="#1977CC"/>
<path d="M18.9482 28.3171C16.5494 28.2937 14.5761 30.2333 14.5558 32.6333C14.5355 35.0342 16.4729 37.0034 18.8748 37.0237C18.8873 37.0237 18.8998 37.0237 18.9123 37.0237C21.2971 37.0237 23.247 35.0951 23.2673 32.7067C23.2876 30.3066 21.3502 28.3374 18.9482 28.3171ZM18.9115 35.3846C18.9037 35.3846 18.8959 35.3846 18.8881 35.3846C17.3904 35.3722 16.1824 34.1436 16.1957 32.6474C16.2082 31.1582 17.424 29.9554 18.9108 29.9554C18.9186 29.9554 18.9264 29.9554 18.9342 29.9554C19.6596 29.9616 20.339 30.2496 20.8481 30.7671C21.3572 31.2846 21.6337 31.9683 21.6274 32.6934C21.6149 34.1826 20.3991 35.3854 18.9115 35.3846Z" fill="#1977CC"/>
<path d="M18.9223 31.3682C18.9184 31.3682 18.9145 31.3682 18.9106 31.3682C18.567 31.3682 18.2429 31.5008 17.9977 31.742C17.7494 31.9855 17.6112 32.3118 17.6081 32.6599L18.428 32.6669L17.6081 32.6599C17.6018 33.378 18.1812 33.9673 18.8996 33.9727C18.9035 33.9727 18.9075 33.9727 18.9106 33.9727C19.6235 33.9727 20.2068 33.3959 20.2131 32.6818C20.2201 31.9637 19.6407 31.3744 18.9223 31.3682ZM19.148 32.9105C19.0847 32.9729 18.9957 33.0057 18.909 33.0072C18.7232 33.0057 18.5732 32.8535 18.5748 32.6677C18.5764 32.4827 18.7271 32.3337 18.9121 32.3337C18.9129 32.3337 18.9137 32.3337 18.9153 32.3337C19.1011 32.3352 19.251 32.4874 19.2495 32.6732C19.2479 32.7622 19.2112 32.8488 19.148 32.9105Z" fill="#1977CC"/>
<path d="M25.6437 23.4224C25.6241 22.9908 25.2696 22.6442 24.8315 22.6411C24.8292 22.6411 24.8268 22.6411 24.8245 22.6411C24.3747 22.6411 24.0085 23.0033 24.0046 23.4536C24.0038 23.5348 24.0022 23.7034 24.5785 27.0924C24.6465 27.492 24.9932 27.7745 25.386 27.7745C25.4313 27.7745 25.4781 27.7706 25.5242 27.7628C25.9708 27.6871 26.2707 27.2641 26.195 26.8176C25.9802 25.5571 25.671 23.6886 25.6437 23.4224ZM25.6444 23.4669C25.6444 23.4544 25.6444 23.4427 25.6437 23.4302C25.6444 23.4458 25.6444 23.4583 25.6444 23.4669Z" fill="#1977CC"/>
</svg>
