<svg width="82" height="62" viewBox="0 0 82 62" fill="none" xmlns="http://www.w3.org/2000/svg">
<g clip-path="url(#clip0)">
<path d="M78.1306 47.6778C77.9757 47.5431 77.9253 47.3249 78.0071 47.1366C78.3869 46.2627 78.5752 45.2864 78.5154 44.2596C78.3352 41.159 75.8577 38.6201 72.7626 38.3608C72.1839 38.3123 71.621 38.3443 71.0819 38.4445C70.7817 38.5003 70.5081 38.2624 70.5259 37.9575C70.5347 37.8079 70.5393 37.6572 70.5393 37.5053C70.5393 32.948 66.7568 29.2742 62.16 29.4518C60.8352 29.503 59.5891 29.8805 58.4997 30.5051C56.3398 31.7438 53.8981 32.4063 51.4081 32.4063H42.4475C34.6558 32.4063 28.3228 26.1217 28.263 18.3303C28.5026 13.5245 24.5303 9.5828 19.7141 9.87324C15.6961 10.1155 12.4389 13.3537 12.1722 17.37C12.1099 18.3068 12.2089 19.2117 12.4428 20.0608C12.5284 20.3719 12.2826 20.6695 11.9604 20.6533C11.8566 20.648 11.7524 20.6453 11.6474 20.6453C8.17092 20.6453 5.35257 23.4637 5.35257 26.9401C5.35257 29.4791 6.85596 31.6664 9.02096 32.6617C9.27359 32.7778 9.36305 33.0873 9.22402 33.3282C8.6498 34.3235 8.28198 35.4527 8.17934 36.6577C8.17822 36.6704 8.17727 36.6837 8.17616 36.6977C8.14724 37.0954 7.86681 37.4308 7.48087 37.5309L7.4742 37.5327C3.92545 38.4598 1.30603 41.6853 1.30603 45.5247V50.4567C1.30603 55.056 5.03448 58.7845 9.63379 58.7845H12.5008H72.5602C72.5602 58.7845 73.6279 58.8058 74.5626 58.6715C77.384 58.2662 80.2986 55.8926 80.2986 52.4288C80.2985 50.5317 79.4583 48.8318 78.1306 47.6778Z" fill="#A2DFFF"/>
<path d="M78.1305 47.678C77.9755 47.5433 77.9252 47.3251 78.007 47.1369C78.3867 46.263 78.575 45.2866 78.5153 44.2599C78.3351 41.1592 75.8576 38.6203 72.7625 38.361C72.1838 38.3126 71.6208 38.3445 71.0817 38.4448C70.7816 38.5005 70.508 38.2627 70.5258 37.9578C70.5345 37.8083 70.5391 37.6575 70.5391 37.5057C70.5391 32.9484 66.7567 29.2746 62.1599 29.4522C60.8351 29.5034 59.5889 29.8809 58.4996 30.5055C58.3217 30.6075 58.1413 30.7041 57.9597 30.7983C62.0431 31.1924 65.2364 34.631 65.2364 38.8178C65.2364 38.9697 65.2318 39.1204 65.2231 39.27C65.2053 39.5748 65.4789 39.8128 65.779 39.7569C66.3181 39.6566 66.8812 39.6247 67.4597 39.6731C70.5549 39.9326 73.0322 42.4713 73.2126 45.572C73.2723 46.5987 73.084 47.5751 72.7043 48.449C72.6225 48.6372 72.6728 48.8555 72.8278 48.9901C74.1554 50.1441 74.9956 51.8441 74.9956 53.7412C74.9956 55.9337 73.8273 57.6884 72.2547 58.7846H72.56C72.56 58.7846 73.6278 58.806 74.5625 58.6718C77.3839 58.2664 80.2985 55.8928 80.2985 52.4291C80.2983 50.5318 79.4581 48.8319 78.1305 47.678Z" fill="#A2DFFF"/>
<path d="M59.5949 19.5851H57.7912C56.8639 19.5851 56.1122 18.8334 56.1122 17.9061C56.1122 9.42153 49.2341 2.54346 40.7495 2.54346C32.265 2.54346 25.3869 9.42153 25.3869 17.9061C25.3869 18.8334 24.6352 19.5851 23.7079 19.5851H21.9042C20.1679 19.5851 18.7605 20.9927 18.7605 22.7288V52.7851H62.7388V22.7288C62.7386 20.9925 61.3312 19.5851 59.5949 19.5851Z" fill="white"/>
<path d="M59.5951 19.5851H57.7914C56.8641 19.5851 56.1124 18.8334 56.1124 17.9061C56.1124 9.42153 49.2343 2.54346 40.7497 2.54346C38.1483 2.54346 35.6984 3.19092 33.551 4.33221C33.7005 4.32792 33.8505 4.32522 34.001 4.32522C42.4856 4.32522 49.3637 11.2033 49.3637 19.6879C49.3637 20.6151 50.1154 21.3668 51.0426 21.3668H52.8463C54.5826 21.3668 55.9901 22.7744 55.9901 24.5106V52.7851H62.7388V22.7288C62.7388 20.9925 61.3314 19.5851 59.5951 19.5851Z" fill="white"/>
<path d="M49.4133 24.2877H43.8739C43.6135 24.2877 43.4023 24.0765 43.4023 23.8161V16.4774C43.4023 16.217 43.1912 16.0059 42.9307 16.0059H38.5688C38.3084 16.0059 38.0972 16.217 38.0972 16.4774V23.8163C38.0972 24.0767 37.8861 24.2879 37.6256 24.2879H32.0862C31.8258 24.2879 31.6146 24.499 31.6146 24.7594V29.1214C31.6146 29.3818 31.8258 29.5929 32.0862 29.5929H37.6256C37.8861 29.5929 38.0972 29.8041 38.0972 30.0645V39.865C38.0972 40.1254 38.3084 40.3366 38.5688 40.3366H42.9307C43.1912 40.3366 43.4023 40.1254 43.4023 39.865V30.0645C43.4023 29.8041 43.6135 29.5929 43.8739 29.5929H49.4133C49.6738 29.5929 49.8849 29.3818 49.8849 29.1214V24.7594C49.8849 24.4989 49.6738 24.2877 49.4133 24.2877Z" fill="#4A80AA"/>
<path d="M49.4133 24.2877H43.8739C43.6135 24.2877 43.4023 24.0765 43.4023 23.8161V16.4774C43.4023 16.217 43.1912 16.0059 42.9307 16.0059H38.5688C38.3084 16.0059 38.0972 16.217 38.0972 16.4774V23.8163C38.0972 24.0767 37.8861 24.2879 37.6256 24.2879H32.0862C31.8258 24.2879 31.6146 24.499 31.6146 24.7594V29.1214C31.6146 29.3818 31.8258 29.5929 32.0862 29.5929H37.6256C37.8861 29.5929 38.0972 29.8041 38.0972 30.0645V39.865C38.0972 40.1254 38.3084 40.3366 38.5688 40.3366H42.9307C43.1912 40.3366 43.4023 40.1254 43.4023 39.865V30.0645C43.4023 29.8041 43.6135 29.5929 43.8739 29.5929H49.4133C49.6738 29.5929 49.8849 29.3818 49.8849 29.1214V24.7594C49.8849 24.4989 49.6738 24.2877 49.4133 24.2877Z" fill="#B9CBEA"/>
<path d="M68.2044 58.7844H13.2952C12.8565 58.7844 12.5007 58.4286 12.5007 57.9899V50.9626C12.5007 50.524 12.8565 50.1682 13.2952 50.1682H68.2044C68.6431 50.1682 68.9988 50.524 68.9988 50.9626V57.9899C68.9988 58.4286 68.6431 58.7844 68.2044 58.7844Z" fill="white"/>
<path d="M68.2128 50.1682H65.5888V54.5885C65.5888 55.0225 65.2369 55.3745 64.8028 55.3745H12.5007V57.9985C12.5007 58.4326 12.8527 58.7845 13.2867 58.7845H68.213C68.6471 58.7845 68.999 58.4326 68.999 57.9985V50.9541C68.9988 50.52 68.6469 50.1682 68.2128 50.1682Z" fill="white"/>
<path d="M41.9261 51.7794C41.2273 51.6985 40.549 51.7344 39.9063 51.8679C39.5582 51.9402 39.2253 51.709 39.1683 51.358C38.6819 48.3652 36.0855 46.0806 32.9554 46.0806C29.479 46.0806 26.6606 48.8989 26.6606 52.3754V54C26.6606 54.2985 26.4455 54.5481 26.1528 54.6066C23.541 55.1287 21.5136 57.2665 21.1563 59.9341C21.1061 60.3089 21.4031 60.641 21.7812 60.641H46.4942C46.7535 60.641 46.9896 60.4832 47.0808 60.2404C47.3996 59.3921 47.5415 58.4574 47.4576 57.4799C47.2043 54.5253 44.872 52.12 41.9261 51.7794Z" fill="#A2DFFF"/>
<path d="M47.4579 57.4801C47.2043 54.5253 44.8721 52.12 41.9262 51.7794C41.2274 51.6985 40.5491 51.7344 39.9064 51.8679C39.5583 51.9402 39.2254 51.709 39.1684 51.358C38.6821 48.3652 36.0857 46.0806 32.9556 46.0806C31.0666 46.0806 29.3733 46.9138 28.2195 48.2314C28.2657 48.2305 28.3115 48.2279 28.3579 48.2279C31.488 48.2279 34.0843 50.5126 34.5707 53.5054C34.6277 53.8564 34.9606 54.0875 35.3087 54.0152C35.9513 53.8818 36.6295 53.8459 37.3285 53.9267C40.2746 54.2674 42.6067 56.6726 42.8602 59.6275C42.8897 59.9715 42.8897 60.3097 42.8654 60.6412H46.4945C46.7538 60.6412 46.99 60.4834 47.0812 60.2406C47.3999 59.3923 47.5418 58.4576 47.4579 57.4801Z" fill="#A2DFFF"/>
<path d="M79.1483 47.1337C79.4842 46.1927 79.6243 45.2052 79.5654 44.1911C79.3512 40.5058 76.4143 37.4943 72.7342 37.1859C72.3513 37.1536 71.9671 37.1512 71.5854 37.1776C71.4286 32.7615 68.1148 29.0604 63.7907 28.3805V22.7287C63.7907 20.3453 61.8515 18.406 59.468 18.406H57.6643C57.3885 18.406 57.1642 18.1817 57.1642 17.9059C57.1642 8.78477 49.7437 1.36426 40.6226 1.36426C34.1098 1.36426 28.465 5.14816 25.7685 10.6325C24.0061 9.25413 21.7992 8.55804 19.5163 8.69659C19.137 8.71931 18.7551 8.7665 18.381 8.83657C17.741 8.95653 17.3195 9.57254 17.4395 10.2124C17.5596 10.8524 18.1753 11.2744 18.8154 11.1538C19.0929 11.1018 19.3762 11.0669 19.6579 11.05C21.596 10.9334 23.4569 11.6212 24.8406 12.9465C24.3473 14.5128 24.0808 16.1788 24.0808 17.9059C24.0808 18.1815 23.8565 18.406 23.5806 18.406H21.7771C19.3936 18.406 17.4544 20.3453 17.4544 22.7287V38.0591C17.4544 38.7103 17.9822 39.2381 18.6334 39.2381C19.2845 39.2381 19.8123 38.7103 19.8123 38.0591V22.7287C19.8123 21.6453 20.6936 20.7639 21.7771 20.7639H23.5806C25.1565 20.7639 26.4385 19.4819 26.4385 17.906C26.4385 10.0849 32.8013 3.72215 40.6224 3.72215C48.4433 3.72215 54.8061 10.0849 54.8061 17.906C54.8061 19.4819 56.0882 20.7639 57.664 20.7639H59.4677C60.5512 20.7639 61.4325 21.6453 61.4325 22.7287V48.9895H49.5155C48.8644 48.9895 48.3365 49.5173 48.3365 50.1684C48.3365 50.8195 48.8644 51.3474 49.5155 51.3474H67.6924V57.6056H48.5185C48.5185 57.6056 48.5118 57.4551 48.5053 57.3795C48.2034 53.8614 45.44 51.0139 41.9345 50.6085C41.3187 50.5372 40.7022 50.541 40.0949 50.6201C39.2959 47.2751 36.324 44.9019 32.8284 44.9019C29.926 44.9019 27.4065 46.5661 26.1692 48.9895H19.8125V43.9094C19.8125 43.2582 19.2846 42.7304 18.6335 42.7304C17.9824 42.7304 17.4546 43.2582 17.4546 43.9094V48.9895H13.1595C12.0761 48.9895 11.1947 49.8708 11.1947 50.9543V57.6054H9.50655C5.56471 57.6054 2.35773 54.3986 2.35773 50.4568V45.5248C2.35773 42.3041 4.53194 39.4867 7.63295 38.6764C7.63628 38.6755 7.64645 38.6731 7.64979 38.6721C8.52653 38.4447 9.15938 37.6857 9.22516 36.7807L9.22707 36.7574C9.31286 35.7489 9.61268 34.7932 10.1179 33.9174C10.3515 33.5127 10.4044 33.0264 10.2632 32.5829C10.1235 32.1444 9.80398 31.7828 9.38627 31.5905C7.5748 30.7578 6.40443 28.9323 6.40443 26.94C6.40443 24.1192 8.6994 21.8242 11.5203 21.8242C12.6932 22.0245 13.8024 20.9212 13.4524 19.7477C13.2472 19.0033 13.1697 18.2295 13.2215 17.4481C13.3116 16.0922 13.8035 14.8023 14.6437 13.7177C15.0425 13.2031 14.9486 12.4625 14.434 12.0637C13.9193 11.6651 13.1788 11.7588 12.7801 12.2736C11.6512 13.7303 10.9904 15.4657 10.869 17.2918C10.8199 18.0307 10.8577 18.7654 10.9813 19.4855C7.111 19.7629 4.0467 23.0003 4.0467 26.94C4.0467 29.5982 5.47287 32.053 7.73591 33.3851C7.27799 34.3448 6.9939 35.3673 6.88888 36.4355C2.82438 37.5737 0 41.2874 0 45.5248V50.4568C0 55.6986 4.2647 59.9633 9.50655 59.9633H19.846C19.8328 60.4146 19.9899 60.8572 20.2909 61.2014C20.635 61.5946 21.1319 61.8201 21.6541 61.8201H46.3671C47.1166 61.8201 47.7959 61.3519 48.0572 60.6553C48.1429 60.4273 48.215 60.1963 48.2776 59.9633H72.693C73.2139 59.9589 73.8094 59.9401 74.3296 59.8883C78.2247 59.4999 81.3503 56.3882 81.3503 52.4291C81.3503 50.435 80.5533 48.5322 79.1483 47.1337ZM13.5525 51.3474H25.4272C25.3807 51.6837 25.3548 52.0268 25.3548 52.3757V53.5526C23.1879 54.1234 21.4239 55.6297 20.4987 57.6054H13.5525V51.3474ZM45.9717 59.4624H22.3224C22.8153 57.5981 24.3303 56.1481 26.2568 55.7628C27.1003 55.5943 27.7127 54.853 27.7127 54.0001V52.3757C27.7127 49.5548 30.0076 47.2598 32.8285 47.2598C35.3504 47.2598 37.4739 49.063 37.8778 51.5474C37.9564 52.0312 38.2323 52.4675 38.6347 52.7443C39.0362 53.0203 39.5409 53.1213 40.019 53.0225C40.5566 52.911 41.1102 52.8868 41.6636 52.9508H41.6638C44.0606 53.2279 45.9499 55.1753 46.1563 57.5811C46.2113 58.2245 46.1493 58.8557 45.9717 59.4624ZM73.8923 57.5972C73.5939 57.6027 73.29 57.6056 73.29 57.6056H70.0506V50.9544C70.0506 49.871 69.1692 48.9896 68.0858 48.9896H63.7907V30.7767C66.9078 31.4431 69.2334 34.236 69.2334 37.5054C69.0075 38.6615 69.947 39.8566 71.1707 39.6035C71.6193 39.5201 72.0791 39.4972 72.5372 39.5355C75.0555 39.7465 77.065 41.807 77.2115 44.328C77.2588 45.1412 77.1199 45.928 76.799 46.6667C76.5111 47.3291 76.6841 48.0929 77.2302 48.5678C78.3502 49.5411 78.9926 50.9486 78.9926 52.4291C78.9924 55.2326 76.696 57.5803 73.8923 57.5972Z" fill="#1977CC"/>
<path d="M42.9306 14.8269H38.5687C37.6586 14.8269 36.9182 15.5673 36.9182 16.4774V23.1087H32.0861C31.176 23.1087 30.4355 23.8492 30.4355 24.7593V29.1212C30.4355 30.0313 31.176 30.7717 32.0861 30.7717H36.9182V39.8648C36.9182 40.775 37.6586 41.5154 38.5687 41.5154H42.9306C43.8407 41.5154 44.5811 40.775 44.5811 39.8648V30.7717H49.4134C50.3235 30.7717 51.0639 30.0313 51.0639 29.1212V24.7593C51.0639 23.8492 50.3235 23.1087 49.4134 23.1087H44.5811V16.4774C44.5811 15.5673 43.8407 14.8269 42.9306 14.8269ZM48.706 25.4666V28.414H43.8738C42.9637 28.414 42.2232 29.1544 42.2232 30.0645V39.1576H39.2759V30.0645C39.2759 29.1544 38.5355 28.414 37.6254 28.414H32.7933V25.4666H37.6254C38.5355 25.4666 39.2759 24.7262 39.2759 23.8161V17.1848H42.2232V23.8161C42.2232 24.7262 42.9637 25.4666 43.8738 25.4666H48.706Z" fill="#1977CC"/>
</g>
<defs>
<clipPath id="clip0">
<rect width="81.3503" height="62" fill="white"/>
</clipPath>
</defs>
</svg>
