<svg width="65" height="62" viewBox="0 0 65 62" fill="none" xmlns="http://www.w3.org/2000/svg">
<path d="M5.87952 41.6914L31.0012 37.4154H34.7427L35.2772 34.7429H41.1567L47.0363 31.5359L48.6398 29.3979L50.2433 30.4669L52.9158 32.6049L57.7263 33.1394V31.0014L50.2433 29.9324L49.1743 28.8634V19.7768H40.6222V9.62123L34.7427 10.1557V4.8107H51.3123L52.3813 3.20719L50.2433 1.06917L33.1392 0.534668L29.9322 2.67268L29.3977 9.62123L22.4491 10.1557L23.5181 19.7768H22.4491L14.9661 20.8458V31.0014L6.41402 31.5359L5.87952 41.6914Z" fill="white"/>
<path d="M31.5357 37.415L4.276 43.2946L8.01752 53.4501H33.6737H45.9673L53.9848 50.2431L31.5357 37.415Z" fill="#E0F4FC"/>
<path d="M47.0361 31.0013L48.6396 28.8633L51.3122 31.0013L55.0537 33.1393L59.3297 34.2083L63.0712 34.7428V40.6224V46.5019L61.4677 52.3814L59.3297 55.5885L56.1227 58.7955L53.4502 59.8645L51.3122 60.9335H48.6396L46.5016 59.8645L43.2946 58.7955L40.0876 57.192L34.7426 48.6399V34.7428H36.8806L43.2946 33.6738L47.0361 31.0013Z" fill="#A2DFFF"/>
<path d="M47.9037 35.7046L48.9929 34.208L50.8082 35.7046L53.3496 37.2012L56.2541 37.9495L58.7955 38.3237V42.4394V46.555L57.7063 50.6707L56.2541 52.9156L54.0757 55.1605L52.2604 55.9088L50.8082 56.6572H48.9929L47.5406 55.9088L45.3623 55.1605L43.1839 54.0381L39.5533 48.0516V38.3237H41.0056L45.3623 37.5754L47.9037 35.7046Z" fill="white"/>
<path d="M62.9084 33.1467L62.6444 33.1788C62.058 33.2491 61.4679 33.2848 60.8773 33.2857C60.1684 33.2805 59.4609 33.2222 58.7607 33.1114V31.0012C58.7607 30.7177 58.6481 30.4458 58.4476 30.2453C58.2471 30.0448 57.9752 29.9322 57.6917 29.9322H51.7341C51.1893 29.4748 50.6794 28.9774 50.2086 28.4441V20.3111C50.2086 20.0276 50.096 19.7557 49.8955 19.5552C49.695 19.3547 49.4231 19.2421 49.1396 19.2421H41.6566V9.62106C41.6566 9.33754 41.544 9.06564 41.3435 8.86516C41.143 8.66468 40.8711 8.55205 40.5876 8.55205H35.2425V6.16069L49.1396 5.49897V8.55205C49.1396 8.83557 49.2523 9.10748 49.4527 9.30796C49.6532 9.50843 49.9251 9.62106 50.2086 9.62106C50.4201 9.62106 50.6267 9.68376 50.8025 9.80122C50.9783 9.91868 51.1154 10.0856 51.1963 10.281C51.2772 10.4763 51.2983 10.6913 51.2571 10.8986C51.2159 11.106 51.114 11.2965 50.9645 11.446C50.815 11.5955 50.6246 11.6973 50.4172 11.7385C50.2098 11.7798 49.9949 11.7586 49.7995 11.6777C49.6042 11.5968 49.4372 11.4598 49.3198 11.284C49.2023 11.1082 49.1396 10.9015 49.1396 10.6901H47.0016C47.0017 11.278 47.1634 11.8546 47.4691 12.3568C47.7748 12.859 48.2126 13.2675 48.7348 13.5377C49.2569 13.8079 49.8433 13.9294 50.4298 13.8888C51.0164 13.8483 51.5805 13.6473 52.0605 13.3078C52.5405 12.9683 52.9179 12.5034 53.1516 11.9639C53.3852 11.4244 53.466 10.8311 53.3852 10.2487C53.3044 9.66636 53.0651 9.11743 52.6934 8.66191C52.3217 8.2064 51.8319 7.86182 51.2776 7.66585V5.39742L52.3969 5.34503C52.6716 5.33211 52.9308 5.2138 53.1205 5.01471C53.3103 4.81561 53.416 4.55105 53.4157 4.27603V3.20702C53.4157 2.35647 53.0778 1.54075 52.4763 0.939315C51.8749 0.337882 51.0592 0 50.2086 0H32.0355C31.185 0 30.3692 0.337882 29.7678 0.939315C29.1664 1.54075 28.8285 2.35647 28.8285 3.20702V8.55205H23.4835C23.1999 8.55205 22.928 8.66468 22.7276 8.86516C22.5271 9.06564 22.4145 9.33754 22.4145 9.62106V19.2421H14.9314C14.6479 19.2421 14.376 19.3547 14.1755 19.5552C13.975 19.7557 13.8624 20.0276 13.8624 20.3111V29.9322H6.37935C6.09584 29.9322 5.82393 30.0448 5.62345 30.2453C5.42298 30.4458 5.31035 30.7177 5.31035 31.0012V41.4657L4.0393 41.7105C3.89122 41.7389 3.7508 41.7982 3.62728 41.8847C3.50376 41.9711 3.39992 42.0827 3.32259 42.2121C3.24526 42.3416 3.19618 42.4859 3.17857 42.6356C3.16097 42.7854 3.17523 42.9371 3.22044 43.081L7.85351 57.8985C7.22603 58.0426 6.63386 58.3113 6.1121 58.6885L5.24514 59.3299C4.71601 59.6822 4.09452 59.8702 3.45883 59.8702C2.82314 59.8702 2.20164 59.6822 1.67252 59.3299C1.44498 59.1742 1.16612 59.1125 0.894157 59.1576C0.622199 59.2027 0.378173 59.3511 0.213035 59.5719C0.0478976 59.7926 -0.0255838 60.0686 0.00793506 60.3422C0.0414539 60.6158 0.179382 60.8659 0.392917 61.0403C1.29223 61.6646 2.36085 61.9992 3.45562 61.9992C4.55039 61.9992 5.61901 61.6646 6.51833 61.0403L7.38422 60.3989C7.91352 60.046 8.53544 59.8577 9.1716 59.8577C9.80776 59.8577 10.4297 60.046 10.959 60.3989L11.8238 61.0403C12.723 61.6644 13.7914 61.9988 14.886 61.9988C15.9805 61.9988 17.0489 61.6644 17.9481 61.0403L18.8151 60.3989C19.3442 60.0461 19.966 59.8578 20.602 59.8578C21.2379 59.8578 21.8597 60.0461 22.3888 60.3989L23.2536 61.0403C24.1529 61.6646 25.2216 61.9992 26.3163 61.9992C27.4111 61.9992 28.4797 61.6646 29.379 61.0403L30.246 60.3989C30.7751 60.0461 31.3969 59.8578 32.0328 59.8578C32.6688 59.8578 33.2906 60.0461 33.8197 60.3989L34.6845 61.0403C35.5838 61.6646 36.6525 61.9992 37.7472 61.9992C38.842 61.9992 39.9106 61.6646 40.8099 61.0403L41.6758 60.3989C42.2051 60.046 42.827 59.8577 43.4632 59.8577C44.0994 59.8577 44.7213 60.046 45.2506 60.3989L46.1154 61.0403C47.0147 61.6642 48.0831 61.9986 49.1776 61.9986C50.2721 61.9986 51.3405 61.6642 52.2397 61.0403L53.1067 60.3989C53.636 60.046 54.2579 59.8577 54.8941 59.8577C55.5302 59.8577 56.1522 60.046 56.6815 60.3989L57.5452 61.0403C58.4445 61.6651 59.5134 62 60.6085 62C61.7035 62 62.7724 61.6651 63.6717 61.0403C63.7936 60.9603 63.8977 60.8562 63.9779 60.7344C64.058 60.6126 64.1124 60.4757 64.1377 60.3321C64.1629 60.1886 64.1586 60.0413 64.1249 59.8995C64.0911 59.7577 64.0288 59.6243 63.9416 59.5074C63.8544 59.3906 63.7442 59.2928 63.6179 59.2201C63.4915 59.1474 63.3516 59.1014 63.2068 59.0847C63.062 59.0681 62.9153 59.0813 62.7757 59.1234C62.6362 59.1656 62.5067 59.2358 62.3953 59.3299C61.8662 59.6827 61.2444 59.871 60.6085 59.871C59.9725 59.871 59.3508 59.6827 58.8216 59.3299L57.9568 58.6885C57.8499 58.6083 57.7248 58.5474 57.6083 58.4747C59.6209 56.9855 61.2569 55.0457 62.3852 52.8107C63.5135 50.5757 64.1027 48.1075 64.1057 45.6038V34.2082C64.1058 34.057 64.0737 33.9075 64.0117 33.7695C63.9496 33.6316 63.8591 33.5084 63.7459 33.4081C63.6327 33.3078 63.4996 33.2326 63.3552 33.1875C63.2109 33.1425 63.0586 33.1285 62.9084 33.1467ZM56.6227 32.0702V32.624C56.1208 32.4665 55.628 32.2816 55.1464 32.0702H56.6227ZM48.0706 28.4356C47.5983 28.9726 47.0858 29.4729 46.5377 29.9322H35.2425V21.3801H48.0706V28.4356ZM28.8285 32.0702V36.9427L24.5525 37.7648V32.0702H28.8285ZM35.3708 33.1467C35.3279 33.148 35.285 33.1519 35.2425 33.1585V32.0702H39.5186V33.1178C38.2338 33.3142 36.9283 33.3347 35.6381 33.1788L35.3708 33.1467ZM41.6566 32.0702H43.1179C42.6412 32.2786 42.1533 32.4606 41.6566 32.6154V32.0702ZM39.5186 10.6901V19.2421H35.2425V10.6901H39.5186ZM33.1045 36.3462H30.9665V6.36487L33.1045 6.25797V36.3462ZM30.9665 3.20702C30.9665 2.9235 31.0791 2.6516 31.2796 2.45112C31.4801 2.25064 31.752 2.13801 32.0355 2.13801H50.2086C50.4921 2.13801 50.7641 2.25064 50.9645 2.45112C51.165 2.6516 51.2776 2.9235 51.2776 3.20702L30.9665 4.22365V3.20702ZM24.5525 10.6901H28.8285V19.2421H24.5525V10.6901ZM16.0004 21.3801H28.8285V29.9322H16.0004V21.3801ZM7.44836 40.6223V32.0702H22.4145V38.1764L9.69328 40.6223H7.44836ZM32.0355 38.5046L34.1735 38.9172V45.6038C34.1817 47.9478 34.7043 50.2614 35.7043 52.3813H8.36985L5.61929 43.5845L32.0355 38.5046ZM39.5378 59.3299C39.0085 59.6828 38.3866 59.8711 37.7504 59.8711C37.1143 59.8711 36.4923 59.6828 35.963 59.3299L35.0982 58.6885C34.1991 58.0641 33.1307 57.7295 32.0361 57.7295C30.9414 57.7295 29.873 58.0641 28.9739 58.6885L28.1069 59.3299C27.5776 59.6828 26.9557 59.8711 26.3195 59.8711C25.6834 59.8711 25.0615 59.6828 24.5322 59.3299L23.6684 58.6885C22.7691 58.0642 21.7005 57.7296 20.6057 57.7296C19.5109 57.7296 18.4423 58.0642 17.543 58.6885L16.676 59.3299C16.1469 59.6827 15.5252 59.871 14.8892 59.871C14.2532 59.871 13.6315 59.6827 13.1023 59.3299L12.2375 58.6885C11.5946 58.2235 10.8491 57.9202 10.0642 57.8044L9.03798 54.5193H36.8899C37.9221 56.0568 39.2125 57.404 40.7041 58.5014C40.6047 58.5634 40.4978 58.6147 40.4037 58.6842L39.5378 59.3299ZM61.9677 45.6038C61.9682 47.8522 61.4238 50.0672 60.3813 52.0593C59.3387 54.0513 57.829 55.7611 55.9813 57.0422L54.9839 57.7349C53.8584 57.6998 52.7524 58.0339 51.8346 58.6863L50.9676 59.3277C50.4385 59.6806 49.8168 59.8688 49.1808 59.8688C48.5448 59.8688 47.9231 59.6806 47.3939 59.3277L46.5291 58.6863C45.5913 58.0224 44.4594 57.6888 43.3114 57.7381L42.298 57.0401C40.4504 55.7594 38.9407 54.05 37.8981 52.0583C36.8555 50.0666 36.3111 47.8519 36.3115 45.6038V35.3905C38.6801 35.5552 41.0559 35.1991 43.2721 34.3473C45.4883 33.4956 47.491 32.1688 49.1396 30.4603C50.6627 32.0334 52.4869 33.2838 54.5035 34.1371C56.52 34.9903 58.6877 35.429 60.8773 35.4269C61.2344 35.4269 61.5957 35.4141 61.9677 35.3884V45.6038Z" fill="#1977CC"/>
<path d="M58.8749 37.4591C55.5757 37.1041 52.4337 35.8646 49.7808 33.8715C49.5958 33.7327 49.3707 33.6577 49.1394 33.6577C48.9081 33.6577 48.6831 33.7327 48.498 33.8715C45.8454 35.8644 42.7038 37.1039 39.4051 37.4591C39.1429 37.4873 38.9004 37.6114 38.7242 37.8076C38.548 38.0037 38.4505 38.258 38.4504 38.5217V45.6081C38.4504 47.5094 38.9115 49.3823 39.794 51.0663C40.6765 52.7504 41.9542 54.1953 43.5175 55.2773L48.5322 58.7494C48.711 58.8731 48.9232 58.9394 49.1405 58.9394C49.3579 58.9394 49.57 58.8731 49.7488 58.7494L54.7656 55.2773C56.3284 54.195 57.6055 52.7499 58.4874 51.0659C59.3693 49.3818 59.8299 47.5091 59.8295 45.6081V38.5217C59.8294 38.258 59.7319 38.0037 59.5557 37.8076C59.3795 37.6114 59.137 37.4873 58.8749 37.4591ZM57.6915 45.6081C57.6916 47.1635 57.3145 48.6957 56.5927 50.0735C55.8709 51.4512 54.8258 52.6334 53.547 53.5188L49.1394 56.5708L44.733 53.5188C43.454 52.6336 42.4087 51.4514 41.6867 50.0736C40.9646 48.6959 40.5874 47.1636 40.5874 45.6081V39.4592C43.6596 38.9823 46.5836 37.8149 49.1394 36.0448C51.6953 37.8149 54.6193 38.9823 57.6915 39.4592V45.6081Z" fill="#1977CC"/>
<path d="M44.4361 47.2501L43.1533 48.9605L47.4293 52.1675C47.6536 52.3359 47.935 52.4095 48.213 52.3723C48.491 52.3351 48.7432 52.1901 48.9153 51.9687L56.3983 42.3476L54.7093 41.0349L47.8676 49.8264L44.4361 47.2501Z" fill="#1977CC"/>
</svg>
