<svg width="62" height="62" viewBox="0 0 62 62" fill="none" xmlns="http://www.w3.org/2000/svg">
<g clip-path="url(#clip0)">
<circle cx="31" cy="30.5156" r="30.5156" fill="white"/>
<path d="M46.9437 56.1896C46.6083 55.6115 45.8676 55.4146 45.2887 55.75L45.2421 55.7769C44.6638 56.1125 44.467 56.8534 44.8024 57.4319C45.027 57.819 45.4333 58.0353 45.8508 58.0353C46.0569 58.0353 46.2662 57.9824 46.4574 57.8715L46.504 57.8446C47.0824 57.509 47.2791 56.7681 46.9437 56.1896Z" fill="#1977CC"/>
<path d="M49.651 41.6899L49.0684 39.494C48.9412 39.0145 48.5343 38.6611 48.0418 38.6023C47.5487 38.5446 47.0705 38.7912 46.8338 39.2273C46.701 39.4719 46.5815 39.731 46.466 39.9815C46.2716 40.4031 46.0706 40.839 45.8615 41.0796C45.744 41.2148 45.4423 41.3604 45.1507 41.5011C44.4535 41.8375 43.4987 42.2983 43.134 43.461C42.9075 44.1823 42.9921 44.7529 43.0538 45.1694C43.1072 45.5307 43.1196 45.6559 43.0228 45.883L43.0107 45.9113C42.6253 46.8157 41.9082 48.4995 42.9137 49.931C43.6312 50.9525 44.3856 51.2152 44.9718 51.2152C45.0863 51.2155 45.1945 51.2055 45.2947 51.1891C46.5298 50.9873 47.4584 49.7025 48.2171 47.1454L49.6414 42.3452C49.7048 42.1317 49.7082 41.905 49.651 41.6899ZM45.8957 46.4565C45.5089 47.7602 45.1667 48.3689 44.9692 48.6387C44.9464 48.6096 44.9217 48.5767 44.8953 48.539C44.6639 48.2094 45.0097 47.3976 45.2386 46.8603L45.2508 46.8319C45.6199 45.9656 45.5212 45.3003 45.4494 44.8145C45.4033 44.5034 45.3868 44.3697 45.4446 44.186C45.492 44.035 45.7758 43.8885 46.2032 43.6822C46.3927 43.5906 46.6014 43.49 46.812 43.3682L45.8957 46.4565Z" fill="#1977CC"/>
<path d="M32.6991 14.3934L32.6174 14.3648C31.9868 14.1439 31.2954 14.4756 31.074 15.1066C30.8527 15.7377 31.1848 16.4286 31.8158 16.6499L31.8975 16.6785C32.0301 16.725 32.1652 16.7471 32.2983 16.7471C32.7981 16.7471 33.2661 16.435 33.4409 15.9367C33.6623 15.3056 33.3301 14.6146 32.6991 14.3934Z" fill="#1977CC"/>
<path d="M5.44922 33.4824L2.17969 34.6934L1.33203 37.1152L3.02734 42.6855L5.44922 46.7422L8.7793 51.3438L12.5332 54.4316L14.2285 51.3438V48.4375L15.3184 46.7422L17.1953 45.5312L16.166 43.4727V40.3848L15.3184 37.9629L12.5332 37.1152L8.7793 34.6934L5.44922 33.4824Z" fill="#A2DFFF"/>
<path d="M57.8461 15.5106C53.7069 8.3412 47.0236 3.213 39.0273 1.07036C31.0312 -1.07227 22.6791 0.0273827 15.5098 4.16649C8.34053 8.30559 3.21221 14.989 1.0697 22.9852C-1.07281 30.9814 0.0267183 39.3336 4.16582 46.5028C7.87868 52.9337 13.7798 57.8212 20.7822 60.2646C24.1015 61.4228 27.5666 62.0007 31.0264 62.0007C34.7881 62.0007 38.5431 61.317 42.0925 59.9529C42.7167 59.713 43.0282 59.0125 42.7882 58.3883C42.5482 57.764 41.8475 57.4522 41.2235 57.6926C31.7758 61.3238 21.548 59.6739 13.9066 53.9382L14.9915 48.2752L15.5142 48.1055C17.4896 47.4637 18.5746 45.3344 17.9331 43.3588L17.5495 42.1783C17.4607 41.9051 17.4612 41.6163 17.5507 41.3434C17.8872 40.3174 17.767 39.195 17.2207 38.2636C16.6744 37.3322 15.7535 36.6792 14.6938 36.472L11.9607 35.938L6.68736 31.9286C6.37143 31.6883 5.95789 31.6182 5.58032 31.7407L2.49291 32.7436C2.4274 31.6394 2.42643 30.5355 2.48868 29.4374C2.6105 29.5509 2.68981 29.628 2.73861 29.6786C2.79904 29.7793 2.87387 29.8715 2.96155 29.9515C3.21366 30.1811 3.44205 30.2852 3.92158 30.2852C4.36224 30.2851 5.01457 30.1973 6.0917 30.0382C7.11325 29.8872 8.12946 29.717 8.13951 29.7153C8.54675 29.6472 8.89102 29.3759 9.05305 28.9963C9.21507 28.6165 9.17232 28.1805 8.9397 27.8392L7.45497 25.6615L9.58162 24.1408C9.7233 24.0394 9.84149 23.9088 9.92807 23.7576L13.2246 18.0027L14.5534 16.5788C15.9112 15.1235 16.2987 12.9943 15.5404 11.1542C15.0931 10.0688 14.3118 9.16524 13.3346 8.55626C14.3929 7.72422 15.5214 6.956 16.7207 6.26371C21.121 3.72316 25.9231 2.492 30.6747 2.4449L28.5124 5.15728L20.4942 7.96823C20.1686 8.0823 19.907 8.33005 19.7755 8.64901L17.5363 14.0774C17.3773 14.4631 17.4278 14.9031 17.6701 15.2427L20.9406 19.8239C20.4722 20.2512 20.0163 20.8737 19.4717 21.6465C19.2329 21.9854 19.0074 22.3055 18.8516 22.4849C18.7161 22.6412 18.5805 22.7937 18.446 22.9449C17.7426 23.7362 17.0153 24.5547 16.4986 25.6479C15.3625 28.0527 15.592 30.8478 17.0974 32.9425C18.5531 34.9678 20.9529 35.9973 23.5143 35.696C23.9316 35.6471 24.3207 35.5508 24.6971 35.4576C25.7353 35.2008 26.0642 35.1751 26.3972 35.4868C26.5592 35.6385 26.5741 35.6672 26.5708 36.1817C26.5685 36.5092 26.566 36.9165 26.6788 37.3817C26.8596 38.1258 27.3269 38.6401 27.7023 39.0532C27.8889 39.2585 28.082 39.4709 28.1414 39.6134C28.5191 40.5185 28.3547 41.0197 27.9943 42.118C27.9634 42.212 27.9319 42.3079 27.9003 42.4062C27.3529 44.1009 28.116 45.7819 28.7893 47.2648C29.008 47.7464 29.2144 48.201 29.3497 48.6028C30.4384 51.8335 31.2546 52.5733 31.9096 52.8712C32.2527 53.0272 32.6077 53.0956 32.9664 53.0955C34.712 53.0954 36.5335 51.4747 37.3702 50.4472C37.8958 49.802 38.0252 49.156 38.1197 48.6841C38.1668 48.4494 38.2038 48.2641 38.2745 48.143C38.3828 47.9577 38.5103 47.8141 38.6717 47.6322C38.9964 47.2667 39.4005 46.8118 39.6622 45.9873C39.861 45.361 40.0055 45.2075 40.4839 44.6979C40.5672 44.6094 40.656 44.5147 40.7513 44.411C42.3641 42.656 41.9488 41.3154 41.5088 39.8959C41.1387 38.7016 41.7861 37.9377 43.3516 36.4799C44.0303 35.8479 44.7319 35.1945 45.2742 34.4093C45.5116 34.0656 46.2337 33.0202 45.7868 31.984C45.3488 30.968 44.2356 30.7973 43.3412 30.6602C42.988 30.606 42.4542 30.5241 42.2843 30.4131C41.5351 29.9232 41.0768 28.901 40.6334 27.9122C40.5452 27.7155 40.4581 27.5212 40.3698 27.3327C40.2124 26.9963 40.0551 26.5893 39.8886 26.1584C39.4481 25.0182 38.9488 23.7258 38.0988 22.8249C37.3349 22.0153 35.8947 21.6254 34.6241 21.2813C34.1967 21.1656 33.7934 21.0564 33.5273 20.9582C33.3044 20.8759 33.0624 20.861 32.8316 20.9152C32.2132 21.0602 31.8274 21.2199 31.5409 21.4495C31.4652 21.5101 31.2411 21.7093 31.1098 22.0295C30.6665 21.8167 30.0569 21.4105 29.6817 21.1604C29.674 21.1552 29.6661 21.15 29.6584 21.1448C29.7848 20.6389 29.6703 20.2328 29.5505 19.9793C28.874 18.5484 26.6286 18.6604 26.1856 18.6981C25.934 18.7192 25.6156 18.7304 25.2789 18.7423C24.7499 18.7611 24.1653 18.7821 23.5868 18.847L23.6166 18.764C24.0557 17.5406 25.224 16.7186 26.5238 16.7186H27.2123C27.8808 16.7186 28.4231 16.1763 28.4231 15.5078C28.4231 14.8392 27.8808 14.2969 27.2123 14.2969H26.5238C24.5941 14.2969 22.827 15.3126 21.8365 16.9111L20.0304 14.3811L21.8074 10.0739L29.6425 7.32703C29.8573 7.25171 30.0467 7.1173 30.1887 6.93917L33.6718 2.57023C42.5714 3.4168 50.9487 8.40658 55.7491 16.7211C57.0277 18.9358 57.9736 21.2673 58.6024 23.652L58.0891 24.1098C57.4191 24.7076 57.0265 25.5651 57.0115 26.4625C57.0114 26.4723 57.0111 26.482 57.0108 26.4917L56.1745 24.1919C56.0499 23.8487 55.8663 23.534 55.6292 23.2566L54.1375 21.51C53.5591 20.833 52.717 20.4449 51.8269 20.4449H50.0009C49.3527 20.4449 48.7603 20.7999 48.4545 21.3711C48.1488 21.9424 48.1822 22.6324 48.5417 23.1715L48.7265 23.449C47.5466 24.4636 46.1818 25.2756 44.7287 25.8231L42.2257 21.0287V19.959C42.2257 19.6282 42.0903 19.3116 41.8509 19.0833L39.597 16.9316C39.4726 16.8129 39.3244 16.7221 39.1623 16.6651L37.1334 15.9521C36.5021 15.73 35.8111 16.0621 35.5895 16.6929C35.3678 17.3239 35.6995 18.015 36.3304 18.2367L38.1134 18.8634L39.8041 20.4772V21.3258C39.8041 21.5209 39.8513 21.7132 39.9416 21.8863L43.0752 27.8885C43.357 28.4286 43.9966 28.6754 44.5674 28.4642L45.4799 28.1278C47.5996 27.346 49.5644 26.0885 51.1618 24.4912C51.5699 24.083 51.6334 23.4438 51.3131 22.9634L51.2486 22.8666H51.8269C52.0077 22.8666 52.1788 22.9455 52.2962 23.083L53.788 24.8296C53.8361 24.8859 53.8732 24.9496 53.8987 25.0194L55.5449 29.5463C55.6864 29.9352 56.0167 30.2249 56.4204 30.3145C56.5076 30.3338 56.5954 30.3432 56.6827 30.3432C57.0004 30.3432 57.3095 30.2181 57.5389 29.9885L58.3225 29.2049C58.8187 28.7086 59.1603 28.0806 59.3235 27.3844C60.5354 37.0967 56.7272 47.1436 48.6776 53.4616C48.1514 53.8744 48.0596 54.6355 48.4727 55.1616C48.8855 55.6878 49.6465 55.7795 50.1727 55.3665C55.9843 50.8053 59.9767 44.2813 61.4147 36.9965C62.8661 29.6413 61.5989 22.0106 57.8461 15.5106ZM5.72587 34.2398L10.7189 38.0362C10.8665 38.1484 11.0378 38.2252 11.2197 38.2607L14.2291 38.8487C14.6132 38.9238 14.9336 39.151 15.1316 39.4886C15.3296 39.8261 15.3712 40.2166 15.2494 40.5885C14.9987 41.3529 14.9975 42.1615 15.2461 42.9264L15.6298 44.1068C15.859 44.8123 15.4713 45.5729 14.7659 45.8022L13.5626 46.1932C13.1427 46.3295 12.8306 46.6836 12.7476 47.1169L11.7791 52.1724C9.64992 50.2236 7.78047 47.9204 6.26305 45.2921C4.41177 42.0859 3.25508 38.6661 2.74527 35.2081L5.72587 34.2398ZM12.7829 14.9266L11.3584 16.4528C11.2949 16.521 11.2393 16.5963 11.1929 16.6772L7.95824 22.3245L5.08335 24.3802C4.54787 24.7631 4.41637 25.5033 4.78716 26.0473L5.86235 27.6244C5.24259 27.7167 4.68641 27.7927 4.31659 27.833C4.2455 27.7649 4.17115 27.6957 4.09426 27.6243C3.80642 27.3569 3.40645 26.9998 2.81018 26.478C3.79358 20.3915 6.72647 14.6574 11.3392 10.2805C12.2224 10.5587 12.9473 11.2175 13.3014 12.0769C13.6998 13.0435 13.4961 14.1622 12.7829 14.9266ZM22.6556 21.5436C23.1957 21.2396 24.4493 21.1952 25.3645 21.1627C25.7313 21.1498 26.0779 21.1374 26.3874 21.1115C26.5507 21.0978 26.7321 21.1004 26.9032 21.1137C26.8268 21.3099 26.802 21.5252 26.8352 21.7388C26.8934 22.1145 27.1251 22.4409 27.4603 22.6202C27.6874 22.7418 28.0036 22.9526 28.3383 23.1758C29.2847 23.8067 30.3574 24.5217 31.3652 24.5859C32.2816 24.6454 32.7915 24.1231 33.01 23.9007C33.0274 23.883 33.0439 23.8653 33.0613 23.8492C33.1844 23.7489 33.2997 23.6145 33.3854 23.4524C33.579 23.5077 33.7824 23.5628 33.991 23.6194C34.708 23.8135 36.0425 24.1748 36.3374 24.4872C36.8611 25.0424 37.2693 26.0992 37.6296 27.0315C37.8116 27.5027 37.9836 27.9474 38.1765 28.3597C38.2593 28.5366 38.3408 28.7189 38.4236 28.9034C38.9823 30.1497 39.6157 31.5624 40.9592 32.4405C41.5684 32.8388 42.3152 32.9533 42.9742 33.0544C43.0539 33.0666 43.1452 33.0806 43.2379 33.0959C42.8468 33.6416 42.2899 34.1601 41.7015 34.708C40.2025 36.104 38.3369 37.8414 39.1961 40.6132C39.6016 41.9219 39.6205 42.0634 38.9684 42.7727C38.8795 42.8695 38.7967 42.9577 38.7191 43.0402C38.1606 43.6348 37.7195 44.1044 37.3542 45.2548C37.2482 45.5889 37.1107 45.7437 36.8611 46.0246C36.6616 46.2493 36.413 46.5293 36.1837 46.9217C35.9091 47.3917 35.8183 47.8444 35.7455 48.208C35.6737 48.5659 35.633 48.7455 35.4925 48.9179C35.1727 49.3105 34.5762 49.8806 33.9638 50.2697C33.3947 50.631 33.0624 50.6804 32.9492 50.6736C32.82 50.5351 32.352 49.9285 31.6448 47.8296C31.4704 47.3118 31.2285 46.779 30.9945 46.2638C30.4788 45.1279 29.9456 43.9533 30.205 43.1506C30.2356 43.0559 30.2659 42.9633 30.2957 42.8729C30.7101 41.6099 31.1012 40.4172 30.3766 38.6807C30.1559 38.1519 29.8046 37.7655 29.495 37.4245C29.2946 37.204 29.0675 36.9541 29.0325 36.8102C28.9899 36.6347 28.9913 36.4322 28.9928 36.1976C28.9969 35.5649 29.0032 34.6088 28.0528 33.7188C26.7128 32.4645 25.1502 32.8509 24.116 33.1067C23.7984 33.1852 23.4983 33.2595 23.2324 33.2907C21.5313 33.4901 20.0125 32.8483 19.0644 31.5288C18.0725 30.1487 17.9285 28.2915 18.6887 26.6822C19.0567 25.9034 19.6127 25.2777 20.2564 24.5536C20.397 24.3953 20.5389 24.2357 20.6808 24.0722C20.917 23.8 21.1768 23.4314 21.4516 23.0411C21.7796 22.5755 22.3904 21.7085 22.6556 21.5436Z" fill="#1977CC"/>
</g>
<defs>
<clipPath id="clip0">
<rect width="62" height="62" fill="white"/>
</clipPath>
</defs>
</svg>
