<svg width="79" height="62" viewBox="0 0 79 62" fill="none" xmlns="http://www.w3.org/2000/svg">
<rect x="21.3639" y="23.7378" width="35.6067" height="21.364" fill="white"/>
<circle cx="39.1675" cy="33.2332" r="2.37378" fill="#A2DFFF"/>
<circle cx="67.0592" cy="11.2753" r="2.96723" fill="#E0F4FC"/>
<circle cx="74.1806" cy="33.8266" r="2.96723" fill="#E0F4FC"/>
<circle cx="67.0592" cy="57.5644" r="2.96723" fill="#E0F4FC"/>
<circle cx="11.2752" cy="57.5644" r="2.96723" fill="#E0F4FC"/>
<circle cx="4.15387" cy="35.0131" r="2.96723" fill="#E0F4FC"/>
<circle cx="11.2752" cy="11.2753" r="2.96723" fill="#E0F4FC"/>
<path d="M55.5679 47.2448H22.7678C20.8084 47.2448 19.2141 45.6511 19.2141 43.6911V25.1528C19.2141 23.1928 20.8084 21.5991 22.7678 21.5991H55.5679C57.5273 21.5991 59.121 23.1928 59.121 25.1528V43.6911C59.121 45.6511 57.5273 47.2448 55.5679 47.2448ZM22.7678 23.9729C22.117 23.9729 21.5879 24.5026 21.5879 25.1528V43.6911C21.5879 44.3413 22.117 44.871 22.7678 44.871H55.5679C56.2181 44.871 56.7472 44.3413 56.7472 43.6911V25.1528C56.7472 24.5026 56.2181 23.9729 55.5679 23.9729H22.7678Z" fill="#1977CC"/>
<path d="M51.3048 23.9731H27.0309C26.3754 23.9731 25.844 23.4423 25.844 22.7862V13.3235C25.844 5.97734 31.8208 0 39.1675 0C46.5143 0 52.4917 5.97734 52.4917 13.3235V22.7862C52.4917 23.4423 51.9602 23.9731 51.3048 23.9731ZM28.2178 21.5993H50.1179V13.3235C50.1179 7.28594 45.2057 2.37378 39.1675 2.37378C33.1299 2.37378 28.2178 7.28594 28.2178 13.3235V21.5993Z" fill="#1977CC"/>
<path d="M39.1676 36.001C37.4319 36.001 36.0201 34.5892 36.0201 32.8541C36.0201 31.1178 37.4319 29.7061 39.1676 29.7061C40.9033 29.7061 42.3151 31.1178 42.3151 32.8541C42.3151 34.5892 40.9033 36.001 39.1676 36.001ZM39.1676 32.0798C38.7411 32.0798 38.3939 32.4276 38.3939 32.8541C38.3939 33.2806 38.7411 33.6272 39.1676 33.6272C39.5941 33.6272 39.9413 33.2806 39.9413 32.8541C39.9413 32.4276 39.5941 32.0798 39.1676 32.0798Z" fill="#1977CC"/>
<path d="M39.1678 39.1385C38.5124 39.1385 37.981 38.6077 37.981 37.9516V34.785C37.981 34.129 38.5124 33.5981 39.1678 33.5981C39.8233 33.5981 40.3547 34.129 40.3547 34.785V37.9516C40.3547 38.6077 39.8233 39.1385 39.1678 39.1385Z" fill="#1977CC"/>
<path d="M20.4012 28.0221H10.938C10.2825 28.0221 9.7511 27.4912 9.7511 26.8352V14.1595C9.7511 13.5035 10.2825 12.9727 10.938 12.9727C11.5934 12.9727 12.1249 13.5035 12.1249 14.1595V25.6483H20.4012C21.0567 25.6483 21.5881 26.1791 21.5881 26.8352C21.5881 27.4912 21.0567 28.0221 20.4012 28.0221Z" fill="#1977CC"/>
<path d="M10.9376 15.3462C8.59341 15.3462 6.68616 13.4395 6.68616 11.0947C6.68616 8.74994 8.59341 6.84326 10.9376 6.84326C13.2819 6.84326 15.1891 8.74994 15.1891 11.0947C15.1891 13.4395 13.2819 15.3462 10.9376 15.3462ZM10.9376 9.21704C9.90201 9.21704 9.05994 10.0597 9.05994 11.0947C9.05994 12.1298 9.90201 12.9724 10.9376 12.9724C11.9733 12.9724 12.8153 12.1298 12.8153 11.0947C12.8153 10.0597 11.9733 9.21704 10.9376 9.21704Z" fill="#1977CC"/>
<path d="M10.938 55.8707C10.2825 55.8707 9.7511 55.3398 9.7511 54.6838V42.0082C9.7511 41.3521 10.2825 40.8213 10.938 40.8213H20.4012C21.0567 40.8213 21.5881 41.3521 21.5881 42.0082C21.5881 42.6642 21.0567 43.1951 20.4012 43.1951H12.1249V54.6838C12.1249 55.3398 11.5934 55.8707 10.938 55.8707Z" fill="#1977CC"/>
<path d="M10.9378 62C8.59353 62 6.68628 60.0934 6.68628 57.7486C6.68628 55.4037 8.59353 53.4971 10.9378 53.4971C13.282 53.4971 15.1892 55.4037 15.1892 57.7486C15.1892 60.0934 13.282 62 10.9378 62ZM10.9378 55.8709C9.90213 55.8709 9.06006 56.7135 9.06006 57.7486C9.06006 58.7836 9.90213 59.6263 10.9378 59.6263C11.9734 59.6263 12.8155 58.7836 12.8155 57.7486C12.8155 56.7135 11.9734 55.8709 10.9378 55.8709Z" fill="#1977CC"/>
<path d="M20.4008 35.6091H7.31604C6.66059 35.6091 6.12915 35.0783 6.12915 34.4222C6.12915 33.7662 6.66059 33.2354 7.31604 33.2354H20.4008C21.0563 33.2354 21.5877 33.7662 21.5877 34.4222C21.5877 35.0783 21.0563 35.6091 20.4008 35.6091Z" fill="#1977CC"/>
<path d="M4.25148 38.6739C1.90726 38.6739 0 36.7672 0 34.4224C0 32.0776 1.90726 30.1709 4.25148 30.1709C6.59571 30.1709 8.50296 32.0776 8.50296 34.4224C8.50296 36.7672 6.59571 38.6739 4.25148 38.6739ZM4.25148 32.5447C3.21585 32.5447 2.37378 33.3873 2.37378 34.4224C2.37378 35.4574 3.21585 36.3001 4.25148 36.3001C5.28711 36.3001 6.12918 35.4574 6.12918 34.4224C6.12918 33.3873 5.28711 32.5447 4.25148 32.5447Z" fill="#1977CC"/>
<path d="M67.398 28.0221H57.9342C57.2787 28.0221 56.7473 27.4912 56.7473 26.8352C56.7473 26.1791 57.2787 25.6483 57.9342 25.6483H66.2111V14.1595C66.2111 13.5035 66.7426 12.9727 67.398 12.9727C68.0535 12.9727 68.5849 13.5035 68.5849 14.1595V26.8352C68.5849 27.4912 68.0535 28.0221 67.398 28.0221Z" fill="#1977CC"/>
<path d="M67.3978 15.3462C65.0536 15.3462 63.1464 13.4395 63.1464 11.0947C63.1464 8.74994 65.0536 6.84326 67.3978 6.84326C69.7421 6.84326 71.6487 8.74994 71.6487 11.0947C71.6487 13.4395 69.7421 15.3462 67.3978 15.3462ZM67.3978 9.21704C66.3622 9.21704 65.5201 10.0597 65.5201 11.0947C65.5201 12.1298 66.3622 12.9724 67.3978 12.9724C68.4329 12.9724 69.275 12.1298 69.275 11.0947C69.275 10.0597 68.4329 9.21704 67.3978 9.21704Z" fill="#1977CC"/>
<path d="M67.398 55.8707C66.7426 55.8707 66.2111 55.3398 66.2111 54.6838V43.1951H57.9342C57.2787 43.1951 56.7473 42.6642 56.7473 42.0082C56.7473 41.3521 57.2787 40.8213 57.9342 40.8213H67.398C68.0535 40.8213 68.5849 41.3521 68.5849 42.0082V54.6838C68.5849 55.3398 68.0535 55.8707 67.398 55.8707Z" fill="#1977CC"/>
<path d="M67.398 62C65.0537 62 63.1465 60.0934 63.1465 57.7486C63.1465 55.4037 65.0537 53.4971 67.398 53.4971C69.7422 53.4971 71.6489 55.4037 71.6489 57.7486C71.6489 60.0934 69.7422 62 67.398 62ZM67.398 55.8709C66.3623 55.8709 65.5203 56.7135 65.5203 57.7486C65.5203 58.7836 66.3623 59.6263 67.398 59.6263C68.433 59.6263 69.2751 58.7836 69.2751 57.7486C69.2751 56.7135 68.433 55.8709 67.398 55.8709Z" fill="#1977CC"/>
<path d="M71.0197 35.6091H57.9343C57.2789 35.6091 56.7474 35.0783 56.7474 34.4222C56.7474 33.7662 57.2789 33.2354 57.9343 33.2354H71.0197C71.6751 33.2354 72.2066 33.7662 72.2066 34.4222C72.2066 35.0783 71.6751 35.6091 71.0197 35.6091Z" fill="#1977CC"/>
<path d="M74.0841 38.6739C71.7399 38.6739 69.8326 36.7672 69.8326 34.4224C69.8326 32.0776 71.7399 30.1709 74.0841 30.1709C76.4283 30.1709 78.335 32.0776 78.335 34.4224C78.335 36.7672 76.4283 38.6739 74.0841 38.6739ZM74.0841 32.5447C73.0485 32.5447 72.2064 33.3873 72.2064 34.4224C72.2064 35.4574 73.0485 36.3001 74.0841 36.3001C75.1192 36.3001 75.9612 35.4574 75.9612 34.4224C75.9612 33.3873 75.1192 32.5447 74.0841 32.5447Z" fill="#1977CC"/>
</svg>
