<svg width="64" height="62" viewBox="0 0 64 62" fill="none" xmlns="http://www.w3.org/2000/svg">
<path d="M9.78967 9.79022C11.9651 5.43934 21.2107 2.53876 25.5616 1.63232C26.6493 1.26975 30.2386 0.762149 35.8947 1.63232C42.9649 2.72004 48.9474 11.4218 52.2105 14.1411C54.821 16.3165 55.8362 24.1119 56.0175 27.7376L54.3859 27.1937L48.9474 25.5621L44.0526 27.1937H40.2456L35.8947 26.106L31 27.1937H27.193L20.1228 26.106L15.2281 27.1937H13.0526L7.61402 25.5621C5.80123 25.9247 2.06687 26.2148 1.63178 24.4744C1.08792 22.299 7.07038 15.2288 9.78967 9.79022Z" fill="#A2DFFF"/>
<path d="M28.8246 0C44.3558 0 57.5512 13.3721 57.6491 28.9117C57.6505 29.2009 57.5613 29.4831 57.3941 29.7186C57.2268 29.954 56.9901 30.1306 56.7173 30.2235C56.4445 30.3164 56.1495 30.3207 55.8741 30.236C55.5987 30.1512 55.3568 29.9817 55.1827 29.7513C54.3091 28.5799 51.7918 26.8666 49.4135 26.8666C46.9629 26.8666 44.4952 28.5583 43.6658 29.7297C43.537 29.9063 43.3682 30.0495 43.1733 30.1476C42.9784 30.2456 42.7631 30.2957 42.5451 30.2936C42.3271 30.2915 42.1127 30.2374 41.9198 30.1356C41.7268 30.0338 41.5607 29.8874 41.4353 29.7084C40.6125 28.5356 38.1509 26.8667 35.6875 26.8667C33.5366 26.8667 31.2447 28.3159 30.1972 29.4501V54.4222C30.1972 57.4555 31.9755 59.2444 35.0013 59.2444C38.0272 59.2445 39.8053 57.4556 39.8053 54.4222C39.8028 54.2397 39.8364 54.0583 39.9042 53.8889C39.972 53.7195 40.0727 53.5654 40.2004 53.4353C40.3281 53.3053 40.4803 53.2021 40.6481 53.1316C40.8159 53.0611 40.996 53.0248 41.1779 53.0248C41.3598 53.0248 41.5399 53.0611 41.7077 53.1316C41.8755 53.2021 42.0277 53.3053 42.1554 53.4353C42.2832 53.5654 42.3839 53.7195 42.4517 53.8889C42.5195 54.0583 42.5531 54.2397 42.5505 54.4222C42.5505 58.7225 39.2901 62.0001 35.0013 62C30.7126 62 27.452 58.7225 27.452 54.4222V29.4501C26.4044 28.3159 24.1125 26.8667 21.9616 26.8667C19.4983 26.8667 17.0366 28.5356 16.2138 29.7084C16.0884 29.8874 15.9224 30.0338 15.7294 30.1356C15.5364 30.2374 15.322 30.2915 15.104 30.2936C14.8861 30.2957 14.6707 30.2456 14.4758 30.1476C14.2809 30.0495 14.1121 29.9063 13.9834 29.7297C13.1539 28.5583 10.6862 26.8666 8.2356 26.8666C5.8573 26.8666 3.34002 28.5799 2.4664 29.7513C2.29231 29.9817 2.05044 30.1512 1.77503 30.236C1.49963 30.3207 1.20464 30.3164 0.931851 30.2235C0.659058 30.1306 0.42228 29.954 0.255043 29.7186C0.0878065 29.4831 -0.00141312 29.2009 1.6926e-05 28.9117C0.0979456 13.3721 13.2934 0 28.8246 0H28.8246ZM34.2077 3.37985C39.3066 8.5492 42.6132 16.6468 43.7516 25.9194C45.2705 24.8659 47.2196 24.111 49.4135 24.111C51.3563 24.111 53.096 24.7392 54.5393 25.618C53.0047 14.8876 44.638 5.77433 34.2077 3.37985ZM23.4414 3.37985C13.0112 5.77433 4.64449 14.8876 3.10981 25.618C4.55309 24.7392 6.29279 24.111 8.2356 24.111C10.4295 24.111 12.3786 24.8659 13.8976 25.9194C15.0359 16.6468 18.3425 8.5492 23.4414 3.37985H23.4414ZM30.1972 3.53055V25.8333C31.6906 24.8278 33.5818 24.111 35.6875 24.111C37.6957 24.111 39.4883 24.7488 40.942 25.661C39.6108 15.8639 35.6415 7.7332 30.1972 3.53055ZM27.452 3.53055C22.0076 7.7332 18.0384 15.8639 16.7071 25.661C18.1609 24.7488 19.9534 24.111 21.9616 24.111C24.0674 24.111 25.9585 24.8278 27.452 25.8333V3.53055H27.452Z" fill="#1977CC"/>
<g clip-path="url(#clip0)">
<path d="M48.4164 32.0288L44.6425 35.739V56.1448H62.0968V32.0288H48.4164Z" fill="white"/>
<path d="M44.6425 36.2027H48.8881V32.0288H48.4164L44.6425 35.739V36.2027Z" fill="#A2DFFF"/>
<path d="M62.0968 50.5795V32.0288H48.4164L44.6425 35.739V56.1448H62.0968V50.5795Z" stroke="#1977CC" stroke-width="2" stroke-miterlimit="10" stroke-linecap="round" stroke-linejoin="round"/>
<path d="M46.5294 36.2026H48.8881V33.8838" stroke="#1977CC" stroke-width="2" stroke-miterlimit="10" stroke-linecap="round" stroke-linejoin="round"/>
<path d="M56.436 52.8984H52.1903" stroke="#1977CC" stroke-width="2" stroke-miterlimit="10" stroke-linecap="round" stroke-linejoin="round"/>
<path d="M56.4359 45.878C56.4359 46.4352 56.2222 46.9091 55.7948 47.2999C55.3675 47.6834 54.7409 47.8968 53.9151 47.9403V49.1885H53.3719V47.9511C52.8431 47.9222 52.3433 47.8209 51.8724 47.6472C51.4088 47.4663 51.043 47.2384 50.775 46.9634L51.0901 46.3447C51.3436 46.5907 51.6732 46.797 52.0789 46.9634C52.4918 47.1298 52.9228 47.2275 53.3719 47.2565V44.4018C52.872 44.2788 52.4555 44.1486 52.1223 44.0111C51.7891 43.8663 51.5102 43.6601 51.2857 43.3924C51.0684 43.1174 50.9597 42.7556 50.9597 42.307C50.9597 41.7498 51.1626 41.2831 51.5682 40.9068C51.9738 40.5233 52.5751 40.2989 53.3719 40.2338V38.9856H53.9151V40.223C54.328 40.2374 54.7264 40.3062 55.1103 40.4292C55.5015 40.545 55.8383 40.7006 56.1208 40.8959L55.8492 41.5363C55.5522 41.3482 55.2371 41.1998 54.9039 41.0913C54.5707 40.9828 54.2411 40.9213 53.9151 40.9068V43.7831C54.4511 43.9134 54.8894 44.0472 55.2298 44.1847C55.5703 44.315 55.8564 44.5176 56.0882 44.7926C56.32 45.0675 56.4359 45.4293 56.4359 45.878ZM51.7529 42.2853C51.7529 42.6615 51.8905 42.9474 52.1658 43.1427C52.4483 43.3381 52.8503 43.5045 53.3719 43.642V40.9285C52.8358 40.9719 52.4302 41.1202 52.1549 41.3735C51.8869 41.6195 51.7529 41.9235 51.7529 42.2853ZM53.9151 47.2565C54.4874 47.213 54.9184 47.0719 55.2081 46.8331C55.4978 46.5944 55.6427 46.2904 55.6427 45.9214C55.6427 45.5306 55.4942 45.2376 55.1972 45.0422C54.9003 44.8468 54.4729 44.6804 53.9151 44.5429V47.2565Z" fill="#1977CC"/>
</g>
<defs>
<clipPath id="clip0">
<rect width="18.8696" height="28.7536" fill="white" transform="translate(44.1707 27.855)"/>
</clipPath>
</defs>
</svg>
