<svg width="62" height="62" viewBox="0 0 62 62" fill="none" xmlns="http://www.w3.org/2000/svg">
<g clip-path="url(#clip0)">
<path d="M4.05665 50.4356V53.7051L2.48242 55.9453L1.21094 58.4883L1.33203 60.8496H32.877V59.0332L30.1524 55.9453V53.7051V50.4356L28.5782 48.6191H6.35743L4.05665 50.4356Z" fill="#A2DFFF" stroke="black"/>
<path d="M12.6543 38.1446L1.63477 27.5489L1.0293 25.4903L1.63477 22.5235L4.17774 21.3731H7.38673L21.6758 6.84181V4.05665L23.9766 1.87696L25.3692 0.726562L27.5489 1.87696L38.3262 12.4727L39.1739 15.0157L38.3262 17.4375L36.3887 18.5879H34.209L31.4239 21.3731L33.0587 22.5235V25.7325V27.5489L60.7892 51.6466V55.8849L58.8517 60.0021L55.4005 60.9708L51.586 60.0021L27.5489 32.877L25.3692 34.0274H23.1289L21.6758 31.7266L18.7696 34.0274L17.7403 36.2071V38.1446L15.4395 39.295L12.6543 38.1446Z" fill="white" stroke="black"/>
<path d="M14.2619 21.1123C13.7896 20.64 13.0219 20.64 12.5497 21.1123C12.0763 21.5857 12.0763 22.3523 12.5497 22.8245C13.022 23.298 13.7898 23.298 14.2619 22.8245C14.7353 22.3523 14.7353 21.5857 14.2619 21.1123Z" fill="#1977CC"/>
<path d="M30.6609 54.216C31.1948 53.4928 31.4833 52.6215 31.4833 51.7055C31.4833 49.3686 29.5822 47.4673 27.2452 47.4673H6.65993C5.52734 47.4673 4.46304 47.9081 3.66297 48.7084C2.86254 49.5086 2.42176 50.5729 2.42176 51.7055C2.42176 52.6438 2.72885 53.5116 3.24701 54.2145C1.31883 55.2283 0 57.2506 0 59.5762V60.7871C0 61.4559 0.542259 61.9981 1.21094 61.9981H32.6942C33.3628 61.9981 33.9051 61.4559 33.9051 60.7871V59.5762C33.9051 57.2517 32.5876 55.2303 30.6609 54.216ZM5.37536 50.4206C5.71818 50.0777 6.17446 49.8889 6.65993 49.8889H27.2452C28.2467 49.8889 29.0615 50.7038 29.0615 51.7052C29.0615 52.1908 28.8726 52.647 28.5296 52.9899C28.1868 53.3328 27.7305 53.5216 27.2451 53.5216H6.65993C5.65836 53.5216 4.84364 52.7068 4.84364 51.7053C4.84364 51.2199 5.03242 50.7636 5.37536 50.4206ZM2.42176 59.5762C2.42176 57.5732 4.05144 55.9435 6.05446 55.9435H6.65993H27.2452H27.8506C29.8537 55.9435 31.4833 57.5732 31.4833 59.5762H2.42176Z" fill="#1977CC"/>
<path d="M60.8731 50.8746C60.4619 50.2373 59.9712 49.6737 59.4145 49.1995L53.7564 44.2646C53.7123 44.1982 53.6612 44.1352 53.6027 44.0768C53.5044 43.9786 53.393 43.9019 53.2746 43.8445L49.8528 40.8601L34.0149 27.0444C34.6633 26.3666 35.0203 25.4804 35.0203 24.5379C35.0203 23.5669 34.6423 22.6545 33.9554 21.9677C33.6558 21.6684 33.3153 21.4332 32.9514 21.2608L34.4166 19.7956C34.8262 19.9045 35.247 19.9602 35.6681 19.9602C36.9082 19.96 38.1485 19.488 39.0925 18.544C40.0078 17.6289 40.5118 16.4125 40.5118 15.1188C40.5118 13.8252 40.0078 12.6088 39.0927 11.6937L28.8181 1.41934C27.903 0.504237 26.6865 0.000244141 25.3925 0.000244141C24.099 0.000244141 22.8829 0.504237 21.9679 1.41934C20.7032 2.68405 20.2869 4.47975 20.7163 6.09539L6.09722 20.7143C5.69325 20.6069 5.27293 20.5503 4.84354 20.5503C3.54928 20.5503 2.33338 21.0539 1.419 21.9681C-0.469582 23.8567 -0.469582 26.9297 1.419 28.8184L11.6935 39.093C12.6379 40.0373 13.8782 40.5095 15.1186 40.5095C16.3591 40.5095 17.5995 40.0373 18.5439 39.093C19.8086 37.8282 20.2249 36.0326 19.7955 34.417L21.2577 32.9546C21.4334 33.3216 21.6718 33.6601 21.968 33.9562C22.6542 34.6423 23.5664 35.0203 24.537 35.0203C25.4785 35.0203 26.3645 34.6639 27.0432 34.0163L43.9123 53.3979C43.9588 53.4705 44.0131 53.5396 44.0765 53.6031C44.0982 53.6248 44.1212 53.6445 44.1441 53.6641L49.1708 59.4396C49.2958 59.5871 49.4294 59.7322 49.568 59.8708C50.9486 61.2509 52.7722 61.9999 54.6866 61.9999C55.0241 61.9999 55.3648 61.9766 55.7059 61.9294C57.986 61.6138 59.9565 60.2498 61.112 58.1866C62.3778 55.9254 62.2836 53.0547 60.8731 50.8746ZM23.6805 3.13186C24.1382 2.67424 24.7463 2.42212 25.3926 2.42212C26.0397 2.42212 26.6482 2.67424 27.1057 3.13186L37.3803 13.4063C37.8379 13.8639 38.0899 14.4722 38.0899 15.1189C38.0899 15.7657 37.8379 16.374 37.3801 16.8316C36.4362 17.7758 34.9 17.7758 33.9561 16.8316L23.6812 6.55664C23.6809 6.55639 23.6808 6.55627 23.6805 6.55603C22.7364 5.61198 22.7364 4.0759 23.6805 3.13186ZM16.8314 37.3805C15.8871 38.3248 14.3503 38.3249 13.406 37.3805L3.13151 27.106C2.1871 26.1616 2.1871 24.6252 3.13151 23.6807C3.58828 23.2238 4.19641 22.9721 4.84354 22.9721C5.49054 22.9721 6.09831 23.2236 6.55496 23.6802L16.8312 33.9565C17.7755 34.9004 17.7755 36.4366 16.8314 37.3805ZM21.9296 28.8579L18.5437 32.2439L8.26819 21.9684L21.9679 8.26842L32.2433 18.544L28.8513 21.9362C28.8402 21.9466 28.8295 21.9568 28.8178 21.9683L21.9714 28.8148C21.9573 28.8287 21.9436 28.8433 21.9296 28.8579ZM26.2534 31.3841C26.251 31.3865 26.2487 31.3888 26.2463 31.3912L25.3935 32.2439C25.1648 32.4726 24.8607 32.5985 24.5369 32.5985C24.2132 32.5985 23.909 32.4726 23.6804 32.2438C23.4514 32.0149 23.3254 31.7105 23.3254 31.3866C23.3254 31.0696 23.4464 30.7713 23.6659 30.5463L30.5441 23.6681C31.0156 23.2096 31.7777 23.2153 32.2436 23.6807C32.4725 23.9095 32.5985 24.214 32.5985 24.5379C32.5985 24.8616 32.4728 25.1651 32.2435 25.3939L31.3957 26.2417C31.3899 26.2474 31.3841 26.2532 31.3784 26.259L26.2534 31.3841ZM28.761 32.3013L32.3001 28.7622L47.2845 41.8325L41.8167 47.3005L28.761 32.3013ZM43.4104 49.1317L49.1138 43.4282L50.9431 45.0238L45.0041 50.963L43.4104 49.1317ZM58.999 57.0035C58.2175 58.3989 56.8963 59.3198 55.374 59.5305C53.8552 59.7408 52.363 59.2405 51.2802 58.1582C51.187 58.0652 51.0979 57.9682 51.0148 57.8699C51.011 57.8652 51.0071 57.8606 51.0031 57.8562L46.5977 52.7942L52.7724 46.6194L57.8281 51.0293C57.8318 51.0326 57.8357 51.0359 57.8397 51.0393C58.2181 51.361 58.5539 51.7475 58.8388 52.189C59.7546 53.604 59.8187 55.539 58.999 57.0035Z" fill="#1977CC"/>
<path d="M22.8242 12.5497C22.3512 12.0769 21.5847 12.0769 21.1117 12.5497L15.9739 17.6875C15.501 18.1604 15.501 18.9271 15.9739 19.3999C16.2104 19.6364 16.5203 19.7546 16.8302 19.7546C17.1401 19.7546 17.4499 19.6363 17.6864 19.3999L22.8242 14.2621C23.2971 13.7894 23.2971 13.0227 22.8242 12.5497Z" fill="#1977CC"/>
</g>
<defs>
<clipPath id="clip0">
<rect width="62" height="62" fill="white"/>
</clipPath>
</defs>
</svg>
