<svg width="83" height="62" viewBox="0 0 83 62" fill="none" xmlns="http://www.w3.org/2000/svg">
<path d="M55.5167 15.2773C52.6948 15.2773 49.9487 15.9673 47.5741 17.2726C44.1026 19.1813 42.0788 21.9599 40.9888 23.9669C39.8988 21.9608 37.8751 19.1823 34.4036 17.2726C32.029 15.9673 29.2828 15.2773 26.461 15.2773C22.2917 15.2773 18.3631 16.8204 15.6818 19.5106C13.0448 22.1564 11.6589 25.7989 11.6727 30.044C11.713 41.9052 21.1633 48.8246 29.3929 53.5266C35.3825 56.949 40.2448 60.6908 40.2929 60.7281C40.4974 60.8864 40.7431 60.966 40.9888 60.966C41.2345 60.966 41.4793 60.8864 41.6847 60.7281C41.7329 60.6908 46.5951 56.949 52.5847 53.5266C60.8143 48.8246 70.2646 41.9052 70.3049 30.044C70.3197 25.7989 68.9328 22.1564 66.2958 19.5106C63.6145 16.8204 59.685 15.2773 55.5167 15.2773Z" fill="#E7F6FF"/>
<path d="M55.5167 14.2451C52.5219 14.2451 49.6027 14.9793 47.0767 16.3681C44.192 17.9545 42.2499 20.103 40.9888 21.9783C39.7278 20.103 37.7857 17.9545 34.9009 16.3681C32.375 14.9793 29.4558 14.2451 26.461 14.2451C22.0194 14.2451 17.8246 15.8983 14.9506 18.782C12.116 21.6265 10.625 25.5226 10.6407 30.0477C10.6594 35.6019 12.6959 40.6863 16.6923 45.1583C18.4959 47.1762 21.7216 50.3321 28.8809 54.4238C34.7565 57.7813 39.6148 61.5103 39.662 61.5467C40.0394 61.8386 40.5112 61.9998 40.9888 61.9998C41.4665 61.9998 41.9373 61.8386 42.3148 61.5477C42.3629 61.5103 47.1927 57.798 53.0959 54.4248C60.2551 50.3341 63.4809 47.1781 65.2844 45.1593C69.2818 40.6873 71.3173 35.6038 71.336 30.0487C71.3517 25.5235 69.8607 21.6274 67.0261 18.783C64.1532 15.8983 59.9573 14.2451 55.5167 14.2451ZM52.0727 52.6311C46.0378 56.079 41.1029 59.8738 41.0537 59.9122C41.0154 59.9417 40.9633 59.9426 40.923 59.9112C40.7205 59.7559 35.9035 56.0583 29.905 52.6311C21.9172 48.0666 12.7431 41.3733 12.7048 30.0408C12.691 26.0759 13.9737 22.686 16.4131 20.2387C18.9028 17.7412 22.5649 16.3091 26.461 16.3091C29.1089 16.3091 31.684 16.9549 33.9063 18.1776C37.1625 19.9684 39.0624 22.5818 40.0817 24.4601C40.2625 24.7923 40.6104 24.9997 40.9888 24.9997C41.3672 24.9997 41.7152 24.7923 41.896 24.4601C42.9163 22.5828 44.8152 19.9684 48.0714 18.1776C50.2937 16.9559 52.8688 16.3091 55.5167 16.3091C59.4128 16.3091 63.0749 17.7412 65.5645 20.2396C68.004 22.687 69.2867 26.0769 69.2729 30.0408C69.2346 41.3733 60.0605 48.0666 52.0727 52.6311Z" fill="#1977CC"/>
<path d="M81.5408 35.7554H55.7877C55.4683 35.7554 55.1675 35.9028 54.9719 36.1554L50.6837 41.6949L49.0678 8.2331C49.0423 7.70923 48.6285 7.28758 48.1056 7.25318C47.5847 7.21878 47.1168 7.58146 47.0225 8.09747L40.1148 45.876L33.0559 0.872391C32.9792 0.381939 32.5635 0.0153295 32.0671 0.00058641C31.5668 -0.0161224 31.1344 0.325916 31.0282 0.811454L23.3737 35.7554H1.03201C0.461949 35.7554 0 36.2174 0 36.7874C0 37.3575 0.461949 37.8194 1.03201 37.8194H24.2041C24.6887 37.8194 25.1084 37.4823 25.2126 37.0086L31.8686 6.62218L39.018 52.1998C39.0956 52.6971 39.5212 53.0657 40.0244 53.0716C40.0283 53.0716 40.0333 53.0716 40.0372 53.0716C40.5346 53.0716 40.9621 52.7158 41.0525 52.2254L47.4402 17.2932L48.7582 44.5885C48.7789 45.0199 49.0668 45.3934 49.4786 45.5232C49.8914 45.6529 50.3406 45.5124 50.605 45.1703L56.2958 37.8194H81.5428C82.1128 37.8194 82.5748 37.3575 82.5748 36.7874C82.5728 36.2174 82.1109 35.7554 81.5408 35.7554Z" fill="#1977CC"/>
</svg>
