<svg width="51" height="64" viewBox="0 0 51 64" fill="none" xmlns="http://www.w3.org/2000/svg">
<path d="M25.0318 63C26.3645 62.6193 49.0418 49.447 49.0418 37.406C49.0418 27.2684 49.0418 23.5593 49.0418 11.7902C42.9246 11.7902 28.8223 5.04632 25.0209 1C21.2195 5.04632 7.11719 11.7902 1 11.7902C1 23.5702 1 27.2684 1 37.406C1 49.447 23.6773 62.6193 25.01 63H25.0318Z" fill="white"/>
<path d="M25.0209 1C21.2195 5.04632 7.11719 11.7902 1 11.7902V37.406C1 49.447 23.6773 62.6193 25.01 63H25.0318C26.3645 62.6193 49.0418 49.447 49.0418 37.406V11.7902C42.9246 11.7902 28.8223 5.04632 25.0209 1ZM43.58 36.1768C43.58 45.4768 26.0586 55.6579 25.0318 55.9516H25.01C23.9831 55.6579 6.46177 45.4768 6.46177 36.1768V16.3804C11.1807 16.3804 22.0824 11.1702 25.0209 8.04842C27.9593 11.1702 38.861 16.3804 43.58 16.3804V36.1768Z" fill="#A2DFFF"/>
<path d="M25.0318 63C26.3645 62.6193 49.0418 49.447 49.0418 37.406C49.0418 27.2684 49.0418 23.5593 49.0418 11.7902C42.9246 11.7902 28.8223 5.04632 25.0209 1C21.2195 5.04632 7.11719 11.7902 1 11.7902C1 23.5702 1 27.2684 1 37.406C1 49.447 23.6773 62.6193 25.01 63H25.0318Z" stroke="#1977CC" stroke-width="2" stroke-miterlimit="10" stroke-linecap="round" stroke-linejoin="round"/>
<path d="M38.6641 45.7378C41.4605 42.7466 43.5797 39.4073 43.5797 36.1768C43.5797 28.3452 43.5797 25.4845 43.5797 16.3803C38.8607 16.3803 27.959 11.1701 25.0206 8.04834C23.961 9.17957 21.8637 10.5718 19.395 11.8989" stroke="#1977CC" stroke-width="2" stroke-miterlimit="10" stroke-linecap="round" stroke-linejoin="round"/>
<path d="M13.3984 14.6616C10.7221 15.695 8.17691 16.3802 6.46191 16.3802C6.46191 25.4736 6.46191 28.3451 6.46191 36.1767C6.46191 45.4767 23.9833 55.6578 25.0101 55.9514H25.0319C25.4798 55.8209 28.9972 53.8521 32.8641 50.9044" stroke="#1977CC" stroke-width="2" stroke-miterlimit="10" stroke-linecap="round" stroke-linejoin="round"/>
<ellipse cx="15.6238" cy="27.9339" rx="1.56436" ry="2.73763" transform="rotate(-24.0464 15.6238 27.9339)" fill="#E0F4FC"/>
<ellipse cx="21.4976" cy="24.7843" rx="1.56436" ry="2.98767" transform="rotate(-9.74459 21.4976 24.7843)" fill="#E0F4FC"/>
<ellipse cx="28.218" cy="25.1585" rx="1.56436" ry="3.21863" transform="rotate(16.758 28.218 25.1585)" fill="#E0F4FC"/>
<ellipse cx="34.4755" cy="27.9471" rx="1.56436" ry="3.21863" transform="rotate(16.758 34.4755 27.9471)" fill="#E0F4FC"/>
<path d="M20.3167 31.4536L18.3613 33.4091L18.7524 38.8843L20.3167 41.622L24.2276 42.4041L29.7029 41.2309L32.0494 37.7111V33.8002L30.4851 32.2358L27.7474 31.4536H20.3167Z" fill="#E0F4FC"/>
<path d="M21.0989 30.6714C20.062 30.6726 19.068 31.0851 18.3348 31.8182C17.6017 32.5514 17.1892 33.5454 17.188 34.5823V35.3645C17.1881 35.4215 17.1941 35.4784 17.206 35.5342L18.0898 39.5116C18.3173 40.5562 18.8965 41.491 19.7305 42.1599C20.5645 42.8287 21.6028 43.191 22.6719 43.1863H27.3477C28.417 43.191 29.4555 42.8284 30.2895 42.1593C31.1235 41.4901 31.7026 40.5549 31.9297 39.51L32.8136 35.5326C32.8254 35.4773 32.8314 35.421 32.8316 35.3645V34.5823C32.8303 33.5454 32.4179 32.5514 31.6847 31.8182C30.9516 31.0851 29.9575 30.6726 28.9207 30.6714H21.0989ZM31.2672 34.5823V35.2792L30.4021 39.1721C30.2506 39.8685 29.8645 40.4918 29.3086 40.9377C28.7526 41.3836 28.0604 41.6251 27.3477 41.6219H22.6719C21.9598 41.6242 21.2686 41.3823 20.7134 40.9365C20.1582 40.4906 19.7728 39.8679 19.6214 39.1721L18.7523 35.2792V34.5823C18.7523 33.9599 18.9996 33.3631 19.4396 32.923C19.8797 32.483 20.4765 32.2357 21.0989 32.2357H28.9207C29.543 32.2357 30.1399 32.483 30.5799 32.923C31.02 33.3631 31.2672 33.9599 31.2672 34.5823Z" fill="#1977CC"/>
<path d="M27.3479 38.4936H22.6721V40.058H27.3479C27.7015 40.0605 28.0454 39.9421 28.3225 39.7225C28.5996 39.5028 28.7933 39.1951 28.8716 38.8503L29.6812 35.551L28.1606 35.1787L27.3479 38.4936Z" fill="#1977CC"/>
<path d="M27.7171 29.0415C27.8245 29.0605 27.9334 29.0702 28.0424 29.0704C28.4283 29.0473 28.8042 28.9383 29.1425 28.7512C29.4808 28.5642 29.7731 28.3039 29.9979 27.9895C30.6032 27.1969 31.0013 26.2659 31.1563 25.2808C31.5826 22.8662 30.7449 20.8403 29.2079 20.5689C28.7676 20.5212 28.3227 20.5939 27.9205 20.7792C27.5183 20.9644 27.1738 21.2554 26.9239 21.6209C26.3187 22.4135 25.9205 23.3445 25.7655 24.3296C25.3424 26.7442 26.1832 28.7701 27.7171 29.0415ZM27.308 24.6011C27.419 23.8787 27.7041 23.1941 28.1387 22.6065C28.2225 22.4774 28.3314 22.3664 28.4589 22.2802C28.5864 22.1939 28.7299 22.1341 28.8809 22.1043C28.8993 22.1042 28.9176 22.1058 28.9357 22.109C29.3956 22.1872 29.9025 23.3879 29.617 25.0094C29.505 25.732 29.2188 26.4166 28.7832 27.0039C28.5032 27.3489 28.1965 27.5405 27.9861 27.5014C27.5293 27.42 27.0225 26.2225 27.308 24.6011Z" fill="#1977CC"/>
<path d="M17.5362 26.8797C16.7751 24.785 15.2499 23.5484 13.9937 24.0068C12.7375 24.4651 12.3636 26.3893 13.127 28.4847C13.4143 29.3208 13.8874 30.0808 14.5107 30.7077C14.9295 31.1535 15.5036 31.4212 16.1142 31.4555C16.3034 31.4554 16.4911 31.422 16.6688 31.3569C17.9249 30.8993 18.2988 28.9752 17.5362 26.8797ZM16.1337 29.8895C16.1032 29.8974 15.9093 29.8794 15.5862 29.5767C15.1517 29.1071 14.8153 28.5556 14.5965 27.9545C14.3777 27.3533 14.281 26.7146 14.312 26.0756C14.3637 25.6314 14.5029 25.4906 14.5287 25.482C14.5392 25.4781 14.5504 25.4765 14.5616 25.4773C14.7962 25.4773 15.5784 26.0686 16.0665 27.4194C16.5843 28.8375 16.3168 29.8207 16.1337 29.8895Z" fill="#1977CC"/>
<path d="M33.3488 31.3551C33.5265 31.4202 33.7142 31.4536 33.9034 31.4537C34.5142 31.4193 35.0883 31.1512 35.5069 30.7051C36.131 30.0784 36.6044 29.318 36.8913 28.4814C37.654 26.3867 37.2824 24.4625 36.0239 24.005C35.6398 23.8944 35.2319 23.8969 34.8492 24.0122C34.4664 24.1274 34.125 24.3506 33.8659 24.655C33.2552 25.2916 32.7839 26.0485 32.4821 26.8774C32.1803 27.7063 32.0546 28.5891 32.113 29.4693C32.117 29.8689 32.2356 30.259 32.4547 30.5932C32.6737 30.9275 32.984 31.1919 33.3488 31.3551ZM33.9519 27.4129C34.1579 26.8055 34.4967 26.2515 34.9437 25.7915C35.0807 25.6288 35.2682 25.5168 35.4764 25.4731H35.4912C35.6743 25.5396 35.9418 26.5228 35.4247 27.9464C35.2179 28.5533 34.8795 29.107 34.4337 29.5678C34.1107 29.8744 33.9159 29.8917 33.8862 29.8807C33.8565 29.8698 33.7212 29.7313 33.6695 29.2862C33.6246 28.6486 33.721 28.009 33.9519 27.4129Z" fill="#1977CC"/>
<path d="M19.9532 27.9893C20.178 28.3038 20.4703 28.564 20.8086 28.751C21.1469 28.9381 21.5228 29.0471 21.9087 29.0702C22.0178 29.07 22.1266 29.0603 22.234 29.0413C23.771 28.7699 24.6087 26.744 24.1825 24.3295C24.0275 23.3443 23.6293 22.4133 23.024 21.6208C22.7739 21.2554 22.4294 20.9647 22.0273 20.7795C21.6251 20.5942 21.1803 20.5214 20.7401 20.5687C19.2031 20.8401 18.3654 22.866 18.7917 25.2806C18.9476 26.266 19.3468 27.197 19.9532 27.9893ZM21.0154 22.1088C21.0335 22.1056 21.0518 22.1041 21.0702 22.1042C21.2212 22.1339 21.3647 22.1937 21.4922 22.28C21.6197 22.3662 21.7286 22.4772 21.8124 22.6063C22.2481 23.1937 22.5343 23.8782 22.6463 24.6009C22.9317 26.2223 22.4249 27.4167 21.965 27.5012C21.7577 27.5411 21.448 27.3495 21.1679 27.0037C20.7323 26.4164 20.4461 25.7318 20.3341 25.0092C20.0486 23.3877 20.5555 22.1902 21.0154 22.1088Z" fill="#1977CC"/>
</svg>
