<svg width="62" height="62" viewBox="0 0 62 62" fill="none" xmlns="http://www.w3.org/2000/svg">
<path d="M4.99988 43.9999V40.2599C4.99988 33.2499 10.1799 27.3199 17.1299 26.3799L18.9999 31.9999L21.2199 30.6699L21.9999 32.9999L20.9999 36.9999H16.9999V42.9999H22.9999V48.9999H9.99988C7.23988 48.9999 4.99988 46.7599 4.99988 43.9999Z" fill="white"/>
<path d="M43.9998 35.9999L51.9098 24.1399L53.0598 24.9399L55.9998 26.9999L48.6598 40.8599C48.1498 41.8199 47.3898 42.6099 46.4898 43.1499C45.5898 43.6999 44.5398 43.9999 43.4498 43.9999C41.8798 43.9999 40.3798 43.3799 39.2698 42.2699L36.9998 39.9999V48.9999H32.9998V36.9999H26.9998L25.9998 32.9999L26.7798 30.6699L28.9998 31.9999L30.8798 26.3699C34.2098 26.8099 37.2598 28.4299 39.4998 30.9399L43.9998 35.9999Z" fill="white"/>
<path d="M30.8799 26.37L28.9999 32L26.7799 30.67L23.9999 29L27.9999 26L30.7699 26.35C30.8099 26.35 30.8399 26.36 30.8799 26.37Z" fill="#A2DFFF"/>
<path d="M23.9998 29L21.2198 30.67L18.9998 32L17.1298 26.38H17.1498L19.9998 26L23.9998 29Z" fill="#A2DFFF"/>
<path d="M25.9999 33L26.9999 37H20.9999L21.9999 33H25.9999Z" fill="#A2DFFF"/>
<path d="M26.7797 30.67L25.9997 33H21.9997L21.2197 30.67L23.9997 29L26.7797 30.67Z" fill="#A2DFFF"/>
<path d="M26.3398 7.87L25.9998 8H19.9998L19.2298 8.52C17.8398 9.44 16.9998 11 16.9998 12.68V13H15.9998C15.1998 13 14.4798 13.31 13.9498 13.81L13.2398 10.96C13.0798 10.32 12.9998 9.67 12.9998 9.01C12.9998 6.8 13.8998 4.8 15.3498 3.35C16.7998 1.9 18.7998 1 21.0098 1H26.9898C31.4098 1 34.9998 4.59 34.9998 9.01C34.9998 9.67 34.9198 10.32 34.7598 10.96L34.0498 13.81C33.5198 13.31 32.7998 13 31.9998 13H30.7898C30.4898 12.11 29.8898 11.33 29.0598 10.83L28.5698 10.54C27.5298 9.92 26.7598 8.97 26.3398 7.87Z" fill="#A2DFFF"/>
<path d="M2.99976 53H46.9998V61H2.99976V53Z" fill="#A2DFFF"/>
<path d="M48.9998 49V53H46.9998H2.99976H0.999756V49H9.99976H22.9998H25.9998H32.9998H36.9998H48.9998Z" fill="#A2DFFF"/>
<path d="M28.9998 46C28.9998 45.17 28.6598 44.42 28.1198 43.88C27.5798 43.34 26.8298 43 25.9998 43H22.9998H16.9998V37H20.9998H26.9998H32.9998V49H25.9998C27.6598 49 28.9998 47.66 28.9998 46Z" fill="#E6E9ED"/>
<path d="M55.6498 22.3501L57.9998 25.0001C57.9998 25.5501 57.7798 26.0501 57.4098 26.4101C57.0498 26.7801 56.5498 27.0001 55.9998 27.0001L53.0598 24.9401L55.6498 22.3501Z" fill="white"/>
<path d="M50.9998 17.1201L55.6498 22.3501L53.0598 24.9401L51.9098 24.1401L47.4098 20.9801C49.3898 20.7801 50.9398 19.1401 50.9898 17.1201H50.9998Z" fill="white"/>
<path d="M50.9998 17C50.9998 17.04 50.9998 17.08 50.9898 17.12C50.9398 19.14 49.3898 20.78 47.4098 20.98H47.3998C47.2698 20.99 47.1298 21 46.9998 21C44.7898 21 42.9998 19.21 42.9998 17C42.9998 14.79 44.7898 13 46.9998 13C49.2098 13 50.9998 14.79 50.9998 17Z" fill="white"/>
<path d="M28.1198 43.88C28.6598 44.42 28.9998 45.17 28.9998 46C28.9998 47.66 27.6598 49 25.9998 49H22.9998V43H25.9998C26.8298 43 27.5798 43.34 28.1198 43.88Z" fill="#A2DFFF"/>
<path d="M34.0498 13.81C34.6398 14.36 34.9998 15.14 34.9998 16C34.9998 16.83 34.6598 17.58 34.1198 18.12C33.5798 18.66 32.8298 19 31.9998 19H30.8998C30.9698 18.68 30.9998 18.34 30.9998 18V14.26C30.9998 13.82 30.9298 13.4 30.7898 13H31.9998C32.7998 13 33.5198 13.31 34.0498 13.81Z" fill="white"/>
<path d="M27.2098 22.8499L27.9998 25.9999L23.9998 28.9999L19.9998 25.9999L20.7898 22.8499C21.1798 22.9499 21.5798 22.9999 21.9998 22.9999H25.9998C26.4198 22.9999 26.8198 22.9499 27.2098 22.8499Z" fill="white"/>
<path d="M17.0998 19H15.9998C15.1698 19 14.4198 18.66 13.8798 18.12C13.3398 17.58 12.9998 16.83 12.9998 16C12.9998 15.14 13.3598 14.36 13.9498 13.81C14.4798 13.31 15.1998 13 15.9998 13H16.9998V18C16.9998 18.34 17.0298 18.68 17.0998 19Z" fill="white"/>
<path d="M30.9998 14.2601V18.0001C30.9998 18.3401 30.9698 18.6801 30.8998 19.0001C30.5198 20.8901 29.0698 22.3901 27.2098 22.8501C26.8198 22.9501 26.4198 23.0001 25.9998 23.0001H21.9998C21.5798 23.0001 21.1798 22.9501 20.7898 22.8501C18.9298 22.3901 17.4798 20.8901 17.0998 19.0001C17.0298 18.6801 16.9998 18.3401 16.9998 18.0001V13.0001V12.6801C16.9998 11.0001 17.8398 9.44012 19.2298 8.52012L19.9998 8.00012H25.9998L26.3398 7.87012C26.7598 8.97012 27.5298 9.92012 28.5698 10.5401L29.0598 10.8301C29.8898 11.3301 30.4898 12.1101 30.7898 13.0001C30.9298 13.4001 30.9998 13.8201 30.9998 14.2601Z" fill="white"/>
<path d="M22 18V20H24C25.615 20 27.067 19.103 27.789 17.658L27.894 17.447L26.105 16.552L26 16.764C25.619 17.526 24.853 18 24 18H22Z" fill="#1977CC"/>
<path d="M21 15C21.5523 15 22 14.5523 22 14C22 13.4477 21.5523 13 21 13C20.4477 13 20 13.4477 20 14C20 14.5523 20.4477 15 21 15Z" fill="#1977CC"/>
<path d="M27 15C27.5523 15 28 14.5523 28 14C28 13.4477 27.5523 13 27 13C26.4477 13 26 13.4477 26 14C26 14.5523 26.4477 15 27 15Z" fill="#1977CC"/>
<path d="M24.707 10.293C23.606 9.192 23 7.729 23 6.172V6H21V6.172C21 8.264 21.814 10.23 23.293 11.707L24.707 10.293Z" fill="#1977CC"/>
<path d="M59.95 27.535L58.7 26.285C58.887 25.894 59 25.462 59 25V24.62L51.971 16.712C51.819 14.091 49.658 12 47 12C44.243 12 42 14.243 42 17C42 19.757 44.243 22 47 22C47.034 22 47.065 21.991 47.099 21.99L50.535 24.395L43.887 34.367L40.248 30.273C37.829 27.552 34.508 25.805 30.897 25.354L28.805 25.092L28.405 23.493C29.914 22.83 31.095 21.563 31.651 19.999H32C34.206 19.999 36 18.205 36 15.999C36 15.074 35.671 14.232 35.142 13.553L35.731 11.198C35.91 10.484 36 9.749 36 9.014C36 4.044 31.957 0 26.986 0H21.013C16.043 0 12 4.044 12 9.014C12 9.749 12.09 10.485 12.269 11.2L12.858 13.555C12.329 14.233 12 15.075 12 16C12 18.206 13.794 20 16 20H16.35C16.905 21.563 18.087 22.831 19.596 23.494L19.195 25.099L17.018 25.389C9.596 26.379 4 32.771 4 40.257V44C4 45.538 4.586 46.937 5.54 48H0V54H2V60H0V62H62V32.485C62 30.616 61.272 28.858 59.95 27.535ZM56.265 25.965L54.609 24.806L55.604 23.81L56.947 25.321C56.841 25.633 56.584 25.877 56.265 25.965ZM44 17C44 15.346 45.346 14 47 14C48.654 14 50 15.346 50 17C50 18.654 48.654 20 47 20C45.346 20 44 18.654 44 17ZM51.482 19.173L54.273 22.313L52.945 23.641L49.56 21.272C50.389 20.773 51.056 20.047 51.482 19.173ZM38.752 31.602L42.739 36.088L41.167 38.446L42.831 39.555L52.173 25.543L54.702 27.313L47.778 40.391C46.927 42 45.267 43 43.445 43C42.135 43 40.904 42.49 39.978 41.563L38 39.586V36H36V48H34V36H27.781L27.041 33.04L27.333 32.166L29.555 33.499L31.556 27.494C34.331 28.042 36.861 29.475 38.752 31.602ZM26 44C27.103 44 28 44.897 28 46C28 47.103 27.103 48 26 48H24V44H26ZM26 42H18V38H32V48H29.444C29.788 47.409 30 46.732 30 46C30 43.794 28.206 42 26 42ZM24 30.166L25.575 31.111L25.279 32H22.72L22.424 31.112L24 30.166ZM22.781 34H25.219L25.719 36H22.281L22.781 34ZM29.545 27.201L28.445 30.501L25.789 28.908L28.276 27.043L29.545 27.201ZM32 18V14.265C32 14.176 31.987 14.089 31.982 14H32C33.103 14 34 14.897 34 16C34 17.103 33.103 18 32 18ZM14 16C14 14.897 14.897 14 16 14V18C14.897 18 14 17.103 14 16ZM18 18V12.676C18 11.336 18.666 10.092 19.781 9.348L20.554 8.832L19.445 7.168L18.672 7.684C17.189 8.674 16.239 10.254 16.042 12H16C15.505 12 15.036 12.102 14.598 12.267L14.21 10.715C14.07 10.158 14 9.586 14 9.014C14 5.146 17.146 2 21.014 2H26.987C30.854 2 34 5.146 34 9.014C34 9.586 33.93 10.159 33.791 10.715L33.403 12.267C32.964 12.102 32.495 12 32 12H31.443C31.022 11.176 30.385 10.465 29.572 9.978L29.087 9.687C27.8 8.914 27 7.501 27 6H25C25 8.199 26.171 10.269 28.059 11.401L28.544 11.692C29.442 12.231 30 13.217 30 14.265V18C30 20.206 28.206 22 26 22H22C19.794 22 18 20.206 18 18ZM22 24H26C26.156 24 26.31 23.988 26.463 23.977L26.868 25.599L24 27.75L21.131 25.598L21.537 23.976C21.69 23.988 21.844 24 22 24ZM19.727 27.045L22.21 28.907L19.554 30.5L18.459 27.213L19.727 27.045ZM6 44V40.257C6 34.052 10.44 28.726 16.453 27.521L18.446 33.499L20.668 32.166L20.96 33.04L20.219 36H16V42H12V36H10V42H8V44H22V48H10C7.794 48 6 46.206 6 44ZM2 50H48V52H2V50ZM4 54H46V60H4V54ZM60 60H48V54H50V48H38V42.414L38.564 42.978C39.867 44.281 41.601 45 43.445 45C46.009 45 48.347 43.593 49.547 41.326L56.64 27.927C56.867 27.877 57.08 27.797 57.285 27.699L58.535 28.949C59.48 29.895 60 31.15 60 32.485V60Z" fill="#1977CC"/>
<path d="M8 18H10V20H8V18Z" fill="#1977CC"/>
<path d="M4 18H6V20H4V18Z" fill="#1977CC"/>
<path d="M0 18H2V20H0V18Z" fill="#1977CC"/>
</svg>
