<svg width="77" height="62" viewBox="0 0 77 62" fill="none" xmlns="http://www.w3.org/2000/svg">
<path d="M37.0943 12.0869L9.1694 32.9264V55.4331L5.83508 57.1002V60.4345H70.8543V57.1002L67.52 55.4331V32.9264L37.0943 12.0869Z" fill="white"/>
<path d="M17.5051 40.8454V56.2666L31.676 56.6834V40.8454L30.0088 39.1782H19.1723L17.5051 40.8454Z" fill="#A2DFFF"/>
<rect x="41.679" y="37.5112" width="17.5052" height="14.1709" fill="#A2DFFF"/>
<path d="M15.0044 1.25029L15.4212 18.3387L23.757 11.67L23.3402 2.91745L22.5066 0.833496H18.7555L15.0044 1.25029Z" fill="#E0F4FC"/>
<path d="M1.66711 35.4273H7.91896L9.16933 32.5098L37.9278 12.0871L67.9367 33.3433V35.4273H70.0207H76.2725L75.0221 29.1754L40.4286 4.58484L36.6775 3.33447L1.66711 30.009V35.4273Z" fill="#E0F4FC"/>
<path d="M75.6124 28.6593L40.2744 3.0484C39.492 2.47787 38.5465 2.17484 37.5782 2.1843C36.61 2.19376 35.6706 2.51521 34.8995 3.10092L24.5289 10.9316V3.10092C24.528 2.27892 24.2012 1.49083 23.62 0.909506C23.0388 0.328186 22.2508 0.00110318 21.4288 0H17.0884C16.2662 0.000882602 15.478 0.327868 14.8967 0.909212C14.3153 1.49056 13.9884 2.27877 13.9875 3.10092V18.8914L1.03614 28.6651C0.714453 28.9091 0.453542 29.2242 0.273798 29.5857C0.0940537 29.9472 0.000346382 30.3454 0 30.7491V36.0006C0 36.2217 0.0878235 36.4337 0.24415 36.5901C0.400477 36.7464 0.612501 36.8342 0.83358 36.8342H7.86066V56.0066H6.81868C6.22639 56.0072 5.65855 56.2428 5.23974 56.6616C4.82093 57.0804 4.58535 57.6483 4.58469 58.2405V60.3328H2.52575C2.30467 60.3328 2.09264 60.4207 1.93632 60.577C1.77999 60.7333 1.69217 60.9453 1.69217 61.1664C1.69217 61.3875 1.77999 61.5995 1.93632 61.7559C2.09264 61.9122 2.30467 62 2.52575 62H74.3553C74.5764 62 74.7884 61.9122 74.9447 61.7559C75.1011 61.5995 75.1889 61.3875 75.1889 61.1664C75.1889 60.9453 75.1011 60.7333 74.9447 60.577C74.7884 60.4207 74.5764 60.3328 74.3553 60.3328H72.1047V58.2405C72.104 57.6483 71.8684 57.0804 71.4496 56.6616C71.0308 56.2428 70.4629 56.0072 69.8707 56.0066H68.8287V36.8342H75.8558C76.0768 36.8342 76.2889 36.7464 76.4452 36.5901C76.6015 36.4337 76.6893 36.2217 76.6893 36.0006V30.7699C76.6887 30.3582 76.5908 29.9524 76.4036 29.5856C76.2165 29.2189 75.9454 28.9015 75.6124 28.6593ZM15.653 17.631V3.10092C15.6534 2.7208 15.8046 2.35637 16.0734 2.08758C16.3422 1.8188 16.7066 1.6676 17.0867 1.66716H21.4288C21.8088 1.66782 22.173 1.81912 22.4416 2.08788C22.7102 2.35664 22.8613 2.72094 22.8618 3.10092V12.1869L20.9495 13.6299L15.653 17.631ZM70.4375 58.2405V60.3328H6.25185V58.2405C6.25207 58.0903 6.31186 57.9462 6.41811 57.84C6.52437 57.7337 6.66842 57.6739 6.81868 57.6737H69.8707C70.0209 57.6739 70.165 57.7337 70.2712 57.84C70.3775 57.9462 70.4373 58.0903 70.4375 58.2405ZM30.6007 56.0066H18.5972V41.2522C18.5974 40.9317 18.7248 40.6244 18.9514 40.3978C19.1781 40.1711 19.4854 40.0437 19.8059 40.0435H29.4004C29.7198 40.0448 30.0256 40.1729 30.2506 40.3995C30.4757 40.6261 30.6016 40.9328 30.6007 41.2522V56.0066ZM32.2679 56.0066V41.2522C32.2683 40.4908 31.9666 39.7603 31.429 39.2211C30.8914 38.6819 30.1618 38.3781 29.4004 38.3763H19.8059C19.0433 38.377 18.3122 38.6802 17.7731 39.2194C17.2339 39.7586 16.9307 40.4897 16.93 41.2522V56.0066H9.52782V33.4899C37.6845 12.4587 36.5058 12.567 37.9012 12.6712C38.2665 12.696 38.6176 12.8225 38.9148 13.0364L67.1615 33.4999V56.0066H32.2679ZM75.0222 35.1671H68.8287V33.0748C68.8286 32.9432 68.7974 32.8135 68.7375 32.6963C68.6777 32.579 68.591 32.4777 68.4844 32.4004L39.8918 11.6851C39.2663 11.2283 38.5103 10.9851 37.7358 10.9914C36.9613 10.9977 36.2094 11.2532 35.5914 11.7201L8.19242 32.4096C8.08889 32.4872 8.00487 32.5879 7.94699 32.7037C7.88912 32.8194 7.85899 32.947 7.85899 33.0764V35.1671H1.66716V30.7491C1.66741 30.6037 1.70125 30.4604 1.76603 30.3302C1.83081 30.2001 1.92478 30.0867 2.0406 29.9989L19.6525 16.7016L24.1972 13.2706L35.9023 4.43464C36.3894 4.06553 36.9825 3.86307 37.5937 3.85721C38.2048 3.85136 38.8016 4.04243 39.2958 4.40213L74.6337 30.0089C74.7538 30.0962 74.8516 30.2106 74.9191 30.3429C74.9866 30.4751 75.0219 30.6214 75.0222 30.7699V35.1671ZM40.7254 22.9968H36.1615C35.9404 22.9968 35.7284 22.909 35.5721 22.7526C35.4158 22.5963 35.3279 22.3843 35.3279 22.1632C35.3279 21.9421 35.4158 21.7301 35.5721 21.5738C35.7284 21.4175 35.9404 21.3296 36.1615 21.3296H40.7254C40.9465 21.3296 41.1585 21.4175 41.3148 21.5738C41.4711 21.7301 41.559 21.9421 41.559 22.1632C41.559 22.3843 41.4711 22.5963 41.3148 22.7526C41.1585 22.909 40.9465 22.9968 40.7254 22.9968ZM34.7661 31.8327C34.7661 32.0538 34.6783 32.2659 34.522 32.4222C34.3656 32.5785 34.1536 32.6663 33.9325 32.6663H23.8195C23.5985 32.6663 23.3864 32.5785 23.2301 32.4222C23.0738 32.2659 22.986 32.0538 22.986 31.8327C22.986 31.6117 23.0738 31.3996 23.2301 31.2433C23.3864 31.087 23.5985 30.9992 23.8195 30.9992H33.9325C34.1536 30.9992 34.3656 31.087 34.522 31.2433C34.6783 31.3996 34.7661 31.6117 34.7661 31.8327ZM49.3079 29.182H52.9907C53.2117 29.182 53.4238 29.2698 53.5801 29.4261C53.7364 29.5824 53.8242 29.7945 53.8242 30.0155C53.8242 30.2366 53.7364 30.4486 53.5801 30.605C53.4238 30.7613 53.2117 30.8491 52.9907 30.8491H49.3079C49.0868 30.8491 48.8748 30.7613 48.7185 30.605C48.5622 30.4486 48.4743 30.2366 48.4743 30.0155C48.4743 29.7945 48.5622 29.5824 48.7185 29.4261C48.8748 29.2698 49.0868 29.182 49.3079 29.182ZM53.3091 42.6134C53.3829 42.6943 53.4402 42.7889 53.4774 42.8918C53.5147 42.9947 53.5314 43.104 53.5264 43.2134C53.5215 43.3228 53.495 43.4301 53.4486 43.5293C53.4021 43.6284 53.3366 43.7175 53.2557 43.7913C50.114 46.5746 49.2754 47.9333 48.4618 47.0422C48.3878 46.9614 48.3304 46.8668 48.293 46.7638C48.2556 46.6609 48.2388 46.5515 48.2437 46.442C48.2486 46.3325 48.275 46.2251 48.3214 46.1258C48.3679 46.0266 48.4334 45.9375 48.5143 45.8636C51.336 43.6029 52.3346 41.5531 53.3049 42.6134H53.3091ZM28.4334 53.9393C28.3164 54.0539 28.1684 54.1319 28.0076 54.1633C27.8468 54.1948 27.6804 54.1785 27.5287 54.1165C27.3771 54.0544 27.247 53.9493 27.1545 53.8141C27.0619 53.6789 27.011 53.5196 27.008 53.3558C27.0072 53.1621 27.0743 52.9743 27.1977 52.8251C27.3211 52.6758 27.4929 52.5745 27.6832 52.5389C27.8548 52.5146 28.0296 52.5437 28.1842 52.622C28.3387 52.7004 28.4655 52.8244 28.5473 52.9771C28.6292 53.1298 28.6621 53.304 28.6417 53.4761C28.6214 53.6482 28.5486 53.8099 28.4334 53.9393ZM59.2008 36.4758H42.7293C42.3027 36.4762 41.8938 36.6459 41.5922 36.9475C41.2906 37.2491 41.1209 37.658 41.1205 38.0846V51.0801C41.1209 51.5066 41.2906 51.9156 41.5922 52.2172C41.8938 52.5188 42.3027 52.6885 42.7293 52.6889H59.2008C59.6274 52.6885 60.0363 52.5188 60.3379 52.2172C60.6396 51.9156 60.8092 51.5066 60.8096 51.0801V38.0846C60.8092 37.658 60.6396 37.2491 60.3379 36.9475C60.0363 36.6459 59.6274 36.4762 59.2008 36.4758ZM42.7877 51.0801L42.7293 38.1429H59.1433L59.2008 51.0217L42.7877 51.0801Z" fill="#1977CC"/>
</svg>
