<svg width="63" height="62" viewBox="0 0 63 62" fill="none" xmlns="http://www.w3.org/2000/svg">
<path d="M19.6432 2.03694L17.5755 5.13849V8.75695L19.1262 14.4431L21.1939 15.9939L17.5755 19.0954L12.9231 29.4339L5.16928 31.5016L1.55082 30.4678L0.516968 33.0524L1.55082 36.1539H3.61851L5.16928 34.0862H12.9231L16.5416 33.0524L19.1262 25.8154L22.7447 33.0524L20.677 44.9416V56.8309L18.0924 57.8647L17.5755 59.4155V60.9663H24.2955L25.8462 59.4155V44.9416L28.4309 39.7724H29.4647V43.9078L31.5324 48.5601L32.5662 55.797L29.4647 57.8647V60.9663L31.5324 60.4493H37.2186L38.2524 57.8647L36.1847 51.6616L40.3201 55.797L48.074 60.9663L55.3109 55.797L58.9294 51.6616L60.9971 44.9416V33.0524H57.3786L52.2094 31.5016L48.074 28.4001L46.0063 29.4339L42.3878 18.5785L31.5324 14.4431H27.397V12.3754V3.58772L23.7785 1.52002L19.6432 2.03694Z" fill="white"/>
<path d="M35.6103 33.3478L47.557 28.917L54.277 31.8708L60.997 34.0862V39.2555V46.6401L57.2636 52.5478L52.7836 56.9786L47.557 59.9324L44.5703 58.4555L38.597 53.2863L34.1169 48.8555V35.5632L35.6103 33.3478Z" fill="#E0F4FC"/>
<path d="M39.2862 37.1875L47.5569 34.0859L52.2093 36.1536L56.8616 37.7044V41.3229V46.4921L54.277 50.6275L51.1754 53.729L47.5569 55.7967L45.4893 54.7629L41.3539 51.1444L38.2523 48.0429V38.7383L39.2862 37.1875Z" fill="#A2DFFF"/>
<path d="M42.1179 53.4285L46.9687 56.7864C47.1415 56.906 47.3467 56.9701 47.5569 56.9701C47.7671 56.9701 47.9723 56.906 48.1452 56.7864L52.997 53.4275C54.5083 52.381 55.7434 50.9838 56.5965 49.3556C57.4496 47.7274 57.8953 45.9166 57.8954 44.0784V37.225C57.8953 36.97 57.801 36.724 57.6306 36.5343C57.4602 36.3447 57.2257 36.2246 56.9722 36.1974C53.7819 35.8526 50.7436 34.654 48.1772 32.7278C47.9983 32.5936 47.7806 32.521 47.5569 32.521C47.3332 32.521 47.1156 32.5936 46.9366 32.7278C44.3706 34.6539 41.3326 35.8525 38.1427 36.1974C37.8892 36.2246 37.6547 36.3447 37.4843 36.5343C37.3138 36.724 37.2195 36.97 37.2195 37.225V44.0784C37.2194 45.9168 37.665 47.7277 38.5181 49.3562C39.3713 50.9846 40.6064 52.382 42.1179 53.4285ZM39.2861 38.1317C42.2572 37.6695 45.0849 36.5402 47.5569 34.8285C50.029 36.5402 52.8567 37.6695 55.8277 38.1317V44.0784C55.8278 45.5826 55.4631 47.0644 54.765 48.3969C54.067 49.7293 53.0562 50.8726 51.8195 51.7289L47.5569 54.6784L43.2954 51.7278C42.0586 50.8718 41.0478 49.7287 40.3495 48.3964C39.6512 47.0642 39.2864 45.5825 39.2861 44.0784V38.1317Z" fill="#1977CC"/>
<path d="M46.523 50.6276C46.6806 50.6277 46.8361 50.5918 46.9776 50.5226C47.1192 50.4534 47.243 50.3528 47.3398 50.2285L54.5767 40.9239L52.9432 39.6543L46.3266 48.1567L43.0079 45.6651L41.7673 47.3192L45.9027 50.4208C46.0817 50.555 46.2993 50.6276 46.523 50.6276Z" fill="#1977CC"/>
<path d="M1.03385 62C1.30804 62 1.571 61.8911 1.76489 61.6972C1.95877 61.5033 2.0677 61.2403 2.0677 60.9662V37.2704C2.0677 37.2414 2.07803 37.2166 2.0801 37.1877H3.10154C3.76331 37.1875 4.40746 36.9744 4.93869 36.5798C5.08786 36.7791 5.16872 37.0213 5.16924 37.2704V38.3456C5.16924 38.6198 5.27816 38.8827 5.47205 39.0766C5.66593 39.2705 5.92889 39.3794 6.20309 39.3794C6.47728 39.3794 6.74024 39.2705 6.93413 39.0766C7.12801 38.8827 7.23693 38.6198 7.23693 38.3456V37.2704C7.23689 36.4768 6.94425 35.7112 6.41503 35.12H13.561C14.646 35.121 15.7038 34.7802 16.584 34.1458C17.4643 33.5115 18.1223 32.6159 18.4645 31.5863L19.701 27.883L21.6767 33.1556L19.6597 44.2395C19.6485 44.3006 19.6429 44.3625 19.6431 44.4246V56.0843L18.6579 56.411C18.0422 56.6193 17.507 57.0149 17.1275 57.5426C16.748 58.0702 16.5431 58.7034 16.5416 59.3533V60.9662C16.5416 61.2403 16.6505 61.5033 16.8444 61.6972C17.0383 61.8911 17.3012 62 17.5754 62H23.7785C24.6011 62 25.39 61.6732 25.9716 61.0916C26.5533 60.5099 26.88 59.721 26.88 58.8985V44.6686L28.5528 41.323H28.9477V44.4246C28.9477 44.5093 28.9582 44.5937 28.9788 44.6758L31.8477 56.1515L31.064 56.411C30.4483 56.6193 29.9132 57.0149 29.5337 57.5426C29.1542 58.0702 28.9493 58.7034 28.9477 59.3533V60.9662C28.9477 61.2403 29.0567 61.5033 29.2505 61.6972C29.4444 61.8911 29.7074 62 29.9816 62H35.7608C36.2167 61.9994 36.6669 61.8986 37.0796 61.7047C37.4922 61.5107 37.8571 61.2284 38.1484 60.8776C38.4397 60.5269 38.6503 60.1164 38.7653 59.6752C38.8803 59.234 38.8968 58.773 38.8137 58.3247L38.3175 55.6904C38.7771 56.0977 39.2604 56.4775 39.7649 56.8277L46.9698 61.8149C47.1426 61.9345 47.3478 61.9986 47.558 61.9986C47.7682 61.9986 47.9734 61.9345 48.1463 61.8149L55.3501 56.8308C57.4117 55.4036 59.0965 53.4978 60.26 51.2767C61.4236 49.0557 62.0312 46.5856 62.0309 44.0783V33.0523C62.0308 32.9057 61.9996 32.7608 61.9393 32.6272C61.879 32.4936 61.791 32.3744 61.6811 32.2774C61.5712 32.1804 61.442 32.1079 61.3019 32.0647C61.1619 32.0215 61.0143 32.0085 60.8688 32.0267L60.6104 32.0587C58.3249 32.3498 56.003 32.0591 53.8598 31.2134C51.7167 30.3678 49.8219 28.9946 48.351 27.2214C48.2508 27.11 48.1284 27.021 47.9916 26.9601C47.8548 26.8991 47.7067 26.8676 47.557 26.8676C47.4072 26.8676 47.2592 26.8991 47.1224 26.9601C46.9856 27.021 46.8632 27.11 46.763 27.2214C46.6162 27.3971 46.4529 27.5481 46.2957 27.7155L44.8566 21.3925C44.7708 20.9883 44.6455 20.5936 44.4823 20.2139C44.1264 19.3336 43.5983 18.5333 42.9291 17.8597C42.2598 17.1862 41.4628 16.653 40.5847 16.2915L36.2209 14.4647L36.2085 14.4564L32.4173 12.8705C31.2371 12.3873 29.9201 12.356 28.7182 12.7826C28.8633 12.3157 28.9405 11.8304 28.9477 11.3415V6.17222C28.9489 5.35717 28.7895 4.54988 28.4785 3.79649C28.1675 3.0431 27.7111 2.35838 27.1354 1.78147C26.8145 1.45951 26.4571 1.17605 26.0705 0.936812H26.0633H26.0561H26.0478C25.0505 0.321889 23.9013 -0.00254202 22.7297 1.49989e-05C21.558 0.00257202 20.4103 0.332016 19.4157 0.951286C18.5363 1.50969 17.8119 2.28084 17.3095 3.19342C16.8071 4.10599 16.543 5.13051 16.5416 6.17222V11.3415C16.5452 12.4662 16.9163 13.559 17.5982 14.4535C18.2801 15.348 19.2356 15.9952 20.3192 16.2967L18.8946 16.8984C18.2179 17.1843 17.6098 17.6109 17.1106 18.1499C16.6115 18.689 16.2329 19.3281 15.9998 20.0247L14.5349 24.4227L12.7039 29.0006L5.10411 29.9507H3.10154C2.27896 29.9507 1.49007 30.2775 0.908421 30.8591C0.326769 31.4408 0 32.2297 0 33.0523V35.12C0.0020408 35.4493 0.0839934 35.7732 0.238819 36.0639C0.0820685 36.4468 0.000969197 36.8565 0 37.2704V60.9662C0 61.2403 0.108923 61.5033 0.302807 61.6972C0.496691 61.8911 0.759654 62 1.03385 62ZM36.5589 59.556C36.4619 59.6737 36.34 59.7685 36.202 59.8336C36.064 59.8986 35.9134 59.9324 35.7608 59.9323H31.0154V59.3533C31.0166 59.1362 31.0854 58.9248 31.2123 58.7485C31.3393 58.5723 31.518 58.44 31.7236 58.3702L33.4078 57.8119C33.6554 57.7299 33.863 57.5574 33.9887 57.3288C34.1145 57.1003 34.1493 56.8326 34.086 56.5795L31.0154 44.2974V40.2892C31.0154 40.015 30.9065 39.752 30.7126 39.5582C30.5187 39.3643 30.2558 39.2553 29.9816 39.2553H27.9139C27.7218 39.2553 27.5334 39.3087 27.37 39.4097C27.2065 39.5107 27.0745 39.6552 26.9886 39.8271L24.9209 43.9625C24.8494 44.106 24.8122 44.2642 24.8123 44.4246V58.8985C24.8123 59.1726 24.7034 59.4356 24.5095 59.6295C24.3157 59.8234 24.0527 59.9323 23.7785 59.9323H18.6093V59.3533C18.6104 59.1362 18.6792 58.9248 18.8062 58.7485C18.9331 58.5723 19.1118 58.44 19.3174 58.3702L21.0016 57.8119C21.2079 57.7436 21.3875 57.6121 21.5148 57.436C21.6421 57.2599 21.7107 57.0481 21.7108 56.8308V44.5176L23.6069 34.0861H33.0831V44.0783C33.0885 47.0867 33.9697 50.0285 35.6192 52.5444L36.7812 58.7051C36.8096 58.8546 36.8044 59.0084 36.766 59.1556C36.7276 59.3028 36.6568 59.4396 36.5589 59.556ZM33.7169 20.4104L38.6545 22.4719L41.1616 31.242C39.4971 31.8817 37.7234 32.1891 35.9407 32.1466L31.8425 19.6277L33.7169 20.4104ZM47.557 29.4338C49.1509 31.0867 51.0878 32.3702 53.2312 33.194C55.3746 34.0178 57.6725 34.3618 59.9632 34.2019V44.0824C59.9631 46.255 59.4364 48.3952 58.4281 50.3197C57.4197 52.2441 55.9599 53.8954 54.1736 55.1321L47.557 59.709L40.9404 55.128C39.1541 53.8913 37.6943 52.24 36.6859 50.3155C35.6776 48.3911 35.1509 46.2509 35.1508 44.0783V34.1978C37.4412 34.3582 39.7389 34.0148 41.8823 33.1918C44.0257 32.3687 45.9627 31.086 47.557 29.4338ZM42.5821 21.0307C42.6932 21.292 42.7788 21.5634 42.8375 21.8412L44.5423 29.3304C44.0681 29.6959 43.5705 30.0299 43.0525 30.3301L40.5082 21.4277C40.4655 21.2784 40.3897 21.1406 40.2864 21.0246C40.1831 20.9087 40.0551 20.8174 39.9117 20.7577L35.4713 18.902L36.3666 16.7671L39.7897 18.2C40.4201 18.4611 40.992 18.8457 41.4715 19.3311C41.9511 19.8165 42.3287 20.393 42.5821 21.0265V21.0307ZM25.4327 17.1848C25.5323 17.5894 25.4826 18.0164 25.2927 18.3873C25.1027 18.7582 24.7853 19.0482 24.3988 19.2039C24.1703 19.2953 23.9249 19.3368 23.6791 19.3255C23.4332 19.3142 23.1927 19.2504 22.9735 19.1383C22.7544 19.0263 22.5619 18.8686 22.4088 18.6759C22.2557 18.4832 22.1457 18.2599 22.0861 18.0211L22.0354 17.8144L25.2486 16.4569L25.4327 17.1848ZM25.9082 3.52557C25.962 3.5907 26.0178 3.65376 26.0674 3.72096C26.1295 3.80677 26.1925 3.89052 26.2484 3.97943C26.3299 4.11295 26.4038 4.25102 26.4696 4.39296C26.512 4.48291 26.5596 4.57079 26.5957 4.6628C26.6553 4.82366 26.705 4.988 26.7446 5.15491C26.7653 5.23658 26.7942 5.31516 26.8097 5.39786C26.8572 5.65324 26.8807 5.91248 26.88 6.17222V6.41827C26.4797 6.06224 26.1791 5.60804 26.0077 5.10042C25.8364 4.5928 25.8003 4.04931 25.9031 3.5235L25.9082 3.52557ZM18.6093 6.17222C18.6113 5.95323 18.6306 5.73475 18.6672 5.51883C18.6765 5.45886 18.6889 5.39993 18.7013 5.341C18.7358 5.1722 18.7811 5.00576 18.8367 4.84269C18.8522 4.7972 18.8636 4.75171 18.8812 4.70725C18.9566 4.50816 19.0475 4.31527 19.1531 4.13037C19.1758 4.09108 19.2017 4.05386 19.2265 4.01458C19.3184 3.86594 19.4192 3.723 19.5284 3.58656C19.548 3.56382 19.5666 3.54004 19.5862 3.51626C19.6884 4.04317 19.6521 4.58757 19.4809 5.09624C19.3096 5.60491 19.0093 6.06043 18.6093 6.41827V6.17222ZM18.6093 11.3415V8.83748C19.5316 8.43722 20.3168 7.77585 20.8679 6.93485C21.419 6.09386 21.712 5.11 21.7108 4.10452C21.7077 3.48191 21.5903 2.86516 21.3645 2.28495C22.2545 1.9541 23.2338 1.9541 24.1238 2.28495C23.6451 3.52145 23.6648 4.89549 24.1789 6.11771C24.693 7.33994 25.6614 8.31497 26.88 8.83748V11.3415C26.88 12.164 26.5533 12.9529 25.9716 13.5346C25.39 14.1162 24.6011 14.443 23.7785 14.443H21.7108C20.8882 14.443 20.0993 14.1162 19.5177 13.5346C18.936 12.9529 18.6093 12.164 18.6093 11.3415ZM17.9652 20.6792C18.1044 20.2611 18.3312 19.8775 18.6303 19.554C18.9295 19.2304 19.2941 18.9743 19.7 18.8027L20.1135 18.628C20.3818 19.5873 21.0173 20.4022 21.8822 20.8962C22.7471 21.3903 23.7719 21.5236 24.7345 21.2675C25.697 21.0113 26.5199 20.3862 27.0249 19.5276C27.5298 18.669 27.6761 17.646 27.4321 16.6802L27.1695 15.6464L29.2145 14.7821C29.5952 14.623 30.0037 14.541 30.4163 14.541C30.8289 14.541 31.2375 14.623 31.6182 14.7821L34.4561 15.969L33.5608 18.108L31.8167 17.3781C31.5635 17.2733 31.279 17.2733 31.0258 17.3781L30.0684 17.7699C29.827 17.8692 29.6321 18.0561 29.5228 18.2931C29.4135 18.5301 29.3979 18.7997 29.4791 19.0478L33.7251 32.0184H23.4611L20.6118 24.4186L20.6046 24.4062C20.5735 24.3251 20.5321 24.2483 20.4816 24.1777L20.4702 24.1612C20.453 24.1399 20.4347 24.1195 20.4154 24.1002C20.3708 24.0493 20.3212 24.0029 20.2676 23.9616C20.2417 23.942 20.2159 23.9255 20.189 23.9089C20.1332 23.874 20.0739 23.8449 20.0122 23.8221C19.9852 23.8102 19.9576 23.7999 19.9295 23.791C19.8365 23.7632 19.7401 23.7486 19.6431 23.7476H16.9427L17.9652 20.6792ZM2.0677 33.0523C2.0677 32.7781 2.17662 32.5151 2.3705 32.3212C2.56439 32.1273 2.82735 32.0184 3.10154 32.0184H5.16924C5.21212 32.0188 5.25496 32.016 5.29744 32.0101L13.5682 30.9763C13.7506 30.9527 13.9235 30.8808 14.0688 30.7682C14.2142 30.6555 14.3269 30.5061 14.3953 30.3353L16.2076 25.8153H18.2092L16.5033 30.9318C16.2974 31.5493 15.9025 32.0864 15.3744 32.4669C14.8463 32.8475 14.2119 33.0523 13.561 33.0523H5.16924C4.89505 33.0523 4.63208 33.1612 4.4382 33.3551C4.24431 33.549 4.13539 33.8119 4.13539 34.0861C4.13539 34.3603 4.02647 34.6233 3.83258 34.8172C3.6387 35.011 3.37574 35.12 3.10154 35.12H2.0677V33.0523Z" fill="#1977CC"/>
</svg>
