<svg width="62" height="62" viewBox="0 0 62 62" fill="none" xmlns="http://www.w3.org/2000/svg">
<g clip-path="url(#clip0)">
<rect x="7.99219" y="4.48047" width="45.7734" height="34.5117" fill="white"/>
<path d="M24.7637 23.4316L8.83984 32.1504L8.11328 38.3262L53.8262 37.8418V30.5156L41.4746 23.4316L32.877 28.1543L24.7637 23.4316Z" fill="#A2DFFF"/>
<path d="M48.673 4.53676C48.673 4.03553 48.2668 3.62939 47.7656 3.62939H8.08619C7.58509 3.62939 7.17883 4.03553 7.17883 4.53676V38.1186C7.17883 38.6198 7.58509 39.0259 8.08619 39.0259H53.9137C54.415 39.0259 54.8211 38.6198 54.8211 38.1186V4.53676C54.8211 4.03553 54.415 3.62939 53.9137 3.62939H51.6324C51.1312 3.62939 50.725 4.03553 50.725 4.53676C50.725 5.03798 51.1312 5.44412 51.6324 5.44412H53.0064V29.1029L42.7226 22.7823C42.0706 22.3815 41.2493 22.3622 40.579 22.7321L32.8641 26.9888L26.0201 22.7823C25.368 22.3815 24.5467 22.3624 23.8767 22.7321L17.32 26.3497C16.8812 26.5918 16.7217 27.1437 16.9638 27.5824C17.2059 28.0211 17.7578 28.1805 18.1966 27.9385L24.7535 24.3209C24.8523 24.2661 24.9738 24.269 25.0701 24.3284L46.0311 37.2112H8.99356V33.0162L14.7594 29.8351C15.1982 29.593 15.3577 29.0411 15.1156 28.6024C14.8735 28.1637 14.3216 28.0041 13.8828 28.2464L8.99356 30.9438V5.44412H47.7656C48.2668 5.44412 48.673 5.03798 48.673 4.53676ZM34.6412 28.0807L41.4558 24.3209C41.555 24.2661 41.6763 24.269 41.7725 24.3284L53.0064 31.2329V37.2112H49.4967L34.6412 28.0807Z" fill="#1977CC"/>
<path d="M29.0911 15.6095C29.0911 17.7544 30.836 19.4994 32.9809 19.4994C35.1257 19.4994 36.8708 17.7544 36.8708 15.6095C36.8708 13.4646 35.1257 11.7197 32.9809 11.7197C30.836 11.7197 29.0911 13.4648 29.0911 15.6095ZM35.0562 15.6095C35.0562 16.7538 34.1252 17.6847 32.981 17.6847C31.8367 17.6847 30.9059 16.7538 30.9059 15.6095C30.9059 14.4653 31.8367 13.5344 32.981 13.5344C34.1252 13.5344 35.0562 14.4653 35.0562 15.6095Z" fill="#1977CC"/>
<path d="M59.5747 40.8406H58.4506V1.52388C58.4506 0.683546 57.7669 0 56.9266 0H5.0733C4.23296 0 3.5493 0.683546 3.5493 1.52388V10.0486C3.5493 10.5498 3.95555 10.956 4.45666 10.956C4.95776 10.956 5.36402 10.5498 5.36402 10.0486V1.81472H56.6359V40.8406H5.36402V13.9154C5.36402 13.4142 4.95776 13.0081 4.45666 13.0081C3.95555 13.0081 3.5493 13.4142 3.5493 13.9154V40.8406H2.42514C1.51052 40.8406 0.766479 41.5846 0.766479 42.4994V45.4322C0.766479 46.3469 1.51052 47.091 2.42514 47.091H9.92974L9.00871 49.9377H5.14141C4.26357 49.9377 3.54942 50.6517 3.54942 51.5295V54.6038C3.54942 55.4816 4.26357 56.1958 5.14141 56.1958H6.98396L5.66381 60.2763C5.5346 60.6761 5.60489 61.1176 5.85218 61.4574C6.09934 61.7971 6.49774 61.9999 6.91791 61.9999H9.63237C10.0934 61.9999 10.5268 61.7542 10.7635 61.3583L13.851 56.1958H48.2704L51.3579 61.3587C51.5947 61.7542 52.028 61.9999 52.4889 61.9999H55.2033C55.6236 61.9999 56.0221 61.797 56.2693 61.4572C56.5165 61.1173 56.5867 60.6757 56.4574 60.2761L55.1369 56.1959H56.8586C57.7364 56.1959 58.4506 55.4818 58.4506 54.6039V51.5297C58.4506 50.6518 57.7364 49.9378 56.8586 49.9378H53.1123L52.1912 47.0911H59.5747C60.4895 47.0911 61.2335 46.3471 61.2335 45.4323V42.4995C61.2335 41.5847 60.4894 40.8406 59.5747 40.8406ZM5.36414 54.3812V51.7524H8.42146L7.57096 54.3812H5.36414ZM9.35048 60.1853H7.6006L11.837 47.0911H17.1815L9.35048 60.1853ZM42.8249 47.091L44.5273 49.9377H17.5934L19.2959 47.091H42.8249ZM14.9361 54.3812L16.5082 51.7524H45.6128L47.1849 54.3812H14.9361ZM56.6359 51.7524V54.3812H54.5498L53.6993 51.7524H56.6359ZM54.5201 60.1853H52.7703L44.9392 47.0911H50.2838L54.5201 60.1853ZM59.4188 45.2762H2.58108V42.6553H59.4188V45.2762Z" fill="#1977CC"/>
</g>
<defs>
<clipPath id="clip0">
<rect width="62" height="62" fill="white"/>
</clipPath>
</defs>
</svg>
