<svg width="68" height="68" viewBox="0 0 68 68" fill="none" xmlns="http://www.w3.org/2000/svg">
<path d="M1.99219 37.918L3.91797 42.5L3.25391 47.6797L1.99219 50.7344V54.2539L3.25391 56.9102L6.04297 58.5703L9.49609 60.0977V62.2891V65.8086H38.1836V60.0977V50.7344L37.1875 46.8164L35.6602 42.5L38.1836 41.7031V38.9141V36.5234L34.8633 32.5391L33.0039 28.0898V20.5195V12.6172L31.0781 8.16797L26.6289 4.38281L21.0508 2.32422L13.1484 4.38281L8.23438 9.09766L7.23828 17.7305L8.23438 26.6289L6.04297 31.2773L1.99219 37.918Z" fill="white"/>
<path d="M13.5469 65.6094V60.1641H24.6367V65.6094H13.5469Z" fill="#A2DFFF"/>
<path d="M13.4141 44.6914V52.5273L18.6602 53.3242L19.6562 52.5273L20.6523 51.5977L23.1094 51.1992L24.7031 51.8633L24.2383 44.6914H13.4141Z" fill="#A2DFFF"/>
<path d="M18.0624 25.2492L17.9509 25.025L16.05 25.9759L16.1616 26.2001C16.9287 27.7344 18.4715 28.6874 20.1874 28.6874C21.9034 28.6874 23.4461 27.7344 24.2132 26.1991L24.3248 25.9749L22.424 25.0239L22.3124 25.2492C21.9076 26.0588 21.0937 26.5624 20.1874 26.5624C19.2811 26.5624 18.4672 26.0588 18.0624 25.2492Z" fill="#1977CC"/>
<path d="M24.4375 21.25C25.0243 21.25 25.5 20.7743 25.5 20.1875C25.5 19.6007 25.0243 19.125 24.4375 19.125C23.8507 19.125 23.375 19.6007 23.375 20.1875C23.375 20.7743 23.8507 21.25 24.4375 21.25Z" fill="#1977CC"/>
<path d="M15.9375 21.25C16.5243 21.25 17 20.7743 17 20.1875C17 19.6007 16.5243 19.125 15.9375 19.125C15.3507 19.125 14.875 19.6007 14.875 20.1875C14.875 20.7743 15.3507 21.25 15.9375 21.25Z" fill="#1977CC"/>
<path d="M64.8125 27.8757L67.0629 23.375L61.1692 11.5887C62.0447 11.3252 62.6875 10.5219 62.6875 9.5625V7.4375C62.6875 6.26556 61.7344 5.3125 60.5625 5.3125H30.1314C27.6165 2.69875 24.0922 1.0625 20.1875 1.0625C12.5715 1.0625 6.375 7.259 6.375 14.875V26.0036C6.375 28.7714 5.15206 31.5201 2.93038 33.7429C1.7255 34.9456 1.0625 36.5457 1.0625 38.25C1.0625 40.1795 1.93694 41.9783 3.38088 43.1577C1.90294 45.9457 1.0625 49.0992 1.0625 52.3993C1.0625 56.6557 4.33819 60.1566 8.5 60.5253V66.9375H39.3125V60.5625H64.8125V27.8757ZM58.8434 11.6875L64.1559 22.3125H53.8911L50.3487 11.6875H58.8434ZM48.11 11.6875L51.6513 22.3125H41.276L39.5038 11.6875H48.11ZM37.3501 11.6875L39.1202 22.3125H34V14.875C34 13.7764 33.8576 12.7128 33.6143 11.6875H37.3501ZM34 26.0036V24.4375H38.6559L37.5934 26.5625H34.0308C34.0191 26.3766 34 26.1896 34 26.0036ZM51.4059 24.4375L50.3434 26.5625H43.1566L42.0941 24.4375H51.4059ZM64.1559 24.4375L63.0934 26.5625H55.9066L54.8441 24.4375H64.1559ZM60.5625 7.4375V9.5625H32.9343C32.623 8.81769 32.2394 8.11006 31.8081 7.4375H60.5625ZM3.1875 38.25C3.1875 37.1152 3.6295 36.0474 4.43275 35.2453C7.05606 32.6209 8.5 29.3388 8.5 26.0036V14.875C8.5 8.43094 13.7434 3.1875 20.1875 3.1875C26.6316 3.1875 31.875 8.43094 31.875 14.875V26.0036C31.875 29.3399 33.3189 32.6219 35.9423 35.2453C36.7455 36.0474 37.1875 37.1152 37.1875 38.25C37.1875 39.4262 36.6966 40.5301 35.8881 41.3057C33.1713 37.2874 29.0222 34.2656 24.1007 33.0756L23.9392 32.7526C27.2595 32.0078 29.75 29.0413 29.75 25.5V20.1875C29.75 17.2582 27.3668 14.875 24.4375 14.875H24.0316C23.766 14.875 23.5004 14.8123 23.2624 14.6933C22.6769 14.4011 22.3125 13.8114 22.3125 13.1559V13.0007C22.3125 11.9404 22.9022 10.9862 23.8499 10.5124L22.899 8.61156C21.2277 9.44987 20.1875 11.1318 20.1875 13.0007V13.1559C20.1875 14.6211 21.0024 15.9386 22.3125 16.5941C22.8438 16.8597 23.4388 17 24.0316 17H24.4375C26.1949 17 27.625 18.4301 27.625 20.1875V25.5C27.625 28.4293 25.2418 30.8125 22.3125 30.8125H18.0625C15.1332 30.8125 12.75 28.4293 12.75 25.5V17.5015C12.75 16.2871 13.4258 15.1948 14.5116 14.6508L15.2416 14.2853C15.7123 15.3584 16.6079 16.218 17.7714 16.6048L18.7882 16.9437L19.4608 14.9292L18.4439 14.5892C17.5801 14.3023 17 13.4969 17 12.5874C17 11.7821 17.4473 11.0585 18.1666 10.6983L18.5374 10.5134L17.5886 8.61263L17.2157 8.7975C15.9269 9.44456 15.079 10.6718 14.9101 12.0764L13.5618 12.75C11.7502 13.6574 10.625 15.4764 10.625 17.5015V25.5C10.625 29.0413 13.1155 32.0078 16.4358 32.7526L16.2743 33.0756C11.356 34.2656 7.20906 37.2842 4.49225 41.2994C3.66775 40.5046 3.1875 39.4134 3.1875 38.25ZM45.6875 54.1875H43.5625V45.6875H45.6875V54.1875ZM49.9375 54.1875H47.8125V41.4375H49.9375V54.1875ZM54.1875 54.1875H52.0625V37.1875H54.1875V54.1875ZM49.9375 35.0625V39.3125H45.6875V43.5625H41.4375V54.1875H39.3125V52.3993C39.3125 49.0981 38.4721 45.9446 36.9931 43.1556C38.4529 41.9496 39.3125 40.1625 39.3125 38.25C39.3125 36.5457 38.6495 34.9456 37.4446 33.7429C37.1843 33.4815 36.9389 33.2127 36.7062 32.9375H58.4375V54.1875H56.3125V35.0625H49.9375ZM23.375 60.5625V64.8125H14.875V60.5625H23.375ZM24.4375 58.4375H20.1875V53.5649L21.3786 52.3738C21.5773 52.1751 21.8503 52.0625 22.1298 52.0625H22.3125C22.899 52.0625 23.375 52.5385 23.375 53.125V54.1875H24.4375C25.6094 54.1875 26.5625 55.1406 26.5625 56.3125C26.5625 57.4844 25.6094 58.4375 24.4375 58.4375ZM23.375 50.1234C23.0424 50.0055 22.6854 49.9375 22.3125 49.9375H22.1298C21.2787 49.9375 20.4776 50.2701 19.8762 50.8714L18.6851 52.0625L14.875 52.0604V45.6875H23.375V50.1234ZM19.8093 43.5625L17.8776 39.3125H22.4984L20.5668 43.5625H19.8093ZM23.4632 37.1875H16.9108L16.0703 35.3387C16.4507 35.2293 16.8311 35.122 17.2221 35.0381L17.7214 34.9307L18.7191 32.9375H21.6559L22.6525 34.9318L23.1519 35.0391C23.5429 35.1231 23.9233 35.2304 24.3036 35.3398L23.4632 37.1875ZM3.1875 52.3993C3.1875 48.8654 4.26169 45.5207 6.1115 42.7019L6.17844 42.6126L6.16994 42.6062C8.08138 39.7322 10.812 37.4234 14.0579 36.0474L17.4749 43.5625H12.75V52.0593L9.56356 52.0572C9.5625 51.9956 9.5625 51.9339 9.5625 51.8723V51.6428C9.5625 49.3478 10.2361 47.124 11.509 45.2136L9.741 44.0353C8.23438 46.2963 7.4375 48.9271 7.4375 51.6428V51.8723C7.4375 52.3228 7.45981 52.7744 7.50444 53.2227L7.59794 54.1801L18.0625 54.1864V58.4375H9.22569C5.89581 58.4375 3.1875 55.7292 3.1875 52.3993ZM10.625 60.5625H12.75V64.8125H10.625V60.5625ZM37.1875 64.8125H31.875V58.5427L32.6708 54.5636C32.8483 53.6807 32.9375 52.7765 32.9375 51.8723V51.6428C32.9375 48.926 32.1406 46.2963 30.634 44.0353L28.866 45.2136C30.1389 47.1251 30.8125 49.3478 30.8125 51.6428V51.8723C30.8125 52.6362 30.7371 53.4002 30.5873 54.145L29.7702 58.2293L29.7532 64.8125H25.5V60.4116C27.3286 59.9367 28.6875 58.2877 28.6875 56.3125C28.6875 54.3373 27.3286 52.6819 25.5 52.207V43.5625H22.9001L26.316 36.0474C32.7686 38.7834 37.1875 45.2083 37.1875 52.3993V64.8125ZM39.3125 58.4375V56.3125H60.5625V30.8125H35.2601C34.8914 30.124 34.6035 29.4121 34.3953 28.6875H38.9066L40.375 25.7507L41.8434 28.6875H51.6566L53.125 25.7518L54.5934 28.6875H62.6875V58.4375H39.3125Z" fill="#1977CC"/>
</svg>
