<svg width="62" height="62" viewBox="0 0 62 62" fill="none" xmlns="http://www.w3.org/2000/svg">
<rect x="31.8014" y="1.09644" width="28.5116" height="55.3784" fill="white"/>
<path d="M37.1504 34.878C36.3713 35.6578 35.4188 36.2424 34.3707 36.5839C33.3226 36.9254 32.2086 37.0141 31.1196 36.8428V35.2552L34.2699 32.1049C34.7532 31.6223 35.0572 30.9891 35.1315 30.3101C35.2058 29.6311 35.0459 28.9471 34.6783 28.3715C34.3107 27.7958 33.7575 27.3629 33.1104 27.1446C32.4632 26.9262 31.7608 26.9355 31.1196 27.1709V23.0213C32.5781 22.7925 34.0716 23.0309 35.3863 23.7026C36.701 24.3742 37.7695 25.4446 38.4389 26.7605C39.1082 28.0764 39.344 29.5704 39.1126 31.0284C38.8811 32.4865 38.1943 33.834 37.1504 34.878Z" fill="#A2DFFF"/>
<path d="M38.713 56.5751L34.8482 52.7016L31.1196 48.9655V47.098C32.3372 46.9072 33.5836 47.0414 34.7326 47.487C35.8817 47.9326 36.8927 48.6738 37.6633 49.6356C38.4339 50.5974 38.9368 51.7456 39.1211 52.9642C39.3055 54.1828 39.1647 55.4284 38.713 56.5751Z" fill="#A2DFFF"/>
<path d="M42.1121 3.99739L41.1128 0.999512H51.1057L50.1064 3.99739H42.1121Z" fill="#A2DFFF"/>
<path d="M49.0968 23.9833C53.5119 23.9833 57.0911 20.4041 57.0911 15.989C57.0911 11.5738 53.5119 7.99463 49.0968 7.99463C44.6816 7.99463 41.1024 11.5738 41.1024 15.989C41.1024 20.4041 44.6816 23.9833 49.0968 23.9833Z" fill="#A2DFFF"/>
<path d="M46.1091 28.1055H57.1014V32.1026H46.1091V28.1055Z" fill="#A2DFFF"/>
<path d="M8.12564 55.0098C8.67775 55.0098 9.12531 54.5623 9.12531 54.0102C9.12531 53.4581 8.67775 53.0105 8.12564 53.0105C7.57354 53.0105 7.12598 53.4581 7.12598 54.0102C7.12598 54.5623 7.57354 55.0098 8.12564 55.0098Z" fill="#A2DFFF"/>
<path d="M32.1506 55.0091C32.7023 55.0091 33.1496 54.5618 33.1496 54.0102C33.1496 53.4585 32.7023 53.0112 32.1506 53.0112C31.599 53.0112 31.1517 53.4585 31.1517 54.0102C31.1517 54.5618 31.599 55.0091 32.1506 55.0091Z" fill="#A2DFFF"/>
<path d="M8.12577 30.9849C8.67794 30.9849 9.12556 30.5373 9.12556 29.9851C9.12556 29.433 8.67794 28.9854 8.12577 28.9854C7.5736 28.9854 7.12598 29.433 7.12598 29.9851C7.12598 30.5373 7.5736 30.9849 8.12577 30.9849Z" fill="#A2DFFF"/>
<path d="M8.12564 55.0098C8.67775 55.0098 9.12531 54.5623 9.12531 54.0102C9.12531 53.4581 8.67775 53.0105 8.12564 53.0105C7.57354 53.0105 7.12598 53.4581 7.12598 54.0102C7.12598 54.5623 7.57354 55.0098 8.12564 55.0098Z" fill="#A2DFFF"/>
<path d="M13.0723 58.9559C12.1901 59.8378 11.088 60.4678 9.88037 60.7805C8.67273 61.0932 7.40344 61.0772 6.20403 60.7343C5.00463 60.3913 3.91875 59.7339 3.05894 58.8301C2.19912 57.9263 1.59664 56.8089 1.31394 55.5939C1.03125 54.3789 1.07861 53.1104 1.45113 51.9199C1.82365 50.7293 2.50777 49.66 3.43259 48.8229C4.35742 47.9857 5.4893 47.411 6.71093 47.1585C7.93257 46.906 9.19952 46.9847 10.3805 47.3866C10.1233 47.7297 9.84191 48.054 9.53858 48.3572L6.00607 51.8897C5.45143 52.4534 5.14201 53.2135 5.14523 54.0044C5.14845 54.7952 5.46405 55.5528 6.02327 56.112C6.58249 56.6712 7.34003 56.9868 8.13088 56.99C8.92174 56.9932 9.68182 56.6838 10.2456 56.1292L13.7793 52.5967C14.082 52.2933 14.4059 52.012 14.7486 51.7548C15.1702 52.9918 15.2366 54.3222 14.9403 55.5951C14.644 56.8679 13.9969 58.0322 13.0723 58.9559Z" fill="#A2DFFF"/>
<path d="M37.1503 34.8778C36.2248 35.8032 35.0583 36.4505 33.7834 36.7461C32.5085 37.0418 31.1762 36.974 29.9379 36.5504C30.1838 36.2286 30.4509 35.9236 30.7373 35.6373L31.1196 35.2551L34.2698 32.1048C34.7532 31.6222 35.0571 30.989 35.1314 30.31C35.2057 29.631 35.0458 28.947 34.6782 28.3713C34.3107 27.7957 33.7575 27.3628 33.1103 27.1445C32.4631 26.9261 31.7607 26.9354 31.1196 27.1708C30.7099 27.3195 30.338 27.5566 30.0303 27.8653L26.4978 31.3978C26.2119 31.6838 25.9073 31.9505 25.586 32.196C25.1819 31.0152 25.1011 29.7477 25.352 28.5252C25.6029 27.3026 26.1763 26.1694 27.0128 25.2432C27.8492 24.3169 28.9182 23.6313 30.109 23.2575C31.2997 22.8836 32.5688 22.8352 33.7846 23.1171C35.0003 23.3991 36.1185 24.0012 37.0232 24.8609C37.9278 25.7207 38.586 26.8069 38.9294 28.0067C39.2728 29.2066 39.2889 30.4765 38.976 31.6847C38.6632 32.8929 38.0328 33.9954 37.1503 34.8778Z" fill="#A2DFFF"/>
<path d="M8.12577 30.9849C8.67794 30.9849 9.12556 30.5373 9.12556 29.9851C9.12556 29.433 8.67794 28.9854 8.12577 28.9854C7.5736 28.9854 7.12598 29.433 7.12598 29.9851C7.12598 30.5373 7.5736 30.9849 8.12577 30.9849Z" fill="#A2DFFF"/>
<path d="M14.7338 32.2287C14.3969 31.9741 14.078 31.6966 13.7794 31.398L10.2457 27.8655C9.96814 27.5834 9.63749 27.3591 9.2728 27.2054C8.90812 27.0517 8.51661 26.9718 8.12088 26.9701C7.72514 26.9685 7.333 27.0453 6.96707 27.196C6.60115 27.3467 6.26868 27.5684 5.98885 27.8482C5.70901 28.128 5.48736 28.4605 5.33666 28.8264C5.18596 29.1923 5.1092 29.5845 5.11081 29.9802C5.11242 30.376 5.19237 30.7675 5.34605 31.1321C5.49972 31.4968 5.72408 31.8275 6.00618 32.105L9.53868 35.6375C9.82953 35.9282 10.1004 36.2383 10.3494 36.5656C8.85091 37.0681 7.22647 37.0485 5.74061 36.5099C4.25475 35.9713 2.99501 34.9455 2.16656 33.5996C1.33811 32.2537 0.989757 30.6669 1.17824 29.0977C1.36672 27.5285 2.08093 26.0694 3.20455 24.9579C4.32817 23.8465 5.795 23.1482 7.36613 22.9768C8.93727 22.8054 10.5202 23.171 11.857 24.0141C13.1938 24.8571 14.2058 26.128 14.7282 27.6196C15.2506 29.1112 15.2525 30.7358 14.7338 32.2287Z" fill="#A2DFFF"/>
<path d="M32.1506 55.0091C32.7023 55.0091 33.1496 54.5618 33.1496 54.0102C33.1496 53.4585 32.7023 53.0112 32.1506 53.0112C31.599 53.0112 31.1517 53.4585 31.1517 54.0102C31.1517 54.5618 31.599 55.0091 32.1506 55.0091Z" fill="#A2DFFF"/>
<path d="M38.7127 56.5753C38.0434 58.2714 36.7384 59.6391 35.0756 60.3872C33.4128 61.1353 31.5236 61.2047 29.8104 60.5805C28.0972 59.9564 26.6954 58.6881 25.9035 57.0456C25.1116 55.4032 24.9922 53.5166 25.5708 51.7874C25.8977 52.036 26.2073 52.3064 26.4976 52.5969L30.0301 56.1294C30.5312 56.6308 31.1937 56.9385 31.9001 56.9977C32.6065 57.057 33.311 56.8641 33.8886 56.4531C34.4662 56.0422 34.8795 55.4399 35.0551 54.7531C35.2308 54.0663 35.1574 53.3396 34.8479 52.7018L31.1193 48.9657V48.7396L30.7371 48.3574C30.4382 48.0587 30.1606 47.7394 29.9064 47.4018C31.171 46.9624 32.5351 46.895 33.8368 47.2076C35.1385 47.5202 36.3232 48.1997 37.2503 49.1655C38.1774 50.1313 38.808 51.3427 39.0672 52.6561C39.3264 53.9695 39.2034 55.3297 38.7127 56.5753Z" fill="#A2DFFF"/>
<path d="M8.12564 55.0098C8.67775 55.0098 9.12531 54.5623 9.12531 54.0102C9.12531 53.4581 8.67775 53.0105 8.12564 53.0105C7.57354 53.0105 7.12598 53.4581 7.12598 54.0102C7.12598 54.5623 7.57354 55.0098 8.12564 55.0098Z" fill="#A2DFFF"/>
<path d="M8.12577 30.9849C8.67794 30.9849 9.12556 30.5373 9.12556 29.9851C9.12556 29.433 8.67794 28.9854 8.12577 28.9854C7.5736 28.9854 7.12598 29.433 7.12598 29.9851C7.12598 30.5373 7.5736 30.9849 8.12577 30.9849Z" fill="#A2DFFF"/>
<path d="M22.2583 39.8782C22.6775 40.2975 22.9631 40.8317 23.0788 41.4132C23.1945 41.9947 23.1351 42.5975 22.9082 43.1453C22.6813 43.6931 22.2971 44.1613 21.8041 44.4908C21.3111 44.8202 20.7314 44.996 20.1385 44.996C19.5456 44.996 18.966 44.8202 18.473 44.4908C17.98 44.1613 17.5957 43.6931 17.3688 43.1453C17.1419 42.5975 17.0826 41.9947 17.1982 41.4132C17.3139 40.8317 17.5995 40.2975 18.0188 39.8782C18.581 39.3161 19.3435 39.0002 20.1385 39.0002C20.9336 39.0002 21.6961 39.3161 22.2583 39.8782Z" fill="#A2DFFF"/>
<path d="M32.1506 55.0091C32.7023 55.0091 33.1496 54.5618 33.1496 54.0102C33.1496 53.4585 32.7023 53.0112 32.1506 53.0112C31.599 53.0112 31.1517 53.4585 31.1517 54.0102C31.1517 54.5618 31.599 55.0091 32.1506 55.0091Z" fill="#A2DFFF"/>
<path d="M34.2699 51.8898C34.5067 52.1262 34.7022 52.4006 34.8482 52.7017L31.1196 48.9656V48.7395L34.2699 51.8898Z" fill="#A2DFFF"/>
<path d="M22.2584 44.1176C21.8391 44.5369 21.305 44.8225 20.7234 44.9381C20.1419 45.0538 19.5391 44.9945 18.9913 44.7676C18.4435 44.5407 17.9753 44.1564 17.6459 43.6634C17.3165 43.1704 17.1406 42.5908 17.1406 41.9979C17.1406 41.4049 17.3165 40.8253 17.6459 40.3323C17.9753 39.8393 18.4435 39.4551 18.9913 39.2282C19.5391 39.0013 20.1419 38.9419 20.7234 39.0576C21.305 39.1733 21.8391 39.4588 22.2584 39.8781C22.8206 40.4403 23.1364 41.2028 23.1364 41.9979C23.1364 42.7929 22.8206 43.5554 22.2584 44.1176Z" fill="#A2DFFF"/>
<path d="M51.1057 0.999512L50.1064 3.99739H42.1121L41.1128 0.999512H51.1057Z" fill="#A2DFFF"/>
<path d="M46.1091 28.1055H57.1014V32.1026H46.1091V28.1055Z" fill="#A2DFFF"/>
<path d="M49.097 19.9861C49.6488 19.9861 50.0962 19.5387 50.0962 18.9868C50.0962 18.4349 49.6488 17.9875 49.097 17.9875C48.5451 17.9875 48.0977 18.4349 48.0977 18.9868C48.0977 19.5387 48.5451 19.9861 49.097 19.9861Z" fill="#A2DFFF"/>
<path d="M47.0981 16.7524C47.6478 16.2608 48.3593 15.989 49.0967 15.989C49.8341 15.989 50.5457 16.2608 51.0953 16.7524H47.0981Z" fill="#A2DFFF"/>
<path d="M45.0996 14.518C46.1989 13.5348 47.622 12.9912 49.0968 12.9912C50.5716 12.9912 51.9947 13.5348 53.094 14.518H45.0996Z" fill="#A2DFFF"/>
<path d="M49.0968 23.9833C53.5119 23.9833 57.0911 20.4041 57.0911 15.989C57.0911 11.5738 53.5119 7.99463 49.0968 7.99463C44.6816 7.99463 41.1024 11.5738 41.1024 15.989C41.1024 20.4041 44.6816 23.9833 49.0968 23.9833Z" fill="#A2DFFF"/>
<path d="M22.8409 39.1711C22.282 38.6127 21.5701 38.2324 20.7952 38.0785C20.0202 37.9246 19.2171 38.0039 18.4872 38.3064C17.7573 38.6088 17.1335 39.1209 16.6946 39.7779C16.2557 40.4348 16.0215 41.2072 16.0215 41.9973C16.0215 42.7873 16.2557 43.5597 16.6946 44.2166C17.1335 44.8736 17.7573 45.3857 18.4872 45.6882C19.2171 45.9906 20.0202 46.0699 20.7952 45.916C21.5701 45.7621 22.282 45.3818 22.8409 44.8234C23.2153 44.4541 23.5127 44.0141 23.7156 43.529C23.9186 43.0438 24.0231 42.5232 24.0231 41.9973C24.0231 41.4714 23.9186 40.9507 23.7156 40.4655C23.5127 39.9804 23.2153 39.5404 22.8409 39.1711ZM21.4269 43.4106C21.1473 43.6901 20.7912 43.8804 20.4036 43.9575C20.0159 44.0346 19.6141 43.9949 19.2489 43.8437C18.8837 43.6924 18.5716 43.4362 18.352 43.1076C18.1324 42.7789 18.0152 42.3925 18.0152 41.9973C18.0152 41.602 18.1324 41.2156 18.352 40.8869C18.5716 40.5583 18.8837 40.3021 19.2489 40.1508C19.6141 39.9996 20.0159 39.96 20.4036 40.037C20.7912 40.1141 21.1473 40.3044 21.4269 40.5839C21.8012 40.959 22.0115 41.4673 22.0115 41.9973C22.0115 42.5272 21.8012 43.0355 21.4269 43.4106Z" fill="#1977CC"/>
<path d="M8.00138 55.0096C8.55348 55.0096 9.00105 54.562 9.00105 54.0099C9.00105 53.4578 8.55348 53.0103 8.00138 53.0103C7.44928 53.0103 7.00171 53.4578 7.00171 54.0099C7.00171 54.562 7.44928 55.0096 8.00138 55.0096Z" fill="#1977CC"/>
<path d="M32.0259 30.9842C32.5777 30.9842 33.0251 30.5368 33.0251 29.985C33.0251 29.4332 32.5777 28.9858 32.0259 28.9858C31.4741 28.9858 31.0267 29.4332 31.0267 29.985C31.0267 30.5368 31.4741 30.9842 32.0259 30.9842Z" fill="#1977CC"/>
<path d="M32.026 55.0088C32.5777 55.0088 33.0249 54.5616 33.0249 54.0099C33.0249 53.4582 32.5777 53.011 32.026 53.011C31.4743 53.011 31.0271 53.4582 31.0271 54.0099C31.0271 54.5616 31.4743 55.0088 32.026 55.0088Z" fill="#1977CC"/>
<path d="M8.00114 30.9849C8.55331 30.9849 9.00093 30.5373 9.00093 29.9851C9.00093 29.433 8.55331 28.9854 8.00114 28.9854C7.44897 28.9854 7.00134 29.433 7.00134 29.9851C7.00134 30.5373 7.44897 30.9849 8.00114 30.9849Z" fill="#1977CC"/>
<path d="M57.9759 0H33.9929C32.9331 0.00119021 31.9171 0.422702 31.1678 1.17206C30.4184 1.92142 29.9969 2.93742 29.9957 3.99718V13.9901H7.01194C6.74691 13.9901 6.49274 14.0954 6.30533 14.2828C6.11793 14.4702 6.01265 14.7244 6.01265 14.9894V19.9859C6.01265 20.2509 6.11793 20.5051 6.30533 20.6925C6.49274 20.8799 6.74691 20.9852 7.01194 20.9852C7.27697 20.9852 7.53114 20.8799 7.71855 20.6925C7.90595 20.5051 8.01123 20.2509 8.01123 19.9859V15.9887H29.9957V22.2143C28.6452 22.5759 27.4141 23.2877 26.427 24.2778C25.4652 25.2463 24.7655 26.4434 24.3938 27.7567C24.0221 29.07 23.9906 30.4562 24.3022 31.785C23.0274 32.5926 21.5505 33.0239 20.0414 33.0292C18.5324 33.0345 17.0525 32.6136 15.772 31.815C16.1661 30.1977 16.0459 28.4977 15.4281 26.952C14.8103 25.4063 13.7257 24.0918 12.3254 23.1916C10.9251 22.2915 9.27888 21.8507 7.61617 21.9305C5.95345 22.0103 4.35704 22.6068 3.04941 23.6369C1.74177 24.667 0.788049 26.0794 0.321135 27.6772C-0.145778 29.275 -0.102622 30.9786 0.444592 32.5508C0.991805 34.1229 2.01582 35.4851 3.37393 36.4477C4.73204 37.4103 6.3566 37.9252 8.02123 37.9207C8.62328 37.9212 9.22342 37.8529 9.80996 37.7171C10.6143 38.9899 11.0437 40.4635 11.049 41.9692C11.0543 43.4748 10.6353 44.9514 9.83994 46.2298C8.48477 45.9106 7.0697 45.9509 5.73492 46.3469C4.40014 46.7428 3.19195 47.4806 2.23004 48.4871C1.26813 49.4937 0.585881 50.7341 0.250866 52.0854C-0.0841499 53.4368 -0.0603033 54.8522 0.320043 56.1915C0.70039 57.5308 1.42404 58.7476 2.41931 59.7211C3.41457 60.6947 4.64693 61.3914 5.99429 61.7421C7.34165 62.0929 8.75727 62.0855 10.1009 61.7208C11.4446 61.3561 12.6696 60.6467 13.6547 59.6628C14.6145 58.6964 15.3133 57.5022 15.6856 56.192C16.0579 54.8818 16.0915 53.4986 15.7832 52.1719C17.0615 51.3779 18.5374 50.9598 20.0422 50.9653C21.547 50.9708 23.0198 51.3998 24.2922 52.2031C24.1574 52.789 24.0895 53.3882 24.0899 53.9893C24.0866 55.5713 24.5529 57.1187 25.4295 58.4356C26.3062 59.7525 27.5538 60.7797 29.0145 61.3872C30.4753 61.9946 32.0834 62.155 33.6353 61.8481C35.1873 61.5411 36.6132 60.7806 37.7327 59.6628C38.2403 59.1561 38.6769 58.583 39.0306 57.959H57.9759C59.0356 57.9577 60.0515 57.5361 60.8008 56.7868C61.5501 56.0374 61.9717 55.0216 61.9731 53.9619V3.99718C61.9717 2.93748 61.5501 1.92159 60.8008 1.17228C60.0515 0.422964 59.0356 0.00138811 57.9759 0ZM49.5943 1.99859L49.2608 2.99788H42.7067L42.3744 1.99859H49.5943ZM27.8397 25.6918C28.5465 24.984 29.4191 24.4641 30.3782 24.1798C31.3372 23.8954 32.3522 23.8555 33.3306 24.0637C34.309 24.2719 35.2198 24.7215 35.98 25.3717C36.7401 26.0219 37.3256 26.852 37.6829 27.7863C38.0402 28.7206 38.1581 29.7295 38.0258 30.721C37.8935 31.7126 37.5153 32.6553 36.9255 33.4632C36.3357 34.2712 35.5531 34.9187 34.6491 35.3469C33.745 35.7751 32.7482 35.9702 31.7495 35.9146L34.8523 32.8118C35.602 32.0623 36.0232 31.0456 36.0233 29.9855C36.0234 28.9254 35.6024 27.9086 34.8529 27.1589C34.1034 26.4092 33.0867 25.988 32.0266 25.9879C30.9665 25.9878 29.9497 26.4088 29.2 27.1583L26.096 30.2624C26.0509 29.421 26.1827 28.5794 26.4831 27.7922C26.7835 27.0049 27.2456 26.2894 27.8397 25.6918ZM3.76174 34.1709C3.0527 33.4623 2.5326 32.5874 2.24901 31.626C1.96542 30.6646 1.92739 29.6474 2.13839 28.6675C2.34939 27.6876 2.80269 26.7762 3.45684 26.0168C4.11099 25.2573 4.94511 24.6739 5.88291 24.32C6.82072 23.9661 7.83229 23.853 8.8251 23.9909C9.81792 24.1289 10.7603 24.5136 11.5661 25.1098C12.3719 25.706 13.0153 26.4947 13.4376 27.4038C13.8598 28.3128 14.0474 29.3133 13.9833 30.3136L10.828 27.1583C10.4568 26.7871 10.0161 26.4926 9.53107 26.2917C9.04605 26.0908 8.52622 25.9874 8.00124 25.9874C7.47626 25.9874 6.95643 26.0908 6.47141 26.2917C5.9864 26.4926 5.5457 26.7871 5.17449 27.1583C4.42479 27.908 4.00361 28.9248 4.00361 29.9851C4.00361 31.0453 4.42479 32.0621 5.17449 32.8118L8.28104 35.9171C7.44791 35.9547 6.61605 35.8189 5.83813 35.5183C5.0602 35.2177 4.35315 34.7589 3.76174 34.1709ZM12.2407 58.2488C11.5339 58.9567 10.6612 59.4766 9.70212 59.7609C8.74303 60.0453 7.72802 60.0851 6.74958 59.8769C5.77113 59.6686 4.86034 59.2189 4.10019 58.5686C3.34003 57.9183 2.75466 57.0881 2.39741 56.1537C2.04016 55.2193 1.92238 54.2104 2.05481 53.2188C2.18723 52.2272 2.56565 51.2846 3.15558 50.4767C3.74551 49.6688 4.52822 49.0213 5.43239 48.5933C6.33656 48.1653 7.33345 47.9703 8.33226 48.0261L5.17449 51.1826C4.42479 51.9323 4.00361 52.9491 4.00361 54.0093C4.00361 55.0696 4.42479 56.0864 5.17449 56.8361C5.92419 57.5858 6.941 58.007 8.00124 58.007C9.06148 58.007 10.0783 57.5858 10.828 56.8361L13.9858 53.6783C14.0307 54.5198 13.8987 55.3614 13.5981 56.1487C13.2975 56.936 12.8351 57.6514 12.2407 58.2488ZM22.9057 49.3926C21.4848 48.9653 19.9867 48.8587 18.5195 49.0806C17.0524 49.3024 15.6528 49.8471 14.4217 50.6754C14.1744 50.8403 13.9333 51.0202 13.6985 51.2113C13.437 51.4247 13.1864 51.651 12.9477 51.8896L9.41399 55.4233C9.22938 55.6133 9.00884 55.7647 8.76519 55.8687C8.52155 55.9727 8.25965 56.0273 7.99474 56.0291C7.72984 56.031 7.4672 55.9802 7.2221 55.8797C6.977 55.7791 6.75434 55.6309 6.56706 55.4435C6.37977 55.2561 6.23161 55.0334 6.13118 54.7883C6.03075 54.5431 5.98006 54.2805 5.98205 54.0156C5.98405 53.7506 6.03869 53.4888 6.1428 53.2452C6.24691 53.0016 6.39841 52.7811 6.58849 52.5966L10.121 49.0628C10.3595 48.8241 10.5859 48.5735 10.7993 48.3121C10.9908 48.0798 11.1694 47.8404 11.3351 47.5939C12.4498 45.9432 13.0461 43.9972 13.0477 42.0054C13.0492 40.0136 12.456 38.0667 11.3439 36.4143C11.1539 36.1303 10.9483 35.8572 10.7281 35.5961C10.5365 35.3663 10.3342 35.1447 10.121 34.9316L6.58849 31.3978C6.21722 31.0224 6.00964 30.5153 6.0111 29.9873C6.01256 29.4594 6.22294 28.9534 6.59628 28.5801C6.96962 28.2068 7.47555 27.9964 8.00353 27.9949C8.5315 27.9935 9.0386 28.201 9.41399 28.5723L12.9477 32.1048C13.2039 32.3611 13.4741 32.603 13.7572 32.8293C13.9333 32.9729 14.1119 33.1066 14.2955 33.2353C15.9689 34.3977 17.9568 35.0225 19.9943 35.0265C22.0317 35.0305 24.022 34.4135 25.7 33.2577L25.7025 33.2565L25.72 33.244C25.9398 33.0916 26.1538 32.9288 26.362 32.7556L26.3708 32.7494L26.3733 32.7469C26.6168 32.547 26.8529 32.3321 27.0803 32.1048L30.6128 28.5723C30.9893 28.2065 31.4947 28.0035 32.0196 28.0072C32.5446 28.0109 33.0471 28.221 33.4184 28.5922C33.7897 28.9633 34.0001 29.4657 34.004 29.9907C34.008 30.5157 33.8052 31.0211 33.4395 31.3978L29.9058 34.9316C29.6784 35.1589 29.4636 35.395 29.2612 35.6398H29.26L29.2525 35.6486C29.0788 35.8609 28.9127 36.0783 28.7566 36.3031L28.7541 36.3068V36.3081C27.5945 37.9857 26.9752 39.9776 26.9792 42.017C26.9832 44.0563 27.6104 46.0458 28.7766 47.7188C28.904 47.9011 29.0376 48.0798 29.1788 48.2522V48.2534C29.4063 48.5361 29.649 48.8063 29.9058 49.0628L33.4395 52.5966C33.8144 52.9714 34.025 53.4798 34.025 54.01C34.025 54.5401 33.8144 55.0485 33.4395 55.4233C33.0647 55.7982 32.5563 56.0088 32.0261 56.0088C31.496 56.0088 30.9876 55.7982 30.6128 55.4233L27.0803 51.8896C26.8654 51.676 26.6439 51.4736 26.4157 51.2825C26.1533 51.0628 25.8794 50.8572 25.5951 50.6667C24.7681 50.1086 23.8614 49.679 22.9057 49.3926ZM29.9957 38.0881V45.9063C29.3281 44.7116 28.9777 43.3658 28.9777 41.9972C28.9777 40.6286 29.3281 39.2828 29.9957 38.0881ZM36.32 58.2488C35.4651 59.1047 34.3712 59.6819 33.1821 59.9044C31.993 60.1269 30.7645 59.9843 29.6579 59.4955C28.5514 59.0066 27.6187 58.1943 26.9825 57.1654C26.3463 56.1365 26.0364 54.9391 26.0935 53.7308L29.2 56.8361C29.5712 57.2072 30.0119 57.5016 30.4969 57.7024C30.9819 57.9032 31.5017 58.0066 32.0266 58.0065C32.5515 58.0065 33.0713 57.903 33.5562 57.7021C34.0411 57.5012 34.4818 57.2067 34.8529 56.8355C35.224 56.4642 35.5184 56.0236 35.7192 55.5386C35.9201 55.0536 36.0234 54.5338 36.0233 54.0089C36.0233 53.484 35.9198 52.9642 35.7189 52.4793C35.518 51.9943 35.2235 51.5537 34.8523 51.1826L31.6982 48.0286C32.9142 47.9501 34.1251 48.2442 35.1696 48.8715C36.2141 49.4989 37.0427 50.4297 37.5447 51.5399C38.0467 52.6501 38.1985 53.8869 37.9797 55.0855C37.7609 56.2842 37.1819 57.3876 36.32 58.2488ZM59.9745 53.9619C59.9738 54.4917 59.763 54.9997 59.3884 55.3743C59.0137 55.749 58.5058 55.9598 57.9759 55.9605H39.83C40.1295 54.7745 40.1525 53.5357 39.8974 52.3395C39.6422 51.1432 39.1157 50.0216 38.3584 49.0611C37.6012 48.1006 36.6334 47.3268 35.5298 46.7995C34.4261 46.2723 33.2161 46.0056 31.993 46.02H31.9918C31.9918 46.0025 31.9943 45.985 31.9943 45.9675V37.9732C31.9943 37.9557 31.9918 37.9382 31.9918 37.9207H32.0605C33.1142 37.9234 34.1581 37.7177 35.132 37.3153C36.1059 36.913 36.9906 36.3219 37.7351 35.5762C38.4796 34.8306 39.0693 33.945 39.4701 32.9705C39.871 31.9959 40.0751 30.9518 40.0707 29.898C40.0664 28.8443 39.8536 27.8018 39.4447 26.8307C39.0358 25.8595 38.4388 24.9788 37.6881 24.2393C36.9374 23.4999 36.0479 22.9162 35.0707 22.5219C34.0935 22.1276 33.048 21.9305 31.9943 21.942V15.9887H36.9808C37.2458 15.9887 37.5 15.8834 37.6874 15.696C37.8748 15.5086 37.9801 15.2544 37.9801 14.9894C37.9801 14.7244 37.8748 14.4702 37.6874 14.2828C37.5 14.0954 37.2458 13.9901 36.9808 13.9901H31.9943V3.99718C31.995 3.46733 32.2058 2.95938 32.5804 2.58473C32.9551 2.21007 33.463 1.99928 33.9929 1.99859H40.2672L41.0391 4.3132C41.1053 4.51227 41.2325 4.68543 41.4027 4.80809C41.5729 4.93074 41.7774 4.99665 41.9872 4.99647H49.9816C50.1913 4.99648 50.3957 4.9305 50.5659 4.80787C50.7361 4.68524 50.8633 4.51218 50.9297 4.3132L51.7016 1.99859H57.9759C58.5058 1.99928 59.0137 2.21007 59.3884 2.58473C59.763 2.95938 59.9738 3.46733 59.9745 3.99718V53.9619Z" fill="#1977CC"/>
<path d="M56.9768 27.106H45.9845C45.7195 27.106 45.4653 27.2112 45.2779 27.3986C45.0905 27.586 44.9852 27.8402 44.9852 28.1053V32.1024C44.9852 32.3675 45.0905 32.6216 45.2779 32.809C45.4653 32.9964 45.7195 33.1017 45.9845 33.1017H56.9768C57.2418 33.1017 57.496 32.9964 57.6834 32.809C57.8708 32.6216 57.976 32.3675 57.976 32.1024V28.1053C57.976 27.8402 57.8708 27.586 57.6834 27.3986C57.496 27.2112 57.2418 27.106 56.9768 27.106ZM55.9775 31.1031H46.9838V29.1045H55.9775V31.1031Z" fill="#1977CC"/>
<path d="M56.9764 34.1008H45.9842C45.7191 34.1008 45.465 34.2061 45.2775 34.3935C45.0901 34.5809 44.9849 34.8351 44.9849 35.1001C44.9849 35.3652 45.0901 35.6193 45.2775 35.8067C45.465 35.9941 45.7191 36.0994 45.9842 36.0994H56.9764C57.2414 36.0994 57.4956 35.9941 57.683 35.8067C57.8704 35.6193 57.9757 35.3652 57.9757 35.1001C57.9757 34.8351 57.8704 34.5809 57.683 34.3935C57.4956 34.2061 57.2414 34.1008 56.9764 34.1008Z" fill="#1977CC"/>
<path d="M45.9842 39.0975H52.9792C53.2442 39.0975 53.4984 38.9922 53.6858 38.8048C53.8732 38.6174 53.9785 38.3632 53.9785 38.0982C53.9785 37.8331 53.8732 37.579 53.6858 37.3916C53.4984 37.2042 53.2442 37.0989 52.9792 37.0989H45.9842C45.7191 37.0989 45.465 37.2042 45.2775 37.3916C45.0901 37.579 44.9849 37.8331 44.9849 38.0982C44.9849 38.3632 45.0901 38.6174 45.2775 38.8048C45.465 38.9922 45.7191 39.0975 45.9842 39.0975Z" fill="#1977CC"/>
<path d="M56.9764 40.0967H45.9842C45.7191 40.0967 45.465 40.202 45.2775 40.3894C45.0901 40.5768 44.9849 40.8309 44.9849 41.096C44.9849 41.361 45.0901 41.6152 45.2775 41.8026C45.465 41.99 45.7191 42.0953 45.9842 42.0953H56.9764C57.2414 42.0953 57.4956 41.99 57.683 41.8026C57.8704 41.6152 57.9757 41.361 57.9757 41.096C57.9757 40.8309 57.8704 40.5768 57.683 40.3894C57.4956 40.202 57.2414 40.0967 56.9764 40.0967Z" fill="#1977CC"/>
<path d="M56.9766 37.0989H55.9773C55.7123 37.0989 55.4581 37.2042 55.2707 37.3916C55.0833 37.579 54.978 37.8331 54.978 38.0982C54.978 38.3632 55.0833 38.6174 55.2707 38.8048C55.4581 38.9922 55.7123 39.0975 55.9773 39.0975H56.9766C57.2416 39.0975 57.4958 38.9922 57.6832 38.8048C57.8706 38.6174 57.9759 38.3632 57.9759 38.0982C57.9759 37.8331 57.8706 37.579 57.6832 37.3916C57.4958 37.2042 57.2416 37.0989 56.9766 37.0989Z" fill="#1977CC"/>
<path d="M48.9722 19.9859C49.5241 19.9859 49.9715 19.5385 49.9715 18.9866C49.9715 18.4347 49.5241 17.9873 48.9722 17.9873C48.4203 17.9873 47.9729 18.4347 47.9729 18.9866C47.9729 19.5385 48.4203 19.9859 48.9722 19.9859Z" fill="#1977CC"/>
<path d="M50.3046 17.4966C50.4024 17.5841 50.5165 17.6515 50.6403 17.695C50.7641 17.7384 50.8953 17.757 51.0263 17.7498C51.1574 17.7425 51.2857 17.7095 51.404 17.6527C51.5222 17.5958 51.6282 17.5163 51.7157 17.4185C51.8032 17.3207 51.8706 17.2066 51.9141 17.0828C51.9575 16.959 51.9761 16.8278 51.9689 16.6968C51.9616 16.5657 51.9286 16.4374 51.8718 16.3191C51.8149 16.2009 51.7353 16.0949 51.6376 16.0074C50.9047 15.3518 49.9558 14.9893 48.9724 14.9893C47.9891 14.9893 47.0402 15.3518 46.3073 16.0074C46.2095 16.0949 46.13 16.2009 46.0731 16.3191C46.0163 16.4374 45.9833 16.5657 45.976 16.6968C45.9688 16.8278 45.9874 16.959 46.0308 17.0828C46.0743 17.2066 46.1417 17.3207 46.2292 17.4185C46.3167 17.5163 46.4226 17.5958 46.5409 17.6527C46.6592 17.7095 46.7875 17.7425 46.9185 17.7498C47.0496 17.757 47.1807 17.7384 47.3046 17.695C47.4284 17.6515 47.5425 17.5841 47.6403 17.4966C48.0067 17.169 48.4809 16.9879 48.9724 16.9879C49.464 16.9879 49.9382 17.169 50.3046 17.4966Z" fill="#1977CC"/>
<path d="M52.3031 15.2623C52.4007 15.3511 52.5149 15.4197 52.6391 15.4641C52.7633 15.5085 52.8951 15.5279 53.0268 15.5211C53.1585 15.5144 53.2876 15.4816 53.4067 15.4247C53.5257 15.3678 53.6322 15.2879 53.7202 15.1896C53.8082 15.0913 53.8758 14.9766 53.9192 14.852C53.9626 14.7274 53.9809 14.5955 53.9731 14.4638C53.9653 14.3321 53.9314 14.2033 53.8736 14.0848C53.8157 13.9662 53.7349 13.8603 53.6359 13.7731C52.3534 12.6259 50.6931 11.9917 48.9723 11.9917C47.2516 11.9917 45.5913 12.6259 44.3088 13.7731C44.1138 13.9505 43.9968 14.1978 43.9832 14.4611C43.9697 14.7243 44.0608 14.9823 44.2366 15.1787C44.4124 15.3752 44.6587 15.4942 44.9219 15.5098C45.185 15.5255 45.4437 15.4365 45.6416 15.2623C46.5576 14.4431 47.7434 13.9902 48.9723 13.9902C50.2013 13.9902 51.3871 14.4431 52.3031 15.2623Z" fill="#1977CC"/>
<path d="M57.9658 15.9888C57.9658 14.21 57.4383 12.4712 56.4501 10.9922C55.4619 9.51317 54.0573 8.36043 52.4139 7.67972C50.7705 6.99901 48.9622 6.82091 47.2176 7.16793C45.473 7.51495 43.8705 8.37151 42.6127 9.6293C41.3549 10.8871 40.4984 12.4896 40.1513 14.2342C39.8043 15.9788 39.9824 17.7871 40.6631 19.4305C41.3438 21.0739 42.4966 22.4785 43.9756 23.4667C45.4546 24.4549 47.1934 24.9824 48.9722 24.9824C51.3566 24.9797 53.6426 24.0312 55.3286 22.3452C57.0146 20.6592 57.9631 18.3732 57.9658 15.9888ZM41.9771 15.9888C41.9771 14.6053 42.3874 13.2529 43.156 12.1025C43.9246 10.9522 45.0171 10.0556 46.2953 9.52618C47.5735 8.99674 48.9799 8.85821 50.3368 9.12812C51.6937 9.39802 52.9401 10.0642 53.9184 11.0425C54.8967 12.0208 55.5629 13.2672 55.8328 14.6241C56.1027 15.981 55.9642 17.3875 55.4348 18.6657C54.9053 19.9438 54.0087 21.0363 52.8584 21.8049C51.7081 22.5736 50.3557 22.9838 48.9722 22.9838C47.1176 22.9818 45.3396 22.2441 44.0282 20.9328C42.7168 19.6214 41.9792 17.8433 41.9771 15.9888Z" fill="#1977CC"/>
</svg>
