<svg width="70" height="62" viewBox="0 0 70 62" fill="none" xmlns="http://www.w3.org/2000/svg">
<path d="M1.73047 50.6823L1.06226 59.7079L10.0475 60.9354L13.3329 58.273L18.5873 58.8225L19.1371 53.5704L19.2039 53.5158L24.4584 54.0653L25.0071 48.8133L25.0739 48.7586L30.3284 49.3071L30.8782 44.0551L46.9777 31.009L38.6607 20.7549L1.73047 50.6823Z" fill="white"/>
<path d="M39.4865 20.0862C39.3093 19.8677 39.0522 19.728 38.7717 19.6987C38.4913 19.6693 38.2108 19.7523 37.9921 19.9304L1.06194 49.8578C0.834147 50.042 0.692422 50.3122 0.671161 50.6046L0.00295109 59.6312C-0.0385583 60.1908 0.362366 60.6867 0.9192 60.7626L9.90446 61.9901C9.95204 61.9962 10.0006 62.0002 10.0482 62.0002C10.2902 62.0002 10.5271 61.9172 10.7174 61.7634L13.6606 59.3782L18.4766 59.8812C19.0618 59.9429 19.5832 59.5189 19.644 58.935L20.0895 54.6798L24.3477 55.124C24.9329 55.1857 25.4543 54.7617 25.515 54.1778L25.9605 49.9216L30.2177 50.3668C30.4982 50.3962 30.7786 50.3132 30.9973 50.1351C31.216 49.958 31.3557 49.701 31.385 49.4196L31.8882 44.6048L47.6456 31.836C47.8643 31.6589 48.004 31.4019 48.0334 31.1215C48.0627 30.8412 47.9797 30.5609 47.8015 30.3424L39.4865 20.0862ZM30.2086 43.2295C29.9899 43.4066 29.8502 43.6637 29.8209 43.944L29.3825 48.1395L25.185 47.7013C24.9035 47.672 24.6221 47.756 24.4034 47.9341L24.3366 47.9887C24.1189 48.1658 23.9802 48.4229 23.9508 48.7022L23.5124 52.8977L19.3149 52.4595C19.0345 52.4302 18.7551 52.5132 18.5364 52.6903L18.4696 52.7439C18.2499 52.921 18.1102 53.179 18.0808 53.4593L17.6424 57.6549L13.4449 57.2167C13.1645 57.1874 12.884 57.2704 12.6653 57.4485L9.73742 59.8215L2.1979 58.7913L2.75877 51.2189L38.5064 22.2498L45.4841 30.8534L30.2086 43.2295Z" fill="#1977CC"/>
<path d="M34.3324 29.2196L4.02948 53.7756C3.83408 53.9335 3.7136 54.1652 3.69436 54.4161L3.42811 58.0106C3.39065 58.5125 3.76727 58.9487 4.26944 58.9861C4.29272 58.9881 4.31499 58.9881 4.33726 58.9881C4.81007 58.9881 5.20997 58.6228 5.24541 58.1442L5.48232 54.9413L35.4795 30.6333C35.8703 30.3166 35.93 29.7428 35.6131 29.3522C35.2973 28.9626 34.7232 28.9029 34.3324 29.2196Z" fill="#E0F4FC"/>
<path d="M38.0435 5.15552C30.1567 11.546 28.9469 23.1187 35.3414 31.0028C41.7348 38.8859 53.3129 40.0951 61.1997 33.7037C69.0865 27.3122 70.2964 15.7395 63.9029 7.85743C57.5074 -0.0256644 45.9303 -1.23495 38.0435 5.15552ZM55.7458 15.4531C53.8597 16.9822 51.0886 16.6928 49.5599 14.8065C48.0301 12.9202 48.3197 10.1515 50.2068 8.62247C52.094 7.09341 54.864 7.38282 56.3937 9.2691C57.9215 11.1554 57.633 13.9241 55.7458 15.4531Z" fill="white"/>
<path d="M37.3723 4.33085C33.3368 7.60046 30.8179 12.2453 30.2783 17.4093C29.7386 22.5733 31.2431 27.6391 34.5143 31.6717C37.7854 35.7054 42.4324 38.2231 47.5988 38.7635C48.2873 38.8353 48.9737 38.8707 49.6571 38.8707C54.0975 38.8707 58.371 37.3629 61.8679 34.5295C70.1971 27.7788 71.4799 15.5139 64.727 7.18859C57.9731 -1.13773 45.7025 -2.41886 37.3723 4.33085ZM60.5285 32.878C56.9344 35.7904 52.421 37.1302 47.8195 36.6495C43.2181 36.1688 39.0793 33.9253 36.1655 30.3339C33.2518 26.7415 31.9113 22.2302 32.3922 17.6299C32.8731 13.0306 35.1177 8.89373 38.7107 5.98134C46.1298 -0.0306572 57.0599 1.11183 63.0747 8.5264C69.0905 15.942 67.9475 26.866 60.5285 32.878Z" fill="#1977CC"/>
<path d="M49.5361 7.79761C48.4032 8.71545 47.6956 10.0199 47.5437 11.47C47.3918 12.9201 47.815 14.3429 48.7333 15.4753C49.6516 16.6076 50.9566 17.315 52.4074 17.4668C52.6008 17.487 52.7941 17.4972 52.9855 17.4972C54.2328 17.4972 55.4325 17.0742 56.4146 16.2778C57.5475 15.3599 58.2551 14.0555 58.407 12.6044C58.5589 11.1542 58.1367 9.73144 57.2174 8.59907C55.3211 6.26248 51.8759 5.90223 49.5361 7.79761ZM56.2931 12.3848C56.1999 13.2702 55.7686 14.0666 55.0761 14.6273C54.3846 15.1879 53.515 15.4459 52.6291 15.3528C51.7432 15.2597 50.9465 14.8286 50.3846 14.1365C49.8237 13.4443 49.5655 12.576 49.6576 11.6906C49.7498 10.8051 50.1821 10.0087 50.8746 9.4481C51.4911 8.9482 52.2343 8.70533 52.9723 8.70533C53.9443 8.70533 54.9081 9.1263 55.5661 9.93789C56.127 10.6301 56.3852 11.4993 56.2931 12.3848Z" fill="#1977CC"/>
<path d="M57.9572 29.7065C55.2104 31.9318 51.7621 32.9559 48.2449 32.5885C44.7288 32.2212 41.5659 30.5069 39.3396 27.7625C38.9701 27.3072 38.3009 27.2363 37.8443 27.6067C37.3887 27.9761 37.3178 28.645 37.6883 29.1013C40.2721 32.287 43.9431 34.2765 48.0242 34.7035C48.5679 34.7602 49.1106 34.7885 49.6502 34.7885C53.1583 34.7885 56.5337 33.5974 59.2966 31.359C59.7522 30.9896 59.823 30.3207 59.4525 29.8644C59.0819 29.407 58.4128 29.3371 57.9572 29.7065Z" fill="#1977CC"/>
</svg>
