<svg width="42" height="48" viewBox="0 0 42 48" fill="none" xmlns="http://www.w3.org/2000/svg">
<path d="M20.8763 47.9998C20.5009 47.9982 20.1286 47.9312 19.7761 47.8018C16.6956 46.7016 6.30966 42.3448 2.43694 33.1251C-0.445586 26.2598 -0.137529 15.0158 0.23654 10.5049C0.23654 8.54658 2.15089 7.82045 3.03105 7.49039C6.79374 6.01612 16.2335 2.16541 19.3801 0.405088C19.8658 0.139305 20.4106 0 20.9644 0C21.5181 0 22.0629 0.139305 22.5486 0.405088C25.7612 2.16541 35.0689 5.99411 38.8096 7.46839C39.5256 7.63402 40.1759 8.00927 40.6775 8.54621C41.1792 9.08316 41.5095 9.75743 41.6261 10.4829C41.8902 14.9938 42.1983 26.2378 39.3157 33.1031C35.443 42.3228 25.1231 46.6576 22.0646 47.7798C21.6864 47.9292 21.2829 48.0039 20.8763 47.9998ZM20.8763 2.20942C20.6924 2.21115 20.5114 2.25639 20.3482 2.34144C17.0036 4.16778 7.67391 7.97448 3.75719 9.60278C2.59097 10.0429 2.34893 10.3509 2.32692 10.703C2.08488 15.1038 1.77682 25.9078 4.52733 32.355C8.04797 40.7385 17.7298 44.7652 20.5683 45.7994C20.7947 45.8878 21.046 45.8878 21.2724 45.7994C24.1329 44.7652 33.7267 40.7385 37.2473 32.355C39.9318 25.9078 39.6458 15.0598 39.4478 10.703C39.4478 10.3509 39.1837 10.0649 38.0395 9.60278C34.0788 8.04049 24.8371 4.23379 21.5145 2.40746C21.3256 2.28062 21.1038 2.21178 20.8763 2.20942Z" fill="#4080FE"/>
<path d="M18.6756 30.5061C18.5202 30.4918 18.3695 30.4453 18.2331 30.3696C18.0967 30.2938 17.9776 30.1904 17.8834 30.066L13.4826 24.1909C13.3076 23.9575 13.2324 23.6641 13.2737 23.3752C13.3149 23.0864 13.4692 22.8257 13.7027 22.6506C13.9381 22.4811 14.23 22.4094 14.5171 22.4504C14.8043 22.4914 15.0644 22.642 15.243 22.8707L18.8956 27.7556L29.6776 17.6117C29.7799 17.5086 29.9016 17.4268 30.0356 17.3709C30.1697 17.315 30.3135 17.2863 30.4588 17.2863C30.604 17.2863 30.7478 17.315 30.8819 17.3709C31.0159 17.4268 31.1376 17.5086 31.2399 17.6117C31.3424 17.7121 31.4238 17.8319 31.4793 17.9642C31.5349 18.0964 31.5635 18.2384 31.5635 18.3819C31.5635 18.5253 31.5349 18.6673 31.4793 18.7995C31.4238 18.9318 31.3424 19.0516 31.2399 19.152L19.4897 30.154C19.3851 30.265 19.2589 30.3534 19.1189 30.4139C18.9789 30.4744 18.8281 30.5058 18.6756 30.5061Z" fill="#4080FE"/>
</svg>
