<svg width="38" height="48" viewBox="0 0 38 48" fill="none" xmlns="http://www.w3.org/2000/svg">
<path d="M30.2222 27.2533V11.5556C30.2222 5.184 25.0382 0 18.6667 0C12.2951 0 7.11111 5.184 7.11111 11.5556V27.2533C3.43378 28.6658 0 30.5973 0 32.8889V47.1111C0 47.6027 0.398222 48 0.888889 48H36.4444C36.936 48 37.3333 47.6027 37.3333 47.1111V32.8889C37.3333 30.5973 33.8996 28.6658 30.2222 27.2533ZM8.88889 11.5556C8.88889 6.16444 13.2756 1.77778 18.6667 1.77778C24.0578 1.77778 28.4444 6.16444 28.4444 11.5556V26.6133C26.3991 25.9227 24.4391 25.4009 23.1111 25.0764V23.504C26.6622 20.7538 26.6667 14.5991 26.6667 11.5556C26.6667 11.0649 26.2693 10.6667 25.7778 10.6667H18.6667C17.1964 10.6667 16 9.47022 16 8C16 7.50933 15.6018 7.11111 15.1111 7.11111C14.6204 7.11111 14.2222 7.50933 14.2222 8C14.2222 9.47022 13.0258 10.6667 11.5556 10.6667C11.0649 10.6667 10.6667 11.0649 10.6667 11.5556C10.6667 14.5991 10.6711 20.7538 14.2222 23.504V25.0764C12.8933 25.4009 10.9342 25.9227 8.88889 26.6133V11.5556ZM18.6667 38.208L12.4791 27.3796C13.0578 27.2142 13.64 27.0569 14.2222 26.9093V28.4444C14.2222 28.936 14.6204 29.3333 15.1111 29.3333C15.6018 29.3333 16 28.936 16 28.4444V24.4693C16.7724 24.7387 17.6551 24.8889 18.6667 24.8889C19.6791 24.8889 20.5618 24.7387 21.3333 24.4693V28.4444C21.3333 28.936 21.7307 29.3333 22.2222 29.3333C22.7138 29.3333 23.1111 28.936 23.1111 28.4444V26.9093C23.6933 27.0569 24.2764 27.2142 24.8551 27.3787L18.6667 38.208ZM25.8356 29.2453L28.1004 32.6418L21.3058 37.1716L25.8356 29.2453ZM16.0267 37.1716L9.232 32.6418L11.4969 29.2453L16.0267 37.1716ZM18.6667 23.1111C13.44 23.1111 12.5227 18.0364 12.4516 12.3467C13.5316 12.1244 14.4711 11.5156 15.1111 10.664C15.9227 11.744 17.2142 12.4444 18.6667 12.4444H24.8809C24.8 18.0933 23.864 23.1111 18.6667 23.1111ZM35.5556 46.2222H30.2222V41.7778C30.2222 41.2862 29.8249 40.8889 29.3333 40.8889C28.8418 40.8889 28.4444 41.2862 28.4444 41.7778V46.2222H8.88889V41.7778C8.88889 41.2862 8.49067 40.8889 8 40.8889C7.50933 40.8889 7.11111 41.2862 7.11111 41.7778V46.2222H1.77778V32.8889C1.77778 31.4916 5.54933 29.6071 10.1236 28.1004L7.26044 32.3956C6.98844 32.8044 7.09867 33.3556 7.50667 33.6284L18.1733 40.7396C18.2098 40.7636 18.2507 40.776 18.2889 40.7947C18.3182 40.8089 18.3449 40.824 18.3751 40.8347C18.4702 40.8684 18.568 40.8889 18.6667 40.8889C18.7653 40.8889 18.8622 40.8684 18.9573 40.8338C18.9876 40.8231 19.0142 40.808 19.0436 40.7938C19.0818 40.7751 19.1227 40.7636 19.1591 40.7387L29.8258 33.6276C30.2347 33.3547 30.3449 32.8036 30.072 32.3947L27.208 28.0987C31.7831 29.6053 35.5556 31.4907 35.5556 32.8889V46.2222Z" fill="#4080FE"/>
</svg>
