<svg width="45" height="48" viewBox="0 0 45 48" fill="none" xmlns="http://www.w3.org/2000/svg">
<path d="M42.4666 15.7428H40.1942C39.7845 15.7428 39.4492 16.0804 39.4492 16.493C39.4492 16.9056 39.7845 17.2432 40.1942 17.2432H42.4666V36.7475H40.9765V28.3456C40.9765 27.933 40.6413 27.5955 40.2315 27.5955C39.8217 27.5955 39.4865 27.933 39.4865 28.3456V36.7475H20.6C21.2333 35.9223 21.3078 34.8346 20.7863 33.9344L16.8376 26.8453C19.11 25.4575 22.1273 24.1822 28.013 24.1822C28.5346 24.4823 29.1678 24.5573 29.7639 24.4073C30.2481 24.1822 30.6206 23.7321 30.7324 23.207C31.1422 21.5191 29.9501 18.0308 27.715 14.3175C25.2937 10.3417 21.7921 6.55331 19.855 7.67856C19.4825 7.90361 19.1845 8.3162 19.11 8.7663C19.0355 9.06637 18.9982 9.36644 18.9982 9.62899C15.2358 15.2177 12.0322 17.3182 9.16384 19.1561C9.08934 19.1936 7.63653 20.1313 7.15227 20.4689C4.91718 22.0442 4.87993 25.1949 6.10923 27.2954C6.96601 28.7582 9.08934 29.8084 10.8402 29.8084C11.2499 29.8084 11.6597 29.7334 12.0322 29.6209C12.1439 29.5834 12.2557 29.5459 12.3675 29.4709C12.3675 29.4709 16.4651 36.5974 16.5396 36.71H4.47017V28.3456C4.47017 27.933 4.1349 27.5955 3.72514 27.5955C3.31537 27.5955 2.98011 27.933 2.98011 28.3456V36.7475H1.49006V17.2432H3.68789C4.09765 17.2432 4.43291 16.9056 4.43291 16.493C4.43291 16.0804 4.09765 15.7428 3.68789 15.7428H1.49006C0.670525 15.7428 0 16.418 0 17.2432V42.7488C0 43.574 0.670525 44.2491 1.49006 44.2491H17.8807V46.4996H14.3418C13.932 46.4996 13.5968 46.8372 13.5968 47.2498C13.5968 47.6624 13.932 48 14.3418 48H29.6148C30.0246 48 30.3599 47.6624 30.3599 47.2498C30.3599 46.8372 30.0246 46.4996 29.6148 46.4996H26.076V44.2491H42.4666C43.2861 44.2491 43.9566 43.574 43.9566 42.7488V17.2432C43.9566 16.418 43.2861 15.7428 42.4666 15.7428ZM20.6 8.99135C20.6373 8.99135 20.6373 8.99135 20.6745 8.99135C21.3078 8.99135 23.6919 10.6792 26.4112 15.1427C29.2423 19.7562 29.5403 22.6819 29.2051 23.0194C28.8698 23.132 27.6405 22.4193 25.9642 20.4689C27.119 17.6933 25.8152 14.4676 23.0586 13.3048C22.5371 13.0798 21.9411 12.9297 21.3823 12.8922C20.4138 10.6042 20.3765 9.2164 20.6 8.99135ZM24.8094 19.0436C24.3624 18.4059 23.8781 17.6933 23.3566 16.9056C22.8351 16.0804 22.4253 15.2927 22.0528 14.5801C23.9899 15.1427 25.1819 17.0556 24.8094 19.0436ZM19.3707 11.7295C20.0412 13.8299 20.9353 15.8179 22.1273 17.6558C23.2449 19.4937 24.5487 21.2191 26.076 22.7194C25.1074 22.7569 24.2506 22.8694 23.4311 22.9819C22.2391 21.6692 21.1588 20.2438 20.2275 18.706C19.259 17.1307 18.4394 15.4428 17.8434 13.6799C18.3277 13.1173 18.8492 12.4421 19.3707 11.7295ZM16.7259 14.9927C17.3219 16.568 18.1042 18.0684 18.961 19.4937C19.7805 20.844 20.6745 22.1193 21.6803 23.3195C18.2904 24.0697 16.2789 25.3825 14.5653 26.5452C14.3418 26.6953 14.1183 26.8453 13.8948 26.9578L10.2069 20.2438C12.591 18.8185 14.7888 17.0556 16.7259 14.9927ZM11.5107 28.2331C10.3559 28.6832 8.08355 27.7455 7.37577 26.5452C6.51899 25.0449 6.48174 22.7569 8.00905 21.7067C8.30706 21.4816 8.60507 21.2941 8.94033 21.069L12.6282 27.708C12.293 27.8955 11.9204 28.0831 11.5107 28.2331ZM13.7085 28.8332C14.2673 28.4957 14.826 28.1581 15.3848 27.783C15.4593 27.7455 15.4966 27.708 15.5711 27.6705C15.6456 27.5955 19.5197 34.6845 19.5197 34.6845C19.8177 35.2096 19.6315 35.8473 19.11 36.1098C18.5884 36.4099 17.9179 36.2224 17.6199 35.6972L13.7085 28.8332ZM24.5859 46.4996H19.3707V44.2491H24.5859V46.4996ZM42.4666 42.7488H1.49006V38.2478H42.4666V42.7488Z" fill="#4080FE"/>
<path d="M38.7415 41.2486H40.2315C40.6413 41.2486 40.9766 40.911 40.9766 40.4985C40.9766 40.0859 40.6413 39.7483 40.2315 39.7483H38.7415C38.3317 39.7483 37.9965 40.0859 37.9965 40.4985C37.9965 40.911 38.3317 41.2486 38.7415 41.2486Z" fill="#4080FE"/>
<path d="M31.6637 16.8307L35.8731 18.8937C36.2456 19.0812 36.6926 18.9312 36.8789 18.5561L38.8904 14.1676C39.4119 12.9674 38.9277 11.5796 37.7729 11.0169C36.6181 10.4543 35.2398 10.9044 34.681 12.0672C34.681 12.1047 34.681 12.1047 34.6438 12.1422L34.3458 12.8173L33.7125 12.5173C32.5577 11.9546 31.1421 12.4422 30.5834 13.605C30.5834 13.605 30.5834 13.6425 30.5461 13.6425C29.9873 14.8053 30.5089 16.2306 31.6637 16.8307ZM31.8872 14.2426C31.9989 14.0176 32.1852 13.8676 32.3714 13.755C32.4459 13.7175 32.5577 13.7175 32.6322 13.7175C32.7812 13.7175 32.893 13.755 33.042 13.7925L34.3458 14.4302C34.7183 14.6177 35.1653 14.4677 35.3515 14.0926L35.9848 12.7423C36.0966 12.5173 36.2456 12.3672 36.4691 12.2922C36.6926 12.2172 36.9161 12.2172 37.1024 12.3297C37.3259 12.4422 37.4749 12.6298 37.5494 12.8548C37.6239 13.0799 37.6239 13.3049 37.5121 13.53L35.7986 17.2058L32.2597 15.4804C31.8872 15.2554 31.7009 14.7302 31.8872 14.2426Z" fill="#4080FE"/>
<path d="M43.9194 1.26516C43.5842 0.289942 42.5411 -0.235174 41.5726 0.102401L36.2829 1.82778C35.7986 1.97781 35.4261 2.31539 35.2026 2.76549C34.9791 3.21559 34.9419 3.7032 35.0909 4.1908L35.7986 6.29127C36.1339 7.26648 37.1769 7.7916 38.1455 7.45402L43.4352 5.72864C43.9194 5.57861 44.292 5.24104 44.5155 4.79094C44.739 4.34084 44.7762 3.85323 44.6272 3.36562L43.9194 1.26516ZM43.1744 4.07828C43.1372 4.1533 43.0627 4.22831 42.9509 4.26582L37.6985 5.9912C37.5122 6.06622 37.2887 5.95369 37.2142 5.76615L36.5064 3.66569C36.4692 3.59067 36.4692 3.47815 36.5437 3.40313C36.5809 3.32811 36.6554 3.2531 36.7672 3.21559L42.0196 1.49021C42.0569 1.49021 42.0941 1.49021 42.1314 1.49021C42.2804 1.49021 42.4294 1.60273 42.4666 1.75276L43.1744 3.85323C43.2117 3.89074 43.2117 4.00326 43.1744 4.07828Z" fill="#4080FE"/>
<path d="M39.1886 3.17749L39.4121 3.89015L39.6729 4.6028L40.2689 4.00267L40.8649 3.40254L40.0081 3.29002L39.1886 3.17749Z" fill="#4080FE"/>
<path d="M25.0703 9.10417C25.3683 9.47926 25.8153 9.6668 26.2996 9.6668H31.8501C32.7813 9.6668 33.5264 8.91663 33.5264 7.97892V3.17786C33.5264 2.24016 32.7813 1.48999 31.8501 1.48999H26.2996C25.3683 1.48999 24.6233 2.24016 24.6233 3.17786V8.01643C24.6233 8.35401 24.735 8.69158 24.9213 8.99165C24.9958 9.02916 25.0331 9.06666 25.0703 9.10417ZM26.8211 8.16647L28.3112 6.10351L28.7582 6.9662L29.3542 8.16647H26.8211ZM32.0363 8.01643C32.0363 8.12896 31.9618 8.20397 31.8501 8.20397H30.9933L30.3228 6.89118L30.9933 6.36607L31.9991 7.60384V8.01643H32.0363ZM26.1506 3.17786C26.1506 3.06534 26.2251 2.99032 26.3369 2.99032H31.8873C31.9618 2.99032 32.0363 3.06534 32.0363 3.17786V5.20331L31.7011 4.79072C31.4403 4.49065 30.9933 4.41564 30.658 4.67819L29.6522 5.50338L29.0935 4.37813C28.9072 4.00305 28.4602 3.85301 28.0877 4.04055C27.9759 4.07806 27.9014 4.15308 27.8269 4.2656L26.1506 6.59112V3.17786Z" fill="#4080FE"/>
</svg>
