<svg width="28" height="48" viewBox="0 0 28 48" fill="none" xmlns="http://www.w3.org/2000/svg">
<path d="M15.4049 4.15991H11.8337C11.4053 4.15991 11.0596 4.50568 11.0596 4.93402C11.0596 5.36236 11.4053 5.70813 11.8337 5.70813H15.4049C15.8332 5.70813 16.179 5.36236 16.179 4.93402C16.179 4.50568 15.8332 4.15991 15.4049 4.15991Z" fill="#4080FE"/>
<path d="M23.8116 0H3.42673C1.5379 0 0 1.5379 0 3.42673V44.5733C0 46.4621 1.5379 48 3.42673 48H23.8065C25.6953 48 27.2332 46.4621 27.2332 44.5733V3.42673C27.2332 1.5379 25.6953 0 23.8116 0ZM25.685 44.5681C25.685 45.6003 24.8438 46.4466 23.8065 46.4466H3.42673C2.39458 46.4466 1.54822 45.6054 1.54822 44.5681V3.42673C1.54822 2.39458 2.38942 1.54822 3.42673 1.54822H23.8065C24.8386 1.54822 25.685 2.38942 25.685 3.42673V44.5681Z" fill="#4080FE"/>
<path d="M13.6191 38.4785C12.2257 38.4785 11.0955 39.6087 11.0955 41.0021C11.0955 42.3955 12.2257 43.5257 13.6191 43.5257C15.0125 43.5257 16.1427 42.3955 16.1427 41.0021C16.1427 39.6087 15.0125 38.4785 13.6191 38.4785ZM13.6191 41.9775C13.0823 41.9775 12.6437 41.5388 12.6437 41.0021C12.6437 40.4654 13.0823 40.0267 13.6191 40.0267C14.1558 40.0267 14.5944 40.4654 14.5944 41.0021C14.5944 41.5388 14.1558 41.9775 13.6191 41.9775Z" fill="#4080FE"/>
</svg>
