<svg width="43" height="48" viewBox="0 0 43 48" fill="none" xmlns="http://www.w3.org/2000/svg">
<path d="M42.2264 36.0057C41.7255 28.1386 31.4637 26.4857 31.4637 26.4857C28.8424 26.014 27.774 23.747 27.3509 22.2792C29.3658 20.0056 30.7759 17.0673 31.5553 14.2041C31.8522 13.1128 32.0122 11.9735 32.0122 10.8408C32.0122 10.1964 31.9482 9.5684 31.8395 8.95554C33.1476 6.74675 32.7623 4.28364 32.452 3.10022C32.3579 2.74078 32.0016 2.56333 31.6354 2.56333C31.5959 2.56333 31.5567 2.56536 31.5174 2.56941C31.3779 2.58384 31.2305 2.59063 31.0762 2.59063C28.7335 2.59063 24.8596 1.02272 24.8596 1.02272C23.6778 0.51036 22.2223 0.20916 20.9482 0.0606603C19.8335 -0.069352 18.7061 0.00133536 17.6357 0.35346C16.1483 0.842722 14.7787 1.80621 13.6691 2.90833C13.4421 3.13389 13.248 3.36883 13.0684 3.63268C10.7072 4.42884 10.3078 7.49274 10.4479 10.1754C10.4344 10.3959 10.4226 10.6169 10.4226 10.8408C10.4226 14.8733 12.1231 19.4986 14.7731 22.5463C14.8505 22.6355 14.931 22.7209 15.0116 22.8064C14.4954 24.2392 13.3923 26.0679 11.0697 26.4857C11.0697 26.4857 0.807424 28.1386 0.306881 36.0057C0.306881 36.0057 -0.311436 40.1173 0.207272 45.0211C0.381403 46.6688 1.90343 48 3.55704 48H38.9763C40.6299 48 42.1145 46.6643 42.2653 45.0143C42.6681 40.6199 42.2264 36.0057 42.2264 36.0057ZM27.4725 26.0743L28.0176 26.6811L28.1486 26.8268L28.3122 26.9336L28.7911 27.2461L25.1158 32.5402L23.6753 30.157L23.6164 30.0595L23.5435 29.9722C23.4294 29.8354 23.4206 29.5651 23.514 29.4022L27.4725 26.0743ZM22.1502 32.2496H20.3568L19.8179 31.2902L20.0313 30.9371C20.1709 30.7698 20.2736 30.5777 20.347 30.3746H22.0878C22.1612 30.5777 22.2639 30.7698 22.4035 30.9371L22.646 31.3383L22.1502 32.2496ZM23.4473 41.7532C23.469 41.8368 23.4041 42.0405 23.3196 42.1053L21.54 43.4698C21.4884 43.5093 21.3393 43.5095 21.2878 43.4696L19.5084 42.1056C19.4137 42.033 19.3384 41.8121 19.3606 41.71L20.9971 33.7496H21.4726L23.4473 41.7532ZM22.4388 28.3524C22.3025 28.5071 22.2005 28.6859 22.1227 28.8746H20.3121C20.2343 28.6859 20.1323 28.5071 19.996 28.3524L15.7433 24.7773C15.9203 24.4699 16.0708 24.1614 16.1999 23.86C17.6441 24.9223 19.3593 25.4995 21.0718 25.4995C22.7316 25.4995 24.3874 24.9593 25.7893 23.7982C25.9198 23.69 26.0463 23.5765 26.173 23.463C26.3251 23.8677 26.5183 24.2952 26.7587 24.7207L22.4388 28.3524ZM13.541 5.05505C13.8483 4.9514 14.1137 4.74962 14.2969 4.48029C14.3173 4.45044 16.3685 1.49931 20.3008 1.49897H20.3014C21.5557 1.49897 22.8912 1.80238 24.2711 2.40077C24.2822 2.40553 24.2932 2.41026 24.3045 2.41487C24.7283 2.58624 28.5196 4.09063 31.0762 4.09063C31.1003 4.09063 31.1243 4.09063 31.1481 4.09026C31.5174 6.08848 31.3024 9.10625 27.384 10.687C27.366 10.6941 25.5521 11.3985 23.3227 11.3985C21.1122 11.3985 19.2899 10.7209 17.9064 9.3842C17.6245 9.11191 17.2535 8.9669 16.8756 8.9669C16.7084 8.9669 16.54 8.99529 16.3771 9.05352C15.8462 9.24376 15.4674 9.7193 15.3982 10.2825L15.3028 11.0596L14.8313 10.7253C14.5736 10.5423 14.2736 10.4517 13.9743 10.4517C13.641 10.4517 13.3083 10.5641 13.0359 10.787C12.7453 11.0246 12.4057 11.3826 12.0946 11.8422C11.7196 9.07126 11.7727 5.65142 13.541 5.05505ZM12.692 15.6111C12.2832 13.3411 13.9741 11.9517 13.9741 11.9517L15.9778 13.373C16.0896 13.4634 16.1939 13.5066 16.2822 13.5066C16.4449 13.5066 16.553 13.3602 16.553 13.0932L16.8758 10.4671C18.8468 12.371 21.2565 12.8985 23.3227 12.8985C25.8921 12.8985 27.9302 12.0824 27.9302 12.0824C29.003 11.6498 29.848 11.1237 30.5111 10.5436C30.5149 10.6427 30.5233 10.7412 30.5233 10.8408C30.5233 11.8244 30.3873 12.8226 30.1194 13.8073C29.1226 17.469 27.1997 20.6884 24.8438 22.6396C23.7694 23.5293 22.4652 23.9995 21.0718 23.9995C19.1298 23.9995 17.2422 23.1096 15.8931 21.558C14.5057 19.9624 13.3859 17.8351 12.692 15.6111ZM14.1226 26.9336L14.2862 26.8268L14.4172 26.6811L14.9623 26.0743L18.9208 29.4022C19.0142 29.5651 19.0054 29.8354 18.8913 29.9722L18.8184 30.0595L18.7595 30.157L17.319 32.5402L13.6437 27.2461L14.1226 26.9336ZM40.7826 44.8768C40.7037 45.7414 39.8594 46.5 38.9763 46.5H3.55704C2.65352 46.5 1.78 45.7346 1.68787 44.8621C1.19749 40.2259 1.7733 36.2688 1.7791 36.2304L1.78874 36.1663L1.79273 36.1016C2.21041 29.5381 11.2162 27.9817 11.3047 27.967L11.3181 27.965L11.3316 27.9624C11.6299 27.9088 11.9081 27.8339 12.1755 27.7484L16.362 33.7791C16.5808 34.2548 16.9275 34.4996 17.2957 34.4996C17.5903 34.4996 17.8988 34.3429 18.1665 34.0219L18.9311 32.7571L19.4798 33.7339L17.9042 41.3981C17.7579 42.0751 18.053 42.8745 18.6063 43.2992L20.3859 44.6634C20.679 44.8883 21.0464 45.0006 21.4139 45.0006C21.7814 45.0006 22.1489 44.8881 22.4417 44.6634L24.2216 43.2988C24.7753 42.874 25.0619 42.0471 24.8903 41.3833L23.007 33.7496H23.032L23.5397 32.8165L24.2683 34.0219C24.5361 34.3429 24.8445 34.4996 25.1391 34.4996C25.5074 34.4996 25.854 34.2548 26.0728 33.7791L30.2766 27.7233C30.5678 27.8207 30.8737 27.9035 31.2018 27.9624L31.2152 27.9648L31.2286 27.967C31.3195 27.9817 40.3205 29.5069 40.7406 36.1016L40.742 36.1258L40.7444 36.1496C40.7486 36.1945 41.1681 40.6716 40.7826 44.8768Z" fill="#4080FE"/>
</svg>
