<svg width="48" height="48" viewBox="0 0 48 48" fill="none" xmlns="http://www.w3.org/2000/svg">
<path d="M26.0593 10.9182C26.0593 9.72004 25.2206 8.70163 24.0824 8.46201V5.94594C24.5018 6.18556 24.8013 6.60491 24.8013 7.08416C24.8013 7.4436 25.0409 7.68322 25.4004 7.68322C25.7598 7.68322 25.9994 7.4436 25.9994 7.08416C25.9994 5.88603 25.1607 4.92753 24.0824 4.6879V4.38837C24.0824 4.02893 23.8428 3.78931 23.4834 3.78931C23.1239 3.78931 22.8843 4.02893 22.8843 4.38837V4.6879C21.806 4.98744 20.9673 5.94594 20.9673 7.08416C20.9673 8.22238 21.806 9.24079 22.8843 9.48042V12.0564C22.5249 11.8168 22.2852 11.3974 22.2852 10.9182C22.2852 10.5587 22.0456 10.3191 21.6862 10.3191C21.3267 10.3191 21.0871 10.5587 21.0871 10.9182C21.0871 12.0564 21.8659 13.0149 22.8843 13.3144V13.6739C22.8843 14.0333 23.1239 14.2729 23.4834 14.2729C23.8428 14.2729 24.0824 14.0333 24.0824 13.6739V13.3743C25.2206 13.1347 26.0593 12.1163 26.0593 10.9182ZM22.2253 7.14406C22.2253 6.66481 22.5249 6.18556 22.9442 6.00584V8.28229C22.4649 8.04266 22.2253 7.62332 22.2253 7.14406ZM24.0824 12.1163V9.72004C24.5617 9.89976 24.8612 10.379 24.8612 10.9182C24.8612 11.4573 24.5617 11.9366 24.0824 12.1163Z" fill="#4080FE"/>
<path d="M46.4874 43.6268H45.3491V40.6315C45.3491 40.2721 45.1095 40.0324 44.7501 40.0324H42.4137V20.4431H44.7501C45.1095 20.4431 45.3491 20.2034 45.3491 19.844V15.7704C45.3491 15.4109 45.1095 15.1713 44.7501 15.1713H43.0128C43.0128 15.1713 43.0128 15.1713 42.9529 15.1114L23.9026 0.134789C23.663 -0.0449298 23.3635 -0.0449298 23.1838 0.134789L4.13354 15.1713C4.13354 15.1713 4.13354 15.1713 4.07363 15.2312H2.27644C1.917 15.2312 1.67738 15.4708 1.67738 15.8303V19.844C1.67738 20.2034 1.917 20.4431 2.27644 20.4431H4.61279V40.0324H2.33635C1.97691 40.0324 1.73729 40.2721 1.73729 40.6315V43.6268H0.599064C0.239626 43.6268 0 43.8665 0 44.2259V47.4009C0 47.7604 0.239626 48 0.599064 48H46.4874C46.8468 48 47.0864 47.7604 47.0864 47.4009V44.2259C47.0864 43.9264 46.7869 43.6268 46.4874 43.6268ZM41.2156 40.0324H37.5014V20.4431H41.2156V40.0324ZM20.3682 20.4431V40.0324H10.7832V20.4431H20.3682ZM21.5663 20.4431H25.3404V40.0324H21.6262V20.4431H21.5663ZM26.5385 20.4431H36.2434V40.0324H26.5385V20.4431ZM23.5432 1.33292L41.0958 15.1713H5.99064L23.5432 1.33292ZM2.87551 16.3694H44.0911V19.2449H2.87551V16.3694ZM5.81092 20.4431H9.52512V40.0324H5.81092V20.4431ZM2.93541 41.2306H44.151V43.6268H2.93541V41.2306ZM45.8883 46.8618H1.19813V44.8849H45.8883V46.8618Z" fill="#4080FE"/>
</svg>
