<svg width="161" height="135" viewBox="0 0 161 135" fill="none" xmlns="http://www.w3.org/2000/svg">
<path d="M88.5731 97.377C115.478 97.377 137.288 75.5785 137.288 48.6885C137.288 21.7986 115.478 0 88.5731 0C61.6684 0 39.8579 21.7986 39.8579 48.6885C39.8579 75.5785 61.6684 97.377 88.5731 97.377Z" fill="#E9EAEB"/>
<path d="M101.859 28.7705H35.4292C39.105 28.7705 42.0722 31.7361 42.0722 35.4099V123.934C42.0722 128.825 46.0358 132.787 50.9295 132.787H108.502V35.4099C108.502 31.7361 105.535 28.7705 101.859 28.7705Z" fill="white"/>
<path d="M75.2871 13.2788H8.85736C12.5331 13.2788 15.5003 16.2444 15.5003 19.9182V104.017C15.5003 108.908 19.464 112.869 24.3576 112.869H81.9301V19.9182C81.9301 16.2444 78.9629 13.2788 75.2871 13.2788Z" fill="white"/>
<path d="M22.1433 112.869H37.6436" stroke="#2A5082" stroke-width="2" stroke-miterlimit="10"/>
<path d="M35.4292 28.7705H101.859C105.535 28.7705 108.502 31.7361 108.502 35.4099V121.721" stroke="#2A5082" stroke-width="2" stroke-miterlimit="10"/>
<path d="M8.85736 13.2788H75.2871C78.9629 13.2788 81.9301 16.2444 81.9301 19.9182V24.3444" stroke="#2A5082" stroke-width="2" stroke-miterlimit="10"/>
<path d="M50.9295 132.787C46.0358 132.787 42.0722 128.826 42.0722 123.935V35.41C42.0722 31.7362 39.105 28.7706 35.4292 28.7706C31.7534 28.7706 28.7863 31.7362 28.7863 35.41V106.23C28.7863 109.903 25.8191 112.869 22.1433 112.869C18.4675 112.869 15.5003 109.903 15.5003 106.23V19.9182C15.5003 16.2444 12.5331 13.2788 8.85733 13.2788C5.18155 13.2788 2.21436 16.2444 2.21436 19.9182V26.5575H11.0717" stroke="#2A5082" stroke-width="2" stroke-miterlimit="10"/>
<path d="M59.7868 123.934V121.721H121.788V123.934C121.788 128.825 117.824 132.787 112.931 132.787H50.9295C55.8232 132.787 59.7868 128.825 59.7868 123.934Z" fill="#A3D4FF" stroke="#2A5082" stroke-width="2" stroke-miterlimit="10"/>
<path d="M139.731 23.9092L135.659 27.9813" stroke="#BCC0C4" stroke-width="2" stroke-miterlimit="10"/>
<path d="M149.912 13.729L145.84 17.8011" stroke="#BCC0C4" stroke-width="2" stroke-miterlimit="10"/>
<path d="M145.84 23.9092L149.912 27.9813" stroke="#BCC0C4" stroke-width="2" stroke-miterlimit="10"/>
<path d="M135.659 13.729L139.731 17.8011" stroke="#BCC0C4" stroke-width="2" stroke-miterlimit="10"/>
<path d="M119.371 32.0532V44.2695" stroke="#BCC0C4" stroke-width="2" stroke-miterlimit="10"/>
<path d="M113.263 38.1616H125.479" stroke="#BCC0C4" stroke-width="2" stroke-miterlimit="10"/>
<path d="M78.01 106C79.2306 105.651 100 93.587 100 82.5589C100 73.2743 100 69.8772 100 59.0982C94.3975 59.0982 81.4816 52.9217 78 49.2158C74.5184 52.9217 61.6025 59.0982 56 59.0982C56 69.8872 56 73.2743 56 82.5589C56 93.587 76.7694 105.651 77.99 106H78.01Z" fill="white"/>
<path d="M78 49.2158C74.5184 52.9217 61.6025 59.0982 56 59.0982V82.5589C56 93.587 76.7694 105.651 77.99 106H78.01C79.2306 105.651 100 93.587 100 82.5589V59.0982C94.3975 59.0982 81.4816 52.9217 78 49.2158ZM94.9977 81.4332C94.9977 89.9508 78.9504 99.2753 78.01 99.5443H77.99C77.0496 99.2753 61.0023 89.9508 61.0023 81.4332V63.3022C65.3242 63.3022 75.3088 58.5304 78 55.6713C80.6912 58.5304 90.6758 63.3022 94.9977 63.3022V81.4332Z" fill="#A3D4FF"/>
<path d="M78.01 106C79.2306 105.651 100 93.587 100 82.5589C100 73.2743 100 69.8772 100 59.0982C94.3975 59.0982 81.4816 52.9217 78 49.2158C74.5184 52.9217 61.6025 59.0982 56 59.0982C56 69.8872 56 73.2743 56 82.5589C56 93.587 76.7694 105.651 77.99 106H78.01Z" stroke="#2A5082" stroke-width="2" stroke-miterlimit="10" stroke-linecap="round" stroke-linejoin="round"/>
<path d="M90.4956 90.19C93.0567 87.4505 94.9976 84.3921 94.9976 81.4334C94.9976 74.2606 94.9976 71.6406 94.9976 63.3023C90.6756 63.3023 80.6911 58.5305 77.9999 55.6714C77.0294 56.7074 75.1086 57.9826 72.8475 59.198" stroke="#2A5082" stroke-width="2" stroke-miterlimit="10" stroke-linecap="round" stroke-linejoin="round"/>
<path d="M67.3552 61.728C64.9041 62.6744 62.573 63.302 61.0023 63.302C61.0023 71.6303 61.0023 74.2603 61.0023 81.433C61.0023 89.9506 77.0496 99.2751 77.99 99.5441H78.01C78.4202 99.4246 81.6417 97.6214 85.1833 94.9217" stroke="#2A5082" stroke-width="2" stroke-miterlimit="10" stroke-linecap="round" stroke-linejoin="round"/>
</svg>
