<svg width="179" height="121" viewBox="0 0 179 121" fill="none" xmlns="http://www.w3.org/2000/svg">
<path d="M116.573 97.377C143.478 97.377 165.288 75.5785 165.288 48.6885C165.288 21.7986 143.478 0 116.573 0C89.6684 0 67.8579 21.7986 67.8579 48.6885C67.8579 75.5785 89.6684 97.377 116.573 97.377Z" fill="#E9EAEB"/>
<path d="M167.731 23.9087L163.659 27.9808" stroke="#BCC0C4" stroke-width="2" stroke-miterlimit="10"/>
<path d="M177.912 13.7285L173.84 17.8006" stroke="#BCC0C4" stroke-width="2" stroke-miterlimit="10"/>
<path d="M173.84 23.9087L177.912 27.9808" stroke="#BCC0C4" stroke-width="2" stroke-miterlimit="10"/>
<path d="M163.659 13.7285L167.731 17.8006" stroke="#BCC0C4" stroke-width="2" stroke-miterlimit="10"/>
<path d="M147.371 32.0532V44.2695" stroke="#BCC0C4" stroke-width="2" stroke-miterlimit="10"/>
<path d="M141.263 38.1616H153.479" stroke="#BCC0C4" stroke-width="2" stroke-miterlimit="10"/>
<rect x="1" y="23" width="117" height="24.1786" fill="#A3D4FF" stroke="#2A5082" stroke-width="2"/>
<rect x="1" y="46.8213" width="117" height="72.6429" fill="white" stroke="#2A5082" stroke-width="2"/>
<path d="M29.9286 66.7144L46.3572 83.1988L30.8585 98.7501" stroke="#2A5082" stroke-width="3"/>
<path d="M59.0891 97.9287H89.482" stroke="#2A5082" stroke-width="2"/>
</svg>
