<svg width="170" height="120" viewBox="0 0 170 120" fill="none" xmlns="http://www.w3.org/2000/svg">
<path d="M98.1383 115.21C129.163 115.21 154.314 90.0725 154.314 59.0643C154.314 28.0561 129.163 2.91895 98.1383 2.91895C67.1131 2.91895 41.9623 28.0561 41.9623 59.0643C41.9623 90.0725 67.1131 115.21 98.1383 115.21Z" fill="#E9EAEB"/>
<rect x="13.7776" y="38.6665" width="104" height="65.7778" fill="white"/>
<path d="M118 26V38H14V26C14.0032 24.9401 14.4256 23.9245 15.1751 23.1751C15.9245 22.4256 16.9401 22.0032 18 22H114C115.06 22.0032 116.075 22.4256 116.825 23.1751C117.574 23.9245 117.997 24.9401 118 26Z" fill="#A2DFFF"/>
<path d="M82 78H90V86H82V78Z" fill="#A2DFFF"/>
<path d="M82 62H90V70H82V62Z" fill="#A2DFFF"/>
<path d="M82 46H90V54H82V46Z" fill="#A2DFFF"/>
<path d="M66 50H74V94H66V50Z" fill="#A2DFFF"/>
<path d="M50 62H58V94H50V62Z" fill="#A2DFFF"/>
<path d="M54 10L56 2H12L14 10H54Z" fill="#A2DFFF"/>
<path d="M34 70H42V94H34V70Z" fill="#A2DFFF"/>
<path d="M114 20H68V6C67.9953 4.41016 67.3616 2.8868 66.2374 1.7626C65.1132 0.638414 63.5898 0.00474818 62 0H6C4.41016 0.00474818 2.8868 0.638414 1.7626 1.7626C0.638414 2.8868 0.00474818 4.41016 0 6V114C0.00474818 115.59 0.638414 117.113 1.7626 118.237C2.8868 119.362 4.41016 119.995 6 120H62C63.5898 119.995 65.1132 119.362 66.2374 118.237C67.3616 117.113 67.9953 115.59 68 114V108H114C115.59 107.995 117.113 107.362 118.237 106.237C119.362 105.113 119.995 103.59 120 102V26C119.995 24.4102 119.362 22.8868 118.237 21.7626C117.113 20.6384 115.59 20.0047 114 20ZM53.44 4L52.44 8H15.56L14.56 4H53.44ZM64 114C64 114.53 63.7893 115.039 63.4142 115.414C63.0391 115.789 62.5304 116 62 116H6C5.46957 116 4.96086 115.789 4.58579 115.414C4.21071 115.039 4 114.53 4 114V6C4 5.46957 4.21071 4.96086 4.58579 4.58579C4.96086 4.21071 5.46957 4 6 4H10.44L12.06 10.48C12.1672 10.9136 12.4165 11.2988 12.7681 11.5743C13.1196 11.8498 13.5533 11.9997 14 12H54C54.4467 11.9997 54.8804 11.8498 55.2319 11.5743C55.5835 11.2988 55.8328 10.9136 55.94 10.48L57.56 4H62C62.5304 4 63.0391 4.21071 63.4142 4.58579C63.7893 4.96086 64 5.46957 64 6V20H18C16.4102 20.0047 14.8868 20.6384 13.7626 21.7626C12.6384 22.8868 12.0047 24.4102 12 26V102C12.0047 103.59 12.6384 105.113 13.7626 106.237C14.8868 107.362 16.4102 107.995 18 108H64V114ZM116 102C116 102.53 115.789 103.039 115.414 103.414C115.039 103.789 114.53 104 114 104H18C17.4696 104 16.9609 103.789 16.5858 103.414C16.2107 103.039 16 102.53 16 102V40H116V102ZM116 36H16V26C16 25.4696 16.2107 24.9609 16.5858 24.5858C16.9609 24.2107 17.4696 24 18 24H114C114.53 24 115.039 24.2107 115.414 24.5858C115.789 24.9609 116 25.4696 116 26V36Z" fill="#2A5082"/>
<path d="M20 28H24V32H20V28Z" fill="#2A5082"/>
<path d="M28 28H32V32H28V28Z" fill="#2A5082"/>
<path d="M36 28H40V32H36V28Z" fill="#2A5082"/>
<path d="M108 28H112V32H108V28Z" fill="#2A5082"/>
<path d="M76 92V50C76 49.4696 75.7893 48.9609 75.4142 48.5858C75.0391 48.2107 74.5304 48 74 48H66C65.4696 48 64.9609 48.2107 64.5858 48.5858C64.2107 48.9609 64 49.4696 64 50V92H60V62C60 61.4696 59.7893 60.9609 59.4142 60.5858C59.0391 60.2107 58.5304 60 58 60H50C49.4696 60 48.9609 60.2107 48.5858 60.5858C48.2107 60.9609 48 61.4696 48 62V92H44V70C44 69.4696 43.7893 68.9609 43.4142 68.5858C43.0391 68.2107 42.5304 68 42 68H34C33.4696 68 32.9609 68.2107 32.5858 68.5858C32.2107 68.9609 32 69.4696 32 70V92H28V44H24V94C24 94.5304 24.2107 95.0391 24.5858 95.4142C24.9609 95.7893 25.4696 96 26 96H108V92H76ZM40 92H36V72H40V92ZM56 92H52V64H56V92ZM72 92H68V52H72V92Z" fill="#2A5082"/>
<path d="M90 44H82C81.4696 44 80.9609 44.2107 80.5858 44.5858C80.2107 44.9609 80 45.4696 80 46V54C80 54.5304 80.2107 55.0391 80.5858 55.4142C80.9609 55.7893 81.4696 56 82 56H90C90.5304 56 91.0391 55.7893 91.4142 55.4142C91.7893 55.0391 92 54.5304 92 54V46C92 45.4696 91.7893 44.9609 91.4142 44.5858C91.0391 44.2107 90.5304 44 90 44ZM88 52H84V48H88V52Z" fill="#2A5082"/>
<path d="M90 60H82C81.4696 60 80.9609 60.2107 80.5858 60.5858C80.2107 60.9609 80 61.4696 80 62V70C80 70.5304 80.2107 71.0391 80.5858 71.4142C80.9609 71.7893 81.4696 72 82 72H90C90.5304 72 91.0391 71.7893 91.4142 71.4142C91.7893 71.0391 92 70.5304 92 70V62C92 61.4696 91.7893 60.9609 91.4142 60.5858C91.0391 60.2107 90.5304 60 90 60ZM88 68H84V64H88V68Z" fill="#2A5082"/>
<path d="M90 76H82C81.4696 76 80.9609 76.2107 80.5858 76.5858C80.2107 76.9609 80 77.4696 80 78V86C80 86.5304 80.2107 87.0391 80.5858 87.4142C80.9609 87.7893 81.4696 88 82 88H90C90.5304 88 91.0391 87.7893 91.4142 87.4142C91.7893 87.0391 92 86.5304 92 86V78C92 77.4696 91.7893 76.9609 91.4142 76.5858C91.0391 76.2107 90.5304 76 90 76ZM88 84H84V80H88V84Z" fill="#2A5082"/>
<path d="M96 44H100V48H96V44Z" fill="#2A5082"/>
<path d="M104 44H108V48H104V44Z" fill="#2A5082"/>
<path d="M96 52H108V56H96V52Z" fill="#2A5082"/>
<path d="M96 60H108V64H96V60Z" fill="#2A5082"/>
<path d="M96 68H108V72H96V68Z" fill="#2A5082"/>
<path d="M96 76H108V80H96V76Z" fill="#2A5082"/>
<path d="M96 84H100V88H96V84Z" fill="#2A5082"/>
<path d="M104 84H108V88H104V84Z" fill="#2A5082"/>
<path d="M157.131 30.4902L152.436 35.186" stroke="#BCC0C4" stroke-width="2" stroke-miterlimit="10"/>
<path d="M168.871 18.7505L164.175 23.4462" stroke="#BCC0C4" stroke-width="2" stroke-miterlimit="10"/>
<path d="M164.175 30.4902L168.871 35.186" stroke="#BCC0C4" stroke-width="2" stroke-miterlimit="10"/>
<path d="M152.436 18.7505L157.132 23.4462" stroke="#BCC0C4" stroke-width="2" stroke-miterlimit="10"/>
<path d="M133.652 39.8813V53.9686" stroke="#BCC0C4" stroke-width="2" stroke-miterlimit="10"/>
<path d="M126.609 46.9253H140.696" stroke="#BCC0C4" stroke-width="2" stroke-miterlimit="10"/>
</svg>
