<svg width="95" height="100" viewBox="0 0 95 100" fill="none" xmlns="http://www.w3.org/2000/svg">
<mask id="mask0" mask-type="alpha" maskUnits="userSpaceOnUse" x="0" y="0" width="95" height="100">
<rect x="0.5" y="0.5" width="93.5008" height="98.0441" fill="#C4C4C4" stroke="#F5AC4C"/>
</mask>
<g mask="url(#mask0)">
<path d="M84.1704 0L328.499 244.329" stroke="#F5AC4C"/>
<path d="M74.8186 0L319.148 244.329" stroke="#F5AC4C"/>
<path d="M65.4663 0L309.795 244.329" stroke="#F5AC4C"/>
<path d="M56.1138 0L300.443 244.329" stroke="#F5AC4C"/>
<path d="M46.7615 0L291.09 244.329" stroke="#F5AC4C"/>
<path d="M37.4092 0L281.738 244.329" stroke="#F5AC4C"/>
<path d="M28.0566 0L272.386 244.329" stroke="#F5AC4C"/>
<path d="M18.7047 0L263.034 244.329" stroke="#F5AC4C"/>
<path d="M9.35242 0L253.681 244.329" stroke="#F5AC4C"/>
<path d="M0 0L244.329 244.329" stroke="#F5AC4C"/>
<path d="M-9.35242 0L234.977 244.329" stroke="#F5AC4C"/>
<path d="M-18.7047 0L225.624 244.329" stroke="#F5AC4C"/>
<path d="M-28.0566 0L216.272 244.329" stroke="#F5AC4C"/>
<path d="M-37.4091 0L206.92 244.329" stroke="#F5AC4C"/>
<path d="M-46.7615 0L197.567 244.329" stroke="#F5AC4C"/>
<path d="M-56.1139 0L188.215 244.329" stroke="#F5AC4C"/>
<path d="M-65.4662 0L178.863 244.329" stroke="#F5AC4C"/>
<path d="M-74.8186 0L169.51 244.329" stroke="#F5AC4C"/>
<path d="M-84.1705 0L160.158 244.329" stroke="#F5AC4C"/>
<path d="M-93.5229 0L150.806 244.329" stroke="#F5AC4C"/>
<path d="M-102.875 0L141.454 244.329" stroke="#F5AC4C"/>
<path d="M-112.228 0L132.101 244.329" stroke="#F5AC4C"/>
<path d="M-121.58 0L122.749 244.329" stroke="#F5AC4C"/>
<path d="M-130.932 0L113.397 244.329" stroke="#F5AC4C"/>
<path d="M-140.284 0L104.045 244.329" stroke="#F5AC4C"/>
<path d="M-149.637 0L94.6922 244.329" stroke="#F5AC4C"/>
<path d="M-158.989 0L85.3398 244.329" stroke="#F5AC4C"/>
<path d="M-168.342 0L75.9874 244.329" stroke="#F5AC4C"/>
<path d="M-177.694 0L66.6351 244.329" stroke="#F5AC4C"/>
<path d="M-187.046 0L57.2827 244.329" stroke="#F5AC4C"/>
<path d="M-196.398 0L47.9308 244.329" stroke="#F5AC4C"/>
</g>
</svg>
