<svg width="525" height="511" viewBox="0 0 525 511" fill="none" xmlns="http://www.w3.org/2000/svg">
<path opacity="0.25" d="M106.308 477.854L56.8873 449.317C-27.3775 400.666 -16.81 315.689 80.4921 259.507C92.0232 252.851 104.259 246.891 117.013 241.652C211.813 202.653 521.356 336.176 513.954 372.673C507.387 405.047 480.819 437.819 435.075 464.225C337.765 520.407 190.572 526.505 106.308 477.854Z" fill="#CCE1FF"/>
<path d="M378.569 226.898C378.569 226.898 352.907 175.364 377.492 147.856C402.068 120.348 363.143 74.6123 405.801 46.3189C448.46 18.0255 443.82 0 443.82 0C443.82 0 470.259 65.9559 448.063 97.4964C425.868 129.037 424.693 186.928 414.733 201.706C404.773 216.484 393.752 249.741 393.752 249.741L378.569 226.898Z" fill="#008CE3"/>
<path d="M391.047 199.042C391.047 199.042 397.906 148.366 416.037 102.201C426.418 75.7783 447.383 26.1151 445.156 9.15845" stroke="#B4C4F0" stroke-width="3.5849" stroke-miterlimit="10" stroke-linecap="round" stroke-linejoin="round"/>
<path d="M378.974 260.682C378.974 260.682 403.907 166.117 451.06 138.35C498.221 110.582 525 133.24 525 133.24C525 133.24 501.873 136.73 484.989 159.954C468.106 183.178 451.578 195.957 439.974 203.577C428.37 211.197 412.895 252.803 412.895 252.803L378.974 260.682Z" fill="#36ADF7"/>
<path d="M411.422 209.844C411.422 209.844 443.715 159.331 462.332 152.439C480.957 145.548 498.747 130.632 514.603 131.96" stroke="#B6CFF0" stroke-width="3.5849" stroke-miterlimit="10" stroke-linecap="round" stroke-linejoin="round"/>
<path d="M255.621 272.107L110.866 188.538L254.714 105.488L400.894 188.887L255.621 272.107Z" fill="#EDF7FF"/>
<path d="M255.622 272.107L255.808 384.228L400.894 301.113V188.887L255.622 272.107Z" fill="url(#paint0_linear)"/>
<path d="M111.078 188.53V300.611L255.832 384.187V272.107L111.078 188.53Z" fill="#CCE9FF"/>
<path d="M62.6276 377.614C62.6597 371.693 54.3726 366.848 44.1177 366.792C33.8629 366.737 25.5236 371.492 25.4915 377.413C25.4594 383.334 33.7466 388.179 44.0015 388.235C54.2563 388.291 62.5955 383.536 62.6276 377.614Z" fill="#DBEFFF"/>
<path d="M55.6002 378.649L48.1665 376.13L45.9315 377.92C44.7573 379.45 44.2552 380.333 44.8464 381.847C45.3403 383.118 47.551 383.645 48.7981 383.758L54.5636 383.677C58.742 383.774 59.2603 382.349 59.5356 381.078C59.7138 379.596 58.0943 379.021 55.6002 378.649Z" fill="#1737A2"/>
<path d="M38.951 368.317L31.2582 369.888L30.2216 372.56C29.9706 374.471 29.9868 375.491 31.2582 376.503C32.3271 377.354 34.5053 376.698 35.639 376.163L40.5786 373.191C44.2388 371.175 43.9635 369.677 43.5667 368.446C42.9837 367.062 41.2912 367.377 38.951 368.317Z" fill="#1737A2"/>
<path opacity="0.46" d="M47.64 267.144L47.5509 267.946C47.5509 267.946 47.2918 270.375 45.1054 268.772C42.919 267.169 43.4373 264.164 43.4373 264.164C43.4373 264.164 45.2755 264.229 47.64 267.144Z" fill="white"/>
<path d="M45.0728 268.845C47.9313 270.918 48.2471 268.084 48.2471 268.084L48.2714 268.1L48.32 267.128C45.3076 263.638 43.0889 263.452 43.0889 263.452C43.0889 263.452 42.2143 266.772 45.0728 268.845ZM43.5423 264.302C43.5423 264.302 45.3158 264.472 47.6236 267.177L47.5426 267.873C47.5426 267.873 47.3078 269.979 45.1862 268.432C43.0565 266.885 43.5423 264.302 43.5423 264.302Z" fill="#513554"/>
<path d="M49.3246 268.796L47.6078 267.678L47.6645 266.625L49.3812 267.743L49.3246 268.796Z" fill="#513554"/>
<path d="M43.1213 264.277L42.8136 264.083C42.6516 263.977 42.522 263.702 42.5382 263.475C42.5463 263.248 42.6921 263.151 42.8622 263.257L43.1699 263.451C43.3318 263.556 43.4614 263.831 43.4452 264.058C43.429 264.285 43.2832 264.382 43.1213 264.277Z" fill="#513554"/>
<path d="M54.2232 271.5L53.9155 271.306C53.7535 271.201 53.624 270.925 53.6402 270.699C53.6483 270.472 53.794 270.375 53.964 270.48L54.2718 270.674C54.4337 270.78 54.5633 271.055 54.5471 271.282C54.5309 271.508 54.3851 271.606 54.2232 271.5Z" fill="#513554"/>
<path d="M54.086 270.601C54.086 270.601 51.9968 267.985 48.8224 267.451L48.7739 268.423L48.7981 268.439C48.7981 268.439 48.7981 271.475 51.6809 273.136C54.5637 274.796 54.086 270.601 54.086 270.601ZM51.6243 272.617C49.4784 271.386 49.4784 269.127 49.4784 269.127L49.4703 268.374C51.8996 268.747 53.5758 270.828 53.5758 270.828C53.5758 270.828 53.7702 273.856 51.6243 272.617Z" fill="#1737A2"/>
<path d="M49.8266 269.726C49.7618 269.621 49.7537 269.499 49.8104 269.459L50.4501 268.932C50.5068 268.884 50.604 268.932 50.6607 269.038C50.7254 269.143 50.7335 269.264 50.6768 269.305L50.0371 269.831C49.9804 269.872 49.8914 269.831 49.8266 269.726Z" fill="#2C4482"/>
<path d="M43.7044 265.605C43.6397 265.499 43.6315 265.378 43.6882 265.337L44.328 264.811C44.3847 264.763 44.4818 264.811 44.5385 264.916C44.6033 265.022 44.6114 265.143 44.5547 265.184L43.915 265.71C43.8664 265.75 43.7692 265.71 43.7044 265.605Z" fill="#FCFEFF"/>
<path d="M38.6679 280.675L40.4088 272.909L45.146 276.1L43.7208 283.169C43.5832 284.311 38.3278 283.315 38.6679 280.675Z" fill="#FFC2B0"/>
<path d="M43.1298 261.306C43.1298 261.306 38.9271 257.338 37.6881 265.274C36.8298 270.796 39.4696 276.092 43.6804 278.927C46.3041 280.692 50.0128 279.485 50.5797 276.756C51.851 272.845 52.426 269.088 51.5919 265.662C52.2721 262.375 49.8185 263.209 45.8992 262.407L43.1298 261.306Z" fill="#FFC2B0"/>
<path d="M38.1409 276.327C38.1409 276.327 33.015 273.5 34.6751 265.937C36.4728 257.75 43.9632 259.605 48.2549 259.832C50.1498 259.929 51.494 259.856 53.1541 261.856C54.6683 263.67 52.5143 266.917 49.9798 266.771C48.9756 266.715 49.0323 269.452 48.6922 270.334C48.093 271.913 46.9593 272.553 46.3439 274.075C45.769 275.517 43.2101 277.525 41.7525 277.476C39.1612 277.387 38.1409 276.327 38.1409 276.327Z" fill="#1737A2"/>
<path d="M54.0613 271.727L46.9515 271.354C46.7005 271.338 46.5061 271.119 46.5142 270.868C46.5304 270.617 46.7491 270.423 47.0001 270.431L54.1099 270.803C54.3609 270.82 54.5553 271.038 54.5472 271.289C54.531 271.548 54.3123 271.743 54.0613 271.727Z" fill="#1737A2"/>
<path d="M47.8505 272.659C47.7695 273.987 46.9274 275.008 45.9799 274.951C45.8747 274.943 45.7775 274.927 45.6803 274.894C44.8867 274.643 44.3442 273.623 44.4171 272.449C44.4981 271.121 45.3402 270.1 46.2876 270.157C47.2351 270.214 47.9396 271.339 47.8505 272.659Z" fill="#FFC2B0"/>
<path d="M64.58 299.502C63.5354 299.146 62.9766 297.996 63.341 296.96L64.8796 292.49C65.2359 291.445 66.3857 290.887 67.4222 291.251C68.4668 291.607 69.0256 292.757 68.6612 293.794L67.1226 298.264C66.7663 299.3 65.6165 299.859 64.58 299.502Z" fill="#EDB2A1"/>
<path d="M32.2624 291.42C34.3921 295.664 37.9146 299.291 42.4413 300.903C48.7089 303.13 55.1952 300.409 60.2157 296.627C62.4669 294.935 60.2562 291.08 57.9808 292.805C53.9157 295.866 48.7737 298.563 43.6235 296.635C40.182 295.348 37.696 292.392 36.0926 289.193C34.8051 286.635 30.983 288.878 32.2624 291.42Z" fill="#EDB2A1"/>
<path d="M42.4898 330.25C45.4373 338.906 45.7127 348.202 45.4292 357.256C45.2187 363.993 44.166 370.787 44.328 377.524C44.4332 381.945 51.3244 381.962 51.211 377.524C51.041 370.584 52.1423 363.596 52.3285 356.656C52.5876 347.231 52.1827 337.424 49.1218 328.42C47.7047 324.249 41.0565 326.039 42.4898 330.25Z" fill="#3856A6"/>
<path d="M28.6348 322.491C30.1895 328.143 30.8859 333.966 31.4528 339.788C31.7848 343.189 32.1735 346.42 31.8172 349.805C31.0965 356.647 29.8251 363.611 29.8737 370.503C29.898 374.932 36.7892 374.94 36.7568 370.503C36.7163 363.498 38.02 356.421 38.7407 349.473C39.1051 345.975 38.6192 342.565 38.2791 339.067C37.6637 332.889 36.9349 326.662 35.2911 320.661C34.1007 316.394 27.4606 318.208 28.6348 322.491Z" fill="#3856A6"/>
<path d="M34.2787 331.593C34.9185 332.306 32.1815 328.84 32.9993 329.334C34.6999 330.362 44.2632 336.857 46.2553 336.889C48.6603 336.93 47.2594 334.606 49.0489 333.002C50.7495 331.48 51.1463 329.002 51.3082 326.735C51.3568 326.103 51.3892 325.447 51.1382 324.872C50.8709 324.249 50.3041 323.803 49.7616 323.39C45.5184 320.175 37.1616 312.224 31.2259 314.766C24.3672 317.706 31.234 328.184 34.2787 331.593Z" fill="#3856A6"/>
<path d="M29.2904 280.715C28.0352 282.334 28.1809 283.338 28.2457 285.549C28.3024 287.711 29.7681 289.59 31.8573 290.173L53.1462 296.141C53.1462 296.141 54.3689 287.954 50.1743 285.484C47.9151 284.156 44.4007 282.035 41.6475 280.35C37.5905 277.897 32.1974 276.974 29.2904 280.715Z" fill="#18BDF7"/>
<path d="M28.1733 319.196C26.821 318.67 27.1449 295.381 28.3596 282.513L52.3207 293.915C52.1993 304.863 50.8146 313.503 52.1264 326.848L28.1733 319.196Z" fill="#18BDF7"/>
<path d="M44.1335 329.237C38.2141 327.075 32.578 324.71 29.258 320.653C27.6303 319.714 27.8328 318.054 29.7196 316.969C31.5982 315.884 34.4648 315.762 36.0924 316.702L50.9679 325.285C52.5956 326.225 52.3932 327.885 50.5064 328.97C48.6277 330.055 45.7612 330.176 44.1335 329.237Z" fill="#18BDF7"/>
<path d="M52.3205 293.915L48.3688 292.037C48.2069 302.709 46.895 311.285 48.1907 324.387L48.1259 324.363C48.1502 325.108 47.6238 325.893 46.5711 326.5C44.6924 327.586 41.8259 327.707 40.1982 326.768C37.3559 325.731 34.5784 324.646 32.0924 323.35C35.3639 325.853 39.6638 327.602 44.1337 329.229C45.7614 330.169 48.628 330.047 50.5066 328.962C51.5593 328.355 52.0857 327.561 52.0614 326.824L52.1262 326.849C50.8144 313.512 52.1991 304.871 52.3205 293.915Z" fill="#18BDF7"/>
<path d="M47.4699 283.331C41.9715 282.505 38.2628 285.963 36.9509 278.044C37.7526 277.55 38.7892 277.784 39.3236 278.562C40.2629 279.922 42.2711 280.789 44.4899 280.513C45.1539 280.432 45.8017 280.74 46.1661 281.299L47.4699 283.331Z" fill="white"/>
<path d="M47.3074 291.016C47.5666 294.571 47.5585 298.296 48.7893 301.681C49.9392 304.839 51.4049 308.888 54.0204 311.147C60.944 317.115 65.754 303.907 67.1792 299.446C68.0457 296.725 63.7701 295.559 62.9036 298.271C61.9481 301.276 60.8792 305.057 58.5713 307.365C57.47 308.466 57.13 308.321 56.1501 306.92C52.741 302.053 52.1579 296.733 51.7369 291.024C51.5263 288.19 47.0969 288.165 47.3074 291.016Z" fill="#EDB2A1"/>
<path d="M46.0767 290.943C47.4209 302.272 50.992 309.479 55.9397 313.147C58.5391 314.589 60.9765 310.483 59.9805 307.997C55.049 303.616 53.3242 296.782 52.8545 288.984C52.2067 287.397 50.3766 286.546 48.6194 287C46.7812 287.478 45.6637 289.219 46.0767 290.943Z" fill="#18BDF7"/>
<path d="M59.875 306.441C60.288 308.182 60.8224 312.045 57.9072 313.446C57.47 313.656 56.9679 313.648 56.5307 313.454L55.6399 313.057C54.741 312.652 54.3847 311.567 54.8787 310.709C55.5103 309.608 56.2715 308.061 56.6116 306.506C56.8303 305.51 57.8587 304.919 58.8223 305.275L58.8385 305.283C59.3487 305.462 59.7454 305.899 59.875 306.441Z" fill="white"/>
<path d="M64.5244 299.291L59.7224 295.712C59.439 295.501 59.3499 295.04 59.5281 294.675L64.2328 285.128C64.411 284.764 64.7916 284.634 65.075 284.845L69.8526 288.327C70.1361 288.537 70.2252 288.999 70.047 289.363L65.3665 298.862C65.2451 299.105 65.1236 299.129 64.8807 299.194L64.5244 299.291Z" fill="#18BDF7"/>
<path d="M65.0749 289.639C65.0749 289.639 59.3498 295.04 59.5279 294.676L64.2408 284.797L64.6943 284.748C64.8238 284.724 64.9615 284.756 65.083 284.837L69.8606 288.319C69.9983 288.424 70.0955 288.586 70.1279 288.765L65.0749 289.639Z" fill="#18BDF7"/>
<path d="M64.0303 299.234L59.2688 295.752C58.9854 295.542 58.9125 295.08 59.0907 294.716L63.7954 285.169C63.9736 284.804 64.3461 284.675 64.6295 284.885L69.3829 288.367C69.6663 288.578 69.7392 289.039 69.561 289.404L64.8562 298.951C64.6781 299.307 64.3218 299.437 64.0303 299.234Z" fill="#1737A2"/>
<path d="M69.3827 290.158L69.1154 290.701C69.0993 290.741 69.1154 290.757 69.164 290.749L69.1559 290.741C69.2045 290.733 69.2369 290.684 69.2531 290.652L69.5203 290.109C69.5365 290.069 69.5365 290.053 69.488 290.061V290.069C69.4394 290.077 69.3989 290.118 69.3827 290.158Z" fill="#45446C"/>
<path d="M68.9134 291.113L68.6462 291.655C68.63 291.696 68.6462 291.712 68.6948 291.704L68.6867 291.696C68.7353 291.688 68.7677 291.639 68.7839 291.607L69.0511 291.064C69.0673 291.024 69.0673 291.008 69.0187 291.016V291.024C68.9701 291.032 68.9296 291.072 68.9134 291.113Z" fill="#45446C"/>
<path d="M64.7833 297.656L60.0947 294.239L64.2165 285.817L68.8727 289.218L64.7104 297.421C64.678 297.486 64.84 297.705 64.7833 297.656Z" fill="#DBEDFF"/>
<path d="M67.569 287.801L66.0953 286.724C66.0467 286.684 66.0305 286.603 66.0629 286.538C66.0953 286.473 66.1681 286.449 66.2167 286.49L67.6905 287.567C67.7391 287.607 67.7553 287.688 67.7229 287.753C67.6905 287.809 67.6176 287.834 67.569 287.801Z" fill="#8787CC"/>
<path d="M66.4274 297.891L67.0023 296.7C66.5408 296.684 66.0063 298.571 66.0144 298.19L66.0306 292.87C66.0387 292.49 66.4274 292.19 66.8889 292.198C67.3505 292.214 67.7149 292.53 67.7068 292.911L67.6339 295.534C67.6177 295.923 66.8889 297.907 66.4274 297.891Z" fill="#EDB2A1"/>
<path d="M191.261 439.26L99.3193 386.171L190.694 333.423L283.542 386.398L191.261 439.26Z" fill="#EDF7FF"/>
<path d="M191.261 439.26L191.35 490.907L283.542 438.094V386.398L191.261 439.26Z" fill="url(#paint1_linear)"/>
<path d="M99.4487 386.172V437.851L191.398 490.932V439.252L99.4487 386.172Z" fill="#CCE9FF"/>
<path opacity="0.4" d="M339.336 216.257L256.44 169.33C255.484 168.788 255.581 167.824 256.666 167.193L295.551 144.527C296.637 143.896 298.305 143.823 299.268 144.365L382.165 191.291C383.12 191.834 383.023 192.798 381.938 193.429L343.053 216.095C341.968 216.726 340.299 216.799 339.336 216.257Z" fill="#A8C4E5"/>
<path d="M346.421 125.635C348.154 126.631 349.514 128.818 349.474 130.51L347.417 207.414C347.376 209.115 345.935 209.673 344.202 208.669L216.663 134.996C214.93 134 213.57 131.814 213.61 130.121L215.667 53.2175C215.716 51.525 217.149 50.9582 218.882 51.9623L346.421 125.635Z" fill="#E5F2FF"/>
<path d="M352.705 109.367C352.705 109.359 352.705 109.351 352.705 109.351C352.705 109.343 352.705 109.326 352.705 109.318C352.705 109.27 352.697 109.229 352.697 109.181C352.697 109.148 352.689 109.108 352.681 109.075C352.681 109.067 352.681 109.067 352.681 109.059V109.051C352.672 109.011 352.664 108.962 352.664 108.922C352.656 108.881 352.648 108.832 352.64 108.792C352.64 108.784 352.64 108.776 352.64 108.776C352.64 108.768 352.64 108.76 352.64 108.76C352.632 108.727 352.624 108.695 352.624 108.671C352.616 108.63 352.6 108.581 352.591 108.541C352.583 108.517 352.583 108.5 352.575 108.476C352.575 108.468 352.567 108.46 352.567 108.452C352.567 108.436 352.559 108.428 352.559 108.411C352.543 108.371 352.535 108.322 352.519 108.282C352.502 108.241 352.494 108.201 352.478 108.16C352.478 108.16 352.478 108.16 352.478 108.152C352.462 108.112 352.446 108.063 352.43 108.023C352.413 107.982 352.397 107.934 352.381 107.893C352.373 107.885 352.373 107.869 352.365 107.861C352.365 107.853 352.357 107.845 352.357 107.836C352.349 107.812 352.34 107.788 352.324 107.764C352.308 107.723 352.284 107.683 352.268 107.642C352.251 107.61 352.235 107.577 352.219 107.545C352.219 107.537 352.211 107.537 352.211 107.529C352.211 107.521 352.203 107.521 352.203 107.513C352.187 107.472 352.162 107.432 352.146 107.391C352.13 107.351 352.106 107.318 352.089 107.278C352.081 107.262 352.073 107.245 352.065 107.229C352.065 107.221 352.057 107.213 352.057 107.205C352.049 107.189 352.041 107.172 352.033 107.156C352.008 107.116 351.984 107.075 351.968 107.043C351.944 107.002 351.919 106.962 351.895 106.93L351.887 106.921C351.887 106.913 351.879 106.913 351.879 106.905C351.855 106.865 351.83 106.824 351.798 106.784C351.774 106.743 351.749 106.711 351.725 106.67C351.709 106.646 351.693 106.622 351.676 106.598C351.668 106.589 351.66 106.573 351.652 106.565C351.612 106.508 351.563 106.444 351.523 106.387C351.506 106.371 351.49 106.346 351.482 106.33L351.474 106.322C351.417 106.249 351.352 106.176 351.296 106.104C351.288 106.095 351.28 106.079 351.272 106.071C351.263 106.063 351.255 106.055 351.247 106.047C351.223 106.023 351.207 105.998 351.182 105.974C351.15 105.934 351.11 105.893 351.069 105.853C351.053 105.836 351.045 105.82 351.029 105.804C351.021 105.796 351.012 105.788 351.004 105.78C350.988 105.763 350.98 105.747 350.964 105.739C350.931 105.699 350.891 105.666 350.859 105.626C350.834 105.601 350.802 105.569 350.778 105.545C350.77 105.537 350.769 105.537 350.761 105.529C350.753 105.521 350.753 105.521 350.745 105.512C350.705 105.472 350.664 105.44 350.624 105.407C350.583 105.367 350.543 105.334 350.502 105.302C350.462 105.269 350.421 105.237 350.381 105.205C350.34 105.172 350.292 105.14 350.251 105.108C350.243 105.099 350.243 105.099 350.235 105.099C350.227 105.091 350.219 105.091 350.219 105.083C350.186 105.059 350.154 105.035 350.122 105.01C350.081 104.978 350.033 104.954 349.992 104.921C349.984 104.913 349.968 104.905 349.952 104.897C349.944 104.897 349.944 104.889 349.944 104.889C349.919 104.873 349.895 104.856 349.863 104.84C349.822 104.816 349.773 104.784 349.733 104.759C349.725 104.751 346.656 102.978 346.648 102.978L346.632 102.986L222.631 31.3617C222.631 31.3617 222.623 31.3617 222.623 31.3536L222.437 31.2483C222.291 31.1673 222.121 31.0702 222.105 31.054C222.064 31.0297 222.016 31.0054 221.975 30.9892C221.935 30.9649 221.886 30.9487 221.846 30.9244C221.805 30.9082 221.757 30.8839 221.716 30.8677C221.668 30.8515 221.627 30.8272 221.579 30.811C221.53 30.7949 221.49 30.7787 221.449 30.7625C221.4 30.7463 221.352 30.7301 221.311 30.722H221.303C221.295 30.722 221.295 30.722 221.287 30.722C221.247 30.7139 221.206 30.6977 221.166 30.6896C221.141 30.6815 221.125 30.6815 221.109 30.6734C221.093 30.6734 221.077 30.6653 221.06 30.6653C221.044 30.6653 221.036 30.6572 221.02 30.6572C220.971 30.6491 220.923 30.641 220.874 30.6329C220.866 30.6329 220.866 30.6329 220.858 30.6329C220.801 30.6248 220.745 30.6248 220.688 30.6167C220.68 30.6167 220.672 30.6167 220.672 30.6167C220.647 30.6167 220.623 30.6167 220.599 30.6167C220.566 30.6167 220.542 30.6167 220.51 30.6167C220.502 30.6167 220.494 30.6167 220.485 30.6167C220.445 30.6167 220.404 30.6248 220.364 30.6248C220.34 30.6248 220.323 30.6248 220.299 30.6329C220.291 30.6329 220.291 30.6329 220.283 30.6329C220.202 30.6491 220.129 30.6653 220.056 30.6896C220.048 30.6896 220.048 30.6896 220.04 30.6896C220.032 30.6896 220.024 30.6977 220.016 30.6977C219.927 30.7301 219.838 30.7706 219.749 30.8191L216.574 32.6735C216.655 32.6249 216.744 32.5925 216.833 32.5602C216.866 32.5521 216.906 32.5359 216.939 32.5278C216.979 32.5197 217.028 32.5035 217.068 32.4954C217.125 32.4873 217.173 32.4792 217.23 32.4711C217.254 32.4711 217.271 32.463 217.295 32.463C217.376 32.4549 217.449 32.4549 217.538 32.463C217.554 32.463 217.57 32.463 217.586 32.463C217.667 32.4711 217.756 32.4792 217.846 32.4954C217.854 32.4954 217.862 32.4954 217.862 32.4954C217.951 32.5116 218.048 32.5359 218.145 32.5602C218.153 32.5602 218.161 32.5683 218.169 32.5683C218.267 32.5925 218.356 32.633 218.453 32.6654C218.461 32.6654 218.469 32.6735 218.485 32.6735C218.591 32.714 218.688 32.7626 218.793 32.8112C218.833 32.8355 218.882 32.8517 218.923 32.876C218.955 32.8922 218.987 32.9164 219.02 32.9326L219.716 33.3375L343.522 104.848L343.409 104.921C343.409 104.921 346.64 106.638 346.68 106.662C346.721 106.687 346.769 106.719 346.81 106.743C346.85 106.776 346.899 106.8 346.939 106.832C346.98 106.865 347.028 106.897 347.069 106.93C347.085 106.946 347.101 106.954 347.126 106.97C347.19 107.027 347.263 107.075 347.328 107.132C347.393 107.189 347.466 107.245 347.53 107.31C347.539 107.318 347.547 107.326 347.555 107.334C347.619 107.391 347.676 107.456 347.741 107.513C347.749 107.521 347.757 107.529 347.765 107.537C347.822 107.594 347.879 107.658 347.935 107.723C347.943 107.731 347.96 107.747 347.968 107.755C348.024 107.82 348.081 107.877 348.13 107.942C348.154 107.974 348.186 108.007 348.211 108.039C348.243 108.079 348.275 108.12 348.308 108.16C348.348 108.209 348.381 108.258 348.413 108.306C348.437 108.339 348.462 108.371 348.486 108.403C348.502 108.428 348.526 108.46 348.543 108.492C348.575 108.541 348.616 108.59 348.648 108.646C348.656 108.662 348.664 108.671 348.672 108.687C348.721 108.76 348.761 108.824 348.802 108.897C348.802 108.905 348.81 108.905 348.81 108.913C348.85 108.986 348.899 109.067 348.939 109.14C348.947 109.148 348.948 109.156 348.956 109.164C348.996 109.237 349.037 109.31 349.069 109.391C349.077 109.399 349.077 109.407 349.085 109.424C349.118 109.496 349.15 109.569 349.182 109.642C349.19 109.65 349.19 109.667 349.199 109.675C349.231 109.748 349.255 109.82 349.288 109.893C349.296 109.901 349.296 109.918 349.304 109.926C349.328 109.999 349.352 110.071 349.377 110.144C349.377 110.152 349.385 110.169 349.385 110.177C349.409 110.25 349.425 110.322 349.45 110.403C349.45 110.412 349.458 110.42 349.458 110.436C349.474 110.509 349.49 110.582 349.506 110.663C349.514 110.703 349.522 110.735 349.522 110.776C349.531 110.816 349.539 110.865 349.539 110.906C349.547 110.954 349.547 110.995 349.555 111.043C349.563 111.092 349.563 111.132 349.563 111.181C349.563 111.229 349.571 111.278 349.571 111.327C349.571 111.367 349.571 111.399 349.571 111.44C349.571 111.44 349.571 111.513 349.563 111.642L349.239 123.789C349.134 123.724 348.567 123.4 348.559 123.4L345.255 125.182C345.255 125.182 346.17 125.716 346.219 125.741C346.259 125.765 346.308 125.797 346.348 125.821C346.389 125.854 346.437 125.878 346.478 125.911C346.518 125.943 346.567 125.975 346.607 126.008C346.623 126.024 346.64 126.032 346.664 126.048C346.729 126.105 346.802 126.153 346.866 126.21C346.931 126.267 347.004 126.324 347.069 126.388C347.077 126.396 347.085 126.405 347.093 126.413C347.158 126.469 347.215 126.534 347.279 126.591C347.287 126.599 347.296 126.607 347.304 126.615C347.36 126.672 347.417 126.737 347.474 126.801C347.482 126.809 347.498 126.826 347.506 126.834C347.563 126.898 347.619 126.955 347.668 127.02C347.692 127.052 347.725 127.085 347.749 127.117C347.781 127.158 347.814 127.198 347.846 127.239C347.887 127.287 347.919 127.336 347.951 127.384C347.976 127.417 348 127.449 348.024 127.482C348.041 127.506 348.065 127.538 348.081 127.571C348.113 127.619 348.154 127.668 348.186 127.724C348.194 127.741 348.202 127.749 348.211 127.765C348.259 127.838 348.3 127.903 348.34 127.975C348.34 127.984 348.348 127.984 348.348 127.992C348.389 128.065 348.437 128.146 348.478 128.218C348.486 128.227 348.486 128.235 348.494 128.243C348.535 128.316 348.575 128.388 348.607 128.469C348.616 128.478 348.615 128.486 348.624 128.502C348.656 128.575 348.688 128.648 348.721 128.72C348.729 128.729 348.729 128.745 348.737 128.753C348.769 128.826 348.794 128.899 348.826 128.971C348.834 128.98 348.834 128.996 348.842 129.004C348.867 129.077 348.891 129.15 348.915 129.223C348.915 129.231 348.923 129.247 348.923 129.255C348.947 129.328 348.964 129.401 348.988 129.482C348.988 129.49 348.996 129.498 348.996 129.514C349.012 129.587 349.028 129.66 349.045 129.741C349.053 129.781 349.061 129.814 349.061 129.854C349.069 129.878 349.069 129.911 349.069 129.935L347.53 187.437C347.522 187.793 346.429 190.061 346.721 189.891L347.53 189.154L347.069 206.523C347.061 206.88 345.968 209.147 346.259 208.977L349.239 206.264C349.871 205.689 350.227 204.871 350.259 203.948L352.251 129.571C352.259 129.214 352.276 128.672 352.276 128.672C352.276 128.631 352.276 128.599 352.276 128.559C352.276 128.526 352.276 128.494 352.276 128.461C352.276 128.461 352.276 128.461 352.276 128.453C352.276 128.445 352.276 128.445 352.276 128.437C352.276 128.429 352.276 128.413 352.276 128.405C352.276 128.356 352.268 128.316 352.268 128.267C352.268 128.235 352.259 128.194 352.251 128.162C352.251 128.154 352.251 128.154 352.251 128.146C352.251 128.137 352.251 128.137 352.251 128.137C352.251 128.121 352.243 128.105 352.243 128.089L352.713 110.493C352.721 110.136 352.737 109.594 352.737 109.594C352.737 109.553 352.737 109.521 352.737 109.48C352.713 109.432 352.705 109.399 352.705 109.367Z" fill="url(#paint2_linear)"/>
<path d="M346.51 116.671C348.243 117.667 349.434 116.687 349.393 118.379L347.66 198.482C347.62 200.183 346.025 200.717 344.292 199.713L216.753 126.04C215.02 125.044 213.659 122.857 213.7 121.165L215.757 44.2611C215.805 42.5687 217.239 42.0018 218.971 42.9979L346.51 116.671Z" fill="#1737A2"/>
<path d="M346.51 106.555C348.243 107.551 349.604 109.738 349.563 111.43L347.652 188.359C347.612 190.059 346.016 190.593 344.283 189.589L216.745 115.916C215.012 114.92 213.756 118.694 213.805 116.993L215.749 34.1295C215.797 32.4371 217.23 31.8702 218.963 32.8663L346.51 106.555Z" fill="#1737A2"/>
<path d="M346.275 115.91C346.332 114.485 345.053 112.582 343.409 111.651L222.599 42.9903C220.963 42.0591 219.587 42.4559 219.53 43.8811L219.166 53.1934C219.117 53.3473 219.085 53.5173 219.077 53.7036L217.417 118.307C217.36 119.732 219.214 122.34 220.85 123.271L340.202 191.106C341.838 192.037 343.214 191.64 343.271 190.215L343.636 180.902C343.684 180.749 343.717 180.579 343.725 180.392L346.275 115.91Z" fill="#18BDF7"/>
<path d="M344.769 213.901L344.729 208.848L339.83 211.989L338.777 209.568L215.894 138.624C214.412 137.766 211.473 137.879 209.764 138.867L156.53 169.412V168.561L148.448 172.489L147.315 172.027L147.469 175.76C147.59 176.578 147.906 176.91 148.408 177.202L276.287 251.223C277.769 252.081 280.376 252.065 282.085 251.077L343.36 215.747C344.292 215.204 344.769 214.54 344.769 213.884V213.901Z" fill="#1737A2"/>
<path d="M276.206 246.251L148.335 172.424C146.853 171.566 147.039 170.06 148.748 169.08L210.023 133.701C211.732 132.713 214.339 132.608 215.821 133.458L343.692 207.285C345.174 208.143 344.988 209.649 343.279 210.629L282.004 246.008C280.295 246.996 277.688 247.101 276.206 246.251Z" fill="#D4E3F4"/>
<g opacity="0.56">
<g opacity="0.56">
<g opacity="0.56">
<path opacity="0.56" d="M217.684 147.135C217.498 147.241 217.117 147.2 216.842 147.038L209.076 142.56C208.793 142.398 208.72 142.18 208.906 142.074L214.048 139.102C214.235 138.997 214.615 139.038 214.89 139.2L222.656 143.678C222.94 143.84 223.012 144.058 222.826 144.163L217.684 147.135Z" fill="#7FB0F0"/>
<path opacity="0.56" d="M226.689 160.512C226.503 160.618 226.122 160.577 225.839 160.415L218.073 155.937C217.79 155.775 217.717 155.556 217.903 155.451L223.045 152.479C223.231 152.374 223.604 152.415 223.887 152.577L231.653 157.055C231.936 157.217 232.009 157.435 231.831 157.54L226.689 160.512Z" fill="#7FB0F0"/>
<path opacity="0.56" d="M222.138 166.068C221.951 166.173 221.571 166.133 221.296 165.971L213.53 161.493C213.255 161.331 213.174 161.112 213.36 161.007L218.502 158.035C218.68 157.93 219.069 157.978 219.344 158.132L227.11 162.61C227.385 162.772 227.466 162.991 227.28 163.096L222.138 166.068Z" fill="#7FB0F0"/>
<path opacity="0.56" d="M209.821 167.137C209.635 167.242 209.254 167.201 208.979 167.039L201.213 162.561C200.938 162.399 200.857 162.181 201.043 162.076L206.185 159.104C206.372 158.998 206.752 159.039 207.028 159.201L214.793 163.679C215.069 163.841 215.141 164.059 214.963 164.165L209.821 167.137Z" fill="#7FB0F0"/>
<path opacity="0.56" d="M188.459 164.019C188.273 164.125 187.892 164.084 187.617 163.922L179.851 159.444C179.568 159.282 179.495 159.064 179.681 158.958L185.722 155.468C185.9 155.363 186.289 155.403 186.564 155.565L194.33 160.043C194.614 160.205 194.686 160.424 194.5 160.529L188.459 164.019Z" fill="#7FB0F0"/>
<path opacity="0.56" d="M201.845 171.744C201.658 171.849 201.213 171.768 200.841 171.55L190.67 165.679C190.306 165.468 190.16 165.209 190.338 165.104L196.379 161.614C196.557 161.509 197.019 161.59 197.375 161.8L207.546 167.671C207.918 167.882 208.056 168.149 207.878 168.246L201.845 171.744Z" fill="#7FB0F0"/>
<path opacity="0.56" d="M268.659 210.362C268.506 210.451 268.149 210.394 267.874 210.232L260.116 205.754C259.833 205.592 259.728 205.382 259.881 205.293L262.116 204.005C262.27 203.916 262.627 203.973 262.91 204.143L270.668 208.621C270.951 208.783 271.048 208.985 270.894 209.074L268.659 210.362Z" fill="#7FB0F0"/>
<path opacity="0.56" d="M279.032 216.5C278.878 216.589 278.522 216.533 278.247 216.371L270.489 211.893C270.206 211.731 270.101 211.52 270.254 211.431L272.489 210.144C272.643 210.055 273 210.111 273.283 210.281L281.041 214.759C281.324 214.921 281.421 215.124 281.267 215.213L279.032 216.5Z" fill="#7FB0F0"/>
<path opacity="0.56" d="M290.029 222.704C289.883 222.793 289.527 222.728 289.252 222.566L281.494 218.088C281.219 217.926 281.105 217.724 281.251 217.635L283.405 216.396C283.551 216.307 283.907 216.371 284.183 216.533L291.94 221.011C292.224 221.173 292.329 221.376 292.183 221.457L290.029 222.704Z" fill="#7FB0F0"/>
<path opacity="0.56" d="M283.267 214.136C283.122 214.225 282.765 214.161 282.49 213.999L274.732 209.521C274.457 209.359 274.344 209.156 274.49 209.067L276.643 207.828C276.789 207.739 277.146 207.804 277.421 207.966L285.178 212.444C285.462 212.606 285.567 212.808 285.421 212.889L283.267 214.136Z" fill="#7FB0F0"/>
<path opacity="0.56" d="M255.241 202.556C255.055 202.661 254.674 202.621 254.391 202.459L203.869 173.307C203.594 173.145 203.513 172.927 203.699 172.821L209.74 169.331C209.918 169.226 210.307 169.275 210.582 169.428L261.104 198.58C261.387 198.742 261.46 198.961 261.282 199.066L255.241 202.556Z" fill="#7FB0F0"/>
<path opacity="0.56" d="M200.46 169.817C200.452 169.825 200.411 169.817 200.379 169.793L194.443 166.367C194.411 166.351 194.395 166.327 194.403 166.319L194.775 166.1C194.784 166.092 194.824 166.1 194.856 166.124L200.792 169.55C200.824 169.566 200.841 169.59 200.833 169.598L200.46 169.817Z" fill="#7FB0F0"/>
<path opacity="0.56" d="M185.245 160.383C185.237 160.391 185.213 160.391 185.196 160.383L182.678 158.925C182.662 158.917 182.662 158.909 182.67 158.901L183.042 158.682C183.05 158.674 183.075 158.674 183.091 158.682L185.609 160.14C185.626 160.148 185.626 160.156 185.617 160.164L185.245 160.383Z" fill="#7FB0F0"/>
<path opacity="0.56" d="M220.461 173.275C220.275 173.38 219.895 173.34 219.619 173.178L211.854 168.7C211.578 168.538 211.497 168.319 211.683 168.214L216.825 165.242C217.012 165.137 217.392 165.185 217.668 165.339L225.433 169.817C225.717 169.979 225.79 170.198 225.603 170.303L220.461 173.275Z" fill="#7FB0F0"/>
<path opacity="0.56" d="M231.151 179.445C230.964 179.551 230.584 179.51 230.308 179.348L222.543 174.87C222.267 174.708 222.186 174.49 222.373 174.384L227.515 171.412C227.701 171.307 228.082 171.348 228.365 171.51L236.131 175.988C236.406 176.15 236.479 176.368 236.301 176.474L231.151 179.445Z" fill="#7FB0F0"/>
<path opacity="0.56" d="M241.84 185.607C241.654 185.712 241.273 185.672 240.998 185.51L233.232 181.032C232.957 180.87 232.876 180.651 233.062 180.546L238.204 177.574C238.39 177.469 238.771 177.509 239.046 177.671L246.812 182.149C247.087 182.311 247.16 182.53 246.982 182.635L241.84 185.607Z" fill="#7FB0F0"/>
<path opacity="0.56" d="M252.528 191.777C252.342 191.883 251.97 191.842 251.686 191.68L243.92 187.202C243.637 187.04 243.564 186.822 243.75 186.716L248.892 183.744C249.079 183.639 249.459 183.68 249.735 183.842L257.5 188.32C257.776 188.482 257.857 188.7 257.67 188.806L252.528 191.777Z" fill="#7FB0F0"/>
<path opacity="0.56" d="M263.225 197.948C263.039 198.053 262.658 198.013 262.375 197.851L254.617 193.373C254.342 193.211 254.261 192.992 254.447 192.887L259.589 189.915C259.776 189.81 260.156 189.85 260.431 190.012L268.189 194.49C268.472 194.652 268.545 194.871 268.367 194.984L263.225 197.948Z" fill="#7FB0F0"/>
<path opacity="0.56" d="M273.915 204.111C273.728 204.216 273.348 204.175 273.073 204.013L265.315 199.535C265.032 199.374 264.959 199.155 265.145 199.05L270.287 196.078C270.473 195.972 270.854 196.013 271.129 196.175L278.887 200.653C279.162 200.815 279.243 201.034 279.057 201.139L273.915 204.111Z" fill="#7FB0F0"/>
<path opacity="0.56" d="M297.989 218.007C297.803 218.112 297.422 218.071 297.147 217.909L275.995 205.706C275.712 205.544 275.639 205.326 275.825 205.22L280.967 202.248C281.154 202.143 281.534 202.184 281.81 202.346L302.961 214.549C303.244 214.711 303.317 214.929 303.131 215.035L297.989 218.007Z" fill="#7FB0F0"/>
<path opacity="0.56" d="M232.778 172.198C232.592 172.303 232.219 172.263 231.936 172.101L224.17 167.623C223.895 167.461 223.814 167.242 224 167.137L229.142 164.165C229.32 164.06 229.701 164.1 229.984 164.262L237.75 168.74C238.033 168.902 238.098 169.121 237.92 169.226L232.778 172.198Z" fill="#7FB0F0"/>
<path opacity="0.56" d="M243.467 178.369C243.281 178.474 242.9 178.433 242.625 178.271L234.859 173.793C234.584 173.631 234.503 173.421 234.689 173.307L239.831 170.336C240.009 170.23 240.39 170.271 240.665 170.433L248.431 174.911C248.706 175.073 248.787 175.291 248.601 175.397L243.467 178.369Z" fill="#7FB0F0"/>
<path opacity="0.56" d="M254.156 184.538C253.97 184.643 253.589 184.603 253.314 184.441L245.548 179.963C245.273 179.801 245.184 179.582 245.378 179.477L250.52 176.505C250.698 176.4 251.087 176.448 251.362 176.602L259.128 181.08C259.403 181.242 259.484 181.461 259.298 181.566L254.156 184.538Z" fill="#7FB0F0"/>
<path opacity="0.56" d="M264.845 190.709C264.658 190.814 264.286 190.773 264.002 190.611L256.245 186.133C255.961 185.971 255.889 185.753 256.075 185.647L261.217 182.676C261.395 182.57 261.776 182.611 262.059 182.773L269.817 187.251C270.092 187.413 270.173 187.631 269.987 187.737L264.845 190.709Z" fill="#7FB0F0"/>
<path opacity="0.56" d="M275.542 196.871C275.356 196.976 274.975 196.936 274.7 196.774L266.934 192.296C266.651 192.134 266.578 191.915 266.764 191.81L271.906 188.838C272.084 188.733 272.465 188.773 272.748 188.935L280.514 193.413C280.789 193.575 280.87 193.794 280.684 193.899L275.542 196.871Z" fill="#7FB0F0"/>
<path opacity="0.56" d="M286.223 203.042C286.037 203.147 285.664 203.106 285.381 202.944L277.623 198.466C277.34 198.304 277.259 198.086 277.445 197.981L282.587 195.009C282.765 194.903 283.146 194.944 283.429 195.106L291.187 199.584C291.462 199.746 291.543 199.964 291.357 200.07L286.223 203.042Z" fill="#7FB0F0"/>
<path opacity="0.56" d="M296.912 209.204C296.726 209.309 296.353 209.269 296.07 209.107L288.304 204.629C288.029 204.467 287.948 204.256 288.134 204.143L293.276 201.171C293.454 201.066 293.835 201.106 294.11 201.268L301.876 205.746C302.151 205.908 302.232 206.127 302.046 206.232L296.912 209.204Z" fill="#7FB0F0"/>
<path opacity="0.56" d="M237.329 166.65C237.143 166.756 236.762 166.715 236.487 166.553L228.721 162.075C228.446 161.913 228.365 161.695 228.559 161.589L233.701 158.618C233.888 158.512 234.26 158.553 234.535 158.715L242.301 163.193C242.584 163.355 242.657 163.573 242.471 163.679L237.329 166.65Z" fill="#7FB0F0"/>
<path opacity="0.56" d="M248.018 172.813C247.832 172.918 247.451 172.878 247.176 172.716L239.41 168.238C239.135 168.076 239.054 167.857 239.24 167.752L244.382 164.78C244.568 164.675 244.941 164.715 245.224 164.877L252.99 169.355C253.265 169.517 253.346 169.736 253.16 169.841L248.018 172.813Z" fill="#7FB0F0"/>
<path opacity="0.56" d="M258.707 178.984C258.521 179.089 258.14 179.048 257.857 178.887L250.091 174.409C249.816 174.247 249.735 174.028 249.929 173.923L255.071 170.951C255.257 170.846 255.63 170.886 255.913 171.048L263.679 175.526C263.962 175.688 264.035 175.907 263.857 176.012L258.707 178.984Z" fill="#7FB0F0"/>
<path opacity="0.56" d="M269.396 185.154C269.21 185.26 268.837 185.219 268.554 185.057L260.788 180.579C260.505 180.417 260.432 180.199 260.618 180.093L265.76 177.121C265.947 177.016 266.319 177.057 266.602 177.219L274.368 181.697C274.652 181.859 274.724 182.077 274.538 182.183L269.396 185.154Z" fill="#7FB0F0"/>
<path opacity="0.56" d="M280.093 191.316C279.907 191.421 279.526 191.381 279.251 191.219L271.485 186.741C271.202 186.579 271.129 186.36 271.315 186.255L276.457 183.283C276.643 183.178 277.016 183.218 277.299 183.38L285.065 187.858C285.34 188.02 285.413 188.239 285.235 188.344L280.093 191.316Z" fill="#7FB0F0"/>
<path opacity="0.56" d="M290.782 197.487C290.595 197.592 290.215 197.551 289.931 197.389L282.166 192.911C281.89 192.749 281.809 192.531 281.996 192.425L287.138 189.454C287.324 189.348 287.705 189.397 287.98 189.551L295.746 194.029C296.029 194.191 296.102 194.409 295.924 194.515L290.782 197.487Z" fill="#7FB0F0"/>
<path opacity="0.56" d="M301.471 203.657C301.285 203.762 300.904 203.722 300.629 203.56L292.863 199.082C292.58 198.92 292.507 198.701 292.693 198.596L297.835 195.624C298.022 195.519 298.394 195.559 298.678 195.721L306.443 200.199C306.719 200.361 306.8 200.58 306.613 200.685L301.471 203.657Z" fill="#7FB0F0"/>
<path opacity="0.56" d="M216 154.342C215.814 154.447 215.433 154.407 215.149 154.245L201.991 146.649C201.707 146.487 201.634 146.269 201.821 146.163L206.963 143.192C207.149 143.086 207.521 143.127 207.805 143.289L220.964 150.884C221.247 151.046 221.32 151.265 221.134 151.37L216 154.342Z" fill="#7FB0F0"/>
<path opacity="0.56" d="M319.237 205.73C319.051 205.835 318.67 205.795 318.395 205.633L305.228 198.037C304.953 197.875 304.872 197.656 305.058 197.551L310.2 194.579C310.386 194.474 310.767 194.514 311.042 194.676L324.209 202.272C324.492 202.434 324.565 202.653 324.379 202.758L319.237 205.73Z" fill="#7FB0F0"/>
<path opacity="0.56" d="M211.449 159.898C211.262 160.003 210.89 159.963 210.607 159.801L194.913 150.748C194.63 150.586 194.557 150.367 194.743 150.262L199.885 147.29C200.063 147.185 200.444 147.225 200.727 147.387L216.421 156.44C216.704 156.602 216.777 156.821 216.591 156.926L211.449 159.898Z" fill="#7FB0F0"/>
<path opacity="0.56" d="M199.132 160.975C198.946 161.08 198.565 161.04 198.29 160.878L187.828 154.837C187.544 154.675 187.471 154.456 187.658 154.351L192.8 151.379C192.986 151.274 193.367 151.314 193.642 151.476L204.104 157.517C204.388 157.679 204.46 157.898 204.274 158.003L199.132 160.975Z" fill="#7FB0F0"/>
<path opacity="0.56" d="M228.373 153.306C228.186 153.411 227.806 153.371 227.531 153.209L219.773 148.731C219.49 148.569 219.417 148.35 219.603 148.245L224.745 145.273C224.931 145.168 225.312 145.208 225.587 145.37L233.345 149.848C233.628 150.01 233.701 150.229 233.515 150.334L228.373 153.306Z" fill="#7FB0F0"/>
<path opacity="0.56" d="M239.013 159.436C238.827 159.542 238.446 159.501 238.171 159.339L230.405 154.861C230.13 154.699 230.049 154.481 230.235 154.375L235.377 151.403C235.564 151.298 235.944 151.339 236.219 151.501L243.985 155.979C244.269 156.141 244.341 156.359 244.155 156.464L239.013 159.436Z" fill="#7FB0F0"/>
<path opacity="0.56" d="M249.702 165.606C249.516 165.711 249.144 165.671 248.86 165.509L241.094 161.031C240.819 160.869 240.738 160.65 240.924 160.545L246.066 157.573C246.253 157.468 246.633 157.508 246.909 157.67L254.674 162.148C254.958 162.31 255.031 162.529 254.844 162.634L249.702 165.606Z" fill="#7FB0F0"/>
<path opacity="0.56" d="M260.391 171.776C260.205 171.882 259.824 171.841 259.549 171.679L251.791 167.201C251.508 167.039 251.435 166.821 251.621 166.715L256.763 163.744C256.95 163.638 257.33 163.679 257.606 163.841L265.363 168.319C265.639 168.481 265.72 168.699 265.533 168.805L260.391 171.776Z" fill="#7FB0F0"/>
<path opacity="0.56" d="M271.08 177.939C270.894 178.044 270.522 178.004 270.238 177.842L262.481 173.364C262.197 173.202 262.124 172.983 262.311 172.878L267.453 169.906C267.639 169.801 268.02 169.841 268.295 170.003L276.052 174.481C276.336 174.643 276.409 174.862 276.223 174.967L271.08 177.939Z" fill="#7FB0F0"/>
<path opacity="0.56" d="M281.778 184.109C281.591 184.215 281.211 184.174 280.935 184.012L273.17 179.534C272.894 179.372 272.813 179.154 273 179.048L278.142 176.077C278.328 175.971 278.709 176.012 278.984 176.174L286.75 180.652C287.025 180.814 287.106 181.032 286.92 181.138L281.778 184.109Z" fill="#7FB0F0"/>
<path opacity="0.56" d="M292.467 190.28C292.28 190.385 291.9 190.345 291.624 190.183L283.859 185.705C283.575 185.543 283.502 185.324 283.689 185.219L288.831 182.247C289.017 182.142 289.397 182.182 289.681 182.344L297.447 186.822C297.73 186.984 297.803 187.203 297.617 187.308L292.467 190.28Z" fill="#7FB0F0"/>
<path opacity="0.56" d="M303.147 196.443C302.961 196.548 302.589 196.508 302.305 196.346L294.54 191.859C294.264 191.698 294.191 191.479 294.378 191.374L299.52 188.402C299.706 188.296 300.087 188.337 300.362 188.499L308.128 192.985C308.403 193.147 308.476 193.366 308.289 193.471L303.147 196.443Z" fill="#7FB0F0"/>
<path opacity="0.56" d="M309.366 201.884C309.236 201.811 309.083 201.754 308.912 201.738C308.751 201.722 308.621 201.738 308.532 201.787L303.39 204.758C303.301 204.807 303.26 204.888 303.293 204.985C303.325 205.082 303.422 205.171 303.552 205.244L305.576 206.41L298.831 210.305C298.742 210.354 298.709 210.435 298.742 210.532C298.774 210.629 298.871 210.718 299.001 210.791L304.232 213.812C304.362 213.885 304.524 213.941 304.685 213.966C304.847 213.99 304.985 213.966 305.074 213.917L317.302 206.856C317.391 206.807 317.423 206.726 317.391 206.637C317.358 206.54 317.261 206.451 317.132 206.37L309.366 201.884Z" fill="#7FB0F0"/>
<path opacity="0.56" d="M197.747 158.464C197.739 158.472 197.698 158.464 197.666 158.439L191.73 155.014C191.698 154.998 191.682 154.974 191.69 154.966L192.062 154.747C192.071 154.739 192.111 154.747 192.143 154.771L198.079 158.197C198.111 158.213 198.128 158.237 198.12 158.245L197.747 158.464Z" fill="#7FB0F0"/>
</g>
</g>
</g>
<path opacity="0.4" d="M167.121 333.171L135.265 350.954C134.058 351.626 133.572 353.002 134.188 354.015C134.803 355.027 136.293 355.302 137.508 354.622L171.462 335.673L167.121 333.171Z" fill="#A8C4E5"/>
<path opacity="0.4" d="M146.553 321.301L141.905 318.612L110.445 336.533C109.239 337.205 108.753 338.581 109.368 339.593C109.984 340.606 111.474 340.873 112.689 340.201L146.553 321.301Z" fill="#A8C4E5"/>
<path d="M167.049 234.785L166.846 234.672C166.118 234.259 165.283 234.85 164.976 235.983L161.17 250.227L138.48 237.287L142.286 223.043C142.586 221.91 142.245 220.646 141.517 220.233L141.314 220.12C140.585 219.707 139.751 220.298 139.444 221.432L135.322 236.834L134.917 238.332L129.986 256.77L129.694 257.872L124.657 276.707L124.641 276.78L119.135 297.372L118.932 298.141L114.001 316.58L113.596 318.078L108.438 337.375C108.138 338.509 108.478 339.772 109.207 340.185L109.409 340.298C110.138 340.711 110.972 340.12 111.28 338.986L116.13 320.847L138.82 333.788L133.97 351.926C133.67 353.06 134.01 354.323 134.739 354.736L134.941 354.85C135.67 355.263 136.504 354.672 136.812 353.538L167.818 237.579C168.118 236.469 167.769 235.198 167.049 234.785ZM160.141 254.041L155.833 270.156L133.144 257.216L137.452 241.101L160.141 254.041ZM150.505 290.1L127.815 277.16L132.123 261.046L154.813 273.986L150.505 290.1ZM145.169 310.037L122.479 297.097L126.787 280.982L149.477 293.923L145.169 310.037ZM117.143 317.041L121.451 300.927L144.14 313.867L139.832 329.982L117.143 317.041Z" fill="#1737A2"/>
<path d="M401.842 373.936L290.547 309.68L401.146 245.83L513.534 309.948L401.842 373.936Z" fill="#EDF7FF"/>
<path d="M401.842 373.936L401.947 436.459L513.533 372.527V309.948L401.842 373.936Z" fill="url(#paint3_linear)"/>
<path d="M290.717 309.68V372.227L402.004 436.482V373.936L290.717 309.68Z" fill="#CCE9FF"/>
<path d="M190.2 128.009L135.144 159.792C132.083 161.557 128.261 159.347 128.261 155.816V60.2389C128.261 57.8581 129.532 55.6556 131.597 54.4652L188.192 21.7909C190.265 20.5925 192.856 22.0906 192.856 24.4875V123.401C192.864 125.304 191.852 127.061 190.2 128.009Z" fill="#18BDF7"/>
<path d="M141.986 113.368C141.743 125.255 149.93 130.276 160.287 124.575C170.636 118.882 179.228 104.63 179.479 92.7427C179.722 80.8553 171.535 75.8347 161.178 81.5354C150.821 87.2281 142.229 101.48 141.986 113.368ZM160.473 115.408C154.53 118.68 149.833 115.797 149.971 108.979C150.108 102.16 155.04 93.9816 160.983 90.7102C166.927 87.4387 171.624 90.3215 171.486 97.1397C171.349 103.958 166.417 112.145 160.473 115.408Z" fill="#1737A2"/>
<path d="M142.763 107.343C145.12 97.0103 152.529 86.2889 161.177 81.5356C167.51 78.0536 173.032 78.5799 176.312 82.2401L174.037 85.2119C174.045 85.22 174.061 85.2362 174.069 85.2443L169.615 91.0504C167.728 89.0098 164.587 88.7345 160.991 90.7103C156.076 93.4149 151.849 99.4882 150.464 105.367L142.763 107.343Z" fill="#FF9359"/>
<path d="M168.547 106.938C170.312 103.804 171.421 100.322 171.486 97.1398C171.543 94.257 170.741 92.0868 169.34 90.775L170.854 88.7668C170.838 88.7506 170.814 88.7263 170.798 88.7101L175.632 81.5598C175.762 81.6732 175.883 81.8028 176.005 81.9242C176.021 81.9404 176.029 81.9566 176.045 81.9647C176.061 81.9809 176.085 82.0052 176.102 82.0214C176.158 82.0781 176.207 82.1348 176.256 82.1914C178.369 84.5074 179.567 88.1028 179.47 92.7509C179.357 98.2168 177.478 104.193 174.466 109.594L168.547 106.938Z" fill="white"/>
<path d="M171.098 62.8131L177.778 58.9586C178.863 58.327 179.746 56.6426 179.746 55.1932C179.746 53.7437 178.863 53.0715 177.778 53.7032L171.098 57.5577C170.013 58.1893 169.13 59.8736 169.13 61.3231C169.13 62.7726 170.013 63.4366 171.098 62.8131Z" fill="white"/>
<path d="M171.098 51.0399L177.778 47.1854C178.863 46.5538 179.746 44.8694 179.746 43.42C179.746 41.9705 178.863 41.2984 177.778 41.93L171.098 45.7845C170.013 46.4161 169.13 48.1004 169.13 49.5499C169.13 51.0075 170.013 51.6715 171.098 51.0399Z" fill="#1737A2"/>
<path d="M167.51 53.1122L174.191 49.2577C175.276 48.626 176.159 46.9417 176.159 45.4922C176.159 44.0427 175.276 43.3706 174.191 44.0022L167.51 47.8568C166.425 48.4884 165.542 50.1727 165.542 51.6222C165.542 53.0717 166.425 53.7438 167.51 53.1122Z" fill="#1737A2"/>
<path d="M157.267 70.8622L163.947 67.0077C165.032 66.376 165.915 64.6917 165.915 63.2422C165.915 61.7927 165.032 61.1206 163.947 61.7522L157.267 65.6068C156.182 66.2384 155.299 67.9227 155.299 69.3722C155.299 70.8217 156.182 71.4857 157.267 70.8622Z" fill="white"/>
<path d="M143.436 78.8627L150.116 75.0081C151.201 74.3765 152.084 72.6922 152.084 71.2427C152.084 69.7932 151.201 69.1211 150.116 69.7527L143.436 73.6072C142.351 74.2389 141.468 75.9232 141.468 77.3727C141.468 78.8303 142.351 79.4943 143.436 78.8627Z" fill="white"/>
<path d="M302.613 92.792L300.993 162.133L335.085 181.988L336.696 112.648L302.613 92.792Z" fill="white" stroke="#B3DDFF" stroke-width="0.7569" stroke-miterlimit="10"/>
<path d="M329.222 126.187L313.885 117.263L313.949 114.518L329.286 123.441L329.222 126.187Z" fill="#18BDF7"/>
<path d="M328.93 138.625L313.601 129.701L313.666 126.956L328.995 135.88L328.93 138.625Z" fill="#18BDF7"/>
<path d="M328.639 151.063L313.31 142.139L313.374 139.402L328.703 148.318L328.639 151.063Z" fill="#18BDF7"/>
<path d="M309.868 116.453L306.775 114.655C306.313 114.388 305.949 113.667 305.965 113.052L306.038 109.788C306.054 109.173 306.435 108.881 306.896 109.157L309.989 110.955C310.451 111.222 310.815 111.942 310.799 112.558L310.726 115.821C310.718 116.437 310.33 116.72 309.868 116.453Z" fill="#1737A2"/>
<path d="M309.56 129.774L306.467 127.976C306.005 127.709 305.641 126.989 305.657 126.373L305.73 123.11C305.746 122.494 306.127 122.203 306.589 122.478L309.682 124.276C310.143 124.543 310.508 125.264 310.492 125.879L310.419 129.143C310.403 129.758 310.022 130.041 309.56 129.774Z" fill="#1737A2"/>
<path d="M309.253 143.094L306.159 141.297C305.698 141.03 305.333 140.309 305.35 139.693L305.423 136.43C305.439 135.815 305.819 135.523 306.281 135.798L309.374 137.596C309.836 137.863 310.2 138.584 310.184 139.199L310.111 142.463C310.095 143.078 309.714 143.362 309.253 143.094Z" fill="#1737A2"/>
<path d="M317.78 168.627L299.843 158.189C297.398 156.764 295.462 152.909 295.535 149.622L295.56 148.658C295.632 145.37 297.697 143.848 300.143 145.273L318.079 155.711C320.525 157.136 322.46 160.991 322.387 164.278L322.363 165.242C322.282 168.53 320.225 170.052 317.78 168.627Z" fill="#FF9359"/>
<path d="M316.249 161.737L300.685 152.675C300.369 152.489 300.118 151.987 300.126 151.566C300.135 151.137 300.402 150.942 300.726 151.129L316.289 160.19C316.605 160.376 316.856 160.878 316.848 161.299C316.84 161.72 316.573 161.923 316.249 161.737Z" fill="white"/>
<path d="M294.539 92.2738L294.563 91.213L226.275 51.5261L224.874 114.324L293.154 154.011L294.539 92.2738Z" fill="white"/>
<path d="M287.162 139.896L229.531 106.403L230.575 59.7849L288.207 93.277L287.162 139.896Z" stroke="#B3DDFF" stroke-width="0.7571" stroke-miterlimit="10"/>
<path d="M249.297 70.6694L248.252 117.28" stroke="#B3DDFF" stroke-width="0.7571" stroke-miterlimit="10"/>
<path d="M268.748 81.9727L267.711 128.583" stroke="#B3DDFF" stroke-width="0.7571" stroke-miterlimit="10"/>
<path d="M230.397 67.7612L288.028 101.245" stroke="#B3DDFF" stroke-width="0.5392" stroke-miterlimit="10"/>
<path d="M230.219 75.5273L287.85 109.019" stroke="#B3DDFF" stroke-width="0.5392" stroke-miterlimit="10"/>
<path d="M230.049 83.2935L287.68 116.786" stroke="#B3DDFF" stroke-width="0.5392" stroke-miterlimit="10"/>
<path d="M287.502 124.559L229.87 91.0664" stroke="#B3DDFF" stroke-width="0.5392" stroke-miterlimit="10"/>
<path d="M287.332 132.325L229.7 98.8325" stroke="#B3DDFF" stroke-width="0.5392" stroke-miterlimit="10"/>
<path d="M245.629 120.38L243.28 119.02C242.973 118.841 242.722 118.356 242.73 117.935C242.738 117.513 242.997 117.327 243.313 117.505L245.661 118.866C245.969 119.044 246.22 119.53 246.212 119.951C246.196 120.364 245.936 120.558 245.629 120.38Z" fill="#1737A2"/>
<path d="M264.99 131.798L262.642 130.437C262.334 130.259 262.083 129.773 262.091 129.352C262.099 128.931 262.359 128.745 262.674 128.923L265.023 130.283C265.33 130.462 265.581 130.947 265.573 131.369C265.565 131.79 265.306 131.984 264.99 131.798Z" fill="#1737A2"/>
<path d="M284.579 143.637L282.231 142.276C281.923 142.098 281.672 141.612 281.68 141.191C281.688 140.77 281.947 140.584 282.263 140.762L284.611 142.122C284.919 142.3 285.17 142.786 285.162 143.207C285.146 143.629 284.887 143.823 284.579 143.637Z" fill="#1737A2"/>
<path d="M287.648 118.136C280.036 114.557 278.295 126.283 274.659 124.558C271.015 122.833 271.744 110.12 267.776 107.812C263.808 105.512 264.383 118.695 260.593 116.784C256.804 114.881 259.274 99.7304 252.852 96.548C244.892 92.5963 250.398 112.776 243.159 109.869C237.313 107.52 242.479 101.253 236.738 97.6493C233.782 95.803 229.636 101.917 229.636 101.917L229.539 106.403L287.17 139.895L287.648 118.136Z" fill="#18BDF7"/>
<path d="M93.1645 119.391L113.555 107.892L113.449 84.7812L93.0592 96.28L93.1645 119.391Z" stroke="#B3DDFF" stroke-width="0.9448" stroke-miterlimit="10"/>
<path d="M72.7667 130.897L93.1649 119.391L93.0596 96.2798L72.6696 107.787L72.7667 130.897Z" stroke="#B3DDFF" stroke-width="0.9448" stroke-miterlimit="10"/>
<path d="M52.3765 142.397L72.7665 130.898L72.6693 107.787L52.2793 119.286L52.3765 142.397Z" stroke="#B3DDFF" stroke-width="0.9448" stroke-miterlimit="10"/>
<path d="M31.9863 153.904L52.3763 142.397L52.2792 119.286L31.881 130.793L31.9863 153.904Z" stroke="#B3DDFF" stroke-width="0.9448" stroke-miterlimit="10"/>
<path d="M93.262 142.502L113.652 131.003L113.555 107.893L93.1648 119.391L93.262 142.502Z" stroke="#B3DDFF" stroke-width="0.9448" stroke-miterlimit="10"/>
<path d="M72.8718 154.009L93.2618 142.502L93.1646 119.391L72.7665 130.898L72.8718 154.009Z" stroke="#B3DDFF" stroke-width="0.9448" stroke-miterlimit="10"/>
<path d="M32.0833 177.015L52.4733 165.508L52.3761 142.397L31.9861 153.904L32.0833 177.015Z" stroke="#B3DDFF" stroke-width="0.9448" stroke-miterlimit="10"/>
<path d="M113.652 131.003L113.757 154.105" stroke="#B3DDFF" stroke-width="0.9448" stroke-miterlimit="10"/>
<path d="M72.9688 177.12L93.3588 165.613L93.2616 142.502L72.8716 154.009L72.9688 177.12Z" stroke="#B3DDFF" stroke-width="0.9448" stroke-miterlimit="10"/>
<path d="M52.5792 188.618L72.9692 177.12L72.872 154.009L52.4739 165.508L52.5792 188.618Z" stroke="#B3DDFF" stroke-width="0.9448" stroke-miterlimit="10"/>
<path d="M32.189 200.125L52.579 188.618L52.4737 165.507L32.0837 177.014L32.189 200.125Z" stroke="#B3DDFF" stroke-width="0.9448" stroke-miterlimit="10"/>
<path d="M113.757 154.106L113.854 177.217" stroke="#B3DDFF" stroke-width="0.9448" stroke-miterlimit="10"/>
<path d="M93.464 188.724L113.854 177.217L113.757 154.106L93.3588 165.613L93.464 188.724Z" stroke="#B3DDFF" stroke-width="0.9448" stroke-miterlimit="10"/>
<path d="M73.0744 200.222L93.4644 188.723L93.3591 165.613L72.9691 177.119L73.0744 200.222Z" stroke="#B3DDFF" stroke-width="0.9448" stroke-miterlimit="10"/>
<path d="M52.6761 211.73L73.0742 200.223L72.9689 177.12L52.5789 188.619L52.6761 211.73Z" stroke="#B3DDFF" stroke-width="0.9448" stroke-miterlimit="10"/>
<path d="M32.2859 223.236L52.6759 211.729L52.5788 188.619L32.1887 200.125L32.2859 223.236Z" stroke="#B3DDFF" stroke-width="0.9448" stroke-miterlimit="10"/>
<path d="M37.5341 216.621L49.7373 171.501L69.5929 168.95L76.0144 135.701L93.2625 135.985L104.777 108.76" stroke="#1737A2" stroke-width="2" stroke-miterlimit="10" stroke-linecap="round" stroke-linejoin="round"/>
<path d="M100.38 110.137L105.263 108.04L106.259 112.372" stroke="#1737A2" stroke-width="2" stroke-miterlimit="10" stroke-linecap="round" stroke-linejoin="round"/>
<path opacity="0.4" d="M430.03 323.146L391.096 301.104L386.245 251.417C387.331 250.785 388.999 250.712 389.962 251.255L472.859 298.181C473.814 298.724 473.717 299.687 472.632 300.319L433.747 322.984C432.662 323.616 430.993 323.689 430.03 323.146Z" fill="#A8C4E5"/>
<path d="M432.516 322.62L387.161 294.764C384.424 293.185 382.213 288.95 382.213 285.306V189.875C382.213 186.231 384.432 184.554 387.161 186.133L432.816 212.491C435.553 214.07 437.763 218.306 437.763 221.95V316.928C437.763 319.324 437.018 319.77 435.504 320.636L432.516 322.62Z" fill="#B6D4ED"/>
<path d="M403.745 230.889C403.745 230.889 382.189 288.86 382.189 285.216L380.092 187.639L384.076 185.687C384.918 185.291 385.979 185.38 387.137 186.044L432.792 212.402C434.128 213.171 435.342 214.58 436.233 216.24L403.745 230.889Z" fill="#DBEFFF"/>
<path d="M428.621 322.976L383.079 296.618C380.342 295.039 378.237 290.804 378.237 287.16V191.729C378.237 188.085 380.399 186.408 383.128 187.987L428.645 214.345C431.382 215.924 433.455 220.16 433.455 223.804V319.235C433.463 322.879 431.35 324.555 428.621 322.976Z" fill="#1737A2"/>
<path d="M435.415 230.8V236.25C435.415 236.63 435.642 236.808 435.925 236.638L435.86 236.59C436.144 236.428 436.233 235.982 436.233 235.602V230.152C436.233 229.771 436.144 229.593 435.86 229.763V229.812C435.569 229.974 435.415 230.419 435.415 230.8Z" fill="#2C4482"/>
<path d="M435.415 240.347V245.797C435.415 246.178 435.642 246.356 435.925 246.186L435.86 246.137C436.144 245.975 436.233 245.53 436.233 245.149V239.699C436.233 239.319 436.144 239.141 435.86 239.311V239.359C435.569 239.521 435.415 239.967 435.415 240.347Z" fill="#2C4482"/>
<path d="M427.358 306.667L382.958 281.03C382.496 280.763 382.213 280.269 382.213 279.734V199.146C382.213 197.996 383.46 197.275 384.448 197.85L428.848 223.488C429.309 223.755 429.593 224.249 429.593 224.783V305.372C429.593 306.521 428.354 307.242 427.358 306.667Z" fill="#18BDF7"/>
<path d="M413.843 211.414L399.761 203.284C399.267 203.001 398.862 202.223 398.862 201.567C398.862 200.911 399.267 200.604 399.761 200.887L413.843 209.017C414.337 209.301 414.742 210.078 414.742 210.734C414.742 211.398 414.337 211.697 413.843 211.414Z" fill="white"/>
<path d="M385.687 277.362L423.082 299.379" stroke="white" stroke-width="0.584" stroke-miterlimit="10" stroke-linecap="round" stroke-linejoin="round"/>
<path d="M396.506 279.524L385.687 273.281V253.83L396.506 260.073V279.524Z" fill="#1737A2"/>
<path d="M409.769 287.184L398.951 280.933V268.219L409.769 274.463V287.184Z" fill="white"/>
<path d="M423.431 295.071L412.612 288.828V263.328L423.431 269.571V295.071Z" fill="#FF9359"/>
<path d="M387.452 207.438L422.135 227.463" stroke="white" stroke-width="0.6639" stroke-miterlimit="10"/>
<path d="M387.671 226.402L422.353 246.427" stroke="white" stroke-width="0.6639" stroke-miterlimit="10"/>
<path d="M387.881 245.366L422.572 265.392" stroke="white" stroke-width="0.6639" stroke-miterlimit="10"/>
<path d="M405.008 236.411L387.671 226.403L387.452 207.438L404.797 217.447L405.008 236.411Z" stroke="white" stroke-width="0.6639" stroke-miterlimit="10"/>
<path d="M422.353 246.428L405.008 236.411L404.797 217.447L422.134 227.463L422.353 246.428Z" stroke="white" stroke-width="0.6639" stroke-miterlimit="10"/>
<path d="M405.226 255.375L387.881 245.367L387.671 226.402L405.008 236.411L405.226 255.375Z" stroke="white" stroke-width="0.6639" stroke-miterlimit="10"/>
<path d="M422.572 265.393L405.227 255.376L405.008 236.411L422.353 246.428L422.572 265.393Z" stroke="white" stroke-width="0.6639" stroke-miterlimit="10"/>
<path d="M405.227 255.375L387.881 245.366" stroke="white" stroke-width="0.6639" stroke-miterlimit="10"/>
<path d="M405.227 255.375L422.572 265.392" stroke="white" stroke-width="0.6639" stroke-miterlimit="10"/>
<path d="M388.683 244.331L397.64 239.602L407.77 238.654L419.754 231.941" stroke="#1737A2" stroke-miterlimit="10" stroke-linecap="round" stroke-linejoin="round"/>
<path d="M417.762 230.906L420.264 231.683L419.017 234.21" stroke="#1737A2" stroke-miterlimit="10" stroke-linecap="round" stroke-linejoin="round"/>
<path d="M285.589 76.5761C286.114 76.2688 286.107 75.2813 285.574 74.3705C285.041 73.4596 284.183 72.9703 283.658 73.2776C283.133 73.5849 283.14 74.5724 283.673 75.4832C284.206 76.3941 285.064 76.8834 285.589 76.5761Z" fill="white"/>
<path opacity="0.4" d="M233.329 401.33C252.569 390.22 252.472 372.154 233.111 360.971L224.017 366.218C205.068 359.854 180.451 361.311 164.312 370.632C145.072 381.742 145.169 399.808 164.531 410.991C183.893 422.174 215.19 422.23 234.439 411.12L199.375 390.876L207.295 386.301L233.329 401.33Z" fill="#A8C4E5"/>
<path d="M224.843 406.237C205.602 417.347 174.305 417.291 154.935 406.108C135.573 394.925 135.476 376.859 154.716 365.749C173.957 354.639 205.254 354.695 224.624 365.878L189.78 385.993L224.843 406.237Z" fill="#15A2D4"/>
<path d="M189.715 386.034L189.78 386.001L224.843 406.245C216.591 411.015 206.315 413.963 194.946 414.408L193.926 414.457L193.594 407.493C192.241 400.52 190.274 390.204 189.715 386.034Z" fill="#BAD0E6"/>
<path d="M224.624 398.973L224.843 406.237L211.231 400.228L224.624 398.973Z" fill="#BAD0E6"/>
<path d="M224.729 390.875C224.729 390.875 244.115 380.802 239.095 363.886C234.082 346.97 224.729 384.932 224.729 384.932V390.875Z" fill="#E87538"/>
<path d="M154.935 406.116C135.573 394.933 135.476 376.867 154.716 365.757L189.78 386.001L154.935 406.116Z" fill="#0076BF"/>
<path d="M224.624 365.878C205.263 354.695 173.965 354.639 154.717 365.749L189.78 385.993L224.624 365.878Z" fill="#18BDF7"/>
<path d="M189.715 386.033L189.779 386.001L154.716 365.757C149.939 368.518 142.772 374.381 140.351 378.672V385.531C156.312 386.284 178.354 385.523 189.715 386.033Z" fill="#0076BF"/>
<path d="M224.843 399.265C205.602 410.376 174.305 410.319 154.935 399.136C135.573 387.953 135.476 369.887 154.716 358.777C173.957 347.667 205.254 347.724 224.624 358.907L189.78 379.021L224.843 399.265Z" fill="#18BDF7"/>
<path d="M154.935 399.136C135.573 387.953 135.476 369.887 154.716 358.777L189.78 379.021L154.935 399.136Z" fill="#008CE3"/>
<path d="M224.624 358.907C205.263 347.724 173.965 347.667 154.717 358.777L189.78 379.021L224.624 358.907Z" fill="#B8ECFF"/>
<path d="M224.51 344.573C243.872 355.756 243.969 373.822 224.729 384.932L189.666 364.688L224.51 344.573Z" fill="#FF9359"/>
<path d="M189.714 379.061L189.779 379.029L154.716 358.785C146.027 363.805 141.282 370.235 140.472 376.818C156.441 377.563 178.353 378.551 189.714 379.061Z" fill="#1737A2"/>
<path d="M189.715 379.061L189.78 379.028L224.843 399.273C216.154 404.293 205.003 407.03 193.61 407.492C192.306 398.268 190.597 385.62 189.715 379.061Z" fill="white"/>
<path d="M189.666 364.688V369.732L224.729 390.876V384.932L189.666 364.688Z" fill="#E87538"/>
<path d="M154.935 406.116V399.144C157.616 400.707 160.49 402.027 163.543 403.128L154.935 406.116Z" fill="#15A2D4"/>
<path d="M384.335 211.471L353.175 193.478V224.395L384.335 242.388V211.471Z" fill="white" stroke="#B3DDFF" stroke-width="0.6795" stroke-miterlimit="10"/>
<path d="M364.123 226.986L357.872 223.358L358.001 213.552L364.253 217.18L364.123 226.986Z" fill="#FF9359"/>
<path d="M371.783 231.425L365.532 227.805L365.613 221.392L371.864 225.019L371.783 231.425Z" fill="#18BDF7"/>
<path d="M379.67 236.007L373.427 232.379L373.597 219.528L379.84 223.156L379.67 236.007Z" fill="#FF5C97"/>
<path d="M363.483 211.974L358.543 209.132C358.098 208.881 357.709 208.184 357.677 207.601C357.644 207.01 357.968 206.743 358.413 206.994L363.353 209.836C363.798 210.087 364.187 210.784 364.22 211.367C364.252 211.958 363.92 212.233 363.483 211.974Z" fill="#18BDF7"/>
<path d="M371.759 216.905L366.819 214.062C366.374 213.811 365.985 213.115 365.953 212.532C365.921 211.941 366.244 211.673 366.69 211.924L371.629 214.767C372.075 215.018 372.463 215.714 372.496 216.297C372.536 216.88 372.204 217.156 371.759 216.905Z" fill="#18BDF7"/>
<path d="M376.593 210.281L358.916 200.03C358.341 199.698 357.782 199.884 357.685 200.459C357.588 201.034 357.976 201.771 358.559 202.111L376.237 212.363C376.812 212.695 377.37 212.508 377.468 211.933C377.565 211.358 377.168 210.613 376.593 210.281Z" fill="#1737A2"/>
<path d="M333.271 477.223C327.319 481.182 317.561 481.79 311.48 478.583C305.398 475.376 305.293 469.562 311.245 465.602C317.197 461.643 326.954 461.035 333.036 464.242C339.117 467.449 339.223 473.263 333.271 477.223Z" fill="#DBEFFF"/>
<path d="M336.226 360.211C335.756 359.166 336.283 357.943 337.36 357.563C338.688 357.093 340.348 357.053 341.068 359.255C341.894 361.766 343.822 366.543 345.125 369.718C345.571 370.811 344.186 371.734 343.36 370.892C342.631 370.155 342.008 369.191 341.781 367.968C341.781 367.968 342.51 370.009 343.271 371.718C343.668 372.6 342.793 373.523 341.894 373.167C340.34 372.552 338.623 371.321 338.583 368.851C338.534 365.831 337.141 362.243 336.226 360.211Z" fill="#1737A2"/>
<path d="M334.396 360.623C335.076 361.668 336.153 362.162 336.801 361.741C337.449 361.319 337.425 360.129 336.744 359.093C336.064 358.048 334.987 357.554 334.339 357.975C333.692 358.396 333.716 359.578 334.396 360.623Z" fill="#FF9359"/>
<path d="M321.634 396.546C322.031 396.748 322.428 396.959 322.873 397.015C323.909 397.161 325.027 396.538 326.055 395.93C326.153 395.874 326.25 395.817 326.314 395.72C326.46 395.525 326.436 395.266 326.371 395.056C325.999 393.792 325.399 393.825 324.525 393.096C324.128 392.764 323.78 392.375 323.391 392.043C322.784 391.517 322.087 391.128 321.391 390.74C320.549 390.27 317.48 388.658 316.856 390.966C316.589 391.962 316.678 392.61 317.164 393.258C317.755 394.035 318.079 394.408 318.848 394.95C319.739 395.558 320.687 396.06 321.634 396.546Z" fill="#FFC2B0"/>
<path d="M325.99 394.327C325.658 393.485 325.569 392.991 325.1 392.27C324.735 391.703 324.201 391.266 323.577 391.015C322.363 390.529 320.346 389.841 319.674 390.31C318.808 390.91 319.69 391.914 320.233 392.537C321.31 393.768 323.116 394.635 324.581 395.177C324.833 395.274 325.035 395.21 325.181 395.08C325.245 395.21 324.703 394.861 324.76 394.999C325.092 395.833 326.322 395.153 325.99 394.327Z" fill="#FFC2B0"/>
<path d="M325.691 393.906L327.116 395.404L324.347 398.659L322.711 396.991L325.691 393.906Z" fill="#D0E7F4"/>
<path d="M315.763 466.623L322.233 461.692L326.007 461.044C327.254 465.959 326.687 465.36 325.254 466.623L319.617 470.129C316.654 471.546 315.714 471.725 313.982 470.971C312.945 469.862 313.933 468.421 315.763 466.623Z" fill="#1737A2"/>
<path d="M323.002 471.319L329.472 466.388L333.246 465.74C334.493 470.655 333.926 470.056 332.493 471.319L326.857 474.826C323.893 476.243 322.954 476.421 321.221 475.668C320.193 474.558 321.18 473.109 323.002 471.319Z" fill="#1737A2"/>
<path d="M335.206 379.199C334.639 378.543 333.862 378.122 333.101 377.733C332.234 377.296 331.335 376.907 330.412 376.583C328.614 375.96 326.711 375.628 324.809 375.684C323.804 375.717 323.804 377.279 324.809 377.247C326.525 377.19 328.21 377.482 329.829 378.033C330.623 378.3 331.4 378.624 332.153 379.004C332.85 379.353 333.578 379.701 334.097 380.3C334.761 381.069 335.854 379.96 335.206 379.199Z" fill="white"/>
<path d="M321.666 379.273C321.051 387.662 319.982 395.906 318.103 404.109C317.204 408.028 311.172 406.392 312.071 402.473C313.828 394.804 314.84 387.144 315.415 379.297C315.714 375.313 321.966 375.257 321.666 379.273Z" fill="#18BDF7"/>
<path d="M322.994 410.814C322.752 427.852 323.65 444.541 326.493 461.336C327.157 465.271 321.14 466.955 320.468 462.996C317.529 445.642 316.5 428.426 316.743 410.814C316.808 406.798 323.051 406.789 322.994 410.814Z" fill="#FFC2B0"/>
<path d="M331.165 415.68C332.136 432.669 333.651 449.674 333.683 466.703C333.691 470.728 327.44 470.728 327.432 466.703C327.399 449.674 325.893 432.669 324.913 415.68C324.686 411.663 330.938 411.671 331.165 415.68Z" fill="#FFC2B0"/>
<path d="M337.255 417.608C336.623 426.386 331.003 427.276 325.335 423.997C319.666 420.717 316.516 413.276 316.516 406.733C316.516 406.733 319.666 397.023 325.335 400.295C331.011 403.574 337.992 407.413 337.255 417.608Z" fill="#18BDF7"/>
<path d="M317.942 381.33C317.942 381.33 314.192 387.225 314.613 390.788C314.889 393.056 316.516 395.598 316.759 396.327C318.711 402.263 317.634 404.052 317.844 405.696C317.844 405.696 319.148 411.34 333.076 406.004L338.923 388.82L317.942 381.33Z" fill="#18BDF7"/>
<path d="M337.894 392.585C338.404 392.27 338.534 391.427 338.534 391.427C338.89 388.367 340.574 386.974 337.238 381.726C336.704 380.884 329.408 377.103 323.934 376.115C321.277 375.637 318.654 377.111 317.577 379.589C316.953 381.038 316.346 383.905 316.346 383.905C316.087 389.533 318.581 382.147 318.97 385.249C318.953 385.176 318.937 385.095 318.929 385.022C318.929 385.022 319.609 390.269 320.119 394.335C320.435 396.869 320.662 398.699 320.686 398.958C320.686 398.966 320.686 398.991 320.686 398.991L330.193 406.481L335.197 397.452L337.894 392.585Z" fill="#18BDF7"/>
<path d="M324.274 376.042C324.274 376.042 319.521 380.949 323.642 384.423C327.764 387.897 334.777 380.131 334.777 380.131C331.092 377.823 327.553 376.26 324.274 376.042Z" fill="#FFC2B0"/>
<path d="M316.516 406.74L313.148 429.883C313.132 430.199 313.229 430.507 313.431 430.782C314.727 432.499 321.262 437.001 335.554 434.466C337.198 434.175 337.473 434.094 337.465 433.017L336.639 414.586L328.226 414.505L316.516 406.74Z" fill="#18BDF7"/>
<path d="M326.419 378.868L324.152 370.123L329.634 371.855L331.481 378.998C331.869 380.164 328.055 383.338 326.419 378.868Z" fill="#FFC2B0"/>
<path d="M322.524 376.714C322.524 376.77 322.508 376.932 322.533 376.706C322.525 376.795 322.5 376.876 322.484 376.965C322.435 377.208 322.387 377.459 322.33 377.702C322.192 378.333 322.055 378.965 321.925 379.597C321.788 380.236 321.658 380.884 321.569 381.54C321.504 381.994 321.399 382.52 321.52 382.973C321.747 383.824 322.686 384.512 323.423 384.909C324.265 385.362 325.213 385.613 326.168 385.654C327.99 385.735 329.399 384.909 330.889 383.986C331.521 383.597 332.145 383.208 332.776 382.819C333.699 382.261 334.274 381.378 335.076 380.682C335.837 380.018 334.728 378.916 333.975 379.58C333.311 380.163 332.825 380.957 332.072 381.427C331.675 381.678 331.262 381.921 330.865 382.164C329.699 382.884 328.525 383.832 327.14 384.05C326.322 384.18 325.464 384.083 324.695 383.783C324.314 383.637 323.933 383.427 323.61 383.176C323.456 383.054 323.31 382.917 323.189 382.771C323.116 382.682 323.002 382.463 323.051 382.674C322.97 382.334 323.091 381.904 323.14 381.572C323.237 380.981 323.359 380.398 323.48 379.815C323.691 378.827 324.087 377.734 324.087 376.714C324.095 375.71 322.533 375.71 322.524 376.714Z" fill="white"/>
<path d="M324.428 376.333L322.8 375.84C320.29 375.07 318.865 372.39 319.626 369.88L322.161 361.588C322.93 359.077 325.61 357.652 328.121 358.413L329.748 358.907C332.259 359.677 333.684 362.357 332.923 364.867L330.388 373.159C329.619 375.678 326.938 377.103 324.428 376.333Z" fill="#FFC2B0"/>
<path d="M325.472 376.479C326.201 376.641 328.055 376.454 328.857 376.09C328.857 376.09 327.31 377.734 325.61 377.912L325.472 376.479Z" fill="#EA8A6C"/>
<path d="M327.829 361.142C327.829 361.142 329.254 368.074 331.222 370.179L330.574 371.434C329.926 372.697 329.885 374.195 330.468 375.491L330.711 376.026C330.711 376.026 343.619 368.883 335.44 359.911C329.91 353.838 320.994 356.98 321.002 363.466L327.829 361.142Z" fill="#1737A2"/>
<path d="M331.238 373.653C330.307 374.01 329.553 373.516 329.545 372.56C329.537 371.605 330.29 370.536 331.222 370.179C332.153 369.823 332.906 370.317 332.914 371.272C332.914 372.236 332.169 373.297 331.238 373.653Z" fill="#FFC2B0"/>
<path d="M308.653 409.299L310.75 410.635C311.779 411.291 312.985 411.243 313.447 410.522L313.771 410.02C314.224 409.307 313.763 408.182 312.734 407.526L310.637 406.19C309.609 405.534 308.402 405.582 307.94 406.303L307.616 406.805C307.155 407.518 307.625 408.643 308.653 409.299Z" fill="#FFC2B0"/>
<path d="M326.266 407.071V406.561L325.61 406.812L325.472 406.488L309.018 396.99C308.823 396.876 308.467 396.892 308.24 397.022L301.155 401.111V400.998L299.843 401.524V402.067H299.851C299.867 402.124 299.908 402.172 299.972 402.205L317.099 412.092C317.293 412.205 317.65 412.189 317.877 412.059L326.079 407.322C326.201 407.258 326.266 407.16 326.266 407.071Z" fill="#A8C4E5"/>
<path d="M317.083 411.558L299.956 401.671C299.762 401.558 299.786 401.355 300.013 401.226L308.216 396.489C308.442 396.359 308.791 396.343 308.993 396.456L326.12 406.343C326.314 406.457 326.29 406.659 326.063 406.789L317.86 411.526C317.633 411.656 317.285 411.672 317.083 411.558Z" fill="#E1EAF4"/>
<path d="M318.257 405.193L314.111 402.796C314.063 402.772 314.071 402.723 314.127 402.691L316.111 401.541C316.168 401.509 316.249 401.509 316.298 401.533L320.444 403.93C320.492 403.954 320.484 404.003 320.427 404.035L318.443 405.185C318.387 405.217 318.306 405.217 318.257 405.193Z" fill="#A8C4E5"/>
<path d="M316.654 400.432C316.581 399.979 316.233 399.444 315.868 399.242L298.863 389.581C298.709 389.492 298.58 389.476 298.491 389.524C298.458 389.541 298.426 389.565 298.402 389.589L297.835 390.18L298.345 390.132L299.964 400.578C300.037 401.031 300.385 401.566 300.75 401.768L316.832 410.902L317.35 411.485L317.415 411.631C317.739 411.704 318.516 411.145 318.516 411.145L316.654 400.432Z" fill="white"/>
<path d="M317.148 412.069L300.142 402.408C299.778 402.197 299.422 401.663 299.357 401.218L297.721 390.65C297.648 390.197 297.891 390.002 298.256 390.213L315.261 399.873C315.625 400.084 315.982 400.618 316.046 401.064L317.682 411.631C317.747 412.077 317.512 412.271 317.148 412.069Z" fill="#1737A2"/>
<path d="M308.11 401.842C308.199 402.401 307.689 402.53 306.977 402.125C306.264 401.72 305.608 400.935 305.527 400.376C305.438 399.817 305.948 399.688 306.661 400.093C307.373 400.49 308.021 401.275 308.11 401.842Z" fill="white"/>
<path d="M339.36 384.099C341.109 388.131 343.392 392.277 343.854 396.715C344.194 399.954 344.494 405.234 342.129 407.809C339.878 410.254 336.137 409.825 333.214 409.218C331.408 408.837 329.651 408.262 327.885 407.72C327.108 407.477 326.339 407.25 325.561 407.023C325.237 406.926 324.403 406.902 324.776 406.805C321.852 407.55 320.605 403.031 323.529 402.286C325.691 401.736 328.169 402.91 330.193 403.533C332.201 404.149 336.04 405.841 338.105 404.91C339.829 404.133 339.4 398.999 339.222 397.225C338.841 393.476 336.785 389.864 335.319 386.463C334.12 383.726 338.161 381.337 339.36 384.099Z" fill="#FFC2B0"/>
<path d="M340.34 383.588C343.765 390.366 344.138 397.67 344.138 404.926C344.138 408.197 337.894 408.343 337.894 405.063C337.894 398.213 337.579 391.467 334.348 385.07C332.817 382.05 338.826 380.6 340.34 383.588Z" fill="#18BDF7"/>
<path d="M317.86 405.785L317.755 405.38C317.431 404.19 318.152 402.951 319.342 402.627L322.695 401.728C323.885 401.412 325.124 402.125 325.448 403.315L325.553 403.72C325.877 404.911 325.156 406.15 323.966 406.473L320.614 407.372C319.415 407.688 318.184 406.975 317.86 405.785Z" fill="#FFC2B0"/>
<path d="M368.101 327.632C368.131 322.171 360.487 317.703 351.028 317.651C341.569 317.6 333.877 321.985 333.848 327.446C333.818 332.907 341.462 337.375 350.921 337.426C360.379 337.477 368.071 333.092 368.101 327.632Z" fill="#DBEFFF"/>
<path d="M344.413 320.919L337.076 322.417L336.088 324.96C335.853 326.782 335.862 327.754 337.076 328.717C338.096 329.527 340.17 328.904 341.255 328.394L345.967 325.559C349.458 323.632 349.198 322.207 348.818 321.033C348.259 319.721 346.64 320.02 344.413 320.919Z" fill="#1737A2"/>
<path d="M359.984 329.948L352.899 327.552L350.769 329.252C349.643 330.71 349.166 331.552 349.732 332.993C350.202 334.208 352.316 334.71 353.506 334.815L359.004 334.734C362.988 334.831 363.482 333.463 363.741 332.256C363.912 330.847 362.357 330.297 359.984 329.948Z" fill="#1737A2"/>
<path d="M334.955 239.076C330.954 245.141 329.189 252.875 327.61 259.871C327.27 261.377 327.14 262.276 327.537 263.758C328.873 268.673 330.388 273.273 330.962 278.398C331.254 280.982 335.343 281.014 335.052 278.398C334.517 273.637 333.602 268.94 332.088 264.389C331.805 263.531 331.489 262.689 331.165 261.847C331.465 262.616 331.06 263.191 331.222 262.495C331.319 262.065 331.408 261.628 331.505 261.199C333.011 254.454 334.647 246.971 338.493 241.141C339.935 238.938 336.396 236.882 334.955 239.076Z" fill="#FFC2B0"/>
<path d="M333.796 240.68C331.092 245.393 329.132 253.361 327.351 259.807C326.678 261.588 327.1 263.2 328.225 263.127L331.991 263.645C332.922 263.588 334.687 261.58 335.116 260.09L339.886 243.692C340.663 241.02 340.088 238.728 338.558 238.388L338.21 238.34C337.959 237.352 335.837 237.335 333.796 240.68Z" fill="#88BDEB"/>
<path d="M346.445 270.552L327.561 281.451C326.638 281.986 325.48 281.322 325.48 280.253V267.102C325.48 266.608 325.747 266.147 326.177 265.904L345.061 255.004C345.984 254.47 347.142 255.134 347.142 256.203V269.353C347.133 269.847 346.874 270.309 346.445 270.552Z" fill="#1737A2"/>
<path d="M339.327 266.844C339.327 268.366 338.25 270.229 336.922 270.99C335.594 271.751 334.517 271.144 334.517 269.621C334.517 268.099 335.594 266.236 336.922 265.475C338.25 264.706 339.327 265.313 339.327 266.844Z" fill="white"/>
<path d="M336.226 279.03L334.85 279.654C333.797 280.131 332.542 279.662 332.064 278.601C331.586 277.548 332.056 276.293 333.117 275.815L334.493 275.192C335.546 274.714 336.801 275.184 337.279 276.244C337.757 277.297 337.279 278.552 336.226 279.03Z" fill="#FFC2B0"/>
<path opacity="0.46" d="M352.146 225.844L352.178 226.613C352.178 226.613 352.284 228.945 349.992 227.739C347.7 226.532 347.773 223.633 347.773 223.633C347.773 223.633 349.506 223.423 352.146 225.844Z" fill="white"/>
<path d="M349.968 227.805C352.956 229.36 352.851 226.639 352.851 226.639L352.875 226.647L352.786 225.724C349.449 222.857 347.336 222.995 347.336 222.995C347.336 222.995 346.98 226.25 349.968 227.805ZM347.878 223.74C347.878 223.74 349.579 223.651 352.13 225.869L352.154 226.542C352.154 226.542 352.235 228.558 350.008 227.4C347.781 226.25 347.878 223.74 347.878 223.74Z" fill="#513554"/>
<path d="M353.968 227.165L352.187 226.355L352.098 225.351L353.871 226.161L353.968 227.165Z" fill="#513554"/>
<path d="M347.474 223.772L347.158 223.626C346.988 223.545 346.834 223.311 346.81 223.092C346.785 222.873 346.915 222.76 347.085 222.841L347.401 222.987C347.571 223.068 347.725 223.302 347.749 223.521C347.773 223.74 347.644 223.853 347.474 223.772Z" fill="#513554"/>
<path d="M358.964 229.019L358.648 228.873C358.478 228.792 358.324 228.558 358.3 228.339C358.276 228.12 358.405 228.007 358.575 228.088L358.891 228.234C359.061 228.315 359.215 228.55 359.239 228.768C359.264 228.987 359.134 229.1 358.964 229.019Z" fill="#513554"/>
<path d="M358.713 228.193C358.713 228.193 356.373 226.023 353.304 225.967L353.393 226.89L353.417 226.898C353.417 226.898 353.847 229.764 356.794 230.914C359.75 232.08 358.713 228.193 358.713 228.193ZM356.673 230.445C354.478 229.586 354.162 227.457 354.162 227.457L354.049 226.744C356.389 226.752 358.26 228.477 358.26 228.477C358.26 228.477 358.867 231.303 356.673 230.445Z" fill="#2C4482"/>
<path d="M354.567 227.966C354.494 227.877 354.47 227.764 354.519 227.715L355.053 227.132C355.102 227.084 355.199 227.116 355.272 227.205C355.345 227.294 355.369 227.408 355.32 227.456L354.786 228.039C354.737 228.088 354.64 228.056 354.567 227.966Z" fill="#2C4482"/>
<path d="M348.219 224.946C348.146 224.857 348.121 224.744 348.17 224.695L348.705 224.112C348.753 224.063 348.85 224.096 348.923 224.185C348.996 224.274 349.02 224.387 348.972 224.436L348.437 225.019C348.389 225.067 348.292 225.035 348.219 224.946Z" fill="#FCFEFF"/>
<path d="M347.547 285.111C350.268 293.087 350.519 301.655 350.259 310.003C350.065 316.222 349.085 322.498 349.239 328.717C349.344 332.798 355.693 332.815 355.588 328.717C355.426 322.328 356.446 315.882 356.616 309.485C356.851 300.788 356.495 291.727 353.66 283.419C352.357 279.572 346.219 281.224 347.547 285.111Z" fill="#1737A2"/>
<path d="M334.769 277.953C336.194 283.128 336.842 288.472 337.352 293.8C337.66 296.95 338.032 299.955 337.7 303.097C337.036 309.421 335.854 315.867 335.902 322.232C335.927 326.321 342.283 326.329 342.251 322.232C342.21 315.77 343.417 309.235 344.081 302.813C344.413 299.582 343.968 296.416 343.644 293.185C343.085 287.5 342.405 281.775 340.891 276.253C339.805 272.333 333.675 274.002 334.769 277.953Z" fill="#1737A2"/>
<path d="M339.975 286.351C340.558 287.007 338.04 283.808 338.793 284.27C340.364 285.217 349.182 291.209 351.02 291.242C353.239 291.282 351.944 289.136 353.595 287.655C355.158 286.254 355.531 283.97 355.685 281.873C355.725 281.29 355.758 280.691 355.523 280.156C355.272 279.581 354.753 279.168 354.251 278.796C350.332 275.832 342.631 268.495 337.157 270.836C330.833 273.54 337.165 283.209 339.975 286.351Z" fill="#1737A2"/>
<path d="M335.376 239.425C334.218 240.923 334.355 241.846 334.412 243.887C334.469 245.879 335.821 247.612 337.74 248.146L357.377 253.653C357.377 253.653 358.503 246.098 354.632 243.822C352.543 242.599 349.312 240.64 346.769 239.093C343.028 236.818 338.056 235.967 335.376 239.425Z" fill="#DBEFFF"/>
<path d="M344.332 239.165L345.992 231.764L350.51 234.801L349.15 241.538C349.012 242.639 344 241.684 344.332 239.165Z" fill="#FFC2B0"/>
<path d="M347.068 220.97C347.068 220.97 342.542 217.82 342.501 225.48C342.469 230.808 345.708 235.424 350.081 237.505C352.802 238.801 356.13 237.141 356.284 234.485C356.931 230.614 356.94 226.994 355.668 223.877C355.846 220.678 353.644 221.812 349.846 221.609L347.068 220.97Z" fill="#FFC2B0"/>
<path d="M344.477 235.837C344.477 235.837 339.246 233.894 339.74 226.525C340.275 218.557 347.611 219.237 351.684 218.848C353.49 218.678 354.745 218.419 356.592 220.063C358.276 221.561 356.697 224.93 354.292 225.148C353.336 225.237 353.773 227.812 353.579 228.695C353.239 230.266 352.259 231.035 351.895 232.558C351.555 233.999 349.425 236.258 348.048 236.412C345.595 236.704 344.477 235.837 344.477 235.837Z" fill="#1737A2"/>
<path d="M334.339 274.916C333.092 274.431 333.391 252.947 334.509 241.084L356.616 251.603C356.502 261.701 355.231 269.677 356.438 281.986L334.339 274.916Z" fill="#DBEFFF"/>
<path d="M349.061 284.172C343.603 282.18 338.396 280.002 335.343 276.253C333.845 275.386 334.031 273.856 335.764 272.86C337.497 271.856 340.145 271.75 341.643 272.617L355.361 280.536C356.859 281.403 356.673 282.933 354.94 283.929C353.207 284.933 350.567 285.039 349.061 284.172Z" fill="#DBEFFF"/>
<path d="M356.616 251.596L352.972 249.863C352.826 259.71 351.62 267.621 352.802 279.703L352.745 279.687C352.77 280.367 352.284 281.096 351.312 281.662C349.579 282.667 346.931 282.772 345.433 281.905C342.809 280.95 340.251 279.946 337.959 278.755C340.971 281.063 344.947 282.675 349.069 284.181C350.567 285.047 353.215 284.934 354.948 283.938C355.92 283.379 356.405 282.65 356.381 281.962L356.438 281.978C355.231 269.67 356.503 261.702 356.616 251.596Z" fill="#DBEFFF"/>
<path d="M358.843 229.262L352.089 229.91C351.846 229.934 351.636 229.756 351.611 229.513C351.587 229.27 351.765 229.059 352.008 229.035L358.762 228.387C359.005 228.363 359.215 228.541 359.239 228.784C359.264 229.027 359.086 229.238 358.843 229.262Z" fill="#2C4482"/>
<path d="M352.073 242.3C347.004 241.538 343.578 244.729 342.364 237.425C343.101 236.963 344.056 237.19 344.55 237.902C345.417 239.158 347.271 239.951 349.32 239.7C349.935 239.627 350.534 239.911 350.866 240.429L352.073 242.3Z" fill="#DCEFFF"/>
<path d="M352.907 248.908C353.255 253.135 353.928 256.997 355.693 260.876C356.964 263.662 358.268 267.646 361.013 269.403C367.224 273.371 373.84 263.208 376.771 259.346C378.358 257.248 374.812 255.216 373.241 257.281C371.581 259.467 365.451 269.063 362.284 264.925C358.908 260.512 357.434 254.293 356.988 248.9C356.786 246.3 352.697 246.276 352.907 248.908Z" fill="#FFC2B0"/>
<path d="M350.85 248.858C352.089 259.312 355.385 265.961 359.944 269.337C362.341 270.665 364.592 266.876 363.669 264.592C359.126 260.551 357.523 254.243 357.094 247.052C356.503 245.595 354.81 244.801 353.191 245.222C351.506 245.66 350.47 247.263 350.85 248.858Z" fill="white"/>
<path d="M371.491 261.021L372.082 261.499C373.184 262.382 374.803 262.204 375.686 261.102L377.67 258.624C378.552 257.523 378.374 255.904 377.273 255.021L376.682 254.543C375.581 253.66 373.961 253.839 373.078 254.94L371.094 257.418C370.212 258.519 370.39 260.139 371.491 261.021Z" fill="#FFC2B0"/>
<path d="M349.304 233.222C349.053 233.408 348.494 238.736 352.972 237.87C357.458 237.003 356.552 232.525 356.552 232.525C356.552 232.525 352.997 233.448 352.009 229.035C351.021 224.622 349.304 233.222 349.304 233.222Z" fill="#1737A2"/>
<path d="M353.126 231.019C353.231 232.282 352.591 233.368 351.684 233.44C351.587 233.449 351.49 233.449 351.393 233.432C350.607 233.311 349.951 232.42 349.854 231.303C349.749 230.039 350.389 228.954 351.296 228.881C352.194 228.792 353.012 229.756 353.126 231.019Z" fill="#FFC2B0"/>
<g opacity="0.4">
<path opacity="0.4" d="M204.72 275.273C205.635 274.39 205.845 273.014 205.473 271.629C204.08 266.495 203.942 260.924 203.934 255.758C203.934 253.928 203.942 253.725 204.136 251.952C204.015 253.029 204.201 251.83 204.315 251.522C204.42 251.255 204.525 250.988 204.639 250.721C204.906 250.105 205.222 249.53 205.545 248.939C205.57 248.899 205.578 248.883 205.586 248.858C205.618 248.826 205.635 248.81 205.675 248.769C205.861 248.567 206.064 248.356 206.242 248.146C206.274 248.113 206.315 248.073 206.363 248.032C206.541 247.903 206.712 247.773 206.898 247.66C206.995 247.595 208.202 246.526 208.307 246.47L201.545 242.469C200.509 243.692 198.023 246.356 197.423 247.895C196.249 250.907 196.363 254.114 196.427 257.418C196.533 262.778 196.978 268.204 198.428 273.54C198.517 273.88 198.679 274.196 198.889 274.479L195.213 279.962C194.176 282.099 193.796 283.695 195.197 284.44C197.1 284.683 197.917 284.27 200.16 282.172L204.112 277.451C204.639 276.496 205.124 276.277 204.72 275.273ZM206.46 247.943C206.582 247.846 206.655 247.798 206.46 247.943V247.943Z" fill="#A8C4E5"/>
<path opacity="0.4" d="M215.441 248.914C214.461 249.999 211.991 253.441 211.416 254.834C210.307 257.522 210.024 260.413 209.384 263.247C208.242 268.3 207.052 273.321 206.282 278.471C206.056 279.961 206.736 281.167 207.756 281.945L205.157 288.536C204.59 290.869 204.549 292.529 206.048 293.023C207.926 292.917 208.631 292.35 210.364 289.848L213.214 284.398C213.57 283.249 214.04 282.998 213.165 281.831C213.457 281.451 213.668 280.973 213.757 280.382C214.502 275.378 215.611 270.495 216.753 265.604C217.036 264.381 217.222 263.142 217.449 261.911C217.571 261.247 217.708 260.591 217.862 259.935C217.935 259.644 218.016 259.352 218.097 259.061C218.121 258.98 218.129 258.931 218.137 258.899C218.154 258.85 218.178 258.793 218.21 258.721C218.842 257.166 221.951 254.307 223.053 253.319L215.441 248.914Z" fill="#A8C4E5"/>
</g>
<path d="M190.249 275.928L194.451 269.668L197.747 268.073C200.768 272.276 200.015 271.871 199.148 273.409L195.197 278.13C192.953 280.22 192.136 280.641 190.233 280.398C188.832 279.653 189.212 278.057 190.249 275.928Z" fill="#1F3B82"/>
<path d="M200.193 284.512L202.97 277.475L205.812 275.281C209.57 278.933 208.76 278.673 208.242 280.374L205.391 285.824C203.658 288.326 202.954 288.893 201.075 288.998C199.585 288.504 199.634 286.844 200.193 284.512Z" fill="#1F3B82"/>
<path d="M216.437 207.924C213.368 211.746 211.197 215.066 209.934 219.836C208.736 224.37 208.153 228.97 207.424 233.626C206.97 236.509 202.168 235.286 202.622 232.395C203.456 227.059 204.169 221.803 205.667 216.637C207.035 211.932 209.626 208.426 212.655 204.653C214.461 202.409 218.226 205.689 216.437 207.924Z" fill="#FFC2B0"/>
<path d="M210.072 202.628L205.108 213.528C204.492 217.018 212.89 219.39 213.675 216.605L217.441 205.649C217.935 203.867 216.874 201.883 214.995 201.049C213.036 200.191 210.865 200.887 210.072 202.628Z" fill="#FF9359"/>
<path d="M218.194 229.805C213.546 231.554 208.809 233.117 204.079 234.696C201.545 235.538 198.848 236.372 196.743 237.927C194.678 239.449 193.374 241.522 192.467 243.862C191.293 246.875 191.407 250.081 191.471 253.385C191.577 258.746 192.022 264.171 193.472 269.508C193.99 271.427 196.63 272.488 198.371 272.018C200.452 271.451 201.043 269.524 200.517 267.597C199.124 262.463 198.986 256.892 198.978 251.725C198.978 249.895 198.986 249.693 199.18 247.919C199.059 248.996 199.245 247.798 199.359 247.49C199.464 247.223 199.569 246.956 199.682 246.688C199.95 246.073 200.265 245.498 200.589 244.907C200.873 244.389 200.071 245.417 200.711 244.737C200.897 244.534 201.1 244.324 201.278 244.113C201.432 243.927 202.015 243.53 201.213 244.121C201.448 243.951 201.683 243.781 201.934 243.619C202.484 243.271 203.083 242.988 203.691 242.721C202.881 243.085 203.707 242.721 203.893 242.648C204.298 242.502 204.695 242.348 205.1 242.202C210.363 240.332 215.724 238.688 220.947 236.72C222.769 236.032 223.887 234.299 223.093 232.299C222.405 230.574 220.032 229.116 218.194 229.805Z" fill="#1F3B82"/>
<path d="M224.421 236.339C220.299 238.841 216.008 241.214 212.194 244.113C209.797 245.935 207.618 248 206.46 250.801C205.351 253.49 205.068 256.381 204.428 259.215C203.286 264.268 202.096 269.289 201.327 274.439C200.654 278.925 208.121 280.844 208.793 276.35C209.538 271.345 210.647 266.462 211.789 261.571C212.072 260.349 212.258 259.11 212.485 257.879C212.607 257.215 212.744 256.559 212.898 255.903C212.971 255.612 213.052 255.32 213.133 255.028C213.327 254.324 212.914 255.514 213.254 254.68C214.097 252.615 215.198 251.385 216.971 250.097C220.745 247.336 224.875 244.987 228.899 242.55C232.794 240.177 228.332 233.966 224.421 236.339Z" fill="#1F3B82"/>
<path d="M219.231 244.38L210.08 239.619C207.894 238.485 206.906 235.942 207.886 233.983C208.857 232.015 211.441 231.335 213.627 232.476L222.777 237.238C224.964 238.372 225.944 240.914 224.972 242.874C223.992 244.834 221.409 245.514 219.231 244.38Z" fill="#21275E"/>
<path d="M208.306 230.241C209.278 230.298 211.837 222.038 210.104 204.774L233.636 216.297C232.332 227.472 234.519 227.682 230.745 241.311L208.306 230.241Z" fill="#FF9359"/>
<path d="M221.571 236.419C222.129 237.318 229.766 233.52 229.304 219.43C229.247 217.641 229.474 217.495 231.304 218.135L233.701 216.855C233.264 225.957 234.746 228.718 233.069 237.278C232.494 240.201 228.923 241.359 226.186 239.513L221.571 236.419Z" fill="#FF9359"/>
<path d="M225.255 243.425C218.599 240.971 212.234 238.315 208.282 233.959C206.428 232.922 206.525 231.205 208.501 230.137C210.477 229.068 213.303 227.529 215.157 228.566L231.369 238.42C233.223 239.457 232.187 240.583 230.211 241.651L230.089 240.55C228.113 241.619 227.109 244.461 225.255 243.425Z" fill="#FF9359"/>
<path d="M231.49 239.052L226.445 232.623C217.74 245.312 211.295 235.676 208.768 234.477C212.744 238.17 218.251 240.712 224.308 242.939C226.162 243.976 229.304 243.951 231.272 242.883C233.248 241.806 233.345 240.089 231.49 239.052Z" fill="#FF9359"/>
<path d="M211.433 200.895C209.991 202.393 210.113 203.446 210.097 205.746C210.08 207.989 211.619 210.135 213.886 211.042L237.038 220.281C237.038 220.281 238.698 211.997 234.179 208.839C231.75 207.138 227.976 204.442 225.013 202.304C220.656 199.178 214.769 197.446 211.433 200.895Z" fill="#FF9359"/>
<path d="M221.328 204.71L218.445 195.163L224.713 197.438L227.061 205.236C227.539 206.516 223.344 209.625 221.328 204.71Z" fill="#FFC2B0"/>
<path d="M220.712 202.491C220.826 202.734 223.676 201.794 223.555 201.495C223.555 201.495 222.469 203.293 221.06 203.859L220.712 202.491Z" fill="#EA8A6C"/>
<path d="M235.96 213.739C236.843 217.893 238.066 222.023 238.835 226.185C239.507 229.788 240.714 234.566 239.005 237.862C236.146 243.384 226.526 241.101 221.23 242.656C218.331 243.506 216.566 239.044 219.457 238.194C222.316 237.352 225.263 237.101 228.316 236.987C230.778 236.898 234.154 237.311 234.843 234.631C235.612 231.626 234.268 227.294 233.579 224.185C232.81 220.695 231.847 217.237 231.11 213.739C230.494 210.775 235.337 210.799 235.96 213.739Z" fill="#FFC2B0"/>
<path d="M205.78 230.501C207.108 231.189 207.716 232.736 207.124 233.934L205.084 238.088C204.493 239.287 202.922 239.708 201.594 239.019C200.266 238.331 199.658 236.784 200.25 235.586L202.29 231.432C202.881 230.233 204.452 229.812 205.78 230.501Z" fill="#FFC2B0"/>
<path d="M229.312 213.091L231.336 225.456C232.761 228.93 240.794 226.921 239.887 224.006L236.875 212.192C236.292 210.329 234.348 209.05 232.389 209.228C230.348 209.414 228.988 211.115 229.312 213.091Z" fill="#FF9359"/>
<path d="M222.883 241.741L220.834 241.15L220.17 241.409L219.984 241.085L201.626 231.538C201.408 231.424 201.043 231.441 200.817 231.57L193.812 235.676L193.796 235.562L192.476 236.089L192.533 236.631H192.541C192.565 236.688 192.614 236.736 192.687 236.769L211.789 246.697C211.813 246.713 211.83 246.737 211.838 246.77C212.234 248.235 212.906 249.539 214.154 248.778L221.911 244.203C222.527 243.862 222.891 243.239 222.891 242.534L222.883 241.741Z" fill="#A8C4E5"/>
<path d="M212.574 248.226L190.581 236.792C190.33 236.662 190.33 236.428 190.589 236.274L199.934 230.792C200.193 230.638 200.614 230.622 200.873 230.751L222.867 242.185C223.118 242.315 223.118 242.55 222.859 242.703L213.514 248.186C213.247 248.347 212.825 248.364 212.574 248.226Z" fill="#E1EAF4"/>
<path d="M213.19 240.867L207.87 238.097C207.805 238.065 207.813 238.008 207.87 237.976L210.129 236.648C210.194 236.607 210.291 236.607 210.356 236.64L215.676 239.409C215.741 239.442 215.732 239.498 215.676 239.531L213.417 240.859C213.352 240.891 213.246 240.899 213.19 240.867Z" fill="#A8C4E5"/>
<path d="M210.639 235.36C210.501 234.841 209.999 234.218 209.53 233.983L187.722 222.8C187.528 222.703 187.366 222.679 187.261 222.727C187.22 222.743 187.188 222.768 187.164 222.808L186.556 223.488L187.172 223.432L190.443 235.513C190.581 236.032 191.083 236.655 191.553 236.89L212.186 247.458L212.89 248.13L212.987 248.3C213.392 248.381 214.267 247.741 214.267 247.741L210.639 235.36Z" fill="white"/>
<path d="M212.704 248.818L190.889 237.643C190.419 237.4 189.925 236.785 189.779 236.266L186.467 224.047C186.33 223.529 186.589 223.294 187.059 223.537L208.874 234.712C209.343 234.955 209.837 235.57 209.983 236.088L213.295 248.308C213.441 248.826 213.174 249.061 212.704 248.818Z" fill="#18BDF7"/>
<path d="M200.469 236.987C200.647 237.635 200.039 237.781 199.124 237.311C198.209 236.842 197.319 235.935 197.148 235.287C196.97 234.639 197.578 234.493 198.493 234.963C199.408 235.433 200.299 236.34 200.469 236.987Z" fill="white"/>
<path d="M213.44 242.363C212.809 240.971 213.449 239.456 214.858 239.003L219.732 237.424C221.141 236.97 222.81 237.731 223.441 239.124C224.073 240.517 223.433 242.031 222.024 242.485L217.149 244.064C215.732 244.517 214.064 243.756 213.44 242.363Z" fill="#FFC2B0"/>
<path d="M219.368 202.977C218.51 205.025 220.834 206.782 222.526 207.309C223.466 207.6 224.502 207.43 225.441 207.204C226.421 206.969 227.498 206.588 227.838 205.544C228.187 204.467 228.065 203.009 227.369 202.102C227.102 201.754 226.51 201.819 226.227 202.102C225.887 202.442 225.96 202.896 226.227 203.244C226.122 203.114 226.219 203.26 226.251 203.325C226.292 203.406 226.243 203.309 226.235 203.292C226.251 203.341 226.267 203.39 226.284 203.438C226.308 203.527 226.332 203.616 226.348 203.713C226.357 203.754 226.365 203.794 226.373 203.835C226.357 203.746 226.373 203.835 226.373 203.875C226.389 204.078 226.397 204.28 226.389 204.483C226.389 204.58 226.381 204.677 226.365 204.774C226.357 204.871 226.365 204.774 226.365 204.758C226.357 204.823 226.34 204.88 226.324 204.944C226.308 205.025 226.284 205.098 226.259 205.171C226.324 204.969 226.203 205.26 226.276 205.147C226.34 205.041 226.251 205.171 226.219 205.195C226.138 205.268 226.34 205.122 226.235 205.179C226.195 205.203 226.162 205.228 226.122 205.252C226.049 205.292 225.968 205.333 225.895 205.365C225.879 205.373 225.757 205.422 225.871 205.373C225.83 205.39 225.79 205.406 225.749 205.414C225.539 205.487 225.32 205.552 225.101 205.608C224.907 205.657 224.705 205.697 224.502 205.738C224.243 205.786 224.186 205.795 223.952 205.811C223.773 205.827 223.595 205.827 223.417 205.835C223.393 205.835 223.368 205.827 223.336 205.827C223.231 205.835 223.498 205.859 223.385 205.835C223.312 205.819 223.247 205.811 223.174 205.795C223.02 205.762 222.875 205.714 222.721 205.657C222.672 205.641 222.632 205.624 222.583 205.608C222.599 205.616 222.688 205.657 222.607 205.616C222.518 205.576 222.421 205.527 222.332 205.487C222.17 205.406 222.008 205.309 221.854 205.203C221.789 205.163 221.725 205.114 221.66 205.066C221.555 204.985 221.741 205.131 221.636 205.05C221.595 205.017 221.555 204.985 221.514 204.944C221.36 204.807 221.214 204.661 221.077 204.499C220.996 204.402 221.142 204.588 221.069 204.483C221.044 204.442 221.012 204.402 220.988 204.361C220.963 204.321 220.939 204.28 220.915 204.24C220.907 204.224 220.842 204.094 220.882 204.175C220.907 204.232 220.834 204.029 220.826 203.973C220.818 203.94 220.81 203.908 220.802 203.875C220.834 204.045 220.802 203.892 220.81 203.851C220.81 203.819 220.81 203.778 220.81 203.746C220.81 203.543 220.785 203.827 220.818 203.713C220.842 203.6 220.882 203.495 220.923 203.39C221.093 202.985 220.745 202.499 220.356 202.393C219.895 202.288 219.538 202.572 219.368 202.977Z" fill="#FCFEFF"/>
<path d="M221.117 202.555L219.327 202.742C216.574 203.033 213.837 201.09 213.246 198.434L211.294 189.648C210.703 186.992 212.468 184.579 215.23 184.287L217.019 184.101C219.773 183.809 222.51 185.753 223.101 188.409L225.052 197.195C225.643 199.851 223.87 202.264 221.117 202.555Z" fill="#FFC2B0"/>
<path d="M218.955 190.984C217.23 191.972 215.659 191.624 213.424 191C211.003 190.32 209.926 188.271 211.408 186.554C212.21 185.623 212.696 184.635 214.59 183.688C219.975 180.999 226.624 183.186 228.041 189.542C228.041 189.542 229.798 196.563 226.486 199.203C225.895 199.673 224.923 199.389 224.583 198.66C224.583 198.66 226.356 196.612 223.684 195.13C222.874 194.684 221.951 193.518 221.822 192.449C221.692 191.364 219.878 190.449 218.955 190.984Z" fill="#1737A2"/>
<path d="M225.805 197.349C225.198 198.118 224.234 198.045 223.643 197.195C223.06 196.336 223.068 195.017 223.675 194.247C224.283 193.478 225.246 193.551 225.837 194.401C226.429 195.259 226.412 196.579 225.805 197.349Z" fill="#FFC2B0"/>
<path d="M213.271 190.919C213.238 191.081 219.304 192.28 221.571 195.883C221.984 196.539 223.053 196.256 223.263 195.575C223.644 194.353 223.814 192.555 222.478 190.854C220.154 187.907 213.514 189.761 213.271 190.919Z" fill="#1737A2"/>
<path d="M24.1238 159.12L18.4068 162.424C17.6294 162.87 16.9978 162.392 16.9978 161.363C16.9978 160.327 17.6294 159.12 18.4068 158.675L24.1238 155.371C24.9012 154.926 25.5328 155.404 25.5328 156.432C25.5328 157.468 24.9012 158.675 24.1238 159.12Z" fill="#18BDF7"/>
<path d="M24.1238 137.855L18.4068 141.159C17.6294 141.604 16.9978 141.126 16.9978 140.098C16.9978 139.062 17.6294 137.855 18.4068 137.41L24.1238 134.106C24.9012 133.66 25.5328 134.138 25.5328 135.167C25.5328 136.203 24.9012 137.41 24.1238 137.855Z" fill="#18BDF7"/>
<path d="M24.1238 179.882L18.4068 183.186C17.6294 183.632 16.9978 183.154 16.9978 182.125C16.9978 181.089 17.6294 179.882 18.4068 179.437L24.1238 176.133C24.9012 175.688 25.5328 176.166 25.5328 177.194C25.5328 178.23 24.9012 179.437 24.1238 179.882Z" fill="#18BDF7"/>
<path d="M24.1238 200.644L18.4068 203.948C17.6294 204.394 16.9978 203.916 16.9978 202.887C16.9978 201.851 17.6294 200.644 18.4068 200.199L24.1238 196.895C24.9012 196.45 25.5328 196.927 25.5328 197.956C25.5328 198.992 24.9012 200.199 24.1238 200.644Z" fill="#18BDF7"/>
<path d="M24.1238 223.642L18.4068 226.946C17.6294 227.392 16.9978 226.914 16.9978 225.885C16.9978 224.849 17.6294 223.642 18.4068 223.197L24.1238 219.893C24.9012 219.448 25.5328 219.926 25.5328 220.954C25.5328 221.982 24.9012 223.189 24.1238 223.642Z" fill="#18BDF7"/>
<defs>
<linearGradient id="paint0_linear" x1="255.622" y1="286.558" x2="400.895" y2="286.558" gradientUnits="userSpaceOnUse">
<stop offset="0.0591" stop-color="#88B6EA"/>
<stop offset="0.9409" stop-color="#BAD5EB"/>
</linearGradient>
<linearGradient id="paint1_linear" x1="191.264" y1="438.652" x2="283.539" y2="438.652" gradientUnits="userSpaceOnUse">
<stop offset="0.0591" stop-color="#88B6EA"/>
<stop offset="0.9409" stop-color="#BAD5EB"/>
</linearGradient>
<linearGradient id="paint2_linear" x1="216.54" y1="119.774" x2="352.71" y2="119.774" gradientUnits="userSpaceOnUse">
<stop stop-color="#E5F2FF"/>
<stop offset="0.3563" stop-color="#E2F0FE"/>
<stop offset="0.6047" stop-color="#D9E8FA"/>
<stop offset="0.8197" stop-color="#CADAF5"/>
<stop offset="1" stop-color="#B6C9ED"/>
</linearGradient>
<linearGradient id="paint3_linear" x1="401.843" y1="373.203" x2="513.535" y2="373.203" gradientUnits="userSpaceOnUse">
<stop offset="0.0591" stop-color="#88B6EA"/>
<stop offset="0.9409" stop-color="#BAD5EB"/>
</linearGradient>
</defs>
</svg>
